<svg width="110" height="118" viewBox="0 0 110 118" fill="none" xmlns="http://www.w3.org/2000/svg">
<g id="Group 24195">
<g id="Group 24188">
<g id="Group 24186">
<path id="Vector 121" d="M94.9046 83.8385C84.0023 76.3847 93.7536 68.3511 99.4197 64.707C107.109 71.167 110.828 73.9001 108.184 80.1116C107.306 82.1763 102.607 87.5655 94.9046 83.8385Z" fill="#592272" stroke="white" stroke-width="0.9" stroke-linejoin="round"/>
<path id="Vector 110" d="M82.942 49.3027H78.6924" stroke="black" stroke-width="0.9"/>
<path id="Vector 109" d="M78.1602 43.3379H82.9409" stroke="black" stroke-width="0.9"/>
<path id="Vector 113" d="M20.2607 73.6499V29.0113L53.5917 9.54688L86.1292 29.0113V73.6499H20.2607Z" fill="#592272" stroke="white" stroke-width="0.9" stroke-linejoin="round"/>
<g id="Group 24179">
<path id="Vector 112" d="M20.2607 5.57031V21.4718L30.3535 15.4402V5.57031H20.2607Z" fill="#592272" stroke="white" stroke-width="0.9" stroke-linejoin="round"/>
<path id="Vector 111" d="M11.2305 26.9376V35.1368L53.7262 9.7938L96.7532 35.1368V26.9376L53.7262 1.09766L11.2305 26.9376Z" fill="#592272" stroke="white" stroke-width="0.9" stroke-linejoin="round"/>
</g>
<path id="Vector 116" d="M82.941 49.301H79.2227V43.3379H82.941V49.301Z" fill="#592272" stroke="white" stroke-width="0.9" stroke-linejoin="round"/>
<g id="Group 24180">
<path id="Vector 115" d="M74.1742 39.3604V32.9004M74.1742 32.9004H80.283M74.1742 32.9004H68.0654" stroke="white" stroke-width="0.9" stroke-linecap="round" stroke-linejoin="round"/>
<path id="Vector 114" d="M20.2582 49.2978V42.8378H11.7591C6.23463 42.8378 4.85352 46.8132 4.85352 48.8009V80.6039C4.85352 87.7596 11.2279 89.5485 14.4151 89.5485H57.442C62.5415 89.5485 63.8164 85.5732 63.8164 83.5855V74.144V50.7886C63.8164 49.3972 65.2329 49.0494 65.9412 49.0494H69.3939V51.2855C69.3939 52.8757 70.6334 53.2732 71.2531 53.2732H77.0963C78.7961 53.2732 79.2211 51.9481 79.2211 51.2855V41.3471C79.2211 39.7569 77.9816 39.3594 77.3619 39.3594H71.5187C69.8189 39.3594 69.3939 40.6845 69.3939 41.3471V43.3348H63.8164C58.7169 43.3348 57.442 46.9789 57.442 48.8009V74.144V80.6039C57.442 82.9892 55.6714 83.5855 54.786 83.5855H14.4151C12.2903 83.5855 11.7591 81.5978 11.7591 80.6039V52.2794C11.7591 50.2917 13.5297 49.4635 14.4151 49.2978H20.2582Z" fill="#592272" stroke="white" stroke-width="0.9" stroke-linejoin="round"/>
</g>
<path id="Vector 81" d="M7.63379 83.0918C7.592 83.9225 8.23423 85.8325 11.1374 86.8269" stroke="white" stroke-width="0.9" stroke-linecap="round"/>
<path id="Vector 119" d="M62.3779 45.4355C61.4957 45.538 59.5926 46.4542 59.0377 49.2994" stroke="white" stroke-width="0.9" stroke-linecap="round"/>
<path id="Trazado 2618" d="M62.811 60.3385L62.8111 71.1705C62.8111 71.3983 62.7825 71.6168 62.7317 71.7778C62.681 71.9389 62.6121 72.0293 62.5403 72.0293C62.4685 72.0293 62.3996 71.9389 62.3488 71.7778C62.2981 71.6168 62.2695 71.3983 62.2695 71.1705L62.2695 60.3385C62.2695 60.1108 62.2981 59.8923 62.3488 59.7312C62.3996 59.5702 62.4685 59.4798 62.5403 59.4798C62.6121 59.4798 62.681 59.5702 62.7317 59.7312C62.7825 59.8923 62.811 60.1108 62.811 60.3385Z" fill="#C8C8C8"/>
<path id="Trazado 2620" d="M9.21632 58.5456L9.21632 69.3776C9.21632 69.6053 9.1878 69.8238 9.13702 69.9849C9.08624 70.1459 9.01737 70.2363 8.94556 70.2363C8.87375 70.2363 8.80489 70.1459 8.75411 69.9849C8.70333 69.8238 8.6748 69.6053 8.6748 69.3776L8.6748 58.5456C8.6748 58.3178 8.70333 58.0993 8.75411 57.9383C8.80489 57.7772 8.87375 57.6868 8.94556 57.6868C9.01737 57.6868 9.08624 57.7772 9.13702 57.9383C9.1878 58.0993 9.21632 58.3178 9.21632 58.5456Z" fill="#C8C8C8"/>
<path id="Trazado 2621" d="M10.5892 61.1979L10.5892 67.8822C10.5892 68.0227 10.5556 68.1576 10.4957 68.2569C10.4359 68.3563 10.3548 68.4121 10.2702 68.4121C10.1856 68.4121 10.1044 68.3563 10.0446 68.2569C9.98478 68.1576 9.95117 68.0227 9.95117 67.8822L9.95117 61.1979C9.95117 61.0574 9.98478 60.9226 10.0446 60.8232C10.1044 60.7238 10.1856 60.668 10.2702 60.668C10.3548 60.668 10.4359 60.7238 10.4957 60.8232C10.5556 60.9226 10.5892 61.0574 10.5892 61.1979Z" fill="#C8C8C8"/>
<path id="Trazado 2619" d="M49.2247 87.0759H37.6455C37.4021 87.0759 37.1685 87.0493 36.9964 87.0019C36.8242 86.9545 36.7275 86.8902 36.7275 86.8231C36.7275 86.7561 36.8242 86.6918 36.9964 86.6444C37.1685 86.5969 37.4021 86.5703 37.6455 86.5703H49.2247C49.4681 86.5703 49.7017 86.5969 49.8738 86.6444C50.046 86.6918 50.1427 86.7561 50.1427 86.8231C50.1427 86.8902 50.046 86.9545 49.8738 87.0019C49.7017 87.0493 49.4681 87.0759 49.2247 87.0759Z" fill="#C8C8C8"/>
<g id="Grupo 1974">
<path id="Trazado 2589" d="M28.2767 8.24613H22.335C22.2073 8.24613 22.0848 8.18368 21.9945 8.07251C21.9042 7.96134 21.8535 7.81056 21.8535 7.65334C21.8535 7.49612 21.9042 7.34534 21.9945 7.23417C22.0848 7.123 22.2073 7.06055 22.335 7.06055H28.2776C28.4053 7.06055 28.5277 7.123 28.618 7.23417C28.7083 7.34534 28.7591 7.49612 28.7591 7.65334C28.7591 7.81056 28.7083 7.96134 28.618 8.07251C28.5277 8.18368 28.4053 8.24613 28.2776 8.24613H28.2767Z" fill="#C8C8C8"/>
</g>
<path id="Vector 117" d="M28.7607 42.8379V73.6471H48.9462V42.8379H28.7607Z" fill="#592272" stroke="white" stroke-width="0.9" stroke-linejoin="round"/>
<path id="Vector 118" d="M95.8132 43.832H89.8457V49.2982H93.2985C95.2515 49.2982 95.8132 51.203 95.8132 52.0313V57.7459H102.594V50.0436C102.594 45.0743 98.0736 43.832 95.8132 43.832Z" fill="#592272" stroke="white" stroke-width="0.9" stroke-linejoin="round"/>
<rect id="Rectangle 23971" x="82.8602" y="40.3074" width="6.53676" height="12.02" rx="3.26838" fill="#592272" stroke="white" stroke-width="0.9"/>
<rect id="Rectangle 23972" x="92.4207" y="57.7" width="13.9735" height="4.56615" rx="2.28307" fill="#592272" stroke="white" stroke-width="0.9"/>
<path id="Vector 120" d="M100.454 48.6523C100.393 47.8227 99.5189 45.995 96.5123 45.3213" stroke="white" stroke-width="0.9" stroke-linecap="round"/>
<path id="Vector 122" d="M104.296 81.1777C105.17 81.0245 107.009 80 107.374 77.1281" stroke="white" stroke-width="0.9" stroke-linecap="round"/>
<rect id="Rectangle 23973" x="44.9736" y="57.0957" width="1.91036" height="2.9785" rx="0.955182" fill="white"/>
</g>
<path id="Ellipse 47" d="M59.1693 25.2236C59.1693 27.7438 56.9762 29.8371 54.2066 29.8371C51.4371 29.8371 49.2439 27.7438 49.2439 25.2236C49.2439 22.7035 51.4371 20.6102 54.2066 20.6102C56.9762 20.6102 59.1693 22.7035 59.1693 25.2236Z" fill="#592272" stroke="white" stroke-width="0.9"/>
<path id="Trazado 2608" d="M75.9787 52.3301H71.1508C70.9642 52.3301 70.7852 52.1834 70.6533 51.9224C70.5214 51.6613 70.4473 51.3073 70.4473 50.9381C70.4473 50.8333 70.4683 50.7328 70.5058 50.6587C70.5432 50.5846 70.594 50.543 70.647 50.543C70.6999 50.543 70.7507 50.5846 70.7882 50.6587C70.8257 50.7328 70.8467 50.8333 70.8467 50.9381C70.8468 51.0976 70.8789 51.2505 70.9359 51.3633C70.9929 51.4761 71.0702 51.5396 71.1508 51.5398H75.9787C76.0316 51.5398 76.0824 51.5814 76.1198 51.6555C76.1573 51.7296 76.1784 51.8301 76.1784 51.9349C76.1784 52.0397 76.1573 52.1402 76.1198 52.2143C76.0824 52.2884 76.0316 52.3301 75.9787 52.3301Z" fill="#C8C8C8"/>
<path id="Trazado 2618_2" d="M88.1205 51.1387H84.3655C84.2204 51.1387 84.0812 50.992 83.9786 50.731C83.876 50.4699 83.8184 50.1159 83.8184 49.7467C83.8184 49.6419 83.8347 49.5414 83.8639 49.4673C83.893 49.3932 83.9325 49.3516 83.9737 49.3516C84.0149 49.3516 84.0544 49.3932 84.0835 49.4673C84.1127 49.5414 84.129 49.6419 84.129 49.7467C84.1291 49.9062 84.1541 50.0591 84.1984 50.1719C84.2427 50.2847 84.3028 50.3482 84.3655 50.3484H88.1205C88.1617 50.3484 88.2012 50.39 88.2304 50.4641C88.2595 50.5382 88.2759 50.6387 88.2759 50.7435C88.2759 50.8483 88.2595 50.9488 88.2304 51.0229C88.2012 51.097 88.1617 51.1387 88.1205 51.1387Z" fill="#C8C8C8"/>
</g>
<g id="Group 24181">
<path id="Trazado 2606" d="M8.36154 108.165L8.20903 108.588C7.50489 108.334 6.86148 107.961 6.31676 107.487C5.77194 107.013 5.33585 106.447 5.03702 105.819C4.73769 105.189 4.58506 104.513 4.58532 103.829L8.36154 108.165ZM8.36154 108.165L8.20903 108.588M8.36154 108.165L8.20903 108.588M8.20903 108.588C8.91309 108.842 9.66597 108.972 10.4251 108.971L8.20903 108.588ZM84.883 109.122L84.9781 109.169L85.0844 109.17L98.3139 109.189C97.1708 111.519 95.2924 113.537 92.8777 115.002C90.2493 116.596 87.1168 117.454 83.9025 117.454C80.7755 117.455 77.7235 116.643 75.1373 115.129C72.5515 113.614 70.5537 111.469 69.3891 108.976L69.2679 108.716H68.9814H18.2076H18.0077L17.8736 108.864C16.6591 110.209 14.984 111.197 13.0776 111.68C11.1712 112.164 9.13799 112.116 7.2651 111.545C5.39225 110.973 3.7821 109.909 2.6536 108.512C1.52602 107.116 0.934507 105.456 0.950309 103.766C0.966111 102.076 1.58857 100.424 2.74257 99.0438C3.8975 97.6621 5.52791 96.6208 7.41152 96.0757C9.29515 95.5306 11.329 95.5119 13.2258 96.0223C15.1226 96.5328 16.7785 97.5443 17.9673 98.9051L18.1018 99.059H18.3062H68.9778H69.2643L69.3855 98.7995C70.5668 96.2709 72.604 94.1015 75.2407 92.5842C77.8776 91.0668 80.9857 90.276 84.1563 90.321C87.3269 90.3659 90.4031 91.2443 92.981 92.835C95.3466 94.2947 97.1871 96.2888 98.3131 98.5856L85.0835 98.6046L84.9771 98.6048L84.8821 98.6526L80.0744 101.069L79.8265 101.194V101.471V106.303V106.58L80.0744 106.705L84.883 109.122ZM5.58721 100.949C4.93766 101.795 4.58554 102.797 4.58532 103.829L10.4253 108.971C11.5673 108.971 12.6878 108.677 13.6456 108.12C14.6036 107.563 15.3607 106.765 15.8108 105.819C16.2615 104.872 16.3809 103.825 16.15 102.815C15.9194 101.805 15.3521 100.888 14.5319 100.174C13.7124 99.4603 12.6751 98.98 11.5539 98.7858C10.4326 98.5915 9.26986 98.6907 8.21054 99.0724C7.15115 99.4542 6.23601 100.104 5.58721 100.949Z" fill="#592272" stroke="white" stroke-width="0.9"/>
<path id="Vector 80" d="M2.38672 105.547C2.62273 106.945 4.36925 109.918 9.46717 110.625" stroke="white" stroke-width="0.9" stroke-linecap="round"/>
<path id="Trazado 2607" d="M58.429 104.966H48.5516C48.3439 104.966 48.1447 104.944 47.9979 104.903C47.851 104.863 47.7686 104.808 47.7686 104.751C47.7686 104.694 47.851 104.639 47.9979 104.598C48.1447 104.558 48.3439 104.535 48.5516 104.535H58.429C58.6367 104.535 58.8359 104.558 58.9828 104.598C59.1296 104.639 59.2121 104.694 59.2121 104.751C59.2121 104.808 59.1296 104.863 58.9828 104.903C58.8359 104.944 58.6367 104.966 58.429 104.966Z" fill="white"/>
<path id="Trazado 2608_2" d="M24.5205 104.764H19.9399C19.7629 104.764 19.5931 104.694 19.468 104.57C19.3428 104.447 19.2725 104.279 19.2725 104.103C19.2725 104.054 19.2924 104.006 19.328 103.971C19.3635 103.936 19.4117 103.916 19.4619 103.916C19.5122 103.916 19.5604 103.936 19.5959 103.971C19.6315 104.006 19.6514 104.054 19.6514 104.103C19.6515 104.179 19.682 104.252 19.736 104.305C19.7901 104.359 19.8634 104.389 19.9399 104.389H24.5205C24.5708 104.389 24.6189 104.409 24.6545 104.444C24.69 104.479 24.71 104.527 24.71 104.576C24.71 104.626 24.69 104.674 24.6545 104.709C24.6189 104.744 24.5708 104.764 24.5205 104.764Z" fill="white"/>
<path id="Trazado 2609" d="M72.3412 100.194C72.2111 100.151 72.1126 100.05 72.0672 99.9141C72.0218 99.7777 72.0333 99.6168 72.0992 99.4666C72.6306 98.3278 73.376 97.2842 74.2801 96.413C74.3397 96.3578 74.4068 96.3139 74.4776 96.2837C74.5483 96.2534 74.6214 96.2376 74.6925 96.2369C74.7636 96.2363 74.8314 96.2509 74.8921 96.2799C74.9527 96.3089 75.005 96.3518 75.046 96.406C75.0869 96.4603 75.1158 96.5249 75.1308 96.5961C75.1458 96.6674 75.1468 96.7439 75.1335 96.8212C75.1203 96.8986 75.0932 96.9753 75.0538 97.0471C75.0144 97.1188 74.9635 97.1841 74.9038 97.2393C74.1507 97.9689 73.5278 98.8393 73.0797 99.7885C73.047 99.8629 73.0019 99.9325 72.947 99.9931C72.8921 100.054 72.8284 100.104 72.7597 100.142C72.6909 100.179 72.6185 100.203 72.5464 100.212C72.4743 100.221 72.404 100.215 72.3396 100.193L72.3412 100.194Z" fill="white"/>
<path id="Trazado 2611" d="M84.7905 116.179C81.7131 116.177 78.7363 115.332 76.3903 113.793C76.2368 113.687 76.1429 113.539 76.1288 113.38C76.1147 113.222 76.1814 113.065 76.3147 112.944C76.4481 112.822 76.6375 112.746 76.8426 112.731C77.0476 112.716 77.2522 112.764 77.4126 112.864C79.4732 114.215 82.0876 114.957 84.7905 114.959C85 114.959 85.2009 115.023 85.349 115.138C85.4971 115.252 85.5803 115.407 85.5803 115.569C85.5803 115.731 85.4971 115.886 85.349 116C85.2009 116.115 85 116.179 84.7905 116.179Z" fill="white"/>
<path id="Trazado 2612" d="M74.6921 111.004C74.5327 111.004 74.376 110.978 74.2365 110.928C74.0971 110.879 73.9795 110.808 73.8947 110.721L73.8018 110.626C73.334 110.188 72.9608 109.711 72.6926 109.208C72.6159 109.058 72.6334 108.896 72.7412 108.754C72.8491 108.613 73.0388 108.504 73.2699 108.451C73.501 108.398 73.7552 108.405 73.9782 108.471C74.2013 108.537 74.3755 108.656 74.4636 108.803C74.6841 109.223 74.9968 109.621 75.3923 109.984L75.4863 110.08C75.5758 110.171 75.6256 110.276 75.6304 110.384C75.6352 110.492 75.595 110.598 75.5138 110.693C75.4325 110.787 75.3133 110.866 75.1686 110.92C75.0239 110.975 74.86 111.004 74.6921 111.004Z" fill="white"/>
</g>
</g>
</svg>
