<svg width="18" height="16" viewBox="0 0 18 16" fill="none" xmlns="http://www.w3.org/2000/svg">
<g id="angle-down">
<path id="Vector" d="M9.00953 12.5592C8.85205 12.5592 8.70805 12.5352 8.57306 12.4872C8.43807 12.4392 8.30758 12.3592 8.17709 12.2392L0.338564 5.27161C0.100079 5.05963 -0.0124144 4.80764 0.00108476 4.51566C0.0145839 4.22368 0.140576 3.97169 0.379062 3.75971C0.617547 3.54772 0.90103 3.44373 1.22951 3.44373C1.55799 3.44373 1.84147 3.54772 2.07996 3.75971L9.00953 9.95533L15.9796 3.75971C16.2181 3.54772 16.4926 3.44773 16.8121 3.45972C17.1315 3.47172 17.406 3.58372 17.6445 3.7957C17.883 4.00769 18 4.25968 18 4.55166C18 4.84364 17.883 5.09563 17.6445 5.30761L9.84198 12.2432C9.71149 12.3592 9.5765 12.4432 9.44601 12.4912C9.31552 12.5392 9.16703 12.5632 9.00953 12.5632V12.5592Z" fill="#2C421F"/>
</g>
</svg>
