<svg width="8" height="9" viewBox="0 0 8 9" fill="none" xmlns="http://www.w3.org/2000/svg">
<g id="angle-right">
<path id="Vector" d="M4.97784 4.49575L1.87603 1.39394C1.77004 1.28795 1.72204 1.16596 1.72804 1.02597C1.73404 0.885976 1.79003 0.763984 1.89403 0.65799C1.99802 0.551997 2.12401 0.5 2.27 0.5C2.416 0.5 2.54199 0.551997 2.64598 0.65799L6.11576 4.12777C6.17376 4.18577 6.21576 4.24377 6.23776 4.30376C6.25976 4.36376 6.27375 4.42576 6.27375 4.49575C6.27375 4.56575 6.26175 4.62974 6.23776 4.68774C6.21376 4.74574 6.17376 4.80373 6.11576 4.86373L2.62798 8.35151C2.52199 8.4575 2.4 8.5055 2.26001 8.4995C2.12001 8.4935 1.99802 8.4375 1.89203 8.33351C1.78603 8.22952 1.73404 8.10353 1.73404 7.95754C1.73404 7.81154 1.78603 7.68555 1.89203 7.58156L4.97584 4.49775L4.97784 4.49575Z" fill="#9B4CBA"/>
</g>
</svg>
