<svg width="25" height="25" viewBox="0 0 25 25" fill="none" xmlns="http://www.w3.org/2000/svg">
<g id="Apple">
<path id="Vector" d="M19.3423 13.1803C19.3303 11.2128 20.2183 9.73125 22.0243 8.63956C21.0163 7.19997 19.4923 6.40819 17.4883 6.25223C15.5863 6.10228 13.5043 7.36192 12.7483 7.36192C11.9443 7.36192 10.1023 6.30622 8.65628 6.30622C5.66828 6.3542 2.48828 8.68754 2.48828 13.4442C2.48828 14.8478 2.74628 16.2994 3.26228 17.793C3.94628 19.7604 6.42428 24.577 9.00428 24.4991C10.3543 24.4691 11.3083 23.5393 13.0663 23.5393C14.8243 23.5393 15.6523 24.4991 17.1583 24.4991C19.7623 24.4631 22.0003 20.0783 22.6543 18.1109C19.1623 16.4673 19.3483 13.2882 19.3483 13.1863L19.3423 13.1803ZM16.3123 4.38676C17.7763 2.65325 17.6383 1.0697 17.5963 0.505859C16.3063 0.583837 14.8123 1.38161 13.9603 2.37733C13.0243 3.43903 12.4723 4.75266 12.5863 6.22824C13.9843 6.33621 15.2623 5.61641 16.3123 4.39276V4.38676Z" fill="white"/>
</g>
</svg>
