<svg xmlns="http://www.w3.org/2000/svg" id="prefix__btn_google" width="108" height="32" viewBox="0 0 108 32">
    <defs>
        <linearGradient id="prefix__linear-gradient" x1=".915" x2="-.383" y1="6.614" y2="5.945" gradientUnits="objectBoundingBox">
            <stop offset="0" stop-color="#00a0ff"/>
            <stop offset=".007" stop-color="#00a1ff"/>
            <stop offset=".26" stop-color="#00beff"/>
            <stop offset=".512" stop-color="#00d2ff"/>
            <stop offset=".76" stop-color="#00dfff"/>
            <stop offset="1" stop-color="#00e3ff"/>
        </linearGradient>
        <linearGradient id="prefix__linear-gradient-2" x1="1.076" x2="-1.305" y1="17.098" y2="17.098" gradientUnits="objectBoundingBox">
            <stop offset="0" stop-color="#ffe000"/>
            <stop offset=".409" stop-color="#ffbd00"/>
            <stop offset=".775" stop-color="orange"/>
            <stop offset="1" stop-color="#ff9c00"/>
        </linearGradient>
        <linearGradient id="prefix__linear-gradient-3" x1=".862" x2="-.501" y1="10.863" y2="9.093" gradientUnits="objectBoundingBox">
            <stop offset="0" stop-color="#ff3a44"/>
            <stop offset="1" stop-color="#c31162"/>
        </linearGradient>
        <linearGradient id="prefix__linear-gradient-4" x1="-.188" x2=".421" y1="13.583" y2="12.793" gradientUnits="objectBoundingBox">
            <stop offset="0" stop-color="#32a071"/>
            <stop offset=".068" stop-color="#2da771"/>
            <stop offset=".476" stop-color="#15cf74"/>
            <stop offset=".801" stop-color="#06e775"/>
            <stop offset="1" stop-color="#00f076"/>
        </linearGradient>
        <style>
            .prefix__cls-10{fill:#fff}.prefix__cls-8{opacity:.12}.prefix__cls-10{stroke:#fff;stroke-miterlimit:10;stroke-width:.2px}
        </style>
    </defs>
    <rect id="prefix__Rectángulo_1944" width="108" height="32" data-name="Rectángulo 1944" rx="5"/>
    <g id="prefix__Grupo_1508" data-name="Grupo 1508">
        <g id="prefix__Grupo_1507" data-name="Grupo 1507">
            <path id="prefix__Trazado_2112" d="M113.587 10.637a3.35 3.35 0 013.347 3.347v23.9a3.35 3.35 0 01-3.347 3.347h-99.6a3.35 3.35 0 01-3.347-3.347v-23.9a3.35 3.35 0 013.347-3.347h99.6m0-.637h-99.6A4 4 0 0010 13.984v23.9a4 4 0 003.984 3.984h99.6a4 4 0 003.984-3.984v-23.9A4 4 0 00113.587 10z" data-name="Trazado 2112" transform="translate(-10 -10)" style="fill:#a6a6a6"/>
        </g>
    </g>
    <path id="prefix__Trazado_2113" d="M72.631 30.8a3.389 3.389 0 103.4 3.389 3.34 3.34 0 00-3.4-3.389zm0 5.442a2.059 2.059 0 111.912-2.053 1.961 1.961 0 01-1.912 2.049zM65.21 30.8a3.389 3.389 0 103.4 3.389 3.34 3.34 0 00-3.4-3.389zm0 5.442a2.059 2.059 0 111.912-2.053 1.961 1.961 0 01-1.912 2.049zm-8.828-4.4v1.437h3.44a3 3 0 01-.782 1.81 3.522 3.522 0 01-2.657 1.053 3.825 3.825 0 010-7.65 3.665 3.665 0 012.593 1.027L59.99 28.5a5.016 5.016 0 00-3.607-1.451 5.264 5.264 0 100 10.527 4.81 4.81 0 003.67-1.476 4.751 4.751 0 001.247-3.366 4.644 4.644 0 00-.077-.9zm36.1 1.116a3.15 3.15 0 00-2.9-2.156 3.22 3.22 0 00-3.2 3.389 3.316 3.316 0 003.363 3.389 3.37 3.37 0 002.824-1.5l-1.15-.78a1.936 1.936 0 01-1.669.937 1.725 1.725 0 01-1.644-1.026l4.532-1.875zm-4.622 1.13a1.859 1.859 0 011.771-1.977 1.311 1.311 0 011.258.719zm-3.684 3.286h1.488v-9.968h-1.485zm-2.44-5.815h-.051A2.349 2.349 0 0079.9 30.8a3.392 3.392 0 000 6.778 2.309 2.309 0 001.784-.771h.051v.488c0 1.3-.692 1.99-1.81 1.99a1.876 1.876 0 01-1.708-1.207l-1.3.539a3.229 3.229 0 003 2c1.746 0 3.222-1.027 3.222-3.53V31H81.74zm-1.707 4.685a2.061 2.061 0 010-4.108 2.07 2.07 0 010 4.108zm19.431-8.837H95.9v9.961h1.486v-3.774h2.074a3.1 3.1 0 100-6.187zm.038 4.8h-2.114v-3.413H99.5a1.708 1.708 0 110 3.414zm9.189-1.43a2.793 2.793 0 00-2.653 1.524l1.32.551a1.408 1.408 0 011.359-.731 1.431 1.431 0 011.563 1.282v.1a3.289 3.289 0 00-1.551-.384c-1.422 0-2.871.782-2.871 2.242a2.3 2.3 0 002.473 2.192 2.1 2.1 0 001.9-.975h.051v.769h1.435v-3.815a2.732 2.732 0 00-3.026-2.754zm-.179 5.459c-.488 0-1.167-.243-1.167-.845 0-.769.845-1.064 1.576-1.064a2.652 2.652 0 011.359.333 1.8 1.8 0 01-1.768 1.577zM116.94 31l-1.7 4.319h-.051L113.416 31h-1.6l2.653 6.036-1.512 3.358h1.543L118.593 31zm-13.392 6.373h1.487v-9.966h-1.487z" data-name="Trazado 2113" transform="translate(-18.339 -13.464)" style="fill:#fff"/>
    <g id="prefix__Grupo_1510" data-name="Grupo 1510" transform="translate(7.947 5.69)">
        <path id="prefix__Trazado_2114" d="M20.341 17.523a1.6 1.6 0 00-.368 1.12v17.622a1.6 1.6 0 00.368 1.12l.059.057 9.872-9.872v-.233L20.4 17.465z" data-name="Trazado 2114" transform="translate(-19.973 -17.206)"/>
        <path id="prefix__Trazado_2115" d="M36.189 32.541L32.9 29.248v-.233l3.292-3.292.074.043 3.9 2.215a1.21 1.21 0 010 2.3l-3.9 2.215z" data-name="Trazado 2115" transform="translate(-22.599 -18.884)"/>
        <path id="prefix__Trazado_2116" d="M33.732 33.367L30.366 30l-9.931 9.931a1.3 1.3 0 001.657.049l11.64-6.614" data-name="Trazado 2116" transform="translate(-20.067 -19.753)"/>
        <path id="prefix__Trazado_2117" d="M33.732 24.022l-11.64-6.614a1.3 1.3 0 00-1.657.049l9.931 9.931z" data-name="Trazado 2117" transform="translate(-20.067 -17.14)"/>
        <g id="prefix__Grupo_1509" data-name="Grupo 1509" transform="translate(0 13.539)">
            <path id="prefix__Trazado_2118" d="M33.657 34.132L22.092 40.7a1.327 1.327 0 01-1.6.009l-.06.059.059.058a1.327 1.327 0 001.6-.009l11.64-6.614z" data-name="Trazado 2118" transform="translate(-20.067 -34.132)" style="opacity:.2"/>
            <path id="prefix__Trazado_2119" d="M20.341 42.033a1.6 1.6 0 01-.368-1.12v.117a1.6 1.6 0 00.368 1.119l.06-.059z" class="prefix__cls-8" data-name="Trazado 2119" transform="translate(-19.973 -35.51)"/>
        </g>
        <path id="prefix__Trazado_2120" d="M41 31.035l-3.973 2.257.074.074L41 31.152A1.4 1.4 0 0041.837 30 1.483 1.483 0 0141 31.035z" class="prefix__cls-8" data-name="Trazado 2120" transform="translate(-23.438 -19.753)"/>
        <path id="prefix__Trazado_2121" d="M22 17.525l15.539 8.829a1.483 1.483 0 01.835 1.034 1.4 1.4 0 00-.835-1.151L22 17.409c-1.114-.633-2.025-.107-2.025 1.168v.117c-.002-1.276.909-1.802 2.025-1.169z" data-name="Trazado 2121" transform="translate(-19.973 -17.14)" style="opacity:.25;fill:#fff"/>
    </g>
    <g id="prefix__Grupo_1511" data-name="Grupo 1511" transform="translate(32.893 5.471)">
        <path id="prefix__Trazado_2122" d="M51.28 21.781V17h1.462a2.378 2.378 0 011.763.665 2.585 2.585 0 010 3.452 2.378 2.378 0 01-1.763.665zm.614-.587h.848a1.792 1.792 0 001.312-.475 1.773 1.773 0 00.484-1.328 1.662 1.662 0 00-1.8-1.8h-.848z" class="prefix__cls-10" data-name="Trazado 2122" transform="translate(-51.28 -16.893)"/>
        <path id="prefix__Trazado_2123" d="M57.239 21.781V17h.614v4.781z" class="prefix__cls-10" data-name="Trazado 2123" transform="translate(-52.491 -16.893)"/>
        <path id="prefix__Trazado_2124" d="M60.65 21.86a1.781 1.781 0 01-1.018-.34 1.574 1.574 0 01-.652-.955l.561-.226a1.285 1.285 0 00.41.664 1.038 1.038 0 00.7.27 1.116 1.116 0 00.684-.21.672.672 0 00.284-.571.731.731 0 00-.284-.618 2.933 2.933 0 00-.9-.4 2.386 2.386 0 01-.962-.518 1.079 1.079 0 01-.328-.811 1.185 1.185 0 01.408-.894 1.491 1.491 0 011.061-.381 1.534 1.534 0 01.988.3 1.407 1.407 0 01.495.665l-.561.233a.825.825 0 00-.3-.421 1.045 1.045 0 00-1.215 0 .6.6 0 00-.25.49.557.557 0 00.23.451 2.219 2.219 0 00.677.331 5.658 5.658 0 01.591.221 2.674 2.674 0 01.48.284 1.127 1.127 0 01.367.441 1.429 1.429 0 01.124.61 1.309 1.309 0 01-.143.622 1.175 1.175 0 01-.381.434 1.92 1.92 0 01-1.072.327z" class="prefix__cls-10" data-name="Trazado 2124" transform="translate(-52.845 -16.866)"/>
        <path id="prefix__Trazado_2125" d="M64.8 21.781h-.614V17h1.63a1.511 1.511 0 011.052.4 1.39 1.39 0 010 2.037 1.511 1.511 0 01-1.052.4H64.8zm0-2.524h1.029a.792.792 0 00.621-.26.823.823 0 000-1.148.79.79 0 00-.621-.261H64.8z" class="prefix__cls-10" data-name="Trazado 2125" transform="translate(-53.902 -16.893)"/>
        <path id="prefix__Trazado_2126" d="M72.912 21.136a2.483 2.483 0 01-3.505 0 2.583 2.583 0 010-3.546 2.475 2.475 0 013.5 0 2.575 2.575 0 010 3.543zm-3.052-.4a1.839 1.839 0 002.6 0 2.037 2.037 0 000-2.744 1.839 1.839 0 00-2.6 0 2.039 2.039 0 000 2.744z" class="prefix__cls-10" data-name="Trazado 2126" transform="translate(-54.82 -16.866)"/>
        <path id="prefix__Trazado_2127" d="M75.951 21.781V17h.749l2.324 3.719h.026l-.026-.921V17h.614v4.781H79l-2.43-3.9h-.026l.026.922v2.978z" class="prefix__cls-10" data-name="Trazado 2127" transform="translate(-56.293 -16.893)"/>
        <path id="prefix__Trazado_2128" d="M81.951 21.781V17h.614v4.781z" class="prefix__cls-10" data-name="Trazado 2128" transform="translate(-57.512 -16.893)"/>
        <path id="prefix__Trazado_2129" d="M84.1 21.781V17h1.729a1.4 1.4 0 01.971.371 1.2 1.2 0 01.411.931 1.038 1.038 0 01-.178.6 1.109 1.109 0 01-.47.394v.026a1.22 1.22 0 01.581.414 1.092 1.092 0 01.227.682 1.254 1.254 0 01-.431.975 1.472 1.472 0 01-1.018.387zm.614-2.732h1.116a.715.715 0 00.558-.23.714.714 0 00.006-1 .687.687 0 00-.537-.228H84.71zm0 2.144h1.236a.734.734 0 00.575-.248.8.8 0 00.22-.541.8.8 0 00-.822-.781H84.71z" class="prefix__cls-10" data-name="Trazado 2129" transform="translate(-57.948 -16.893)"/>
        <path id="prefix__Trazado_2130" d="M89.241 21.781V17h.614v4.194h2.069v.587z" class="prefix__cls-10" data-name="Trazado 2130" transform="translate(-58.993 -16.893)"/>
        <path id="prefix__Trazado_2131" d="M96.373 17.587H94.2V19.1h1.963v.574H94.2v1.516h2.177v.587h-2.795V17h2.791z" class="prefix__cls-10" data-name="Trazado 2131" transform="translate(-59.875 -16.893)"/>
        <path id="prefix__Trazado_2132" d="M103.094 17.587h-2.178V19.1h1.963v.574h-1.963v1.516h2.178v.587H100.3V17h2.791z" class="prefix__cls-10" data-name="Trazado 2132" transform="translate(-61.24 -16.893)"/>
        <path id="prefix__Trazado_2133" d="M105.012 21.781V17h.747l2.324 3.719h.026l-.026-.921V17h.615v4.781h-.641l-2.431-3.9h-.026l.026.922v2.978z" class="prefix__cls-10" data-name="Trazado 2133" transform="translate(-62.197 -16.893)"/>
    </g>
</svg>
