<svg xmlns="http://www.w3.org/2000/svg" id="prefix__btn_apple" width="107.571" height="31.873" viewBox="0 0 107.571 31.873">
    <defs>
        <linearGradient id="prefix__linear-gradient" x1="-.385" x2="-.385" y1="1.998" y2="2.046" gradientUnits="objectBoundingBox">
            <stop offset="0" stop-color="#1a1a1a" stop-opacity=".102"/>
            <stop offset=".123" stop-color="#212121" stop-opacity=".153"/>
            <stop offset=".308" stop-color="#353535" stop-opacity=".227"/>
            <stop offset=".532" stop-color="#575757" stop-opacity=".318"/>
            <stop offset=".783" stop-color="#858585" stop-opacity=".42"/>
            <stop offset="1" stop-color="#b3b3b3" stop-opacity=".51"/>
        </linearGradient>
        <style>
            .prefix__cls-1{fill:#fff}
        </style>
    </defs>
    <path id="prefix__Trazado_2134" d="M122.643 43.922a3.053 3.053 0 01-3.053 3.053H19.556a3.057 3.057 0 01-3.056-3.053V19.578a3.061 3.061 0 013.061-3.057h100.03a3.056 3.056 0 013.057 3.056v24.345z" class="prefix__cls-1" data-name="Trazado 2134" transform="translate(-15.785 -15.812)"/>
    <path id="prefix__Trazado_2135" d="M103.8 31.9H3.77A3.771 3.771 0 010 28.141V3.8A3.773 3.773 0 013.77.031H103.8a3.775 3.775 0 013.77 3.769v24.341a3.77 3.77 0 01-3.77 3.759z" data-name="Trazado 2135" transform="translate(0 -.031)" style="fill:#a6a6a6"/>
    <path id="prefix__Trazado_2136" d="M122.643 43.922a3.053 3.053 0 01-3.053 3.053H19.556a3.057 3.057 0 01-3.056-3.053V19.578a3.061 3.061 0 013.061-3.057h100.03a3.056 3.056 0 013.057 3.056v24.345z" data-name="Trazado 2136" transform="translate(-15.785 -15.812)"/>
    <path id="prefix__Trazado_2137" d="M250.9 126.036a4.62 4.62 0 012.2-3.877 4.734 4.734 0 00-3.728-2.015c-1.568-.165-3.089.938-3.888.938-.815 0-2.045-.922-3.371-.9a4.964 4.964 0 00-4.178 2.547c-1.807 3.127-.459 7.722 1.272 10.249.866 1.239 1.878 2.62 3.2 2.571 1.3-.053 1.779-.825 3.343-.825s2 .825 3.354.794c1.39-.022 2.266-1.243 3.1-2.492a10.217 10.217 0 001.418-2.888 4.47 4.47 0 01-2.727-4.108zm-2.551-7.554a4.547 4.547 0 001.041-3.259 4.634 4.634 0 00-3 1.549 4.327 4.327 0 00-1.068 3.139 3.828 3.828 0 003.023-1.429z" class="prefix__cls-1" data-name="Trazado 2137" transform="translate(-226.88 -110.268)"/>
    <path id="prefix__Trazado_2138" d="M1221.057.031h-53.579l20.986 31.869h32.593a3.773 3.773 0 003.77-3.765V3.8a3.774 3.774 0 00-3.77-3.769z" data-name="Trazado 2138" transform="translate(-1117.257 -.031)"/>
    <g id="prefix__Grupo_1513" data-name="Grupo 1513" transform="translate(33.828 14.346)">
        <path id="prefix__Trazado_2139" d="M795.332 344.29h-1.811l-.992-3.116h-3.447l-.945 3.116h-1.763l3.416-10.607h2.11l3.431 10.607zm-3.1-4.423l-.9-2.77q-.142-.424-.535-2h-.032q-.158.677-.5 2l-.882 2.77zm11.87.5a4.331 4.331 0 01-1.06 3.084 3.109 3.109 0 01-2.358 1.007 2.361 2.361 0 01-2.185-1.085v4.013h-1.7v-8.236q0-1.225-.063-2.514h1.495l.095 1.212h.032a3.024 3.024 0 014.84-.3 4.229 4.229 0 01.9 2.818zm-1.732.062a3.152 3.152 0 00-.5-1.842 1.742 1.742 0 00-1.48-.755 1.768 1.768 0 00-1.141.417 1.933 1.933 0 00-.669 1.094 2.221 2.221 0 00-.079.517v1.276a2.046 2.046 0 00.512 1.409 1.7 1.7 0 001.33.575 1.742 1.742 0 001.495-.74 3.255 3.255 0 00.531-1.946zm10.531-.062a4.33 4.33 0 01-1.06 3.084 3.111 3.111 0 01-2.359 1.007 2.361 2.361 0 01-2.184-1.085v4.013h-1.7v-8.236q0-1.225-.063-2.514h1.495l.095 1.212h.032a3.025 3.025 0 014.841-.3 4.233 4.233 0 01.9 2.818zm-1.732.062a3.152 3.152 0 00-.5-1.842 1.739 1.739 0 00-1.478-.755 1.775 1.775 0 00-1.143.417 1.933 1.933 0 00-.668 1.094 2.267 2.267 0 00-.08.517v1.276a2.053 2.053 0 00.511 1.409 1.7 1.7 0 001.331.575 1.74 1.74 0 001.495-.74 3.255 3.255 0 00.53-1.946zm11.57.881a2.833 2.833 0 01-.943 2.2 4.181 4.181 0 01-2.89.928 5.045 5.045 0 01-2.747-.661l.393-1.416a4.73 4.73 0 002.456.662 2.318 2.318 0 001.495-.433 1.414 1.414 0 00.536-1.156 1.481 1.481 0 00-.442-1.086 4.093 4.093 0 00-1.464-.818q-2.786-1.039-2.787-3.038a2.682 2.682 0 01.984-2.14 3.891 3.891 0 012.605-.835 5.15 5.15 0 012.408.5l-.426 1.385a4.212 4.212 0 00-2.039-.488 2.073 2.073 0 00-1.406.441 1.261 1.261 0 00-.427.961 1.3 1.3 0 00.489 1.039 5.506 5.506 0 001.542.818 5.228 5.228 0 012.015 1.29 2.688 2.688 0 01.648 1.84zm5.634-3.4H826.5v3.713q0 1.417.992 1.416a2.988 2.988 0 00.755-.079l.047 1.29a3.852 3.852 0 01-1.322.188 2.038 2.038 0 01-1.575-.615 3.013 3.013 0 01-.567-2.062v-3.855h-1.116v-1.275h1.116v-1.4l1.669-.5v1.9h1.874v1.278zm8.437 2.486a4.2 4.2 0 01-1.008 2.9 3.593 3.593 0 01-2.8 1.164 3.425 3.425 0 01-2.684-1.116 4.068 4.068 0 01-1-2.817 4.161 4.161 0 011.031-2.911 3.574 3.574 0 012.779-1.133 3.5 3.5 0 012.707 1.117 4.015 4.015 0 01.977 2.8zm-1.762.039a3.424 3.424 0 00-.455-1.8 1.683 1.683 0 00-1.528-.911 1.707 1.707 0 00-1.559.911 3.481 3.481 0 00-.456 1.836 3.415 3.415 0 00.456 1.805 1.743 1.743 0 003.072-.015 3.437 3.437 0 00.47-1.822zm7.289-2.306a2.961 2.961 0 00-.536-.047 1.6 1.6 0 00-1.386.677 2.551 2.551 0 00-.424 1.51v4.013h-1.7v-5.24q0-1.2-.049-2.408h1.481l.062 1.463h.047a2.625 2.625 0 01.85-1.212 2.056 2.056 0 011.229-.41 2.735 2.735 0 01.425.031v1.621zm7.6 1.968a3.984 3.984 0 01-.062.771h-5.1a2.218 2.218 0 00.74 1.733 2.531 2.531 0 001.668.534 5.641 5.641 0 002.063-.361l.266 1.179a6.38 6.38 0 01-2.565.473 3.718 3.718 0 01-2.8-1.046 3.865 3.865 0 01-1.015-2.809 4.381 4.381 0 01.946-2.879 3.258 3.258 0 012.675-1.227 2.851 2.851 0 012.5 1.227 4.127 4.127 0 01.674 2.405zm-1.621-.441a2.3 2.3 0 00-.33-1.306 1.484 1.484 0 00-1.354-.709 1.611 1.611 0 00-1.353.693 2.538 2.538 0 00-.5 1.322h3.54z" class="prefix__cls-1" data-name="Trazado 2139" transform="translate(-786.375 -333.526)"/>
    </g>
    <g id="prefix__Grupo_1514" data-name="Grupo 1514" transform="translate(34.822 5.223)">
        <path id="prefix__Trazado_2140" d="M810.727 126.978a10.853 10.853 0 01-1.222-.062v-5.128a9.25 9.25 0 011.439-.108c1.949 0 2.847.959 2.847 2.522 0 1.798-1.06 2.776-3.064 2.776zm.285-4.641a3.408 3.408 0 00-.673.054v3.9a4.416 4.416 0 00.564.023 1.847 1.847 0 002-2.088 1.7 1.7 0 00-1.89-1.889zm5.576 4.68a1.789 1.789 0 01-1.811-1.934 1.831 1.831 0 011.873-1.988 1.775 1.775 0 011.811 1.926 1.842 1.842 0 01-1.873 1.995zm.032-3.311c-.6 0-.99.564-.99 1.353 0 .774.395 1.338.982 1.338s.982-.6.982-1.354-.387-1.337-.974-1.337zm8.106-.533l-1.176 3.759h-.766l-.484-1.632a12.367 12.367 0 01-.3-1.214h-.016a8.126 8.126 0 01-.3 1.214l-.518 1.632h-.774l-1.107-3.759h.859l.426 1.787q.151.638.255 1.207h.016c.061-.316.162-.712.309-1.2l.534-1.794h.681l.511 1.756c.124.426.224.843.3 1.238h.022a10.832 10.832 0 01.255-1.238l.457-1.756zm4.329 3.759h-.836v-2.158c0-.665-.255-1-.758-1a.868.868 0 00-.836.921v2.236h-.836v-2.684c0-.332-.008-.689-.031-1.075h.735l.039.58h.023a1.351 1.351 0 011.192-.657c.789 0 1.307.6 1.307 1.585v2.251zm2.3 0h-.836v-5.484h.836zm3.046.085a1.79 1.79 0 01-1.811-1.934 1.831 1.831 0 011.872-1.988 1.775 1.775 0 011.811 1.926 1.841 1.841 0 01-1.872 1.995zm.031-3.311c-.6 0-.99.564-.99 1.353 0 .774.4 1.338.981 1.338s.982-.6.982-1.354-.385-1.337-.973-1.337zm5.135 3.226l-.061-.433h-.022a1.284 1.284 0 01-1.1.518 1.093 1.093 0 01-1.152-1.106c0-.928.8-1.408 2.2-1.408v-.069c0-.495-.262-.743-.781-.743a1.76 1.76 0 00-.982.279l-.17-.549a2.4 2.4 0 011.291-.325c.982 0 1.478.518 1.478 1.555v1.384a5.676 5.676 0 00.054.9zm-.115-1.872c-.928 0-1.394.225-1.394.758a.533.533 0 00.573.587.8.8 0 00.82-.765zm4.871 1.872l-.039-.6h-.023a1.26 1.26 0 01-1.207.689 1.713 1.713 0 01-1.578-1.918 1.784 1.784 0 011.646-2 1.13 1.13 0 011.06.511h.017v-2.158h.836v4.471c0 .363.009.7.031 1.013zm-.124-2.212a.909.909 0 00-.88-.975c-.62 0-1 .549-1 1.322 0 .758.393 1.277.981 1.277a.938.938 0 00.9-1v-.626zm6.139 2.3a1.789 1.789 0 01-1.81-1.934 1.831 1.831 0 011.872-1.988 1.775 1.775 0 011.811 1.926 1.841 1.841 0 01-1.873 1.995zm.031-3.311c-.6 0-.989.564-.989 1.353 0 .774.395 1.338.981 1.338s.982-.6.982-1.354-.385-1.337-.974-1.337zm6.335 3.226h-.836v-2.158c0-.665-.255-1-.758-1a.867.867 0 00-.835.921v2.236h-.836v-2.684c0-.332-.008-.689-.031-1.075h.735l.039.58h.023a1.35 1.35 0 011.191-.658c.789 0 1.308.6 1.308 1.585zm5.621-3.132h-.919v1.825c0 .465.161.7.486.7a1.647 1.647 0 00.371-.039l.023.634a1.851 1.851 0 01-.648.093c-.659 0-1.052-.363-1.052-1.315v-1.9h-.549v-.627h.549v-.689l.82-.248v.936h.919v.627zm4.423 3.132h-.835v-2.142c0-.673-.254-1.013-.758-1.013a.819.819 0 00-.836.89v2.266h-.835v-5.484h.835v2.258h.017a1.267 1.267 0 011.13-.611c.8 0 1.282.619 1.282 1.6v2.236zm4.532-1.679h-2.507a1.079 1.079 0 001.185 1.113 2.825 2.825 0 001.013-.178l.13.58a3.139 3.139 0 01-1.261.232 1.745 1.745 0 01-1.872-1.895 1.836 1.836 0 011.778-2.019 1.579 1.579 0 011.563 1.787 1.608 1.608 0 01-.029.379zm-.766-.6c0-.58-.293-.99-.827-.99a.991.991 0 00-.914.99z" class="prefix__cls-1" data-name="Trazado 2140" transform="translate(-809.505 -121.448)"/>
    </g>
</svg>
