<svg xmlns="http://www.w3.org/2000/svg" width="22.8" height="25.858" viewBox="0 0 22.8 25.858">
  <g id="campana_notificaciones" transform="translate(0.255 0.25)">
    <path id="Trazado_1803" data-name="Trazado 1803" d="M515.152,384.882a10.305,10.305,0,0,1-3.237-7.511v-4.147a6.7,6.7,0,0,0-3.933-6.092,9.12,9.12,0,0,0-1.611-.562v-.264a2.305,2.305,0,1,0-4.61,0v.3a9.226,9.226,0,0,0-1.45.524,6.981,6.981,0,0,0-4.083,6.087v4.149a10.231,10.231,0,0,1-3.09,7.511.459.459,0,0,0-.116.466.465.465,0,0,0,.363.314l4.375.757c.814.141,1.566.257,2.279.35a4.558,4.558,0,0,0,8.222,0c.713-.093,1.46-.209,2.27-.348l4.375-.757a.459.459,0,0,0,.247-.78Zm-12.47-18.576a1.383,1.383,0,1,1,2.766,0v.084a9.129,9.129,0,0,0-2.766.021Zm1.467,22.13a3.7,3.7,0,0,1-2.959-1.527,28.636,28.636,0,0,0,2.954.158,28.207,28.207,0,0,0,2.965-.161,3.7,3.7,0,0,1-2.961,1.529Zm6.224-2.927c-.886.154-1.7.279-2.461.375h0c-.336.043-.665.082-.987.113a.018.018,0,0,0-.009,0q-.44.043-.864.072l-.161.012c-.247.017-.49.029-.733.038-.05,0-.1,0-.149,0-.574.019-1.14.019-1.712,0-.05,0-.1,0-.154,0-.237-.009-.48-.022-.723-.038l-.17-.012c-.279-.019-.557-.043-.843-.072a.126.126,0,0,1-.031,0c-.319-.031-.644-.067-.979-.11h0c-.768-.1-1.583-.224-2.471-.375l-3.533-.612a11.09,11.09,0,0,0,2.766-7.528v-4.147a6.041,6.041,0,0,1,3.547-5.252,8.137,8.137,0,0,1,1.612-.545.031.031,0,0,0,.014,0,8.406,8.406,0,0,1,3.5-.031.05.05,0,0,0,.017,0,8.218,8.218,0,0,1,1.762.576,5.852,5.852,0,0,1,3.4,5.252v4.149a11.211,11.211,0,0,0,2.911,7.53Zm0,0" transform="translate(-493 -364)" fill="#67bc47" stroke="#67bc47" stroke-width="0.5"/>
    <path id="Trazado_1804" data-name="Trazado 1804" d="M510.875,372.147a7.361,7.361,0,0,0-6.008,0A4.876,4.876,0,0,0,502,376.319a.484.484,0,0,0,.48.484h0a.48.48,0,0,0,.482-.479,3.89,3.89,0,0,1,2.307-3.3,6.383,6.383,0,0,1,5.2,0,.482.482,0,1,0,.4-.876Zm0,0" transform="translate(-496.629 -366.944)" fill="#67bc47" stroke="#67bc47" stroke-width="0.5"/>
  </g>
</svg>
