<svg width="16" height="16" viewBox="0 0 16 16" fill="none" xmlns="http://www.w3.org/2000/svg">
<g id="Component 37">
<path id="Vector" d="M7.44 8.68013V11.3999C7.44 11.5598 7.48 11.7198 7.6 11.8398C7.72 11.9598 7.84 11.9998 8.04 11.9998C8.2 11.9998 8.36 11.9598 8.48 11.8398C8.6 11.7198 8.64 11.5998 8.64 11.3999V8.68013H11.4C11.56 8.68013 11.72 8.64013 11.84 8.52014C11.96 8.40016 12 8.28017 12 8.08019C12 7.9202 11.96 7.76022 11.84 7.64023C11.72 7.52024 11.6 7.48025 11.4 7.48025H8.64V4.60053C8.64 4.44054 8.6 4.28056 8.48 4.16057C8.36 4.04058 8.24 4.00059 8.04 4.00059C7.88 4.00059 7.72 4.04058 7.6 4.16057C7.48 4.28056 7.44 4.40055 7.44 4.60053V7.48025H4.6C4.44 7.48025 4.28 7.52024 4.16 7.64023C4.04 7.76022 4 7.88021 4 8.08019C4 8.24017 4.04 8.40016 4.16 8.52014C4.28 8.64013 4.4 8.68013 4.6 8.68013H7.44ZM8 15.9994C6.88 15.9994 5.88 15.7994 4.88 15.3595C3.88 14.9195 3.08 14.3596 2.32 13.6396C1.56 12.9197 1.04 12.0798 0.6 11.0799C0.2 10.12 0 9.08009 0 8.0002C0 6.9203 0.2 5.84041 0.64 4.8805C1.04 3.92059 1.64 3.08068 2.36 2.36075C3.08 1.64082 3.92 1.08087 4.92 0.640914C5.88 0.200957 6.92 0.000976562 8 0.000976562C9.08 0.000976562 10.16 0.200957 11.12 0.640914C12.08 1.08087 12.92 1.64082 13.64 2.36075C14.36 3.08068 14.92 3.92059 15.36 4.8805C15.8 5.84041 16 6.8803 16 8.0002C16 9.12009 15.8 10.12 15.36 11.1199C14.96 12.0798 14.36 12.9197 13.64 13.6796C12.92 14.3996 12.08 14.9595 11.08 15.3995C10.08 15.8394 9.12 15.9994 8 15.9994ZM8 14.7995C9.88 14.7995 11.48 14.1196 12.8 12.7997C14.12 11.4799 14.8 9.88001 14.8 7.9602C14.8 6.04039 14.16 4.48054 12.84 3.16067C11.52 1.8408 9.88 1.20086 8 1.20086C6.12 1.20086 4.52 1.8408 3.2 3.16067C1.88 4.48054 1.2 6.12038 1.2 8.0002C1.2 9.88001 1.88 11.4799 3.2 12.7997C4.52 14.1196 6.12 14.7995 8 14.7995Z" fill="white"/>
</g>
</svg>
