<svg width="40" height="40" viewBox="0 0 40 40" fill="none" xmlns="http://www.w3.org/2000/svg">
<g id="Component 28">
<path id="Vector" d="M14.33 28.65C10.36 28.65 6.95 27.23 4.12 24.54C1.28 21.7 0 18.3 0 14.33C0 10.36 1.42 6.95 4.11 4.11C6.95 1.28 10.35 0 14.33 0C18.31 0 21.71 1.42 24.54 4.11C27.38 6.95 28.65 10.35 28.65 14.32C28.65 16.02 28.37 17.58 27.8 19.14C27.23 20.7 26.38 22.12 25.39 23.25L39.57 37.29C39.85 37.57 40 37.86 40 38.28C40 38.7 39.86 39.13 39.57 39.41C39.28 39.69 38.86 39.84 38.44 39.84C38.02 39.84 37.59 39.7 37.31 39.41L23.27 25.37C22.14 26.36 20.72 27.21 19.16 27.78C17.6 28.35 16.04 28.63 14.34 28.63L14.33 28.65ZM14.33 25.67C17.45 25.67 20.15 24.54 22.42 22.41C24.69 20.14 25.68 17.59 25.68 14.32C25.68 11.05 24.55 8.5 22.42 6.23C20.15 3.96 17.6 2.97 14.33 2.97C11.06 2.97 8.51 4.1 6.24 6.23C3.97 8.36 2.98 11.05 2.98 14.32C2.98 17.59 4.11 20.14 6.24 22.41C8.51 24.68 11.2 25.67 14.33 25.67Z" fill="white"/>
</g>
</svg>
