<svg width="20" height="20" viewBox="0 0 20 20" fill="none" xmlns="http://www.w3.org/2000/svg">
<g id="Component 44">
<path id="Vector" d="M9.945 3.89C9.41 3.89 8.95 3.7 8.57 3.32C8.19 2.94 8 2.48 8 1.945C8 1.41 8.19 0.95 8.57 0.57C8.95 0.19 9.41 0 9.945 0C10.48 0 10.94 0.19 11.32 0.57C11.7 0.95 11.89 1.41 11.89 1.945C11.89 2.48 11.7 2.94 11.32 3.32C10.94 3.7 10.48 3.89 9.945 3.89ZM9.945 20C9.56 20 9.23 19.865 8.96 19.595C8.69 19.325 8.555 18.995 8.555 18.61V8.055C8.555 7.67 8.69 7.34 8.96 7.07C9.23 6.8 9.56 6.665 9.945 6.665C10.33 6.665 10.66 6.8 10.93 7.07C11.2 7.34 11.335 7.67 11.335 8.055V18.61C11.335 18.995 11.2 19.325 10.93 19.595C10.66 19.865 10.33 20 9.945 20Z" fill="white"/>
</g>
</svg>
