<svg width="24" height="24" viewBox="0 0 24 24" fill="none" xmlns="http://www.w3.org/2000/svg">
<path d="M12.051 18.0014C12.2789 18.0014 12.4649 17.9234 12.6148 17.7734C12.7648 17.6235 12.8428 17.4315 12.8428 17.2096V11.535C12.8428 11.3131 12.7648 11.1212 12.6148 10.9712C12.4649 10.8212 12.2729 10.7432 12.045 10.7432C11.817 10.7432 11.6311 10.8212 11.4811 10.9712C11.3312 11.1212 11.2532 11.3131 11.2532 11.535V17.2096C11.2532 17.4315 11.3312 17.6235 11.4811 17.7734C11.6311 17.9234 11.823 18.0014 12.051 18.0014ZM11.997 8.67378C12.2549 8.67378 12.4709 8.5898 12.6508 8.41584C12.8248 8.24189 12.9148 8.03194 12.9148 7.77401C12.9148 7.51608 12.8248 7.28813 12.6508 7.10818C12.4769 6.93422 12.2609 6.84425 12.003 6.84425C11.7451 6.84425 11.5231 6.93422 11.3492 7.10818C11.1752 7.28813 11.0912 7.50408 11.0912 7.76801C11.0912 8.03194 11.1812 8.23589 11.3552 8.40985C11.5291 8.5838 11.7451 8.66778 12.003 8.66778L11.997 8.67378ZM12.003 23.9999C10.3414 23.9999 8.78181 23.6879 7.33017 23.0581C5.87253 22.4283 4.60685 21.5705 3.52112 20.4848C2.43539 19.399 1.57761 18.1274 0.947763 16.6757C0.317921 15.2241 0 13.6645 0 12.0029C0 10.3414 0.311922 8.78775 0.941765 7.32412C1.57161 5.8665 2.42939 4.59482 3.51512 3.5151C4.60085 2.43538 5.87253 1.5776 7.32417 0.947757C8.77581 0.317919 10.3354 0 11.997 0C13.6586 0 15.2122 0.31192 16.6758 0.941759C18.1335 1.5716 19.4051 2.42338 20.4849 3.5031C21.5646 4.58283 22.4224 5.8545 23.0522 7.31213C23.6821 8.76975 24 10.3294 24 11.9849C24 13.6405 23.6881 15.2061 23.0582 16.6577C22.4284 18.1154 21.5766 19.381 20.4969 20.4668C19.4171 21.5525 18.1455 22.4103 16.6878 23.0401C15.2302 23.6699 13.6706 23.9879 12.015 23.9879L12.003 23.9999ZM12.003 22.4103C14.9003 22.4103 17.3597 21.3965 19.3752 19.375C21.3967 17.3536 22.4044 14.8882 22.4044 11.9969C22.4044 9.09967 21.3967 6.6403 19.3812 4.62482C17.3657 2.60333 14.9003 1.59559 11.997 1.59559C9.10572 1.59559 6.64634 2.60333 4.62484 4.61882C2.60335 6.6343 1.5896 9.09967 1.5896 12.0029C1.5896 14.9062 2.60335 17.3536 4.62484 19.375C6.64634 21.3965 9.11172 22.4103 12.003 22.4103Z" fill="white"/>
</svg>
