<svg width="40" height="40" viewBox="0 0 40 40" fill="none" xmlns="http://www.w3.org/2000/svg">
<g id="contract_edit">
<path id="contract_edit_2" d="M13.3063 9.36571H28.799C29.1737 9.36571 29.4878 9.49313 29.7412 9.74797C29.9947 10.0028 30.1214 10.3186 30.1214 10.6953C30.1214 11.072 29.9947 11.3855 29.7412 11.6356C29.4878 11.8857 29.1737 12.0107 28.799 12.0107H13.3063C12.9316 12.0107 12.6175 11.8833 12.364 11.6285C12.1106 11.3736 11.9838 11.0578 11.9838 10.6811C11.9838 10.3044 12.1106 9.99098 12.364 9.74087C12.6175 9.49076 12.9316 9.36571 13.3063 9.36571ZM13.3063 15.4386H28.799C29.1737 15.4386 29.4878 15.566 29.7412 15.8208C29.9947 16.0757 30.1214 16.3915 30.1214 16.7682C30.1214 17.1449 29.9947 17.4583 29.7412 17.7084C29.4878 17.9585 29.1737 18.0836 28.799 18.0836H13.3063C12.9316 18.0836 12.6175 17.9562 12.364 17.7014C12.1106 17.4465 11.9838 17.1307 11.9838 16.754C11.9838 16.3773 12.1106 16.0638 12.364 15.8137C12.6175 15.5636 12.9316 15.4386 13.3063 15.4386ZM4.88522 40C3.52448 40 2.37009 39.526 1.42206 38.5779C0.474019 37.6299 0 36.4755 0 35.1148V30.3104C0 29.8439 0.157789 29.4529 0.473369 29.1373C0.788914 28.8218 1.17993 28.664 1.64643 28.664H6.31581V3.29285C6.31581 2.39429 6.63998 1.62085 7.28833 0.97253C7.93665 0.324178 8.71009 0 9.60866 0H32.4966C33.3952 0 34.1686 0.324178 34.8169 0.97253C35.4653 1.62085 35.7895 2.39429 35.7895 3.29285V16.4913C35.7895 16.866 35.662 17.18 35.4072 17.4335C35.1524 17.687 34.8366 17.8137 34.4598 17.8137C34.0831 17.8137 33.7697 17.687 33.5196 17.4335C33.2695 17.18 33.1445 16.866 33.1445 16.4913V3.29285C33.1445 3.1039 33.0837 2.94869 32.9622 2.82722C32.8408 2.70575 32.6856 2.64501 32.4966 2.64501H9.60866C9.41971 2.64501 9.2645 2.70575 9.14302 2.82722C9.02155 2.94869 8.96081 3.1039 8.96081 3.29285V28.664H16.9231C17.2978 28.664 17.6119 28.7914 17.8654 29.0463C18.1188 29.3011 18.2456 29.6169 18.2456 29.9936C18.2456 30.3703 18.1188 30.6838 17.8654 30.9339C17.6119 31.184 17.2978 31.309 16.9231 31.309H2.64501V35.1148C2.64501 35.7495 2.86043 36.2815 3.29127 36.7109C3.72211 37.1403 4.24175 37.355 4.85017 37.355H16.9231C17.2978 37.355 17.6119 37.4824 17.8654 37.7373C18.1188 37.9921 18.2456 38.3079 18.2456 38.6846C18.2456 39.0613 18.1188 39.3747 17.8654 39.6248C17.6119 39.8749 17.2978 40 16.9231 40H4.88522ZM22.3482 38.3536V35.0958C22.3482 34.8959 22.3869 34.6975 22.4643 34.5006C22.5416 34.3036 22.6669 34.1186 22.8402 33.9454L33.7692 23.0667C34.033 22.8028 34.3179 22.6171 34.6239 22.5095C34.9298 22.402 35.2342 22.3482 35.537 22.3482C35.8673 22.3482 36.1871 22.4103 36.4964 22.5344C36.8057 22.6586 37.087 22.8448 37.34 23.0931L39.2874 25.0607C39.5285 25.3225 39.7076 25.6059 39.8245 25.9109C39.9415 26.2159 40 26.5209 40 26.8259C40 27.1309 39.9375 27.4413 39.8124 27.7571C39.6873 28.0729 39.5042 28.3631 39.2629 28.6278L28.4031 39.5082C28.2297 39.6813 28.0445 39.8065 27.8476 39.8839C27.6507 39.9613 27.4522 40 27.2523 40H23.9946C23.5281 40 23.1371 39.8422 22.8215 39.5266C22.506 39.2111 22.3482 38.8201 22.3482 38.3536ZM24.8583 37.4899H26.8583L33.6923 30.6234L32.7247 29.6234L31.745 28.6356L24.8583 35.4899V37.4899ZM32.7247 29.6234L31.745 28.6356L33.6923 30.6234L32.7247 29.6234Z" fill="white"/>
</g>
</svg>
