<svg width="22" height="25" viewBox="0 0 22 25" fill="none" xmlns="http://www.w3.org/2000/svg">
<g id="delete">
<path id="delete_2" d="M3.83794 24.5C3.22898 24.5 2.70621 24.2817 2.26962 23.8451C1.83303 23.4085 1.61473 22.8857 1.61473 22.2768V3.37013H0.178711V1.58429H6.36366V0.5H15.315V1.58429H21.4999V3.37013H20.0639V22.2768C20.0639 22.8877 19.8461 23.411 19.4105 23.8466C18.9749 24.2822 18.4516 24.5 17.8407 24.5H3.83794ZM18.2781 3.37013H3.40057V22.2768C3.40057 22.4043 3.44309 22.5091 3.52814 22.5911C3.61319 22.6732 3.71645 22.7142 3.83794 22.7142H17.8407C17.95 22.7142 18.0503 22.6686 18.1414 22.5775C18.2325 22.4864 18.2781 22.3861 18.2781 22.2768V3.37013ZM7.26942 19.7656H9.05525V6.29494H7.26942V19.7656ZM12.6234 19.7656H14.4092V6.29494H12.6234V19.7656Z" fill="#1C1B1F"/>
</g>
</svg>
