<svg width="20" height="16" viewBox="0 0 20 16" fill="none" xmlns="http://www.w3.org/2000/svg">
<g id="eye-slash">
<path id="Vector" d="M13.5649 8.34302L12.6513 7.61241C12.9278 6.82652 12.7007 6.1591 11.9697 5.61806C11.2388 5.07701 10.4239 4.90325 9.51518 5.10466L8.60152 4.37405C8.81883 4.27927 9.05095 4.21213 9.30776 4.16474C9.56457 4.11735 9.83126 4.09761 10.1226 4.09761C11.1795 4.09761 12.0734 4.38985 12.8093 4.97828C13.5452 5.56672 13.9106 6.28153 13.9106 7.12666C13.9106 7.35571 13.881 7.57687 13.8217 7.78618C13.7625 7.99549 13.6736 8.1811 13.5649 8.33907V8.34302ZM16.622 10.756L15.7725 10.1083C16.4639 9.69366 17.0714 9.23555 17.5998 8.73399C18.1283 8.23244 18.5431 7.69535 18.8493 7.13061C18.0493 5.77997 16.8788 4.70579 15.333 3.91594C13.7872 3.1261 12.0883 2.73117 10.2362 2.73117C9.67322 2.73117 9.10527 2.77067 8.53238 2.8457C7.95949 2.92074 7.46562 3.01947 7.05077 3.13794L6.12229 2.38759C6.68037 2.20198 7.3224 2.05191 8.04345 1.93738C8.7645 1.82285 9.48061 1.76756 10.1819 1.76756C12.2512 1.76756 14.1576 2.21383 15.9059 3.10635C17.6492 3.99887 18.9777 5.19154 19.8865 6.67645C19.926 6.73569 19.9556 6.80282 19.9754 6.88181C19.9902 6.96079 20.0001 7.04373 20.0001 7.13061C20.0001 7.21749 19.9902 7.30043 19.9754 7.38336C19.9556 7.46629 19.9309 7.53343 19.8914 7.59267C19.5111 8.2127 19.0518 8.78928 18.5036 9.32243C17.9554 9.85557 17.3332 10.3334 16.6269 10.756H16.622ZM17.4023 14.6499L13.96 11.9329C13.4662 12.0987 12.8933 12.233 12.2265 12.3357C11.5647 12.4384 10.8585 12.4937 10.1177 12.4937C8.01382 12.4937 6.08772 12.0474 4.33942 11.1549C2.59605 10.2623 1.2626 9.06968 0.348942 7.58477C0.309432 7.52158 0.2798 7.4505 0.260045 7.37546C0.24029 7.30043 0.235352 7.21749 0.235352 7.13061C0.235352 7.04373 0.245229 6.95684 0.264984 6.87786C0.284739 6.79493 0.309432 6.72779 0.348942 6.6725C0.709468 6.08406 1.15889 5.52327 1.69721 4.99408C2.23553 4.46488 2.83805 3.98703 3.49984 3.56051L1.08481 1.62144C0.971219 1.53061 0.911955 1.41608 0.907016 1.28971C0.907016 1.15938 0.96628 1.04485 1.08975 0.946124C1.21322 0.847394 1.35644 0.800003 1.51942 0.800003C1.68239 0.800003 1.82562 0.847394 1.94908 0.946124L18.2567 13.9865C18.3653 14.0733 18.4197 14.18 18.4246 14.3063C18.4246 14.4327 18.3703 14.5433 18.2567 14.646C18.1431 14.7487 17.9999 14.8 17.8369 14.8C17.6739 14.8 17.5307 14.7526 17.4072 14.6539L17.4023 14.6499ZM4.33942 4.23583C3.77147 4.56756 3.20845 4.99803 2.65038 5.53117C2.09231 6.06432 1.66758 6.59746 1.38607 7.12666C2.19108 8.47729 3.37637 9.55148 4.94194 10.3413C6.50751 11.1312 8.26569 11.5261 10.2165 11.5261C10.7597 11.5261 11.2931 11.4906 11.8265 11.4234C12.3599 11.3563 12.7599 11.2733 13.0315 11.1825L11.4956 9.94641C11.3277 10.0096 11.1153 10.0609 10.8536 10.1004C10.5918 10.1399 10.3498 10.1597 10.1276 10.1597C9.07564 10.1597 8.18173 9.86742 7.44587 9.28294C6.71 8.69845 6.33959 7.97969 6.33959 7.13061C6.33959 6.95289 6.36429 6.75938 6.41368 6.56192C6.46306 6.36051 6.52727 6.18674 6.60629 6.03667L4.3493 4.23978L4.33942 4.23583Z" fill="#9B4CBA"/>
</g>
</svg>
