<svg id="generales" xmlns="http://www.w3.org/2000/svg" width="74.078" height="74.078" viewBox="0 0 74.078 74.078">
  <g id="ico_hogares" transform="translate(-1085.767 -71.192)">
    <g id="Grupo_1980" data-name="Grupo 1980" transform="translate(1085.767 71.192)">
      <path id="Trazado_2619" data-name="Trazado 2619" d="M1122.806,86.45a37.039,37.039,0,1,1-37.039,37.039A37.039,37.039,0,0,1,1122.806,86.45Z" transform="translate(-1085.767 -86.45)" fill="#e7eaea" fill-rule="evenodd"/>
    </g>
    <g id="Grupo_1981" data-name="Grupo 1981" transform="translate(1092.827 77.674)">
      <path id="Trazado_2620" data-name="Trazado 2620" d="M1138.172,106.509a30.557,30.557,0,1,1-30.557,30.557A30.557,30.557,0,0,1,1138.172,106.509Z" transform="translate(-1107.615 -106.509)" fill="#bdd63f" fill-rule="evenodd"/>
    </g>
  </g>
  <path id="Trazado_2840" data-name="Trazado 2840" d="M1266.234,111.68h-.916c0-.029,0-.058,0-.087a1.543,1.543,0,0,0-2.6-1.127,2.14,2.14,0,0,0-4.075,1.215h-.163a1.349,1.349,0,0,0,0,2.7h7.749a1.349,1.349,0,0,0,0-2.7Z" transform="translate(-1237.38 -52.912)" fill="#fff"/>
  <path id="Trazado_2841" data-name="Trazado 2841" d="M1257.534,113.909a1.831,1.831,0,0,1-.483-3.6l.129-.035.011-.133a2.624,2.624,0,0,1,4.651-1.435l.09.11.13-.054a2.008,2.008,0,0,1,.764-.15,2.032,2.032,0,0,1,1.955,1.492l.038.14h.463a1.831,1.831,0,0,1,0,3.662Zm0-2.7a.867.867,0,0,0,0,1.734h7.749a.867.867,0,0,0,0-1.734h-.915a.482.482,0,0,1-.482-.5l0-.051a1.075,1.075,0,0,0-.313-.773,1.057,1.057,0,0,0-1.474-.023.479.479,0,0,1-.328.13.488.488,0,0,1-.1-.01.481.481,0,0,1-.344-.28,1.66,1.66,0,0,0-3.184.658,1.625,1.625,0,0,0,.027.285.482.482,0,0,1-.475.563Z" transform="translate(-1236.429 -51.961)" fill="#004e37"/>
  <path id="Trazado_2842" data-name="Trazado 2842" d="M1245.821,221.277h8.079a1.277,1.277,0,0,0,1.252-1.369V215.7a1.316,1.316,0,0,0-1.377-1.587h-1.117v-.015H1251.1a2.431,2.431,0,0,1-2.613-2.613v-1.645h-.006v-.316a1.281,1.281,0,0,0-1.377-1.377h-1.387l0-2.311h2.455a2.432,2.432,0,0,1,2.614,2.614v1.38h.006v.58s.113,1.376,1.094,1.376h1.147v.016h1.814a2.432,2.432,0,0,1,2.614,2.613v6.571a2.432,2.432,0,0,1-2.614,2.613h-8.079a1.277,1.277,0,0,0-1.252,1.369V228.1s.026,1.677,0,2.235c-.035.759-.207,2.257-2.035,2.257-.868,0-7.8-.018-7.8-.018l-.007-2.236h6.538c1.186,0,1-1.566,1-1.566V223.89A2.432,2.432,0,0,1,1245.821,221.277Z" transform="translate(-1194.232 -171.256)" fill="#fff" stroke="#004e37" stroke-width="1"/>
  <path id="Trazado_2838" data-name="Trazado 2838" d="M1178.509,71.592h-.625a3.207,3.207,0,0,0-4.681-3.76,4.448,4.448,0,0,0-8.443,1.94,2.123,2.123,0,0,0-2.681,1.82h-3.566a2.7,2.7,0,0,0,0,5.4h20a2.7,2.7,0,0,0,0-5.4Z" transform="translate(-1134.316 -9.687)" fill="#fff"/>
  <path id="Trazado_2839" data-name="Trazado 2839" d="M1157.481,76.359a3.1,3.1,0,0,1,0-6.2h3.229l.034-.112a2.513,2.513,0,0,1,2.418-1.786l.188,0,.018-.141a4.867,4.867,0,0,1,4.811-4.216,4.817,4.817,0,0,1,4.087,2.242l.071.112.123-.049a3.573,3.573,0,0,1,1.34-.26,3.618,3.618,0,0,1,3.614,3.613,3.556,3.556,0,0,1-.025.417l-.021.174.175,0a3.1,3.1,0,0,1-.066,6.2Zm0-5.4a2.3,2.3,0,0,0,0,4.593h20a2.3,2.3,0,0,0,0-4.593h-.625a.4.4,0,0,1-.382-.527,2.806,2.806,0,0,0-4.095-3.29.4.4,0,0,1-.565-.168,4.047,4.047,0,0,0-7.681,1.765.4.4,0,0,1-.507.386,1.793,1.793,0,0,0-.472-.064,1.717,1.717,0,0,0-1.7,1.54.4.4,0,0,1-.4.358Z" transform="translate(-1133.284 -8.656)" fill="#004e37"/>
  <g id="Grupo_2662" data-name="Grupo 2662" transform="translate(18.808 47.63)">
    <path id="Trazado_2581" data-name="Trazado 2581" d="M1181.159,188.435a1.579,1.579,0,1,1,1.58-1.579A1.581,1.581,0,0,1,1181.159,188.435Zm0-2.178a.6.6,0,1,0,.6.6A.6.6,0,0,0,1181.159,186.257Z" transform="translate(-1179.58 -185.276)" fill="#1f4c38"/>
  </g>
  <path id="Trazado_2846" data-name="Trazado 2846" d="M1266.234,111.68h-.916c0-.029,0-.058,0-.087a1.543,1.543,0,0,0-2.6-1.127,2.14,2.14,0,0,0-4.075,1.215h-.163a1.349,1.349,0,0,0,0,2.7h7.749a1.349,1.349,0,0,0,0-2.7Z" transform="translate(-1229.38 -100.912)" fill="#fff"/>
  <path id="Trazado_2847" data-name="Trazado 2847" d="M1257.534,113.909a1.831,1.831,0,0,1-.483-3.6l.129-.035.011-.133a2.624,2.624,0,0,1,4.651-1.435l.09.11.13-.054a2.008,2.008,0,0,1,.764-.15,2.032,2.032,0,0,1,1.955,1.492l.038.14h.463a1.831,1.831,0,0,1,0,3.662Zm0-2.7a.867.867,0,0,0,0,1.734h7.749a.867.867,0,0,0,0-1.734h-.915a.482.482,0,0,1-.482-.5l0-.051a1.075,1.075,0,0,0-.313-.773,1.057,1.057,0,0,0-1.474-.023.479.479,0,0,1-.328.13.488.488,0,0,1-.1-.01.481.481,0,0,1-.344-.28,1.66,1.66,0,0,0-3.184.658,1.625,1.625,0,0,0,.027.285.482.482,0,0,1-.475.563Z" transform="translate(-1228.429 -99.961)" fill="#004e37"/>
  <path id="Trazado_2848" data-name="Trazado 2848" d="M1178.509,71.592h-.625a3.207,3.207,0,0,0-4.681-3.76,4.448,4.448,0,0,0-8.443,1.94,2.123,2.123,0,0,0-2.681,1.82h-3.566a2.7,2.7,0,0,0,0,5.4h20a2.7,2.7,0,0,0,0-5.4Z" transform="translate(-1126.316 -57.687)" fill="#fff"/>
  <path id="Trazado_2849" data-name="Trazado 2849" d="M1157.481,76.359a3.1,3.1,0,0,1,0-6.2h3.229l.034-.112a2.513,2.513,0,0,1,2.418-1.786l.188,0,.018-.141a4.867,4.867,0,0,1,4.811-4.216,4.817,4.817,0,0,1,4.087,2.242l.071.112.123-.049a3.573,3.573,0,0,1,1.34-.26,3.618,3.618,0,0,1,3.614,3.613,3.556,3.556,0,0,1-.025.417l-.021.174.175,0a3.1,3.1,0,0,1-.066,6.2Zm0-5.4a2.3,2.3,0,0,0,0,4.593h20a2.3,2.3,0,0,0,0-4.593h-.625a.4.4,0,0,1-.382-.527,2.806,2.806,0,0,0-4.095-3.29.4.4,0,0,1-.565-.168,4.047,4.047,0,0,0-7.681,1.765.4.4,0,0,1-.507.386,1.793,1.793,0,0,0-.472-.064,1.717,1.717,0,0,0-1.7,1.54.4.4,0,0,1-.4.358Z" transform="translate(-1125.284 -56.656)" fill="#004e37"/>
  <g id="Grupo_2663" data-name="Grupo 2663" transform="translate(-59.116 -2.355)">
    <g id="Grupo_1957" data-name="Grupo 1957" transform="translate(80.649 55.213)">
      <line id="Línea_56" data-name="Línea 56" x1="2.232" y2="0.003" transform="translate(0.49 0.49)" fill="#fff"/>
      <path id="Trazado_2591" data-name="Trazado 2591" d="M1191.386,190.663a.49.49,0,0,1,0-.981l2.232,0h0a.49.49,0,0,1,0,.981l-2.232,0Z" transform="translate(-1190.896 -189.679)" fill="#1f4c38"/>
    </g>
    <g id="Grupo_1958" data-name="Grupo 1958" transform="translate(84.98 55.215)">
      <line id="Línea_57" data-name="Línea 57" x1="10.526" transform="translate(0.268 0.49)" fill="#fff"/>
      <path id="Trazado_2592" data-name="Trazado 2592" d="M1209.889,190.663h-10.526c-.148,0-.268-.22-.268-.49s.12-.49.268-.49h10.526c.148,0,.268.22.268.49S1210.037,190.663,1209.889,190.663Z" transform="translate(-1199.095 -189.683)" fill="#1f4c38"/>
    </g>
    <g id="Grupo_1961" data-name="Grupo 1961" transform="translate(83.209 19)">
      <path id="Trazado_2595" data-name="Trazado 2595" d="M1154.044,126.885h-5.316c-.118,0-.213-.2-.213-.441s.1-.441.213-.441h5.316c.118,0,.213.2.213.441S1154.162,126.885,1154.044,126.885Z" transform="translate(-1148.515 -125.904)" fill="#1f4c38"/>
    </g>
    <g id="Grupo_1962" data-name="Grupo 1962" transform="translate(79.544 20.989)">
      <path id="Trazado_2596" data-name="Trazado 2596" d="M1156.1,130.916h-4.456a.49.49,0,1,1,0-.981h4.456a.49.49,0,0,1,0,.981Z" transform="translate(-1151.153 -129.935)" fill="#1f4c38"/>
    </g>
    <g id="Grupo_1963" data-name="Grupo 1963" transform="translate(79.602 19.097)">
      <path id="Trazado_2597" data-name="Trazado 2597" d="M1149.251,135.083h-1.446a.49.49,0,0,1,0-.981h1.446a.49.49,0,1,1,0,.981Z" transform="translate(-1147.315 -134.102)" fill="#1f4c38"/>
    </g>
    <g id="Grupo_1964" data-name="Grupo 1964" transform="translate(84.058 51.165)">
      <line id="Línea_59" data-name="Línea 59" x1="5.241" transform="translate(0.49 0.49)" fill="#fff"/>
      <path id="Trazado_2598" data-name="Trazado 2598" d="M1217.2,186.612h-5.241a.49.49,0,0,1,0-.981h5.241a.49.49,0,0,1,0,.981Z" transform="translate(-1211.473 -185.631)" fill="#1f4c38"/>
    </g>
  </g>
  <g id="travel-insurance" transform="translate(17.583 11.42)">
    <g id="Grupo_2631" data-name="Grupo 2631" transform="translate(5.463 6.255)">
      <g id="Grupo_2629" data-name="Grupo 2629">
        <g id="Grupo_2622" data-name="Grupo 2622" transform="translate(2.543 3.098)">
          <path id="Trazado_2776" data-name="Trazado 2776" d="M310.36,300.23c-1.624,2.428-6.269,4.189-11.771,4.229v9.97a13.753,13.753,0,0,0,5.321,10.865l5.732,4.448a1.171,1.171,0,0,0,1.436,0l5.732-4.448a13.753,13.753,0,0,0,5.321-10.865v-9.97C316.629,304.419,311.984,302.658,310.36,300.23Z" transform="translate(-298.589 -300.23)" fill="#fff" stroke="#004e37" stroke-width="1"/>
        </g>
        <g id="Grupo_2626" data-name="Grupo 2626">
          <g id="Grupo_2625" data-name="Grupo 2625">
            <path id="Trazado_2778" data-name="Trazado 2778" d="M296.231,315.322a3.708,3.708,0,0,1-2.277-.78l-5.732-4.448a16.3,16.3,0,0,1-6.3-12.874V285.507a.788.788,0,0,1,.782-.788l1.742-.013c4.961-.036,8.057-1.482,9.675-3.1a10.348,10.348,0,0,0,.958-1.1,1.447,1.447,0,0,1,2.319,0,9.976,9.976,0,0,0,.95,1.1c1.552,1.552,4.714,3.064,9.675,3.1l1.742.013a.788.788,0,0,1,.782.788v11.712a16.3,16.3,0,0,1-6.3,12.874l-5.732,4.448A3.707,3.707,0,0,1,296.231,315.322Zm-9.714-26.566a.5.5,0,0,0-.444.5v7.868a12.26,12.26,0,0,0,4.774,9.748l5.076,3.939a.5.5,0,0,0,.615,0l5.076-3.939a12.259,12.259,0,0,0,4.774-9.748v-7.868a.5.5,0,0,0-.444-.5,25.276,25.276,0,0,1-5.8-1.321,16.789,16.789,0,0,1-3.2-1.54,1.352,1.352,0,0,0-1.444,0,16.79,16.79,0,0,1-3.2,1.54A25.272,25.272,0,0,1,286.517,288.756Z" transform="translate(-281.917 -279.923)" fill="#fff" stroke="#004e37" stroke-width="1"/>
          </g>
        </g>
      </g>
      <g id="Grupo_2630" data-name="Grupo 2630" transform="translate(8.765 11.502)">
        <path id="Trazado_2780" data-name="Trazado 2780" d="M344.191,366.011h-.008a1.144,1.144,0,0,1-.9-.449l-3.668-4.789a1.144,1.144,0,0,1,1.817-1.391L344.2,363l5.7-7.237a1.144,1.144,0,0,1,1.8,1.417l-6.614,8.394A1.145,1.145,0,0,1,344.191,366.011Z" transform="translate(-339.379 -355.328)" fill="#004e37"/>
      </g>
    </g>
  </g>
</svg>
