<svg width="21" height="20" viewBox="0 0 21 20" fill="none" xmlns="http://www.w3.org/2000/svg">
<g id="google-chrome 3" clip-path="url(#clip0_2606_9229)">
<g id="Group">
<path id="Vector" d="M9.5625 0.0429735C9.05078 0.0898485 8.5 0.187505 7.94141 0.332036C6.31641 0.746099 4.71094 1.65625 3.50781 2.84766C3.05078 3.30079 2.49219 3.96094 2.49219 4.05079C2.49219 4.09376 5.69922 9.38282 5.76953 9.46485C5.78516 9.48047 5.86328 9.24219 5.94531 8.93751C6.19922 7.95313 6.62109 7.22266 7.29297 6.58985C7.89062 6.03126 8.49219 5.69532 9.28516 5.47657L9.66016 5.3711L14.5156 5.35938C17.1836 5.35547 19.3672 5.33594 19.3672 5.32032C19.3672 5.25391 18.7617 4.30079 18.4961 3.94532C17.3086 2.36329 15.3867 1.03907 13.3906 0.42188C12.2695 0.0781298 10.7617 -0.0703077 9.5625 0.0429735Z" fill="#2C421F"/>
<path id="Vector_2" d="M1.7894 4.94531C1.19565 6.04297 0.859712 7 0.660493 8.16406C0.363618 9.91406 0.504243 11.7383 1.06674 13.3594C1.35581 14.1914 1.98862 15.3477 2.54721 16.0547C3.92221 17.8008 5.68393 19.0117 7.6644 19.5742C8.05502 19.6875 9.21518 19.9297 9.23862 19.9063C9.25034 19.8984 12.4691 14.332 12.5355 14.2109C12.5746 14.1367 12.6449 14.1211 11.7777 14.3789C10.973 14.6133 10.4886 14.6562 9.79721 14.5508C9.12924 14.4531 8.57456 14.2344 7.96909 13.8437C7.52768 13.5586 6.84018 12.8633 6.58237 12.4375C6.4769 12.2695 5.41831 10.4141 4.22299 8.32031C3.03159 6.22656 2.05112 4.50781 2.04331 4.5C2.0394 4.49609 1.92612 4.69531 1.7894 4.94531Z" fill="#2C421F"/>
<path id="Vector_3" d="M9.75838 6.07422C8.9576 6.24609 8.26228 6.62109 7.69197 7.19141C7.10603 7.77734 6.73885 8.46484 6.57088 9.29688C6.47713 9.77734 6.51228 10.5547 6.65291 11.0352C7.06307 12.4336 8.13338 13.4844 9.55525 13.875C9.99275 13.9961 11.0084 13.9961 11.4459 13.875C12.1646 13.6797 12.7232 13.3594 13.2662 12.8359C13.7896 12.3359 14.1412 11.75 14.3482 11.0352C14.4888 10.5547 14.524 9.77734 14.4303 9.29688C14.0943 7.65234 12.8678 6.41406 11.2349 6.07812C10.8638 6 10.1099 6 9.75838 6.07422Z" fill="#2C421F"/>
<path id="Vector_4" d="M13.4727 6.51172C13.957 7.00781 14.1211 7.20312 14.3359 7.53906C15.2617 8.98828 15.3594 10.582 14.6094 12.0703C14.4375 12.4102 10.543 19.1562 10.0977 19.8789L10.0156 20.0117L10.7578 19.9883C13.5703 19.8906 15.7656 18.918 17.7109 16.9023C19.2109 15.3516 20.0898 13.5508 20.4102 11.3867C20.5117 10.6914 20.5 9.23438 20.3867 8.49609C20.2656 7.67969 20.1055 7.10156 19.8086 6.39453L19.6641 6.05469H16.3437H13.0195L13.4727 6.51172Z" fill="#2C421F"/>
</g>
</g>
<defs>
<clipPath id="clip0_2606_9229">
<rect width="20" height="20" fill="white" transform="translate(0.5)"/>
</clipPath>
</defs>
</svg>
