<svg width="141" height="67" viewBox="0 0 141 67" fill="none" xmlns="http://www.w3.org/2000/svg">
<g id="Group 24190">
<path id="Trazado 2578" d="M139.99 47.2458C139.73 41.6726 137.829 35.7176 134.683 32.2618C131.386 28.6387 128.052 27.279 121.95 25.5735C120.558 25.1845 117.022 24.4072 117.022 24.4072C117.022 24.4072 110.491 19.851 108.251 17.8217C104.643 14.5502 97.4352 9.92469 92.9421 7.59359C83.751 2.82374 72.9294 1.80908 63.4856 1.80908C53.4047 1.80908 44.1091 2.72586 36.6422 8.31788C31.2158 12.3814 26.7572 19.2474 23.6649 25.3133C20.5483 27.435 18 30.2769 16.24 33.5933C14.48 36.9096 13.5614 40.6008 13.5635 44.3479C13.5569 47.0795 14.0574 49.789 15.0401 52.3412L15.0508 52.3501C15.4682 53.4076 16.1977 54.3158 17.144 54.9561C18.0904 55.5963 19.2096 55.9388 20.3554 55.9389C20.4657 55.9389 20.5727 55.9291 20.6847 55.9234H24.0716L128.281 55.9096H133.992C137.257 55.9096 139.602 53.2718 139.904 50.05C139.986 49.1177 140.015 48.1814 139.99 47.2458ZM51.082 24.8158L51.0672 24.8329L33.7985 24.7962H33.7812C33.4554 24.7975 33.1353 24.7116 32.8547 24.5477C32.574 24.3837 32.3431 24.1477 32.1864 23.8646C32.0298 23.5815 31.9531 23.2618 31.9645 22.9391C31.9759 22.6164 32.0749 22.3028 32.2511 22.0312C32.2511 22.0312 32.6536 21.2735 32.6758 21.2335C34.3757 18.0637 36.7287 15.2833 39.5822 13.0722C43.7099 9.75911 45.9264 8.63271 51.9331 7.78282C52.5886 7.70676 53.2497 7.68956 53.9084 7.73143C54.3891 7.73143 54.8504 7.92031 55.1909 8.25666C55.5314 8.59301 55.7234 9.04941 55.7249 9.52584V19.7703L55.7167 19.7792C55.7167 19.8371 55.7257 19.8926 55.7257 19.9497C55.7254 21.1962 55.2437 22.3953 54.3794 23.3009C53.5151 24.2066 52.3338 24.7501 51.0779 24.8199L51.082 24.8158ZM102.001 24.7962H101.983L66.1383 24.8329L66.1235 24.8158C64.8686 24.7448 63.6885 24.2009 62.8251 23.2956C61.9617 22.3903 61.4805 21.1921 61.4798 19.9464C61.4798 19.8893 61.4855 19.8339 61.4888 19.776L61.4806 19.767V9.52502C61.4855 8.53565 61.9612 7.17109 63.2962 6.93374C63.5819 6.89686 63.8698 6.87943 64.158 6.88154C73.1483 6.5716 82.9411 8.50466 90.0137 11.9858C95.2492 14.5616 101.053 18.5566 103.426 21.8811C103.453 21.9186 103.533 22.0345 103.533 22.0345C103.709 22.3062 103.808 22.6199 103.819 22.9428C103.83 23.2656 103.754 23.5855 103.597 23.8686C103.44 24.1518 103.209 24.3877 102.928 24.5515C102.647 24.7154 102.327 24.801 102.001 24.7995V24.7962Z" fill="#592272"/>
<path id="Trazado 2580" d="M4.81365 43.6726C3.96048 43.6726 3.12648 43.4219 2.4171 42.9521C1.70772 42.4824 1.15484 41.8148 0.828345 41.0337C0.501854 40.2526 0.416449 39.3931 0.582893 38.5638C0.749337 37.7346 1.16016 36.9729 1.76343 36.3751C2.36671 35.7773 3.13533 35.3701 3.9721 35.2052C4.80887 35.0402 5.67627 35.1249 6.46449 35.4484C7.25271 35.772 7.92638 36.3199 8.40038 37.0229C8.87437 37.7259 9.12739 38.5523 9.12739 39.3978C9.12608 40.5311 8.67114 41.6177 7.86245 42.4191C7.05377 43.2205 5.9573 43.6713 4.81365 43.6726ZM4.81365 37.0373C4.34258 37.0375 3.88214 37.1761 3.49054 37.4356C3.09894 37.695 2.79378 38.0637 2.61362 38.4951C2.43347 38.9264 2.38649 39.401 2.47849 39.8588C2.57049 40.3166 2.79739 40.7372 3.13055 41.0672C3.4637 41.3972 3.88814 41.622 4.35017 41.713C4.8122 41.804 5.29103 41.7572 5.72623 41.5785C6.16142 41.3998 6.53335 41.0973 6.79504 40.7091C7.05674 40.321 7.19643 39.8646 7.19643 39.3978C7.1949 38.7722 6.94332 38.1726 6.49674 37.7304C6.05017 37.2881 5.44498 37.0392 4.81365 37.0382V37.0373Z" fill="#636466"/>
<path id="Trazado 2581" d="M60.6866 65.9826C60.0713 65.9825 59.4699 65.8015 58.9584 65.4626C58.4468 65.1238 58.0481 64.6422 57.8128 64.0788C57.5774 63.5154 57.5159 62.8956 57.636 62.2975C57.7562 61.6995 58.0526 61.1502 58.4877 60.7191C58.9229 60.288 59.4772 59.9945 60.0807 59.8756C60.6842 59.7567 61.3097 59.8178 61.8782 60.0512C62.4466 60.2846 62.9325 60.6797 63.2743 61.1867C63.6161 61.6937 63.7986 62.2898 63.7986 62.8995C63.7977 63.7171 63.4695 64.5009 62.8861 65.0789C62.3026 65.657 61.5116 65.982 60.6866 65.9826ZM60.6866 61.7315C60.4535 61.7317 60.2257 61.8003 60.032 61.9288C59.8383 62.0572 59.6873 62.2397 59.5983 62.4531C59.5092 62.6665 59.486 62.9014 59.5315 63.1279C59.5771 63.3544 59.6894 63.5624 59.8543 63.7257C60.0191 63.889 60.2292 64.0001 60.4578 64.0451C60.6864 64.0901 60.9233 64.067 61.1386 63.9785C61.3539 63.8901 61.538 63.7404 61.6675 63.5483C61.7969 63.3563 61.866 63.1305 61.866 62.8995C61.8658 62.5897 61.7414 62.2926 61.5203 62.0736C61.2991 61.8546 60.9992 61.7315 60.6866 61.7315Z" fill="#636466"/>
<g id="Grupo 1970">
<path id="Trazado 2585" d="M63.1557 50.8049H59.4208C59.1588 50.8177 58.8965 50.7847 58.6514 50.708C58.4063 50.6312 58.1839 50.5126 57.9991 50.36C57.6804 50.0523 57.5157 49.6571 57.5382 49.254V44.5886C57.5382 44.5148 57.5739 44.4441 57.6376 44.392C57.7012 44.3398 57.7876 44.3105 57.8776 44.3105C57.9676 44.3105 58.0539 44.3398 58.1176 44.392C58.1813 44.4441 58.217 44.5148 58.217 44.5886V49.2626C58.217 49.2697 58.217 49.2773 58.217 49.2844C58.2044 49.5388 58.3057 49.7882 58.5017 49.9857C58.6243 50.0795 58.7694 50.1513 58.9277 50.1966C59.0861 50.2419 59.2542 50.2597 59.4213 50.2488H63.1562C63.2462 50.2488 63.3326 50.2781 63.3962 50.3303C63.4599 50.3824 63.4957 50.4531 63.4957 50.5269C63.4957 50.6006 63.4599 50.6713 63.3962 50.7235C63.3326 50.7756 63.2462 50.8049 63.1562 50.8049H63.1557Z" fill="#C8C8C8"/>
</g>
<g id="Grupo 1971">
<path id="Trazado 2586" d="M101.532 42.4553C101.453 42.4553 101.377 42.3545 101.322 42.1751C101.266 41.9956 101.234 41.7523 101.234 41.4985V29.4083C101.234 29.1545 101.266 28.911 101.322 28.7315C101.377 28.552 101.453 28.4512 101.532 28.4512C101.611 28.4512 101.687 28.552 101.742 28.7315C101.798 28.911 101.83 29.1545 101.83 29.4083V41.4985C101.829 41.7524 101.798 41.9957 101.742 42.1751C101.686 42.3545 101.611 42.4553 101.532 42.4553Z" fill="#C8C8C8"/>
</g>
<g id="Grupo 1972">
<path id="Trazado 2587" d="M93.7676 30.4335H88.7329C88.4767 30.4335 88.2308 30.3941 88.0496 30.3241C87.8684 30.2541 87.7666 30.1592 87.7666 30.0602C87.7666 29.9612 87.8684 29.8663 88.0496 29.7963C88.2308 29.7263 88.4767 29.687 88.7329 29.687H93.7676C94.0238 29.687 94.2697 29.7263 94.4509 29.7963C94.6321 29.8663 94.7339 29.9612 94.7339 30.0602C94.7339 30.1592 94.6321 30.2541 94.4509 30.3241C94.2697 30.3941 94.0238 30.4335 93.7676 30.4335Z" fill="#C8C8C8"/>
</g>
<g id="Grupo 1973">
<path id="Trazado 2587_2" d="M137.041 51.0057H132.006C131.75 51.0057 131.504 50.9664 131.323 50.8964C131.142 50.8264 131.04 50.7315 131.04 50.6325C131.04 50.5335 131.142 50.4386 131.323 50.3686C131.504 50.2986 131.75 50.2593 132.006 50.2593H137.041C137.297 50.2593 137.543 50.2986 137.724 50.3686C137.906 50.4386 138.007 50.5335 138.007 50.6325C138.007 50.7315 137.906 50.8264 137.724 50.8964C137.543 50.9664 137.297 51.0057 137.041 51.0057Z" fill="#C8C8C8"/>
</g>
<g id="Grupo 1974">
<path id="Trazado 2589" d="M14.5034 29.9398H2.59043C2.33438 29.9398 2.08878 29.8391 1.90773 29.6596C1.72667 29.4802 1.625 29.2369 1.625 28.9831C1.625 28.7294 1.72667 28.486 1.90773 28.3066C2.08878 28.1272 2.33438 28.0264 2.59043 28.0264H14.5051C14.7612 28.0264 15.0067 28.1272 15.1877 28.3066C15.3688 28.486 15.4706 28.7294 15.4706 28.9831C15.4706 29.2369 15.3688 29.4802 15.1877 29.6596C15.0067 29.8391 14.7612 29.9398 14.5051 29.9398H14.5034Z" fill="#636466"/>
</g>
<g id="Grupo 1975">
<path id="Trazado 2590" d="M1.56504 56.6843C1.30899 56.6843 1.06339 56.5835 0.882336 56.4041C0.701279 56.2247 0.599609 55.9813 0.599609 55.7276C0.599609 55.4738 0.701279 55.2305 0.882336 55.0511C1.06339 54.8716 1.30899 54.7709 1.56504 54.7709L13.4484 54.7603C13.7045 54.7603 13.9501 54.861 14.1311 55.0405C14.3122 55.2199 14.4138 55.4632 14.4138 55.717C14.4138 55.9707 14.3122 56.2141 14.1311 56.3935C13.9501 56.5729 13.7045 56.6737 13.4484 56.6737L1.56504 56.6843Z" fill="#636466"/>
</g>
<g id="Grupo 1976">
<path id="Trazado 2591" d="M69.8188 66.0864C69.5625 66.0864 69.3168 65.9855 69.1356 65.8059C68.9544 65.6263 68.8525 65.3828 68.8525 65.1288C68.8525 64.8748 68.9544 64.6313 69.1356 64.4517C69.3168 64.2721 69.5625 64.1712 69.8188 64.1712L74.2156 64.1655C74.4719 64.1655 74.7176 64.2664 74.8988 64.446C75.08 64.6256 75.1818 64.8691 75.1818 65.1231C75.1818 65.377 75.08 65.6206 74.8988 65.8002C74.7176 65.9798 74.4719 66.0806 74.2156 66.0806L69.8188 66.0864Z" fill="#636466"/>
</g>
<g id="Grupo 1977">
<path id="Trazado 2592" d="M115.937 66.081H77.9889C77.7328 66.081 77.4873 65.9802 77.3063 65.8007C77.1252 65.6213 77.0234 65.378 77.0234 65.1242C77.0234 64.8705 77.1252 64.6271 77.3063 64.4477C77.4873 64.2683 77.7328 64.1675 77.9889 64.1675H115.937C116.193 64.1675 116.439 64.2683 116.62 64.4477C116.801 64.6271 116.902 64.8705 116.902 65.1242C116.902 65.378 116.801 65.6213 116.62 65.8007C116.439 65.9802 116.193 66.081 115.937 66.081Z" fill="#636466"/>
</g>
<g id="Grupo 1978">
<path id="Trazado 2593" d="M21.2878 61.6695H5.57463C5.31836 61.6695 5.07264 61.5686 4.89143 61.389C4.71021 61.2095 4.6084 60.9659 4.6084 60.712C4.6084 60.458 4.71021 60.2144 4.89143 60.0349C5.07264 59.8553 5.31836 59.7544 5.57463 59.7544H21.2878C21.544 59.7544 21.7898 59.8553 21.971 60.0349C22.1522 60.2144 22.254 60.458 22.254 60.712C22.254 60.9659 22.1522 61.2095 21.971 61.389C21.7898 61.5686 21.544 61.6695 21.2878 61.6695Z" fill="#636466"/>
</g>
<g id="Grupo 1979">
<path id="Trazado 2594" d="M23.1819 25.5543H6.90666C6.65039 25.5543 6.40467 25.4534 6.22346 25.2738C6.04225 25.0942 5.94043 24.8507 5.94043 24.5967C5.94043 24.3428 6.04225 24.0992 6.22346 23.9196C6.40467 23.74 6.65039 23.6392 6.90666 23.6392H23.1819C23.4382 23.6392 23.6839 23.74 23.8651 23.9196C24.0464 24.0992 24.1482 24.3428 24.1482 24.5967C24.1482 24.8507 24.0464 25.0942 23.8651 25.2738C23.6839 25.4534 23.4382 25.5543 23.1819 25.5543Z" fill="#636466"/>
</g>
<g id="Grupo 1980">
<path id="Trazado 2595" d="M51.6754 3.19979H27.5893C27.333 3.19979 27.0873 3.0989 26.9061 2.91932C26.7249 2.73975 26.623 2.49619 26.623 2.24223C26.623 1.98827 26.7249 1.74471 26.9061 1.56513C27.0873 1.38555 27.333 1.28467 27.5893 1.28467H51.6754C51.9317 1.28467 52.1774 1.38555 52.3586 1.56513C52.5398 1.74471 52.6416 1.98827 52.6416 2.24223C52.6416 2.49619 52.5398 2.73975 52.3586 2.91932C52.1774 3.0989 51.9317 3.19979 51.6754 3.19979Z" fill="#636466"/>
</g>
<g id="Grupo 1981">
<path id="Trazado 2596" d="M38.9934 7.08309H30.2163C29.9601 7.08309 29.7142 6.98221 29.533 6.80263C29.3518 6.62305 29.25 6.37949 29.25 6.12552C29.25 5.87156 29.3518 5.62801 29.533 5.44843C29.7142 5.26885 29.9601 5.16797 30.2163 5.16797H38.9934C39.2497 5.16797 39.4955 5.26885 39.6767 5.44843C39.8579 5.62801 39.9598 5.87156 39.9598 6.12552C39.9598 6.37949 39.8579 6.62305 39.6767 6.80263C39.4955 6.98221 39.2497 7.08309 38.9934 7.08309Z" fill="#636466"/>
</g>
<g id="Grupo 1982">
<path id="Trazado 2597" d="M29.2456 11.1978H26.397C26.1407 11.1978 25.8949 11.0969 25.7137 10.9174C25.5325 10.7378 25.4307 10.4942 25.4307 10.2403C25.4307 9.98631 25.5325 9.74275 25.7137 9.56318C25.8949 9.3836 26.1407 9.28271 26.397 9.28271H29.2456C29.5018 9.28271 29.7477 9.3836 29.9289 9.56318C30.1101 9.74275 30.2119 9.98631 30.2119 10.2403C30.2119 10.4942 30.1101 10.7378 29.9289 10.9174C29.7477 11.0969 29.5018 11.1978 29.2456 11.1978Z" fill="#636466"/>
</g>
<g id="Grupo 1983">
<path id="Trazado 2598" d="M100.648 62.0826H90.3237C90.0674 62.0826 89.8216 61.9817 89.6403 61.8021C89.4591 61.6226 89.3574 61.379 89.3574 61.125C89.3574 60.8711 89.4591 60.6275 89.6403 60.4479C89.8216 60.2684 90.0674 60.1675 90.3237 60.1675H100.648C100.904 60.1675 101.15 60.2684 101.331 60.4479C101.513 60.6275 101.614 60.8711 101.614 61.125C101.614 61.379 101.513 61.6226 101.331 61.8021C101.15 61.9817 100.904 62.0826 100.648 62.0826Z" fill="#636466"/>
</g>
<g id="Grupo 1984">
<path id="Trazado 2600" d="M128.781 52.5816C128.781 50.0872 128.035 47.6489 126.636 45.575C125.237 43.501 123.25 41.8846 120.924 40.9301C118.599 39.9756 116.04 39.7259 113.571 40.2126C111.102 40.6993 108.835 41.9005 107.055 43.6643C105.275 45.4281 104.063 47.6753 103.572 50.1217C103.081 52.5682 103.333 55.104 104.296 57.4086C105.259 59.7131 106.89 61.6829 108.983 63.0688C111.076 64.4547 113.536 65.1945 116.053 65.1947C117.725 65.1948 119.38 64.8686 120.924 64.2348C122.468 63.6009 123.872 62.6719 125.054 61.5006C126.235 60.3294 127.173 58.9389 127.813 57.4086C128.452 55.8782 128.781 54.238 128.781 52.5816Z" fill="#592272"/>
<path id="Trazado 2601" d="M116.054 66.1522C113.345 66.1522 110.698 65.3564 108.446 63.8653C106.194 62.3743 104.439 60.255 103.403 57.7754C102.366 55.2958 102.095 52.5674 102.623 49.9351C103.152 47.3029 104.456 44.885 106.371 42.9872C108.286 41.0894 110.726 39.797 113.382 39.2734C116.038 38.7499 118.792 39.0186 121.294 40.0456C123.796 41.0727 125.935 42.812 127.439 45.0435C128.944 47.275 129.747 49.8986 129.747 52.5825C129.743 56.1801 128.299 59.6293 125.732 62.1732C123.165 64.7172 119.684 66.1481 116.054 66.1522ZM116.054 40.927C113.727 40.927 111.454 41.6106 109.519 42.8913C107.585 44.172 106.078 45.9924 105.187 48.1221C104.297 50.2519 104.064 52.5954 104.518 54.8563C104.972 57.1173 106.092 59.1941 107.737 60.8241C109.382 62.4542 111.478 63.5643 113.759 64.014C116.041 64.4637 118.405 64.2329 120.555 63.3507C122.704 62.4686 124.541 60.9746 125.833 59.0579C127.125 57.1412 127.815 54.8877 127.815 52.5825C127.812 49.4923 126.571 46.5297 124.366 44.3446C122.162 42.1595 119.172 40.9305 116.054 40.927Z" fill="#BCBEC1"/>
</g>
<g id="Grupo 1985">
<path id="Trazado 2604" d="M119.257 52.5866C119.257 51.9587 119.069 51.345 118.717 50.8229C118.365 50.3009 117.865 49.894 117.28 49.6538C116.694 49.4135 116.05 49.3506 115.429 49.4731C114.808 49.5956 114.237 49.8979 113.789 50.3419C113.341 50.7858 113.036 51.3515 112.912 51.9673C112.789 52.5831 112.852 53.2213 113.094 53.8014C113.337 54.3815 113.748 54.8772 114.274 55.226C114.801 55.5749 115.42 55.761 116.054 55.761C116.904 55.761 117.718 55.4266 118.319 54.8313C118.92 54.2359 119.257 53.4285 119.257 52.5866Z" fill="#592272"/>
<path id="Trazado 2605" d="M116.053 56.7159C115.228 56.7159 114.422 56.4735 113.736 56.0194C113.05 55.5652 112.516 54.9198 112.2 54.1646C111.885 53.4094 111.802 52.5784 111.963 51.7768C112.124 50.9751 112.521 50.2387 113.104 49.6607C113.688 49.0827 114.431 48.6891 115.24 48.5296C116.049 48.3701 116.887 48.452 117.649 48.7648C118.411 49.0776 119.063 49.6073 119.521 50.2869C119.979 50.9666 120.224 51.7656 120.224 52.583C120.222 53.6787 119.782 54.729 119.001 55.5037C118.219 56.2785 117.159 56.7144 116.053 56.7159ZM116.053 50.3653C115.611 50.3653 115.178 50.4954 114.81 50.7391C114.442 50.9828 114.155 51.3291 113.986 51.7344C113.816 52.1396 113.772 52.5855 113.858 53.0157C113.945 53.4459 114.158 53.841 114.471 54.1512C114.784 54.4614 115.183 54.6726 115.617 54.7581C116.051 54.8437 116.501 54.7998 116.91 54.6319C117.319 54.4641 117.668 54.1798 117.914 53.8151C118.16 53.4504 118.291 53.0217 118.291 52.583C118.29 51.9951 118.054 51.4315 117.635 51.0158C117.215 50.6001 116.647 50.3662 116.053 50.3653Z" fill="#BCBEC1"/>
</g>
<path id="Trazado 2613" d="M50.1861 51.9319C50.1861 49.4372 49.4397 46.9986 48.0411 44.9244C46.6425 42.8502 44.6545 41.2335 42.3288 40.2789C40.003 39.3243 37.4438 39.0745 34.9749 39.5613C32.5059 40.048 30.2381 41.2494 28.4581 43.0134C26.6781 44.7775 25.466 47.025 24.9749 49.4717C24.4839 51.9184 24.7361 54.4545 25.6995 56.7592C26.663 59.064 28.2945 61.0338 30.3876 62.4196C32.4808 63.8055 34.9418 64.5451 37.4591 64.5449C40.8346 64.5447 44.0718 63.2157 46.4586 60.8504C48.8453 58.485 50.1861 55.2769 50.1861 51.9319Z" fill="#592272"/>
<path id="Trazado 2614" d="M37.4578 65.5033C34.7495 65.5035 32.102 64.7078 29.85 63.2168C27.5981 61.7258 25.8428 59.6066 24.8063 57.127C23.7697 54.6475 23.4984 51.9191 24.0267 49.2867C24.555 46.6544 25.8591 44.2364 27.7741 42.3386C29.6891 40.4407 32.129 39.1482 34.7853 38.6246C37.4415 38.1009 40.1948 38.3696 42.697 39.3966C45.1992 40.4237 47.3378 42.1629 48.8424 44.3945C50.3471 46.6261 51.1503 49.2497 51.1503 51.9336C51.1459 55.531 49.702 58.9799 47.1351 61.5238C44.5683 64.0677 41.088 65.4988 37.4578 65.5033ZM37.4578 40.2789C35.1318 40.2791 32.8581 40.9627 30.9242 42.2435C28.9902 43.5242 27.483 45.3445 26.5929 47.4741C25.7029 49.6037 25.4701 51.947 25.924 54.2078C26.3779 56.4685 27.498 58.5451 29.1428 60.1749C30.7876 61.8048 32.8832 62.9147 35.1646 63.3643C37.4459 63.814 39.8105 63.5831 41.9594 62.701C44.1084 61.8188 45.9452 60.325 47.2374 58.4084C48.5297 56.4919 49.2194 54.2386 49.2194 51.9336C49.2159 48.8435 47.9756 45.8809 45.7706 43.696C43.5656 41.511 40.576 40.2821 37.4578 40.2789Z" fill="#C8C8C8"/>
<path id="Trazado 2617" d="M40.8383 52.5817C40.8383 51.9974 40.6634 51.4262 40.3358 50.9404C40.0083 50.4546 39.5427 50.0759 38.9979 49.8523C38.4532 49.6287 37.8538 49.5702 37.2756 49.6842C36.6973 49.7982 36.166 50.0796 35.7491 50.4927C35.3322 50.9059 35.0483 51.4323 34.9333 52.0053C34.8182 52.5784 34.8772 53.1724 35.1029 53.7122C35.3285 54.252 35.7107 54.7134 36.2009 55.038C36.6912 55.3627 37.2675 55.5359 37.8571 55.5359C38.6477 55.5359 39.406 55.2247 39.9651 54.6706C40.5242 54.1166 40.8383 53.3652 40.8383 52.5817Z" fill="#592272"/>
<path id="Trazado 2618" d="M37.4771 55.8448C36.6957 55.8448 35.9318 55.6152 35.2822 55.185C34.6325 54.7548 34.1261 54.1433 33.8271 53.428C33.5281 52.7126 33.4498 51.9254 33.6023 51.1659C33.7547 50.4065 34.131 49.7089 34.6835 49.1613C35.2361 48.6138 35.94 48.2409 36.7063 48.0899C37.4727 47.9388 38.2671 48.0163 38.9889 48.3127C39.7108 48.609 40.3279 49.1108 40.762 49.7546C41.1961 50.3985 41.4278 51.1554 41.4278 51.9297C41.4278 52.9681 41.0116 53.9639 40.2707 54.6981C39.5298 55.4323 38.5248 55.8448 37.4771 55.8448ZM37.4771 49.9355C37.0784 49.9355 36.6886 50.0527 36.3571 50.2722C36.0256 50.4917 35.7673 50.8037 35.6147 51.1688C35.4622 51.5338 35.4223 51.9355 35.5002 52.323C35.578 52.7105 35.7701 53.0664 36.0521 53.3457C36.334 53.625 36.6933 53.8152 37.0843 53.8922C37.4754 53.9692 37.8807 53.9295 38.249 53.7782C38.6173 53.6269 38.932 53.3707 39.1534 53.0421C39.3748 52.7135 39.493 52.3273 39.4928 51.9322C39.493 51.4021 39.2807 50.8937 38.9027 50.5186C38.5248 50.1436 38.0119 49.9327 37.4771 49.9322V49.9355Z" fill="#C8C8C8"/>
<ellipse id="Ellipse 12" cx="133.022" cy="36.3805" rx="1.98651" ry="1.98254" fill="#D9D9D9"/>
</g>
</svg>
