<svg width="72" height="72" viewBox="0 0 72 72" fill="none" xmlns="http://www.w3.org/2000/svg">
<circle cx="36" cy="36" r="36" fill="#3D761B"/>
<path d="M50.64 25.7018C50.4 25.4618 50.16 25.3418 49.8 25.3418C49.56 25.3418 49.2 25.4618 48.96 25.7018L30.9975 43.6493L23.0475 35.6993C22.8075 35.4593 22.5675 35.3393 22.2075 35.3393C21.9675 35.3393 21.6075 35.4593 21.3675 35.6993C21.1275 35.9393 21 36.2993 21 36.6593C21 37.0193 21.12 37.3793 21.36 37.6268L29.9175 46.1843C29.9175 46.1843 30 46.2593 30.0225 46.2818C30.045 46.2818 30.54 46.7318 31.14 46.7318C31.6875 46.7318 32.1825 46.2068 32.1825 46.2068C32.1825 46.2068 32.1975 46.1918 32.205 46.1843L50.64 27.5093C50.88 27.1493 51 26.9093 51 26.5418C51 26.3018 50.88 25.9418 50.64 25.7018Z" fill="white"/>
</svg>
