<svg width="92" height="99" viewBox="0 0 92 99" fill="none" xmlns="http://www.w3.org/2000/svg">
<path d="M79.1552 70.4045C70.0141 64.1547 78.1902 57.4189 82.941 54.3635C89.3885 59.7799 92.5062 62.0715 90.2899 67.2796C89.5532 69.0108 85.6134 73.5294 79.1552 70.4045Z" fill="#592272" stroke="#EAECE9" stroke-linejoin="round"/>
<path d="M69.1246 41.4474H65.5615" stroke="black"/>
<path d="M65.1162 36.448H69.1247" stroke="black"/>
<path d="M16.5693 61.8637V24.436L44.5161 8.11585L71.7974 24.436V61.8637H16.5693Z" fill="#592272" stroke="#EAECE9" stroke-linejoin="round"/>
<path d="M16.5684 4.78159V18.1144L25.0307 13.0571V4.78159H16.5684Z" fill="#592272" stroke="#EAECE9" stroke-linejoin="round"/>
<path d="M8.99707 22.698V29.5728L44.6281 8.3236L80.7045 29.5728V22.698L44.6281 1.03223L8.99707 22.698Z" fill="#592272" stroke="#EAECE9" stroke-linejoin="round"/>
<path d="M69.1245 41.4478H66.0068V36.448H69.1245V41.4478Z" fill="#592272" stroke="#EAECE9" stroke-linejoin="round"/>
<path d="M61.7743 33.1145V27.698M61.7743 27.698H66.8963M61.7743 27.698H56.6523" stroke="#EAECE9" stroke-width="3" stroke-linecap="round" stroke-linejoin="round"/>
<path d="M16.5676 41.4478V36.0314H9.44141C4.80938 36.0314 3.65137 39.3646 3.65137 41.0312V67.6968C3.65137 73.6965 8.99602 75.1965 11.6683 75.1965H47.7447C52.0205 75.1965 53.0894 71.8633 53.0894 70.1967V62.2803V42.6978C53.0894 41.5311 54.2771 41.2395 54.8709 41.2395H57.766V43.1144C57.766 44.4477 58.8052 44.781 59.3248 44.781H64.2241C65.6493 44.781 66.0056 43.6699 66.0056 43.1144V34.7814C66.0056 33.4481 64.9664 33.1148 64.4468 33.1148H59.5475C58.1223 33.1148 57.766 34.2259 57.766 34.7814V36.448H53.0894C48.8137 36.448 47.7447 39.5034 47.7447 41.0312V62.2803V67.6968C47.7447 69.6967 46.2601 70.1967 45.5178 70.1967H11.6683C9.88679 70.1967 9.44141 68.5301 9.44141 67.6968V43.9477C9.44141 42.2811 10.926 41.5867 11.6683 41.4478H16.5676Z" fill="#592272" stroke="#EAECE9" stroke-linejoin="round"/>
<path d="M5.98242 69.7795C5.94739 70.476 6.48587 72.0775 8.92008 72.9112" stroke="#EAECE9" stroke-linecap="round"/>
<path d="M51.8828 38.2055C51.1431 38.2914 49.5474 39.0596 49.0822 41.4452" stroke="#EAECE9" stroke-linecap="round"/>
<path d="M52.246 50.703L52.246 59.7852C52.246 59.9761 52.2221 60.1593 52.1795 60.2944C52.137 60.4294 52.0792 60.5052 52.019 60.5052C51.9588 60.5052 51.9011 60.4294 51.8585 60.2944C51.8159 60.1593 51.792 59.9761 51.792 59.7852L51.792 50.703C51.792 50.512 51.8159 50.3288 51.8585 50.1938C51.9011 50.0587 51.9588 49.9829 52.019 49.9829C52.0792 49.9829 52.137 50.0587 52.1795 50.1938C52.2221 50.3288 52.246 50.512 52.246 50.703Z" fill="#C8C8C8"/>
<path d="M7.30853 49.2016L7.30853 58.2838C7.30853 58.4748 7.28462 58.6579 7.24204 58.793C7.19947 58.928 7.14172 59.0038 7.08151 59.0038C7.0213 59.0038 6.96356 58.928 6.92099 58.793C6.87841 58.6579 6.85449 58.4748 6.85449 58.2838L6.85449 49.2016C6.85449 49.0106 6.87841 48.8274 6.92099 48.6924C6.96356 48.5573 7.0213 48.4815 7.08151 48.4815C7.14172 48.4815 7.19947 48.5573 7.24204 48.6924C7.28461 48.8274 7.30853 49.0106 7.30853 49.2016Z" fill="#C8C8C8"/>
<path d="M8.45974 51.4238L8.45974 57.0283C8.45974 57.1461 8.43156 57.2592 8.3814 57.3425C8.33124 57.4258 8.26321 57.4726 8.19227 57.4726C8.12134 57.4726 8.0533 57.4258 8.00315 57.3425C7.95299 57.2592 7.9248 57.1461 7.9248 57.0283L7.9248 51.4238C7.9248 51.306 7.95299 51.1929 8.00314 51.1096C8.0533 51.0263 8.12133 50.9795 8.19227 50.9795C8.26321 50.9795 8.33124 51.0263 8.3814 51.1096C8.43156 51.1929 8.45974 51.306 8.45974 51.4238Z" fill="#C8C8C8"/>
<path d="M40.8543 73.1197H31.1457C30.9415 73.1197 30.7457 73.0974 30.6014 73.0576C30.457 73.0179 30.376 72.9639 30.376 72.9077C30.376 72.8515 30.457 72.7976 30.6014 72.7578C30.7457 72.7181 30.9415 72.6958 31.1457 72.6958H40.8543C41.0585 72.6958 41.2543 72.7181 41.3986 72.7578C41.543 72.7976 41.624 72.8515 41.624 72.9077C41.624 72.9639 41.543 73.0179 41.3986 73.0576C41.2543 73.0974 41.0585 73.1197 40.8543 73.1197Z" fill="#C8C8C8"/>
<path d="M23.2899 7.02622H18.308C18.2009 7.02622 18.0982 6.97386 18.0225 6.88065C17.9468 6.78744 17.9043 6.66102 17.9043 6.52919C17.9043 6.39737 17.9468 6.27095 18.0225 6.17774C18.0982 6.08453 18.2009 6.03216 18.308 6.03216H23.2906C23.3977 6.03216 23.5003 6.08453 23.5761 6.17774C23.6518 6.27095 23.6943 6.39737 23.6943 6.52919C23.6943 6.66102 23.6518 6.78744 23.5761 6.88065C23.5003 6.97386 23.3977 7.02622 23.2906 7.02622H23.2899Z" fill="#C8C8C8"/>
<path d="M23.6963 36.0306V61.8629H40.621V36.0306H23.6963Z" fill="#592272" stroke="#EAECE9" stroke-linejoin="round"/>
<path d="M79.9176 36.8643H74.9141V41.4474H77.8091C79.4466 41.4474 79.9176 43.0446 79.9176 43.739V48.5305H85.6034V42.0724C85.6034 37.9059 81.8128 36.8643 79.9176 36.8643Z" fill="#592272" stroke="#EAECE9" stroke-linejoin="round"/>
<rect x="69.1797" y="34.0312" width="5.23543" height="9.8329" rx="2.61771" fill="#592272" stroke="#EAECE9"/>
<rect x="77.1953" y="48.6141" width="11.4709" height="3.58315" rx="1.79157" fill="#592272" stroke="#EAECE9"/>
<path d="M83.8086 40.906C83.7573 40.2103 83.0245 38.6779 80.5036 38.113" stroke="#EAECE9" stroke-linecap="round"/>
<path d="M87.0293 68.1752C87.7619 68.0467 89.3038 67.1877 89.6105 64.7798" stroke="#EAECE9" stroke-linecap="round"/>
<rect x="37.29" y="47.9826" width="1.60177" height="2.49736" rx="0.800883" fill="#EAECE9"/>
<path d="M49.0698 21.2609C49.0698 23.2986 47.2937 25.0064 45.0315 25.0064C42.7693 25.0064 40.9932 23.2986 40.9932 21.2609C40.9932 19.2232 42.7693 17.5154 45.0315 17.5154C47.2937 17.5154 49.0698 19.2232 49.0698 21.2609Z" fill="#592272" stroke="#EAECE9"/>
<path d="M63.2863 43.9865H59.2383C59.0819 43.9865 58.9318 43.8635 58.8212 43.6446C58.7106 43.4257 58.6484 43.1289 58.6484 42.8193C58.6484 42.7315 58.6661 42.6472 58.6975 42.5851C58.7289 42.5229 58.7715 42.488 58.8159 42.488C58.8603 42.488 58.9029 42.5229 58.9343 42.5851C58.9657 42.6472 58.9833 42.7315 58.9833 42.8193C58.9834 42.9531 59.0103 43.0813 59.0581 43.1759C59.1059 43.2704 59.1707 43.3236 59.2383 43.3238H63.2863C63.3307 43.3238 63.3733 43.3587 63.4047 43.4209C63.4361 43.483 63.4537 43.5673 63.4537 43.6551C63.4537 43.743 63.4361 43.8273 63.4047 43.8894C63.3733 43.9515 63.3307 43.9865 63.2863 43.9865Z" fill="#C8C8C8"/>
<path d="M73.4666 42.9879H70.3182C70.1965 42.9879 70.0798 42.8649 69.9937 42.646C69.9077 42.4272 69.8594 42.1303 69.8594 41.8208C69.8594 41.7329 69.8731 41.6486 69.8975 41.5865C69.922 41.5244 69.9551 41.4895 69.9896 41.4895C70.0242 41.4895 70.0573 41.5244 70.0817 41.5865C70.1061 41.6486 70.1198 41.7329 70.1198 41.8208C70.1199 41.9545 70.1408 42.0827 70.178 42.1773C70.2152 42.2718 70.2656 42.3251 70.3182 42.3253H73.4666C73.5011 42.3253 73.5342 42.3602 73.5587 42.4223C73.5831 42.4844 73.5968 42.5687 73.5968 42.6566C73.5968 42.7444 73.5831 42.8287 73.5587 42.8908C73.5342 42.953 73.5011 42.9879 73.4666 42.9879Z" fill="#C8C8C8"/>
<path d="M70.809 91.4898L70.8618 91.5164L70.9209 91.5165L82.2151 91.5327C81.255 93.5878 79.6277 95.3651 77.5211 96.6428C75.2965 97.9919 72.6471 98.7172 69.9297 98.7176C67.2862 98.718 64.7049 98.0319 62.5162 96.7501C60.3276 95.4684 58.6338 93.6511 57.6455 91.535L57.5781 91.3908H57.419H14.8471H14.736L14.6616 91.4732C13.6252 92.6204 12.198 93.4612 10.5771 93.8723C8.95627 94.2835 7.22779 94.2431 5.63511 93.757C4.04245 93.2709 2.67012 92.3651 1.70667 91.1722C0.743727 89.9799 0.236724 88.5602 0.250264 87.1119C0.263805 85.6636 0.797268 84.2509 1.78263 83.0721C2.76851 81.8927 4.15793 81.0063 5.75965 80.5428C7.36137 80.0793 9.09036 80.0634 10.7032 80.4974C12.316 80.9315 13.7269 81.7922 14.7415 82.9537L14.8162 83.0392H14.9298H57.416H57.5751L57.6425 82.895C58.6449 80.7492 60.3722 78.9114 62.6036 77.6273C64.8353 76.3431 67.464 75.6747 70.1443 75.7127C72.8247 75.7507 75.4266 76.4932 77.6086 77.8396C79.6733 79.1137 81.2682 80.8704 82.2143 82.8965L70.9202 82.9128L70.8611 82.9129L70.8083 82.9395L66.7772 84.9657L66.6395 85.0349V85.1891V89.2402V89.3944L66.7772 89.4636L70.809 91.4898ZM4.3664 84.8288C3.83796 85.517 3.55286 86.3303 3.55269 87.1661L8.32188 91.3502C9.25792 91.3502 10.1752 91.1087 10.958 90.6535C11.741 90.1981 12.3571 89.5475 12.7226 88.7797C13.0884 88.0111 13.1849 87.1629 12.9978 86.3441C12.8109 85.5258 12.3505 84.7795 11.6816 84.1972C11.0131 83.6152 10.1652 83.222 9.24652 83.0628C8.32784 82.9037 7.37528 82.985 6.50815 83.2975C5.64098 83.6101 4.89442 84.1412 4.3664 84.8288ZM3.55269 87.1661C3.55247 87.7204 3.67615 88.2688 3.91907 88.7794C4.16172 89.2895 4.51637 89.7505 4.9607 90.1372C5.40498 90.5238 5.93059 90.8289 6.50686 91.0365C7.0831 91.2441 7.69975 91.3505 8.32177 91.3502L3.55269 87.1661Z" fill="#592272" stroke="#BCBEC1" stroke-width="0.5"/>
<path d="M1.58203 88.6055C1.77992 89.7779 3.2443 92.2709 7.51871 92.8633" stroke="#EAECE9" stroke-linecap="round"/>
<path d="M48.5702 88.1188H40.2884C40.1143 88.1188 39.9472 88.0997 39.8241 88.0658C39.701 88.0319 39.6318 87.9859 39.6318 87.938C39.6318 87.89 39.701 87.844 39.8241 87.8101C39.9472 87.7762 40.1143 87.7571 40.2884 87.7571H48.5702C48.7443 87.7571 48.9114 87.7762 49.0345 87.8101C49.1576 87.844 49.2268 87.89 49.2268 87.938C49.2268 87.9859 49.1576 88.0319 49.0345 88.0658C48.9114 88.0997 48.7443 88.1188 48.5702 88.1188Z" fill="#C8C8C8"/>
<path d="M20.1405 87.9494H16.2999C16.1515 87.9494 16.0091 87.8911 15.9041 87.7872C15.7992 87.6834 15.7402 87.5426 15.7402 87.3957C15.7402 87.354 15.757 87.3141 15.7868 87.2846C15.8166 87.2551 15.857 87.2386 15.8991 87.2386C15.9412 87.2386 15.9817 87.2551 16.0115 87.2846C16.0412 87.3141 16.058 87.354 16.058 87.3957C16.0581 87.4592 16.0836 87.52 16.1289 87.5649C16.1743 87.6097 16.2357 87.635 16.2999 87.6351H20.1405C20.1827 87.6351 20.2231 87.6516 20.2528 87.6811C20.2826 87.7106 20.2994 87.7505 20.2994 87.7922C20.2994 87.8339 20.2826 87.8739 20.2528 87.9034C20.2231 87.9328 20.1827 87.9494 20.1405 87.9494Z" fill="#C8C8C8"/>
<path d="M57.984 84.3048C57.8749 84.2689 57.7923 84.1845 57.7543 84.0702C57.7162 83.9558 57.7258 83.8209 57.7811 83.695C58.2266 82.7402 58.8516 81.8651 59.6097 81.1347C59.6597 81.0884 59.716 81.0515 59.7753 81.0262C59.8346 81.0009 59.8958 80.9876 59.9555 80.987C60.0151 80.9865 60.072 80.9987 60.1228 81.0231C60.1737 81.0474 60.2175 81.0833 60.2519 81.1288C60.2862 81.1743 60.3104 81.2285 60.323 81.2882C60.3356 81.348 60.3364 81.4121 60.3253 81.477C60.3142 81.5418 60.2915 81.6062 60.2584 81.6663C60.2254 81.7265 60.1827 81.7812 60.1327 81.8275C59.5012 82.4392 58.9789 83.1691 58.6032 83.9649C58.5758 84.0273 58.538 84.0856 58.492 84.1364C58.4459 84.1873 58.3925 84.2297 58.3349 84.2612C58.2773 84.2927 58.2165 84.3128 58.1561 84.3202C58.0956 84.3276 58.0367 84.3222 57.9826 84.3043L57.984 84.3048Z" fill="#C8C8C8"/>
<path d="M70.6742 97.5211C68.0939 97.5197 65.598 96.8109 63.631 95.5208C63.5022 95.4319 63.4235 95.3077 63.4117 95.1745C63.3999 95.0414 63.4558 94.91 63.5676 94.8083C63.6794 94.7067 63.8382 94.6427 64.0102 94.6302C64.1821 94.6177 64.3537 94.6576 64.4881 94.7413C66.2158 95.8742 68.408 96.4967 70.6742 96.498C70.8498 96.498 71.0183 96.5519 71.1425 96.6478C71.2667 96.7437 71.3364 96.8739 71.3364 97.0095C71.3364 97.1452 71.2667 97.2753 71.1425 97.3712C71.0183 97.4672 70.8498 97.5211 70.6742 97.5211Z" fill="#C8C8C8"/>
<path d="M62.2072 93.1811C62.0736 93.1811 61.9421 93.1593 61.8252 93.1178C61.7083 93.0764 61.6097 93.0166 61.5386 92.944L61.4607 92.8642C61.0685 92.4967 60.7556 92.0967 60.5307 91.6753C60.4664 91.5499 60.4811 91.4134 60.5715 91.2948C60.6619 91.1763 60.8209 91.0851 61.0147 91.0407C61.2085 90.9964 61.4217 91.0024 61.6087 91.0574C61.7956 91.1125 61.9417 91.2122 62.0156 91.3354C62.2005 91.6877 62.4627 92.0214 62.7943 92.3263L62.8731 92.4067C62.9481 92.4831 62.9899 92.5711 62.9939 92.6614C62.998 92.7517 62.9642 92.8411 62.8961 92.9202C62.828 92.9993 62.728 93.0652 62.6067 93.1111C62.4854 93.157 62.348 93.1812 62.2072 93.1811Z" fill="#C8C8C8"/>
</svg>
