<svg width="91" height="68" viewBox="0 0 91 68" fill="none" xmlns="http://www.w3.org/2000/svg">
<g id="Group 24121Xr">
<path id="Trazado 2578" d="M90.3736 30.854C90.2051 27.2432 88.9733 23.3851 86.9352 21.1461C84.799 18.7988 82.6394 17.9179 78.6858 16.8129C77.7841 16.5608 75.4933 16.0572 75.4933 16.0572C75.4933 16.0572 71.2614 13.1054 69.8104 11.7906C67.4727 9.67104 62.803 6.67427 59.892 5.16399C53.9372 2.07368 46.9261 1.4163 40.8076 1.4163C34.2764 1.4163 28.2539 2.01027 23.4162 5.63324C19.9005 8.26593 17.0119 12.7143 15.0084 16.6443C12.9893 18.0189 11.3382 19.8601 10.1979 22.0087C9.05768 24.1574 8.46254 26.5489 8.46391 28.9765C8.45963 30.7463 8.78388 32.5017 9.42053 34.1552L9.42749 34.161C9.69791 34.8462 10.1705 35.4346 10.7837 35.8494C11.3968 36.2642 12.1219 36.4861 12.8643 36.4862C12.9357 36.4862 13.005 36.4798 13.0776 36.4761H15.2719L82.7876 36.4671H86.4873C88.6032 36.4671 90.1219 34.7582 90.3176 32.6708C90.3708 32.0668 90.3895 31.4602 90.3736 30.854ZM32.7715 16.322L32.7619 16.3331L21.5738 16.3093H21.5626C21.3515 16.3101 21.1442 16.2545 20.9623 16.1483C20.7805 16.042 20.6309 15.8892 20.5294 15.7057C20.4279 15.5223 20.3782 15.3152 20.3856 15.1061C20.393 14.897 20.4571 14.6938 20.5713 14.5179C20.5713 14.5179 20.8321 14.027 20.8465 14.0011C21.9478 11.9474 23.4722 10.146 25.321 8.71351C27.9952 6.56699 29.4313 5.83722 33.3229 5.28659C33.7476 5.23731 34.1759 5.22617 34.6027 5.25329C34.9142 5.25329 35.213 5.37566 35.4336 5.59358C35.6542 5.8115 35.7786 6.10719 35.7796 6.41586V13.0531L35.7742 13.0589C35.7742 13.0964 35.7801 13.1323 35.7801 13.1693C35.7799 13.9769 35.4678 14.7538 34.9078 15.3405C34.3479 15.9273 33.5825 16.2794 32.7688 16.3246L32.7715 16.322ZM65.7609 16.3093H65.7497L42.5262 16.3331L42.5166 16.322C41.7036 16.276 40.939 15.9236 40.3797 15.3371C39.8203 14.7505 39.5085 13.9742 39.5081 13.1672C39.5081 13.1302 39.5118 13.0943 39.5139 13.0567L39.5086 13.0509V6.41533C39.5118 5.77434 39.82 4.89026 40.6849 4.73648C40.87 4.71259 41.0566 4.70129 41.2432 4.70266C47.0679 4.50186 53.4125 5.75425 57.9947 8.00963C61.3867 9.67844 65.1467 12.2667 66.684 14.4207C66.7016 14.445 66.7534 14.52 66.7534 14.52C66.8676 14.696 66.9317 14.8993 66.9391 15.1085C66.9464 15.3176 66.8966 15.5249 66.795 15.7083C66.6934 15.8918 66.5437 16.0446 66.3617 16.1508C66.1797 16.2569 65.9721 16.3124 65.7609 16.3114V16.3093Z" fill="#592272"/>
<path id="Trazado 2580" d="M2.79474 28.5391C2.24199 28.5391 1.70165 28.3767 1.24206 28.0724C0.782463 27.7681 0.424258 27.3355 0.212729 26.8294C0.00120093 26.3234 -0.0541311 25.7665 0.0537052 25.2293C0.161542 24.692 0.427704 24.1985 0.818558 23.8112C1.20941 23.4239 1.70739 23.1601 2.24952 23.0533C2.79165 22.9464 3.35362 23.0012 3.8643 23.2109C4.37497 23.4205 4.81144 23.7755 5.11853 24.2309C5.42562 24.6864 5.58955 25.2218 5.58955 25.7696C5.5887 26.5039 5.29395 27.2078 4.77001 27.727C4.24608 28.2462 3.5357 28.5383 2.79474 28.5391ZM2.79474 24.2403C2.48954 24.2404 2.19123 24.3302 1.93752 24.4983C1.68381 24.6664 1.4861 24.9053 1.36938 25.1847C1.25266 25.4642 1.22223 25.7716 1.28183 26.0683C1.34144 26.3649 1.48845 26.6373 1.70429 26.8512C1.92013 27.065 2.19512 27.2106 2.49446 27.2695C2.79381 27.3285 3.10403 27.2982 3.38599 27.1824C3.66795 27.0667 3.90891 26.8707 4.07846 26.6192C4.24801 26.3677 4.33851 26.072 4.33851 25.7696C4.33752 25.3642 4.17452 24.9758 3.88519 24.6893C3.59587 24.4028 3.20377 24.2415 2.79474 24.2408V24.2403Z" fill="#636466"/>
<path id="Trazado 2581" d="M38.9937 42.9941C38.595 42.994 38.2054 42.8768 37.874 42.6572C37.5426 42.4376 37.2843 42.1256 37.1318 41.7606C36.9793 41.3956 36.9395 40.994 37.0173 40.6066C37.0951 40.2191 37.2872 39.8633 37.5691 39.584C37.851 39.3047 38.2102 39.1145 38.6012 39.0374C38.9922 38.9604 39.3974 39 39.7657 39.1512C40.134 39.3024 40.4488 39.5584 40.6702 39.8869C40.8917 40.2154 41.0099 40.6016 41.0099 40.9966C41.0093 41.5263 40.7967 42.0341 40.4187 42.4086C40.0407 42.7831 39.5282 42.9937 38.9937 42.9941ZM38.9937 40.2399C38.8427 40.24 38.6951 40.2844 38.5696 40.3677C38.4441 40.4509 38.3463 40.5691 38.2886 40.7074C38.2309 40.8457 38.2158 40.9978 38.2454 41.1446C38.2749 41.2913 38.3476 41.4261 38.4545 41.5319C38.5613 41.6376 38.6974 41.7097 38.8455 41.7388C38.9936 41.768 39.147 41.753 39.2865 41.6957C39.426 41.6384 39.5453 41.5414 39.6292 41.417C39.7131 41.2925 39.7578 41.1462 39.7578 40.9966C39.7577 40.7959 39.6771 40.6034 39.5338 40.4615C39.3905 40.3196 39.1963 40.2399 38.9937 40.2399Z" fill="#636466"/>
<g id="Grupo 1970">
<path id="Trazado 2585" d="M40.5929 33.1608H38.1732C38.0035 33.1691 37.8335 33.1477 37.6747 33.098C37.5159 33.0483 37.3718 32.9714 37.2521 32.8726C37.0456 32.6732 36.9389 32.4172 36.9535 32.156V29.1333C36.9535 29.0856 36.9766 29.0398 37.0179 29.006C37.0591 28.9722 37.115 28.9532 37.1734 28.9532C37.2317 28.9532 37.2876 28.9722 37.3289 29.006C37.3701 29.0398 37.3933 29.0856 37.3933 29.1333V32.1615C37.3933 32.1662 37.3933 32.1711 37.3933 32.1757C37.3851 32.3405 37.4507 32.5021 37.5777 32.6301C37.6572 32.6908 37.7512 32.7373 37.8537 32.7667C37.9563 32.796 38.0652 32.8075 38.1735 32.8005H40.5933C40.6516 32.8005 40.7076 32.8195 40.7488 32.8533C40.7901 32.8871 40.8132 32.9329 40.8132 32.9807C40.8132 33.0284 40.7901 33.0743 40.7488 33.108C40.7076 33.1418 40.6516 33.1608 40.5933 33.1608H40.5929Z" fill="#C8C8C8"/>
</g>
<g id="Grupo 1971">
<path id="Trazado 2586" d="M65.4583 27.7506C65.4072 27.7506 65.3582 27.6853 65.3221 27.569C65.2859 27.4528 65.2656 27.2951 65.2656 27.1307V19.2977C65.2656 19.1332 65.2859 18.9755 65.3221 18.8592C65.3583 18.7429 65.4073 18.6775 65.4584 18.6775C65.5096 18.6775 65.5586 18.7429 65.5947 18.8592C65.6309 18.9755 65.6512 19.1332 65.6512 19.2977V27.1307C65.6512 27.2951 65.6308 27.4528 65.5947 27.569C65.5585 27.6853 65.5095 27.7506 65.4583 27.7506Z" fill="#C8C8C8"/>
</g>
<g id="Grupo 1972">
<path id="Trazado 2587" d="M60.427 19.962H57.1651C56.9991 19.962 56.8398 19.9365 56.7224 19.8912C56.605 19.8458 56.5391 19.7843 56.5391 19.7202C56.5391 19.6561 56.605 19.5946 56.7224 19.5492C56.8398 19.5039 56.9991 19.4784 57.1651 19.4784H60.427C60.593 19.4784 60.7523 19.5039 60.8697 19.5492C60.9871 19.5946 61.0531 19.6561 61.0531 19.7202C61.0531 19.7843 60.9871 19.8458 60.8697 19.8912C60.7523 19.9365 60.593 19.962 60.427 19.962Z" fill="#C8C8C8"/>
</g>
<g id="Grupo 1973">
<path id="Trazado 2587_2" d="M88.4612 33.2901H85.1993C85.0333 33.2901 84.874 33.2646 84.7566 33.2193C84.6392 33.174 84.5732 33.1125 84.5732 33.0483C84.5732 32.9842 84.6392 32.9227 84.7566 32.8773C84.874 32.832 85.0333 32.8065 85.1993 32.8065H88.4612C88.6272 32.8065 88.7865 32.832 88.9039 32.8773C89.0213 32.9227 89.0872 32.9842 89.0872 33.0483C89.0872 33.1125 89.0213 33.174 88.9039 33.2193C88.7865 33.2646 88.6272 33.2901 88.4612 33.2901Z" fill="#C8C8C8"/>
</g>
<g id="Grupo 1974">
<path id="Trazado 2589" d="M9.07127 19.6418H1.35303C1.18713 19.6418 1.02802 19.5765 0.910713 19.4603C0.793409 19.344 0.727539 19.1863 0.727539 19.022C0.727539 18.8576 0.793409 18.6999 0.910713 18.5836C1.02802 18.4674 1.18713 18.4021 1.35303 18.4021H9.07237C9.23827 18.4021 9.39732 18.4674 9.51462 18.5836C9.63193 18.6999 9.69786 18.8576 9.69786 19.022C9.69786 19.1863 9.63193 19.344 9.51462 19.4603C9.39732 19.5765 9.23827 19.6418 9.07237 19.6418H9.07127Z" fill="#636466"/>
</g>
<g id="Grupo 1975">
<path id="Trazado 2590" d="M0.690916 36.9699C0.525023 36.9699 0.365908 36.9045 0.248604 36.7883C0.1313 36.6721 0.0654297 36.5144 0.0654297 36.35C0.0654297 36.1856 0.1313 36.0279 0.248604 35.9117C0.365908 35.7954 0.525023 35.7301 0.690916 35.7301L8.38996 35.7233C8.55585 35.7233 8.71496 35.7886 8.83227 35.9048C8.94957 36.0211 9.01544 36.1787 9.01544 36.3431C9.01544 36.5075 8.94957 36.6652 8.83227 36.7814C8.71496 36.8977 8.55585 36.963 8.38996 36.963L0.690916 36.9699Z" fill="#636466"/>
</g>
<g id="Grupo 1976">
<path id="Trazado 2591" d="M44.9112 43.0606C44.7451 43.0606 44.5859 42.9952 44.4685 42.8788C44.3511 42.7625 44.2852 42.6047 44.2852 42.4402C44.2852 42.2756 44.3511 42.1178 44.4685 42.0015C44.5859 41.8851 44.7451 41.8198 44.9112 41.8198L47.7598 41.8161C47.9258 41.8161 48.085 41.8814 48.2024 41.9978C48.3198 42.1141 48.3858 42.2719 48.3858 42.4365C48.3858 42.601 48.3198 42.7588 48.2024 42.8751C48.085 42.9915 47.9258 43.0569 47.7598 43.0569L44.9112 43.0606Z" fill="#636466"/>
</g>
<g id="Grupo 1977">
<path id="Trazado 2592" d="M74.7906 43.058H50.2046C50.0387 43.058 49.8796 42.9927 49.7623 42.8764C49.645 42.7602 49.5791 42.6025 49.5791 42.4381C49.5791 42.2737 49.645 42.116 49.7623 41.9998C49.8796 41.8836 50.0387 41.8182 50.2046 41.8182H74.7906C74.9565 41.8182 75.1156 41.8836 75.2329 41.9998C75.3502 42.116 75.4161 42.2737 75.4161 42.4381C75.4161 42.6025 75.3502 42.7602 75.2329 42.8764C75.1156 42.9927 74.9565 43.058 74.7906 43.058Z" fill="#636466"/>
</g>
<g id="Grupo 1978">
<path id="Trazado 2593" d="M13.4684 40.1985H3.28812C3.12208 40.1985 2.96288 40.1332 2.84548 40.0168C2.72807 39.9005 2.66211 39.7427 2.66211 39.5782C2.66211 39.4136 2.72807 39.2558 2.84548 39.1395C2.96288 39.0231 3.12208 38.9578 3.28812 38.9578H13.4684C13.6344 38.9578 13.7936 39.0231 13.911 39.1395C14.0284 39.2558 14.0944 39.4136 14.0944 39.5782C14.0944 39.7427 14.0284 39.9005 13.911 40.0168C13.7936 40.1332 13.6344 40.1985 13.4684 40.1985Z" fill="#636466"/>
</g>
<g id="Grupo 1979">
<path id="Trazado 2594" d="M14.6939 16.8009H4.14944C3.98341 16.8009 3.82421 16.7356 3.70681 16.6192C3.5894 16.5029 3.52344 16.3451 3.52344 16.1805C3.52344 16.016 3.5894 15.8582 3.70681 15.7419C3.82421 15.6255 3.98341 15.5601 4.14944 15.5601H14.6939C14.86 15.5601 15.0192 15.6255 15.1366 15.7419C15.254 15.8582 15.3199 16.016 15.3199 16.1805C15.3199 16.3451 15.254 16.5029 15.1366 16.6192C15.0192 16.7356 14.86 16.8009 14.6939 16.8009Z" fill="#636466"/>
</g>
<g id="Grupo 1980">
<path id="Trazado 2595" d="M33.1548 2.318H17.5498C17.3838 2.318 17.2246 2.25264 17.1072 2.13629C16.9898 2.01995 16.9238 1.86215 16.9238 1.69761C16.9238 1.53308 16.9898 1.37528 17.1072 1.25893C17.2246 1.14259 17.3838 1.07722 17.5498 1.07722H33.1548C33.3209 1.07722 33.4801 1.14259 33.5975 1.25893C33.7149 1.37528 33.7809 1.53308 33.7809 1.69761C33.7809 1.86215 33.7149 2.01995 33.5975 2.13629C33.4801 2.25264 33.3209 2.318 33.1548 2.318Z" fill="#636466"/>
</g>
<g id="Grupo 1981">
<path id="Trazado 2596" d="M24.9376 4.83343H19.2511C19.085 4.83343 18.9258 4.76807 18.8084 4.65172C18.691 4.53538 18.625 4.37757 18.625 4.21303C18.625 4.0485 18.691 3.8907 18.8084 3.77436C18.9258 3.65801 19.085 3.59265 19.2511 3.59265H24.9376C25.1036 3.59265 25.2629 3.65801 25.3803 3.77436C25.4977 3.8907 25.5637 4.0485 25.5637 4.21303C25.5637 4.37757 25.4977 4.53538 25.3803 4.65172C25.2629 4.76807 25.1036 4.83343 24.9376 4.83343Z" fill="#636466"/>
</g>
<g id="Grupo 1982">
<path id="Trazado 2597" d="M18.622 7.49923H16.7765C16.6104 7.49923 16.4512 7.43387 16.3338 7.31753C16.2164 7.20118 16.1504 7.04339 16.1504 6.87885C16.1504 6.71431 16.2164 6.55652 16.3338 6.44017C16.4512 6.32383 16.6104 6.25846 16.7765 6.25846H18.622C18.788 6.25846 18.9473 6.32383 19.0647 6.44017C19.1821 6.55652 19.2481 6.71431 19.2481 6.87885C19.2481 7.04339 19.1821 7.20118 19.0647 7.31753C18.9473 7.43387 18.788 7.49923 18.622 7.49923Z" fill="#636466"/>
</g>
<g id="Grupo 1983">
<path id="Trazado 2598" d="M64.8854 40.467H58.1963C58.0303 40.467 57.871 40.4016 57.7536 40.2853C57.6362 40.1689 57.5703 40.0111 57.5703 39.8466C57.5703 39.6821 57.6362 39.5243 57.7536 39.4079C57.871 39.2916 58.0303 39.2262 58.1963 39.2262H64.8854C65.0514 39.2262 65.2107 39.2916 65.3281 39.4079C65.4455 39.5243 65.5114 39.6821 65.5114 39.8466C65.5114 40.0111 65.4455 40.1689 65.3281 40.2853C65.2107 40.4016 65.0514 40.467 64.8854 40.467Z" fill="#636466"/>
</g>
<g id="Grupo 1984">
<path id="Trazado 2600" d="M83.1104 34.3117C83.1103 32.6956 82.6266 31.1159 81.7206 29.7722C80.8145 28.4285 79.5266 27.3813 78.02 26.7629C76.5133 26.1445 74.8555 25.9827 73.256 26.298C71.6566 26.6133 70.1874 27.3916 69.0342 28.5343C67.8811 29.677 67.0958 31.133 66.7776 32.718C66.4594 34.303 66.6227 35.9459 67.2467 37.439C67.8707 38.9321 68.9275 40.2083 70.2834 41.1062C71.6393 42.0041 73.2334 42.4834 74.8642 42.4835C75.9471 42.4836 77.0195 42.2722 78.02 41.8616C79.0205 41.451 79.9296 40.849 80.6953 40.0902C81.4611 39.3314 82.0685 38.4305 82.4829 37.439C82.8973 36.4475 83.1104 35.3849 83.1104 34.3117Z" fill="#592272"/>
<path id="Trazado 2601" d="M74.8649 43.1039C73.1102 43.1039 71.395 42.5882 69.936 41.6222C68.4771 40.6562 67.34 39.2831 66.6685 37.6766C65.997 36.0702 65.8213 34.3025 66.1636 32.597C66.5059 30.8916 67.3509 29.3251 68.5916 28.0956C69.8324 26.8661 71.4131 26.0287 73.1341 25.6895C74.855 25.3503 76.6388 25.5244 78.2599 26.1898C79.881 26.8552 81.2665 27.9821 82.2414 29.4278C83.2162 30.8736 83.7365 32.5734 83.7365 34.3122C83.7338 36.6431 82.7983 38.8777 81.1351 40.5259C79.4719 42.1741 77.2169 43.1012 74.8649 43.1039ZM74.8649 26.7608C73.3577 26.7608 71.8845 27.2037 70.6313 28.0335C69.3782 28.8632 68.4015 30.0426 67.8248 31.4224C67.248 32.8023 67.0971 34.3206 67.3911 35.7854C67.6851 37.2502 68.4109 38.5958 69.4766 39.6519C70.5423 40.7079 71.9001 41.4271 73.3782 41.7185C74.8564 42.0099 76.3885 41.8603 77.7809 41.2888C79.1733 40.7172 80.3635 39.7494 81.2008 38.5075C82.0381 37.2657 82.4849 35.8057 82.4849 34.3122C82.4827 32.3101 81.6792 30.3907 80.2506 28.975C78.822 27.5594 76.8851 26.7631 74.8649 26.7608Z" fill="#BCBEC1"/>
</g>
<g id="Grupo 1985">
<path id="Trazado 2604" d="M76.9418 34.3142C76.9418 33.9075 76.8201 33.5098 76.5921 33.1716C76.364 32.8334 76.0399 32.5698 75.6606 32.4141C75.2814 32.2584 74.8641 32.2177 74.4615 32.2971C74.059 32.3764 73.6891 32.5723 73.3989 32.8599C73.1086 33.1476 72.911 33.514 72.8309 33.913C72.7508 34.312 72.7919 34.7255 72.949 35.1013C73.1061 35.4771 73.3721 35.7983 73.7134 36.0243C74.0547 36.2503 74.456 36.3709 74.8664 36.3709C75.4169 36.3709 75.9448 36.1542 76.334 35.7685C76.7232 35.3828 76.9418 34.8597 76.9418 34.3142Z" fill="#592272"/>
<path id="Trazado 2605" d="M74.866 36.9898C74.3316 36.9898 73.8092 36.8327 73.3649 36.5385C72.9206 36.2443 72.5742 35.8261 72.3697 35.3368C72.1652 34.8476 72.1117 34.3092 72.216 33.7898C72.3202 33.2704 72.5776 32.7933 72.9554 32.4188C73.3333 32.0444 73.8148 31.7893 74.3389 31.686C74.863 31.5827 75.4063 31.6357 75.9 31.8384C76.3938 32.0411 76.8158 32.3842 77.1127 32.8246C77.4096 33.2649 77.568 33.7826 77.568 34.3122C77.567 35.022 77.2821 35.7025 76.7755 36.2044C76.269 36.7064 75.5823 36.9888 74.866 36.9898ZM74.866 32.8753C74.5793 32.8753 74.2989 32.9596 74.0605 33.1175C73.822 33.2754 73.6363 33.4998 73.5265 33.7623C73.4168 34.0249 73.388 34.3138 73.444 34.5925C73.4999 34.8712 73.638 35.1272 73.8408 35.3282C74.0436 35.5291 74.3019 35.666 74.5832 35.7214C74.8644 35.7768 75.1559 35.7484 75.4209 35.6396C75.6858 35.5309 75.9122 35.3467 76.0716 35.1104C76.2309 34.8741 76.3159 34.5963 76.3159 34.3122C76.3154 33.9313 76.1624 33.5661 75.8907 33.2968C75.6189 33.0275 75.2504 32.8759 74.866 32.8753Z" fill="#BCBEC1"/>
</g>
<path id="Trazado 2606" d="M61.3435 67.2061C63.2472 67.2058 65.105 66.6274 66.6669 65.5489C68.2288 64.4705 69.4197 62.9436 70.0793 61.174L62.0271 61.1608L59.2473 59.5702V56.39L62.0266 54.7994L70.0787 54.7862C69.4283 53.0403 68.2604 51.5301 66.7284 50.4537C65.1963 49.3773 63.3717 48.7851 61.4939 48.7549C59.6161 48.7246 57.773 49.2576 56.2064 50.284C54.6398 51.3104 53.423 52.7821 52.7156 54.5061H23.4226C22.6989 53.5629 21.6956 52.8676 20.5532 52.5176C19.4109 52.1676 18.1867 52.1804 17.0521 52.5542C15.9175 52.928 14.9292 53.6442 14.2257 54.6024C13.5223 55.5605 13.1388 56.7127 13.1291 57.8976C13.1194 59.0825 13.4839 60.2407 14.1715 61.2101C14.8591 62.1795 15.8355 62.9114 16.9638 63.3035C18.0922 63.6956 19.316 63.7281 20.4639 63.3966C21.6119 63.0651 22.6265 62.386 23.3656 61.4546H52.7177C53.4151 63.1548 54.6084 64.6102 56.1449 65.6348C57.6815 66.6593 59.4915 67.2064 61.3435 67.2061ZM15.7508 57.942C15.7509 57.3314 15.9337 56.7345 16.2761 56.2268C16.6186 55.7191 17.1052 55.3234 17.6745 55.0898C18.2439 54.8562 18.8703 54.7951 19.4747 54.9143C20.0791 55.0335 20.6342 55.3276 21.0699 55.7595C21.5056 56.1913 21.8023 56.7415 21.9225 57.3404C22.0427 57.9393 21.981 58.5601 21.7451 59.1243C21.5093 59.6885 21.1099 60.1707 20.5975 60.5099C20.0851 60.8492 19.4828 61.0303 18.8665 61.0303C18.4572 61.0305 18.0518 60.9507 17.6736 60.7956C17.2954 60.6405 16.9518 60.413 16.6623 60.1262C16.3729 59.8394 16.1432 59.4989 15.9867 59.1241C15.8301 58.7494 15.7506 58.3477 15.7508 57.942Z" fill="#592272"/>
<path id="Trazado 2607" d="M46.7242 58.8809H40.8052C40.6807 58.8809 40.5614 58.8606 40.4734 58.8245C40.3853 58.7883 40.3359 58.7393 40.3359 58.6882C40.3359 58.6371 40.3853 58.5881 40.4734 58.552C40.5614 58.5159 40.6807 58.4956 40.8052 58.4956H46.7242C46.8487 58.4956 46.9681 58.5159 47.0561 58.552C47.1441 58.5881 47.1935 58.6371 47.1935 58.6882C47.1935 58.7393 47.1441 58.7883 47.0561 58.8245C46.9681 58.8606 46.8487 58.8809 46.7242 58.8809Z" fill="#C8C8C8"/>
<path id="Trazado 2608" d="M28.172 58.7965H25.5049C25.4018 58.7965 25.3029 58.7648 25.23 58.7086C25.1572 58.6523 25.1162 58.5759 25.1162 58.4963C25.1162 58.4737 25.1278 58.4521 25.1485 58.4361C25.1692 58.4201 25.1973 58.4111 25.2265 58.4111C25.2558 58.4111 25.2839 58.4201 25.3046 58.4361C25.3252 58.4521 25.3369 58.4737 25.3369 58.4963C25.3369 58.5307 25.3547 58.5637 25.3861 58.588C25.4176 58.6123 25.4603 58.626 25.5049 58.6261H28.172C28.2012 58.6261 28.2293 58.635 28.25 58.651C28.2707 58.667 28.2823 58.6887 28.2823 58.7113C28.2823 58.7339 28.2707 58.7555 28.25 58.7715C28.2293 58.7875 28.2012 58.7965 28.172 58.7965Z" fill="#C8C8C8"/>
<path id="Trazado 2609" d="M51.2178 57.9205C51.1889 57.9111 51.1766 57.8556 51.1834 57.7661C51.1902 57.6767 51.2156 57.5607 51.2541 57.4436C51.5543 56.5501 51.8984 55.6897 52.2611 54.926C52.2847 54.8773 52.3088 54.8353 52.3319 54.8025C52.355 54.7696 52.3767 54.7466 52.3958 54.7347C52.4149 54.7228 52.431 54.7222 52.4432 54.7331C52.4554 54.7439 52.4634 54.7659 52.4668 54.7978C52.4702 54.8297 52.4689 54.8709 52.4631 54.919C52.4572 54.9671 52.4468 55.0212 52.4325 55.0782C52.4183 55.1353 52.4004 55.1941 52.3799 55.2513C52.3594 55.3085 52.3367 55.3631 52.3131 55.4118C52.0104 56.0507 51.7231 56.7685 51.4714 57.5141C51.4524 57.5721 51.4307 57.6287 51.4076 57.6806C51.3845 57.7324 51.3604 57.7785 51.3368 57.8163C51.3132 57.854 51.2905 57.8826 51.2701 57.9005C51.2496 57.9184 51.2317 57.9251 51.2174 57.9204L51.2178 57.9205Z" fill="#C8C8C8"/>
<path id="Trazado 2611" d="M61.7961 66.1586C59.9676 66.1573 58.1989 65.513 56.8049 64.3402C56.7137 64.2594 56.6579 64.1464 56.6495 64.0254C56.6412 63.9044 56.6808 63.7849 56.76 63.6925C56.8392 63.6001 56.9518 63.5419 57.0736 63.5306C57.1955 63.5192 57.317 63.5554 57.4123 63.6316C58.6367 64.6615 60.1901 65.2274 61.7961 65.2285C61.9206 65.2285 62.04 65.2775 62.128 65.3647C62.216 65.4519 62.2654 65.5702 62.2654 65.6935C62.2654 65.8169 62.216 65.9352 62.128 66.0224C62.04 66.1096 61.9206 66.1586 61.7961 66.1586Z" fill="#C8C8C8"/>
<path id="Trazado 2612" d="M55.6581 62.7898C55.5785 62.7898 55.5002 62.7697 55.4305 62.7315C55.3609 62.6934 55.3021 62.6383 55.2598 62.5716L55.2134 62.4981C54.9797 62.1598 54.7933 61.7916 54.6593 61.4037C54.621 61.2883 54.6297 61.1627 54.6836 61.0535C54.7374 60.9444 54.8322 60.8605 54.9477 60.8197C55.0631 60.7788 55.1901 60.7843 55.3015 60.835C55.4129 60.8857 55.4999 60.9775 55.544 61.0909C55.6541 61.4152 55.8103 61.7223 56.0079 62.003L56.0548 62.0769C56.0996 62.1473 56.1244 62.2283 56.1268 62.3114C56.1292 62.3945 56.1091 62.4768 56.0686 62.5496C56.028 62.6224 55.9684 62.6831 55.8961 62.7253C55.8238 62.7676 55.742 62.7898 55.6581 62.7898Z" fill="#C8C8C8"/>
<path id="Trazado 2613" d="M32.1906 33.8909C32.1906 32.2747 31.7069 30.6947 30.8008 29.3508C29.8947 28.007 28.6067 26.9596 27.0999 26.3411C25.5931 25.7226 23.935 25.5608 22.3354 25.8762C20.7358 26.1915 19.2665 26.9699 18.1133 28.1128C16.9601 29.2557 16.1748 30.7118 15.8566 32.297C15.5385 33.8822 15.7019 35.5253 16.3261 37.0185C16.9503 38.5117 18.0073 39.7879 19.3634 40.6857C20.7196 41.5836 22.314 42.0628 23.9449 42.0627C26.1319 42.0625 28.2292 41.2015 29.7755 39.669C31.3219 38.1365 32.1906 36.0581 32.1906 33.8909Z" fill="#592272"/>
<path id="Trazado 2614" d="M23.9445 42.6831C22.1898 42.6832 20.4745 42.1677 19.0155 41.2017C17.5565 40.2357 16.4193 38.8627 15.7477 37.2562C15.0762 35.6498 14.9004 33.8821 15.2427 32.1766C15.5849 30.4712 16.4298 28.9046 17.6705 27.675C18.9112 26.4454 20.492 25.6081 22.213 25.2688C23.9339 24.9295 25.7178 25.1036 27.3389 25.769C28.96 26.4344 30.3455 27.5613 31.3204 29.007C32.2953 30.4528 32.8156 32.1526 32.8156 33.8915C32.8128 36.2222 31.8773 38.4567 30.2143 40.1048C28.5512 41.753 26.2964 42.6802 23.9445 42.6831ZM23.9445 26.3406C22.4375 26.3407 20.9644 26.7836 19.7114 27.6134C18.4585 28.4432 17.4819 29.6225 16.9053 31.0022C16.3287 32.382 16.1778 33.9002 16.4719 35.3649C16.766 36.8296 17.4917 38.175 18.5573 39.2309C19.623 40.2869 20.9807 41.006 22.4587 41.2973C23.9368 41.5886 25.4687 41.439 26.861 40.8675C28.2533 40.296 29.4433 39.3282 30.2805 38.0864C31.1178 36.8447 31.5646 35.3849 31.5646 33.8915C31.5624 31.8895 30.7588 29.9701 29.3302 28.5545C27.9016 27.1389 25.9647 26.3427 23.9445 26.3406Z" fill="#C8C8C8"/>
<path id="Trazado 2617" d="M26.1344 34.3116C26.1344 33.9331 26.0211 33.563 25.8088 33.2483C25.5966 32.9335 25.295 32.6882 24.942 32.5433C24.5891 32.3985 24.2008 32.3606 23.8261 32.4344C23.4515 32.5083 23.1073 32.6906 22.8372 32.9582C22.5671 33.2259 22.3831 33.567 22.3086 33.9382C22.2341 34.3095 22.2723 34.6944 22.4185 35.0441C22.5647 35.3938 22.8123 35.6928 23.1299 35.9031C23.4475 36.1134 23.8209 36.2257 24.2029 36.2257C24.7151 36.2257 25.2064 36.024 25.5686 35.665C25.9308 35.3061 26.1344 34.8193 26.1344 34.3116Z" fill="#592272"/>
<path id="Trazado 2618" d="M23.957 36.4258C23.4508 36.4258 22.9559 36.2771 22.535 35.9984C22.1141 35.7197 21.786 35.3235 21.5923 34.86C21.3986 34.3965 21.3479 33.8865 21.4466 33.3945C21.5454 32.9025 21.7892 32.4505 22.1472 32.0958C22.5051 31.741 22.9612 31.4994 23.4577 31.4016C23.9542 31.3037 24.4689 31.3539 24.9366 31.5459C25.4043 31.7379 25.804 32.063 26.0853 32.4801C26.3665 32.8973 26.5167 33.3877 26.5167 33.8893C26.5167 34.5621 26.247 35.2072 25.767 35.6829C25.287 36.1586 24.6359 36.4258 23.957 36.4258ZM23.957 32.5973C23.6987 32.5973 23.4462 32.6732 23.2314 32.8154C23.0167 32.9577 22.8493 33.1598 22.7505 33.3963C22.6516 33.6328 22.6258 33.8931 22.6763 34.1441C22.7267 34.3952 22.8511 34.6258 23.0338 34.8067C23.2165 34.9877 23.4492 35.1109 23.7026 35.1608C23.956 35.2107 24.2185 35.185 24.4572 35.0869C24.6958 34.9889 24.8997 34.8229 25.0431 34.6101C25.1866 34.3972 25.2631 34.1469 25.263 33.8909C25.2632 33.5475 25.1256 33.2181 24.8807 32.9751C24.6358 32.7321 24.3036 32.5955 23.957 32.5952V32.5973Z" fill="#C8C8C8"/>
<ellipse id="Ellipse 12" cx="85.8583" cy="23.8154" rx="1.28703" ry="1.28445" fill="#D9D9D9"/>
</g>
</svg>
