<svg width="239" height="33" viewBox="0 0 239 33" fill="none" xmlns="http://www.w3.org/2000/svg">
<g id="Group 24120">
<g id="Group">
<path id="Vector" fill-rule="evenodd" clip-rule="evenodd" d="M73.6266 7.22702C75.2334 7.22702 76.5481 7.61195 77.5246 8.34594C78.4971 9.13212 78.9469 10.0879 78.9469 11.3634C78.9469 12.639 78.501 13.6861 77.4746 14.4234C76.4213 15.1573 74.9989 15.4933 73.0999 15.4933H70.0207V13.2131H73.1537C74.9989 13.2131 75.9177 12.5672 75.9177 11.4059C75.9177 10.1303 74.9413 9.50401 72.9923 9.50401H70.0169V7.22375H73.6227L73.6266 7.22702ZM70.0207 15.4966V13.2164H64.0968V9.50727H70.0207V7.22702H61.2021V20.2985H64.1007V15.4966H70.0246H70.0207Z" fill="#231F20"/>
<path id="Vector_2" fill-rule="evenodd" clip-rule="evenodd" d="M73.6265 7.22702C75.2334 7.22702 76.5481 7.61195 77.5245 8.34594C78.4971 9.13212 78.9469 10.0879 78.9469 11.3634C78.9469 12.639 78.5009 13.6861 77.4745 14.4234C76.4212 15.1573 74.9989 15.4933 73.0999 15.4933H70.0207V13.2131H73.1537C74.9989 13.2131 75.9177 12.5672 75.9177 11.4059C75.9177 10.1303 74.9412 9.50401 72.9922 9.50401H70.0168V7.22375H73.6227L73.6265 7.22702ZM70.0207 15.4966H64.0968V20.2985H61.1982V7.22702H70.0168V9.50727H64.0929V13.2164H70.0168V15.4966H70.0207Z" fill="#231F20"/>
<path id="Vector_3" fill-rule="evenodd" clip-rule="evenodd" d="M100.271 20.2973H96.8229L92.7673 15.4954H90.9797V13.2152H94.1397C95.9849 13.2152 96.8998 12.5693 96.8998 11.4079C96.8998 10.1324 95.9003 9.50608 93.9551 9.50608H90.9797V7.22583H94.5856C96.2655 7.22583 97.5302 7.61076 98.4798 8.34475C99.4792 9.13093 99.979 10.0867 99.979 11.3623C99.979 13.5512 98.6643 14.8658 96.1386 15.3617L100.271 20.2973ZM90.9797 15.4954V13.2152H85.1366V9.50608H90.9797V7.22583H82.1035V20.2973H85.1327V15.4954H90.9759H90.9797Z" fill="#231F20"/>
<path id="Vector_4" fill-rule="evenodd" clip-rule="evenodd" d="M100.27 20.2973H96.822L92.7664 15.4954H91.0057V13.2152H94.1388C95.984 13.2152 96.8989 12.5693 96.8989 11.4079C96.8989 10.1324 95.8994 9.50608 93.9542 9.50608H91.0057V7.22583H94.5885C96.2684 7.22583 97.5332 7.61076 98.4827 8.34475C99.4822 9.13093 99.9819 10.0867 99.9819 11.3623C99.9819 13.5512 98.6672 14.8658 96.1416 15.3617L100.274 20.2973H100.27ZM91.0057 15.4954H85.1357V20.2973H82.1064V7.22583H91.0057V9.50608H85.1357V13.2152H91.0057V15.4954Z" fill="#231F20"/>
<path id="Vector_5" fill-rule="evenodd" clip-rule="evenodd" d="M121.171 20.2973H104.557V7.22583H120.622V9.50608H107.536V12.3898H116.643V14.6668H107.536V18.0203H121.171V20.2973Z" fill="#231F20"/>
<path id="Vector_6" fill-rule="evenodd" clip-rule="evenodd" d="M132.811 18.066L139.762 7.22583H143.079L134.549 20.2973H131.101L122.57 7.22583H125.888L132.811 18.066Z" fill="#231F20"/>
<path id="Vector_7" d="M148.842 7.22583H145.812V20.2973H148.842V7.22583Z" fill="#231F20"/>
<path id="Vector_8" fill-rule="evenodd" clip-rule="evenodd" d="M168.09 10.4231C166.091 9.55207 163.904 9.12799 161.559 9.12799C158.133 9.12799 156.396 9.65972 156.396 10.6677C156.396 11.3169 157.03 11.6953 158.345 11.9008C160.082 11.9889 161.847 12.1455 163.611 12.2792C166.141 12.4815 167.928 12.8827 169.012 13.4601C170.143 14.0441 170.773 14.9607 170.773 16.2069C170.773 17.6161 170.035 18.6894 168.559 19.4691C167.056 20.2552 164.949 20.6565 162.135 20.6565C158.133 20.6565 154.977 19.8507 152.605 18.311L154.216 16.5037C156.35 17.776 158.983 18.3991 162.085 18.3991C163.796 18.3991 165.164 18.2001 166.091 17.8184C167.063 17.4824 167.536 16.9474 167.536 16.2982C167.536 15.6491 166.96 15.1565 165.799 14.8661C165.111 14.7096 164.138 14.6247 162.773 14.5791C160.586 14.4682 159.271 14.4225 158.822 14.3768C156.876 14.2431 155.477 13.8418 154.554 13.3068C153.659 12.7686 153.182 11.9889 153.182 10.9613C153.182 9.70539 153.943 8.72348 155.369 7.98623C156.873 7.27182 158.871 6.86731 161.501 6.86731C164.949 6.86731 167.79 7.49365 169.924 8.76915L168.082 10.4198L168.09 10.4231Z" fill="#231F20"/>
<path id="Vector_9" fill-rule="evenodd" clip-rule="evenodd" d="M193.942 13.75C193.942 15.8965 192.862 17.6156 190.682 18.9792C188.841 20.0982 186.546 20.6984 183.805 20.6984H183.728V18.3953C185.862 18.3953 187.576 17.9745 188.841 17.0807C190.102 16.2521 190.786 15.1136 190.786 13.75C190.786 12.3897 190.102 11.2479 188.787 10.3802C187.526 9.50591 185.815 9.06225 183.732 9.06225V6.73959H183.809C186.446 6.73959 188.733 7.36266 190.686 8.52725C192.869 9.89084 193.946 11.61 193.946 13.7532L193.942 13.75ZM183.728 6.73959V9.06225C181.675 9.06225 179.965 9.50591 178.65 10.3802C177.331 11.3197 176.701 12.3929 176.701 13.75C176.701 15.107 177.331 16.2553 178.65 17.0807C179.915 17.9777 181.625 18.3953 183.728 18.3953V20.6984C180.991 20.6984 178.704 20.0982 176.858 18.9792C174.675 17.6156 173.595 15.8965 173.595 13.75C173.595 11.6035 174.671 9.84191 176.858 8.52399C178.757 7.36266 181.045 6.77874 183.728 6.73633V6.73959Z" fill="#231F20"/>
<path id="Vector_10" fill-rule="evenodd" clip-rule="evenodd" d="M193.942 13.7498C193.942 15.8963 192.862 17.6154 190.682 18.979C188.841 20.0979 186.546 20.6982 183.805 20.6982H183.728V18.3951C185.862 18.3951 187.576 17.9743 188.841 17.0804C190.102 16.2519 190.786 15.1134 190.786 13.7498C190.786 12.3895 190.102 11.2477 188.787 10.38C187.526 9.5057 185.815 9.06204 183.732 9.06204V6.73938H183.809C186.446 6.73938 188.733 7.36245 190.686 8.52704C192.869 9.89063 193.946 11.6098 193.946 13.753L193.942 13.7498ZM183.728 20.7014C180.96 20.6786 178.704 20.1012 176.858 18.9823C174.675 17.6187 173.595 15.8995 173.595 13.753C173.595 11.6065 174.671 9.84496 176.858 8.52704C178.757 7.36571 181.072 6.73938 183.728 6.73938V9.06204C181.675 9.06204 179.965 9.5057 178.65 10.38C177.331 11.3195 176.701 12.3927 176.701 13.7498C176.701 15.1068 177.331 16.2551 178.65 17.0804C179.915 17.9775 181.625 18.3951 183.728 18.3951V20.6982V20.7014Z" fill="#231F20"/>
<path id="Vector_11" fill-rule="evenodd" clip-rule="evenodd" d="M216.454 20.2973H212.975L208.95 15.4954H207.19V13.2152H210.269C212.11 13.2152 213.033 12.5693 213.033 11.4079C213.033 10.1324 212.06 9.50608 210.111 9.50608H207.19V7.22583H210.742C212.399 7.22583 213.721 7.61076 214.69 8.34475C215.666 9.13093 216.112 10.0867 216.112 11.3623C216.112 13.5512 214.851 14.8658 212.295 15.3617L216.454 20.2973ZM207.186 15.4954V13.2152H201.289V9.50608H207.186V7.22583H198.313V20.2973H201.285V15.4954H207.182H207.186Z" fill="#231F20"/>
<path id="Vector_12" fill-rule="evenodd" clip-rule="evenodd" d="M216.454 20.2973H212.975L208.95 15.4954H207.163V13.2152H210.269C212.11 13.2152 213.033 12.5693 213.033 11.4079C213.033 10.1324 212.06 9.50608 210.111 9.50608H207.163V7.22583H210.742C212.399 7.22583 213.721 7.61076 214.69 8.34475C215.666 9.13093 216.112 10.0867 216.112 11.3623C216.112 13.5512 214.851 14.8658 212.295 15.3617L216.454 20.2973ZM207.159 15.4954H201.285V20.2973H198.313V7.22583H207.159V9.50608H201.285V13.2152H207.159V15.4954Z" fill="#231F20"/>
<path id="Vector_13" fill-rule="evenodd" clip-rule="evenodd" d="M235.67 20.2973H238.992L230.565 7.22583H226.825L218.402 20.2973H231.826L230.277 18.0203H223.223L228.72 9.3495L235.67 20.2973Z" fill="#231F20"/>
</g>
<g id="Group_2">
<path id="Vector_14" fill-rule="evenodd" clip-rule="evenodd" d="M64.6147 27.8525L64.2726 28.2635C64.0804 28.1592 63.8882 28.0809 63.6883 28.0352C63.4961 27.9765 63.3039 27.9536 63.1117 27.9536C62.7964 27.9536 62.5312 28.0156 62.3121 28.1592C62.0968 28.3223 61.9969 28.505 61.9969 28.7366C61.9969 28.8377 62.0199 28.9421 62.0468 29.0236C62.0968 29.1085 62.1429 29.1867 62.2429 29.2487C62.339 29.3727 62.6311 29.4966 63.1117 29.6793C63.3039 29.7609 63.473 29.8196 63.596 29.862C63.9382 29.9892 64.2034 30.1719 64.3726 30.397C64.5648 30.6025 64.634 30.8472 64.634 31.1375C64.634 31.5485 64.4648 31.878 64.1035 32.1651C63.7652 32.4326 63.3039 32.5566 62.7734 32.5566C62.5081 32.5566 62.2429 32.537 61.9738 32.4554C61.7355 32.3935 61.4664 32.2891 61.1973 32.1488L61.4664 31.6953C61.7316 31.8193 61.9507 31.9204 62.1429 31.9824C62.3351 32.0248 62.5312 32.0672 62.6773 32.0672C63.0386 32.0672 63.3039 31.9824 63.5499 31.7997C63.769 31.6171 63.8882 31.3887 63.8882 31.1212C63.8882 31.0201 63.8613 30.9157 63.7883 30.8113C63.7421 30.7297 63.6691 30.6286 63.5499 30.5634C63.3808 30.4427 63.0156 30.2763 62.5081 30.0708C62.3159 29.9892 62.1929 29.9468 62.0737 29.9044C61.8316 29.8033 61.6393 29.6369 61.4933 29.4542C61.3741 29.2716 61.3011 29.0628 61.3011 28.8377C61.3011 28.4038 61.4433 28.0776 61.7585 27.8297C62.0737 27.585 62.5081 27.4611 63.0655 27.4611C63.3308 27.4611 63.5999 27.5067 63.8421 27.5654C64.1073 27.6274 64.3495 27.7286 64.6186 27.8525H64.6147Z" fill="#231F20"/>
<path id="Vector_15" fill-rule="evenodd" clip-rule="evenodd" d="M69.7465 27.5659H72.7949V28.0813H70.45L70.4231 29.6798H72.6758V30.1952H70.4L70.3731 31.9633H72.7949L72.7757 32.4559H69.6504L69.7465 27.5659Z" fill="#231F20"/>
<path id="Vector_16" fill-rule="evenodd" clip-rule="evenodd" d="M82.4327 27.8298L82.1636 28.2832C81.8984 28.1593 81.6562 28.1006 81.4178 28.0321C81.1718 27.9733 80.9527 27.9505 80.7374 27.9505C80.0378 27.9505 79.4535 28.156 78.9922 28.5247C78.5578 28.9194 78.3117 29.4315 78.3117 30.0252C78.3117 30.619 78.5309 31.1148 78.9653 31.4834C79.3996 31.8749 79.934 32.0608 80.6106 32.0608C80.7797 32.0608 80.9488 32.038 81.168 32.0184C81.3602 31.9956 81.5793 31.9401 81.8215 31.8749L81.8715 29.8001H82.548L82.4981 32.2044C82.1828 32.3283 81.8945 32.4099 81.5793 32.4719C81.2679 32.5338 80.9489 32.5534 80.6144 32.5534C80.18 32.5534 79.7918 32.511 79.4765 32.4295C79.1382 32.3283 78.8499 32.2044 78.5808 32.0217C78.2425 31.7738 77.9773 31.4867 77.8043 31.1376C77.6121 30.8082 77.5391 30.4428 77.5391 30.0481C77.5391 29.6534 77.6352 29.2456 77.8543 28.877C78.0734 28.5279 78.3886 28.2213 78.8 27.9538C79.0383 27.7907 79.3343 27.6667 79.6457 27.5851C79.9378 27.5068 80.2761 27.4612 80.6375 27.4612C80.9527 27.4612 81.2679 27.5068 81.5562 27.5656C81.8484 27.608 82.1367 27.7058 82.4327 27.8298Z" fill="#231F20"/>
<path id="Vector_17" fill-rule="evenodd" clip-rule="evenodd" d="M87.8797 27.5659H88.6563L88.5832 30.7531V30.7889C88.5832 31.1576 88.7293 31.4675 89.0215 31.6926C89.3098 31.9177 89.7211 32.0416 90.2093 32.0416C90.7629 32.0416 91.1512 31.9013 91.4202 31.6306C91.6855 31.3631 91.8085 30.9357 91.8277 30.3388L91.8815 27.5692H92.6273L92.5543 30.4856C92.5312 31.1641 92.3352 31.6762 91.9507 32.0057C91.5394 32.358 90.982 32.5407 90.2324 32.5407C89.4328 32.5407 88.8293 32.3711 88.4141 32.0253C88.0297 31.6958 87.8105 31.2065 87.8105 30.5475V30.4627L87.8797 27.5692V27.5659Z" fill="#231F20"/>
<path id="Vector_18" fill-rule="evenodd" clip-rule="evenodd" d="M99.5963 27.5652C99.9115 27.5652 100.154 27.6076 100.35 27.65C100.565 27.6891 100.734 27.7707 100.884 27.8914C101.053 28.0186 101.195 28.1621 101.269 28.3252C101.365 28.5079 101.415 28.6971 101.415 28.8994C101.415 29.2517 101.292 29.5388 101.03 29.7475C100.788 29.9726 100.423 30.1162 99.9384 30.1977C100.108 30.2597 100.231 30.338 100.377 30.4456C100.496 30.5239 100.642 30.6707 100.788 30.8338L102.041 32.2725L101.465 32.6215L99.9615 30.8762C99.8423 30.7327 99.7193 30.6087 99.5963 30.5239V29.8911C99.8885 29.8454 100.127 29.7639 100.296 29.6627C100.538 29.4996 100.684 29.2745 100.684 28.945C100.684 28.658 100.565 28.4101 100.35 28.2665C100.181 28.1426 99.9115 28.0577 99.5963 28.0382V27.5684V27.5652ZM97.8318 27.5652H99.5963V28.0349H98.5584L98.5084 29.9074H99.185C99.3311 29.9074 99.4771 29.8878 99.5963 29.8878V30.5207C99.5502 30.5011 99.5233 30.4815 99.5002 30.4815C99.3311 30.4 99.1388 30.3576 98.8967 30.3576H98.5122L98.4623 32.4519H97.7588L97.8318 27.5619V27.5652Z" fill="#231F20"/>
<path id="Vector_19" fill-rule="evenodd" clip-rule="evenodd" d="M109.623 27.4826C110.084 27.4826 110.468 27.5282 110.811 27.6294C111.176 27.7305 111.464 27.8936 111.729 28.1024C112.044 28.3242 112.287 28.6145 112.456 28.9636C112.629 29.2931 112.698 29.6421 112.698 30.0303C112.698 30.3794 112.629 30.7317 112.456 31.0612C112.287 31.3906 112.071 31.6777 111.775 31.9028C111.51 32.1279 111.199 32.2714 110.834 32.3954C110.468 32.4965 110.084 32.5585 109.65 32.5585H109.627V32.0431C110.33 32.0431 110.86 31.8604 111.295 31.4689C111.706 31.1003 111.902 30.5882 111.902 29.9488C111.902 29.3746 111.706 28.8984 111.272 28.5265C110.857 28.1807 110.303 27.9947 109.623 27.9947V27.4793V27.4826ZM109.623 27.4826V27.998C108.946 27.998 108.412 28.1839 107.974 28.5526C107.566 28.9245 107.347 29.4203 107.347 30.014C107.347 30.6077 107.566 31.1036 107.974 31.4918C108.412 31.8637 108.946 32.0463 109.623 32.0463V32.5618C109.161 32.5618 108.754 32.4998 108.412 32.3987C108.05 32.2747 107.731 32.1083 107.443 31.8669C107.155 31.6223 106.936 31.3548 106.793 31.0449C106.647 30.7349 106.574 30.4055 106.574 30.0564C106.574 29.6878 106.647 29.3387 106.793 29.0288C106.936 28.6994 107.155 28.4319 107.443 28.1872C107.712 27.9621 108.023 27.7762 108.412 27.6718C108.777 27.5478 109.184 27.4858 109.623 27.4858V27.4826Z" fill="#231F20"/>
<path id="Vector_20" fill-rule="evenodd" clip-rule="evenodd" d="M120.855 27.8526L120.517 28.2637C120.321 28.1593 120.128 28.081 119.932 28.0353C119.74 27.9766 119.548 27.9538 119.352 27.9538C119.037 27.9538 118.771 28.0157 118.556 28.1593C118.337 28.3224 118.241 28.5051 118.241 28.7367C118.241 28.8378 118.264 28.9422 118.291 29.0238C118.337 29.1086 118.383 29.1869 118.483 29.2488C118.583 29.3728 118.871 29.4968 119.352 29.6795C119.548 29.761 119.717 29.8197 119.836 29.8621C120.178 29.9894 120.444 30.172 120.609 30.3971C120.805 30.6026 120.874 30.8473 120.874 31.1376C120.874 31.5487 120.705 31.8781 120.34 32.1652C120.002 32.4327 119.544 32.5567 119.01 32.5567C118.741 32.5567 118.475 32.5371 118.233 32.4556C117.968 32.3936 117.703 32.2892 117.434 32.1489L117.699 31.6955C117.964 31.8194 118.183 31.9206 118.375 31.9825C118.595 32.0249 118.764 32.0674 118.91 32.0674C119.271 32.0674 119.54 31.9825 119.782 31.7999C120.002 31.6172 120.125 31.3888 120.125 31.1213C120.125 31.0202 120.101 30.9158 120.025 30.8114C119.975 30.7299 119.905 30.6287 119.805 30.5635C119.613 30.4428 119.248 30.2764 118.741 30.0709C118.548 29.9894 118.425 29.9469 118.329 29.9045C118.064 29.8034 117.868 29.637 117.749 29.4544C117.603 29.2717 117.53 29.0629 117.53 28.8378C117.53 28.4039 117.676 28.0777 117.987 27.8298C118.302 27.5851 118.737 27.4612 119.298 27.4612C119.563 27.4612 119.829 27.5068 120.071 27.5656C120.336 27.6275 120.582 27.7287 120.847 27.8526H120.855Z" fill="#231F20"/>
</g>
<g id="Group_3">
<path id="Vector_21" d="M36.499 17.225C36.2953 17.3946 36.0954 17.5675 35.8955 17.7143C38.1828 18.3537 41.1274 17.7371 43.6685 16.1354C47.8471 13.4865 48.7274 9.36969 46.5631 7.27538C46.5631 7.27538 45.7559 6.6784 44.9524 7.16773C43.9452 7.82995 44.6487 8.46934 44.6487 8.46934C46.4593 10.2211 45.529 13.3169 42.5344 15.3656C40.6469 16.6476 38.4826 17.3294 36.499 17.2217V17.225Z" fill="#231F20"/>
<path id="Vector_22" d="M16.4482 18.1643C20.5769 18.4645 24.398 16.6703 26.2355 14.0214C28.123 11.3758 26.9121 8.74972 23.5677 8.14949C23.5677 8.14949 22.2837 7.95702 22.9641 7.08276C23.5177 6.42054 24.8747 6.54777 24.8747 6.54777C28.8227 7.25239 30.9101 10.6059 28.0961 14.1486C25.6551 17.2216 20.8498 19.1201 16.4482 18.1611V18.1643Z" fill="#231F20"/>
<path id="Vector_23" d="M26.435 11.8645C23.1136 8.63826 16.8476 8.57628 11.0621 11.0099C5.2766 13.4663 2.33195 17.9909 4.5193 21.1324C4.5193 21.1324 5.39962 22.2839 3.43908 23.0342C1.93216 23.6116 0.875007 22.4992 0.875007 22.4992C-1.71598 18.7836 1.52852 12.6573 9.52828 9.58103C16.5209 6.88974 23.894 7.50955 26.435 11.8678V11.8645Z" fill="#231F20"/>
<path id="Vector_24" d="M12.3191 22.777C7.96752 20.3206 6.00698 16.3506 15.087 10.9288C9.30145 12.7002 6.81042 15.9232 6.56055 18.9766V20.0629C6.73738 22.092 7.86757 23.971 9.67818 25.1878C12.6997 27.2168 17.4281 27.3016 22.2064 26.1273C22.1795 25.1878 22.0296 24.2483 21.6528 23.4555C18.0816 24.2678 14.6333 24.0982 12.3191 22.7738V22.777ZM34.2349 19.1038V19.1691C34.1849 19.9813 32.9509 21.0905 32.9509 21.0905C31.7707 21.9876 30.4368 22.7966 29.0529 23.5241C29.2028 22.6889 29.4296 21.9223 29.6833 21.3025C31.1903 20.7904 32.2743 20.1281 33.6083 19.2735L34.1849 18.8885C34.2118 18.9505 34.2349 19.0157 34.2349 19.1038Z" fill="#231F20"/>
<path id="Vector_25" d="M22.7096 10.8635C18.5078 11.2256 15.1865 13.5515 14.0294 16.3928C12.8723 19.2114 14.7828 21.5797 18.308 21.6221C18.308 21.6221 19.6419 21.6221 19.2152 22.5616C18.8384 23.2695 17.4545 23.3739 17.4545 23.3739C13.2797 23.3086 10.3082 20.4053 12.1457 16.5625C13.7295 13.2122 18.0581 10.6253 22.7134 10.8635H22.7096Z" fill="#231F20"/>
<path id="Vector_26" d="M27.3923 17.5212C36.3992 11.0099 32.7511 6.75927 26.7887 4.30612C20.8264 1.87254 11.6157 4.04841 6.28382 9.19611C6.28382 9.19611 4.31944 11.1371 2.43195 10.2433C0.998064 9.51906 2.83559 7.44759 2.83559 7.44759C9.15159 1.36039 21.4261 -2.2019 29.1029 1.51371C35.8226 4.73673 38.7134 13.4043 27.3923 17.5244V17.5212Z" fill="#231F20"/>
<path id="Vector_27" d="M43.4686 31.486C40.3241 31.3359 37.3025 31.4012 29.8064 30.4388C27.2923 29.1372 28.0457 23.373 29.1759 20.8741C31.0365 20.3196 32.1705 19.4877 33.9312 18.3753C41.4043 13.6582 42.965 6.29227 39.1132 2.55383C39.1132 2.55383 37.6562 1.46426 36.2492 2.34179C34.4386 3.51617 35.6688 4.66771 35.6688 4.66771C38.9402 7.82874 37.2295 13.3581 31.8976 17.0085C26.5388 20.6588 19.946 21.5983 15.4406 18.5221C16.7515 19.9542 18.1316 20.8937 20.069 21.3406C24.3438 22.7727 22.4601 29.6461 22.2064 30.3312C15.3907 31.8024 11.0852 31.9753 1.87834 32.6571C1.62847 32.7223 1.70151 32.9148 2.08208 32.892C4.62309 32.9148 20.1459 32.9572 46.5363 32.9996L43.4686 31.4827V31.486Z" fill="#231F20"/>
</g>
</g>
</svg>
