<svg width="72" height="72" viewBox="0 0 72 72" fill="none" xmlns="http://www.w3.org/2000/svg">
<circle cx="36" cy="36" r="36" fill="#D90B0B"/>
<path d="M35.929 38.02L23.4386 50.5699C23.3117 50.7099 23.1562 50.8208 22.9827 50.895C22.8092 50.9691 22.6219 51.0048 22.4334 50.9995C22.2449 51.0048 22.0576 50.9691 21.8841 50.895C21.7106 50.8208 21.5551 50.7099 21.4282 50.5699C21.1689 50.2961 21.017 49.9373 21.0006 49.5598C20.9953 49.3705 21.0308 49.1822 21.1046 49.0079C21.1784 48.8336 21.2887 48.6773 21.4282 48.5498L33.9185 36L21.4357 23.4502C21.2939 23.3242 21.1814 23.1684 21.1062 22.9938C21.031 22.8193 20.995 22.6303 21.0006 22.4402C20.9953 22.2508 21.0308 22.0625 21.1046 21.8882C21.1784 21.7139 21.2887 21.5577 21.4282 21.4301C21.7027 21.1682 22.0626 21.0155 22.4409 21.0005C22.6294 20.9952 22.8167 21.0309 22.9902 21.105C23.1637 21.1792 23.3192 21.2901 23.4461 21.4301L35.9365 33.98L48.4194 21.4301C48.5496 21.2943 48.7057 21.1862 48.8784 21.1124C49.0511 21.0385 49.2369 21.0005 49.4246 21.0005C49.6123 21.0005 49.7981 21.0385 49.9708 21.1124C50.1435 21.1862 50.2997 21.2943 50.4298 21.4301C50.6891 21.7039 50.841 22.0627 50.8574 22.4402C50.8627 22.6295 50.8272 22.8178 50.7534 22.9921C50.6796 23.1664 50.5693 23.3227 50.4298 23.4502L38.082 35.8568L50.5724 48.4066C50.7076 48.5374 50.8152 48.6943 50.8886 48.8678C50.9621 49.0414 51 49.228 51 49.4166C51 49.6052 50.9621 49.7919 50.8886 49.9654C50.8152 50.139 50.7076 50.2958 50.5724 50.4266C50.2999 50.6871 49.9429 50.8397 49.5671 50.8563C49.3787 50.8616 49.1913 50.8259 49.0178 50.7518C48.8443 50.6776 48.6888 50.5667 48.5619 50.4266L35.929 38.02Z" fill="white"/>
</svg>
