<svg xmlns="http://www.w3.org/2000/svg" width="1300" height="246.286" viewBox="0 0 1300 246.286">
  <g id="Grupo_2563" data-name="Grupo 2563" transform="translate(-66 -64.479)">
    <rect id="Rectángulo_2195" data-name="Rectángulo 2195" width="1300" height="245" transform="translate(66 65)" fill="#67bc47"/>
    <g id="Grupo_2557" data-name="Grupo 2557" transform="translate(177.081 -563.146)" opacity="0.138">
      <g id="Grupo_2538" data-name="Grupo 2538" transform="translate(654 613)">
        <g id="Grupo_2536" data-name="Grupo 2536" transform="translate(-746.081 15)">
          <path id="Trazado_2717" data-name="Trazado 2717" d="M407.139,236.562l-6.842-4.352-6.843,4.352-6.84-4.352-6.846,4.352-6.85-4.352-6.85,4.352" transform="translate(802.276 -107.781)" fill="none" stroke="#1d4c6a" stroke-linecap="round" stroke-linejoin="round" stroke-width="1"/>
          <path id="Trazado_2756" data-name="Trazado 2756" d="M407.139,236.562l-6.842-4.352-6.843,4.352-6.84-4.352-6.846,4.352-6.85-4.352-6.85,4.352" transform="translate(781.276 -16.312)" fill="none" stroke="#1d4c6a" stroke-linecap="round" stroke-linejoin="round" stroke-width="1"/>
          <path id="Trazado_2757" data-name="Trazado 2757" d="M407.139,236.562l-6.842-4.352-6.843,4.352-6.84-4.352-6.846,4.352-6.85-4.352-6.85,4.352" transform="translate(-122.724 -162.142)" fill="none" stroke="#1d4c6a" stroke-linecap="round" stroke-linejoin="round" stroke-width="1"/>
          <path id="Trazado_2758" data-name="Trazado 2758" d="M407.139,236.562l-6.842-4.352-6.843,4.352-6.84-4.352-6.846,4.352-6.85-4.352-6.85,4.352" transform="translate(-241.724 -85.454)" fill="none" stroke="#1d4c6a" stroke-linecap="round" stroke-linejoin="round" stroke-width="1"/>
          <path id="Trazado_2759" data-name="Trazado 2759" d="M407.139,236.562l-6.842-4.352-6.843,4.352-6.84-4.352-6.846,4.352-6.85-4.352-6.85,4.352" transform="translate(-24.724 -16.312)" fill="none" stroke="#1d4c6a" stroke-linecap="round" stroke-linejoin="round" stroke-width="1"/>
          <path id="Trazado_2760" data-name="Trazado 2760" d="M407.139,236.562l-6.842-4.352-6.843,4.352-6.84-4.352-6.846,4.352-6.85-4.352-6.85,4.352" transform="translate(145.276 -214.029)" fill="none" stroke="#1d4c6a" stroke-linecap="round" stroke-linejoin="round" stroke-width="1"/>
          <g id="Grupo_2512" data-name="Grupo 2512" transform="translate(910.741 61.659)">
            <path id="Trazado_2718" data-name="Trazado 2718" d="M237.82,213.719l2.123-1.627-.963-4.576-2.647-.828a27.967,27.967,0,0,0-3.4-6.7l1.02-2.459-3.122-3.481-2.705.608a28.254,28.254,0,0,0-6.291-4.1l-.348-2.65-4.444-1.453-2.031,1.871a27.979,27.979,0,0,0-7.5-.391l-1.627-2.123-4.577.963-.826,2.648a27.925,27.925,0,0,0-6.7,3.4l-2.458-1.02-3.481,3.122.606,2.7a28.337,28.337,0,0,0-4.095,6.293l-2.65.347-1.453,4.446,1.871,2.029a27.936,27.936,0,0,0-.392,7.5l-2.122,1.627.963,4.576,2.647.828a27.965,27.965,0,0,0,3.4,6.7l-1.02,2.459,3.122,3.481,2.7-.608a28.3,28.3,0,0,0,6.291,4.1l.348,2.648,4.444,1.455,2.031-1.871a27.979,27.979,0,0,0,7.5.391l1.627,2.123,4.577-.963.826-2.648a27.926,27.926,0,0,0,6.7-3.4l2.458,1.02,3.481-3.122-.606-2.7a28.338,28.338,0,0,0,4.095-6.293l2.65-.347,1.453-4.446-1.871-2.029A27.878,27.878,0,0,0,237.82,213.719Zm-28.046,20.716a18.454,18.454,0,1,1,18.453-18.453A18.454,18.454,0,0,1,209.774,234.435Z" transform="translate(-179.604 -185.811)" fill="none" stroke="#1d4c6a" stroke-miterlimit="10" stroke-width="0.75"/>
            <circle id="Elipse_52" data-name="Elipse 52" cx="13.896" cy="13.896" r="13.896" transform="translate(16.274 16.274)" fill="none" stroke="#1d4c6a" stroke-miterlimit="10" stroke-width="0.75"/>
          </g>
          <g id="Grupo_2513" data-name="Grupo 2513" transform="translate(1043.274 175.394)">
            <path id="Trazado_2719" data-name="Trazado 2719" d="M314.381,290.278l1.417-1.086-.642-3.053-1.767-.551a18.644,18.644,0,0,0-2.266-4.472l.68-1.641-2.083-2.322-1.8.4a18.869,18.869,0,0,0-4.2-2.733l-.232-1.768-2.965-.97-1.355,1.248a18.651,18.651,0,0,0-5.007-.26l-1.086-1.417-3.053.642-.553,1.767a18.672,18.672,0,0,0-4.472,2.266l-1.64-.68-2.324,2.083.406,1.8a18.867,18.867,0,0,0-2.733,4.2l-1.768.232-.97,2.965,1.248,1.355a18.652,18.652,0,0,0-.261,5.007l-1.416,1.086.642,3.053,1.767.551a18.6,18.6,0,0,0,2.266,4.473l-.681,1.64,2.083,2.324,1.8-.406a18.878,18.878,0,0,0,4.2,2.733l.232,1.768,2.965.97,1.355-1.248a18.592,18.592,0,0,0,5.007.26l1.086,1.417,3.053-.642.551-1.767a18.672,18.672,0,0,0,4.472-2.266l1.641.68,2.322-2.083-.4-1.8a18.837,18.837,0,0,0,2.733-4.2l1.768-.231.97-2.966-1.247-1.355A18.649,18.649,0,0,0,314.381,290.278ZM295.667,304.1a12.313,12.313,0,1,1,12.313-12.312A12.312,12.312,0,0,1,295.667,304.1Z" transform="translate(-275.537 -271.657)" fill="#1d4c6a"/>
            <path id="Trazado_2720" data-name="Trazado 2720" d="M301.941,288.79a9.272,9.272,0,1,1-9.273-9.273A9.272,9.272,0,0,1,301.941,288.79Z" transform="translate(-272.538 -268.658)" fill="none" stroke="#1d4c6a" stroke-miterlimit="10" stroke-width="0.75"/>
          </g>
          <g id="Grupo_2514" data-name="Grupo 2514" transform="translate(1167.834 47.597)">
            <path id="Trazado_2721" data-name="Trazado 2721" d="M417.645,200.089l1.894-1.452-.859-4.084-2.362-.738a24.968,24.968,0,0,0-3.03-5.981l.909-2.194-2.785-3.106-2.413.542a25.248,25.248,0,0,0-5.614-3.654l-.311-2.364-3.965-1.3-1.811,1.67a24.906,24.906,0,0,0-6.7-.35l-1.452-1.894-4.082.859-.738,2.362a24.864,24.864,0,0,0-5.981,3.03l-2.194-.909-3.107,2.785.542,2.414a25.3,25.3,0,0,0-3.654,5.614l-2.364.309-1.3,3.966,1.669,1.811a24.949,24.949,0,0,0-.348,6.695l-1.9,1.453.861,4.082,2.361.738a25.018,25.018,0,0,0,3.03,5.981l-.909,2.194,2.785,3.106,2.413-.542a25.246,25.246,0,0,0,5.614,3.654l.311,2.365,3.965,1.3,1.813-1.67a24.9,24.9,0,0,0,6.695.35l1.452,1.894,4.084-.859.738-2.362a24.916,24.916,0,0,0,5.981-3.03l2.192.91,3.107-2.787-.542-2.412a25.248,25.248,0,0,0,3.654-5.615l2.364-.311,1.3-3.966-1.669-1.811A24.949,24.949,0,0,0,417.645,200.089Zm-25.026,15.386a13.368,13.368,0,1,1,13.368-13.368A13.367,13.367,0,0,1,392.619,215.475Z" transform="translate(-365.699 -175.187)" fill="none" stroke="#1d4c6a" stroke-miterlimit="10" stroke-width="0.75"/>
            <path id="Trazado_2722" data-name="Trazado 2722" d="M392.391,196.232a5.646,5.646,0,1,1-5.646-5.646A5.647,5.647,0,0,1,392.391,196.232Z" transform="translate(-359.824 -169.312)" fill="none" stroke="#1d4c6a" stroke-miterlimit="10" stroke-width="0.75"/>
          </g>
          <g id="Grupo_2544" data-name="Grupo 2544" transform="translate(321.834 30.402)">
            <path id="Trazado_2721-2" data-name="Trazado 2721" d="M417.645,200.089l1.894-1.452-.859-4.084-2.362-.738a24.968,24.968,0,0,0-3.03-5.981l.909-2.194-2.785-3.106-2.413.542a25.248,25.248,0,0,0-5.614-3.654l-.311-2.364-3.965-1.3-1.811,1.67a24.906,24.906,0,0,0-6.7-.35l-1.452-1.894-4.082.859-.738,2.362a24.864,24.864,0,0,0-5.981,3.03l-2.194-.909-3.107,2.785.542,2.414a25.3,25.3,0,0,0-3.654,5.614l-2.364.309-1.3,3.966,1.669,1.811a24.949,24.949,0,0,0-.348,6.695l-1.9,1.453.861,4.082,2.361.738a25.018,25.018,0,0,0,3.03,5.981l-.909,2.194,2.785,3.106,2.413-.542a25.246,25.246,0,0,0,5.614,3.654l.311,2.365,3.965,1.3,1.813-1.67a24.9,24.9,0,0,0,6.695.35l1.452,1.894,4.084-.859.738-2.362a24.916,24.916,0,0,0,5.981-3.03l2.192.91,3.107-2.787-.542-2.412a25.248,25.248,0,0,0,3.654-5.615l2.364-.311,1.3-3.966-1.669-1.811A24.949,24.949,0,0,0,417.645,200.089Zm-25.026,15.386a13.368,13.368,0,1,1,13.368-13.368A13.367,13.367,0,0,1,392.619,215.475Z" transform="translate(-365.699 -175.187)" fill="none" stroke="#1d4c6a" stroke-miterlimit="10" stroke-width="0.75"/>
            <path id="Trazado_2722-2" data-name="Trazado 2722" d="M392.391,196.232a5.646,5.646,0,1,1-5.646-5.646A5.647,5.647,0,0,1,392.391,196.232Z" transform="translate(-359.824 -169.312)" fill="none" stroke="#1d4c6a" stroke-miterlimit="10" stroke-width="0.75"/>
          </g>
          <g id="Grupo_2545" data-name="Grupo 2545" transform="translate(520.834 113.113)">
            <path id="Trazado_2721-3" data-name="Trazado 2721" d="M417.645,200.089l1.894-1.452-.859-4.084-2.362-.738a24.968,24.968,0,0,0-3.03-5.981l.909-2.194-2.785-3.106-2.413.542a25.248,25.248,0,0,0-5.614-3.654l-.311-2.364-3.965-1.3-1.811,1.67a24.906,24.906,0,0,0-6.7-.35l-1.452-1.894-4.082.859-.738,2.362a24.864,24.864,0,0,0-5.981,3.03l-2.194-.909-3.107,2.785.542,2.414a25.3,25.3,0,0,0-3.654,5.614l-2.364.309-1.3,3.966,1.669,1.811a24.949,24.949,0,0,0-.348,6.695l-1.9,1.453.861,4.082,2.361.738a25.018,25.018,0,0,0,3.03,5.981l-.909,2.194,2.785,3.106,2.413-.542a25.246,25.246,0,0,0,5.614,3.654l.311,2.365,3.965,1.3,1.813-1.67a24.9,24.9,0,0,0,6.695.35l1.452,1.894,4.084-.859.738-2.362a24.916,24.916,0,0,0,5.981-3.03l2.192.91,3.107-2.787-.542-2.412a25.248,25.248,0,0,0,3.654-5.615l2.364-.311,1.3-3.966-1.669-1.811A24.949,24.949,0,0,0,417.645,200.089Zm-25.026,15.386a13.368,13.368,0,1,1,13.368-13.368A13.367,13.367,0,0,1,392.619,215.475Z" transform="translate(-365.699 -175.187)" fill="none" stroke="#1d4c6a" stroke-miterlimit="10" stroke-width="0.75"/>
            <path id="Trazado_2722-3" data-name="Trazado 2722" d="M392.391,196.232a5.646,5.646,0,1,1-5.646-5.646A5.647,5.647,0,0,1,392.391,196.232Z" transform="translate(-359.824 -169.312)" fill="none" stroke="#1d4c6a" stroke-miterlimit="10" stroke-width="0.75"/>
          </g>
          <g id="Grupo_2515" data-name="Grupo 2515" transform="translate(23.49 153.535)">
            <path id="Trazado_2723" data-name="Trazado 2723" d="M145.558,265.639l2.735-2.382-1.69-6.112-3.653-.9a37.867,37.867,0,0,0-5.161-8.782l1.172-3.412-4.519-4.447-3.607,1.05a38.361,38.361,0,0,0-8.861-5.011l-.695-3.555-6.137-1.593-2.59,2.7a37.867,37.867,0,0,0-10.186.1l-2.382-2.735-6.11,1.69-.9,3.653a37.846,37.846,0,0,0-8.784,5.161l-3.412-1.172-4.447,4.519,1.05,3.607a38.412,38.412,0,0,0-5.011,8.861l-3.555.695-1.593,6.137,2.7,2.59a37.866,37.866,0,0,0,.1,10.186L67.3,278.882l1.69,6.11,3.653.9a37.9,37.9,0,0,0,5.161,8.784l-1.172,3.412,4.519,4.447,3.607-1.05a38.421,38.421,0,0,0,8.862,5.011l.694,3.555,6.137,1.593,2.59-2.7a37.866,37.866,0,0,0,10.186-.1l2.382,2.735,6.112-1.69.9-3.653a37.916,37.916,0,0,0,8.782-5.161l3.412,1.172,4.447-4.519-1.05-3.609a38.352,38.352,0,0,0,5.011-8.86l3.556-.695,1.592-6.137-2.7-2.59A37.867,37.867,0,0,0,145.558,265.639Zm-36.826,20.39a14.989,14.989,0,1,1,14.025-15.893A14.987,14.987,0,0,1,108.732,286.029Z" transform="translate(-67.227 -230.5)" fill="none" stroke="#1d4c6a" stroke-miterlimit="10" stroke-width="0.75"/>
            <path id="Trazado_2724" data-name="Trazado 2724" d="M107.525,261.7a8.579,8.579,0,1,1-9.1-8.028A8.579,8.579,0,0,1,107.525,261.7Z" transform="translate(-58.393 -221.666)" fill="none" stroke="#1d4c6a" stroke-miterlimit="10" stroke-width="0.75"/>
          </g>
          <g id="Grupo_2516" data-name="Grupo 2516" transform="translate(785.924 177.415)">
            <path id="Trazado_2725" data-name="Trazado 2725" d="M136.243,208l1.818-1.394-.825-3.922-2.268-.709a24.006,24.006,0,0,0-2.909-5.743l.873-2.105-2.675-2.984-2.317.521a24.221,24.221,0,0,0-5.392-3.509l-.3-2.27-3.807-1.246-1.741,1.6a23.944,23.944,0,0,0-6.428-.334l-1.4-1.819-3.921.825-.709,2.268a24.005,24.005,0,0,0-5.743,2.909l-2.105-.873-2.984,2.675.521,2.318a24.212,24.212,0,0,0-3.509,5.391l-2.27.3-1.246,3.807,1.6,1.741a23.951,23.951,0,0,0-.336,6.43l-1.818,1.394.825,3.921,2.268.709a23.93,23.93,0,0,0,2.909,5.743l-.873,2.107,2.675,2.983,2.317-.521a24.222,24.222,0,0,0,5.392,3.509l.3,2.271,3.807,1.245,1.739-1.6a23.9,23.9,0,0,0,6.43.336l1.4,1.819,3.921-.826.709-2.268a23.9,23.9,0,0,0,5.743-2.909l2.105.873,2.984-2.675-.521-2.317a24.224,24.224,0,0,0,3.509-5.392l2.27-.3,1.246-3.809-1.6-1.739A24.014,24.014,0,0,0,136.243,208Zm-24.033,14.775a12.837,12.837,0,1,1,12.837-12.837A12.838,12.838,0,0,1,112.211,222.775Z" transform="translate(-86.361 -184.087)" fill="#1d4c6a"/>
            <path id="Trazado_2726" data-name="Trazado 2726" d="M111.992,204.3a5.422,5.422,0,1,1-5.422-5.422A5.422,5.422,0,0,1,111.992,204.3Z" transform="translate(-80.72 -178.446)" fill="#1d4c6a"/>
          </g>
          <g id="Grupo_2546" data-name="Grupo 2546" transform="translate(29.924 6.698)">
            <path id="Trazado_2725-2" data-name="Trazado 2725" d="M136.243,208l1.818-1.394-.825-3.922-2.268-.709a24.006,24.006,0,0,0-2.909-5.743l.873-2.105-2.675-2.984-2.317.521a24.221,24.221,0,0,0-5.392-3.509l-.3-2.27-3.807-1.246-1.741,1.6a23.944,23.944,0,0,0-6.428-.334l-1.4-1.819-3.921.825-.709,2.268a24.005,24.005,0,0,0-5.743,2.909l-2.105-.873-2.984,2.675.521,2.318a24.212,24.212,0,0,0-3.509,5.391l-2.27.3-1.246,3.807,1.6,1.741a23.951,23.951,0,0,0-.336,6.43l-1.818,1.394.825,3.921,2.268.709a23.93,23.93,0,0,0,2.909,5.743l-.873,2.107,2.675,2.983,2.317-.521a24.222,24.222,0,0,0,5.392,3.509l.3,2.271,3.807,1.245,1.739-1.6a23.9,23.9,0,0,0,6.43.336l1.4,1.819,3.921-.826.709-2.268a23.9,23.9,0,0,0,5.743-2.909l2.105.873,2.984-2.675-.521-2.317a24.224,24.224,0,0,0,3.509-5.392l2.27-.3,1.246-3.809-1.6-1.739A24.014,24.014,0,0,0,136.243,208Zm-24.033,14.775a12.837,12.837,0,1,1,12.837-12.837A12.838,12.838,0,0,1,112.211,222.775Z" transform="translate(-86.361 -184.087)" fill="#67bc47"/>
            <path id="Trazado_2726-2" data-name="Trazado 2726" d="M111.992,204.3a5.422,5.422,0,1,1-5.422-5.422A5.422,5.422,0,0,1,111.992,204.3Z" transform="translate(-80.72 -178.446)" fill="#67bc47"/>
          </g>
          <g id="Grupo_2547" data-name="Grupo 2547" transform="translate(258.924 96.094)">
            <path id="Trazado_2725-3" data-name="Trazado 2725" d="M136.243,208l1.818-1.394-.825-3.922-2.268-.709a24.006,24.006,0,0,0-2.909-5.743l.873-2.105-2.675-2.984-2.317.521a24.221,24.221,0,0,0-5.392-3.509l-.3-2.27-3.807-1.246-1.741,1.6a23.944,23.944,0,0,0-6.428-.334l-1.4-1.819-3.921.825-.709,2.268a24.005,24.005,0,0,0-5.743,2.909l-2.105-.873-2.984,2.675.521,2.318a24.212,24.212,0,0,0-3.509,5.391l-2.27.3-1.246,3.807,1.6,1.741a23.951,23.951,0,0,0-.336,6.43l-1.818,1.394.825,3.921,2.268.709a23.93,23.93,0,0,0,2.909,5.743l-.873,2.107,2.675,2.983,2.317-.521a24.222,24.222,0,0,0,5.392,3.509l.3,2.271,3.807,1.245,1.739-1.6a23.9,23.9,0,0,0,6.43.336l1.4,1.819,3.921-.826.709-2.268a23.9,23.9,0,0,0,5.743-2.909l2.105.873,2.984-2.675-.521-2.317a24.224,24.224,0,0,0,3.509-5.392l2.27-.3,1.246-3.809-1.6-1.739A24.014,24.014,0,0,0,136.243,208Zm-24.033,14.775a12.837,12.837,0,1,1,12.837-12.837A12.838,12.838,0,0,1,112.211,222.775Z" transform="translate(-86.361 -184.087)" fill="#67bc47"/>
            <path id="Trazado_2726-3" data-name="Trazado 2726" d="M111.992,204.3a5.422,5.422,0,1,1-5.422-5.422A5.422,5.422,0,0,1,111.992,204.3Z" transform="translate(-80.72 -178.446)" fill="#67bc47"/>
          </g>
          <path id="Trazado_2727" data-name="Trazado 2727" d="M304.182,239.24l1.065-4.484,4.469-1.13,7.464,7.358a10.753,10.753,0,0,0-14.067-14.125c-.069-.079-.138-.158-.214-.234l-24.844-24.479a10.751,10.751,0,0,0-14.241-13.922l7.412,7.409-1.1,4.478-4.477,1.1-7.412-7.409a10.752,10.752,0,0,0,13.967,14.221c.069.08.137.16.211.235l.018-.017,24.648,24.284c.076.075.156.142.236.21A10.753,10.753,0,0,0,311.645,246.6Z" transform="translate(790.799 -96.704)" fill="#1d4c6a"/>
          <path id="Trazado_2751" data-name="Trazado 2751" d="M46.829,51.905l1.065-4.484,4.469-1.13,7.464,7.358A10.753,10.753,0,0,0,45.761,39.524c-.069-.079-.138-.158-.214-.234L20.7,14.811A10.751,10.751,0,0,0,6.463.89L13.874,8.3l-1.1,4.478L8.3,13.875.888,6.466A10.752,10.752,0,0,0,14.855,20.687c.069.08.137.16.211.235l.018-.017L39.732,45.19c.076.075.156.142.236.21A10.753,10.753,0,0,0,54.292,59.263Z" transform="matrix(0.469, -0.883, 0.883, 0.469, 240.681, 217.657)" fill="#1d4c6a"/>
          <g id="Grupo_2518" data-name="Grupo 2518" transform="translate(859.815 41.177)">
            <circle id="Elipse_53" data-name="Elipse 53" cx="16.203" cy="16.203" r="16.203" fill="#1f4c38"/>
            <g id="Grupo_2517" data-name="Grupo 2517" transform="translate(10.738 6.247)">
              <path id="Trazado_2728" data-name="Trazado 2728" d="M176.247,160.606a1.109,1.109,0,0,1-1.109-1.109v-6.029a1.109,1.109,0,0,1,1.109-1.109A3.247,3.247,0,1,0,173,149.112a1.109,1.109,0,1,1-2.219,0,5.465,5.465,0,1,1,6.575,5.352V159.5A1.108,1.108,0,0,1,176.247,160.606Z" transform="translate(-170.782 -143.647)" fill="#67bc47"/>
              <path id="Trazado_2729" data-name="Trazado 2729" d="M176.376,158.324a1.283,1.283,0,1,0-1.283,1.283A1.282,1.282,0,0,0,176.376,158.324Z" transform="translate(-169.627 -138.537)" fill="#67bc47"/>
            </g>
          </g>
          <g id="Grupo_2520" data-name="Grupo 2520" transform="translate(1214.895 136.937)">
            <circle id="Elipse_54" data-name="Elipse 54" cx="16.203" cy="16.203" r="16.203" transform="translate(0 7.483) rotate(-13.351)" fill="#1f4c38"/>
            <g id="Grupo_2519" data-name="Grupo 2519" transform="translate(14.042 9.551)">
              <path id="Trazado_2730" data-name="Trazado 2730" d="M415.392,265.911a1.109,1.109,0,0,1-1.109-1.109v-6.03a1.11,1.11,0,0,1,1.109-1.109,3.246,3.246,0,1,0-3.247-3.247,1.109,1.109,0,1,1-2.217,0,5.465,5.465,0,1,1,6.573,5.352V264.8A1.109,1.109,0,0,1,415.392,265.911Z" transform="translate(-409.928 -248.951)" fill="#67bc47"/>
              <path id="Trazado_2731" data-name="Trazado 2731" d="M415.521,263.628a1.283,1.283,0,1,0-1.283,1.283A1.284,1.284,0,0,0,415.521,263.628Z" transform="translate(-408.773 -243.841)" fill="#67bc47"/>
            </g>
          </g>
          <g id="Grupo_2521" data-name="Grupo 2521" transform="translate(685.478 22.81)">
            <path id="Trazado_2732" data-name="Trazado 2732" d="M114.612,170.924l1.966-1.506-.892-4.238-2.451-.765a25.91,25.91,0,0,0-3.144-6.207l.944-2.275-2.892-3.224-2.5.562a26.184,26.184,0,0,0-5.827-3.792l-.322-2.454-4.116-1.347-1.88,1.732a25.913,25.913,0,0,0-6.948-.362l-1.507-1.966-4.237.892-.765,2.451a25.856,25.856,0,0,0-6.207,3.144l-2.277-.944-3.223,2.892.562,2.5a26.239,26.239,0,0,0-3.794,5.827l-2.452.322L61.3,166.285l1.732,1.88a25.858,25.858,0,0,0-.362,6.948L60.7,176.62l.891,4.237,2.452.767a25.874,25.874,0,0,0,3.144,6.206l-.945,2.277,2.892,3.224,2.5-.562a26.273,26.273,0,0,0,5.826,3.792l.322,2.452,4.116,1.347,1.88-1.732a25.812,25.812,0,0,0,6.949.362l1.507,1.966,4.237-.891.765-2.452a25.909,25.909,0,0,0,6.207-3.144l2.275.945,3.224-2.892-.562-2.5a26.176,26.176,0,0,0,3.792-5.826l2.454-.322,1.347-4.116-1.732-1.88A25.924,25.924,0,0,0,114.612,170.924ZM88.641,190.106a17.087,17.087,0,1,1,17.087-17.088A17.088,17.088,0,0,1,88.641,190.106Z" transform="translate(-60.704 -145.081)" fill="none" stroke="#1f4c38" stroke-miterlimit="10" stroke-width="0.75"/>
            <circle id="Elipse_55" data-name="Elipse 55" cx="12.868" cy="12.868" r="12.868" transform="translate(11.124 20.974) rotate(-22.5)" fill="none" stroke="#1f4c38" stroke-miterlimit="10" stroke-width="0.75"/>
          </g>
          <g id="Grupo_2522" data-name="Grupo 2522" transform="translate(584.547 185.715)">
            <path id="Trazado_2733" data-name="Trazado 2733" d="M441.212,216.4l1.231-.944-.558-2.652-1.535-.479a16.165,16.165,0,0,0-1.967-3.883l.59-1.426L437.164,205l-1.568.352a16.357,16.357,0,0,0-3.646-2.373l-.2-1.536-2.577-.843L428,201.687a16.17,16.17,0,0,0-4.349-.227l-.944-1.231-2.651.558-.479,1.535a16.171,16.171,0,0,0-3.885,1.967l-1.424-.59-2.018,1.808.352,1.568a16.407,16.407,0,0,0-2.374,3.646l-1.536.2-.841,2.577,1.083,1.176a16.282,16.282,0,0,0-.227,4.349l-1.23.944.558,2.652,1.533.478a16.227,16.227,0,0,0,1.969,3.885l-.591,1.424,1.81,2.018,1.567-.352a16.447,16.447,0,0,0,3.647,2.373l.2,1.536,2.575.843,1.177-1.084a16.166,16.166,0,0,0,4.349.227l.942,1.231,2.652-.56.479-1.533a16.168,16.168,0,0,0,3.883-1.969l1.426.591,2.017-1.81-.351-1.567a16.38,16.38,0,0,0,2.373-3.647l1.535-.2.843-2.577-1.084-1.177A16.157,16.157,0,0,0,441.212,216.4Zm-16.254,12a10.694,10.694,0,1,1,10.694-10.694A10.693,10.693,0,0,1,424.958,228.408Z" transform="translate(-407.474 -200.229)" fill="none" stroke="#1f4c38" stroke-miterlimit="10" stroke-width="0.75"/>
            <circle id="Elipse_56" data-name="Elipse 56" cx="8.053" cy="8.053" r="8.053" transform="translate(9.431 9.432)" fill="none" stroke="#1f4c38" stroke-miterlimit="10" stroke-width="0.75"/>
          </g>
          <g id="Grupo_2524" data-name="Grupo 2524" transform="translate(674.081 190.044)">
            <circle id="Elipse_57" data-name="Elipse 57" cx="16.203" cy="16.203" r="16.203" transform="translate(0 7.445) rotate(-13.282)" fill="#1f4c38"/>
            <g id="Grupo_2523" data-name="Grupo 2523" transform="translate(14.028 9.537)">
              <path id="Trazado_2734" data-name="Trazado 2734" d="M76.035,300.333a1.108,1.108,0,0,1-1.109-1.109v-6.03a1.109,1.109,0,0,1,1.109-1.109,3.246,3.246,0,1,0-3.247-3.245,1.109,1.109,0,0,1-2.219,0,5.465,5.465,0,1,1,6.575,5.351v5.034A1.109,1.109,0,0,1,76.035,300.333Z" transform="translate(-70.57 -283.374)" fill="#67bc47"/>
              <path id="Trazado_2735" data-name="Trazado 2735" d="M76.162,298.051a1.283,1.283,0,1,0-1.282,1.283A1.282,1.282,0,0,0,76.162,298.051Z" transform="translate(-69.415 -278.264)" fill="#67bc47"/>
            </g>
          </g>
          <g id="Grupo_2542" data-name="Grupo 2542" transform="translate(575.081 14.327)">
            <circle id="Elipse_57-2" data-name="Elipse 57" cx="16.203" cy="16.203" r="16.203" transform="translate(0 7.445) rotate(-13.282)" fill="#1f4c38"/>
            <g id="Grupo_2523-2" data-name="Grupo 2523" transform="translate(14.028 9.537)">
              <path id="Trazado_2734-2" data-name="Trazado 2734" d="M76.035,300.333a1.108,1.108,0,0,1-1.109-1.109v-6.03a1.109,1.109,0,0,1,1.109-1.109,3.246,3.246,0,1,0-3.247-3.245,1.109,1.109,0,0,1-2.219,0,5.465,5.465,0,1,1,6.575,5.351v5.034A1.109,1.109,0,0,1,76.035,300.333Z" transform="translate(-70.57 -283.374)" fill="#67bc47"/>
              <path id="Trazado_2735-2" data-name="Trazado 2735" d="M76.162,298.051a1.283,1.283,0,1,0-1.282,1.283A1.282,1.282,0,0,0,76.162,298.051Z" transform="translate(-69.415 -278.264)" fill="#67bc47"/>
            </g>
          </g>
          <g id="Grupo_2543" data-name="Grupo 2543" transform="translate(157.081 37.99)">
            <circle id="Elipse_57-3" data-name="Elipse 57" cx="16.203" cy="16.203" r="16.203" transform="translate(0 7.445) rotate(-13.282)" fill="#1f4c38"/>
            <g id="Grupo_2523-3" data-name="Grupo 2523" transform="translate(14.028 9.537)">
              <path id="Trazado_2734-3" data-name="Trazado 2734" d="M76.035,300.333a1.108,1.108,0,0,1-1.109-1.109v-6.03a1.109,1.109,0,0,1,1.109-1.109,3.246,3.246,0,1,0-3.247-3.245,1.109,1.109,0,0,1-2.219,0,5.465,5.465,0,1,1,6.575,5.351v5.034A1.109,1.109,0,0,1,76.035,300.333Z" transform="translate(-70.57 -283.374)" fill="#3cb6d5"/>
              <path id="Trazado_2735-3" data-name="Trazado 2735" d="M76.162,298.051a1.283,1.283,0,1,0-1.282,1.283A1.282,1.282,0,0,0,76.162,298.051Z" transform="translate(-69.415 -278.264)" fill="#3cb6d5"/>
            </g>
          </g>
          <g id="Grupo_2553" data-name="Grupo 2553" transform="translate(125.081 165.502)">
            <circle id="Elipse_57-4" data-name="Elipse 57" cx="16.203" cy="16.203" r="16.203" transform="translate(0 7.445) rotate(-13.282)" fill="#1f4c38"/>
            <g id="Grupo_2523-4" data-name="Grupo 2523" transform="translate(14.028 9.537)">
              <path id="Trazado_2734-4" data-name="Trazado 2734" d="M76.035,300.333a1.108,1.108,0,0,1-1.109-1.109v-6.03a1.109,1.109,0,0,1,1.109-1.109,3.246,3.246,0,1,0-3.247-3.245,1.109,1.109,0,0,1-2.219,0,5.465,5.465,0,1,1,6.575,5.351v5.034A1.109,1.109,0,0,1,76.035,300.333Z" transform="translate(-70.57 -283.374)" fill="#67bc47"/>
              <path id="Trazado_2735-4" data-name="Trazado 2735" d="M76.162,298.051a1.283,1.283,0,1,0-1.282,1.283A1.282,1.282,0,0,0,76.162,298.051Z" transform="translate(-69.415 -278.264)" fill="#67bc47"/>
            </g>
          </g>
          <g id="Grupo_2527" data-name="Grupo 2527" transform="translate(961.024)">
            <g id="Grupo_2525" data-name="Grupo 2525">
              <path id="Trazado_2736" data-name="Trazado 2736" d="M262.486,172.131H249.044c-2.423,10.216-10.314,12.051-14.884,12.224a.955.955,0,0,1-.631-1.7c5.049-3.919,3.142-10.526,3.142-10.526h-4.7a14.563,14.563,0,0,1-14.521-14.52v-14.52A14.564,14.564,0,0,1,231.97,128.57h30.516a14.564,14.564,0,0,1,14.521,14.521v14.52A14.563,14.563,0,0,1,262.486,172.131Z" transform="translate(-217.449 -128.57)" fill="#67bc47" stroke="#fffeff" stroke-miterlimit="10" stroke-width="0.75"/>
            </g>
            <g id="Grupo_2526" data-name="Grupo 2526" transform="translate(23.621 8.945)">
              <path id="Trazado_2737" data-name="Trazado 2737" d="M241.152,155.547a1.34,1.34,0,0,1-1.34-1.341v-7.289a1.34,1.34,0,0,1,1.34-1.34,3.925,3.925,0,1,0-3.924-3.925,1.341,1.341,0,1,1-2.682,0,6.606,6.606,0,1,1,7.946,6.47v6.084A1.34,1.34,0,0,1,241.152,155.547Z" transform="translate(-234.547 -135.045)" fill="#f3f6f6"/>
              <path id="Trazado_2738" data-name="Trazado 2738" d="M241.308,152.787a1.551,1.551,0,1,0-1.551,1.551A1.552,1.552,0,0,0,241.308,152.787Z" transform="translate(-233.151 -128.868)" fill="#f3f6f6"/>
            </g>
          </g>
          <path id="Trazado_2739" data-name="Trazado 2739" d="M311.094,166.959l-6.842-4.352-6.843,4.352-6.84-4.352-6.846,4.352-6.85-4.352-6.85,4.352" transform="translate(765.633 -130.584)" fill="none" stroke="#1d4c6a" stroke-linecap="round" stroke-linejoin="round" stroke-width="1"/>
          <g id="Grupo_2528" data-name="Grupo 2528" transform="translate(0 10.276)">
            <path id="Trazado_2740" data-name="Trazado 2740" d="M412.142,152.713l2.6,5.277,5.824.846-4.214,4.108,1,5.8-5.209-2.739-5.209,2.739.995-5.8-4.214-4.108,5.824-.846Z" transform="translate(816.638 -144.635)" fill="none" stroke="#1f4c38" stroke-miterlimit="10" stroke-width="0.75"/>
            <path id="Trazado_2741" data-name="Trazado 2741" d="M139,209.116l2.6,5.277,5.824.846-4.214,4.108.995,5.8L139,222.41l-5.209,2.739.995-5.8-4.214-4.108,5.824-.846Z" transform="translate(712.43 -126.03)" fill="none" stroke="#1f4c38" stroke-miterlimit="10" stroke-width="0.75"/>
            <path id="Trazado_2752" data-name="Trazado 2752" d="M139,209.116l2.6,5.277,5.824.846-4.214,4.108.995,5.8L139,222.41l-5.209,2.739.995-5.8-4.214-4.108,5.824-.846Z" transform="translate(278.43 -156.946)" fill="none" stroke="#1f4c38" stroke-miterlimit="10" stroke-width="0.75"/>
            <path id="Trazado_2753" data-name="Trazado 2753" d="M139,209.116l2.6,5.277,5.824.846-4.214,4.108.995,5.8L139,222.41l-5.209,2.739.995-5.8-4.214-4.108,5.824-.846Z" transform="translate(66.43 -133.759)" fill="none" stroke="#1f4c38" stroke-miterlimit="10" stroke-width="0.75"/>
            <path id="Trazado_2761" data-name="Trazado 2761" d="M139,209.116l2.6,5.277,5.824.846-4.214,4.108.995,5.8L139,222.41l-5.209,2.739.995-5.8-4.214-4.108,5.824-.846Z" transform="translate(74.43 -209.116)" fill="none" stroke="#1f4c38" stroke-miterlimit="10" stroke-width="0.75"/>
            <path id="Trazado_2754" data-name="Trazado 2754" d="M139,209.116l2.6,5.277,5.824.846-4.214,4.108.995,5.8L139,222.41l-5.209,2.739.995-5.8-4.214-4.108,5.824-.846Z" transform="translate(-22.57 -185.116)" fill="none" stroke="#1f4c38" stroke-miterlimit="10" stroke-width="0.75"/>
            <path id="Trazado_2755" data-name="Trazado 2755" d="M139,209.116l2.6,5.277,5.824.846-4.214,4.108.995,5.8L139,222.41l-5.209,2.739.995-5.8-4.214-4.108,5.824-.846Z" transform="translate(-130.57 -1.399)" fill="none" stroke="#1f4c38" stroke-miterlimit="10" stroke-width="0.75"/>
            <path id="Trazado_2742" data-name="Trazado 2742" d="M201.485,296.613l2.6,5.277,5.824.846-4.214,4.108.995,5.8-5.209-2.739-5.209,2.739.995-5.8-4.214-4.108,5.824-.846Z" transform="translate(736.269 -97.018)" fill="none" stroke="#1f4c38" stroke-miterlimit="10" stroke-width="0.75"/>
            <path id="Trazado_2743" data-name="Trazado 2743" d="M363.929,255.11l2.6,5.277,5.824.846-4.214,4.108.995,5.8-5.209-2.739-5.209,2.739.995-5.8-4.214-4.108,5.824-.846Z" transform="translate(798.244 -110.634)" fill="none" stroke="#1f4c38" stroke-miterlimit="10" stroke-width="0.75"/>
          </g>
          <circle id="Elipse_58" data-name="Elipse 58" cx="1.549" cy="1.549" r="1.549" transform="translate(961.476 242.12)" fill="#fffeff"/>
          <g id="Grupo_2532" data-name="Grupo 2532" transform="translate(8.629 11.555)">
            <g id="Grupo_2529" data-name="Grupo 2529" transform="translate(1194.726 173.814)">
              <line id="Línea_301" data-name="Línea 301" x2="42.484" stroke-width="1" stroke="#1d4c6a" stroke-linecap="round" stroke-linejoin="round" fill="none"/>
              <line id="Línea_302" data-name="Línea 302" x2="42.484" transform="translate(14.462 5.785)" fill="none" stroke="#1d4c6a" stroke-linecap="round" stroke-linejoin="round" stroke-width="1"/>
            </g>
            <g id="Grupo_2530" data-name="Grupo 2530" transform="translate(971.966 218.187)">
              <line id="Línea_303" data-name="Línea 303" x2="42.484" stroke-width="1" stroke="#1d4c6a" stroke-linecap="round" stroke-linejoin="round" fill="none"/>
              <line id="Línea_304" data-name="Línea 304" x2="42.484" transform="translate(14.462 5.785)" fill="none" stroke="#1d4c6a" stroke-linecap="round" stroke-linejoin="round" stroke-width="1"/>
            </g>
            <g id="Grupo_2531" data-name="Grupo 2531" transform="translate(828)">
              <line id="Línea_305" data-name="Línea 305" x2="42.484" stroke-width="1" stroke="#1d4c6a" stroke-linecap="round" stroke-linejoin="round" fill="none"/>
              <line id="Línea_306" data-name="Línea 306" x2="42.484" transform="translate(14.462 5.785)" fill="none" stroke="#1d4c6a" stroke-linecap="round" stroke-linejoin="round" stroke-width="1"/>
            </g>
            <g id="Grupo_2554" data-name="Grupo 2554" transform="translate(558 61.933)">
              <line id="Línea_305-2" data-name="Línea 305" x2="42.484" stroke-width="1" stroke="#1d4c6a" stroke-linecap="round" stroke-linejoin="round" fill="none"/>
              <line id="Línea_306-2" data-name="Línea 306" x2="42.484" transform="translate(14.462 5.785)" fill="none" stroke="#1d4c6a" stroke-linecap="round" stroke-linejoin="round" stroke-width="1"/>
            </g>
            <g id="Grupo_2555" data-name="Grupo 2555" transform="translate(218 131.607)">
              <line id="Línea_305-3" data-name="Línea 305" x2="42.484" stroke-width="1" stroke="#1d4c6a" stroke-linecap="round" stroke-linejoin="round" fill="none"/>
              <line id="Línea_306-3" data-name="Línea 306" x2="42.484" transform="translate(14.462 5.785)" fill="none" stroke="#1d4c6a" stroke-linecap="round" stroke-linejoin="round" stroke-width="1"/>
            </g>
            <g id="Grupo_2556" data-name="Grupo 2556" transform="translate(0 90.964)">
              <line id="Línea_305-4" data-name="Línea 305" x2="42.484" stroke-width="1" stroke="#1d4c6a" stroke-linecap="round" stroke-linejoin="round" fill="none"/>
              <line id="Línea_306-4" data-name="Línea 306" x2="42.484" transform="translate(14.462 5.785)" fill="none" stroke="#1d4c6a" stroke-linecap="round" stroke-linejoin="round" stroke-width="1"/>
            </g>
          </g>
          <g id="Grupo_2535" data-name="Grupo 2535" transform="translate(764.478 6.146)">
            <circle id="Elipse_59" data-name="Elipse 59" cx="2.169" cy="2.169" r="2.169" transform="translate(59.127 8.589)" fill="#1f4c38"/>
            <circle id="Elipse_60" data-name="Elipse 60" cx="1.549" cy="1.549" r="1.549" transform="translate(52.777)" fill="#1f4c38"/>
            <circle id="Elipse_61" data-name="Elipse 61" cx="2.169" cy="2.169" r="2.169" transform="translate(0 120.496)" fill="#1f4c38"/>
            <g id="Grupo_2533" data-name="Grupo 2533" transform="translate(401.059 18.267)">
              <circle id="Elipse_62" data-name="Elipse 62" cx="2.169" cy="2.169" r="2.169" transform="translate(0 14.956)" fill="#1f4c38"/>
              <circle id="Elipse_63" data-name="Elipse 63" cx="1.549" cy="1.549" r="1.549" transform="translate(9.993)" fill="#1f4c38"/>
            </g>
            <path id="Trazado_2744" data-name="Trazado 2744" d="M258.475,222.281a2.789,2.789,0,1,0,2.788-2.789A2.789,2.789,0,0,0,258.475,222.281Z" transform="translate(14.749 -104.646)" fill="#1f4c38"/>
            <path id="Trazado_2745" data-name="Trazado 2745" d="M166.15,272.294a2.788,2.788,0,1,0,2.788-2.788A2.788,2.788,0,0,0,166.15,272.294Z" transform="translate(-20.474 -87.675)" fill="#1f4c38"/>
            <circle id="Elipse_64" data-name="Elipse 64" cx="1.549" cy="1.549" r="1.549" transform="translate(193.384 42.053)" fill="#1f4c38"/>
            <g id="Grupo_2534" data-name="Grupo 2534" transform="translate(226.045 206.784)">
              <circle id="Elipse_65" data-name="Elipse 65" cx="1.549" cy="1.549" r="1.549" fill="#1f4c38"/>
              <circle id="Elipse_66" data-name="Elipse 66" cx="2.169" cy="2.169" r="2.169" transform="translate(17.196 7.396)" fill="#1f4c38"/>
            </g>
            <circle id="Elipse_67" data-name="Elipse 67" cx="1.549" cy="1.549" r="1.549" transform="translate(330.915 164.573)" fill="#1f4c38"/>
            <path id="Trazado_2746" data-name="Trazado 2746" d="M91.43,309.692a1.548,1.548,0,1,0,1.547-1.549A1.548,1.548,0,0,0,91.43,309.692Z" transform="translate(-48.981 -74.489)" fill="#1f4c38"/>
            <path id="Trazado_2747" data-name="Trazado 2747" d="M283.767,140.388a1.549,1.549,0,1,0,1.549-1.549A1.549,1.549,0,0,0,283.767,140.388Z" transform="translate(24.398 -131.798)" fill="#1f4c38"/>
          </g>
          <g id="Grupo_2540" data-name="Grupo 2540" transform="translate(288.478 6.146)">
            <ellipse id="Elipse_59-2" data-name="Elipse 59" cx="2.169" cy="2.169" rx="2.169" ry="2.169" transform="translate(350.684 8.589)" fill="#1f4c38"/>
            <ellipse id="Elipse_60-2" data-name="Elipse 60" cx="1.549" cy="1.549" rx="1.549" ry="1.549" transform="translate(358.275)" fill="#1f4c38"/>
            <ellipse id="Elipse_61-2" data-name="Elipse 61" cx="2.169" cy="2.169" rx="2.169" ry="2.169" transform="translate(409.811 120.496)" fill="#1f4c38"/>
            <g id="Grupo_2533-2" data-name="Grupo 2533" transform="translate(0 18.267)">
              <ellipse id="Elipse_62-2" data-name="Elipse 62" cx="2.169" cy="2.169" rx="2.169" ry="2.169" transform="translate(8.752 14.956)" fill="#1f4c38"/>
              <ellipse id="Elipse_63-2" data-name="Elipse 63" cx="1.549" cy="1.549" rx="1.549" ry="1.549" fill="#1f4c38"/>
            </g>
            <path id="Trazado_2744-2" data-name="Trazado 2744" d="M264.052,222.281a2.789,2.789,0,1,1-2.788-2.789A2.789,2.789,0,0,1,264.052,222.281Z" transform="translate(-123.127 -104.646)" fill="#1f4c38"/>
            <path id="Trazado_2745-2" data-name="Trazado 2745" d="M171.726,272.294a2.788,2.788,0,1,1-2.788-2.788A2.788,2.788,0,0,1,171.726,272.294Z" transform="translate(96.748 -87.675)" fill="#1f4c38"/>
            <ellipse id="Elipse_64-2" data-name="Elipse 64" cx="1.549" cy="1.549" rx="1.549" ry="1.549" transform="translate(217.668 42.053)" fill="#1f4c38"/>
            <g id="Grupo_2534-2" data-name="Grupo 2534" transform="translate(166.569 206.784)">
              <ellipse id="Elipse_65-2" data-name="Elipse 65" cx="1.549" cy="1.549" rx="1.549" ry="1.549" transform="translate(18.437)" fill="#1f4c38"/>
              <ellipse id="Elipse_66-2" data-name="Elipse 66" cx="2.169" cy="2.169" rx="2.169" ry="2.169" transform="translate(0 7.396)" fill="#1f4c38"/>
            </g>
            <ellipse id="Elipse_67-2" data-name="Elipse 67" cx="1.549" cy="1.549" rx="1.549" ry="1.549" transform="translate(80.137 164.573)" fill="#1f4c38"/>
            <path id="Trazado_2746-2" data-name="Trazado 2746" d="M94.526,309.692a1.548,1.548,0,1,1-1.547-1.549A1.548,1.548,0,0,1,94.526,309.692Z" transform="translate(277.174 -74.489)" fill="#1f4c38"/>
            <path id="Trazado_2747-2" data-name="Trazado 2747" d="M286.864,140.388a1.549,1.549,0,1,1-1.549-1.549A1.549,1.549,0,0,1,286.864,140.388Z" transform="translate(-180.881 -131.798)" fill="#1f4c38"/>
          </g>
          <g id="Grupo_2541" data-name="Grupo 2541" transform="translate(10.478 6.146)">
            <ellipse id="Elipse_59-3" data-name="Elipse 59" cx="2.169" cy="2.169" rx="2.169" ry="2.169" transform="translate(350.684 8.589)" fill="#1f4c38"/>
            <ellipse id="Elipse_60-3" data-name="Elipse 60" cx="1.549" cy="1.549" rx="1.549" ry="1.549" transform="translate(358.275)" fill="#1f4c38"/>
            <ellipse id="Elipse_61-3" data-name="Elipse 61" cx="2.169" cy="2.169" rx="2.169" ry="2.169" transform="translate(324.811 96.256)" fill="#1f4c38"/>
            <g id="Grupo_2533-3" data-name="Grupo 2533" transform="translate(0 18.267)">
              <ellipse id="Elipse_62-3" data-name="Elipse 62" cx="2.169" cy="2.169" rx="2.169" ry="2.169" transform="translate(8.752 14.956)" fill="#1f4c38"/>
              <ellipse id="Elipse_63-3" data-name="Elipse 63" cx="1.549" cy="1.549" rx="1.549" ry="1.549" fill="#1f4c38"/>
            </g>
            <path id="Trazado_2744-3" data-name="Trazado 2744" d="M264.052,222.281a2.789,2.789,0,1,1-2.788-2.789A2.789,2.789,0,0,1,264.052,222.281Z" transform="translate(-123.127 -104.646)" fill="#1f4c38"/>
            <path id="Trazado_2745-3" data-name="Trazado 2745" d="M171.726,272.294a2.788,2.788,0,1,1-2.788-2.788A2.788,2.788,0,0,1,171.726,272.294Z" transform="translate(96.748 -87.675)" fill="#1f4c38"/>
            <ellipse id="Elipse_64-3" data-name="Elipse 64" cx="1.549" cy="1.549" rx="1.549" ry="1.549" transform="translate(217.668 42.053)" fill="#1f4c38"/>
            <g id="Grupo_2534-3" data-name="Grupo 2534" transform="translate(166.569 206.784)">
              <ellipse id="Elipse_65-3" data-name="Elipse 65" cx="1.549" cy="1.549" rx="1.549" ry="1.549" transform="translate(18.437)" fill="#1f4c38"/>
              <ellipse id="Elipse_66-3" data-name="Elipse 66" cx="2.169" cy="2.169" rx="2.169" ry="2.169" transform="translate(0 7.396)" fill="#1f4c38"/>
            </g>
            <ellipse id="Elipse_67-3" data-name="Elipse 67" cx="1.549" cy="1.549" rx="1.549" ry="1.549" transform="translate(80.137 164.573)" fill="#1f4c38"/>
            <path id="Trazado_2746-3" data-name="Trazado 2746" d="M94.526,309.692a1.548,1.548,0,1,1-1.547-1.549A1.548,1.548,0,0,1,94.526,309.692Z" transform="translate(277.174 -74.489)" fill="#1f4c38"/>
            <path id="Trazado_2747-3" data-name="Trazado 2747" d="M286.864,140.388a1.549,1.549,0,1,1-1.549-1.549A1.549,1.549,0,0,1,286.864,140.388Z" transform="translate(-180.881 -131.798)" fill="#1f4c38"/>
          </g>
        </g>
        <g id="Grupo_2537" data-name="Grupo 2537" transform="translate(377.659 68.702)">
          <path id="Trazado_2748" data-name="Trazado 2748" d="M345.244,215.277a2.327,2.327,0,0,1-2.327-2.326V200.3a2.327,2.327,0,0,1,2.327-2.326,6.809,6.809,0,1,0-6.81-6.809,2.326,2.326,0,1,1-4.653,0,11.462,11.462,0,1,1,13.789,11.225v10.559A2.327,2.327,0,0,1,345.244,215.277Z" transform="translate(-333.782 -179.703)" fill="#1d4c6a"/>
          <path id="Trazado_2749" data-name="Trazado 2749" d="M345.513,210.49a2.691,2.691,0,1,0-2.691,2.691A2.691,2.691,0,0,0,345.513,210.49Z" transform="translate(-331.36 -168.984)" fill="#1d4c6a"/>
        </g>
        <g id="Grupo_2548" data-name="Grupo 2548" transform="translate(-681.341 98.622)">
          <path id="Trazado_2748-2" data-name="Trazado 2748" d="M345.244,215.277a2.327,2.327,0,0,1-2.327-2.326V200.3a2.327,2.327,0,0,1,2.327-2.326,6.809,6.809,0,1,0-6.81-6.809,2.326,2.326,0,1,1-4.653,0,11.462,11.462,0,1,1,13.789,11.225v10.559A2.327,2.327,0,0,1,345.244,215.277Z" transform="translate(-333.782 -179.703)" fill="#1d4c6a"/>
          <path id="Trazado_2749-2" data-name="Trazado 2749" d="M345.513,210.49a2.691,2.691,0,1,0-2.691,2.691A2.691,2.691,0,0,0,345.513,210.49Z" transform="translate(-331.36 -168.984)" fill="#1d4c6a"/>
        </g>
        <g id="Grupo_2549" data-name="Grupo 2549" transform="translate(-288.341 36.641)">
          <path id="Trazado_2748-3" data-name="Trazado 2748" d="M345.244,215.277a2.327,2.327,0,0,1-2.327-2.326V200.3a2.327,2.327,0,0,1,2.327-2.326,6.809,6.809,0,1,0-6.81-6.809,2.326,2.326,0,1,1-4.653,0,11.462,11.462,0,1,1,13.789,11.225v10.559A2.327,2.327,0,0,1,345.244,215.277Z" transform="translate(-333.782 -179.703)" fill="#1d4c6a"/>
          <path id="Trazado_2749-3" data-name="Trazado 2749" d="M345.513,210.49a2.691,2.691,0,1,0-2.691,2.691A2.691,2.691,0,0,0,345.513,210.49Z" transform="translate(-331.36 -168.984)" fill="#1d4c6a"/>
        </g>
        <g id="Grupo_2550" data-name="Grupo 2550" transform="translate(-236.341 200.358)">
          <path id="Trazado_2748-4" data-name="Trazado 2748" d="M345.244,215.277a2.327,2.327,0,0,1-2.327-2.326V200.3a2.327,2.327,0,0,1,2.327-2.326,6.809,6.809,0,1,0-6.81-6.809,2.326,2.326,0,1,1-4.653,0,11.462,11.462,0,1,1,13.789,11.225v10.559A2.327,2.327,0,0,1,345.244,215.277Z" transform="translate(-333.782 -179.703)" fill="#1d4c6a"/>
          <path id="Trazado_2749-4" data-name="Trazado 2749" d="M345.513,210.49a2.691,2.691,0,1,0-2.691,2.691A2.691,2.691,0,0,0,345.513,210.49Z" transform="translate(-331.36 -168.984)" fill="#1d4c6a"/>
        </g>
        <g id="Grupo_2551" data-name="Grupo 2551" transform="translate(37.659 26.641)">
          <path id="Trazado_2748-5" data-name="Trazado 2748" d="M345.244,215.277a2.327,2.327,0,0,1-2.327-2.326V200.3a2.327,2.327,0,0,1,2.327-2.326,6.809,6.809,0,1,0-6.81-6.809,2.326,2.326,0,1,1-4.653,0,11.462,11.462,0,1,1,13.789,11.225v10.559A2.327,2.327,0,0,1,345.244,215.277Z" transform="translate(-333.782 -179.703)" fill="#1d4c6a"/>
          <path id="Trazado_2749-5" data-name="Trazado 2749" d="M345.513,210.49a2.691,2.691,0,1,0-2.691,2.691A2.691,2.691,0,0,0,345.513,210.49Z" transform="translate(-331.36 -168.984)" fill="#1d4c6a"/>
        </g>
        <g id="Grupo_2552" data-name="Grupo 2552" transform="translate(184.659 149.775)">
          <path id="Trazado_2748-6" data-name="Trazado 2748" d="M345.244,215.277a2.327,2.327,0,0,1-2.327-2.326V200.3a2.327,2.327,0,0,1,2.327-2.326,6.809,6.809,0,1,0-6.81-6.809,2.326,2.326,0,1,1-4.653,0,11.462,11.462,0,1,1,13.789,11.225v10.559A2.327,2.327,0,0,1,345.244,215.277Z" transform="translate(-333.782 -179.703)" fill="#1d4c6a"/>
          <path id="Trazado_2749-6" data-name="Trazado 2749" d="M345.513,210.49a2.691,2.691,0,1,0-2.691,2.691A2.691,2.691,0,0,0,345.513,210.49Z" transform="translate(-331.36 -168.984)" fill="#1d4c6a"/>
        </g>
        <path id="Trazado_2750" data-name="Trazado 2750" d="M197.515,286.912l-6.842-4.352-6.843,4.352-6.84-4.352-6.846,4.352-6.85-4.352-6.85,4.352" transform="translate(-23.78 -75.608)" fill="none" stroke="#1d4c6a" stroke-linecap="round" stroke-linejoin="round" stroke-width="1"/>
      </g>
    </g>
  </g>
</svg>
