<svg xmlns="http://www.w3.org/2000/svg" width="94.213" height="48.012" viewBox="0 0 94.213 48.012">
  <g id="ico-me-varé" transform="translate(-314.996 -1433.173)">
    <path id="Trazado_1972" data-name="Trazado 1972" d="M396.261,1454.9c-1.775-.492-3.814-.418-5.187-2a34.2,34.2,0,0,1-6.769-4.87c-11.582-9.7-25.05-11.727-39.605-10.294-11.369.76-19.365,11.04-21.29,15.369-.183.317-3.694,4.163-4.035,4.551a17.043,17.043,0,0,0-3.282,17.47c.9,1.89,2.245,3.274,4.342,3.131,4.006-.486,5.5,4.844,7.118,5.47a9.015,9.015,0,0,0,5.217,1.54,10.444,10.444,0,0,0,9.426-4.917,3.62,3.62,0,0,1,3.528-1.684c10.943.034,21.887.06,32.83-.023,1.79-.014,3.037.415,3.785,2.062.953,2.769,5.841,4.416,6.364,4.475a9.94,9.94,0,0,0,2.989.076,9.132,9.132,0,0,0,7.992-5.017,3.278,3.278,0,0,1,3.308-1.947c4.518,0,6.2-1.8,6.216-6.365C409.232,1463.294,404.55,1457.2,396.261,1454.9Zm9.363,9.669c1.251.211,1.077,1.79,1.251,2.432.216,1.2.061,1.731-.893,1.676a1.757,1.757,0,0,1-1.781-1.934C404.17,1465.712,404.536,1464.387,405.624,1464.571Zm-72.069,19.195a8.678,8.678,0,0,1-8.63-8.656,8.514,8.514,0,0,1,8.795-8.217,8.129,8.129,0,0,1,8.271,8.112C341.959,1480.147,338.491,1483.642,333.554,1483.766Zm56.8.276c-4.347.109-8.177-4.406-8.11-8.9a8.6,8.6,0,0,1,8.735-8.344,8.5,8.5,0,0,1,8.462,8.593C399.2,1481,394.875,1483.929,390.358,1484.042Zm15.213-11.221c-.109.016-.188.236-.326.422.336.993,1.963.454,1.7,1.661a2.6,2.6,0,0,1-2.119,1.892c-.884.194-1.8.232-2.7.338-1.2.14-1.565-.4-1.534-1.583.148-5.724-3.594-9.854-9.152-10.189a9.925,9.925,0,0,0-10.575,9.307c-.1,1.9-.714,2.342-2.491,2.331-10.775-.068-21.551-.052-32.326-.008-1.545.005-2.313-.224-2.507-2.09-.613-5.919-4.913-9.8-10.366-9.531-4.238.207-9.5,3.014-9.775,10.175-.044,1.15-.349,1.589-1.558,1.609-2.462.039-4.085-.98-4.75-3.49-1.709-6.451.012-11.991,4.893-16.439a15.3,15.3,0,0,0,3.06-3.828c3.36-5.9,7.474-11.04,14.331-13.014,6.457-1.859,13.087-1.657,19.721-1.233,10.063.643,18.353,5.242,25.885,11.508,3.345,2.783,6.789,5.159,11.237,5.957a13.953,13.953,0,0,1,7.645,4.353c.909.96,1.363,1.558.137,2.8a3.8,3.8,0,0,0,1.758,6.46c.689.21,1.773-.289,1.711,1.131C407.4,1472.66,406.482,1472.686,405.57,1472.82Z" transform="translate(0 -4.155)" fill="#67bc47"/>
    <path id="Trazado_1973" data-name="Trazado 1973" d="M402.749,1459.609c-3.808,0-7.615.037-11.422-.009-4.262-.052-5.58-1.435-5.6-5.729-.007-1.9.043-3.809-.008-5.711-.057-2.091,1.035-3.141,2.991-3.138,10.331.02,19.809,2.548,27.625,9.722,1.014.932,2.33,1.935,1.583,3.565-.665,1.451-2.191,1.275-3.5,1.284-3.89.024-7.781.009-11.671.009Zm-.413-1.774c3.808,0,7.616.026,11.424-.022.758-.01,1.886.478,2.2-.516.272-.863-.755-1.392-1.348-1.906a34.175,34.175,0,0,0-19.689-8.517c-7.815-.694-7.833-.5-7.632,7.4.068,2.659.927,3.539,3.622,3.562C394.719,1457.863,398.527,1457.839,402.336,1457.835Z" transform="translate(-35.537 -8.02)" fill="#67bc47"/>
    <path id="Trazado_1974" data-name="Trazado 1974" d="M350.6,1460.234c-1.989,0-3.988.123-5.965-.033-2.207-.173-2.984-1.533-1.9-3.43,3.2-5.608,7.752-9.448,14.365-10.314,3.089-.4,3.917.363,3.938,3.419.013,1.906.032,3.815-.021,5.72-.079,2.789-1.4,4.323-4.2,4.568-2.055.179-4.139.035-6.21.035Zm8.9-7.531v-1.491c0-3.62-.193-3.666-3.871-2.927-5.042,1.014-8.152,4.48-11,8.306-1.18,1.585-.321,2.5,1.311,2.183,2.513-.5,4.943.094,7.408.086C359.188,1458.841,359.5,1458.55,359.5,1452.7Z" transform="translate(-13.696 -8.691)" fill="#67bc47"/>
    <path id="Trazado_1975" data-name="Trazado 1975" d="M383.008,1479.011v9.061c0,5.362.153,5.509,5.619,5.513,1.408,0,2.817-.005,4.223.052a.955.955,0,0,1,.735.48c.137.555-.366.691-.765.688-2.813-.019-5.633.039-8.434-.157a2.675,2.675,0,0,1-2.487-2.71c-.112-4.134-.044-8.272-.022-12.409,0-.18.254-.358.39-.536Z" transform="translate(-33.585 -25.09)" fill="#67bc47"/>
    <path id="Trazado_1976" data-name="Trazado 1976" d="M445.393,1483.947c0,1.234.015,2.469-.008,3.7-.009.435-.223.858-.7.846s-.661-.454-.662-.885q-.016-3.95.009-7.9c0-.436.213-.864.693-.847s.666.45.671.886c.018,1.4.007,2.8.007,4.2Z" transform="translate(-64.829 -25.025)" fill="#67bc47"/>
    <path id="Trazado_1977" data-name="Trazado 1977" d="M429.177,1481.257c-.874-.326-2.316.419-2.369-.724-.055-1.208,1.384-.792,2.181-.762.773.029,2.168-.569,2.158.759C431.138,1481.649,429.783,1480.89,429.177,1481.257Z" transform="translate(-56.181 -25.426)" fill="#67bc47"/>
    <path id="Trazado_1978" data-name="Trazado 1978" d="M345.926,1513.557a5.936,5.936,0,0,1-6.136-6.074,5.837,5.837,0,0,1,6.287-6.13,6.105,6.105,0,1,1-.151,12.2Zm.062-10.933a4.721,4.721,0,0,0-4.749,4.933,4.823,4.823,0,0,0,4.945,4.762,4.9,4.9,0,0,0,4.649-4.832A4.805,4.805,0,0,0,345.988,1502.625Z" transform="translate(-12.458 -36.325)" fill="#67bc47"/>
    <path id="Trazado_1979" data-name="Trazado 1979" d="M467.153,1507.088a6.164,6.164,0,0,1-6.377,6.474,6.783,6.783,0,0,1-6.6-6.464,6.711,6.711,0,0,1,6.59-6.447A6.13,6.13,0,0,1,467.153,1507.088Zm-6.428,5a5,5,0,1,0-5.09-5.054A5.2,5.2,0,0,0,460.725,1512.092Z" transform="translate(-69.933 -35.973)" fill="#67bc47"/>
    <path id="Trazado_1980" data-name="Trazado 1980" d="M352.311,1510.577c-.09,1.875-1.067,2.948-2.79,2.969a2.539,2.539,0,0,1-2.791-2.806,2.794,2.794,0,0,1,5.58-.163Zm-1.491.167c-.107-.853-.537-1.391-1.44-1.314a1.346,1.346,0,0,0,.074,2.69C350.36,1512.169,350.768,1511.607,350.82,1510.745Z" transform="translate(-15.946 -39.66)" fill="#67bc47"/>
    <path id="Trazado_1981" data-name="Trazado 1981" d="M464.554,1513.61c-1.845-.146-3.04-1.159-3.073-2.926a2.776,2.776,0,0,1,2.917-3.01,2.821,2.821,0,0,1,3.038,2.909C467.516,1512.416,466.356,1513.4,464.554,1513.61Zm1.458-3.036c-.185-.91-.619-1.556-1.638-1.425a1.473,1.473,0,1,0,.1,2.944C465.468,1512.116,465.912,1511.492,466.012,1510.574Z" transform="translate(-73.604 -39.501)" fill="#67bc47"/>
  </g>
</svg>
