<svg xmlns="http://www.w3.org/2000/svg" id="prefix__ico_alert2" width="22.998" height="23" viewBox="0 0 22.998 23">
    <defs>
        <style>
            .prefix__cls-1{fill:#67bc47}
        </style>
    </defs>
    <path id="prefix__Trazado_2053" d="M142.115 199.414a11.5 11.5 0 1 1 11.536-11.447 11.494 11.494 0 0 1-11.536 11.447zm9.752-11.449a9.71 9.71 0 1 0-9.77 9.653 9.7 9.7 0 0 0 9.77-9.653z" class="prefix__cls-1" data-name="Trazado 2053" transform="translate(-130.653 -176.414)"/>
    <g id="prefix__Grupo_2249" data-name="Grupo 2249" transform="translate(7.929 4.64)">
        <path id="prefix__Trazado_2630" d="M36.851 11.889l-.186.761q-.838.331-1.337.5a3.527 3.527 0 0 1-1.16.173 2.315 2.315 0 0 1-1.577-.495 1.6 1.6 0 0 1-.563-1.257 4.446 4.446 0 0 1 .042-.6q.043-.309.136-.7L32.9 7.8q.093-.355.157-.673a2.925 2.925 0 0 0 .064-.579.9.9 0 0 0-.2-.66 1.1 1.1 0 0 0-.747-.187 1.957 1.957 0 0 0-.555.085c-.19.056-.352.11-.489.161l.187-.762q.686-.279 1.313-.478a3.926 3.926 0 0 1 1.187-.2A2.258 2.258 0 0 1 35.379 5a1.616 1.616 0 0 1 .546 1.265c0 .107-.012.3-.038.567a3.792 3.792 0 0 1-.14.745l-.7 2.461a6.537 6.537 0 0 0-.153.678 3.49 3.49 0 0 0-.068.575.829.829 0 0 0 .219.669 1.236 1.236 0 0 0 .761.178 2.2 2.2 0 0 0 .575-.089 3.215 3.215 0 0 0 .47-.16zm.176-10.332a1.44 1.44 0 0 1-.486 1.1 1.656 1.656 0 0 1-1.171.453 1.674 1.674 0 0 1-1.177-.453 1.437 1.437 0 0 1-.491-1.1 1.451 1.451 0 0 1 .491-1.1 1.737 1.737 0 0 1 2.348 0 1.454 1.454 0 0 1 .486 1.099z" class="prefix__cls-1" data-name="Trazado 2630" transform="translate(-31.139)"/>
    </g>
</svg>
