<svg xmlns="http://www.w3.org/2000/svg" id="prefix__ico_alert2" width="15.638" height="15.64" viewBox="0 0 15.638 15.64">
    <defs>
        <style>
            .prefix__cls-1{fill:#f89a3b}
        </style>
    </defs>
    <path id="prefix__Trazado_2053" d="M138.447 192.054a7.82 7.82 0 1 1 7.844-7.784 7.816 7.816 0 0 1-7.844 7.784zm6.631-7.785a6.6 6.6 0 1 0-6.643 6.564 6.594 6.594 0 0 0 6.643-6.564z" class="prefix__cls-1" data-name="Trazado 2053" transform="translate(-130.653 -176.414)"/>
    <path id="prefix__Trazado_2054" d="M246.286 233.489c-.043-.787-.087-1.575-.128-2.362a1.065 1.065 0 0 1 1.025-1.136 1.04 1.04 0 0 1 1.1 1.057c-.02.908-.083 1.815-.13 2.722-.034.668-.062 1.336-.114 2a1.7 1.7 0 0 1-.163.655.747.747 0 0 1-.852.347.8.8 0 0 1-.594-.8c-.052-.828-.097-1.656-.144-2.483z" class="prefix__cls-1" data-name="Trazado 2054" transform="translate(-239.408 -227.32)"/>
    <path id="prefix__Trazado_2055" d="M250.854 360.373a1.077 1.077 0 0 1-1.035 1.073 1.1 1.1 0 0 1-1.089-1.068 1.07 1.07 0 0 1 1.083-1.057 1.042 1.042 0 0 1 1.041 1.052z" class="prefix__cls-1" data-name="Trazado 2055" transform="translate(-241.981 -348.866)"/>
</svg>
