<svg width="64" height="66" viewBox="0 0 64 66" fill="none" xmlns="http://www.w3.org/2000/svg">
<g filter="url(#filter0_d_4432_19176)">
<rect x="6" y="4" width="52" height="54" rx="26" fill="#592272" shape-rendering="crispEdges"/>
<rect x="7" y="5" width="50" height="52" rx="25" stroke="white" stroke-width="2" shape-rendering="crispEdges"/>
<path d="M39.2346 21.7763C39.1342 19.8267 38.4038 18.1717 37.0433 16.8112C35.6828 15.4507 34.0299 14.7224 32.0846 14.6263V13.3699C33.2265 13.4092 34.2985 13.6551 35.3006 14.1077C36.3028 14.5603 37.1812 15.165 37.9359 15.9218C38.6906 16.6786 39.2942 17.5581 39.7468 18.5603C40.1993 19.5624 40.4474 20.6344 40.491 21.7763H39.2346ZM35.1231 21.7763C35.0226 20.975 34.6914 20.2924 34.1295 19.7285C33.5675 19.1646 32.8859 18.8378 32.0846 18.7481V17.4917C33.2338 17.5814 34.2117 18.0296 35.0186 18.8362C35.8254 19.6429 36.279 20.6229 36.3795 21.7763H35.1231ZM39.4032 30.6301C37.5929 30.6301 35.7431 30.1858 33.8535 29.2971C31.964 28.4084 30.2088 27.1536 28.5878 25.5327C26.9733 23.9118 25.7217 22.1581 24.833 20.2718C23.9443 18.3855 23.5 16.5372 23.5 14.727C23.5 14.4163 23.6035 14.1559 23.8106 13.9456C24.0177 13.7353 24.2766 13.6301 24.5872 13.6301H27.5764C27.8344 13.6301 28.0554 13.7142 28.2394 13.8824C28.4234 14.0506 28.5485 14.2648 28.6147 14.5251L29.2033 17.2921C29.2395 17.5512 29.2312 17.7806 29.1782 17.9801C29.1252 18.1797 29.0265 18.3474 28.8821 18.4833L26.5391 20.7647C26.9605 21.5019 27.4161 22.1892 27.9061 22.8266C28.396 23.464 28.9261 24.0658 29.4961 24.6321C30.0944 25.2415 30.7308 25.8007 31.4051 26.3097C32.0795 26.8186 32.8032 27.2847 33.5763 27.7077L35.8372 25.3969C36.0005 25.2204 36.188 25.1001 36.3997 25.036C36.6115 24.9719 36.8321 24.9565 37.0616 24.9898L39.6051 25.5347C39.8688 25.5971 40.0838 25.7304 40.2503 25.9346C40.4168 26.1388 40.5 26.3703 40.5 26.6289V29.5429C40.5 29.8536 40.3948 30.1124 40.1845 30.3195C39.9743 30.5266 39.7138 30.6301 39.4032 30.6301ZM25.9243 19.6058L27.8949 17.702C27.9226 17.6763 27.9413 17.641 27.951 17.5962C27.9606 17.5513 27.9611 17.5096 27.9526 17.4712L27.4436 15.0404C27.435 14.9891 27.4137 14.9506 27.3795 14.925C27.3453 14.8994 27.3026 14.8865 27.2513 14.8865H24.8961C24.8577 14.8865 24.8256 14.8994 24.8 14.925C24.7743 14.9506 24.7615 14.9827 24.7615 15.0212C24.788 15.7113 24.8971 16.4355 25.0888 17.1936C25.2804 17.9517 25.5589 18.7558 25.9243 19.6058ZM34.7628 28.3058C35.4393 28.6327 36.1685 28.8858 36.9503 29.0651C37.7322 29.2444 38.4517 29.346 39.109 29.3699C39.1475 29.3699 39.1795 29.3571 39.2051 29.3314C39.2308 29.3058 39.2436 29.2738 39.2436 29.2353V26.8981C39.2436 26.8468 39.2308 26.8041 39.2051 26.7699C39.1795 26.7357 39.141 26.7143 39.0897 26.7058L36.8782 26.2519C36.8398 26.2434 36.8061 26.2439 36.7773 26.2535C36.7484 26.2632 36.718 26.2819 36.6859 26.3096L34.7628 28.3058Z" fill="white"/>
<path d="M27.4228 14.6775H24.4805C24.4805 17.0313 25.3523 19.1454 25.7882 19.9083L28.0766 17.6198L27.4228 14.6775Z" fill="white"/>
<path d="M36.5766 25.7929L34.6151 28.4083C35.6612 29.716 38.3202 29.8249 39.5189 29.716V26.4467L36.5766 25.7929Z" fill="white"/>
<path d="M17.875 41.2395L17.3828 43.6301H16.7383L17.2305 41.2395H16.0527V40.6067H17.3711L17.8281 38.4446H16.3516V37.8118H17.957L18.4785 35.4211H19.123L18.6074 37.8118H20.7344L21.25 35.4211H21.8945L21.3789 37.8118H22.6152V38.4446H21.25L20.793 40.6067H22.3164V41.2395H20.6582L20.1426 43.6301H19.498L20.002 41.2395H17.875ZM18.0215 40.6067H20.1426L20.5996 38.4446H18.4902L18.0215 40.6067ZM29.2262 41.3508C29.2262 42.1125 28.984 42.7024 28.4996 43.1204C28.0152 43.5383 27.3238 43.7473 26.4254 43.7473C25.5895 43.7473 24.9215 43.5598 24.4215 43.1848C23.9254 42.8059 23.6305 42.2473 23.5367 41.509L24.6266 41.4094C24.7672 42.386 25.3668 42.8743 26.4254 42.8743C26.9566 42.8743 27.3727 42.7434 27.6734 42.4817C27.9781 42.22 28.1305 41.8313 28.1305 41.3157C28.1305 40.8665 27.9566 40.5168 27.609 40.2668C27.2652 40.0129 26.7672 39.886 26.1148 39.886H25.5172V38.9719H26.0914C26.6695 38.9719 27.1168 38.8469 27.4332 38.5969C27.7535 38.343 27.9137 37.9934 27.9137 37.5481C27.9137 37.1067 27.7828 36.759 27.5211 36.5051C27.2633 36.2473 26.8785 36.1184 26.3668 36.1184C25.902 36.1184 25.525 36.2375 25.2359 36.4758C24.9508 36.7141 24.7848 37.05 24.7379 37.4836L23.6773 37.4016C23.7555 36.7258 24.0348 36.1985 24.5152 35.8196C24.9996 35.4407 25.6207 35.2512 26.3785 35.2512C27.2066 35.2512 27.8492 35.4446 28.3063 35.8313C28.7672 36.2141 28.9977 36.7493 28.9977 37.4368C28.9977 37.9641 28.8492 38.3938 28.5523 38.7258C28.2594 39.054 27.8316 39.2766 27.2691 39.3938V39.4172C27.8863 39.4836 28.3668 39.6907 28.7105 40.0383C29.0543 40.386 29.2262 40.8235 29.2262 41.3508ZM35.3215 41.761V43.6301H34.3254V41.761H30.4348V40.9407L34.2141 35.3743H35.3215V40.929H36.4816V41.761H35.3215ZM31.4074 40.929H34.3254V37.636C34.3254 37.4563 34.3254 37.2786 34.3254 37.1028C34.3293 36.9231 34.3371 36.7434 34.3488 36.5637C34.259 36.7356 34.1809 36.8762 34.1145 36.9856C34.048 37.0911 33.9875 37.1829 33.9328 37.261L31.4074 40.929ZM43.409 40.9407C43.409 41.8118 43.1492 42.4973 42.6297 42.9973C42.1141 43.4973 41.3973 43.7473 40.4793 43.7473C39.7098 43.7473 39.0887 43.5793 38.616 43.2434C38.1434 42.9075 37.8445 42.4211 37.7195 41.7844L38.7859 41.6614C38.8992 42.0676 39.0984 42.3743 39.3836 42.5813C39.6688 42.7844 40.0418 42.886 40.5027 42.886C41.0691 42.886 41.5125 42.7161 41.8328 42.3762C42.1531 42.0325 42.3133 41.5618 42.3133 40.9641C42.3133 40.4446 42.1512 40.0247 41.827 39.7043C41.5066 39.384 41.073 39.2239 40.5262 39.2239C40.241 39.2239 39.9754 39.2688 39.7293 39.3586C39.4832 39.4485 39.2371 39.6008 38.991 39.8157H37.9598L38.2352 35.3743H42.9285V36.2708H39.1961L39.0379 38.8899C39.4949 38.5383 40.0633 38.3625 40.743 38.3625C41.2859 38.3625 41.7566 38.4719 42.1551 38.6907C42.5535 38.9055 42.8621 39.2063 43.0809 39.593C43.2996 39.9797 43.409 40.429 43.409 40.9407Z" fill="white"/>
</g>
<defs>
<filter id="filter0_d_4432_19176" x="0" y="0" width="64" height="66" filterUnits="userSpaceOnUse" color-interpolation-filters="sRGB">
<feFlood flood-opacity="0" result="BackgroundImageFix"/>
<feColorMatrix in="SourceAlpha" type="matrix" values="0 0 0 0 0 0 0 0 0 0 0 0 0 0 0 0 0 0 127 0" result="hardAlpha"/>
<feOffset dy="2"/>
<feGaussianBlur stdDeviation="3"/>
<feComposite in2="hardAlpha" operator="out"/>
<feColorMatrix type="matrix" values="0 0 0 0 0 0 0 0 0 0 0 0 0 0 0 0 0 0 0.72 0"/>
<feBlend mode="normal" in2="BackgroundImageFix" result="effect1_dropShadow_4432_19176"/>
<feBlend mode="normal" in="SourceGraphic" in2="effect1_dropShadow_4432_19176" result="shape"/>
</filter>
</defs>
</svg>
