<svg xmlns="http://www.w3.org/2000/svg" width="23" height="23" viewBox="0 0 23 23">
    <defs>
        <style>
            .prefix__cls-2{fill:#fff}
        </style>
    </defs>
    <g id="prefix__ico_chat" transform="translate(.202)">
        <path id="prefix__Rectángulo_1824" d="M0 0H23V23H0z" data-name="Rectángulo 1824" transform="translate(-.202)" style="fill:none"/>
        <g id="prefix__Grupo_1504" data-name="Grupo 1504" transform="translate(2.722 4.763)">
            <path id="prefix__Trazado_2067" d="M-1052.976 788.632c.662-.663 1.28-1.288 1.9-1.905.6-.591.364-.5 1.232-.508h.154a.417.417 0 01.443.409.389.389 0 01-.447.394 1.039 1.039 0 00-.942.4c-.785.819-1.595 1.614-2.405 2.408a.634.634 0 01-.381.173c-.235.009-.369-.174-.369-.444v-2.532h-.75a.9.9 0 01-.835-.488 1.056 1.056 0 01-.132-.471q-.012-3.481-.005-6.961a.951.951 0 01.848-.938 2.319 2.319 0 01.268-.018h11.269a.986.986 0 01.964.471 1.136 1.136 0 01.148.5c.015.865.007 1.731.006 2.6 0 .284-.154.461-.4.465s-.413-.17-.413-.467v-2.462c0-.258-.029-.288-.287-.288h-11.308c-.257 0-.285.03-.285.29v6.673c0 .249.036.284.292.284h.942c.341 0 .488.154.489.5v1.673z" class="prefix__cls-2" data-name="Trazado 2067" transform="translate(1055.513 -778.151)"/>
            <path id="prefix__Trazado_2068" d="M-953.278 849.534V851.261a.4.4 0 01-.255.413.419.419 0 01-.473-.116c-.624-.627-1.252-1.25-1.873-1.879a.448.448 0 00-.35-.149c-1.57.005-3.141-.017-4.71.012a1.068 1.068 0 01-1.135-1.127c.029-1.505.009-3.012.009-4.518a.965.965 0 011.017-1.031h8a.964.964 0 011.022 1.043v4.576a.973.973 0 01-1.039 1.048zm-.862.737l.046-.014v-1.092a.4.4 0 01.427-.441c.179-.008.359 0 .538 0 .251 0 .286-.037.286-.291v-4.443c0-.284-.024-.309-.3-.309h-7.809c-.267 0-.3.031-.3.3v4.424c0 .3.026.322.333.322h4.924a.679.679 0 01.527.219c.437.443.885.882 1.328 1.325z" class="prefix__cls-2" data-name="Trazado 2068" transform="translate(969.265 -837.885)"/>
            <path id="prefix__Trazado_2069" d="M-1016.993 813.908h-3.6c-.322 0-.5-.148-.493-.408a.381.381 0 01.293-.379 1.072 1.072 0 01.247-.026h7.134c.342 0 .524.137.532.4a.387.387 0 01-.349.41 1.891 1.891 0 01-.23.009z" class="prefix__cls-2" data-name="Trazado 2069" transform="translate(1023.731 -810.405)"/>
            <path id="prefix__Trazado_2070" d="M-1019.275 848.833h-1.344c-.29 0-.46-.152-.462-.4a.407.407 0 01.455-.411q1.354-.008 2.708 0a.415.415 0 01.457.413c0 .238-.185.4-.469.4l-1.345-.002z" class="prefix__cls-2" data-name="Trazado 2070" transform="translate(1023.731 -842.642)"/>
            <path id="prefix__Trazado_2071" d="M-901.185 881.369a.4.4 0 01-.4.407.41.41 0 01-.414-.412.407.407 0 01.41-.4.4.4 0 01.404.405z" class="prefix__cls-2" data-name="Trazado 2071" transform="translate(913.808 -873.058)"/>
            <path id="prefix__Trazado_2072" d="M-876.651 881.372a.4.4 0 01-.4.406.414.414 0 01-.414-.412.41.41 0 01.411-.394.4.4 0 01.403.4z" class="prefix__cls-2" data-name="Trazado 2072" transform="translate(891.163 -873.06)"/>
            <path id="prefix__Trazado_2073" d="M-926.526 881.357a.4.4 0 01.415-.388.4.4 0 01.4.407.407.407 0 01-.425.4.406.406 0 01-.39-.419z" class="prefix__cls-2" data-name="Trazado 2073" transform="translate(936.451 -873.058)"/>
        </g>
    </g>
</svg>
