<svg xmlns="http://www.w3.org/2000/svg" width="27.541" height="27.487" viewBox="0 0 27.541 27.487">
  <path id="Trazado_2691" data-name="Trazado 2691" d="M711.2,1619.428a7.846,7.846,0,0,1-9.843,7.465.963.963,0,0,0-1.1.279q-5.275,5.339-10.59,10.638a3.423,3.423,0,0,1-5.312-4.316,8.781,8.781,0,0,1,.629-.676q5.244-5.247,10.5-10.486a.836.836,0,0,0,.276-.945,7.772,7.772,0,0,1,7.9-9.868,10.384,10.384,0,0,1,2.088.4c.687.181.819.75.318,1.262-1.1,1.127-2.253,2.212-3.325,3.368a2.352,2.352,0,0,0,.865,3.816,2.1,2.1,0,0,0,2.367-.383c1.118-1.057,2.2-2.149,3.3-3.229.758-.745,1.26-.623,1.516.419C710.967,1617.913,711.064,1618.675,711.2,1619.428ZM704.249,1613a4.633,4.633,0,0,0-.573-.122,6.491,6.491,0,0,0-6.558,8.48,1.4,1.4,0,0,1-.392,1.681q-5.545,5.478-11.033,11.014a2.039,2.039,0,0,0,.431,3.355,2.077,2.077,0,0,0,2.595-.592q5.495-5.488,10.976-10.99a1.227,1.227,0,0,1,1.43-.36,6.336,6.336,0,0,0,7.583-2.57,6.022,6.022,0,0,0,.912-4.523c-.218.207-.371.347-.519.492-.757.74-1.468,1.534-2.279,2.208a3.71,3.71,0,0,1-5.658-1.191,3.78,3.78,0,0,1,.77-4.5C702.7,1614.6,703.455,1613.82,704.249,1613Z" transform="translate(-683.657 -1611.509)" fill="#67bc47"/>
</svg>
