<svg id="Icono_añadir" data-name="Icono añadir" xmlns="http://www.w3.org/2000/svg" width="17.079" height="17.079" viewBox="0 0 17.079 17.079">
  <path id="Trazado_2049" data-name="Trazado 2049" d="M118.407,297.871a8.54,8.54,0,1,1,8.529-8.541A8.558,8.558,0,0,1,118.407,297.871Zm-7.585-8.545a7.58,7.58,0,1,0,7.593-7.576A7.541,7.541,0,0,0,110.822,289.327Z" transform="translate(-109.857 -280.792)" fill="#fff"/>
  <path id="Trazado_2050" data-name="Trazado 2050" d="M194.1,366.039h-2.059c-.107,0-.214.005-.32,0a.469.469,0,1,1,.01-.937c.661-.009,1.323,0,1.984-.005h.385c0-.563,0-1.093,0-1.623,0-.256,0-.512,0-.768a.463.463,0,0,1,.918-.085,1.921,1.921,0,0,1,.031.381c0,.682,0,1.364,0,2.095h.49c.587,0,1.174,0,1.76,0,.374,0,.586.18.585.479s-.2.462-.6.463c-.619,0-1.238,0-1.856,0h-.382c0,.7,0,1.374,0,2.042a2.479,2.479,0,0,1-.021.414.428.428,0,0,1-.5.387.419.419,0,0,1-.429-.458c-.005-.661,0-1.323,0-1.984C194.1,366.324,194.1,366.209,194.1,366.039Z" transform="translate(-186.026 -357.025)" fill="#fff"/>
</svg>
