<svg xmlns="http://www.w3.org/2000/svg" width="23.667" height="23.666" viewBox="0 0 23.667 23.666">
  <g id="Grupo_2410" data-name="Grupo 2410" transform="translate(-332.184 -168.415)">
    <path id="Trazado_1841" data-name="Trazado 1841" d="M355.851,180.248a11.833,11.833,0,1,0-11.833,11.833,11.847,11.847,0,0,0,11.833-11.833Zm-11.833,10.17a10.169,10.169,0,1,1,10.169-10.169,10.181,10.181,0,0,1-10.169,10.169Zm0,0" transform="translate(0)" fill="#fff"/>
    <path id="Trazado_1842" data-name="Trazado 1842" d="M492.465,429.059a1.211,1.211,0,0,0-.97.431,1.629,1.629,0,0,0,0,2.058,1.2,1.2,0,0,0,.97.442,1.4,1.4,0,0,0,1.034-.442,1.46,1.46,0,0,0-1.034-2.489Zm0,0" transform="translate(-148.473 -243.471)" fill="#fff"/>
    <path id="Trazado_1843" data-name="Trazado 1843" d="M462.354,232.226a4.8,4.8,0,0,0-3.232-1.034,4.656,4.656,0,0,0-2.887.819,2.244,2.244,0,0,0-1.077,1.724.927.927,0,0,0,.332.765,1.15,1.15,0,0,0,.741.269.829.829,0,0,0,.568-.22,2.613,2.613,0,0,0,.419-.47,1.577,1.577,0,0,1,.644-.47,2.8,2.8,0,0,1,1.181-.22,2.508,2.508,0,0,1,1.611.48,1.63,1.63,0,0,1,.6,1.352,2.127,2.127,0,0,1-.248.99,2.885,2.885,0,0,1-.5.724q-.248.245-.744.671l-.625.511a4.27,4.27,0,0,0-1.293,3.366,1.445,1.445,0,0,0,.226.937.98.98,0,0,0,.765.256q1.077,0,1.077-.776a6.235,6.235,0,0,1,.172-1.681,2.477,2.477,0,0,1,.9-1.164l.412-.345.564-.539q.174-.172.533-.614a4.875,4.875,0,0,0,.544-.8,5.459,5.459,0,0,0,.347-.873,3.475,3.475,0,0,0,.164-1.056,3.288,3.288,0,0,0-1.207-2.607Zm0,0" transform="translate(-114.871 -58.641)" fill="#fff"/>
  </g>
</svg>
