<svg xmlns="http://www.w3.org/2000/svg" width="12.457" height="12.457" viewBox="0 0 12.457 12.457">
  <g id="Icon_ionic-ios-arrow-dropdown" data-name="Icon ionic-ios-arrow-dropdown" transform="translate(-3.375 -3.375)">
    <path id="Trazado_3194" data-name="Trazado 3194" d="M10.151,14.584a.58.58,0,0,0,0,.817l2.866,2.857a.577.577,0,0,0,.8.018l2.824-2.815a.577.577,0,1,0-.814-.817L13.4,17.034l-2.429-2.452A.577.577,0,0,0,10.151,14.584Z" transform="translate(-3.794 -6.337)" fill="#67bc47"/>
    <path id="Trazado_3195" data-name="Trazado 3195" d="M3.375,9.6A6.229,6.229,0,1,0,9.6,3.375,6.228,6.228,0,0,0,3.375,9.6Zm9.954-3.725A5.263,5.263,0,1,1,9.6,4.333,5.225,5.225,0,0,1,13.329,5.878Z" fill="#67bc47"/>
  </g>
</svg>
