<svg id="Grupo_1310" data-name="Grupo 1310" xmlns="http://www.w3.org/2000/svg" width="22.071" height="27.293" viewBox="0 0 22.071 27.293">
  <path id="Trazado_1899" data-name="Trazado 1899" d="M483.953,218.27H479.7a3.693,3.693,0,0,0-7.338,0h-4.249A3.122,3.122,0,0,0,465,221.388v.16a3.121,3.121,0,0,0,1.97,2.9v14.73a3.122,3.122,0,0,0,3.118,3.118h11.894a3.122,3.122,0,0,0,3.118-3.118v-14.73a3.121,3.121,0,0,0,1.971-2.9v-.16a3.122,3.122,0,0,0-3.118-3.118Zm-7.917-1.791a2.22,2.22,0,0,1,2.175,1.791h-4.349a2.219,2.219,0,0,1,2.175-1.791Zm7.586,22.7a1.641,1.641,0,0,1-1.639,1.64H470.088a1.641,1.641,0,0,1-1.639-1.64V224.666h15.172Zm1.97-17.627a1.641,1.641,0,0,1-1.639,1.639H468.118a1.641,1.641,0,0,1-1.639-1.639v-.16a1.641,1.641,0,0,1,1.639-1.64h15.835a1.641,1.641,0,0,1,1.639,1.64Zm0,0" transform="translate(-465 -215)" fill="#d90b0b"/>
  <path id="Trazado_1900" data-name="Trazado 1900" d="M549.678,411.984a.739.739,0,0,0,.739-.739v-8.325a.739.739,0,0,0-1.479,0v8.325a.739.739,0,0,0,.74.739Zm0,0" transform="translate(-542.606 -388.061)" fill="#d90b0b"/>
  <path id="Trazado_1901" data-name="Trazado 1901" d="M602.231,411.984a.74.74,0,0,0,.74-.739v-8.325a.739.739,0,0,0-1.479,0v8.325a.739.739,0,0,0,.739.739Zm0,0" transform="translate(-591.196 -388.061)" fill="#d90b0b"/>
  <path id="Trazado_1902" data-name="Trazado 1902" d="M654.783,411.984a.74.74,0,0,0,.739-.739v-8.325a.74.74,0,0,0-1.479,0v8.325a.74.74,0,0,0,.74.739Zm0,0" transform="translate(-639.783 -388.061)" fill="#d90b0b"/>
</svg>
