<svg xmlns="http://www.w3.org/2000/svg" width="33" height="32" viewBox="0 0 33 32">
    <defs>
        <style>
            .cls-1{fill:#67bc47}
        </style>
    </defs>
    <g id="ico-home">
        <g id="Grupo_1231" transform="translate(4.802 4.207)">
            <path id="Trazado_1805" d="M499.5 386.025h5.6v-4h-5.6zm.8-.8v-1.2h4v1.2zm4-2.4v.4h-4v-.4zm0 0" class="cls-1" transform="translate(-493.897 -371.873)"/>
            <path id="Trazado_1806" d="M499.5 392.523v4.8h5.6v-4.8zm2.4.8v1.2h-1.6v-1.2zm-1.6 2h1.6v1.2h-1.6zm2.4 1.2v-1.2h1.6v1.2zm1.6-2h-1.6v-1.2h1.6zm0 0" class="cls-1" transform="translate(-493.897 -376.77)"/>
            <path id="Trazado_1807" d="M513 386.025h5.6v-4H513zm.8-.8v-.4h4v.4zm4-2.4v1.2h-4v-1.2zm0 0" class="cls-1" transform="translate(-500.194 -371.873)"/>
            <path id="Trazado_1808" d="M512.611 381.955a.4.4 0 0 0-.4.4v.4h-.4v-.4a.4.4 0 0 0-.8 0v.4h-.4v-8.085a1.576 1.576 0 0 0 1.822-.369 1.6 1.6 0 0 0-.186-2.349l-10.15-7.941-1.091-1.011-1.063.99-10.178 7.962a1.6 1.6 0 0 0-.186 2.349 1.587 1.587 0 0 0 1.822.369v8.085H491v-.4a.4.4 0 1 0-.8 0v.4h-.4v-.4a.4.4 0 1 0-.8 0v3.6a.4.4 0 0 0 .8 0v-.4h.4v.4a.4.4 0 0 0 .8 0v-.4h.4v.8h19.21v-.8h.4v.4a.4.4 0 0 0 .8 0v-.4h.4v.4a.4.4 0 0 0 .8 0v-3.6a.4.4 0 0 0-.4-.4zm-22.446-8.2a.8.8 0 0 1 .093-1.174l10.2-7.983.544-.506.571.527 10.176 7.962a.8.8 0 0 1 .093 1.174.8.8 0 0 1-1.075.09l-.161-.123-9.6-7.4-9.448 7.282-.317.244a.8.8 0 0 1-1.075-.09zm-.365 11v-1.2h.4v1.2zm1.2 0v-1.2h.4v1.2zm11.606.8v-6h4v6zm7.2 0h-2.4v-6.8h-5.6v6.8h-9.6v-11.441l8.8-6.786 8.8 6.786zm.8-.8v-1.2h.4v1.2zm1.2 0v-1.2h.4v1.2zm0 0" class="cls-1" transform="translate(-489 -363)"/>
        </g>
        <path id="Rectángulo_1824" fill="none" d="M0 0H33V32H0z"/>
    </g>
</svg>
