<svg xmlns="http://www.w3.org/2000/svg" width="18" height="18" viewBox="0 0 18 18">
    <defs>
        <style>
            .cls-1{fill:#d90b0b}
        </style>
    </defs>
    <g id="ico_alert" transform="translate(-397 -270)">
        <path id="Trazado_1799" d="M406 270a9 9 0 1 0 9 9 9 9 0 0 0-9-9zm0 16.313a7.313 7.313 0 1 1 7.313-7.313 7.312 7.312 0 0 1-7.313 7.313zm0-12.366c-.645 0-1.133.336-1.133.88v4.984c0 .544.488.879 1.133.879.629 0 1.132-.349 1.132-.879v-4.984c0-.531-.5-.88-1.132-.88zm0 7.866a1.123 1.123 0 1 0 1.123 1.124 1.125 1.125 0 0 0-1.123-1.124zm0 0" class="cls-1" data-name="Trazado 1799"/>
    </g>
</svg>
