<svg xmlns="http://www.w3.org/2000/svg" width="20.269" height="20.28" viewBox="0 0 20.269 20.28">
    <defs>
        <style>
            .prefix__cls-1{fill:#67bc47}
        </style>
    </defs>
    <g id="prefix__ico_buscar" transform="translate(-105.186 -278.823)">
        <path id="prefix__Trazado_2063" d="M167.989 292.83a7.953 7.953 0 0 1-11.1-1.268 7.843 7.843 0 0 1 10.508-11.4 7.911 7.911 0 0 1 1.767 11.468 3.075 3.075 0 0 1 .306.238q2.8 2.8 5.59 5.6a.936.936 0 0 1 .329 1.066.859.859 0 0 1-1.325.393 3.053 3.053 0 0 1-.326-.3l-5.749-5.797zm1.462-6.1a6.42 6.42 0 0 0-12.838-.192 6.484 6.484 0 0 0 5.993 6.542 6.407 6.407 0 0 0 6.845-6.352z" class="prefix__cls-1" data-name="Trazado 2063" transform="translate(-50)"/>
        <path id="prefix__Trazado_2064" d="M219.341 319.3a5.187 5.187 0 0 1 3.454 1.381.751.751 0 0 1 .272.443.529.529 0 0 1-.261.419.615.615 0 0 1-.516-.1 4.477 4.477 0 0 0-1.829-1.027 4.073 4.073 0 0 0-3.825.909c-.052.045-.1.1-.151.138a.482.482 0 0 1-.7-.011.469.469 0 0 1 .053-.676 4.719 4.719 0 0 1 2.26-1.283c.402-.1.827-.128 1.243-.193z" class="prefix__cls-1" data-name="Trazado 2064" transform="translate(-106.334 -37.707)"/>
    </g>
</svg>
