<svg xmlns="http://www.w3.org/2000/svg" width="19.984" height="19.98" viewBox="0 0 19.984 19.98">
    <path id="ico_error" fill="#fff" d="M-426.3 651.136a10.026 10.026 0 0 1-10 10.022 10 10 0 0 1-9.984-9.951 9.974 9.974 0 0 1 9.931-10.028 10.01 10.01 0 0 1 10.053 9.957zm-11.94-.029c-.142.151-.22.237-.3.319q-1.258 1.267-2.518 2.533a1.272 1.272 0 0 0-.381 1.32 1.366 1.366 0 0 0 2.358.621c.843-.823 1.669-1.665 2.5-2.5.088-.088.181-.17.3-.285.1.119.172.215.255.3q1.223 1.228 2.45 2.451a1.324 1.324 0 0 0 1.188.492 1.51 1.51 0 0 0 1.226-1.046 1.254 1.254 0 0 0-.394-1.376c-.83-.837-1.666-1.668-2.5-2.5-.089-.089-.172-.184-.274-.293.38-.376.742-.729 1.1-1.089.6-.612 1.228-1.207 1.8-1.847a1.22 1.22 0 0 0-.105-1.8 1.3 1.3 0 0 0-1.841-.112c-.294.254-.564.535-.838.811-.687.693-1.37 1.391-2.067 2.1-.128-.12-.215-.2-.3-.278q-1.243-1.233-2.483-2.468a1.334 1.334 0 0 0-1.4-.433 1.376 1.376 0 0 0-.588 2.336c.935.905 1.861 1.812 2.814 2.744z" transform="translate(446.282 -641.178)"/>
</svg>
