<?xml version="1.0" encoding="UTF-8" standalone="no"?>
<svg
   xmlns:dc="http://purl.org/dc/elements/1.1/"
   xmlns:cc="http://creativecommons.org/ns#"
   xmlns:rdf="http://www.w3.org/1999/02/22-rdf-syntax-ns#"
   xmlns:svg="http://www.w3.org/2000/svg"
   xmlns="http://www.w3.org/2000/svg"
   xmlns:sodipodi="http://sodipodi.sourceforge.net/DTD/sodipodi-0.dtd"
   xmlns:inkscape="http://www.inkscape.org/namespaces/inkscape"
   width="26.63"
   height="26.639"
   viewBox="0 0 26.63 26.639"
   version="1.1"
   id="svg29"
   sodipodi:docname="ico_configuracion_verde.svg"
   inkscape:version="1.0.1 (3bc2e813f5, 2020-09-07)">
  <metadata
     id="metadata35">
    <rdf:RDF>
      <cc:Work
         rdf:about="">
        <dc:format>image/svg+xml</dc:format>
        <dc:type
           rdf:resource="http://purl.org/dc/dcmitype/StillImage" />
        <dc:title></dc:title>
      </cc:Work>
    </rdf:RDF>
  </metadata>
  <defs
     id="defs33" />
  <sodipodi:namedview
     pagecolor="#0affff"
     bordercolor="#666666"
     borderopacity="1"
     objecttolerance="10"
     gridtolerance="10"
     guidetolerance="10"
     inkscape:pageopacity="0"
     inkscape:pageshadow="2"
     inkscape:window-width="1875"
     inkscape:window-height="1043"
     id="namedview31"
     showgrid="false"
     inkscape:zoom="24.437854"
     inkscape:cx="4.7626939"
     inkscape:cy="13.3195"
     inkscape:window-x="0"
     inkscape:window-y="0"
     inkscape:window-maximized="1"
     inkscape:current-layer="svg29" />
  <path
     id="Icon_ionic-ios-settings"
     data-name="Icon ionic-ios-settings"
     d="M27.314,16.933a3.2,3.2,0,0,1,2.053-2.985,12.683,12.683,0,0,0-1.535-3.7,3.243,3.243,0,0,1-1.3.278,3.193,3.193,0,0,1-2.92-4.494A12.645,12.645,0,0,0,19.918,4.5a3.2,3.2,0,0,1-5.971,0,12.683,12.683,0,0,0-3.7,1.535,3.193,3.193,0,0,1-2.92,4.494,3.137,3.137,0,0,1-1.3-.278,12.964,12.964,0,0,0-1.528,3.7,3.2,3.2,0,0,1,.006,5.971,12.683,12.683,0,0,0,1.535,3.7,3.194,3.194,0,0,1,4.216,4.216,12.757,12.757,0,0,0,3.7,1.535,3.191,3.191,0,0,1,5.958,0,12.683,12.683,0,0,0,3.7-1.535,3.2,3.2,0,0,1,4.216-4.216,12.757,12.757,0,0,0,1.535-3.7A3.215,3.215,0,0,1,27.314,16.933ZM16.991,22.107a5.18,5.18,0,1,1,5.18-5.18A5.179,5.179,0,0,1,16.991,22.107Z"
     transform="translate(-3.618 -3.617)"
     fill="none"
     stroke="#fff"
     stroke-width="1.5"
     style="stroke:#67bc47;stroke-opacity:1" />
</svg>
