<svg xmlns="http://www.w3.org/2000/svg" width="26.63" height="26.639" viewBox="0 0 26.63 26.639">
  <path id="Icon_ionic-ios-settings" data-name="Icon ionic-ios-settings" d="M27.314,16.933a3.2,3.2,0,0,1,2.053-2.985,12.683,12.683,0,0,0-1.535-3.7,3.243,3.243,0,0,1-1.3.278,3.193,3.193,0,0,1-2.92-4.494A12.645,12.645,0,0,0,19.918,4.5a3.2,3.2,0,0,1-5.971,0,12.683,12.683,0,0,0-3.7,1.535,3.193,3.193,0,0,1-2.92,4.494,3.137,3.137,0,0,1-1.3-.278,12.964,12.964,0,0,0-1.528,3.7,3.2,3.2,0,0,1,.006,5.971,12.683,12.683,0,0,0,1.535,3.7,3.194,3.194,0,0,1,4.216,4.216,12.757,12.757,0,0,0,3.7,1.535,3.191,3.191,0,0,1,5.958,0,12.683,12.683,0,0,0,3.7-1.535,3.2,3.2,0,0,1,4.216-4.216,12.757,12.757,0,0,0,1.535-3.7A3.215,3.215,0,0,1,27.314,16.933ZM16.991,22.107a5.18,5.18,0,1,1,5.18-5.18A5.179,5.179,0,0,1,16.991,22.107Z" transform="translate(-3.618 -3.617)" fill="none" stroke="#fff" stroke-width="1.5"/>
</svg>
