<svg xmlns="http://www.w3.org/2000/svg" width="15.141" height="11.38" viewBox="0 0 15.141 11.38">
    <path id="prefix__ico_check" d="M337.272 702.815a5.872 5.872 0 0 1-.728 1.219c-.963.975-1.93 1.946-3.2 3.212-1.338 1.339-2.98 2.968-4.624 4.6a1.283 1.283 0 0 1-2.032.064q-2.073-2.06-4.081-4.186a1.542 1.542 0 0 1-.239-1.948 1.711 1.711 0 0 1 1.8-.854 2.531 2.531 0 0 1 1.03.591c.669.6 1.292 1.251 1.931 1.884.581.574.631.575 1.228-.022 1.909-1.907 3.823-3.81 5.72-5.728a1.848 1.848 0 0 1 1.728-.616 1.927 1.927 0 0 1 1.467 1.784z" transform="translate(-322.131 -700.995)" style="fill:#67bc47"/>
</svg>
