<?xml version="1.0" encoding="UTF-8" standalone="no"?>
<!-- Created with Inkscape (http://www.inkscape.org/) -->

<svg
   xmlns:dc="http://purl.org/dc/elements/1.1/"
   xmlns:cc="http://creativecommons.org/ns#"
   xmlns:rdf="http://www.w3.org/1999/02/22-rdf-syntax-ns#"
   xmlns:svg="http://www.w3.org/2000/svg"
   xmlns="http://www.w3.org/2000/svg"
   xmlns:sodipodi="http://sodipodi.sourceforge.net/DTD/sodipodi-0.dtd"
   xmlns:inkscape="http://www.inkscape.org/namespaces/inkscape"
   width="210mm"
   height="297mm"
   viewBox="0 0 210 297"
   version="1.1"
   id="svg8"
   inkscape:version="0.92.4 (5da689c313, 2019-01-14)"
   sodipodi:docname="ico_checkbox_white.svg">
  <defs
     id="defs2" />
  <sodipodi:namedview
     id="base"
     pagecolor="#ffffff"
     bordercolor="#666666"
     borderopacity="1.0"
     inkscape:pageopacity="0"
     inkscape:pageshadow="2"
     inkscape:zoom="12.1625"
     inkscape:cx="406.28346"
     inkscape:cy="501.62367"
     inkscape:document-units="mm"
     inkscape:current-layer="layer1"
     showgrid="false"
     inkscape:pagecheckerboard="true"
     inkscape:window-width="1366"
     inkscape:window-height="705"
     inkscape:window-x="2552"
     inkscape:window-y="224"
     inkscape:window-maximized="1" />
  <metadata
     id="metadata5">
    <rdf:RDF>
      <cc:Work
         rdf:about="">
        <dc:format>image/svg+xml</dc:format>
        <dc:type
           rdf:resource="http://purl.org/dc/dcmitype/StillImage" />
        <dc:title></dc:title>
      </cc:Work>
    </rdf:RDF>
  </metadata>
  <g
     inkscape:label="Capa 1"
     inkscape:groupmode="layer"
     id="layer1">
    <path
       style="fill:#ffffff;stroke-width:0.26458332"
       d="m 109.01173,163.34035 a 1.5536333,1.5536333 0 0 1 -0.19262,0.32253 c -0.25479,0.25797 -0.51065,0.51488 -0.84667,0.84984 -0.35401,0.35428 -0.78845,0.78528 -1.22343,1.21708 a 0.33946042,0.33946042 0 0 1 -0.53763,0.0169 q -0.54848,-0.54504 -1.07977,-1.10755 a 0.4079875,0.4079875 0 0 1 -0.0632,-0.51541 0.45270208,0.45270208 0 0 1 0.47625,-0.22595 0.66966042,0.66966042 0 0 1 0.27252,0.15637 c 0.177,0.15875 0.34184,0.33099 0.51091,0.49847 0.15372,0.15187 0.16695,0.15214 0.32491,-0.006 0.50509,-0.50456 1.0115,-1.00806 1.51341,-1.51553 a 0.48895,0.48895 0 0 1 0.4572,-0.16298 0.50985208,0.50985208 0 0 1 0.38815,0.47201 z"
       id="prefix__ico_check-0"
       inkscape:connector-curvature="0"
       inkscape:export-xdpi="96"
       inkscape:export-ydpi="96" />
  </g>
</svg>
