<svg xmlns="http://www.w3.org/2000/svg" width="20.796" height="20.798" viewBox="0 0 20.796 20.798">
    <defs>
        <style>
            .prefix__cls-1{fill:#f89a3b}
        </style>
    </defs>
    <g id="prefix__ico_alerta" transform="translate(-130.653 -176.414)">
        <path id="prefix__Trazado_2053" d="M141.018 197.212a10.4 10.4 0 1 1 10.431-10.351 10.394 10.394 0 0 1-10.431 10.351zm8.818-10.353a8.781 8.781 0 1 0-8.836 8.729 8.768 8.768 0 0 0 8.836-8.729z" class="prefix__cls-1" data-name="Trazado 2053"/>
        <path id="prefix__Trazado_2054" d="M246.325 234.543c-.055-1.025-.113-2.049-.166-3.074a1.386 1.386 0 0 1 1.333-1.478 1.353 1.353 0 0 1 1.428 1.375c-.026 1.181-.108 2.361-.169 3.541-.045.869-.08 1.739-.148 2.606a2.215 2.215 0 0 1-.213.853.972.972 0 0 1-1.108.451 1.039 1.039 0 0 1-.773-1.046c-.064-1.071-.123-2.152-.184-3.228z" class="prefix__cls-1" data-name="Trazado 2054" transform="translate(-106.491 -49.396)"/>
        <path id="prefix__Trazado_2055" d="M251.079 360.484a1.19 1.19 0 0 1-1.145 1.186 1.221 1.221 0 0 1-1.2-1.181 1.183 1.183 0 0 1 1.2-1.169 1.151 1.151 0 0 1 1.145 1.164z" class="prefix__cls-1" data-name="Trazado 2055" transform="translate(-108.863 -168.634)"/>
    </g>
</svg>
