<svg xmlns="http://www.w3.org/2000/svg" width="74.078" height="81.362" viewBox="0 0 74.078 81.362">
    <defs>
        <style>
            .prefix__cls-5,.prefix__cls-6{fill-rule:evenodd}.prefix__cls-3,.prefix__cls-5{fill:#fff}.prefix__cls-4,.prefix__cls-6{fill:#004e37}.prefix__cls-8{fill:#18a7c5}.prefix__cls-9{fill:#8fd0e3}
        </style>
    </defs>
    <g id="prefix__ico_hogares" transform="translate(-1085.767 -63.908)">
        <g id="prefix__Grupo_1980" data-name="Grupo 1980" transform="translate(1085.767 71.192)">
            <path id="prefix__Trazado_2619" d="M1122.806 86.45a37.039 37.039 0 1 1-37.039 37.039 37.039 37.039 0 0 1 37.039-37.039z" data-name="Trazado 2619" transform="translate(-1085.767 -86.45)" style="fill-rule:evenodd;fill:#e7eaea"/>
        </g>
        <g id="prefix__Grupo_1981" data-name="Grupo 1981" transform="translate(1092.827 77.674)">
            <path id="prefix__Trazado_2620" d="M1138.172 106.509a30.557 30.557 0 1 1-30.557 30.557 30.557 30.557 0 0 1 30.557-30.557z" data-name="Trazado 2620" transform="translate(-1107.615 -106.509)" style="fill:#bdd63f;fill-rule:evenodd"/>
        </g>
        <g id="prefix__Grupo_1982" data-name="Grupo 1982" transform="translate(1140.68 78.072)">
            <path id="prefix__Trazado_2621" d="M1265.879 111.582H1265v-.084a1.483 1.483 0 0 0-2.5-1.083 2.056 2.056 0 0 0-3.916 1.167h-.157a1.3 1.3 0 0 0 0 2.593h7.446a1.3 1.3 0 0 0 0-2.593z" class="prefix__cls-3" data-name="Trazado 2621" transform="translate(-1256.674 -108.71)"/>
            <path id="prefix__Trazado_2622" d="M1257.463 113.668a1.76 1.76 0 0 1-.464-3.457l.124-.034.011-.128a2.522 2.522 0 0 1 4.469-1.379l.086.105.125-.052a1.93 1.93 0 0 1 .735-.144 1.953 1.953 0 0 1 1.879 1.434l.037.135h.445a1.759 1.759 0 0 1 0 3.519zm0-2.593a.833.833 0 0 0 0 1.666h7.446a.833.833 0 0 0 0-1.666h-.88a.463.463 0 0 1-.463-.479v-.049a1.033 1.033 0 0 0-.3-.743 1.015 1.015 0 0 0-1.416-.022.46.46 0 0 1-.316.125.471.471 0 0 1-.1-.01.462.462 0 0 1-.33-.269 1.6 1.6 0 0 0-3.06.632 1.575 1.575 0 0 0 .026.273.463.463 0 0 1-.457.541z" class="prefix__cls-4" data-name="Trazado 2622" transform="translate(-1255.704 -107.74)"/>
        </g>
        <g id="prefix__Grupo_1995" data-name="Grupo 1995" transform="translate(1087.761 63.908)">
            <path id="prefix__Trazado_2623" d="M1124.313 184.032a7.2 7.2 0 1 1-14.408 0c0-6.145 7.2-15.213 7.2-15.213s7.208 9.281 7.208 15.213z" class="prefix__cls-5" data-name="Trazado 2623" transform="translate(-1104.099 -134.919)"/>
            <path id="prefix__Trazado_2624" d="M1116.138 190.729a7.675 7.675 0 0 1-7.666-7.667c0-6.234 7.005-15.125 7.3-15.5a.463.463 0 0 1 .729 0c.3.384 7.3 9.483 7.3 15.5a7.676 7.676 0 0 1-7.663 7.667zm-.152-21.914c-1.546 2.082-6.588 9.262-6.588 14.247a6.741 6.741 0 0 0 13.482 0c0-4.819-5.051-12.122-6.6-14.246l-.147-.2z" class="prefix__cls-6" data-name="Trazado 2624" transform="translate(-1103.13 -133.949)"/>
            <path id="prefix__Trazado_2625" d="M1181.98 72.549h-.721a3.7 3.7 0 0 0-5.4-4.336 5.129 5.129 0 0 0-9.735 2.237 2.448 2.448 0 0 0-3.092 2.1h-4.111a3.111 3.111 0 0 0 0 6.222h23.055a3.111 3.111 0 0 0 0-6.222z" class="prefix__cls-3" data-name="Trazado 2625" transform="translate(-1135.174 -64.878)"/>
            <path id="prefix__Trazado_2626" d="M1157.955 78.264a3.574 3.574 0 0 1 0-7.148h3.723l.039-.13a2.9 2.9 0 0 1 2.788-2.059h.216l.021-.162a5.611 5.611 0 0 1 5.547-4.861 5.553 5.553 0 0 1 4.711 2.589l.082.129.142-.057a4.119 4.119 0 0 1 1.545-.3 4.171 4.171 0 0 1 4.167 4.166 4.113 4.113 0 0 1-.028.481l-.024.2h.2a3.574 3.574 0 0 1-.076 7.147zm0-6.222a2.648 2.648 0 0 0 0 5.3h23.055a2.648 2.648 0 0 0 0-5.3h-.721a.464.464 0 0 1-.44-.607 3.235 3.235 0 0 0-4.721-3.793.464.464 0 0 1-.236.065.458.458 0 0 1-.132-.019.465.465 0 0 1-.283-.239 4.666 4.666 0 0 0-8.856 2.035.464.464 0 0 1-.585.445 2.069 2.069 0 0 0-.544-.074 1.979 1.979 0 0 0-1.965 1.776.463.463 0 0 1-.46.413z" class="prefix__cls-4" data-name="Trazado 2626" transform="translate(-1134.204 -63.908)"/>
            <g id="prefix__Grupo_1983" data-name="Grupo 1983" transform="translate(16.418 9.207)">
                <path id="prefix__Trazado_2627" d="M1182.329 119.761v-7.767h2.984L1164.8 92.4l-20.287 19.724h2.2l.158 7.685-4.124 5.755 1.758.08.167 15.7 37.834.1.344-15.516 2.323-.121h1.56z" class="prefix__cls-5" data-name="Trazado 2627" transform="translate(-1142.748 -92.402)"/>
            </g>
            <g id="prefix__Grupo_1984" data-name="Grupo 1984" transform="translate(53.874 49.182)">
                <path id="prefix__Rectángulo_2001" d="M0 0H2.504V7.516H0z" data-name="Rectángulo 2001" style="fill:#0072a3"/>
            </g>
            <path id="prefix__Rectángulo_2002" d="M0 0H2.606V15.715H0z" class="prefix__cls-3" data-name="Rectángulo 2002" transform="translate(33.908 42.522)"/>
            <path id="prefix__Rectángulo_2003" d="M0 0H2.445V14.456H0z" class="prefix__cls-3" data-name="Rectángulo 2003" transform="translate(53.837 42.544)"/>
            <path id="prefix__Rectángulo_2004" d="M0 0H29.614V2.249H0z" class="prefix__cls-3" data-name="Rectángulo 2004" transform="translate(36.64 55.975)"/>
            <path id="prefix__Trazado_2628" d="M1173.788 154.859a.464.464 0 0 1-.463-.463v-7.126a.464.464 0 0 1 .463-.463h6.455a.464.464 0 0 1 .463.463v7.13a.464.464 0 0 1-.463.463zm3.529-.926h2.463v-2.8h-2.463zm-3.066 0h2.464v-2.8h-2.464zm3.066-3.4h2.463v-2.8h-2.463zm-3.066 0h2.464v-2.8h-2.464z" class="prefix__cls-4" data-name="Trazado 2628" transform="translate(-1147.026 -120.019)"/>
            <path id="prefix__Trazado_2629" d="M1224.33 154.859a.464.464 0 0 1-.463-.463v-7.126a.464.464 0 0 1 .463-.463h6.453a.463.463 0 0 1 .463.463v7.13a.463.463 0 0 1-.463.463zm3.529-.926h2.461v-2.8h-2.461zm-3.066 0h2.463v-2.8h-2.463zm3.066-3.4h2.461v-2.8h-2.461zm-3.066 0h2.463v-2.8h-2.463z" class="prefix__cls-4" data-name="Trazado 2629" transform="translate(-1181.236 -120.019)"/>
            <path id="prefix__Trazado_2630" d="M1158.712 140.753a.464.464 0 0 1-.463-.463v-1.742h-12.1v1.742a.463.463 0 0 1-.463.463h-2.605a.463.463 0 0 1-.463-.463v-15.3h-1.658a.463.463 0 0 1-.374-.737l4.335-5.911v-7.163l-2.213.019a.463.463 0 0 1-.323-.8l20.473-19.553a.463.463 0 0 1 .64 0l20.474 19.553a.463.463 0 0 1-.318.8l-2.218.006v7.215l4.279 5.835a.463.463 0 0 1-.374.737h-3.789v12.578h9.51a.463.463 0 0 1 .463.463v2.25a.463.463 0 0 1-.463.463h-29.648a.46.46 0 0 1-.092.009zm.463-.926h1.68v-14.79h-1.68zm-15.633 0h1.679v-7.414h-1.679zm18.365-.013h28.693v-1.324h-28.688zm-15.76-1.869h12.1V136.5h-12.1zm32.957-.38h1.519v-12.579h-1.523zm-17.324 0h16.4v-12.579h-16.4zm-9.522-11.222a3.216 3.216 0 0 1 3.2 2.942.672.672 0 0 1 .011.112v6.5h2.783v-10.91h-12.1V135.9h2.9v-6.5a.463.463 0 0 1 .013-.11v-.032a3.149 3.149 0 0 1 3.194-2.916zm0 .926a2.224 2.224 0 0 0-2.274 2.133.446.446 0 0 1-.01.089v5.983h4.568v-5.98a.887.887 0 0 1-.008-.093 2.275 2.275 0 0 0-2.275-2.133zm-8.716 4.219h1.679v-6.449h-1.679zm2.076-12.534l-3.746 5.107h42.553l-3.746-5.107h-35.061zm34.889-.927V111.2h-.818a.463.463 0 0 1-.322-.129l-3.867-3.71h-24.7l-3.837 3.666a.463.463 0 0 1-.316.128l-.8.007v6.859h34.661zm-17.331-23.588a.462.462 0 0 1 .321.129l16.376 15.711 2.625-.007-19.322-18.452-19.307 18.439 2.59-.022 16.4-15.669a.462.462 0 0 1 .318-.13zm-11.743 12.325h23.438l-1.71-1.64h-20.011zm2.347-2.243h18.753l-1.743-1.673h-15.259zm2.381-2.276h14l-1.751-1.68h-10.497zm2.382-2.276h9.244l-1.743-1.673h-5.75zm2.381-2.276h4.492l-2.241-2.15z" class="prefix__cls-4" data-name="Trazado 2630" transform="translate(-1124.805 -82.053)"/>
            <path id="prefix__Trazado_2631" d="M1165.907 184.9a2.265 2.265 0 0 1-1.228-.357l-.1-.064-.1.064a2.29 2.29 0 0 1-2.479-.015l-.1-.066-.1.067a2.262 2.262 0 0 1-1.25.372 2.238 2.238 0 0 1-1.556-.614.3.3 0 1 1 .417-.436 1.666 1.666 0 0 0 2.279 0 .326.326 0 0 1 .079-.047l.014-.007.025-.017h.037l.05-.009.047.009a.4.4 0 0 1 .071.013s.007.007.019.013a.354.354 0 0 1 .078.046 1.628 1.628 0 0 0 1.131.447 1.668 1.668 0 0 0 1.046-.366l.019-.015.021-.03.02-.034a.285.285 0 0 1 .207-.08h.045a.294.294 0 0 1 .216.088l.018.035.014.021.02.016a1.666 1.666 0 0 0 1.044.366 1.63 1.63 0 0 0 1.131-.448.3.3 0 1 1 .417.436 2.238 2.238 0 0 1-1.552.612z" class="prefix__cls-4" data-name="Trazado 2631" transform="translate(-1137.263 -145.034)"/>
            <path id="prefix__Trazado_2632" d="M1248.731 182.445a2.27 2.27 0 0 1-1.229-.357l-.1-.063-.1.063a2.267 2.267 0 0 1-1.229.357 2.24 2.24 0 0 1-1.557-.614.3.3 0 0 1 .417-.436 1.629 1.629 0 0 0 1.132.448 1.666 1.666 0 0 0 1.044-.365l.019-.015.022-.03.02-.035a.288.288 0 0 1 .208-.08h.047a.291.291 0 0 1 .215.088l.02.037.014.02.019.015a1.665 1.665 0 0 0 1.044.365 1.628 1.628 0 0 0 1.132-.448.3.3 0 0 1 .426.01.3.3 0 0 1-.01.426 2.24 2.24 0 0 1-1.554.614z" class="prefix__cls-4" data-name="Trazado 2632" transform="translate(-1195.152 -143.375)"/>
            <path id="prefix__Trazado_2633" d="M1192.452 187.439a2.24 2.24 0 0 1-1.556-.613.3.3 0 0 1 .416-.437 1.668 1.668 0 0 0 2.281 0 .3.3 0 1 1 .416.437 2.242 2.242 0 0 1-1.557.613z" class="prefix__cls-4" data-name="Trazado 2633" transform="translate(-1158.856 -146.755)"/>
            <path id="prefix__Trazado_2634" d="M1236.171 188.362a2.24 2.24 0 0 1-1.556-.613.3.3 0 0 1 .416-.437 1.667 1.667 0 0 0 2.28 0 .3.3 0 1 1 .417.436 2.24 2.24 0 0 1-1.557.614z" class="prefix__cls-4" data-name="Trazado 2634" transform="translate(-1188.448 -147.38)"/>
            <path id="prefix__Trazado_2635" d="M1215.027 185.142a2.263 2.263 0 0 1-1.25-.372l-.1-.066-.1.066a2.282 2.282 0 0 1-2.807-.242.3.3 0 0 1-.01-.426.3.3 0 0 1 .426-.01 1.668 1.668 0 0 0 2.281 0 .28.28 0 0 1 .058-.035.372.372 0 0 0 .05-.03h.026l.06-.011.052.006a.4.4 0 0 1 .076.014s.008.008.021.014a.374.374 0 0 1 .074.044 1.668 1.668 0 0 0 2.28 0 .3.3 0 1 1 .416.437 2.241 2.241 0 0 1-1.553.611z" class="prefix__cls-4" data-name="Trazado 2635" transform="translate(-1172.308 -145.2)"/>
            <path id="prefix__Trazado_2636" d="M1217.444 208.618a.463.463 0 0 1 0-.926h.98v-6.682a.464.464 0 0 1 .463-.463h6.455a.463.463 0 0 1 .463.463v6.682h.981a.463.463 0 0 1 0 .926zm4.972-.945h2.463v-2.8h-2.463zm-3.066 0h2.463v-2.8h-2.463zm3.066-3.4h2.463v-2.8h-2.463zm-3.066 0h2.463v-2.8h-2.463z" class="prefix__cls-4" data-name="Trazado 2636" transform="translate(-1176.575 -156.394)"/>
            <path id="prefix__Trazado_2637" d="M1245.821 221.277h8.079a1.277 1.277 0 0 0 1.252-1.369V215.7a1.316 1.316 0 0 0-1.377-1.587h-1.117v-.015h-1.558a2.431 2.431 0 0 1-2.613-2.613v-1.645h-.006v-.316a1.281 1.281 0 0 0-1.377-1.377h-1.387v-2.311h2.455a2.432 2.432 0 0 1 2.614 2.614v1.38h.006v.58s.113 1.376 1.094 1.376h1.147v.016h1.814a2.432 2.432 0 0 1 2.614 2.613v6.571a2.432 2.432 0 0 1-2.614 2.613h-8.079a1.277 1.277 0 0 0-1.252 1.369v3.132s.026 1.677 0 2.235c-.035.759-.207 2.257-2.035 2.257-.868 0-7.8-.018-7.8-.018l-.007-2.236h6.538c1.186 0 1-1.566 1-1.566v-4.882a2.432 2.432 0 0 1 2.609-2.613z" class="prefix__cls-3" data-name="Trazado 2637" transform="translate(-1189.226 -159.972)"/>
            <g id="prefix__Grupo_1988" data-name="Grupo 1988" transform="translate(47.343 75.58)">
                <g id="prefix__Grupo_1985" data-name="Grupo 1985">
                    <path id="prefix__Línea_60" d="M0 0L1.15 0" class="prefix__cls-8" data-name="Línea 60"/>
                </g>
                <g id="prefix__Grupo_1986" data-name="Grupo 1986" transform="translate(3.732)">
                    <path id="prefix__Línea_61" d="M0 0L0.463 0" class="prefix__cls-8" data-name="Línea 61"/>
                </g>
                <g id="prefix__Grupo_1987" data-name="Grupo 1987" transform="translate(2.314)">
                    <path id="prefix__Línea_62" d="M0 0L0.701 0" class="prefix__cls-8" data-name="Línea 62"/>
                </g>
            </g>
            <g id="prefix__Grupo_1992" data-name="Grupo 1992" transform="translate(46.611 75.989)">
                <g id="prefix__Grupo_1989" data-name="Grupo 1989">
                    <path id="prefix__Línea_63" d="M0 0.268L1.441 0" class="prefix__cls-9" data-name="Línea 63"/>
                </g>
                <g id="prefix__Grupo_1990" data-name="Grupo 1990" transform="translate(3.13)">
                    <path id="prefix__Línea_64" d="M0 0L0.449 0" class="prefix__cls-9" data-name="Línea 64"/>
                </g>
                <g id="prefix__Grupo_1991" data-name="Grupo 1991" transform="translate(1.756)">
                    <path id="prefix__Línea_65" d="M0 0L0.68 0" class="prefix__cls-9" data-name="Línea 65"/>
                </g>
            </g>
            <path id="prefix__Trazado_2638" d="M1210.874 265.779a6.9 6.9 0 0 0-6.9-6.866h-1.811a4.35 4.35 0 0 0-2.591-1.691v-1.454a2.7 2.7 0 0 0 1.262-1.157h1.269a1.926 1.926 0 1 0 0-2.06h-1.045a2.686 2.686 0 0 0-5.152 0h-1.045a1.926 1.926 0 1 0 0 2.06h1.269a2.694 2.694 0 0 0 1.263 1.157v1.541a4.356 4.356 0 0 0-2.328 1.7v-.051h-3.36v4.523h3.1a4.343 4.343 0 0 0 7.7-.01h1.27a2.749 2.749 0 0 1 2.712 2.308h-.63v1.838h5.733v-1.838z" class="prefix__cls-3" data-name="Trazado 2638" transform="translate(-1159.203 -190.289)"/>
            <path id="prefix__Rectángulo_2005" d="M0 0H2.016V6.18H0z" class="prefix__cls-3" data-name="Rectángulo 2005" transform="translate(30.446 67.742)"/>
            <path id="prefix__Trazado_2639" d="M1134.72 259.048h-2.956a4.193 4.193 0 0 1-4.507-4.506v-10.015l3.983-.007v8.17a2.209 2.209 0 0 0 2.374 2.373h12.6l-.008 3.985h-11.486z" class="prefix__cls-3" data-name="Trazado 2639" transform="translate(-1115.843 -186.158)"/>
            <g id="prefix__Grupo_1993" data-name="Grupo 1993" transform="translate(5.052 53.124)">
                <path id="prefix__Trazado_2640" d="M1120.02 231.688a2.588 2.588 0 0 0-2.279-1.414 2.512 2.512 0 0 0-1.643.629l-.251.09a4.347 4.347 0 0 0-3.961-2.684 4.616 4.616 0 0 0-4.313 4.775l12.773-.067a2.852 2.852 0 0 0-.326-1.329z" class="prefix__cls-5" data-name="Trazado 2640" transform="translate(-1107.573 -228.309)"/>
            </g>
            <g id="prefix__Grupo_1994" data-name="Grupo 1994" transform="translate(6.808 54.552)">
                <path id="prefix__Trazado_2641" d="M1138.8 237.923a.57.57 0 1 0 .539.569.556.556 0 0 0-.539-.569z" class="prefix__cls-6" data-name="Trazado 2641" transform="translate(-1130.099 -236.245)"/>
                <path id="prefix__Trazado_2642" d="M1113.546 237.386a.57.57 0 1 0 .54.569.555.555 0 0 0-.54-.569z" class="prefix__cls-6" data-name="Trazado 2642" transform="translate(-1113.006 -235.881)"/>
                <path id="prefix__Trazado_2643" d="M1121.068 232.73a.569.569 0 1 0 .54.569.555.555 0 0 0-.54-.569z" class="prefix__cls-6" data-name="Trazado 2643" transform="translate(-1118.098 -232.73)"/>
                <path id="prefix__Trazado_2644" d="M1124.83 237.028a.569.569 0 1 0 .54.569.555.555 0 0 0-.54-.569z" class="prefix__cls-6" data-name="Trazado 2644" transform="translate(-1120.644 -235.639)"/>
            </g>
            <path id="prefix__Trazado_2645" d="M1138.594 236.79a.463.463 0 0 1-.463-.463v-1.839a.46.46 0 0 1 .282-.426l.189-.08-.1-.179a2.279 2.279 0 0 0-1.989-1.16h-1l-.054.086a4.807 4.807 0 0 1-8.14.009l-.054-.085h-2.565v.267a.3.3 0 0 1-.3.3h-2.016a.3.3 0 0 1-.3-.3v-.568h-14.224a4.872 4.872 0 0 1-3.715-1.4 5.232 5.232 0 0 1-1.256-3.581v-9.658H1092.4a.463.463 0 0 1 0-.926h65v-2.045a.726.726 0 0 1 0-.076v-.043a1.143 1.143 0 0 0-.2-.8 1.008 1.008 0 0 0-.708-.222h-1.118a.455.455 0 0 1-.1-.012H1153.813a3.014 3.014 0 0 1-2.3-.87 3.256 3.256 0 0 1-.781-2.214v-1.551c0-.048-.007-.067-.007-.087v-.317a.987.987 0 0 0-.227-.684.911.911 0 0 0-.686-.229h-1.386a.462.462 0 0 1-.463-.463v-2.31a.467.467 0 0 1 .463-.463h2.456a3.006 3.006 0 0 1 2.3.873 3.252 3.252 0 0 1 .781 2.212v1.282c0 .043.006.068.006.09v.546c.043.3.186.949.633.949h1.147a.486.486 0 0 1 .1.009H1157.562a3.006 3.006 0 0 1 2.3.873 3.272 3.272 0 0 1 .781 2.215V220a3.275 3.275 0 0 1-.781 2.221 3.007 3.007 0 0 1-2.3.869h-8.062a.8.8 0 0 0-.6.242 1.034 1.034 0 0 0-.215.626v3.173c0 .1.026 1.694 0 2.257-.055 1.23-.534 2.7-2.5 2.7h-2.54l.079.241a6.959 6.959 0 0 1 .312 1.539l.015.167h.268a.463.463 0 0 1 .463.463v1.839a.463.463 0 0 1-.463.463zm.958-1.977a.461.461 0 0 1-.315.139h-.18v.909h4.807v-.913h-.255a.465.465 0 0 1-.463-.461 6.374 6.374 0 0 0-.436-2.3 6.092 6.092 0 0 0-.716-1.335 6.252 6.252 0 0 0-.831-.977 6.385 6.385 0 0 0-2.055-1.33 6.306 6.306 0 0 0-2.395-.466h-1.81a.461.461 0 0 1-.375-.19 3.885 3.885 0 0 0-2.313-1.512.466.466 0 0 1-.366-.451v-1.454a.464.464 0 0 1 .276-.424 2.247 2.247 0 0 0 1.046-.958.46.46 0 0 1 .4-.238h1.267a.465.465 0 0 1 .391.212 1.463 1.463 0 1 0 0-1.56.465.465 0 0 1-.392.213h-1.037a.459.459 0 0 1-.445-.331 2.221 2.221 0 0 0-4.262 0 .465.465 0 0 1-.445.33h-1.048a.469.469 0 0 1-.392-.216 1.463 1.463 0 1 0 0 1.567.469.469 0 0 1 .391-.216h1.27a.46.46 0 0 1 .4.238 2.245 2.245 0 0 0 1.046.958.464.464 0 0 1 .276.424v1.541a.462.462 0 0 1-.327.441 3.917 3.917 0 0 0-2.083 1.519.455.455 0 0 1-.38.2.462.462 0 0 1-.139-.021.172.172 0 0 1-.031-.011l-.039-.019h-2.689v3.6h2.632a.464.464 0 0 1 .41.248 3.877 3.877 0 0 0 6.878-.011.466.466 0 0 1 .413-.247h1.27a3.16 3.16 0 0 1 1.191.229 3.094 3.094 0 0 1 .783.447 3.217 3.217 0 0 1 1.177 1.938l.028.149h.779a.14.14 0 0 1 .14.14.142.142 0 0 1-.14.14h-.866zm-16.865-7.175l.024.042a.458.458 0 0 1 .063.227l-.009 3.987a.458.458 0 0 1-.056.214l-.022.041v.472h1.441l-.111-.256a.435.435 0 0 1-.033-.173v-4.524a.448.448 0 0 1 .082-.261l.035-.048v-.313h-1.414zm-18.871-9.805v9.592a4.355 4.355 0 0 0 1.013 2.908 4 4 0 0 0 3.032 1.095h13.981v-3.058h-12.133a2.768 2.768 0 0 1-2.115-.8 2.933 2.933 0 0 1-.724-2.041v-7.7zm38.79 12.291a7.2 7.2 0 0 1 .593.929l.052.1 2.944.007c1.045 0 1.517-.542 1.576-1.813.019-.448 0-1.67 0-2.174v-3.163a1.961 1.961 0 0 1 .442-1.288 1.738 1.738 0 0 1 1.247-.555h8.106a2.123 2.123 0 0 0 1.62-.578 2.267 2.267 0 0 0 .531-1.534V213.4a2.305 2.305 0 0 0-.539-1.542 2.134 2.134 0 0 0-1.612-.571h-1.813a.5.5 0 0 1-.1-.009h-1.053c-.968 0-1.485-.935-1.556-1.8v-.525c0-.049-.006-.07-.006-.094v-1.422l-.013.03a2.16 2.16 0 0 0-.526-1.569 2.135 2.135 0 0 0-1.613-.571h-1.992v1.384h.924a1.78 1.78 0 0 1 1.368.529 1.907 1.907 0 0 1 .472 1.319v.261a.278.278 0 0 1 0 .046v1.687a2.287 2.287 0 0 0 .539 1.538 2.134 2.134 0 0 0 1.612.571h1.561a.475.475 0 0 1 .1.012h1.019a1.819 1.819 0 0 1 1.374.506 1.9 1.9 0 0 1 .469 1.315h-.054l.052.227v4.2a1.919 1.919 0 0 1-.442 1.287 1.737 1.737 0 0 1-1.247.556h-8.106a2.123 2.123 0 0 0-1.62.578 2.312 2.312 0 0 0-.531 1.534v4.885a2.293 2.293 0 0 1-.416 1.621 1.357 1.357 0 0 1-1.046.442h-2.536zm-8.827-6.263a3.218 3.218 0 0 1-.917.85l-.087.054v.81l.126.042a4.8 4.8 0 0 1 2.179 1.478l.055.066h1.578a7.341 7.341 0 0 1 4.694 1.7l.051.043h3.463a.419.419 0 0 0 .352-.134 1.418 1.418 0 0 0 .189-.914.393.393 0 0 1-.005-.056v-4.866a3.263 3.263 0 0 1 .781-2.221 3 3 0 0 1 2.3-.869h8.059a.8.8 0 0 0 .6-.241 1.034 1.034 0 0 0 .215-.627v-1.256h-49.6v7.854a2.041 2.041 0 0 0 .478 1.364 1.9 1.9 0 0 0 1.434.506h12.373v-.7a.3.3 0 0 1 .3-.3h2.016a.3.3 0 0 1 .3.3v.461h2.907l.055-.067a4.861 4.861 0 0 1 1.893-1.4l.113-.047v-.923l-.087-.054a3.275 3.275 0 0 1-.921-.85l-.055-.075h-.765l-.055.063a2.389 2.389 0 1 1 0-3.115l.055.064h.475l.049-.106a3.15 3.15 0 0 1 5.711 0l.05.105h.475l.055-.064a2.389 2.389 0 1 1 0 3.115l-.055-.064h-.769z" class="prefix__cls-4" data-name="Trazado 2645" transform="translate(-1091.939 -159)"/>
            <path id="prefix__Trazado_2646" d="M1245.561 297.78a.14.14 0 1 1 0-.28h.725a.14.14 0 0 1 0 .28z" data-name="Trazado 2646" transform="translate(-1195.826 -222.018)" style="fill:#003424"/>
            <path id="prefix__Trazado_2647" d="M1240.77 286.69a.3.3 0 0 1-.292-.237 5.2 5.2 0 0 0-.365-1.123 4.344 4.344 0 0 0-.965-1.353 4.259 4.259 0 0 0-.638-.5.294.294 0 0 1-.133-.288.29.29 0 0 1 .045-.129.3.3 0 0 1 .253-.137.3.3 0 0 1 .161.048 4.6 4.6 0 0 1 .461.333 4.74 4.74 0 0 1 .87.913 5.123 5.123 0 0 1 .661 1.254 5.894 5.894 0 0 1 .238.849.3.3 0 0 1-.233.36.325.325 0 0 1-.063.01z" class="prefix__cls-4" data-name="Trazado 2647" transform="translate(-1191.055 -212.154)"/>
            <path id="prefix__Trazado_2648" d="M1227.034 280.774a.3.3 0 0 1 0-.6h.891a.3.3 0 0 1 0 .6z" class="prefix__cls-4" data-name="Trazado 2648" transform="translate(-1183.176 -210.289)"/>
            <path id="prefix__Trazado_2649" d="M1216.724 277.458a.3.3 0 0 1-.29-.221 1.77 1.77 0 0 0-1.528-1.363.3.3 0 0 1-.284-.317.3.3 0 0 1 .295-.286 2.352 2.352 0 0 1 1.985 1.47l.046.114h.536a.3.3 0 0 1 0 .6z" class="prefix__cls-4" data-name="Trazado 2649" transform="translate(-1174.978 -206.972)"/>
            <path id="prefix__Trazado_2650" d="M1119.3 232.511a.464.464 0 0 1-.463-.463 2.4 2.4 0 0 0-.273-1.114 2.128 2.128 0 0 0-1.869-1.167 1.834 1.834 0 0 0-1.2.421l-.112.076.039.13a5.241 5.241 0 0 1 .227 1.529.463.463 0 1 1-.926 0 3.894 3.894 0 1 0-7.776 0 .463.463 0 0 1-.926 0 4.94 4.94 0 0 1 4.814-5.047 4.747 4.747 0 0 1 4.071 2.366l.1.16.158-.1a2.607 2.607 0 0 1 1.53-.461 3.051 3.051 0 0 1 2.688 1.661 3.33 3.33 0 0 1 .379 1.546.463.463 0 0 1-.461.463z" class="prefix__cls-4" data-name="Trazado 2650" transform="translate(-1101.472 -174.215)"/>
            <g id="prefix__Grupo_1996" data-name="Grupo 1996" transform="translate(7.996 37.138)">
                <path id="prefix__Trazado_2651" d="M1123.27 196.758a.57.57 0 1 1 .541-.569.556.556 0 0 1-.541.569z" class="prefix__cls-6" data-name="Trazado 2651" transform="translate(-1120.777 -190.197)"/>
                <path id="prefix__Trazado_2652" d="M1117.224 217.331a.57.57 0 1 1 .54-.569.555.555 0 0 1-.54.569z" class="prefix__cls-6" data-name="Trazado 2652" transform="translate(-1116.685 -204.122)"/>
                <path id="prefix__Trazado_2653" d="M1133.426 194.644a.57.57 0 1 1 .54-.569.556.556 0 0 1-.54.569z" class="prefix__cls-6" data-name="Trazado 2653" transform="translate(-1127.651 -188.766)"/>
                <path id="prefix__Trazado_2654" d="M1139.515 214.345a.57.57 0 1 1 .54-.569.556.556 0 0 1-.54.569z" class="prefix__cls-6" data-name="Trazado 2654" transform="translate(-1131.773 -202.101)"/>
                <path id="prefix__Trazado_2655" d="M1136.506 224.452a.57.57 0 1 1 .54-.569.556.556 0 0 1-.54.569z" class="prefix__cls-6" data-name="Trazado 2655" transform="translate(-1129.736 -208.942)"/>
                <path id="prefix__Trazado_2656" d="M1130.365 216.054a.57.57 0 1 1 .541-.569.555.555 0 0 1-.541.569z" class="prefix__cls-6" data-name="Trazado 2656" transform="translate(-1125.58 -203.258)"/>
                <path id="prefix__Trazado_2657" d="M1137.188 205.869a.57.57 0 1 1 .54-.569.556.556 0 0 1-.54.569z" class="prefix__cls-6" data-name="Trazado 2657" transform="translate(-1130.197 -196.364)"/>
                <path id="prefix__Trazado_2658" d="M1118.376 203.981a.569.569 0 1 1 .54-.568.555.555 0 0 1-.54.568z" class="prefix__cls-6" data-name="Trazado 2658" transform="translate(-1117.464 -195.087)"/>
                <ellipse id="prefix__Elipse_32" cx=".54" cy=".569" class="prefix__cls-4" data-name="Elipse 32" rx=".54" ry=".569" transform="translate(4.616)"/>
            </g>
        </g>
    </g>
</svg>
