<svg xmlns="http://www.w3.org/2000/svg" width="19.617" height="19.618" viewBox="0 0 19.617 19.618">
    <defs>
        <style>
            .prefix__cls-1{fill:#fff}
        </style>
    </defs>
    <g id="prefix__ico_calendario" transform="translate(11 -391)">
        <g id="prefix__Grupo_1271" data-name="Grupo 1271" transform="translate(-11 391)">
            <path id="prefix__Trazado_1857" d="M388.341 158.223c0-.011-.009-.02-.013-.031a.3.3 0 0 0-.022-.053.311.311 0 0 0-.037-.055.339.339 0 0 0-.037-.039.3.3 0 0 0-.054-.036.246.246 0 0 0-.116-.038l-.042-.009h-1.649c-.084-1.138-.612-1.962-1.294-1.962s-1.21.824-1.294 1.962h-.683c-.084-1.138-.612-1.962-1.294-1.962s-1.21.824-1.294 1.962h-.681c-.084-1.138-.612-1.962-1.294-1.962s-1.21.824-1.294 1.962h-.681c-.084-1.138-.612-1.962-1.294-1.962s-1.21.824-1.294 1.962h-1.648a.327.327 0 0 0-.327.327v17a.327.327 0 0 0 .327.327h15.694a.327.327 0 0 0 .327-.327v-.981h2.943a.327.327 0 0 0 .32-.392zm-3.263-1.569c.236 0 .566.5.638 1.308h-1.275c.071-.807.4-1.308.637-1.308zm-3.27 0c.236 0 .566.5.638 1.308h-1.275c.071-.807.4-1.308.637-1.308zm-3.27 0c.236 0 .566.5.638 1.308H377.9c.071-.807.4-1.308.637-1.308zm-3.27 0c.236 0 .566.5.638 1.308h-1.275c.071-.807.4-1.308.637-1.308zm-2.616 1.962h1.322c.084 1.138.612 1.962 1.294 1.962a.327.327 0 0 0 0-.654c-.236 0-.566-.5-.638-1.308h2.614c.085 1.138.612 1.962 1.294 1.962a.327.327 0 0 0 0-.654c-.236 0-.566-.5-.638-1.308h2.614c.085 1.138.612 1.962 1.294 1.962a.327.327 0 0 0 0-.654c-.236 0-.566-.5-.638-1.308h2.614c.085 1.138.612 1.962 1.294 1.962a.327.327 0 1 0 0-.654c-.236 0-.566-.5-.638-1.308h3.254v3.27h-15.04zm15.04 16.348h-15.04v-12.425h15.04zm.654-1.308v-12.2l2.541 12.2zm0 0" class="prefix__cls-1" data-name="Trazado 1857" transform="translate(-372 -156)"/>
            <path id="prefix__Trazado_1858" d="M509.635 444h-1.308a.327.327 0 0 0-.327.327v1.308a.327.327 0 0 0 .327.327h1.308a.327.327 0 0 0 .327-.327v-1.308a.327.327 0 0 0-.327-.327zm-.327 1.308h-.654v-.654h.654zm0 0" class="prefix__cls-1" data-name="Trazado 1858" transform="translate(-502.442 -432.229)"/>
            <path id="prefix__Trazado_1859" d="M589.635 444h-1.308a.327.327 0 0 0-.327.327v1.308a.327.327 0 0 0 .327.327h1.308a.327.327 0 0 0 .327-.327v-1.308a.327.327 0 0 0-.327-.327zm-.327 1.308h-.654v-.654h.654zm0 0" class="prefix__cls-1" data-name="Trazado 1859" transform="translate(-579.172 -432.229)"/>
            <path id="prefix__Trazado_1860" d="M429.635 444h-1.308a.327.327 0 0 0-.327.327v1.308a.327.327 0 0 0 .327.327h1.308a.327.327 0 0 0 .327-.327v-1.308a.327.327 0 0 0-.327-.327zm-.327 1.308h-.654v-.654h.654zm0 0" class="prefix__cls-1" data-name="Trazado 1860" transform="translate(-425.711 -432.229)"/>
            <path id="prefix__Trazado_1861" d="M509.635 524h-1.308a.327.327 0 0 0-.327.327v1.308a.327.327 0 0 0 .327.327h1.308a.327.327 0 0 0 .327-.327v-1.308a.327.327 0 0 0-.327-.327zm-.327 1.308h-.654v-.654h.654zm0 0" class="prefix__cls-1" data-name="Trazado 1861" transform="translate(-502.442 -508.96)"/>
            <path id="prefix__Trazado_1862" d="M589.635 524h-1.308a.327.327 0 0 0-.327.327v1.308a.327.327 0 0 0 .327.327h1.308a.327.327 0 0 0 .327-.327v-1.308a.327.327 0 0 0-.327-.327zm-.327 1.308h-.654v-.654h.654zm0 0" class="prefix__cls-1" data-name="Trazado 1862" transform="translate(-579.172 -508.96)"/>
            <path id="prefix__Trazado_1863" d="M429.635 524h-1.308a.327.327 0 0 0-.327.327v1.308a.327.327 0 0 0 .327.327h1.308a.327.327 0 0 0 .327-.327v-1.308a.327.327 0 0 0-.327-.327zm-.327 1.308h-.654v-.654h.654zm0 0" class="prefix__cls-1" data-name="Trazado 1863" transform="translate(-425.711 -508.96)"/>
            <path id="prefix__Trazado_1864" d="M509.635 364h-1.308a.327.327 0 0 0-.327.327v1.308a.327.327 0 0 0 .327.327h1.308a.327.327 0 0 0 .327-.327v-1.308a.327.327 0 0 0-.327-.327zm-.327 1.308h-.654v-.654h.654zm0 0" class="prefix__cls-1" data-name="Trazado 1864" transform="translate(-502.442 -355.499)"/>
            <path id="prefix__Trazado_1865" d="M589.635 364h-1.308a.327.327 0 0 0-.327.327v1.308a.327.327 0 0 0 .327.327h1.308a.327.327 0 0 0 .327-.327v-1.308a.327.327 0 0 0-.327-.327zm-.327 1.308h-.654v-.654h.654zm0 0" class="prefix__cls-1" data-name="Trazado 1865" transform="translate(-579.172 -355.499)"/>
            <path id="prefix__Trazado_1866" d="M669.635 444h-1.308a.327.327 0 0 0-.327.327v1.308a.327.327 0 0 0 .327.327h1.308a.327.327 0 0 0 .327-.327v-1.308a.327.327 0 0 0-.327-.327zm-.327 1.308h-.654v-.654h.654zm0 0" class="prefix__cls-1" data-name="Trazado 1866" transform="translate(-655.902 -432.229)"/>
            <path id="prefix__Trazado_1867" d="M669.635 524h-1.308a.327.327 0 0 0-.327.327v1.308a.327.327 0 0 0 .327.327h1.308a.327.327 0 0 0 .327-.327v-1.308a.327.327 0 0 0-.327-.327zm-.327 1.308h-.654v-.654h.654zm0 0" class="prefix__cls-1" data-name="Trazado 1867" transform="translate(-655.902 -508.96)"/>
            <path id="prefix__Trazado_1868" d="M669.635 364h-1.308a.327.327 0 0 0-.327.327v1.308a.327.327 0 0 0 .327.327h1.308a.327.327 0 0 0 .327-.327v-1.308a.327.327 0 0 0-.327-.327zm-.327 1.308h-.654v-.654h.654zm0 0" class="prefix__cls-1" data-name="Trazado 1868" transform="translate(-655.902 -355.499)"/>
            <path id="prefix__Trazado_1869" d="M429.635 364h-1.308a.327.327 0 0 0-.327.327v1.308a.327.327 0 0 0 .327.327h1.308a.327.327 0 0 0 .327-.327v-1.308a.327.327 0 0 0-.327-.327zm-.327 1.308h-.654v-.654h.654zm0 0" class="prefix__cls-1" data-name="Trazado 1869" transform="translate(-425.711 -355.499)"/>
        </g>
    </g>
</svg>
