<svg xmlns="http://www.w3.org/2000/svg" width="165.276" height="165.276" viewBox="0 0 165.276 165.276">
    <defs>
        <style>
            .cls-4,.cls-5,.cls-6{fill:#c3c4c3}.cls-5,.cls-6{stroke:#f3f3f3;stroke-miterlimit:10}.cls-5{stroke-width:2.5px}
        </style>
    </defs>
    <g id="ico_no_info" transform="translate(-97 -221)">
        <g id="Grupo_1995" data-name="Grupo 1995" transform="translate(76 49)">
            <g id="Grupo_1994" data-name="Grupo 1994" opacity="0.284" transform="translate(21 172)">
                <path id="Trazado_2624" fill="#e2e2e2" fill-rule="evenodd" d="M279.783 420.945a82.638 82.638 0 1 1-82.638 82.639 82.638 82.638 0 0 1 82.638-82.639z" data-name="Trazado 2624" opacity="0.509" transform="translate(-197.145 -420.945)"/>
            </g>
            <g id="Grupo_1993" data-name="Grupo 1993" transform="translate(35.462 186.462)">
                <path id="Trazado_2623" fill="#d1d1d1" fill-rule="evenodd" d="M293.321 448.945a68.176 68.176 0 1 1-68.176 68.177 68.176 68.176 0 0 1 68.176-68.177z" data-name="Trazado 2623" opacity="0.2" transform="translate(-225.145 -448.945)"/>
            </g>
        </g>
        <g id="Grupo_2004" data-name="Grupo 2004" transform="translate(52.833 -136.517)">
            <g id="Grupo_2002" data-name="Grupo 2002" transform="translate(87.396 403.917)">
                <path id="Trazado_2628" d="M134.633 494.944l-4.554-4.675c-7.322 5.918-15.549 7.771-24.58 5.1a24.932 24.932 0 0 1-14.034-10.66 25.94 25.94 0 0 1 5.151-33.76c9.141-7.86 23.869-7.855 33.266.146a26.076 26.076 0 0 1 2.91 36.507l4.751 4.439c1.406-1.166 3.229-2.213 5.464-1.329a7.611 7.611 0 0 1 2.51 1.548q9.141 9 18.188 18.1c2.636 2.646 2.583 5.79-.059 8.464-.879.889-1.76 1.778-2.653 2.653a5.4 5.4 0 0 1-7.918.137q-9.459-9.323-18.757-18.808c-2.226-2.259-2.038-5.071.315-7.862zm-21.443-46.411a22.25 22.25 0 1 0 22.269 22.226 22.269 22.269 0 0 0-22.269-22.226zm28.228 55.667l3.607 3.828 5.385-5.362-3.683-3.776zm10.082 10.4l5.4-5.335-3.757-3.937c-1.624 1.655-3.3 3.363-4.972 5.074-.17.173-.318.367-.43.5zm-7.329-18.593c-.208-.24-.394-.467-.593-.682-1.722-1.851-2.408-1.866-4.143-.1-.8.816-1.594 1.639-2.4 2.453a1.818 1.818 0 0 0 .025 2.863 9.58 9.58 0 0 1 1 1.587zm9.888 21.916a13.743 13.743 0 0 1 1.4 1c1.277 1.158 1.769 1.178 3.009-.031 1-.972 1.952-1.989 2.965-2.943a1.689 1.689 0 0 0 .052-2.71 10.806 10.806 0 0 1-1.048-1.714z" class="cls-4" data-name="Trazado 2628" transform="translate(-87.396 -445.078)"/>
                <path id="Trazado_2629" d="M110.51 499.159a18.281 18.281 0 0 1 5.941-12.595 1.65 1.65 0 0 1 2.525-.1 1.7 1.7 0 0 1-.027 2.64 15.91 15.91 0 0 0-4.171 6.48c-1.5 4.966.025 9.215 3.258 13.015.323.38.688.724 1.009 1.105a1.776 1.776 0 1 1-2.566 2.439 17.745 17.745 0 0 1-5.062-8.164c-.442-1.564-.617-3.209-.907-4.82z" class="cls-4" data-name="Trazado 2629" transform="translate(-103.572 -473.664)"/>
            </g>
            <g id="Grupo_2003" data-name="Grupo 2003" transform="rotate(14.98 -1395.467 666.563)">
                <path id="Trazado_2630" d="M188.717 410.862v-2.992c0-2.474.654-3.326 3.092-3.869 2.514-.559 4.412-1.835 5.069-4.433.582-2.3.4-4.537-1.565-6.181a5.325 5.325 0 0 0-6.2-.6 5.491 5.491 0 0 0-2.959 4.862 2.712 2.712 0 0 1-2.6 2.733c-1.81.139-3.036-1.066-3.03-3.064a10.669 10.669 0 0 1 4.633-8.871 11.066 11.066 0 0 1 17.42 6.488c1.152 5.634-1 11.777-7.33 14.154a1.464 1.464 0 0 0-.768 1.054c-.089 1.513-.018 3.034-.046 4.551a2.846 2.846 0 0 1-5.688.2c-.088-1.338-.017-2.687-.017-4.031z" class="cls-5" data-name="Trazado 2630" transform="translate(-180.525 -386.262)"/>
                <path id="Trazado_2631" d="M209.4 509.766a3.678 3.678 0 0 1-.052-7.354 3.678 3.678 0 1 1 .052 7.354z" class="cls-5" data-name="Trazado 2631" transform="translate(-198.171 -467.547)"/>
            </g>
            <g id="Grupo_2005" data-name="Grupo 2005" transform="rotate(14.98 -1381.71 760.267)">
                <path id="Trazado_2630-2" d="M185.942 402.528v-1.978c0-1.636.433-2.2 2.044-2.558a3.967 3.967 0 0 0 3.352-2.931 3.727 3.727 0 0 0-1.035-4.087 3.521 3.521 0 0 0-4.1-.4 3.631 3.631 0 0 0-1.956 3.215 1.866 1.866 0 1 1-3.724-.219 7.055 7.055 0 0 1 3.064-5.866 7.317 7.317 0 0 1 11.52 4.296c.762 3.725-.658 7.787-4.847 9.359a.968.968 0 0 0-.508.7c-.059 1-.012 2.006-.03 3.009a1.882 1.882 0 0 1-3.761.133c-.058-.885-.012-1.777-.012-2.665z" class="cls-6" data-name="Trazado 2630" transform="translate(-180.525 -386.262)"/>
                <path id="Trazado_2631-2" d="M208.163 507.275a2.432 2.432 0 0 1-.035-4.863 2.432 2.432 0 1 1 .035 4.863z" class="cls-6" data-name="Trazado 2631" transform="translate(-200.736 -479.359)"/>
            </g>
        </g>
    </g>
</svg>
