<svg id="ico_hogar_noti" xmlns="http://www.w3.org/2000/svg" width="42" height="35" viewBox="0 0 42 35">
  <g id="ico_hogar" transform="translate(-353.596 -477.562)">
    <path id="Trazado_2638" data-name="Trazado 2638" d="M389.789,510.45a.541.541,0,0,1-.543-.543v-.512l-.48.03.03.482a.542.542,0,1,1-1.084,0v-.512l-.481.03.03.992-24.567.031-.031-1.054-.481.03.03.482a.542.542,0,0,1-1.083,0v-.512l-.481.03.031.482a.542.542,0,1,1-1.084,0v-4.6a.545.545,0,0,1,.544-.543.543.543,0,0,1,.54.543v.512l.48-.031-.03-.481a.542.542,0,0,1,1.083,0v.512l.482-.031-.031-10.3a1.453,1.453,0,0,1-.806.213,2.062,2.062,0,0,1-1.512-.662c-.041-.044-.078-.088-.114-.135a2.075,2.075,0,0,1,.355-2.911l13-10.169,1.356-1.263,1.435,1.295,12.965,10.138c.046.037.091.074.134.115a2.076,2.076,0,0,1,.107,2.93,2.04,2.04,0,0,1-2.363.478l.043,10.3.482-.031-.031-.481a.542.542,0,1,1,1.084,0v.512l.48-.031-.03-.481a.543.543,0,0,1,.542-.542h0a.543.543,0,0,1,.542.54v4.6A.545.545,0,0,1,389.789,510.45Zm-6.645-9.775.03,8.721,3.037-.03-.032-14.586-11.236-8.644L363.735,494.8l.011,14.592,12.241-.03-.03-8.691Zm-6.1,8.721,5.082-.031-.031-7.637-5.051.03Zm11.759-1.022.48-.03-.03-1.5-.45.028Zm-1.535,0,.481-.03-.03-1.5-.451.028Zm-25.049,0,.482-.03-.031-1.5-.451.028Zm-1.533,0,.48-.03-.03-1.5-.45.028Zm26.774-13.964a.966.966,0,0,0,.6.208.992.992,0,0,0,.728-.319,1.032,1.032,0,0,0,.257-.793.987.987,0,0,0-.373-.661l-13-10.171L374.94,482l-.652.647-13.035,10.2a.994.994,0,0,0-.378.7.989.989,0,0,0,1.593.86l12.492-9.628Z" transform="translate(0 0)" fill="#fff"/>
    <path id="Trazado_1808" data-name="Trazado 1808" d="M389.785,504.793a.512.512,0,0,0-.511.511v.511h-.511V505.3a.511.511,0,1,0-1.023,0h0v.511h-.511V495.489a2.011,2.011,0,0,0,2.327-.471,2.043,2.043,0,0,0-.1-2.887c-.043-.04-.086-.078-.133-.113l-12.966-10.141-1.393-1.295-1.358,1.265-13,10.169a2.044,2.044,0,0,0-.35,2.868c.036.045.073.09.112.132a2.026,2.026,0,0,0,2.327.471v10.327h-.511V505.3a.511.511,0,0,0-1.023,0v.511h-.511V505.3a.511.511,0,0,0-1.023,0h0v4.6a.511.511,0,0,0,1.023,0v-.514h.511v.511a.511.511,0,1,0,1.023,0v-.511h.511v1.023h24.538v-1.023h.511v.511a.511.511,0,1,0,1.023,0v-.514h.511v.511a.511.511,0,1,0,1.023,0v-4.6a.512.512,0,0,0-.511-.511Zm-28.672-10.474a1,1,0,0,1-.27-.775,1.021,1.021,0,0,1,.388-.725l13.033-10.2.695-.647.729.673,13,10.171a1.023,1.023,0,0,1,.175,1.436.783.783,0,0,1-.055.064,1.015,1.015,0,0,1-1.373.114l-.2-.157-12.269-9.458-12.069,9.3-.4.312a1.015,1.015,0,0,1-1.373-.114Zm-.466,14.052v-1.533h.511v1.534Zm1.534,0v-1.533h.511v1.534Zm14.825,1.023v-7.669h5.112v7.668Zm9.2,0h-3.066V500.7h-7.157v8.691H363.714V494.778l11.246-8.669,11.246,8.669Zm1.023-1.023v-1.533h.511v1.534Zm1.534,0v-1.533h.511v1.534Z" transform="translate(0.002 0.002)" fill="#fff"/>
  </g>
  <rect id="Rectángulo_2078" data-name="Rectángulo 2078" width="42" height="35" fill="none"/>
</svg>
