<svg xmlns="http://www.w3.org/2000/svg" width="18.27" height="18.28" viewBox="0 0 18.27 18.28">
    <defs>
        <style>
            .cls-1{fill:#fff}
        </style>
    </defs>
    <g id="ico_buscar" transform="translate(-155.186 -278.823)">
        <path id="Trazado_2063" d="M166.727 291.448a7.169 7.169 0 0 1-10-1.143 7.069 7.069 0 0 1 9.471-10.272 7.131 7.131 0 0 1 1.593 10.337 2.774 2.774 0 0 1 .276.214q2.521 2.522 5.038 5.046a.843.843 0 0 1 .3.961.774.774 0 0 1-1.194.354 2.752 2.752 0 0 1-.294-.273zm1.318-5.5a5.787 5.787 0 0 0-11.572-.173 5.844 5.844 0 0 0 5.4 5.9 5.775 5.775 0 0 0 6.171-5.726z" class="cls-1"/>
        <path id="Trazado_2064" d="M218.978 319.3a4.675 4.675 0 0 1 3.113 1.245.677.677 0 0 1 .245.4.477.477 0 0 1-.235.378.554.554 0 0 1-.465-.092 4.035 4.035 0 0 0-1.649-.926 3.671 3.671 0 0 0-3.448.819c-.047.04-.089.086-.136.125a.434.434 0 0 1-.632-.01.423.423 0 0 1 .047-.609 4.254 4.254 0 0 1 2.037-1.157c.366-.089.745-.115 1.123-.173z" class="cls-1" transform="translate(-56.742 -37.98)"/>
    </g>
</svg>
