<svg xmlns="http://www.w3.org/2000/svg" width="37.374" height="37.374" viewBox="0 0 37.374 37.374">
    <path id="prefix__ico_aprobado" d="M-346.953 220.885a18.684 18.684 0 0 1 18.674 18.676 18.753 18.753 0 0 1-18.75 18.7 18.692 18.692 0 0 1-18.623-18.666 18.653 18.653 0 0 1 18.699-18.71zm8.9 14.689c-.154-1.2-.941-2.059-2.045-1.952a2.794 2.794 0 0 0-1.545.745c-2.192 2.117-4.336 4.285-6.477 6.454-.448.454-.777.512-1.24.01-.715-.775-1.471-1.517-2.258-2.22a2.691 2.691 0 0 0-1.167-.633 1.9 1.9 0 0 0-1.986 1 1.735 1.735 0 0 0 .317 2.178q2.233 2.347 4.526 4.637a1.435 1.435 0 0 0 2.278-.038q4.426-4.381 8.814-8.8a6.056 6.056 0 0 0 .779-1.381z" transform="translate(365.653 -220.885)" style="fill:#67bc47"/>
</svg>
