<svg id="_" xmlns="http://www.w3.org/2000/svg" viewBox="0 0 141.43 162.82"><defs><style>.cls-1{fill:#fff;}</style></defs><path class="cls-1" d="M9.32,84.27q0-29.32,0-58.66c0-10.14,4.84-15.63,15-15.86,15.54-.36,31.1-.15,46.64-.07,3.39,0,6.55,1.12,6.45,5.25s-3.33,4.77-6.73,4.77q-21.58,0-43.18,0c-7.18,0-8.1.93-8.1,8q0,56.43,0,112.85c0,6.42.58,7,7.2,7q30.29,0,60.55,0c6.64,0,7.48-.78,7.49-7.41q.06-40.28,0-80.54c0-1.32,0-2.65,0-4,0-3.34.91-6.24,4.79-6.16s4.62,3.07,4.62,6.36c0,29.66,0,59.33-.06,89,0,7.61-4.56,12.12-12.08,12.14q-35.23.12-70.47,0c-8,0-12.09-4.41-12.11-12.49C9.3,124.37,9.33,104.32,9.32,84.27Z"/><path class="cls-1" d="M133.69,26.84c0,4-.11,7.93,0,11.9.12,3.59-1.32,4.44-4.51,3.1-1.36-.57-2.83-.89-4.23-1.39-3-1.06-5.71-2.42-7.22,2.36-.92,2.88-4.25,3.47-7.15,3.5-7.42.08-14.85.17-22.27,0-5.33-.14-7.91-2.56-8.13-8-.3-7.76-.29-15.55,0-23.3.18-5.05,3-7.48,8-7.56,7.59-.11,15.19,0,22.78,0,3.37,0,6.34,1,7.6,4.39,1,2.73,2.62,2.24,4.7,1.66,10.44-2.93,10.45-2.89,10.45,7.94ZM99.51,36.25c10.73-.11,10,1.25,10-9.18s.87-9.57-9.67-9.57c-10.77,0-9.71-.74-9.72,9.5S89.19,36.18,99.51,36.25Z"/><path class="cls-1" d="M57.42,125.08c-6.11,0-12.23-.09-18.34,0-3.34.07-4.92-1.22-4.8-4.64.11-3.14-.12-6.3.08-9.43.82-13.38,9.89-22.6,22.24-22.74,12.9-.16,22.06,8.57,23.32,22.18,1.34,14.6,1.34,14.6-13.08,14.6Zm-.27-10.15c2.8,0,5.6-.1,8.4,0,3.6.16,4.56-1.7,4.26-4.94a12.69,12.69,0,0,0-25.31,0c-.3,3.22.64,5.1,4.26,4.94C51.55,114.83,54.35,114.93,57.15,114.93Z"/><path class="cls-1" d="M57,85.37a17.43,17.43,0,0,1-17.65-17c-.14-9.32,8.23-17.76,17.67-17.8A17.77,17.77,0,0,1,74.54,68.42C74.41,78.11,66.9,85.38,57,85.37Zm.09-9.55c3.8,0,7.57-3.93,7.54-7.82,0-3.54-3.79-7.3-7.41-7.41a8,8,0,0,0-7.72,7.55A8,8,0,0,0,57.12,75.82Z"/></svg>