<svg xmlns="http://www.w3.org/2000/svg" width="20" height="20" viewBox="0 0 20 20">
    <path id="prefix__Ico_check" d="M-355.646 220.885a10 10 0 0 1 9.993 9.994 10.036 10.036 0 0 1-10.034 10.006 10 10 0 0 1-9.966-9.989 9.982 9.982 0 0 1 10.007-10.011zm4.76 7.861c-.083-.64-.5-1.1-1.094-1.045a1.5 1.5 0 0 0-.827.4c-1.173 1.133-2.32 2.293-3.466 3.454-.24.243-.416.274-.663.006-.383-.415-.787-.812-1.208-1.188a1.44 1.44 0 0 0-.625-.339 1.014 1.014 0 0 0-1.063.537.928.928 0 0 0 .17 1.165q1.2 1.256 2.422 2.481a.768.768 0 0 0 1.219-.021q2.369-2.345 4.716-4.71a3.243 3.243 0 0 0 .42-.74z" transform="translate(365.653 -220.885)" style="fill:#67bc47"/>
</svg>
