<svg xmlns="http://www.w3.org/2000/svg" width="168" height="120" viewBox="0 0 168 120">
  <g id="Grupo_3000" data-name="Grupo 3000" transform="translate(12814 2401)">
    <g id="Componente_163_1" data-name="Componente 163 – 1" transform="translate(-12753 -2383)">
      <g id="noun_HTML_File_2104056" data-name="noun_HTML File_2104056">
        <g id="Grupo_2999" data-name="Grupo 2999" transform="translate(0 0)">
          <g id="Grupo_2998" data-name="Grupo 2998">
            <path id="Trazado_3188" data-name="Trazado 3188" d="M107.254,31.786h12.552L107.638,19.56l-.383-.384Zm-.644-14.815h.054l0,0,.012,0h.011l.012,0h0l.011,0h.013l.007,0h.016l.007,0,.01,0h0l.01,0h.007l0,0h0l.016,0,0,0,.012.005h.007l0,0,0,0h.008l.007.006h.006l.006,0h0l0,.007h0l.005,0,.006,0h0l0,0,.012.007h.005l0,0,.009,0v0l.012.007h0l.006,0h0l.015.01,0,0,.006,0,0,0h.005l.006,0h0v0l0,0h0v0L107,17.1l.021.014,0,.006.006,0h0l.011.007,0,0,.006,0,.005.006v0l0,0,.005,0,14.745,14.81v0l.007.008h0l0,0,0,.006h0l0,.006,0,0h.005l0,.011.006,0,0,0,0,0,.005,0v0l.005.005v0l0,0,.006,0h0l.005.01.005,0,0,0h0l0,0,0,.005v0l0,.007h0l.005,0,0,0,.006.01,0,0v0l.006.008v0l0,.006v0l.005,0v.007l.02.035v.007l.005.007v0l0,0,0,.007h0l0,.007v0l0,0,.006.014h0l0,.008,0,.017,0,.006v0h0l.006.008V32.3h0l.008.056v.007L122,32.4V76.926a.64.64,0,0,1-.643.64H77.14a.643.643,0,0,1-.647-.64V17.613C76.493,17.257,76.784,16.971,106.61,16.971Zm3.51,55.267Zm-9.11-6.649L103,71.371l2.669-3.741-5.257.018.6-2.059ZM98.079,66.8H95.866v6.653h-1.56V66.8H92.087V65.589h5.992V66.8Zm-6.873,6.653H89.647V70.18H86.452v3.269H84.895v-7.86h1.557v3.382h3.195V65.589h1.559ZM93.384,53.22h0A.808.808,0,0,1,92.829,53L85.51,46.072a.14.14,0,0,1-.023-.022.784.784,0,0,1-.152-.217.757.757,0,0,1-.08-.345.745.745,0,0,1,.08-.353.779.779,0,0,1,.152-.217c.011-.007.015-.015.023-.02l7.319-6.931a.81.81,0,0,1,1.14.029.8.8,0,0,1-.031,1.134l-6.708,6.354,6.708,6.352a.8.8,0,0,1,.031,1.134A.811.811,0,0,1,93.384,53.22Zm11.72,0a.8.8,0,0,1-.554-1.382l6.71-6.352-6.71-6.354A.8.8,0,0,1,104.521,38a.81.81,0,0,1,1.14-.029l7.32,6.931c.006,0,.012.012.02.02a.776.776,0,0,1,.158.217.82.82,0,0,1,.078.352.841.841,0,0,1-.078.345.864.864,0,0,1-.155.217.229.229,0,0,0-.023.022L105.661,53A.8.8,0,0,1,105.1,53.22Zm15.6-20.15h-14.1a.644.644,0,0,1-.645-.643V18.256H77.783V76.283h42.925V33.07Z" transform="translate(-76.493 -16.971)" fill="#67bc47"/>
            <path id="Trazado_3189" data-name="Trazado 3189" d="M0,0,27.9.491V15.036H42.353L43,58H0Z" transform="translate(1.507 1)" fill="#fafafa"/>
          </g>
        </g>
      </g>
      <path id="ico_aprobado" d="M-355.592,220.885a10.052,10.052,0,0,1,10.046,10.047,10.089,10.089,0,0,1-10.088,10.059,10.056,10.056,0,0,1-10.019-10.042A10.035,10.035,0,0,1-355.592,220.885Zm4.786,7.9c-.083-.644-.507-1.108-1.1-1.05a1.5,1.5,0,0,0-.831.4c-1.179,1.139-2.333,2.305-3.484,3.472-.241.244-.418.276-.667.006-.385-.417-.792-.816-1.215-1.194a1.448,1.448,0,0,0-.628-.34,1.02,1.02,0,0,0-1.068.54.933.933,0,0,0,.171,1.172q1.2,1.262,2.435,2.495a.772.772,0,0,0,1.225-.021q2.381-2.357,4.742-4.735A3.259,3.259,0,0,0-350.807,228.788Z" transform="translate(378.313 -197.515)" fill="#67bc47"/>
      <g id="Polígono_3" data-name="Polígono 3" transform="translate(37.017 21.253) rotate(-135)" fill="#fafafa">
        <path d="M 16.79290008544922 8.5 L 1.207100033760071 8.5 L 9 0.707099974155426 L 16.79290008544922 8.5 Z" stroke="none"/>
        <path d="M 9 1.414219856262207 L 2.414219856262207 8 L 15.58578014373779 8 L 9 1.414219856262207 M 9 0 L 18 9 L 0 9 L 9 0 Z" stroke="none" fill="#fafafa"/>
      </g>
    </g>
    <g id="btn_ev_croquis" transform="translate(-12830 -2945)">
      <g id="Rectángulo_1866" data-name="Rectángulo 1866" transform="translate(16 544)" fill="none" stroke="#fafafa" stroke-width="1">
        <rect width="168" height="120" rx="4" stroke="none"/>
        <rect x="0.5" y="0.5" width="167" height="119" rx="3.5" fill="none"/>
      </g>
    </g>
  </g>
</svg>
