<svg id="ico_car_home" xmlns="http://www.w3.org/2000/svg" width="188.258" height="204.175" viewBox="0 0 188.258 204.175">
  <g id="Grupo_1943" data-name="Grupo 1943" transform="translate(0 16.401)">
    <path id="Trazado_2574" data-name="Trazado 2574" d="M1201.266,88.63a93.887,93.887,0,1,1-93.886,93.887A93.887,93.887,0,0,1,1201.266,88.63Z" transform="translate(-1107.38 -88.63)" fill="#bdd63f" fill-rule="evenodd" opacity="0.254"/>
  </g>
  <g id="Grupo_1944" data-name="Grupo 1944" transform="translate(16.431 32.832)">
    <path id="Trazado_2575" data-name="Trazado 2575" d="M1198.407,102.2a77.456,77.456,0,1,1-77.456,77.457A77.456,77.456,0,0,1,1198.407,102.2Z" transform="translate(-1120.951 -102.201)" fill="#bdd63f" fill-rule="evenodd"/>
  </g>
  <g id="Grupo_1945" data-name="Grupo 1945" transform="translate(0.483 114.368)">
    <path id="Trazado_2576" data-name="Trazado 2576" d="M1139.875,170.516h-.006l-14.437.015a6.351,6.351,0,0,0-3.688,11.521h-6.638a6.356,6.356,0,1,0,0,12.712H1169.4" transform="translate(-1107.575 -169.343)" fill="#fff"/>
    <path id="Trazado_2577" data-name="Trazado 2577" d="M1169.6,196.141h-54.293a7.529,7.529,0,1,1,0-15.059h3.955a7.521,7.521,0,0,1,6.37-11.522l14.438-.013.007,2.348-14.442.013a5.178,5.178,0,0,0-3.006,9.394,1.174,1.174,0,0,1-.683,2.128h-6.638a5.182,5.182,0,1,0,0,10.365H1169.6a1.173,1.173,0,1,1,0,2.346Z" transform="translate(-1107.779 -169.547)" fill="#1f4c38"/>
  </g>
  <g id="Grupo_1946" data-name="Grupo 1946" transform="translate(32.292 60.953)">
    <path id="Trazado_2578" data-name="Trazado 2578" d="M1288.626,182.109c-.316-6.833-2.626-14.134-6.448-18.371-4.006-4.442-8.056-6.109-15.47-8.2-1.691-.477-5.987-1.43-5.987-1.43s-7.936-5.586-10.657-8.074c-4.384-4.011-13.141-9.682-18.6-12.54-11.167-5.848-24.315-7.092-35.789-7.092-12.248,0-23.542,1.124-32.614,7.98-6.593,4.982-12.01,13.4-15.767,20.837a28.294,28.294,0,0,0-12.273,23.337,27.307,27.307,0,0,0,1.794,9.8l.013.011a6.921,6.921,0,0,0,6.445,4.4c.134,0,.264-.012.4-.019h4.115l126.612-.017h6.938c3.968,0,6.816-3.234,7.183-7.184A30.434,30.434,0,0,0,1288.626,182.109Zm-108.021-27.5-.018.021-20.981-.045h-.021a2.2,2.2,0,0,1-1.859-3.39s.489-.929.516-.978a31.416,31.416,0,0,1,8.391-10.006c5.015-4.062,7.708-5.443,15.006-6.485a13.312,13.312,0,0,1,2.4-.063,2.207,2.207,0,0,1,2.207,2.2h0v12.56l-.01.011c0,.071.011.139.011.209A5.982,5.982,0,0,1,1180.6,154.614Zm61.865-.024h-.021l-43.551.045-.018-.021a5.983,5.983,0,0,1-5.642-5.97c0-.07.007-.138.011-.209l-.01-.011V135.862c.006-1.213.584-2.886,2.206-3.177a7.668,7.668,0,0,1,1.047-.064c10.923-.38,22.821,1.99,31.414,6.258,6.361,3.158,13.412,8.056,16.295,12.132.033.046.13.188.13.188a2.2,2.2,0,0,1-1.861,3.39Z" transform="translate(-1133.848 -125.224)" fill="#fff"/>
    <path id="Trazado_2579" data-name="Trazado 2579" d="M1143.478,194.143a8.049,8.049,0,0,1-7.488-5.027,1.113,1.113,0,0,1-.067-.144,28.547,28.547,0,0,1-1.872-10.215,29.523,29.523,0,0,1,12.534-24.133c3.391-6.667,8.878-15.618,15.973-20.98,9.556-7.221,21.662-8.216,33.321-8.216,15.373,0,26.92,2.3,36.334,7.227,5.567,2.914,14.355,8.6,18.846,12.714,2.4,2.2,9.13,6.981,10.349,7.845.926.207,4.324.973,5.821,1.395,7.716,2.179,11.86,3.93,16.024,8.548,3.813,4.228,6.4,11.548,6.75,19.1h0a31.075,31.075,0,0,1-.113,3.6c-.445,4.779-3.957,8.247-8.352,8.247l-137.711.023C1143.712,194.135,1143.6,194.143,1143.478,194.143Zm-5.406-6.124a1.044,1.044,0,0,1,.054.119,5.718,5.718,0,0,0,5.351,3.658c.065,0,.131,0,.195-.01l.141-.008h.061l137.665-.018c3.155,0,5.684-2.573,6.015-6.118a29.464,29.464,0,0,0,.1-3.273h0c-.321-6.931-2.734-13.855-6.148-17.64-3.775-4.187-7.653-5.808-14.918-7.86-1.639-.462-5.879-1.4-5.922-1.414a1.168,1.168,0,0,1-.421-.186c-.327-.229-8.029-5.658-10.773-8.167-4.215-3.856-12.891-9.506-18.351-12.366-9.066-4.747-20.266-6.958-35.246-6.958-13,0-23.4,1.316-31.906,7.741-6.829,5.162-12.159,13.959-15.427,20.431a1.165,1.165,0,0,1-.381.437,27.177,27.177,0,0,0-11.767,22.373A26.227,26.227,0,0,0,1138.073,188.019Zm42.719-32.007h0l-20.98-.044a3.376,3.376,0,0,1-2.9-5.148l.5-.953a32.4,32.4,0,0,1,8.686-10.361c5.155-4.174,7.976-5.648,15.577-6.734a14.244,14.244,0,0,1,2.609-.074,3.389,3.389,0,0,1,3.338,3.362v12.567c0,.029,0,.059,0,.088,0,.051,0,.091,0,.132a7.16,7.16,0,0,1-6.542,7.127A1.158,1.158,0,0,1,1180.791,156.012Zm2.533-20.995a9.556,9.556,0,0,0-1.315.08c-7.1,1.013-9.585,2.309-14.433,6.234a30.149,30.149,0,0,0-8.093,9.644l-.513.976c-.015.028-.03.054-.047.081a1.029,1.029,0,0,0,.867,1.588l20.812.044a.945.945,0,0,1,.14-.018,4.81,4.81,0,0,0,4.534-4.8l-.01-.153a1.233,1.233,0,0,1,.01-.212v-12.4a1.037,1.037,0,0,0-1.033-1.036l-.084,0C1184.152,135.041,1183.8,135.017,1183.324,135.017Zm15.778,20.995a1.174,1.174,0,0,1-.292-.036,7.161,7.161,0,0,1-6.543-7.127c0-.048,0-.1,0-.146,0-.025,0-.05,0-.074v-12.55c0-.021,0-.042,0-.064a4.134,4.134,0,0,1,3.172-4.279,6.668,6.668,0,0,1,1.028-.077l.182,0c11.2-.391,23.149,1.994,31.98,6.378,6.05,3,13.57,8.037,16.729,12.508l.142.2a3.377,3.377,0,0,1-2.821,5.224h-.015l-43.566.044Zm-4.484-7.511a1.152,1.152,0,0,1,.008.195l-.007.107a4.817,4.817,0,0,0,4.532,4.844c.051,0,.1.01.149.018l43.353-.044h.023a1.034,1.034,0,0,0,1.031-1.034,1.014,1.014,0,0,0-.164-.553l-.1-.138c-2.493-3.528-9.014-8.364-15.859-11.761-8.371-4.156-20.192-6.506-30.851-6.136l-.224.006a4.859,4.859,0,0,0-.658.04c-1.216.218-1.237,1.954-1.237,2.028V148.5Z" transform="translate(-1134.052 -125.428)" fill="#1f4c38"/>
  </g>
  <g id="Grupo_1947" data-name="Grupo 1947" transform="translate(18.067 103.135)">
    <path id="Trazado_2580" data-name="Trazado 2580" d="M1127.544,170.751a5.241,5.241,0,1,1,5.241-5.241A5.247,5.247,0,0,1,1127.544,170.751Zm0-8.135a2.894,2.894,0,1,0,2.895,2.894A2.9,2.9,0,0,0,1127.544,162.617Z" transform="translate(-1122.303 -160.269)" fill="#003825"/>
  </g>
  <g id="Grupo_1948" data-name="Grupo 1948" transform="translate(87.413 133.411)">
    <path id="Trazado_2581" data-name="Trazado 2581" d="M1183.359,192.836a3.78,3.78,0,1,1,3.781-3.78A3.784,3.784,0,0,1,1183.359,192.836Zm0-5.212a1.432,1.432,0,1,0,1.433,1.432A1.433,1.433,0,0,0,1183.359,187.624Z" transform="translate(-1179.58 -185.276)" fill="#1f4c38"/>
  </g>
  <g id="Grupo_1949" data-name="Grupo 1949" transform="translate(75.417 0)">
    <path id="Trazado_2582" data-name="Trazado 2582" d="M1187.846,76.052a17.2,17.2,0,0,0-17.2,17.2c0,12.255,17.2,31.816,17.2,31.816s17.2-20.032,17.2-31.816A17.2,17.2,0,0,0,1187.846,76.052Zm0,20.5a5.774,5.774,0,1,1,5.775-5.774A5.774,5.774,0,0,1,1187.845,96.555Z" transform="translate(-1169.468 -74.879)" fill="#fff"/>
    <path id="Trazado_2583" data-name="Trazado 2583" d="M1188.051,126.449a1.169,1.169,0,0,1-.881-.4c-.714-.812-17.5-20.037-17.5-32.591a18.378,18.378,0,0,1,36.756,0c0,12.08-16.773,31.749-17.487,32.581a1.175,1.175,0,0,1-.884.408Zm0-49.019a16.048,16.048,0,0,0-16.031,16.03c0,10.1,12.531,25.813,16.021,29.993,3.476-4.25,16.039-20.282,16.039-29.993A16.048,16.048,0,0,0,1188.051,77.431Zm0,20.5A6.948,6.948,0,1,1,1195,90.987,6.955,6.955,0,0,1,1188.049,97.934Zm0-11.549a4.6,4.6,0,1,0,4.6,4.6A4.606,4.606,0,0,0,1188.049,86.385Z" transform="translate(-1169.672 -75.083)" fill="#1f4c38"/>
  </g>
  <g id="Grupo_1969" data-name="Grupo 1969" transform="translate(18.19 61.649)">
    <g id="Grupo_1950" data-name="Grupo 1950" transform="translate(56.864 65.638)">
      <line id="Línea_54" data-name="Línea 54" y1="0.009" x2="66.783" transform="translate(1.174 1.174)" fill="#fff" stroke="#1f4c38" stroke-width="1"/>
      <path id="Trazado_2584" data-name="Trazado 2584" d="M1170.545,182.574a1.174,1.174,0,0,1,0-2.348l66.784-.008a1.174,1.174,0,0,1,0,2.348Z" transform="translate(-1169.372 -180.218)" fill="#1f4c38"/>
    </g>
    <g id="Grupo_1951" data-name="Grupo 1951" transform="translate(68.953 33.157)">
      <path id="Trazado_2585" data-name="Trazado 2585" d="M1198.776,180.789h-12.907a6.384,6.384,0,0,1-4.913-1.877,6.739,6.739,0,0,1-1.593-4.666V154.563a1.173,1.173,0,1,1,2.346,0v19.719c0,.03,0,.062,0,.092a4.409,4.409,0,0,0,.984,2.959,4.176,4.176,0,0,0,3.178,1.11h12.907a1.173,1.173,0,1,1,0,2.346Z" transform="translate(-1179.357 -153.39)" fill="#1f4c38"/>
    </g>
    <g id="Grupo_1952" data-name="Grupo 1952" transform="translate(120.426 33.157)">
      <path id="Trazado_2586" data-name="Trazado 2586" d="M1223.045,170.559a1.173,1.173,0,0,1-1.173-1.173V154.563a1.173,1.173,0,0,1,2.347,0v14.823A1.174,1.174,0,0,1,1223.045,170.559Z" transform="translate(-1221.872 -153.39)" fill="#1f4c38"/>
    </g>
    <g id="Grupo_1953" data-name="Grupo 1953" transform="translate(105.683 34.672)">
      <path id="Trazado_2587" data-name="Trazado 2587" d="M1216.986,156.989h-6.117a1.174,1.174,0,1,1,0-2.348h6.117a1.174,1.174,0,0,1,0,2.348Z" transform="translate(-1209.695 -154.641)" fill="#1f4c38"/>
    </g>
    <g id="Grupo_1954" data-name="Grupo 1954" transform="translate(163.246 58.114)">
      <path id="Trazado_2588" data-name="Trazado 2588" d="M1261.3,176.351h-2.885a1.174,1.174,0,1,1,0-2.348h2.885a1.174,1.174,0,0,1,0,2.348Z" transform="translate(-1257.24 -174.003)" fill="#1f4c38"/>
    </g>
    <g id="Grupo_1955" data-name="Grupo 1955" transform="translate(1.235 32.785)">
      <path id="Trazado_2589" data-name="Trazado 2589" d="M1139.074,155.428H1124.6a1.173,1.173,0,1,1,0-2.346h14.476a1.173,1.173,0,1,1,0,2.346Z" transform="translate(-1123.424 -153.082)" fill="#1f4c38"/>
    </g>
    <g id="Grupo_1956" data-name="Grupo 1956" transform="translate(0 65.562)">
      <line id="Línea_55" data-name="Línea 55" x1="14.437" y2="0.013" transform="translate(1.173 1.173)" fill="#fff"/>
      <path id="Trazado_2590" data-name="Trazado 2590" d="M1123.577,182.515a1.173,1.173,0,0,1,0-2.346l14.438-.013h0a1.173,1.173,0,0,1,0,2.346l-14.437.013Z" transform="translate(-1122.404 -180.155)" fill="#1f4c38"/>
    </g>
    <g id="Grupo_1957" data-name="Grupo 1957" transform="translate(82.923 77.093)">
      <line id="Línea_56" data-name="Línea 56" x1="5.343" y2="0.007" transform="translate(1.173 1.174)" fill="#fff"/>
      <path id="Trazado_2591" data-name="Trazado 2591" d="M1192.069,192.034a1.174,1.174,0,0,1,0-2.348l5.342-.007h0a1.174,1.174,0,0,1,0,2.348l-5.343.007Z" transform="translate(-1190.896 -189.679)" fill="#1f4c38"/>
    </g>
    <g id="Grupo_1958" data-name="Grupo 1958" transform="translate(92.85 77.097)">
      <line id="Línea_57" data-name="Línea 57" x1="46.106" transform="translate(1.173 1.173)" fill="#fff"/>
      <path id="Trazado_2592" data-name="Trazado 2592" d="M1246.374,192.029h-46.106a1.173,1.173,0,0,1,0-2.346h46.106a1.173,1.173,0,1,1,0,2.346Z" transform="translate(-1199.095 -189.683)" fill="#1f4c38"/>
    </g>
    <g id="Grupo_1959" data-name="Grupo 1959" transform="translate(4.869 71.684)">
      <line id="Línea_58" data-name="Línea 58" x1="19.092" transform="translate(1.173 1.174)" fill="#fff"/>
      <path id="Trazado_2593" data-name="Trazado 2593" d="M1146.691,187.56H1127.6a1.174,1.174,0,0,1,0-2.348h19.091a1.174,1.174,0,0,1,0,2.348Z" transform="translate(-1126.426 -185.212)" fill="#1f4c38"/>
    </g>
    <g id="Grupo_1960" data-name="Grupo 1960" transform="translate(6.482 27.407)">
      <path id="Trazado_2594" data-name="Trazado 2594" d="M1148.707,150.988h-19.774a1.174,1.174,0,1,1,0-2.348h19.774a1.174,1.174,0,0,1,0,2.348Z" transform="translate(-1127.758 -148.64)" fill="#1f4c38"/>
    </g>
    <g id="Grupo_1961" data-name="Grupo 1961" transform="translate(31.613)">
      <path id="Trazado_2595" data-name="Trazado 2595" d="M1178.952,128.351h-29.264a1.174,1.174,0,0,1,0-2.348h29.264a1.174,1.174,0,1,1,0,2.348Z" transform="translate(-1148.515 -126.003)" fill="#1f4c38"/>
    </g>
    <g id="Grupo_1962" data-name="Grupo 1962" transform="translate(34.806 4.76)">
      <path id="Trazado_2596" data-name="Trazado 2596" d="M1162.991,132.283h-10.664a1.174,1.174,0,1,1,0-2.348h10.664a1.174,1.174,0,0,1,0,2.348Z" transform="translate(-1151.153 -129.935)" fill="#1f4c38"/>
    </g>
    <g id="Grupo_1963" data-name="Grupo 1963" transform="translate(30.16 9.805)">
      <path id="Trazado_2597" data-name="Trazado 2597" d="M1151.949,136.45h-3.461a1.174,1.174,0,0,1,0-2.348h3.461a1.174,1.174,0,1,1,0,2.348Z" transform="translate(-1147.315 -134.102)" fill="#1f4c38"/>
    </g>
    <g id="Grupo_1964" data-name="Grupo 1964" transform="translate(107.836 72.192)">
      <line id="Línea_59" data-name="Línea 59" x1="12.543" transform="translate(1.173 1.173)" fill="#fff"/>
      <path id="Trazado_2598" data-name="Trazado 2598" d="M1225.19,187.979h-12.544a1.174,1.174,0,0,1,0-2.348h12.544a1.174,1.174,0,0,1,0,2.348Z" transform="translate(-1211.473 -185.631)" fill="#1f4c38"/>
    </g>
    <g id="Grupo_1965" data-name="Grupo 1965" transform="translate(159.577 41.782)">
      <path id="Trazado_2599" data-name="Trazado 2599" d="M1260.48,172.884a6.282,6.282,0,0,1-1.693-12.327,1.174,1.174,0,0,1,.637,2.26,3.932,3.932,0,1,0,2.133,7.569,1.174,1.174,0,0,1,.637,2.259A6.3,6.3,0,0,1,1260.48,172.884Z" transform="translate(-1254.209 -160.513)" fill="#1f4c38"/>
    </g>
    <g id="Grupo_1966" data-name="Grupo 1966" transform="translate(123.163 46.095)">
      <path id="Trazado_2600" data-name="Trazado 2600" d="M1256.028,180.509a15.463,15.463,0,1,0-15.464,15.464A15.463,15.463,0,0,0,1256.028,180.509Z" transform="translate(-1223.929 -163.872)" fill="#fff"/>
      <path id="Trazado_2601" data-name="Trazado 2601" d="M1240.769,197.351a16.637,16.637,0,1,1,16.637-16.637A16.656,16.656,0,0,1,1240.769,197.351Zm0-30.927a14.29,14.29,0,1,0,14.29,14.29A14.306,14.306,0,0,0,1240.769,166.424Z" transform="translate(-1224.133 -164.076)" fill="#1f4c38"/>
    </g>
    <g id="Grupo_1967" data-name="Grupo 1967" transform="translate(128.938 51.87)">
      <path id="Trazado_2602" data-name="Trazado 2602" d="M1249.249,179.5a9.689,9.689,0,1,0-9.69,9.689A9.689,9.689,0,0,0,1249.249,179.5Z" transform="translate(-1228.699 -168.642)" fill="#fff"/>
      <path id="Trazado_2603" data-name="Trazado 2603" d="M1239.764,190.571a10.862,10.862,0,1,1,10.862-10.862A10.874,10.874,0,0,1,1239.764,190.571Zm0-19.377a8.515,8.515,0,1,0,8.516,8.515A8.523,8.523,0,0,0,1239.764,171.194Z" transform="translate(-1228.903 -168.846)" fill="#1f4c38"/>
    </g>
    <g id="Grupo_1968" data-name="Grupo 1968" transform="translate(134.733 57.666)">
      <path id="Trazado_2604" data-name="Trazado 2604" d="M1242.444,178.5a3.892,3.892,0,1,0-3.892,3.892A3.892,3.892,0,0,0,1242.444,178.5Z" transform="translate(-1233.485 -173.429)" fill="#fff"/>
      <path id="Trazado_2605" data-name="Trazado 2605" d="M1238.756,183.767a5.067,5.067,0,1,1,5.067-5.067A5.074,5.074,0,0,1,1238.756,183.767Zm0-7.786a2.719,2.719,0,1,0,2.719,2.719A2.723,2.723,0,0,0,1238.756,175.981Z" transform="translate(-1233.689 -173.633)" fill="#1f4c38"/>
    </g>
  </g>
  <g id="Grupo_1970" data-name="Grupo 1970" transform="translate(42.694 151.87)">
    <path id="Trazado_2606" data-name="Trazado 2606" d="M1233.053,235.442a17.467,17.467,0,0,0,16.382-11.415l-15.1-.025-5.213-3.01v-6.018l5.212-3.01,15.1-.025a17.464,17.464,0,0,0-32.561-.53H1161.94a10.748,10.748,0,1,0-.107,13.149h55.044A17.458,17.458,0,0,0,1233.053,235.442Zm-85.5-17.531a5.843,5.843,0,1,1,5.843,5.844A5.842,5.842,0,0,1,1147.551,217.911Z" transform="translate(-1142.644 -200.523)" fill="#fff"/>
  </g>
  <g id="Grupo_1971" data-name="Grupo 1971" transform="translate(93.234 170.67)">
    <path id="Trazado_2607" data-name="Trazado 2607" d="M1196.37,217.813h-11.1a.88.88,0,1,1,0-1.76h11.1a.88.88,0,0,1,0,1.76Z" transform="translate(-1184.388 -216.051)" fill="#1f4c38"/>
  </g>
  <g id="Grupo_1972" data-name="Grupo 1972" transform="translate(66.469 168.451)">
    <path id="Trazado_2608" data-name="Trazado 2608" d="M1186.656,218.2h-21.274a3.1,3.1,0,0,1-3.1-3.1.88.88,0,1,1,1.76,0,1.342,1.342,0,0,0,1.34,1.34h21.274a.88.88,0,0,1,0,1.76Z" transform="translate(-1162.281 -214.218)" fill="#1f4c38"/>
  </g>
  <g id="Grupo_1973" data-name="Grupo 1973" transform="translate(115.737 160.677)">
    <path id="Trazado_2609" data-name="Trazado 2609" d="M1203.855,214.254a.88.88,0,0,1-.88-.879,11.888,11.888,0,0,1,1.311-5.119.88.88,0,1,1,1.546.843,10.123,10.123,0,0,0-1.1,4.275.879.879,0,0,1-.88.88Z" transform="translate(-1202.975 -207.797)" fill="#003825"/>
  </g>
  <g id="Grupo_1974" data-name="Grupo 1974" transform="translate(41.521 150.697)">
    <path id="Trazado_2610" data-name="Trazado 2610" d="M1233.257,236.819a18.554,18.554,0,0,1-16.946-10.884h-53.722a11.927,11.927,0,1,1,.119-15.5h53.6a18.557,18.557,0,0,1,16.945-10.885h0a18.7,18.7,0,0,1,17.486,12.183,1.174,1.174,0,0,1-1.1,1.58l-14.785.024-4.355,2.513v4.665l4.354,2.513,14.785.025a1.173,1.173,0,0,1,1.1,1.58A18.71,18.71,0,0,1,1233.257,236.819Zm-16.175-13.231a1.171,1.171,0,0,1,1.087.731,16.288,16.288,0,0,0,29.689,1.082l-13.319-.023a1.183,1.183,0,0,1-.586-.156l-5.212-3.01a1.171,1.171,0,0,1-.587-1.017v-6.018a1.173,1.173,0,0,1,.587-1.017l5.213-3.009a1.166,1.166,0,0,1,.585-.157l13.321-.023a16.36,16.36,0,0,0-14.6-9.071h0a16.227,16.227,0,0,0-15.087,10.153,1.172,1.172,0,0,1-1.087.732h-54.936a1.174,1.174,0,0,1-.933-.462,9.575,9.575,0,1,0-.1,11.711,1.176,1.176,0,0,1,.923-.447Zm-63.484,1.544a7.016,7.016,0,1,1,0-14.032h0a7.016,7.016,0,0,1,0,14.032Zm0-11.684a4.667,4.667,0,1,0,3.3,1.367,4.641,4.641,0,0,0-3.3-1.367Z" transform="translate(-1141.675 -199.554)" fill="#1f4c38"/>
  </g>
  <g id="Grupo_1975" data-name="Grupo 1975" transform="translate(123.81 179.656)">
    <path id="Trazado_2611" data-name="Trazado 2611" d="M1219.313,228.464h0a14.478,14.478,0,0,1-9.36-3.441.88.88,0,0,1,1.139-1.341,12.718,12.718,0,0,0,8.221,3.022.88.88,0,1,1,0,1.76Z" transform="translate(-1209.643 -223.473)" fill="#1f4c38"/>
  </g>
  <g id="Grupo_1976" data-name="Grupo 1976" transform="translate(120.045 174.472)">
    <path id="Trazado_2612" data-name="Trazado 2612" d="M1208.458,222.991a.883.883,0,0,1-.747-.413l-.087-.139a8.591,8.591,0,0,1-1.039-2.071.881.881,0,0,1,1.659-.592,6.815,6.815,0,0,0,.87,1.726l.088.14a.88.88,0,0,1-.745,1.349Z" transform="translate(-1206.533 -219.191)" fill="#1f4c38"/>
  </g>
  <g id="Grupo_1977" data-name="Grupo 1977" transform="translate(46.32 107.745)">
    <path id="Trazado_2613" data-name="Trazado 2613" d="M1177.535,180.509a15.464,15.464,0,1,0-15.463,15.464A15.464,15.464,0,0,0,1177.535,180.509Z" transform="translate(-1145.435 -163.873)" fill="#fff"/>
    <path id="Trazado_2614" data-name="Trazado 2614" d="M1162.276,197.351a16.637,16.637,0,1,1,16.636-16.637A16.657,16.657,0,0,1,1162.276,197.351Zm0-30.926a14.289,14.289,0,1,0,14.29,14.289A14.305,14.305,0,0,0,1162.276,166.425Z" transform="translate(-1145.639 -164.077)" fill="#1f4c38"/>
  </g>
  <g id="Grupo_1978" data-name="Grupo 1978" transform="translate(52.525 113.925)">
    <path id="Trazado_2615" data-name="Trazado 2615" d="M1170.3,179.434a9.284,9.284,0,1,0-9.284,9.284A9.284,9.284,0,0,0,1170.3,179.434Z" transform="translate(-1150.56 -168.977)" fill="#fff"/>
    <path id="Trazado_2616" data-name="Trazado 2616" d="M1161.221,190.095a10.457,10.457,0,1,1,10.458-10.457A10.468,10.468,0,0,1,1161.221,190.095Zm0-18.566a8.11,8.11,0,1,0,8.11,8.109A8.119,8.119,0,0,0,1161.221,171.529Z" transform="translate(-1150.764 -169.181)" fill="#1f4c38"/>
  </g>
  <g id="Grupo_1979" data-name="Grupo 1979" transform="translate(58.186 119.586)">
    <path id="Trazado_2617" data-name="Trazado 2617" d="M1163.654,178.448a3.622,3.622,0,1,0-3.622,3.622A3.622,3.622,0,0,0,1163.654,178.448Z" transform="translate(-1155.236 -173.653)" fill="#fff"/>
    <path id="Trazado_2618" data-name="Trazado 2618" d="M1160.236,183.449a4.8,4.8,0,1,1,4.8-4.8A4.8,4.8,0,0,1,1160.236,183.449Zm0-7.245a2.449,2.449,0,1,0,2.449,2.448A2.451,2.451,0,0,0,1160.236,176.2Z" transform="translate(-1155.44 -173.857)" fill="#1f4c38"/>
  </g>
</svg>
