<svg xmlns="http://www.w3.org/2000/svg" xmlns:xlink="http://www.w3.org/1999/xlink" width="63" height="63" viewBox="0 0 63 63">
  <defs>
    <filter id="Elipse_69" x="0" y="0" width="63" height="63" filterUnits="userSpaceOnUse">
      <feOffset dy="3" input="SourceAlpha"/>
      <feGaussianBlur stdDeviation="3" result="blur"/>
      <feFlood flood-opacity="0.161"/>
      <feComposite operator="in" in2="blur"/>
      <feComposite in="SourceGraphic"/>
    </filter>
  </defs>
  <g id="Componente_166_1" data-name="Componente 166 – 1" transform="translate(9 6)">
    <g transform="matrix(1, 0, 0, 1, -9, -6)" filter="url(#Elipse_69)">
      <g id="Elipse_69-2" data-name="Elipse 69" transform="translate(9 6)" fill="#fff" stroke="#67bc47" stroke-width="1">
        <circle cx="22.5" cy="22.5" r="22.5" stroke="none"/>
        <circle cx="22.5" cy="22.5" r="22" fill="none"/>
      </g>
    </g>
    <g id="noun_smart_phone_2344183" data-name="noun_smart phone_2344183" transform="translate(-17 -7)">
      <path id="Trazado_2918" data-name="Trazado 2918" d="M45.967,12H33.533A2.536,2.536,0,0,0,31,14.533V44.467A2.536,2.536,0,0,0,33.533,47H45.967A2.536,2.536,0,0,0,48.5,44.467V14.533A2.536,2.536,0,0,0,45.967,12Zm2.072,32.467a2.075,2.075,0,0,1-2.072,2.072H33.533a2.075,2.075,0,0,1-2.072-2.072V14.533a2.075,2.075,0,0,1,2.072-2.072H45.967a2.075,2.075,0,0,1,2.072,2.072Z" transform="translate(0)" fill="#67bc47"/>
      <path id="Trazado_2919" data-name="Trazado 2919" d="M46.832,14H45.6a.683.683,0,0,0-.659.449.69.69,0,0,1-.655.472H37.834a.69.69,0,0,1-.655-.472.683.683,0,0,0-.66-.449H34.826A1.828,1.828,0,0,0,33,15.826V45.332a1.828,1.828,0,0,0,1.826,1.826H46.832a1.828,1.828,0,0,0,1.826-1.826V15.826A1.828,1.828,0,0,0,46.832,14ZM48.2,45.332A1.367,1.367,0,0,1,46.832,46.7H34.826a1.367,1.367,0,0,1-1.365-1.365V15.826a1.367,1.367,0,0,1,1.365-1.365h1.693a.231.231,0,0,1,.223.135,1.15,1.15,0,0,0,1.092.786h6.447a1.15,1.15,0,0,0,1.092-.786.231.231,0,0,1,.223-.135h1.236A1.367,1.367,0,0,1,48.2,15.826Z" transform="translate(-1.079 -1.079)" fill="#67bc47"/>
      <path id="Trazado_2921" data-name="Trazado 2921" d="M47.23,14.461h2.3a.23.23,0,1,0,0-.461h-2.3a.23.23,0,0,0,0,.461Z" transform="translate(-8.632 -1.079)" fill="#67bc47"/>
      <ellipse id="Elipse_71" data-name="Elipse 71" cx="0.5" rx="0.5" transform="translate(42 13)" fill="#67bc47"/>
      <path id="Trazado_2922" data-name="Trazado 2922" d="M39.712,33.17a.23.23,0,0,0,.163-.067l3.219-3.218a.23.23,0,1,0-.326-.326l-3.219,3.218a.23.23,0,0,0,.163.393Z" transform="translate(-4.576 -9.436)" fill="#67bc47"/>
      <path id="Trazado_2923" data-name="Trazado 2923" d="M44.485,28.758,38.633,34.61a.23.23,0,1,0,.326.326l5.852-5.852a.23.23,0,1,0-.326-.326Z" transform="translate(-4.081 -9.004)" fill="#67bc47"/>
    </g>
  </g>
</svg>
