<svg width="25" height="25" viewBox="0 0 25 25" fill="none" xmlns="http://www.w3.org/2000/svg">
<g id="Component 16">
<path id="Vector" d="M3.72142 22.46H8.78591V13.964H16.2146V22.46H21.2791V9.2L12.5003 2.54L3.72142 9.2V22.46ZM3.72142 24.5C3.18136 24.5 2.70732 24.296 2.30528 23.888C1.90324 23.48 1.69922 23.006 1.69922 22.46V9.2C1.69922 8.858 1.76523 8.588 1.90324 8.246C2.03525 7.976 2.23927 7.7 2.5093 7.568L11.2882 0.908C11.4922 0.77 11.6962 0.704 11.8942 0.638C12.0922 0.572 12.3023 0.5 12.5003 0.5C12.6983 0.5 12.9083 0.5 13.1063 0.638C13.3104 0.704 13.5144 0.776 13.7124 0.908L22.4852 7.568C22.7553 7.772 22.9593 7.976 23.0913 8.246C23.2233 8.516 23.2953 8.858 23.2953 9.2V22.46C23.2953 23.006 23.0913 23.48 22.6893 23.888C22.2872 24.296 21.8132 24.5 21.2731 24.5H14.1864V16.004H10.8141V24.5H3.72142Z" fill="black"/>
</g>
</svg>
