<svg xmlns="http://www.w3.org/2000/svg" xmlns:xlink="http://www.w3.org/1999/xlink" width="63" height="63" viewBox="0 0 63 63">
  <defs>
    <filter id="Elipse_70" x="0" y="0" width="63" height="63" filterUnits="userSpaceOnUse">
      <feOffset dy="3" input="SourceAlpha"/>
      <feGaussianBlur stdDeviation="3" result="blur"/>
      <feFlood flood-opacity="0.161"/>
      <feComposite operator="in" in2="blur"/>
      <feComposite in="SourceGraphic"/>
    </filter>
  </defs>
  <g id="Componente_179_1" data-name="Componente 179 – 1" transform="translate(9 6)">
    <g transform="matrix(1, 0, 0, 1, -9, -6)" filter="url(#Elipse_70)">
      <g id="Elipse_70-2" data-name="Elipse 70" transform="translate(9 6)" fill="#fff" stroke="#67bc47" stroke-width="1">
        <circle cx="22.5" cy="22.5" r="22.5" stroke="none"/>
        <circle cx="22.5" cy="22.5" r="22" fill="none"/>
      </g>
    </g>
    <g id="Grupo_2808" data-name="Grupo 2808" transform="translate(-119.574 -172.436)">
      <path id="Trazado_2713" data-name="Trazado 2713" d="M139.779,204.951v-2.387c-.186-.012-.37-.035-.554-.035q-3.637,0-7.273,0a2.441,2.441,0,0,1-1.5-.4,2.091,2.091,0,0,1-.868-1.791q-.008-7.6,0-15.208a2.023,2.023,0,0,1,2.027-2.194c.175-.017.352-.018.528-.018q9.72,0,19.44,0a2.743,2.743,0,0,1,1.608.355,1.868,1.868,0,0,1,.887,1.492c.006.088.011.176.011.264q0,7.692,0,15.384a2,2,0,0,1-1.506,2.025,3.76,3.76,0,0,1-.918.084q-3.615.01-7.229,0h-.51v2.423h9.357c.75,0,.809.06.81.8,0,.4-.008.794,0,1.19a.424.424,0,0,1-.446.484c-.146.012-.294.011-.44.011H130.454c-.82,0-.877-.057-.878-.87,0-.294,0-.588,0-.882.006-.607.121-.727.719-.731.749,0,1.5,0,2.248,0h7.235Zm13.5-6.548v-.521q0-6.235,0-12.471c0-1.246-.413-1.662-1.655-1.662H132.151a2.013,2.013,0,0,0-.613.026,2.58,2.58,0,0,0-.789.4,1.175,1.175,0,0,0-.315,1.011q0,6.456,0,12.911c0,.1.018.193.029.3Zm-11.959.908H130.436c0,.313,0,.6,0,.891,0,1.079.382,1.465,1.452,1.466q4.518,0,9.035,0c.12,0,.241-.017.4-.029C140.384,200.845,140.383,200.126,141.324,199.311Zm7.88,2.312c.8.1.8.1.8-.614,0-.162-.005-.324.005-.485.018-.267.143-.5.429-.421a.652.652,0,0,1,.379.421,8.455,8.455,0,0,1,.03.876.367.367,0,0,0,.241.256,7.033,7.033,0,0,0,1.143-.013,1.034,1.034,0,0,0,.977-.87c.065-.327.038-.671.081-1,.051-.391-.1-.5-.485-.494-3.334.015-6.669.009-10,.01-.124,0-.247.013-.462.024a1.4,1.4,0,0,1,.729,1.166,1.475,1.475,0,0,1-.755,1.192h5.066c.974,0,.974,0,1-.99,0-.015,0-.029,0-.044.015-.273.023-.554.407-.55s.41.271.416.55C149.21,200.967,149.2,201.3,149.2,201.622Zm4.021,4.959c.153-.779.131-.808-.6-.808H130.457v.809Zm-10.191-4.053c-.746,0-1.46-.01-2.173.012a.37.37,0,0,0-.24.268c-.022.629-.018,1.259,0,1.889,0,.084.114.236.178.237.74.017,1.48.011,2.238.011Zm-1.166-2.609c-.19.246-.39.392-.384.528s.206.285.321.427c.147-.13.37-.239.415-.4C142.253,200.364,142.045,200.183,141.868,199.92Z" fill="#67bc47"/>
      <path id="Trazado_2714" data-name="Trazado 2714" d="M159.079,201.607H169c.586,0,.689.1.689.691q0,5.84,0,11.681c0,.556-.142.7-.711.7q-9.94,0-19.879,0c-.583,0-.65-.076-.65-.674q0-5.906,0-11.813c0-.524.058-.582.585-.582Q154.054,201.6,159.079,201.607Zm9.723,12.225c.012-.154.028-.268.028-.382,0-3.54-.005-7.079.01-10.619,0-.376-.138-.426-.462-.426q-9.319.012-18.638.006h-.45v11.421Z" transform="translate(-17.205 -17.039)" fill="#67bc47"/>
      <path id="Trazado_2715" data-name="Trazado 2715" d="M208.787,220.762a2.6,2.6,0,0,1-.277.426q-4.168,4.18-8.346,8.35c-.2.2-.434.372-.682.11-.23-.243-.1-.484.107-.69q4.19-4.189,8.386-8.372a.673.673,0,0,1,.488-.169C208.574,220.428,208.665,220.624,208.787,220.762Z" transform="translate(-63.632 -34.188)" fill="#67bc47"/>
      <path id="Trazado_2716" data-name="Trazado 2716" d="M236.944,230.038c-.4,0-.591-.331-.433-.6a1.77,1.77,0,0,1,.292-.327q4.063-4.065,8.128-8.129c.073-.073.137-.185.223-.206.163-.04.426-.1.49-.021a.774.774,0,0,1,.089.538c-.013.108-.156.2-.249.3q-4.048,4.05-8.1,8.1A4.587,4.587,0,0,1,236.944,230.038Z" transform="translate(-97.458 -34.463)" fill="#67bc47"/>
    </g>
  </g>
</svg>
