<svg width="24" height="25" viewBox="0 0 24 25" fill="none" xmlns="http://www.w3.org/2000/svg">
<g id="Component 31">
<path id="Vector" d="M1.1877 23.9C0.845789 23.9 0.593852 23.8169 0.341915 23.5617C0.0899775 23.3125 0 23.0573 0 22.725V12.2386L2.88528 3.85303C2.96926 3.60378 3.13722 3.34859 3.39515 3.18242C3.65309 3.01626 3.90502 2.93317 4.24094 2.93317H8.73382V1.59196C8.73382 1.25369 8.8178 1.00444 9.07573 0.83827C9.24369 0.589019 9.5856 0.5 9.83754 0.5H14.3304C14.6723 0.5 14.9243 0.583084 15.0922 0.83827C15.3442 1.00444 15.4341 1.34271 15.4341 1.59196V2.85009H19.927C20.179 2.85009 20.4369 2.93317 20.6888 3.09934C20.9408 3.26551 21.1147 3.43761 21.1147 3.76995L24 12.1555V22.725C24 23.0632 23.916 23.3125 23.6581 23.5617C23.4061 23.811 23.1482 23.9 22.8123 23.9C22.4764 23.9 22.2184 23.8169 21.9665 23.5617C21.7146 23.3125 21.6246 23.0573 21.6246 22.725V21.0455H2.29143V22.808C2.29143 23.1463 2.20745 23.3956 1.94951 23.6448C1.78155 23.7279 1.52362 23.8941 1.1877 23.8941V23.9ZM2.54336 10.4819H21.6186L19.5851 4.69574H4.49288L2.54336 10.4819ZM5.34466 17.4432C5.85454 17.4432 6.27443 17.277 6.61635 16.9388C6.95826 16.6005 7.12622 16.1851 7.12622 15.6806C7.12622 15.1762 6.95826 14.7608 6.61635 14.4225C6.27443 14.0842 5.85454 13.9181 5.34466 13.9181C4.83479 13.9181 4.4149 14.0842 4.07298 14.4225C3.73107 14.7608 3.56311 15.1762 3.56311 15.6806C3.56311 16.1851 3.73107 16.6005 4.07298 16.9388C4.49888 17.277 4.91877 17.4432 5.34466 17.4432ZM18.7393 17.4432C19.2492 17.4432 19.6691 17.277 20.011 16.9388C20.3529 16.6005 20.5209 16.1851 20.5209 15.6806C20.5209 15.1762 20.3529 14.7608 20.011 14.4225C19.6691 14.0842 19.2492 13.9181 18.7393 13.9181C18.2294 13.9181 17.8095 14.0842 17.4676 14.4225C17.1257 14.7608 16.9578 15.1762 16.9578 15.6806C16.9578 16.1851 17.1257 16.6005 17.4676 16.9388C17.8095 17.277 18.2294 17.4432 18.7393 17.4432ZM1.78155 19.2888H22.2124V12.2445H1.78155V19.2888Z" fill="#9B4CBA"/>
</g>
</svg>
