<svg xmlns="http://www.w3.org/2000/svg" width="28.658" height="25.828" viewBox="0 0 28.658 25.828">
  <g id="Grupo_3011" data-name="Grupo 3011" transform="translate(-483 -1414)">
    <circle id="Elipse_168" data-name="Elipse 168" cx="6.5" cy="6.5" r="6.5" transform="translate(496.284 1425)" fill="#67bc47" opacity="0.48"/>
    <g id="Grupo_3010" data-name="Grupo 3010">
      <g id="noun_upload_photo_1337310" data-name="noun_upload photo_1337310" transform="translate(482.494 1410.334)">
        <path id="Trazado_3191" data-name="Trazado 3191" d="M25.722,15.665V6.633a2.971,2.971,0,0,0-2.967-2.967H3.473A2.971,2.971,0,0,0,.506,6.633V22.395a2.971,2.971,0,0,0,2.967,2.967H14.94a7.514,7.514,0,1,0,10.781-9.7ZM3.473,24.018A1.625,1.625,0,0,1,1.85,22.395V6.633A1.625,1.625,0,0,1,3.473,5.01H22.755a1.625,1.625,0,0,1,1.624,1.624v8.343a7.305,7.305,0,0,0-4.03-.4l-2.19-1.78-.009-.006a.641.641,0,0,0-.059-.039.584.584,0,0,0-.055-.034c-.014-.007-.03-.012-.045-.018a.721.721,0,0,0-.078-.03l-.031-.006a.633.633,0,0,0-.1-.016h-.039a.658.658,0,0,0-.089,0c-.016,0-.032.007-.048.009a.6.6,0,0,0-.079.018c-.015,0-.029.012-.044.018a.644.644,0,0,0-.078.035l-.009,0-3.042,1.748L10.74,11.111s-.009,0-.013-.008a.663.663,0,0,0-.2-.124l-.026-.01a.664.664,0,0,0-.225-.036h-.03a.661.661,0,0,0-.219.051L10,11a.674.674,0,0,0-.148.093L3,16.914a.672.672,0,0,0,.87,1.023L10.263,12.5l5.357,4.992a7.43,7.43,0,0,0-1.205,6.525H3.473Zm13.042-7.527-1.129-1.052,2.283-1.311,1.106.9A7.542,7.542,0,0,0,16.515,16.491Zm5.13,11.659a6.176,6.176,0,1,1,6.176-6.176A6.183,6.183,0,0,1,21.645,28.15Z" fill="#1f4c38"/>
        <path id="Trazado_3192" data-name="Trazado 3192" d="M8.378,13.946a2.833,2.833,0,1,0-2.833-2.833A2.837,2.837,0,0,0,8.378,13.946Zm0-4.323a1.49,1.49,0,1,1-1.49,1.49A1.491,1.491,0,0,1,8.378,9.623Z" transform="translate(-2.782 -2.548)" fill="#1f4c38"/>
        <path id="Trazado_3193" data-name="Trazado 3193" d="M43.986,35.951l-.009-.006c-.009-.009-.02-.015-.03-.023l-.049-.032-.032-.02-.031-.014c-.017-.008-.035-.014-.053-.021l-.038-.014-.032-.008c-.018,0-.036-.008-.055-.01l-.04-.007H43.58l-.027,0-.027,0h-.037l-.04.007-.055.01-.032.008-.038.014c-.018.007-.035.013-.053.021l-.031.014-.033.02c-.017.01-.033.021-.048.032s-.021.014-.03.023l-.009.006-2.7,2.277a.672.672,0,1,0,.867,1.026l1.591-1.344v5.048a.672.672,0,1,0,1.344,0V37.911l1.591,1.344a.672.672,0,1,0,.867-1.026Z" transform="translate(-21.908 -17.738)" fill="#1f4c38"/>
      </g>
    </g>
  </g>
</svg>
