<svg xmlns="http://www.w3.org/2000/svg" xmlns:xlink="http://www.w3.org/1999/xlink" width="63" height="63" viewBox="0 0 63 63">
  <defs>
    <filter id="Elipse_68" x="0" y="0" width="63" height="63" filterUnits="userSpaceOnUse">
      <feOffset dy="3" input="SourceAlpha"/>
      <feGaussianBlur stdDeviation="3" result="blur"/>
      <feFlood flood-opacity="0.161"/>
      <feComposite operator="in" in2="blur"/>
      <feComposite in="SourceGraphic"/>
    </filter>
  </defs>
  <g id="Componente_177_1" data-name="Componente 177 – 1" transform="translate(9 6)">
    <g transform="matrix(1, 0, 0, 1, -9, -6)" filter="url(#Elipse_68)">
      <g id="Elipse_68-2" data-name="Elipse 68" transform="translate(9 6)" fill="#fff" stroke="#67bc47" stroke-width="1">
        <circle cx="22.5" cy="22.5" r="22.5" stroke="none"/>
        <circle cx="22.5" cy="22.5" r="22" fill="none"/>
      </g>
    </g>
    <g id="noun_Call_Center_1033176" data-name="noun_Call Center_1033176" transform="translate(-2.256 3.839)">
      <path id="Trazado_3011" data-name="Trazado 3011" d="M35.932,13a1.943,1.943,0,0,0-1.138-.7C33.783,7.062,29.705,3.3,24.932,3.3s-8.851,3.762-9.862,9.009a1.884,1.884,0,0,0-1.138.7,3.881,3.881,0,0,0-.474,3.035c.537,2.592,2.276,2.308,2.908,2.213.063,0,.126-.032.19-.032a.632.632,0,0,0,0-1.264c-.126,0-.253.032-.379.032-.6.095-1.2.19-1.486-1.233a2.514,2.514,0,0,1,.221-1.96.7.7,0,0,1,.632-.253h.063A.6.6,0,0,0,16.239,13c.759-4.9,4.425-8.44,8.693-8.44S32.866,8.1,33.625,13a.643.643,0,0,0,.632.537h.063a.788.788,0,0,1,.632.253,2.714,2.714,0,0,1,.221,1.96c-.284,1.422-.885,1.328-1.486,1.233a1.539,1.539,0,0,0-.379-.032.666.666,0,0,0-.411.158c-.032.032-4.046,3.414-8.377,2.5a1.1,1.1,0,1,0-1.043,1.422,1.192,1.192,0,0,0,.664-.221,8.472,8.472,0,0,0,1.96.221,13.024,13.024,0,0,0,7.428-2.782c.664.095,2.371.348,2.908-2.213A4.051,4.051,0,0,0,35.932,13Z" fill="#67bc47"/>
      <path id="Trazado_3012" data-name="Trazado 3012" d="M30.089,26.5a7.4,7.4,0,0,0,1.17-1.264,12.018,12.018,0,0,1-2.845.917,5.669,5.669,0,0,1-3.035.885c-3.6,0-6.512-3.414-6.512-7.586s2.908-7.586,6.512-7.586,6.512,3.414,6.512,7.586a8.8,8.8,0,0,1-.853,3.793,12.865,12.865,0,0,0,1.77-1.106,9.356,9.356,0,0,0,.379-2.687c0-4.868-3.477-8.851-7.776-8.851s-7.776,3.983-7.776,8.851A9.3,9.3,0,0,0,20.7,26.5c-3.762.98-6.7,3.635-6.7,6.1,0,3.6,5.721,5.216,11.379,5.216S36.759,36.2,36.759,32.6C36.759,30.135,33.819,27.48,30.089,26.5Zm-4.71,10.052c-5.848,0-10.115-1.675-10.115-3.951,0-1.77,2.624-4.3,6.417-5.058l.443-.095a6.86,6.86,0,0,0,6.512,0l.443.095c3.793.759,6.417,3.256,6.417,5.058C35.495,34.908,31.227,36.552,25.379,36.552Z" transform="translate(-0.447 -4.992)" fill="#67bc47"/>
    </g>
  </g>
</svg>
