<svg xmlns="http://www.w3.org/2000/svg" xmlns:xlink="http://www.w3.org/1999/xlink" width="63" height="63" viewBox="0 0 63 63">
  <defs>
    <filter id="Elipse_68" x="0" y="0" width="63" height="63" filterUnits="userSpaceOnUse">
      <feOffset dy="3" input="SourceAlpha"/>
      <feGaussianBlur stdDeviation="3" result="blur"/>
      <feFlood flood-opacity="0.161"/>
      <feComposite operator="in" in2="blur"/>
      <feComposite in="SourceGraphic"/>
    </filter>
    <clipPath id="clip-path">
      <rect id="Rectángulo_1988" data-name="Rectángulo 1988" width="24.102" height="24.215" fill="#67bc47"/>
    </clipPath>
  </defs>
  <g id="Componente_174_1" data-name="Componente 174 – 1" transform="translate(9 6)">
    <g transform="matrix(1, 0, 0, 1, -9, -6)" filter="url(#Elipse_68)">
      <g id="Elipse_68-2" data-name="Elipse 68" transform="translate(9 6)" fill="#fff" stroke="#67bc47" stroke-width="1">
        <circle cx="22.5" cy="22.5" r="22.5" stroke="none"/>
        <circle cx="22.5" cy="22.5" r="22" fill="none"/>
      </g>
    </g>
    <g id="ico_talleres" transform="translate(5 5.027)">
      <rect id="Rectángulo_1824" data-name="Rectángulo 1824" width="34" height="34" transform="translate(0 -0.027)" fill="none"/>
      <g id="Grupo_1736" data-name="Grupo 1736" transform="translate(5 5)">
        <path id="Trazado_2211" data-name="Trazado 2211" d="M628.342,1137.437a.471.471,0,1,0,.471.471.471.471,0,0,0-.471-.471Zm0,0" transform="translate(-611.966 -1130.103)" fill="#67bc47"/>
        <g id="Grupo_1737" data-name="Grupo 1737">
          <g id="Grupo_1736-2" data-name="Grupo 1736" clip-path="url(#clip-path)">
            <path id="Trazado_2212" data-name="Trazado 2212" d="M482.987,1282.793a.471.471,0,1,0,.471.471.471.471,0,0,0-.471-.471Zm0,0" transform="translate(-475.178 -1266.893)" fill="#67bc47"/>
            <path id="Trazado_2213" data-name="Trazado 2213" d="M381.951,1016.22a.471.471,0,0,0-.441.127l-1.954,1.97h-.937l-1.031-1.069v-.95l1.926-1.955a.472.472,0,0,0-.185-.778,4.718,4.718,0,0,0-6.061,5.69l-3.473,3.473-5.786-5.8v-1.138a.471.471,0,0,0-.229-.4l-3.333-2a.471.471,0,0,0-.576.071l-1.333,1.333a.472.472,0,0,0-.071.576l2,3.333a.471.471,0,0,0,.4.229h1.138l5.786,5.8-3.46,3.46a4.718,4.718,0,0,0-5.691,6.061.472.472,0,0,0,.782.182l1.954-1.97h.942l1.073,1.073v.942l-1.97,1.954a.472.472,0,0,0,.181.781,4.719,4.719,0,0,0,6.061-5.69l2.778-2.779.637.691-.292.292a.472.472,0,1,0,.667.667l.265-.264,5.972,6.487.014.014a2.829,2.829,0,0,0,4-4l-.015-.014-6.5-5.96.262-.262a.472.472,0,0,0-.667-.667l-.29.29-.693-.636,2.792-2.792a4.717,4.717,0,0,0,5.69-6.06.471.471,0,0,0-.34-.309Zm-19.414,1.905a.466.466,0,0,0-.334-.134h-1.066l-1.673-2.794.813-.813,2.789,1.674v1.066a.472.472,0,0,0,.138.333l5.924,5.938-.667.667Zm11.992,9.2,6.519,5.98a1.886,1.886,0,0,1-2.668,2.667l-5.991-6.508Zm-.7-.638-2.084,2.083-.637-.691,2.028-2.028Zm3.988-4.878a3.772,3.772,0,0,1-1.205-.2.472.472,0,0,0-.484.113l-9.332,9.332a.472.472,0,0,0-.113.484,3.775,3.775,0,0,1-3.575,4.976,3.866,3.866,0,0,1-.411-.022l1.5-1.486a.472.472,0,0,0,.139-.335v-1.333a.471.471,0,0,0-.138-.333l-1.35-1.35a.472.472,0,0,0-.333-.138h-1.334a.473.473,0,0,0-.335.14l-1.486,1.5a3.819,3.819,0,0,1-.022-.411,3.775,3.775,0,0,1,4.977-3.575.471.471,0,0,0,.484-.114l9.332-9.332a.471.471,0,0,0,.114-.484,3.775,3.775,0,0,1,3.575-4.977,3.818,3.818,0,0,1,.423.023l-1.466,1.488a.472.472,0,0,0-.135.331v1.334a.47.47,0,0,0,.132.327l1.3,1.35a.471.471,0,0,0,.339.144h1.334a.471.471,0,0,0,.334-.139l1.486-1.5a3.774,3.774,0,0,1-3.749,4.182Zm0,0" transform="translate(-358.375 -1013.3)" fill="#67bc47"/>
          </g>
        </g>
        <path id="Trazado_2214" data-name="Trazado 2214" d="M511.177,1160.2l-5.9,5.9a.472.472,0,0,0,.667.667l5.9-5.9a.472.472,0,1,0-.667-.667Zm0,0" transform="translate(-496.468 -1151.395)" fill="#67bc47"/>
        <path id="Trazado_2215" data-name="Trazado 2215" d="M638.611,1294.42a.471.471,0,1,0,.666-.668l-4.25-4.236a.472.472,0,0,0-.666.668Zm0,0" transform="translate(-617.944 -1273.09)" fill="#67bc47"/>
      </g>
    </g>
  </g>
</svg>
