<svg xmlns="http://www.w3.org/2000/svg" xmlns:xlink="http://www.w3.org/1999/xlink" width="63" height="63" viewBox="0 0 63 63">
  <defs>
    <filter id="Elipse_70" x="0" y="0" width="63" height="63" filterUnits="userSpaceOnUse">
      <feOffset dy="3" input="SourceAlpha"/>
      <feGaussianBlur stdDeviation="3" result="blur"/>
      <feFlood flood-opacity="0.161"/>
      <feComposite operator="in" in2="blur"/>
      <feComposite in="SourceGraphic"/>
    </filter>
  </defs>
  <g id="Componente_168_1" data-name="Componente 168 – 1" transform="translate(9 6)">
    <g transform="matrix(1, 0, 0, 1, -9, -6)" filter="url(#Elipse_70)">
      <g id="Elipse_70-2" data-name="Elipse 70" transform="translate(9 6)" fill="#fff" stroke="#67bc47" stroke-width="1">
        <circle cx="22.5" cy="22.5" r="22.5" stroke="none"/>
        <circle cx="22.5" cy="22.5" r="22" fill="none"/>
      </g>
    </g>
    <g id="noun_Keyboard_1520076" transform="translate(8.256 4.458)">
      <path id="Trazado_3021" data-name="Trazado 3021" d="M12.117,70H10.423a.425.425,0,0,0-.423.423v1.482a.425.425,0,0,0,.423.423h1.693a.425.425,0,0,0,.423-.423V70.423A.425.425,0,0,0,12.117,70Zm0,1.905H10.423V70.423h1.693Z" transform="translate(-7.883 -52.818)" fill="#67bc47"/>
      <path id="Trazado_3022" data-name="Trazado 3022" d="M12.117,85H10.423a.425.425,0,0,0-.423.423v1.482a.425.425,0,0,0,.423.423h1.693a.425.425,0,0,0,.423-.423V85.423A.425.425,0,0,0,12.117,85Zm0,1.905H10.423V85.423h1.693Z" transform="translate(-7.883 -64.642)" fill="#67bc47"/>
      <path id="Trazado_3023" data-name="Trazado 3023" d="M12.117,100H10.423a.425.425,0,0,0-.423.423v1.482a.425.425,0,0,0,.423.423h1.693a.425.425,0,0,0,.423-.423v-1.482A.425.425,0,0,0,12.117,100Zm0,1.905H10.423v-1.482h1.693Z" transform="translate(-7.883 -76.467)" fill="#67bc47"/>
      <path id="Trazado_3024" data-name="Trazado 3024" d="M25.4,15.066H21.168v-.847a.423.423,0,0,0-.393-.42,2.839,2.839,0,0,0-.471-1.534c-.7-1.083-2.093-1.221-3.231-1.221H8.35a1.905,1.905,0,0,1-1.394-.615,2.218,2.218,0,0,1-.6-1.617,2.174,2.174,0,0,1,2-2H22.6A2.606,2.606,0,0,0,24.52,6.2a1.516,1.516,0,0,0,.458-1V3.212a.212.212,0,1,0-.423,0V5.194c0,.049-.04,1.193-1.918,1.193H8.35a2.584,2.584,0,0,0-2.419,2.4,2.648,2.648,0,0,0,.717,1.932,2.324,2.324,0,0,0,1.7.747h8.723c1.03,0,2.288.117,2.875,1.028a2.4,2.4,0,0,1,.4,1.3h-.03a.425.425,0,0,0-.423.423v.847H1.693A1.7,1.7,0,0,0,0,16.759v9.525a1.7,1.7,0,0,0,1.693,1.693H25.4a1.7,1.7,0,0,0,1.693-1.693V16.759A1.7,1.7,0,0,0,25.4,15.066Zm-5.08-.847h.423v.847h-.423Zm5.927,12.066a.848.848,0,0,1-.847.847H1.693a.848.848,0,0,1-.847-.847V16.759a.848.848,0,0,1,.847-.847H25.4a.848.848,0,0,1,.847.847Z" fill="#67bc47"/>
      <path id="Trazado_3025" data-name="Trazado 3025" d="M26.423,72.328h1.693a.425.425,0,0,0,.423-.423V70.423A.425.425,0,0,0,28.117,70H26.423a.425.425,0,0,0-.423.423v1.482A.425.425,0,0,0,26.423,72.328Zm0-1.905h1.693v1.482H26.423Z" transform="translate(-20.496 -52.818)" fill="#67bc47"/>
      <path id="Trazado_3026" data-name="Trazado 3026" d="M42.423,72.328h1.693a.425.425,0,0,0,.423-.423V70.423A.425.425,0,0,0,44.117,70H42.423a.425.425,0,0,0-.423.423v1.482A.425.425,0,0,0,42.423,72.328Zm0-1.905h1.693v1.482H42.423Z" transform="translate(-33.11 -52.818)" fill="#67bc47"/>
      <path id="Trazado_3027" data-name="Trazado 3027" d="M58.423,72.328h1.693a.425.425,0,0,0,.423-.423V70.423A.425.425,0,0,0,60.117,70H58.423a.425.425,0,0,0-.423.423v1.482A.425.425,0,0,0,58.423,72.328Zm0-1.905h1.693v1.482H58.423Z" transform="translate(-45.723 -52.818)" fill="#67bc47"/>
      <path id="Trazado_3028" data-name="Trazado 3028" d="M76.117,70H74.423a.425.425,0,0,0-.423.423v1.482a.425.425,0,0,0,.423.423h1.693a.425.425,0,0,0,.423-.423V70.423A.425.425,0,0,0,76.117,70Zm0,1.905H74.423V70.423h1.693Z" transform="translate(-58.336 -52.818)" fill="#67bc47"/>
      <path id="Trazado_3029" data-name="Trazado 3029" d="M92.117,70H90.423a.425.425,0,0,0-.423.423v1.482a.425.425,0,0,0,.423.423h1.693a.425.425,0,0,0,.423-.423V70.423A.425.425,0,0,0,92.117,70Zm0,1.905H90.423V70.423h1.693Z" transform="translate(-70.949 -52.818)" fill="#67bc47"/>
      <path id="Trazado_3030" data-name="Trazado 3030" d="M108.117,70h-1.693a.425.425,0,0,0-.423.423v1.482a.425.425,0,0,0,.423.423h1.693a.425.425,0,0,0,.423-.423V70.423A.425.425,0,0,0,108.117,70Zm0,1.905h-1.693V70.423h1.693Z" transform="translate(-83.562 -52.818)" fill="#67bc47"/>
      <path id="Trazado_3031" data-name="Trazado 3031" d="M26.423,87.328h1.693a.425.425,0,0,0,.423-.423V85.423A.425.425,0,0,0,28.117,85H26.423a.425.425,0,0,0-.423.423v1.482A.425.425,0,0,0,26.423,87.328Zm0-1.905h1.693v1.482H26.423Z" transform="translate(-20.496 -64.642)" fill="#67bc47"/>
      <path id="Trazado_3032" data-name="Trazado 3032" d="M42.423,87.328h1.693a.425.425,0,0,0,.423-.423V85.423A.425.425,0,0,0,44.117,85H42.423a.425.425,0,0,0-.423.423v1.482A.425.425,0,0,0,42.423,87.328Zm0-1.905h1.693v1.482H42.423Z" transform="translate(-33.11 -64.642)" fill="#67bc47"/>
      <path id="Trazado_3033" data-name="Trazado 3033" d="M58.423,87.328h1.693a.425.425,0,0,0,.423-.423V85.423A.425.425,0,0,0,60.117,85H58.423a.425.425,0,0,0-.423.423v1.482A.425.425,0,0,0,58.423,87.328Zm0-1.905h1.693v1.482H58.423Z" transform="translate(-45.723 -64.642)" fill="#67bc47"/>
      <path id="Trazado_3034" data-name="Trazado 3034" d="M76.117,85H74.423a.425.425,0,0,0-.423.423v1.482a.425.425,0,0,0,.423.423h1.693a.425.425,0,0,0,.423-.423V85.423A.425.425,0,0,0,76.117,85Zm0,1.905H74.423V85.423h1.693Z" transform="translate(-58.336 -64.642)" fill="#67bc47"/>
      <path id="Trazado_3035" data-name="Trazado 3035" d="M92.117,85H90.423a.425.425,0,0,0-.423.423v1.482a.425.425,0,0,0,.423.423h1.693a.425.425,0,0,0,.423-.423V85.423A.425.425,0,0,0,92.117,85Zm0,1.905H90.423V85.423h1.693Z" transform="translate(-70.949 -64.642)" fill="#67bc47"/>
      <path id="Trazado_3036" data-name="Trazado 3036" d="M92.117,100H90.423a.425.425,0,0,0-.423.423v1.482a.425.425,0,0,0,.423.423h1.693a.425.425,0,0,0,.423-.423v-1.482A.425.425,0,0,0,92.117,100Zm0,1.905H90.423v-1.482h1.693Z" transform="translate(-70.949 -76.467)" fill="#67bc47"/>
      <path id="Trazado_3037" data-name="Trazado 3037" d="M108.117,85h-1.693a.425.425,0,0,0-.423.423v1.482a.425.425,0,0,0,.423.423h1.693a.425.425,0,0,0,.423-.423V85.423A.425.425,0,0,0,108.117,85Zm0,1.905h-1.693V85.423h1.693Z" transform="translate(-83.562 -64.642)" fill="#67bc47"/>
      <path id="Trazado_3038" data-name="Trazado 3038" d="M108.117,100h-1.693a.425.425,0,0,0-.423.423v1.482a.425.425,0,0,0,.423.423h1.693a.425.425,0,0,0,.423-.423v-1.482A.425.425,0,0,0,108.117,100Zm0,1.905h-1.693v-1.482h1.693Z" transform="translate(-83.562 -76.467)" fill="#67bc47"/>
      <path id="Trazado_3039" data-name="Trazado 3039" d="M38.277,100H26.423a.425.425,0,0,0-.423.423v1.482a.425.425,0,0,0,.423.423H38.277a.425.425,0,0,0,.423-.423v-1.482A.425.425,0,0,0,38.277,100Zm0,1.905H26.423v-1.482H38.277Z" transform="translate(-20.496 -76.467)" fill="#67bc47"/>
    </g>
  </g>
</svg>
