<svg xmlns="http://www.w3.org/2000/svg" xmlns:xlink="http://www.w3.org/1999/xlink" width="63" height="63" viewBox="0 0 63 63">
  <defs>
    <filter id="Elipse_68" x="0" y="0" width="63" height="63" filterUnits="userSpaceOnUse">
      <feOffset dy="3" input="SourceAlpha"/>
      <feGaussianBlur stdDeviation="3" result="blur"/>
      <feFlood flood-opacity="0.161"/>
      <feComposite operator="in" in2="blur"/>
      <feComposite in="SourceGraphic"/>
    </filter>
  </defs>
  <g id="Componente_167_1" data-name="Componente 167 – 1" transform="translate(9 6)">
    <g transform="matrix(1, 0, 0, 1, -9, -6)" filter="url(#Elipse_68)">
      <g id="Elipse_68-2" data-name="Elipse 68" transform="translate(9 6)" fill="#fff" stroke="#67bc47" stroke-width="1">
        <circle cx="22.5" cy="22.5" r="22.5" stroke="none"/>
        <circle cx="22.5" cy="22.5" r="22" fill="none"/>
      </g>
    </g>
    <g id="noun_Phone_3179564" transform="translate(0.076 0.234)">
      <path id="Trazado_2926" data-name="Trazado 2926" d="M65.187,17.487a14.1,14.1,0,0,0-3.152-4.745,14.6,14.6,0,0,0-4.745-3.152,16.067,16.067,0,0,0-2.7-.812.612.612,0,0,0-.227,1.2,12.687,12.687,0,0,1,2.47.715,12.487,12.487,0,0,1,4.322,2.892,13.464,13.464,0,0,1,2.892,4.322,11.262,11.262,0,0,1,.715,2.47.591.591,0,0,0,.585.487h.1a.62.62,0,0,0,.488-.715A11.7,11.7,0,0,0,65.187,17.487Z" transform="translate(-30.336 0)" fill="#67bc47"/>
      <path id="Trazado_2927" data-name="Trazado 2927" d="M51.114,22.079a8.147,8.147,0,0,1,1.982.552,8.906,8.906,0,0,1,2.99,1.982,9.067,9.067,0,0,1,1.982,2.99,8.574,8.574,0,0,1,.552,1.982.6.6,0,0,0,.585.52h.1a.588.588,0,0,0,.487-.682,11.233,11.233,0,0,0-.618-2.275,10.377,10.377,0,0,0-2.242-3.412,9.6,9.6,0,0,0-3.412-2.242,9.208,9.208,0,0,0-2.242-.617.572.572,0,0,0-.682.487A.672.672,0,0,0,51.114,22.079Z" transform="translate(-28.125 -8.168)" fill="#67bc47"/>
      <path id="Trazado_2928" data-name="Trazado 2928" d="M48.014,34.2a5.053,5.053,0,0,1,4.615,4.615.605.605,0,0,0,.617.552h.065a.612.612,0,0,0,.552-.65,6.172,6.172,0,0,0-1.82-3.9,6.342,6.342,0,0,0-3.9-1.82.612.612,0,0,0-.65.552A.587.587,0,0,0,48.014,34.2Z" transform="translate(-26.033 -16.352)" fill="#67bc47"/>
      <path id="Trazado_2929" data-name="Trazado 2929" d="M15.546,29.035h0a27.571,27.571,0,0,0,6.63,4.842,13.69,13.69,0,0,0,6.24,1.82,7.605,7.605,0,0,0,1.235-.1,8.221,8.221,0,0,0,4.972-2.7,3.234,3.234,0,0,0,.975-2.73,2.878,2.878,0,0,0-1.04-1.625,6.123,6.123,0,0,0-1.495-.812,30.439,30.439,0,0,0-4.615-1.4,3.221,3.221,0,0,0-1.852-.032,2.739,2.739,0,0,0-1.137.942c-.1.13-.227.26-.325.39-.26.26-.975.13-1.852-.357a14.651,14.651,0,0,1-3.347-2.6,14.877,14.877,0,0,1-2.6-3.347c-.487-.877-.617-1.592-.357-1.852.1-.1.227-.195.39-.325a2.739,2.739,0,0,0,.942-1.137,2.957,2.957,0,0,0-.032-1.852,30.439,30.439,0,0,0-1.4-4.615,5.584,5.584,0,0,0-.812-1.495,2.719,2.719,0,0,0-1.625-1.04,3.3,3.3,0,0,0-2.73.975,7.57,7.57,0,0,0-1.787,2.242,8.2,8.2,0,0,0-.91,2.73c-.325,2.21.227,4.647,1.722,7.475A28.16,28.16,0,0,0,15.546,29.035ZM10.183,15.093a6.938,6.938,0,0,1,2.307-4.225,2.208,2.208,0,0,1,1.722-.682,1.643,1.643,0,0,1,.91.617,4.619,4.619,0,0,1,.617,1.2,37.242,37.242,0,0,1,1.332,4.452,2.106,2.106,0,0,1,.065,1.17c-.065.228-.325.39-.585.617a5.649,5.649,0,0,0-.487.422,1.8,1.8,0,0,0-.455,1.56,5.05,5.05,0,0,0,.617,1.722,15.5,15.5,0,0,0,2.827,3.607,18.384,18.384,0,0,0,3.607,2.827A5.553,5.553,0,0,0,24.386,29c.1,0,.195.032.292.032a1.772,1.772,0,0,0,1.267-.487,5.649,5.649,0,0,0,.422-.487,2.047,2.047,0,0,1,.617-.585,2.114,2.114,0,0,1,1.17.065,32.079,32.079,0,0,1,4.452,1.332,5.894,5.894,0,0,1,1.2.617,1.643,1.643,0,0,1,.617.91,2.326,2.326,0,0,1-.682,1.722,6.938,6.938,0,0,1-4.225,2.307c-1.95.292-4.16-.227-6.76-1.592a26.854,26.854,0,0,1-6.337-4.615,26.854,26.854,0,0,1-4.615-6.337C10.411,19.253,9.891,17.043,10.183,15.093Z" transform="translate(0 -0.141)" fill="#67bc47"/>
    </g>
  </g>
</svg>
