<svg xmlns="http://www.w3.org/2000/svg" width="58" height="35.637" viewBox="0 0 58 35.637">
  <g id="icono_documentos" data-name="icono documentos" transform="translate(-632 -1000)">
    <g id="Grupo_2229" data-name="Grupo 2229" transform="translate(632 1000)">
      <circle id="Elipse_42" data-name="Elipse 42" cx="8.5" cy="8.5" r="8.5" transform="translate(1 4)" fill="#67bc47" opacity="0.48"/>
      <g id="Grupo_1295" data-name="Grupo 1295">
        <path id="Trazado_1893" data-name="Trazado 1893" d="M838.035,298.932a.783.783,0,0,1,.783-.783h4.233a.783.783,0,1,1,0,1.566h-4.233a.783.783,0,0,1-.783-.783ZM850.181,290H824.315A3.319,3.319,0,0,0,821,293.315v18.134a3.319,3.319,0,0,0,3.315,3.315h25.866a3.319,3.319,0,0,0,3.316-3.315V293.315A3.319,3.319,0,0,0,850.181,290Zm1.749,21.449a1.751,1.751,0,0,1-1.749,1.749h-1.87l.422-.8a.783.783,0,1,0-1.384-.733l-.811,1.531H844.2l.422-.8a.783.783,0,1,0-1.384-.733l-.811,1.531h-2.339l.422-.8a.783.783,0,1,0-1.384-.733l-.811,1.531h-2.339l.422-.8a.783.783,0,1,0-1.384-.733l-.811,1.531h-2.339l.422-.8a.783.783,0,1,0-1.384-.733l-.811,1.531h-2.338l.422-.8a.783.783,0,1,0-1.384-.733l-.811,1.531h-1.669a1.751,1.751,0,0,1-1.749-1.749V293.315a1.751,1.751,0,0,1,1.749-1.749h1.871l-.423.8a.783.783,0,0,0,1.384.733l.81-1.531H830.3l-.422.8a.783.783,0,0,0,1.384.733l.811-1.531h2.339l-.422.8a.783.783,0,0,0,1.384.733l.811-1.531h2.339l-.422.8a.783.783,0,0,0,1.384.733l.811-1.531h2.339l-.422.8a.783.783,0,0,0,1.384.733l.811-1.531h2.339l-.422.8a.783.783,0,0,0,1.384.733l.811-1.531h1.669a1.751,1.751,0,0,1,1.749,1.749v18.134Zm-3.106-5.617a.783.783,0,0,1-.783.783h-9.223a.783.783,0,1,1,0-1.566h9.223a.783.783,0,0,1,.783.783Zm0-3.111a.783.783,0,0,1-.783.783h-9.223a.783.783,0,1,1,0-1.566h9.223a.783.783,0,0,1,.783.783Zm0,0M836.4,300.026a.609.609,0,0,0-.655-.615,2.123,2.123,0,0,0-.911.3,4.508,4.508,0,0,0-1.614-1.935,8.865,8.865,0,0,0-4.909,0,4.524,4.524,0,0,0-1.613,1.935,2.129,2.129,0,0,0-.912-.3.677.677,0,0,0-.42.128.6.6,0,0,0-.235.487,1.707,1.707,0,0,0,.585,1.2.438.438,0,0,0,.156.082,5.364,5.364,0,0,0-.308,1.755,4.911,4.911,0,0,0,.433,2.316v.718a.857.857,0,0,0,.867.867h.867a.857.857,0,0,0,.867-.867V305.8a8.135,8.135,0,0,0,4.334,0v.294a.857.857,0,0,0,.867.867h.867a.857.857,0,0,0,.867-.867v-.718a4.909,4.909,0,0,0,.433-2.316,5.367,5.367,0,0,0-.308-1.755.408.408,0,0,0,.156-.082,1.706,1.706,0,0,0,.585-1.2Zm-7.7-1.477a8.493,8.493,0,0,1,4.136,0,4.08,4.08,0,0,1,1.395,1.971c-.815.115-2.741.375-3.461.375s-2.647-.26-3.462-.375a4.075,4.075,0,0,1,1.393-1.97Zm-2.448,1.984a.989.989,0,0,1-.121-.146,1.838,1.838,0,0,1,.163.088c-.014.02-.029.038-.043.059Zm1.483,5.561h-.867v-.433h.867Zm6.935,0H833.8v-.433h.867Zm.2-1.3h-1.5a.471.471,0,0,0-.137.021,7.581,7.581,0,0,1-4.928,0,.389.389,0,0,0-.044,0,.408.408,0,0,0-.093-.019h-1.5a4.928,4.928,0,0,1-.233-1.733,4.187,4.187,0,0,1,.026-.433c.582.016,1.275.213,1.275.432a.433.433,0,1,0,.867,0c0-1.059-1.43-1.254-1.972-1.291a3.351,3.351,0,0,1,.172-.448h0c.121.018,2.983.438,3.964.438s3.843-.419,3.964-.438h0a3.368,3.368,0,0,1,.172.448c-.542.036-1.971.232-1.971,1.291a.433.433,0,1,0,.867,0c0-.223.688-.413,1.274-.432a4.184,4.184,0,0,1,.026.432,4.924,4.924,0,0,1-.234,1.734Zm.416-4.262c-.014-.02-.028-.039-.042-.058.051-.031.106-.062.163-.088a.949.949,0,0,1-.121.146Zm0,0-2.836,2.85h-3.289v-.658h3.289Z" transform="translate(-821 -290)" fill="#1f4c38"/>
      </g>
    </g>
    <g id="Grupo_2230" data-name="Grupo 2230" transform="translate(657.416 1010.806)">
      <rect id="Rect치ngulo_1847" data-name="Rect치ngulo 1847" width="27.371" height="20.802" rx="4" transform="translate(1.955 2.227)" fill="#c3c4c3"/>
      <g id="Grupo_1296" data-name="Grupo 1296" transform="translate(0)">
        <path id="Trazado_1894" data-name="Trazado 1894" d="M826.182,551.956a.785.785,0,0,1,.785-.785H841.6a.785.785,0,0,1,0,1.57H826.968a.785.785,0,0,1-.785-.785ZM850.26,543H824.324A3.328,3.328,0,0,0,821,546.324v18.183a3.328,3.328,0,0,0,3.324,3.324H850.26a3.328,3.328,0,0,0,3.325-3.324V546.324A3.328,3.328,0,0,0,850.26,543Zm1.754,21.507a1.755,1.755,0,0,1-1.754,1.754h-1.876l.424-.8a.785.785,0,1,0-1.388-.735l-.813,1.535h-2.345l.423-.8a.785.785,0,1,0-1.388-.735l-.813,1.535h-2.345l.424-.8a.785.785,0,1,0-1.388-.735l-.813,1.535h-2.345l.423-.8a.785.785,0,1,0-1.388-.735l-.813,1.535H831.9l.424-.8a.785.785,0,1,0-1.388-.735l-.813,1.535h-2.344l.424-.8a.785.785,0,1,0-1.388-.735L826,566.26h-1.673a1.756,1.756,0,0,1-1.754-1.754V546.324a1.756,1.756,0,0,1,1.754-1.754H826.2l-.424.8a.785.785,0,0,0,1.388.735l.813-1.535h2.345l-.424.8a.785.785,0,0,0,1.388.735l.813-1.535h2.345l-.423.8a.785.785,0,0,0,1.388.735l.813-1.535h2.345l-.424.8a.785.785,0,0,0,1.388.735l.813-1.535h2.345l-.424.8a.785.785,0,0,0,1.388.735l.813-1.535h2.345l-.423.8a.785.785,0,0,0,1.388.735l.813-1.535h1.673a1.756,1.756,0,0,1,1.754,1.754v18.183Zm-3.114-5.632a.785.785,0,0,1-.785.785H826.968a.785.785,0,0,1,0-1.571h21.147a.785.785,0,0,1,.785.785Zm0-3.236a.785.785,0,0,1-.785.785H826.968a.785.785,0,1,1,0-1.571h21.147a.785.785,0,0,1,.785.785Zm0,.116" transform="translate(-821 -543)" fill="#1f4c38"/>
        <g id="Grupo_1296-2" data-name="Grupo 1296" transform="translate(23.286 5.647)">
          <path id="Trazado_1895" data-name="Trazado 1895" d="M1026.025,592.66a.262.262,0,0,0-.283-.265.916.916,0,0,0-.393.128,1.943,1.943,0,0,0-.7-.834,3.821,3.821,0,0,0-2.117,0,1.951,1.951,0,0,0-.7.834.918.918,0,0,0-.393-.128.292.292,0,0,0-.181.055.257.257,0,0,0-.1.21.735.735,0,0,0,.252.516.188.188,0,0,0,.067.036,2.315,2.315,0,0,0-.133.757,2.118,2.118,0,0,0,.187,1v.309a.37.37,0,0,0,.374.374h.374a.37.37,0,0,0,.374-.374v-.127a3.507,3.507,0,0,0,1.868,0v.127a.37.37,0,0,0,.374.374h.374a.37.37,0,0,0,.374-.374v-.309a2.117,2.117,0,0,0,.187-1,2.313,2.313,0,0,0-.133-.757.175.175,0,0,0,.067-.036.735.735,0,0,0,.252-.516Zm-3.321-.637a3.662,3.662,0,0,1,1.783,0,1.759,1.759,0,0,1,.6.85c-.351.049-1.182.162-1.492.162s-1.141-.112-1.493-.162a1.757,1.757,0,0,1,.6-.849Zm-1.055.856a.417.417,0,0,1-.052-.063c.025.012.048.025.07.038l-.018.025Zm.639,2.4h-.374v-.187h.374Zm2.99,0h-.374v-.187h.374Zm.086-.561h-.646a.207.207,0,0,0-.059.009,3.268,3.268,0,0,1-2.124,0,.144.144,0,0,0-.019,0,.173.173,0,0,0-.04-.008h-.647a2.123,2.123,0,0,1-.1-.747,1.81,1.81,0,0,1,.011-.186c.251.007.55.092.55.186a.187.187,0,1,0,.374,0c0-.457-.617-.541-.85-.556a1.438,1.438,0,0,1,.074-.193h0c.052.008,1.286.189,1.709.189s1.657-.181,1.709-.189h0a1.48,1.48,0,0,1,.074.193c-.234.016-.85.1-.85.556a.187.187,0,1,0,.374,0c0-.1.3-.178.549-.186a1.713,1.713,0,0,1,.011.186,2.121,2.121,0,0,1-.1.748Zm.179-1.837-.018-.025c.022-.013.046-.027.07-.038a.4.4,0,0,1-.052.063Zm0,0" transform="translate(-1021.166 -591.539)" fill="#1f4c38"/>
          <rect id="Rect치ngulo_1850" data-name="Rect치ngulo 1850" width="1.418" height="0.284" transform="translate(1.736 2.284)" fill="#1f4c38"/>
        </g>
      </g>
    </g>
  </g>
</svg>
