<svg xmlns="http://www.w3.org/2000/svg" width="21.135" height="25.897" viewBox="0 0 21.135 25.897">
  <g id="Grupo_3009" data-name="Grupo 3009" transform="translate(-488 -1063)">
    <circle id="Elipse_168" data-name="Elipse 168" cx="4.5" cy="4.5" r="4.5" transform="translate(498.01 1078)" fill="#67bc47" opacity="0.48"/>
    <g id="noun_Upload_file_1062477" data-name="noun_Upload file_1062477" transform="translate(488 1063)">
      <path id="Trazado_3190" data-name="Trazado 3190" d="M5.24.023a3.252,3.252,0,0,0-3.25,3.25V19.5A3.255,3.255,0,0,0,5.24,22.75h7.134a5.667,5.667,0,1,0,7.47-7.641V7.363a.788.788,0,0,0-.019-.108c0-.034-.011-.064-.019-.1a.792.792,0,0,0-.2-.371L13.116.293c-.021-.021-.055-.022-.079-.041a.822.822,0,0,0-.564-.228Zm0,1.623h6.49v3.3a3.234,3.234,0,0,0,3.228,3.231h3.266v6.462a5.643,5.643,0,0,0-.78-.079,5.574,5.574,0,0,0-5.593,6.569H5.24A1.63,1.63,0,0,1,3.614,19.5V3.273A1.627,1.627,0,0,1,5.24,1.647Zm8.113,1.208,3.716,3.7H14.961a1.609,1.609,0,0,1-1.607-1.607Zm4.09,13.326a4.058,4.058,0,1,1-4.058,4.058A4.062,4.062,0,0,1,17.443,16.181ZM17.4,17.461,14.45,20.309l1.126,1.167,1.021-.983v2.213H18.22V20.454l1.1,1.027,1.11-1.179Z" transform="translate(-1.99 -0.023)" fill="#1f4c38"/>
    </g>
  </g>
</svg>
