<svg xmlns="http://www.w3.org/2000/svg" width="192.117" height="181.326" viewBox="0 0 192.117 181.326">
  <g id="Componente_74_5" data-name="Componente 74 – 5" transform="translate(0.75)">
    <ellipse id="Elipse_64" data-name="Elipse 64" cx="90.162" cy="90.663" rx="90.162" ry="90.663" transform="translate(11.042)" fill="#192e1f" opacity="0.11"/>
    <g id="Elipse_88" data-name="Elipse 88" transform="translate(23.46 15.384)" fill="#9bd3f8" stroke="#004e37" stroke-width="2">
      <ellipse cx="78.28" cy="76.685" rx="78.28" ry="76.685" stroke="none"/>
      <ellipse cx="78.28" cy="76.685" rx="77.28" ry="75.685" fill="none"/>
    </g>
    <path id="Trazado_2122" data-name="Trazado 2122" d="M129.861,597.382a7.466,7.466,0,0,1-7.48,7.453h-.045a7.556,7.556,0,0,1-7.639-7.47q0-.067,0-.134a7.545,7.545,0,0,1,7.567-7.446,7.46,7.46,0,0,1,7.6,7.32Q129.863,597.243,129.861,597.382Z" transform="translate(-1.259 -456.235)" fill="#253826"/>
    <path id="Trazado_2123" data-name="Trazado 2123" d="M470.75,324.608c-2.525,0-5.05.03-7.574-.007a6.211,6.211,0,1,1-.049-12.409q7.685-.072,15.371,0a6.2,6.2,0,1,1,.049,12.4C475.948,324.649,473.349,324.608,470.75,324.608Zm.143-10.268c-2.522,0-5.045-.022-7.567.006-2.773.031-4.519,1.652-4.488,4.107.031,2.366,1.744,3.968,4.384,3.984q7.566.045,15.134,0c2.628-.017,4.363-1.639,4.395-3.991.033-2.426-1.75-4.069-4.513-4.1-2.449-.027-4.9,0-7.345,0Z" transform="translate(-394.483 -158.851)" fill="#253826"/>
    <path id="Trazado_2124" data-name="Trazado 2124" d="M425.752,570.116a6.936,6.936,0,0,1-7.054-6.81,7.008,7.008,0,1,1,14.017-.078,6.885,6.885,0,0,1-6.882,6.888Zm-.11-11.713a4.809,4.809,0,0,0-4.77,4.838,4.879,4.879,0,0,0,4.816,4.838,5.014,5.014,0,0,0,4.936-5,4.9,4.9,0,0,0-4.981-4.679Z" transform="translate(-255.079 -494.42)" fill="#253826"/>
    <path id="Trazado_2127" data-name="Trazado 2127" d="M401.314,602.854c2.736,0,5.472,0,8.208,0,.607,0,1.382-.087,1.427.6.048.741-.712.787-1.431.791l-16.226.07c-.732,0-1.488-.1-1.506-.775-.019-.74.82-.735,1.508-.738,2.673-.01,5.346,0,8.02,0Z" transform="translate(-232.841 -479.569)" fill="#253826"/>
    <path id="Trazado_2128" data-name="Trazado 2128" d="M68.369,465.211a3.728,3.728,0,0,1,3.638,3.75,3.673,3.673,0,0,1-7.34-.006q0-.042,0-.083a3.68,3.68,0,0,1,3.7-3.661Zm-.021,2.158a1.416,1.416,0,0,0-1.5,1.534,1.4,1.4,0,0,0,1.329,1.466h.039a1.424,1.424,0,0,0,1.624-1.192,1.585,1.585,0,0,0-1.487-1.811Z" transform="translate(61.169 -306.689)" fill="#253826"/>
    <path id="Trazado_2130" data-name="Trazado 2130" d="M501.487,445.3a2.921,2.921,0,0,1-2.876-2.965v-.03a2.874,2.874,0,1,1,5.748-.023,2.947,2.947,0,0,1-2.872,3.019Z" transform="translate(-383.588 -286.324)" fill="#253826"/>
    <path id="Trazado_2133" data-name="Trazado 2133" d="M399.027,590.615c-1.645,0-3.29.012-4.934,0-1.259-.01-2.175-.311-2.17-.973.009-.515.846-.928,1.867-.923h.012q5.337-.063,10.677.018c.986.005,1.778.413,1.767.91,0,.019,0,.038,0,.057,0,.5-.793.9-1.778.9h-.093C402.592,590.636,400.811,590.613,399.027,590.615Z" transform="translate(-228.612 -470.52)" fill="#253826"/>
    <path id="Trazado_2176" data-name="Trazado 2176" d="M473.582,317.036c2.448,0,4.9-.023,7.344.006,2.764.033,4.546,1.676,4.513,4.1-.032,2.352-1.767,3.973-4.395,3.991q-7.567.048-15.134,0c-2.64-.016-4.353-1.618-4.384-3.983-.032-2.455,1.715-4.078,4.488-4.107C468.538,317.014,471.061,317.036,473.582,317.036Z" transform="translate(-397.204 -161.546)" fill="#fff"/>
    <path id="Trazado_2177" data-name="Trazado 2177" d="M428.339,561.088a4.9,4.9,0,0,1,4.98,4.68,5.014,5.014,0,0,1-4.936,5,4.879,4.879,0,0,1-4.813-4.838A4.809,4.809,0,0,1,428.339,561.088Z" transform="translate(-257.774 -497.135)" fill="#fff"/>
    <path id="Trazado_2179" data-name="Trazado 2179" d="M71.047,470.041a1.462,1.462,0,0,1,1.5,1.581,1.424,1.424,0,0,1-1.411,1.437,1.471,1.471,0,0,1-.229-.017,1.4,1.4,0,0,1-1.369-1.429c0-.013,0-.025,0-.038A1.416,1.416,0,0,1,71.047,470.041Z" transform="translate(58.509 -309.363)" fill="#fff"/>
    <path id="Trazado_2625" data-name="Trazado 2625" d="M1205.073,78.91h-1.357a6.962,6.962,0,0,0-10.16-8.162,9.656,9.656,0,0,0-18.326,4.211,4.609,4.609,0,0,0-5.82,3.95h-7.74a5.857,5.857,0,0,0,0,11.714h43.4a5.857,5.857,0,0,0,0-11.714Z" transform="translate(-1153.944 -1.349)" fill="#fff"/>
    <path id="Trazado_2626" data-name="Trazado 2626" d="M1161.109,90.934a6.729,6.729,0,0,1,0-13.457h7.008l.074-.244a5.456,5.456,0,0,1,5.249-3.876l.407.007.04-.305a10.564,10.564,0,0,1,10.443-9.15,10.454,10.454,0,0,1,8.87,4.866l.154.242.266-.107a7.755,7.755,0,0,1,2.908-.564,7.853,7.853,0,0,1,7.845,7.843,7.741,7.741,0,0,1-.053.906l-.045.377.38.008a6.729,6.729,0,0,1-.144,13.456Zm0-11.713a4.985,4.985,0,0,0,0,9.97h43.4a4.985,4.985,0,0,0,0-9.97h-1.357a.873.873,0,0,1-.829-1.143,6.09,6.09,0,0,0-8.888-7.141.872.872,0,0,1-1.226-.366A8.784,8.784,0,0,0,1175.54,74.4a.873.873,0,0,1-1.1.837,3.894,3.894,0,0,0-1.025-.139,3.726,3.726,0,0,0-3.7,3.343.871.871,0,0,1-.867.778Z" transform="translate(-1154.382 -1.724)" fill="#253826" stroke="#253826" stroke-width="1.5"/>
    <path id="Trazado_2127-2" data-name="Trazado 2127" d="M404.753,602.882c3.723,0,7.447-.006,11.17,0,.826,0,1.881-.134,1.942.922.065,1.136-.969,1.205-1.948,1.211q-11.041.052-22.082.107c-1,0-2.024-.15-2.049-1.187-.027-1.134,1.117-1.126,2.052-1.13,3.638-.015,7.276-.006,10.915-.006Z" transform="translate(-370.397 -474.135)" fill="#253826"/>
    <path id="Trazado_2133-2" data-name="Trazado 2133" d="M401.809,590.75c-2.289,0-4.578.013-6.866,0-1.752-.01-3.027-.333-3.02-1.041.013-.551,1.177-.993,2.6-.988h.017q7.427-.068,14.859.019c1.373.006,2.475.442,2.46.974a.565.565,0,0,1-.007.061c0,.531-1.1.964-2.475.966h-.129C406.77,590.773,404.291,590.748,401.809,590.75Z" transform="translate(-361.028 -466.015)" fill="#253826"/>
    <path id="Trazado_2127-3" data-name="Trazado 2127" d="M395.427,602.882c1.045,0,2.091-.006,3.136,0,.232,0,.528-.134.545.922.018,1.136-.272,1.205-.547,1.211q-3.1.052-6.2.107c-.28,0-.568-.15-.575-1.187-.007-1.134.313-1.126.576-1.13,1.021-.015,2.043-.006,3.065-.006Z" transform="translate(-378.583 -474.135)" fill="#253826"/>
    <path id="Trazado_2133-3" data-name="Trazado 2133" d="M394.557,590.75c-.61,0-1.219.013-1.829,0-.467-.01-.806-.333-.8-1.041,0-.551.313-.993.692-.988h0q1.978-.068,3.958.019c.366.006.659.442.655.974,0,.02,0,.041,0,.061,0,.531-.294.964-.659.966h-.034C395.878,590.773,395.218,590.748,394.557,590.75Z" transform="translate(-365.55 -466.015)" fill="#253826"/>
    <path id="Trazado_2122-2" data-name="Trazado 2122" d="M123.532,594.211a4.351,4.351,0,0,1-4.358,4.343h-.026A4.4,4.4,0,0,1,114.7,594.2c0-.026,0-.052,0-.078a4.4,4.4,0,0,1,4.409-4.339,4.347,4.347,0,0,1,4.426,4.265Q123.534,594.13,123.532,594.211Z" transform="translate(-14.57 -577.706)" fill="#253826"/>
    <path id="Trazado_2124-2" data-name="Trazado 2124" d="M423.978,566.627a5.192,5.192,0,0,1-5.28-5.1,5.246,5.246,0,1,1,10.492-.059,5.154,5.154,0,0,1-5.152,5.157Zm-.082-8.769a3.6,3.6,0,0,0-3.571,3.622,3.652,3.652,0,0,0,3.6,3.622,3.754,3.754,0,0,0,3.7-3.74,3.671,3.671,0,0,0-3.729-3.5Z" transform="translate(-353.844 -533.193)" fill="#253826"/>
    <path id="Trazado_2177-2" data-name="Trazado 2177" d="M427.14,561.088a3.671,3.671,0,0,1,3.727,3.5,3.754,3.754,0,0,1-3.7,3.74,3.652,3.652,0,0,1-3.6-3.622A3.6,3.6,0,0,1,427.14,561.088Z" transform="translate(-357.111 -536.422)" fill="#fff"/>
    <path id="Trazado_2124-3" data-name="Trazado 2124" d="M423.978,566.627a5.192,5.192,0,0,1-5.28-5.1,5.246,5.246,0,1,1,10.492-.059,5.154,5.154,0,0,1-5.152,5.157Zm-.082-8.769a3.6,3.6,0,0,0-3.571,3.622,3.652,3.652,0,0,0,3.6,3.622,3.754,3.754,0,0,0,3.7-3.74,3.671,3.671,0,0,0-3.729-3.5Z" transform="translate(-329.188 -416.368)" fill="#253826"/>
    <path id="Trazado_2177-3" data-name="Trazado 2177" d="M427.14,561.088a3.671,3.671,0,0,1,3.727,3.5,3.754,3.754,0,0,1-3.7,3.74,3.652,3.652,0,0,1-3.6-3.622A3.6,3.6,0,0,1,427.14,561.088Z" transform="translate(-332.433 -419.55)" fill="#fff"/>
    <g id="Grupo_2904" data-name="Grupo 2904" transform="translate(16.601 29.881)">
      <g id="Grupo_2899" data-name="Grupo 2899" transform="translate(22.176 1.042)">
        <path id="Trazado_3100" data-name="Trazado 3100" d="M8,1.836c1.8,2.5,6.883,13.243,9.789,19.5a.982.982,0,0,1-1.566,1.127C11.208,17.725,2.633,9.5.832,7A4.416,4.416,0,0,1,8,1.836Z" transform="matrix(0.978, -0.208, 0.208, 0.978, 17.335, 6.252)" fill="#fefe45" stroke="#253826" stroke-width="2"/>
        <path id="Trazado_3101" data-name="Trazado 3101" d="M9.888,1.836C8.087,4.337,3,15.079.1,21.339a.982.982,0,0,0,1.566,1.127C6.68,17.725,15.254,9.5,17.055,7a4.416,4.416,0,0,0-7.167-5.16Z" transform="matrix(0.996, 0.087, -0.087, 0.996, 92.86, 2.408)" fill="#fefe45" stroke="#253826" stroke-width="2"/>
        <path id="Trazado_3102" data-name="Trazado 3102" d="M437.311,286.129c-2.93-.956-14.708-2.534-21.555-3.4a.982.982,0,0,0-.6,1.835c6.041,3.337,16.485,9.006,19.415,9.962a4.416,4.416,0,0,0,2.738-8.4Z" transform="translate(-315.132 -204.803)" fill="#fff082"/>
        <path id="Trazado_3103" data-name="Trazado 3103" d="M3.048,286.129c2.93-.956,14.708-2.534,21.555-3.4a.982.982,0,0,1,.6,1.835C19.16,287.9,8.716,293.57,5.786,294.525a4.416,4.416,0,0,1-2.738-8.4Z" transform="translate(0 -204.803)" fill="#fff082"/>
        <path id="Trazado_3107" data-name="Trazado 3107" d="M6.535,1.214C5.345,2.867,1.986,9.967.065,14.1a.649.649,0,0,0,1.035.745c3.315-3.134,8.982-8.572,10.172-10.225a2.919,2.919,0,1,0-4.737-3.41Z" transform="translate(76.095 4.809) rotate(-24)" fill="#fefe45" stroke="#253826" stroke-width="1.5"/>
        <path id="Trazado_3108" data-name="Trazado 3108" d="M6.535,1.214C5.345,2.867,1.986,9.967.065,14.1a.649.649,0,0,0,1.035.745c3.315-3.134,8.982-8.572,10.172-10.225a2.919,2.919,0,1,0-4.737-3.41Z" transform="translate(32.118 10.797) rotate(-61)" fill="#fefe45" stroke="#253826" stroke-width="1.5"/>
      </g>
      <g id="Grupo_2902" data-name="Grupo 2902" transform="translate(0 36.184)">
        <path id="Trazado_3099" data-name="Trazado 3099" d="M33.852,14.679C29.451,4.46,24.133,0,24.133,0a54.932,54.932,0,0,0-9,14.679C4.568,15.66,0,20.027,0,20.027s1.284,5.361,9.354,12.451c-4.7,20.835-3.223,21.9,15.57,11.442,18.364,10.9,19.407,9.392,15.575-11L50.374,22.29l-3.407-5.743Z" transform="matrix(-0.809, 0.588, -0.588, -0.809, 70.514, 40.962)" fill="#fefe45"/>
        <path id="Trazado_3105" data-name="Trazado 3105" d="M29.529,2.6C28.194-.5,26.807.03,25.427.041,23.383.056,20.991,2.3,15.838,14.264,5.12,15.258.846,16.653.109,19.181c-.7,2.4,1.9,6.318,9.859,13.309-1.124,4.987-1.383,13.383-.1,13.576.286.045,1.311-2,1.944-3.921a25.836,25.836,0,0,1,1.429-3.21C17.906,31.767,26.23,7.451,29.529,2.6Z" transform="matrix(-0.809, 0.588, -0.588, -0.809, 70.837, 40.214)" fill="#ffe32a"/>
      </g>
      <g id="star_1_" data-name="star (1)" transform="translate(6.223 41.752)">
        <g id="Grupo_2900" data-name="Grupo 2900" transform="translate(0 0)">
          <path id="Trazado_3106" data-name="Trazado 3106" d="M48.9,21.9,37.405,19.255,31.383,9.247l-.038-.057a5.523,5.523,0,0,0-9.489-.063L15.783,19.249,4.333,21.9H4.283l-.127.038A5.516,5.516,0,0,0,1.347,30.9L9.078,39.8,8.04,51.6a1.263,1.263,0,0,0,0,.221,5.4,5.4,0,0,0,.43,2.372l.006.014a5.5,5.5,0,0,0,7.212,2.927l10.881-4.612,10.438,4.428a5.6,5.6,0,0,0,3.062.633,5.548,5.548,0,0,0,5.061-5.953v-.051L44.092,39.8l7.591-8.724A5.529,5.529,0,0,0,48.9,21.9Zm1.379,6.794a2.931,2.931,0,0,1-.462.633l-.07.076-7.933,9.141a1.266,1.266,0,0,0-.3.943L42.574,51.8v.063a2.967,2.967,0,0,1-2.695,3.163h-.038a2.865,2.865,0,0,1-1.619-.335,1.265,1.265,0,0,0-.2-.089l-10.95-4.618a1.265,1.265,0,0,0-.987,0L14.809,54.763a1.261,1.261,0,0,0-.2.082,2.973,2.973,0,0,1-3.758-1.531,1.267,1.267,0,0,0-.076-.177,2.566,2.566,0,0,1-.158-1.309,1.269,1.269,0,0,0,0-.2l1.05-12.146a1.265,1.265,0,0,0-.373-1.018L3.277,29.206a2.973,2.973,0,0,1,1.575-4.839h.076L16.9,21.6a1.265,1.265,0,0,0,.835-.633l6.326-10.52a2.973,2.973,0,0,1,5.1,0l.038.063,6.294,10.5v.006a1.266,1.266,0,0,0,.81.588l12.019,2.783a2.973,2.973,0,0,1,1.955,4.3Z" transform="translate(0 -6.462)" fill="#253826" stroke="#253826" stroke-width="1"/>
        </g>
      </g>
      <g id="Grupo_2903" data-name="Grupo 2903" transform="translate(98.551 36.184)">
        <path id="Trazado_3099-2" data-name="Trazado 3099" d="M33.852,14.679C29.451,4.46,24.133,0,24.133,0a54.932,54.932,0,0,0-9,14.679C4.568,15.66,0,20.027,0,20.027s1.284,5.361,9.354,12.451c-4.7,20.835-3.223,21.9,15.57,11.442,18.364,10.9,19.407,9.392,15.575-11L50.374,22.29l-3.407-5.743Z" transform="matrix(-0.809, 0.588, -0.588, -0.809, 70.514, 40.962)" fill="#fefe45"/>
        <path id="Trazado_3105-2" data-name="Trazado 3105" d="M29.529,2.6C28.194-.5,26.807.03,25.427.041,23.383.056,20.991,2.3,15.838,14.264,5.12,15.258.846,16.653.109,19.181c-.7,2.4,1.9,6.318,9.859,13.309-1.124,4.987-1.383,13.383-.1,13.576.286.045,1.311-2,1.944-3.921a25.836,25.836,0,0,1,1.429-3.21C17.906,31.767,26.23,7.451,29.529,2.6Z" transform="matrix(-0.809, 0.588, -0.588, -0.809, 70.837, 40.214)" fill="#ffe32a"/>
      </g>
      <g id="star_1_2" data-name="star (1)" transform="translate(105.771 41.752)">
        <g id="Grupo_2900-2" data-name="Grupo 2900" transform="translate(0 0)">
          <path id="Trazado_3106-2" data-name="Trazado 3106" d="M48.9,21.9,37.405,19.255,31.383,9.247l-.038-.057a5.523,5.523,0,0,0-9.489-.063L15.783,19.249,4.333,21.9H4.283l-.127.038A5.516,5.516,0,0,0,1.347,30.9L9.078,39.8,8.04,51.6a1.263,1.263,0,0,0,0,.221,5.4,5.4,0,0,0,.43,2.372l.006.014a5.5,5.5,0,0,0,7.212,2.927l10.881-4.612,10.438,4.428a5.6,5.6,0,0,0,3.062.633,5.548,5.548,0,0,0,5.061-5.953v-.051L44.092,39.8l7.591-8.724A5.529,5.529,0,0,0,48.9,21.9Zm1.379,6.794a2.931,2.931,0,0,1-.462.633l-.07.076-7.933,9.141a1.266,1.266,0,0,0-.3.943L42.574,51.8v.063a2.967,2.967,0,0,1-2.695,3.163h-.038a2.865,2.865,0,0,1-1.619-.335,1.265,1.265,0,0,0-.2-.089l-10.95-4.618a1.265,1.265,0,0,0-.987,0L14.809,54.763a1.261,1.261,0,0,0-.2.082,2.973,2.973,0,0,1-3.758-1.531,1.267,1.267,0,0,0-.076-.177,2.566,2.566,0,0,1-.158-1.309,1.269,1.269,0,0,0,0-.2l1.05-12.146a1.265,1.265,0,0,0-.373-1.018L3.277,29.206a2.973,2.973,0,0,1,1.575-4.839h.076L16.9,21.6a1.265,1.265,0,0,0,.835-.633l6.326-10.52a2.973,2.973,0,0,1,5.1,0l.038.063,6.294,10.5v.006a1.266,1.266,0,0,0,.81.588l12.019,2.783a2.973,2.973,0,0,1,1.955,4.3Z" transform="translate(0 -6.462)" fill="#253826" stroke="#253826" stroke-width="1"/>
        </g>
      </g>
      <g id="Grupo_2901" data-name="Grupo 2901" transform="translate(26.13 0)">
        <path id="Trazado_3099-3" data-name="Trazado 3099" d="M56.534,24.515C49.184,7.448,40.3,0,40.3,0S32.037,8.823,25.28,24.515C7.629,26.152,0,33.445,0,33.445S2.144,42.4,15.622,54.239c-7.842,34.794-5.383,36.581,26,19.109,30.668,18.21,32.41,15.685,26.01-18.378L84.126,37.225l-5.689-9.591Z" transform="matrix(-0.809, 0.588, -0.588, -0.809, 117.76, 68.407)" fill="#fefe45"/>
        <path id="Trazado_3105-3" data-name="Trazado 3105" d="M49.314,4.339C47.085-.839,44.769.051,42.463.069,39.049.093,35.056,3.838,26.45,23.82,8.551,25.481,1.412,27.81.182,32.033-.988,36.045,3.356,42.584,16.647,54.26c-1.877,8.329-2.309,22.35-.168,22.672.478.075,2.19-3.333,3.247-6.547a43.147,43.147,0,0,1,2.386-5.361C29.9,53.052,43.8,12.443,49.314,4.339Z" transform="matrix(-0.809, 0.588, -0.588, -0.809, 118.299, 67.158)" fill="#ffe32a"/>
      </g>
      <g id="star_1_3" data-name="star (1)" transform="translate(38.523 9.299)">
        <g id="Grupo_2900-3" data-name="Grupo 2900" transform="translate(0 0)">
          <path id="Trazado_3106-3" data-name="Trazado 3106" d="M81.663,32.243l-19.2-4.416L52.41,11.114l-.063-.1A9.223,9.223,0,0,0,36.5,10.913l-10.142,16.9L7.236,32.243H7.152l-.211.063A9.212,9.212,0,0,0,2.25,47.266L15.16,62.141l-1.733,19.7a2.108,2.108,0,0,0,0,.37,9.016,9.016,0,0,0,.718,3.962l.01.024A9.191,9.191,0,0,0,26.2,91.087l18.171-7.7,17.431,7.4a9.359,9.359,0,0,0,5.113,1.056A9.265,9.265,0,0,0,75.367,81.9v-.085L73.634,62.13,86.312,47.562a9.233,9.233,0,0,0-4.648-15.319Zm2.3,11.346a4.9,4.9,0,0,1-.771,1.056l-.116.127L69.831,60.038a2.113,2.113,0,0,0-.507,1.574L71.1,82.182v.106a4.955,4.955,0,0,1-4.5,5.282h-.063a4.785,4.785,0,0,1-2.7-.56,2.112,2.112,0,0,0-.338-.148L45.205,79.15a2.112,2.112,0,0,0-1.648,0L24.731,87.126a2.1,2.1,0,0,0-.328.137,4.965,4.965,0,0,1-6.275-2.557,2.117,2.117,0,0,0-.127-.3,4.285,4.285,0,0,1-.264-2.187,2.118,2.118,0,0,0,0-.327l1.754-20.284a2.113,2.113,0,0,0-.623-1.7L5.472,44.445A4.965,4.965,0,0,1,8.1,36.363h.127l20-4.617a2.113,2.113,0,0,0,1.395-1.056L40.187,13.121a4.965,4.965,0,0,1,8.515,0l.063.106L59.277,30.764v.011a2.114,2.114,0,0,0,1.352.983L80.7,36.405a4.965,4.965,0,0,1,3.264,7.184Z" transform="translate(0 -6.462)" fill="#253826"/>
        </g>
      </g>
    </g>
  </g>
</svg>
