<svg xmlns="http://www.w3.org/2000/svg" width="169" height="120" viewBox="0 0 169 120">
    <defs>
        <style>
            .prefix__cls-2{fill:#67bc47}
        </style>
    </defs>
    <g id="prefix__btn_ev_carro_frente" transform="translate(.029)">
        <g id="prefix__Rectángulo_1834" data-name="Rectángulo 1834" transform="translate(-.029)" style="stroke:#67bc47;fill:none">
            <rect width="169" height="120" rx="4" style="stroke:none"/>
            <rect width="168" height="119" x=".5" y=".5" rx="3.5" style="fill:none"/>
        </g>
        <g id="prefix__Grupo_1935" data-name="Grupo 1935" transform="translate(26.972 18.09)">
            <path id="prefix__Trazado_2571" d="M-515.193-1758.54h-.007l-.094-.032c-.067-.023-.136-.047-.2-.067a2.361 2.361 0 0 1-.747-.338 2.68 2.68 0 0 1-.692-.745.512.512 0 0 1-.058-.151c0-.014-.007-.028-.012-.042-.013-.043-.023-.087-.034-.13a1.473 1.473 0 0 0-.073-.24.9.9 0 0 1-.066-.452c.011-.122.016-.244.016-.364v-8.4-.511-1.255a7.1 7.1 0 0 0-.062-.716l-.01-.085c-.014-.115-.063-.163-.187-.181a.687.687 0 0 0-.076 0h-.042l-.4-.022-.974-.055-.4-.026c-.183-.012-.372-.026-.559-.035-.258-.013-.52-.019-.774-.026h-.108c-.654-.017-1.351-.034-2.036-.049l-1.1-.021-.712-.013-1.239-.024-2.417-.046c-.6-.01-1.214-.018-1.805-.026l-1.164-.016-1.518-.024-2.139-.033c-1.308-.018-2.4-.031-3.436-.041-.85-.008-1.855-.017-2.872-.018h-3.39c-.867 0-1.749-.008-2.6-.014s-1.735-.011-2.6-.013h-.6c-1.4 0-2.547.016-3.616.05-1.277.041-2.576.049-3.832.056h-4.907c-1.134.008-2.288.027-3.4.046l-.744.012q-1 .016-2 .036l-1.9.035c-.386.006-.779.009-1.158.012h-.609l-4.614.044-1.507.014-3.328.032c-.352 0-.672.013-.979.028-.646.032-1.3.068-1.937.1l-.389.021a1.492 1.492 0 0 0-.237.026.4.4 0 0 0-.36.4 3.3 3.3 0 0 0-.011.413v.047q.009.7.021 1.409c.013.841.026 1.711.033 2.566.009.986.011 1.988.014 2.957v2.959c0 .3 0 .579-.013.86a3.164 3.164 0 0 1-.211.968.772.772 0 0 1-.163.262 2.339 2.339 0 0 1-1.2.679c-.14.034-.284.056-.423.077-.077.012-.154.024-.231.038a.789.789 0 0 0-.1.029l-.052.016h-7.489l-.011-.007a.222.222 0 0 0-.123-.028H-595.971c-.661 0-1.369-.007-2.087-.007h-.1a.684.684 0 0 1-.371-.1 2.275 2.275 0 0 1-.98-1.282.523.523 0 0 1-.02-.1v-.028a8.779 8.779 0 0 1-.1-1.2q-.009-.857-.021-1.715l-.008-.616q-.007-.584-.017-1.169c-.013-.847-.027-1.724-.029-2.585v-3.291-1.986c0-.448 0-.9-.006-1.345v-.765q0-.608-.007-1.216c-.006-1.026-.013-2.086-.009-3.129 0-.691.024-1.393.045-2.073l.013-.431c.009-.31.031-.625.052-.93l.007-.1c.052-.771.091-1.413.075-2.08a8.667 8.667 0 0 0-.26-1.93c-.147-.578-.283-1.181-.415-1.844-.255-1.28-.429-2.595-.586-3.833-.1-.752-.183-1.518-.268-2.259l-.051-.446a16.31 16.31 0 0 1-.1-2.235 8.94 8.94 0 0 1 .156-1.543c.03-.153.067-.306.1-.455s.068-.286.1-.43a.906.906 0 0 1 .117-.281l.035-.059a5.057 5.057 0 0 0 .277-.518 3.384 3.384 0 0 0 .252-1.251 10.676 10.676 0 0 0-.089-1.547l-.025-.233a3.086 3.086 0 0 1 .11-1.229 6.986 6.986 0 0 1 .39-.959c.039-.084.079-.167.12-.25.1-.208.2-.422.291-.638.412-1.031.867-2.007 1.258-2.825.26-.543.52-1.1.772-1.633l.056-.118a2.9 2.9 0 0 0 .246-.756 1.2 1.2 0 0 0-.159-.865.784.784 0 0 0-.689-.4 1.022 1.022 0 0 0-.123.008 1.1 1.1 0 0 0-.434.175 4.42 4.42 0 0 1-1.087.471 6.494 6.494 0 0 1-1.635.226c-.323.009-.67.013-1.062.013h-.707a8.621 8.621 0 0 1-1.977-.25 6.688 6.688 0 0 1-2.445-1.139 3.567 3.567 0 0 1-1.268-1.709 3.726 3.726 0 0 1-.182-.8v-.044c-.006-.078-.012-.146-.075-.19l-.018-.013v-.776l.011-.013a.424.424 0 0 0 .084-.244v-.031c.016-.12.033-.245.06-.366a2.017 2.017 0 0 1 1.3-1.531 4.2 4.2 0 0 1 .447-.146 8.725 8.725 0 0 1 1.756-.24c.255-.013.512-.02.765-.02a14.662 14.662 0 0 1 1.863.119 22.984 22.984 0 0 1 2.772.539 3.493 3.493 0 0 1 .875.347 1.918 1.918 0 0 1 1 1.53c.008.076.013.154.018.229s.012.174.022.259a.418.418 0 0 0 .435.4.638.638 0 0 0 .085-.006.861.861 0 0 0 .328-.116 4.593 4.593 0 0 0 .875-.652 2.451 2.451 0 0 0 .654-1.107l.091-.314c.263-.908.534-1.848.824-2.765.909-2.882 1.884-5.766 2.8-8.473.867-2.549 1.756-4.889 2.718-7.154a16.213 16.213 0 0 1 1.053-2.138c.2-.323.4-.65.6-.966l.526-.848a2.794 2.794 0 0 1 1.462-1.183 5.365 5.365 0 0 1 1.252-.277c.332-.038.686-.073 1.149-.114.652-.056 1.346-.114 2.249-.187.278-.023.554-.041.882-.061l.376-.024c.559-.035 1.137-.071 1.706-.1.478-.026.965-.045 1.435-.064l.809-.032c.848-.034 1.724-.07 2.586-.1 1-.034 2.013-.059 2.995-.084l.195-.005c1.287-.033 2.671-.067 4.072-.1.924-.02 1.89-.037 2.871-.049q1.1-.015 2.194-.024l1.634-.017a1.131 1.131 0 0 0 .158-.017l.078-.011h14.153l.078.011a1 1 0 0 0 .157.017l1.521.006c.7 0 1.424 0 2.136.009h.6c1.2.007 2.447.015 3.671.037 1.367.024 2.739.067 3.9.106.9.03 1.811.069 2.694.105l1.009.042 2.8.117.219.009c.322.013.655.027.983.045.737.042 1.522.086 2.3.138.487.032.892.067 1.273.11.635.071 1.258.149 1.851.232.4.056.766.12 1.114.2a2.667 2.667 0 0 1 1.693 1.142l.069.1a22.023 22.023 0 0 1 1.187 1.953 35.387 35.387 0 0 1 1.855 4.09c.784 2.013 1.59 4.221 2.464 6.751 1.228 3.552 2.4 7.134 3.38 10.168a2.049 2.049 0 0 0 .706 1.035c.179.137.37.265.554.389l.229.155a.393.393 0 0 0 .079.041.457.457 0 0 0 .174.036.377.377 0 0 0 .345-.232.784.784 0 0 0 .055-.223c.009-.063.015-.129.021-.193s.013-.148.025-.223a2.246 2.246 0 0 1 .971-1.567 3.165 3.165 0 0 1 .686-.348 5.754 5.754 0 0 1 1.248-.292c.5-.068 1.077-.146 1.654-.217a16.859 16.859 0 0 1 1.717-.124h.257c.334 0 .67.014 1 .041a9.514 9.514 0 0 1 1.364.2 3.14 3.14 0 0 1 1.054.43 1.923 1.923 0 0 1 .892 1.388.113.113 0 0 0 .02.038.293.293 0 0 1 .019.029l.005.01V-1816.354l-.017.058c-.013.043-.024.083-.033.124s-.015.084-.021.126c-.009.062-.019.126-.035.189a3.583 3.583 0 0 1-.324.831 4.794 4.794 0 0 1-3.025 2.38 7.727 7.727 0 0 1-1.159.2l-.1.013a14.813 14.813 0 0 1-1.842.1h-.22c-.676-.006-1.334-.058-1.889-.107a2.438 2.438 0 0 1-1.065-.32 4.009 4.009 0 0 0-.409-.212 1.4 1.4 0 0 0-.575-.124 1.657 1.657 0 0 0-.519.088.742.742 0 0 0-.531.928 2.014 2.014 0 0 0 .114.365c.113.273.223.522.336.761l.252.532c.492 1.039 1 2.114 1.459 3.191q.267.627.537 1.252l.449 1.047a3.17 3.17 0 0 1 .236 1.654c-.02.159-.045.321-.069.477l-.024.155a3.5 3.5 0 0 0 .027 1.372 3.542 3.542 0 0 0 .321.834 5.87 5.87 0 0 1 .518 1.41 9.568 9.568 0 0 1 .168 2.843c-.027.421-.064.848-.1 1.261l-.028.33c-.039.456-.072.837-.11 1.222l-.006.063c-.053.531-.108 1.081-.172 1.621-.081.678-.15 1.2-.224 1.678-.085.556-.184 1.12-.28 1.665l-.039.222a5 5 0 0 1-.375 1.278 2.2 2.2 0 0 0-.168.551 4.667 4.667 0 0 0-.019 1.211l.025.275c.026.287.054.584.055.879 0 .4.008.807.014 1.2.005.379.011.77.014 1.154.006.994.007 1.988.007 2.921v1.249c0 .685-.005 1.393 0 2.089.005.872.018 1.76.029 2.617l.017 1.308v.056c.006.537.013 1.092.015 1.638v1.042c.005 1.115.011 2.267.006 3.4 0 .807 0 1.682.026 2.673a14.1 14.1 0 0 1-.142 2.43c-.019.122-.043.244-.067.363l-.019.1a.842.842 0 0 1-.463.617 2.408 2.408 0 0 1-.367.155c-.2.064-.406.124-.6.183l-.359.107a.313.313 0 0 0-.063.031l-.035.019h-.009zm-79.455-1.358c.651 0 1.311.029 1.949.056l.221.01c.655.028 1.352.041 2.258.041h.93a1.393 1.393 0 0 0 .213-.017 7.324 7.324 0 0 0 1.207-.29 3.079 3.079 0 0 0 .637-.29.685.685 0 0 0 .36-.648c-.017-1.193-.022-2.4-.027-3.577v-1.038q-.007-1.437-.011-2.874v-1.17q0-.923-.007-1.846a1.831 1.831 0 0 0-.031-.308.446.446 0 0 0-.466-.392h-.054a2.91 2.91 0 0 0-.36.06l-.045.01a4.768 4.768 0 0 1-.983.115c-.092 0-.184 0-.272-.011-.239-.02-.482-.03-.744-.03-.207 0-.419.006-.648.018-.693.038-1.429.086-2.252.147-.212.016-.406.023-.592.023a5.673 5.673 0 0 1-.666-.037 3.218 3.218 0 0 1-1.461-.519 6.258 6.258 0 0 1-.9-.733 3.4 3.4 0 0 1-.559-.7 1.712 1.712 0 0 1-.235-.658c-.076-.6-.158-1.2-.236-1.774a14.909 14.909 0 0 0-.275-1.54c-.107-.434-.219-.875-.328-1.3l-.153-.6-.324-1.283-.005-.024a.164.164 0 0 0-.01-.037.11.11 0 0 0 0 .014 9.4 9.4 0 0 0-.175 2.113q0 .13.007.261c0 .132.008.268.009.4l.042 5.228.008 1.37v.888q0 .678.01 1.357c.007.955.015 1.943.014 2.914 0 1.356-.012 2.736-.022 4.069l-.007.864c0 .141-.008.283-.015.421s-.013.275-.014.412a.829.829 0 0 0 .817.9c.323.022.748.048 1.173.048h.006c.345 0 .7-.012 1.035-.023l.429-.014c.172-.008.359-.008.551-.008zm83.094.065c.436 0 .879.006 1.308.01.382 0 .764.008 1.146.01.83 0 1.674.005 2.491.006h.945a1.792 1.792 0 0 0 .565-.093.78.78 0 0 0 .538-.565 2.23 2.23 0 0 0 .065-.62c0-.232-.006-.469-.011-.7-.005-.27-.011-.549-.011-.824 0-1.088 0-2.194.009-3.264q0-.774.005-1.547v-1.217c0-1.057.008-2.15.007-3.225 0-2.168 0-4.373-.007-6.505v-2.552-.144a.179.179 0 0 0-.008-.035.644.644 0 0 0-.313.423c-.055.26-.116.524-.175.778l-.079.346c-.207.914-.442 1.949-.759 2.947a2.411 2.411 0 0 0-.069.313l-.011.064a3.816 3.816 0 0 0-.039.7v.219a5.417 5.417 0 0 1-.044.764 1.779 1.779 0 0 1-.765 1.247 3.319 3.319 0 0 0-.493.428l-.038.039c-.078.08-.158.162-.239.241a1.652 1.652 0 0 1-.566.369 4.614 4.614 0 0 1-.493.164 4.7 4.7 0 0 1-1.186.14c-.116 0-.238 0-.361-.01-1.045-.058-2.083-.119-3.234-.188-.142-.009-.287-.02-.426-.031-.205-.016-.417-.032-.626-.041-.321-.012-.648-.017-.965-.021l-.408-.007h-.016a.424.424 0 0 0-.32.11.46.46 0 0 0-.1.351c.016.291.02.585.022.836V-1770.106l.014 4.344q0 1.277.012 2.552 0 .859.012 1.718v.186c0 .18 0 .366.009.548a.837.837 0 0 0 .819.856c.051 0 .1.007.156.009h.062l.2.008.586.019c.459.016.933.032 1.4.039h.179c.2 0 .4 0 .59-.009s.394-.008.592-.008zm-3.284-13.335c.6 0 1.191.035 1.742.072q1.028.07 2.057.143l.294.023c.152.013.309.026.463.034l.12.006c.189.01.384.021.575.021h.159a2.013 2.013 0 0 0 1.045-.317 3.149 3.149 0 0 0 .7-.707l.071-.088a.342.342 0 0 0 0-.41.449.449 0 0 0-.281-.208 1.048 1.048 0 0 0-.267-.037.838.838 0 0 0-.106.007c-.076.01-.151.018-.221.024-.34.029-.7.043-1.113.043-.477 0-.961-.019-1.429-.037l-.479-.018c-.578-.02-1.193-.04-1.8-.04h-.112c-.389 0-.77.018-1.174.036l-.532.022-.181-.009c-.153-.007-.311-.015-.469-.02h-.103a.681.681 0 0 0-.132.01.351.351 0 0 0-.312.368 1.649 1.649 0 0 0 .118.631.689.689 0 0 0 .491.42 1.464 1.464 0 0 0 .387.042h.112c.126-.009.251-.01.376-.01zm-77.367-1.483h-.449c-.873.007-1.761.016-2.62.025h-.029a.911.911 0 0 0-.163.015.312.312 0 0 0-.248.167.29.29 0 0 0 .049.274 4.276 4.276 0 0 0 .643.789 1.419 1.419 0 0 0 .688.359 3.723 3.723 0 0 0 .456.057c.168.011.344.017.538.017.307 0 .613-.014.952-.031l.585-.031c.306-.017.623-.034.934-.048.389-.017.785-.031 1.168-.044l.671-.024c.4-.015.826-.031 1.25-.051a3.364 3.364 0 0 0 .385-.035.424.424 0 0 0 .388-.377 1.949 1.949 0 0 0 .031-.238c.017-.2.031-.375.041-.536a.821.821 0 0 0 0-.185c-.023-.134-.081-.161-.162-.161h-.046a.761.761 0 0 0-.179.046.835.835 0 0 1-.3.054h-.076l-.079-.006c-.158-.012-.321-.023-.482-.027l-.4-.01c-.532-.013-1.082-.026-1.623-.026-.424 0-.8.008-1.157.025h-.754zm72.108-.018H-583.071c-.884 0-1.565 0-2.209.005a2.2 2.2 0 0 0-.334.031.343.343 0 0 0-.31.321 1.91 1.91 0 0 0 .039.691.355.355 0 0 0 .342.3 2.677 2.677 0 0 0 .276.013h.133l1.105-.039c.586-.022 1.193-.043 1.789-.06 1.406-.037 2.849-.067 4.123-.093.856-.018 1.726-.031 2.567-.044l.329-.005c1.459-.023 2.66-.041 3.779-.056 1.162-.016 2.512-.034 3.829-.049 1.591-.018 3.287-.036 5.007-.049 1.006-.008 2.074-.011 3.462-.012h7.7v.008h13.582c.845 0 1.712.008 2.651.023.892.015 1.8.034 2.676.053l1.128.024 1.019.022c.776.017 1.578.034 2.367.046h2.229c.885.011 1.785.033 2.626.055 1.06.028 2.139.059 3.181.09l1.063.031.168.007c.058 0 .116.006.175.008l.274.009c.2.007.407.013.61.013h.12c.284 0 .417-.138.43-.432v-.097-.095a1.727 1.727 0 0 1 .045-.477c.023-.083 0-.121-.09-.157a.4.4 0 0 0-.106-.029l-.252-.024c-.205-.021-.417-.042-.625-.043-.558.013-1.173.012-1.927.012zm.479-.643c1.906 0 4.158 0 6.413.034.472.006.953.01 1.418.014l1.184.011 1.5.021 1.1.016h.068a1.835 1.835 0 0 0 .221-.01.772.772 0 0 0 .7-.56c.026-.08.054-.167.074-.255.047-.2.092-.408.137-.612l.12-.537.481-2.12.821-3.62c.178-.786.335-1.5.48-2.179a1.4 1.4 0 0 0 .025-.378.314.314 0 0 0-.322-.318h-.088a1.3 1.3 0 0 0-.267.026 3.808 3.808 0 0 1-.772.082h-.067l-.449-.01c-.263-.007-.535-.014-.8-.015h-.478c-.564 0-1 0-1.41.013-.715.016-1.442.036-2.145.055q-.792.022-1.585.042c-.5.012-1.017.022-1.512.031l-.966.019c-.66.014-1.439.031-2.209.05l-1.461.037c-.768.02-1.561.042-2.342.059-1.1.025-2.217.043-3.3.06h-.041q-1.2.019-2.4.035l-.82.011-.662.008c-.435.005-.884.01-1.326.02-.515.011-1.038.025-1.544.038l-1.278.032c-.3.007-.6.01-.887.012h-.39a1.875 1.875 0 0 0-.614.09.547.547 0 0 0-.391.462 1.26 1.26 0 0 0-.005.329 2.054 2.054 0 0 1-.01.792.356.356 0 0 0 .029.291.414.414 0 0 0 .293.158l.045.005.186.014c.224.017.456.036.685.036H-522.206a1.871 1.871 0 0 0 .419-.038.251.251 0 0 1 .06-.006h.048a.586.586 0 0 1 .479.183.583.583 0 0 1 .078.505 2.194 2.194 0 0 1-.207.562l-.06.115c-.122.234-.249.475-.385.706-.826 1.41-1.76 2.794-2.571 3.981a1.438 1.438 0 0 1-.278.291 3.711 3.711 0 0 1-1.2.643 5.062 5.062 0 0 1-1.645.257h-.135l-.411-.009c-.71-.016-1.444-.031-2.165-.033h-1.68c-1.318 0-2.657 0-3.953.006h-.137c-1.124 0-2.267.008-3.373.013l-1.872.008-2.169.009-8.175.039-2.062.01-7.4.042-1.288.007-2.407.015-4.614.029q-1.06.006-2.119.008h-2.145c-.371 0-.768 0-1.16.014h-.231a7.521 7.521 0 0 1-1.8-.223 5.127 5.127 0 0 1-1.313-.5 2.659 2.659 0 0 1-.973-.91c-.156-.249-.325-.5-.488-.734l-.166-.244-.065-.1c-.431-.635-.876-1.291-1.274-1.963a10.977 10.977 0 0 1-.759-1.491 4.453 4.453 0 0 1-.238-.78.349.349 0 0 1 .16-.382.7.7 0 0 1 .242-.086.35.35 0 0 1 .067-.006h.114l.36.009c.252.006.512.012.768.014q1.52.007 3.04.011h9.358a.118.118 0 0 0 .108-.057.607.607 0 0 0 .091-.2 1.9 1.9 0 0 0 .016-.382c-.014-.251-.033-.506-.052-.752l-.015-.2a.994.994 0 0 0-.021-.139.362.362 0 0 0-.292-.3 1.714 1.714 0 0 0-.307-.047l-.382-.014c-.646-.024-1.315-.049-1.973-.063-.512-.01-1.054-.015-1.758-.015h-.47c-.728 0-1.466-.037-2.181-.072h-.059l-.479-.026c-.373-.022-.759-.044-1.138-.049-.741-.01-1.494-.011-2.222-.012h-1.383c-.6 0-1.23-.007-1.845-.02-1.474-.032-2.948-.071-4.2-.1q-.973-.027-1.945-.057l-1.367-.041c-.906-.026-1.872-.053-2.846-.077-.829-.021-1.672-.039-2.487-.057l-.708-.015c-.593-.013-1.207-.027-1.811-.036h-.032a2.444 2.444 0 0 0-.328.023.408.408 0 0 0-.407.488.67.67 0 0 0 .01.092l.022.123c.017.1.035.207.06.308.561 2.269 1.3 5.261 2.052 8.284.051.2.116.418.205.676a.722.722 0 0 0 .683.508c.22.017.413.025.589.025h.021c.262 0 .528 0 .786-.008.281 0 .572-.008.859-.009h25.144l13.5-.008h2.878v-.007h6.722l5.541-.006 4.845-.006h1.605c2.567 0 5.221-.005 7.832-.005h5.436zm-39.241-1.083h22.463l4.342.021h.828q.764 0 1.528.008h.218c.339 0 .69 0 1.035.02.111.005.221.008.329.008a5.728 5.728 0 0 0 1.245-.13 4.092 4.092 0 0 0 1.386-.566 1.192 1.192 0 0 0 .338-.326q.268-.389.538-.777c.31-.446.631-.906.938-1.365.34-.506.67-1.031.99-1.539l.149-.236a3.626 3.626 0 0 0 .248-.471 1.042 1.042 0 0 0 .085-.315.239.239 0 0 0-.2-.284 1.04 1.04 0 0 0-.278-.031h-.024c-.19 0-.382.007-.569.011-.248.006-.5.012-.756.012q-11.169.008-22.339.013h-5.272v-.012h-3.563l-14.459-.007h-9.23c-.328 0-.662-.005-.985-.009l-.684-.007h-.012a.755.755 0 0 0-.173.017.243.243 0 0 0-.162.1.237.237 0 0 0-.01.188c.083.284.159.512.239.716a9.1 9.1 0 0 0 .628 1.24 28.392 28.392 0 0 0 1.607 2.4 2.2 2.2 0 0 0 .8.68 4.875 4.875 0 0 0 .557.242 7.153 7.153 0 0 0 2.343.409h.837c.539 0 1.087 0 1.616-.006.426 0 .851 0 1.277-.006q2.59-.005 5.18-.007h6.663zm17.107-6.63h5.564v-.031a.269.269 0 0 1 .025-.133.722.722 0 0 0 .074-.449 14.317 14.317 0 0 1-.047-1.6l.017-.472c.009-.231.018-.47.025-.706a3.908 3.908 0 0 0-.052-.822 1.084 1.084 0 0 0-.847-.941l-.036-.01-.081-.021a4.438 4.438 0 0 0-.868-.1l-.81-.01c-.78-.01-1.586-.021-2.38-.023h-.3c-.807 0-1.627.007-2.421.014h-.491c-.551 0-1.119.017-1.619.027l-1.1.025c-.686.016-1.4.033-2.094.042h-.6c-.478 0-.964-.006-1.434-.012h-.15q-.777-.01-1.555-.024c-.713-.012-1.45-.024-2.174-.03-1.855-.016-3.742-.023-5.566-.03h-.6c-.494 0-1 0-1.481.006h-.332c-.711 0-1.43.009-2.135.016a3.928 3.928 0 0 0-.866.1 1.075 1.075 0 0 0-.871.941c0 .026-.007.048-.008.069l-.028.4c-.022.3-.044.611-.053.917-.021.719-.027 1.449-.034 2.156v.027a.833.833 0 0 0 .05.319.489.489 0 0 1 .049.334c5.26 0 10.453.005 14.843.005zm3.149-6c.288 0 .582 0 .9.007a3.428 3.428 0 0 1 .979.152 1.48 1.48 0 0 1 .765.511 1.818 1.818 0 0 1 .283.558 4.537 4.537 0 0 1 .154.725c.015.1.023.2.03.3a2.021 2.021 0 0 0 .1.562.289.289 0 0 1 .006.134v.03c-.009.107 0 .168.03.2s.088.051.2.056h.119l.214-.007c.15-.005.3-.01.449-.013l1.2-.024 1.253-.025 1.958-.042 2.606-.056c.892-.018 1.786-.034 2.65-.049l1.276-.021 1.693-.029h.159c.712-.013 1.448-.026 2.172-.047.556-.015 1.122-.034 1.669-.053.514-.017 1.046-.035 1.57-.05 1.09-.031 2.326-.067 3.534-.091.76-.015 1.533-.025 2.28-.035q.824-.011 1.647-.024c.353-.006.711-.018 1.058-.031l.34-.012a1.055 1.055 0 0 0 .187-.02.382.382 0 0 0 .341-.359 1.884 1.884 0 0 0 .01-.286q-.009-.661-.02-1.319l-.008-.5-.019-1.19q-.024-1.552-.051-3.1c-.006-.354-.02-.713-.034-1.061l-.006-.139a.907.907 0 0 0-.033-.207.279.279 0 0 0-.309-.249h-.086a1.809 1.809 0 0 0-.274.019c-.236.035-.476.074-.708.112l-.6.095-.22.033c-.516.079-1.05.161-1.576.232-.6.082-1.192.154-1.755.214-.59.063-1.223.128-1.858.174-.576.041-1.184.072-1.913.1h-.05c-1.061.036-2.158.074-3.238.09-1.812.026-3.625.039-5.327.05-.847.005-1.678.049-2.471.127-.982.1-1.929.231-2.814.4-.813.151-1.638.313-2.436.471l-1.416.277c-.593.115-1.2.228-1.78.338l-.7.132-.781.146c-.55.1-1.119.207-1.676.32-.41.083-.826.171-1.229.257-.879.188-1.789.381-2.693.527-.684.109-1.415.211-2.237.31-.522.063-1.089.116-1.785.167-.831.061-1.517.1-2.157.127-.589.024-1.218.036-2.038.04h-.609c-.613 0-1.249 0-1.944-.013a34.319 34.319 0 0 1-3.629-.212c-.526-.062-1.085-.129-1.631-.22-.782-.13-1.575-.274-2.342-.412l-.788-.142c-1.032-.186-2.1-.377-3.148-.572s-2.1-.4-3.13-.594l-.124-.024-.833-.159c-.848-.161-1.726-.328-2.586-.5a34.663 34.663 0 0 0-4.316-.605c-.782-.06-1.623-.105-2.645-.143-.792-.029-1.6-.036-2.376-.043h-.077c-1.053-.009-2.1-.012-3.338-.014-1.168 0-2.319-.062-3.191-.115-.213-.013-.428-.032-.637-.051l-.074-.007-1.224-.114-.144-.013-.351-.032c-.286-.026-.581-.052-.871-.085-.677-.075-1.287-.144-1.9-.227-.6-.081-1.2-.176-1.789-.269l-.055-.009c-.171-.027-.344-.059-.512-.089s-.319-.059-.479-.084a.855.855 0 0 0-.14-.011 1.2 1.2 0 0 0-.139.009.423.423 0 0 0-.368.316 1.006 1.006 0 0 0-.04.372c0 .1.009.194.015.291.011.195.022.4.022.594 0 .407 0 .821-.008 1.221 0 .3-.006.593-.008.89 0 1.022-.009 2.024-.007 3.044 0 .364.013.733.025 1.092l.005.158a.363.363 0 0 0 .353.409 1.9 1.9 0 0 0 .309.032q1.591.046 3.182.089l1.037.029c.812.022 1.652.046 2.479.066.518.012 1.044.022 1.553.031l1 .019c.657.013 1.434.03 2.209.049l1.417.038c.766.021 1.558.042 2.337.059.83.018 1.675.031 2.491.043l.969.015.925.013c.59.008 1.2.017 1.8.03.866.019 1.746.041 2.6.062l1.4.035q1.055.026 2.11.047h.015a1.147 1.147 0 0 0 .15-.011c.248-.032.341-.125.369-.369.018-.154.021-.31.024-.461a4.694 4.694 0 0 1 .077-.862 1.5 1.5 0 0 1 .8-1.106 4.005 4.005 0 0 1 .387-.167 4.252 4.252 0 0 1 1.551-.251h.154c.508.01 1.025.017 1.525.023l.9.012 1.2.02 1.773.028c.748.01 1.544.02 2.331.021h8.705c1.548-.007 3.148-.015 4.721-.03.844-.008 1.7-.022 2.533-.035l1.811-.028c.198-.029.424-.03.658-.03zm32.507-1.5v1.86c0 .327-.018.658-.03.978l-.017.445v.055a1.2 1.2 0 0 0 0 .137.616.616 0 0 0 .429.594 1.584 1.584 0 0 0 .347.081 1.066 1.066 0 0 0 .123.007.787.787 0 0 0 .728-.453 2.468 2.468 0 0 0 .182-.445 17.163 17.163 0 0 0 .607-2.768c.071-.511.138-1.052.209-1.7.084-.759.157-1.511.217-2.146a1.836 1.836 0 0 0-.021-.6.436.436 0 0 0-.318-.344 1.337 1.337 0 0 0-.325-.061c-.369-.015-.758-.024-1.225-.03h-.025c-.1 0-.205.008-.306.015l-.107.008a.317.317 0 0 0-.343.3c0 .026-.008.051-.013.076a.689.689 0 0 0-.014.091l-.032.5c-.028.407-.056.827-.066 1.241-.012.513-.009 1.036-.006 1.542v.622zm-92.272-4.509a4.078 4.078 0 0 0-.944.119l-.166.038c-.117.026-.239.053-.355.087a.281.281 0 0 0-.214.288 2.657 2.657 0 0 0 .011.337c.023.226.05.456.076.678.011.09.076.653.1.844q.076.651.149 1.3c.1.877.213 1.645.355 2.347a12.933 12.933 0 0 0 .587 2.066 1.763 1.763 0 0 0 .131.281.413.413 0 0 0 .373.219.607.607 0 0 0 .083-.006c.052-.007.105-.018.157-.029l.058-.012.06-.015a.555.555 0 0 1 .14-.024h.009a2.322 2.322 0 0 1 .312.024.567.567 0 0 0 .07 0c.115 0 .172-.05.21-.186a.762.762 0 0 0 .03-.182c0-.139.006-.278.01-.418.011-.466.023-.947.023-1.421 0-.431-.008-.871-.016-1.3l-.01-.567v-.044h.006v-1.239-2.275a1.492 1.492 0 0 0-.069-.493.571.571 0 0 0-.588-.419H-598.08c-.1.011-.195.007-.29.007zm23.433.493a.316.316 0 0 0 .026.05.852.852 0 0 0 .606.358c.7.134 1.41.274 2.1.41l.093.019.825.165c.486.1.989.2 1.485.292.424.081.856.158 1.274.234.476.086.968.175 1.452.268.885.171 1.785.347 2.655.517.968.189 1.969.385 2.954.574.549.105 1.137.2 1.909.323.651.1 1.289.187 1.894.259.658.078 1.241.135 1.781.174.582.042 1.175.071 1.763.083l.57.013c.788.018 1.6.037 2.4.037.31 0 .6 0 .878-.008l.237-.005c.87-.017 1.77-.034 2.652-.107l.4-.032c.47-.037.956-.075 1.43-.135.9-.115 1.795-.247 2.667-.393 1-.167 2.053-.358 3.136-.569 1.377-.268 2.736-.544 4.037-.819 1.354-.286 2.577-.516 3.738-.7.7-.112 1.518-.252 2.333-.447.26-.062.522-.133.776-.2l.172-.047a.486.486 0 0 0 .343-.259.613.613 0 0 0-.369-.136.577.577 0 0 0-.117.013 4.142 4.142 0 0 1-.52.062h-.021l-.812.059c-.4.028-.813.058-1.219.091-.574.048-1.146.106-1.782.171-.328.034-.66.072-.982.108l-.579.064-.68.074-.857.093-.8.091c-.386.044-.784.089-1.177.132-.674.073-1.38.145-2.1.215-.645.063-1.3.124-1.937.184l-.629.059-.208.02c-.2.019-.4.04-.6.052l-.156.01c-.26.018-.528.035-.793.035a4.609 4.609 0 0 1-.5-.025 1.962 1.962 0 0 1-1.342-.65 2.659 2.659 0 0 1-.341-.49 5.555 5.555 0 0 1-.315-.724 14.733 14.733 0 0 1-.42-1.529l-.025-.107c-.123-.521-.247-1.052-.365-1.565l-.32-1.372a3.566 3.566 0 0 0-.148-.486.62.62 0 0 0-.6-.417.76.76 0 0 0-.114.009l-.071.007a.742.742 0 0 0-.1.012l-.062.013a2.365 2.365 0 0 0-.289.074.474.474 0 0 0-.314.357c-.012.047-.022.1-.033.146l-.031.143-.054-.041-.027-.018a.129.129 0 0 1-.05-.046l-.05-.093c-.079-.146-.161-.3-.234-.452a.741.741 0 0 1-.06-.252.343.343 0 0 1 .268-.4 1.461 1.461 0 0 1 .324-.05c.372-.018.766-.033 1.276-.051l.289-.01c.83-.028 1.688-.057 2.533-.081.662-.019 1.335-.032 1.986-.046h.15q1.268-.026 2.536-.048h.133q1.364-.025 2.729-.048h.016c1.185-.02 2.411-.04 3.616-.056q1.236-.017 2.472-.03l1.112-.013 1.224-.014 3.562-.042h.164c.284 0 .577-.006.864-.023.612-.037 1.233-.085 1.835-.132h.049a.922.922 0 0 0 .272-.06.29.29 0 0 0 .162-.178.31.31 0 0 0-.024-.257.1.1 0 0 0-.093-.057h-.009a.272.272 0 0 0-.082.013 1.056 1.056 0 0 1-.418.067h-.331c-.214 0-.435-.007-.652-.007h-.08c-.2 0-.41 0-.61.009s-.428.008-.642.008h-12.766c-1.4 0-2.688-.008-3.928-.02-.786-.007-1.586-.021-2.359-.034l-.831-.014-.962-.017c-.633-.012-1.289-.025-1.933-.029h-.667c-.769 0-1.525.007-2.228.015-.5.005-1 .014-1.49.023-.67.012-1.363.024-2.045.028h-5.228c-.808 0-1.471.009-2.085.023-.343.008-.692.022-1.029.035-.362.014-.736.029-1.1.037-.483.01-.989.015-1.546.015-.945 0-1.906-.015-2.835-.029l-.8-.012h-5.233c-.442 0-.892-.017-1.327-.029-.418-.011-.85-.023-1.274-.028h-2.625a.676.676 0 0 0-.091.008.643.643 0 0 0 .469.575.854.854 0 0 0 .21.024h.022c.2 0 .393-.009.589-.015.217-.006.441-.013.662-.016h.208c.229 0 .466-.009.7-.009h.371c.239.006.482.022.717.038.207.013.421.028.631.035 1.127.04 2.054.067 2.919.085.6.013 1.2.021 1.791.03.458.006.917.012 1.375.021l2.659.052 2.274.045c.944.018 1.935.034 2.945.049s2.03.027 3.045.04l.783.01.681.008c.4 0 .822.009 1.233.016.469.008.859.02 1.228.038.215.01.432.031.643.051.3.028.6.057.907.057h.185a.306.306 0 0 1 .333.28 1.083 1.083 0 0 0 .13.351.221.221 0 0 1 .024.149.45.45 0 0 1-.23.318.253.253 0 0 1-.124.034.238.238 0 0 1-.175-.08 1.126 1.126 0 0 1-.109-.141.722.722 0 0 0-.477-.3 1.177 1.177 0 0 0-.247-.024 2.786 2.786 0 0 0-.491.057.466.466 0 0 0-.325.259 1.193 1.193 0 0 0-.123.381l-.05.29c-.05.294-.1.6-.172.893-.284 1.187-.563 2.348-.865 3.5a2.432 2.432 0 0 1-1.749 1.818 3 3 0 0 1-.87.115c-.152 0-.314-.008-.51-.024-.472-.039-.951-.082-1.414-.123l-.663-.059-.459-.039-.861-.076c-.365-.034-.73-.069-1.1-.1l-.491-.047c-.31-.03-.62-.06-.93-.092l-.859-.09-.8-.085-.781-.079-.854-.087-.811-.086-.848-.091-.6-.059c-.333-.032-.677-.066-1.015-.105l-.1-.011c-.679-.08-1.38-.163-2.074-.2-.182-.009-.342-.013-.489-.013a5.818 5.818 0 0 0-.7.039zM-579-1800.9a.277.277 0 0 0-.223.087.317.317 0 0 0-.054.258.626.626 0 0 0 .082.211 1.776 1.776 0 0 0 .187.248 20.376 20.376 0 0 1 1.365 1.742c.513.726.992 1.484 1.455 2.218a4.193 4.193 0 0 0 .293.417 1.025 1.025 0 0 0 .705.385c.085.009.172.015.267.02l.493.023c.289.013.587.027.88.044.263.015.521.037.76.059.392.036.855.079 1.319.128.412.043.831.09 1.235.136l.277.031.644.073.941.106c.321.035.649.068.965.1l.157.016q.647.066 1.294.129l.733.07.489.046 1.344.129.391.037.806.078c.7.07 1.231.126 1.733.18l.747.084c.247.028.494.057.741.083a3.871 3.871 0 0 0 .422.028h.013a1.727 1.727 0 0 0 1.3-.571 2.264 2.264 0 0 0 .428-.665.923.923 0 0 0 .062-.224.271.271 0 0 0-.2-.334 1.019 1.019 0 0 0-.276-.048c-.384-.022-.775-.041-1.153-.059l-1.291-.064q-1.082-.053-2.164-.109c-.713-.037-1.432-.078-2.108-.116-.286-.016-.577-.037-.833-.056l-.554-.042c-.363-.029-.739-.058-1.109-.078-.818-.044-1.635-.073-2.255-.094-1.151-.039-2.3-.073-3.484-.106h-.028c-.06 0-.122.005-.182.01s-.1.008-.153.01h-.053a.5.5 0 0 1-.153-.02.219.219 0 0 1-.125-.126.412.412 0 0 1 .035-.342.413.413 0 0 1 .286-.2 1.282 1.282 0 0 1 .217-.013h.2c.747 0 1.5.045 2.236.089l.471.028c.329.019.664.041.988.063.583.039 1.186.079 1.78.1.723.027 1.457.069 2.167.111.383.022.778.045 1.168.065.135.007.269.016.4.024.157.01.318.02.478.028q.741.035 1.483.065l.479.021.468.02c.313.013.636.026.955.042.187.009.376.022.56.036l.3.021 1.175.074h.191a.532.532 0 0 0 .553-.479v-.032l.028-.2c.024-.171.048-.342.07-.513a1.136 1.136 0 0 0 0-.189.285.285 0 0 0-.168-.256.7.7 0 0 0-.2-.063 2.988 2.988 0 0 0-.36-.041l-1.287-.051-.9-.034-.949-.036-3.286-.136-1.425-.06-1.64-.07-1.423-.058-1.5-.061c-.393-.017-.805-.035-1.226-.057l-.214-.011c-.741-.037-1.508-.076-2.262-.118-.357-.02-.709-.022-.975-.022h-.601a4.073 4.073 0 0 1-.854-.082 2.109 2.109 0 0 1-.789-.317l-.029-.02.014-.032c0-.011.008-.021.012-.031a.289.289 0 0 1 .033-.069.656.656 0 0 1 .564-.291h.07c.086.006.171.014.256.022.124.011.253.023.379.03l.432.025c.661.039 1.345.078 2.018.109.406.018.818.03 1.218.041l.745.023c.41.014.835.032 1.3.054l1.772.086.925.046.467.022c.278.013.555.026.833.041l.952.053c.435.024.885.05 1.327.072.527.027 1.063.051 1.582.074l.919.043h.026c.337.016.686.032 1.029.053l1.441.089.592.037.15.011c.111.008.225.017.337.018h.057c.176 0 .332-.007.476-.021a.7.7 0 0 0 .645-.52 3.241 3.241 0 0 0 .146-.905.519.519 0 0 0-.008-.113.415.415 0 0 0-.374-.36.8.8 0 0 0-.12-.009h-.042c-.138.007-.286.017-.464.031-.372.028-.772.042-1.222.042-.406 0-.807-.011-1.285-.027-.26-.009-.523-.022-.778-.035-.3-.015-.609-.03-.914-.039-.442-.012-.892-.015-1.327-.018h-1.172c-.379 0-.771 0-1.157-.009-.893-.012-1.95-.027-3.019-.049-.964-.02-1.943-.044-2.891-.067l-1.256-.03-1.368-.032-3.122-.074c-.271-.007-.546-.011-.812-.015-.683-.011-1.39-.021-2.084-.073zm48.393 3.864a.3.3 0 0 1 .07.007.212.212 0 0 1 .127.079.348.348 0 0 1 .024.323.342.342 0 0 1-.237.213 2.8 2.8 0 0 1-.37.052l-.307.026c-.388.033-.79.067-1.186.09-.85.05-1.7.091-2.574.132-.307.015-.619.026-.92.037l-.723.029c-.378.017-.689.033-.979.053l-.955.068c-.473.034-.963.071-1.445.1-.894.055-1.8.1-2.684.148h-.013l-1.853.092-1.383.069a1.252 1.252 0 0 0-.234.03.226.226 0 0 0-.2.291 1.313 1.313 0 0 0 .184.51 1.826 1.826 0 0 0 .819.715 2.085 2.085 0 0 0 .891.2c.053 0 .107 0 .161-.006.281-.021.566-.049.841-.075l.331-.031 1.246-.116.725-.069.667-.064.555-.052.642-.061.875-.084.493-.048.419-.04.778-.075.921-.092.707-.071.813-.082q.547-.057 1.094-.117l.208-.023 1.405-.154 1.157-.131.794-.091.707-.08.292-.033c.272-.031.554-.064.832-.085a.714.714 0 0 0 .594-.345c.145-.229.3-.455.457-.674l.1-.139c.755-1.082 1.652-2.365 2.575-3.681a1.731 1.731 0 0 0 .265-.551.989.989 0 0 0-.487-.152.79.79 0 0 0-.092.006 15.747 15.747 0 0 1-1.842.113h-2.08c-.778 0-1.568.026-2.333.051l-.544.017c-.567.018-1.143.042-1.7.066-.44.019-.894.038-1.341.054-.882.031-1.82.06-3.043.093-.687.019-1.433.035-2.283.049l-.317.006c-1.135.019-2.309.039-3.463.05-.784.008-1.581.011-2.351.013h-1.258a1.41 1.41 0 0 0-.236.017.4.4 0 0 0-.382.379v.01c-.007.036-.014.073-.019.109a1.159 1.159 0 0 0 .84 1.313 1.643 1.643 0 0 0 .472.062h.145l1.617-.086 1.593-.085.728-.04 1.625-.087q.515-.026 1.03-.049l.392-.018.76-.036 1.962-.091c.352-.015.711-.028 1.058-.041l.709-.027.908-.038.416-.018 2.992-.128.744-.033q.744-.033 1.488-.063h.113a2.672 2.672 0 0 0 .585-.062.444.444 0 0 1 .081-.014h.024a.226.226 0 0 1 .236.188.34.34 0 0 1-.25.452 1.5 1.5 0 0 1-.324.049c-.763.038-1.511.071-2.207.1l-.859.036-.759.032q-.589.025-1.177.054l-.956.047-1.594.077q-.468.022-.936.04l-.658.028q-.453.019-.906.042l-1.095.052-1.775.084c-.308.014-.617.027-.925.039l-.694.029c-.4.017-.759.034-1.1.052l-1.423.075-1.151.061-.251.01c-.151.005-.306.011-.458.025-.259.024-.353.116-.387.378a1.5 1.5 0 0 0 .161.9.794.794 0 0 0 .746.486c.035 0 .071 0 .108-.005.255-.024.514-.038.765-.053l.387-.023c.246-.016.5-.035.759-.054l.551-.043c.341-.027.693-.055 1.04-.079.535-.035 1.079-.066 1.6-.095l.405-.023.733-.038.322-.016.711-.037 1.716-.087c.3-.015.6-.027.9-.039l.72-.031h.043c.958-.044 1.949-.089 2.923-.138.384-.019.775-.042 1.153-.064l.611-.035h.024zm-51.092 2.657q1.015.016 2.031.035c1.142.022 2.264.07 3.335.143h.048a.984.984 0 0 0 .208-.024.167.167 0 0 0 .118-.073.184.184 0 0 0 0-.146 1.082 1.082 0 0 0-.1-.181l-.016-.025-.121-.188c-.07-.107-.143-.218-.207-.332-.31-.55-.667-1.076-1.007-1.563-.82-1.175-1.7-2.333-2.557-3.453-.316-.414-.643-.843-.962-1.267a3.535 3.535 0 0 0-.626-.639 2.581 2.581 0 0 0-1.289-.56c-.424-.057-.853-.119-1.269-.179l-.286-.042-.622-.091c-.376-.056-.766-.114-1.149-.165-.536-.072-1.161-.154-1.776-.216-.637-.063-1.2-.106-1.709-.129-.186-.009-.392-.012-.646-.012H-591.139a1.125 1.125 0 0 1-.338-.037.516.516 0 0 0-.151-.022.752.752 0 0 0-.211.033 1.96 1.96 0 0 0-.2.072 4.08 4.08 0 0 1-.638.2 3.258 3.258 0 0 0-.528.172 1.8 1.8 0 0 0-.991 1.051 2.653 2.653 0 0 0-.1.346 9.1 9.1 0 0 0-.185 1.427c-.04.61-.069 1.258-.089 1.983 0 .153-.008.305-.012.458-.016.646-.032 1.315-.091 1.971a.732.732 0 0 0 0 .139.4.4 0 0 0 .313.387c.151.036.308.059.46.081l.066.01.288.038c.094.012.213.026.319.042l.719.112c.431.068.877.138 1.317.2.529.072 1.069.125 1.534.167.609.056 1.12.1 1.637.127.71.038 1.427.065 2.131.082.775.018 1.563.03 2.326.041l.942.014v-.006zm54.309.049c.041 0 .076.006.11.007h2.097c1.229 0 2.433 0 3.646-.036.585-.016 1.179-.025 1.754-.033l1.068-.018c1.187-.023 2.569-.057 3.946-.159.771-.057 1.359-.109 1.905-.166.625-.066 1.248-.151 1.775-.226.56-.079 1.129-.167 1.68-.252l.357-.056a1.189 1.189 0 0 0 .228-.061.265.265 0 0 0 .192-.255v-.291c-.006-.15-.014-.3-.021-.449-.01-.206-.021-.42-.029-.63l-.066-1.89-.05-1.446a7.459 7.459 0 0 0-.092-1.044 2.024 2.024 0 0 0-.913-1.437 5.22 5.22 0 0 0-1.507-.665 3.819 3.819 0 0 0-.981-.107h-.005c-.876 0-1.763.072-2.545.135-.691.055-1.4.129-2.121.219-.865.107-1.807.236-2.964.4a5.319 5.319 0 0 0-1.22.324 2.83 2.83 0 0 0-1.453 1.256 7.011 7.011 0 0 1-.435.659c-.2.27-.406.523-.566.714a16.112 16.112 0 0 0-1.148 1.524c-.285.436-.581.874-.868 1.3l-.376.557-.312.465-.987 1.471c-.01.016-.021.031-.032.045a.585.585 0 0 0-.081.138zm22.855-1.175a5.833 5.833 0 0 1 .91.048.951.951 0 0 0 .15.011h.038a.208.208 0 0 0 .233-.193.859.859 0 0 0 .016-.13v-.009l.023-.294c.019-.232.038-.472.046-.708a8.043 8.043 0 0 0-.094-1.556 6.006 6.006 0 0 0-.738-2.075 2.273 2.273 0 0 1-.3-1.515.9.9 0 0 0 0-.256 1.778 1.778 0 0 0-1.119-1.42.658.658 0 0 0-.279-.063.683.683 0 0 0-.237.044.331.331 0 0 0-.235.238 1.533 1.533 0 0 0-.04.329V-1797.308c0 .329.008.67-.018 1.006a1.04 1.04 0 0 0 .009.211.537.537 0 0 0 .312.446 1.348 1.348 0 0 0 .315.1 2.831 2.831 0 0 0 .572.043h.426zm-3.92-19.326a.337.337 0 0 1 .015.278v.009a1.562 1.562 0 0 0-.037.211l-.077.688c-.047.43-.1.875-.151 1.311a26.734 26.734 0 0 1-.476 2.659c-.125.543-.261 1.093-.393 1.625q-.12.486-.238.973c-.229.949-.447 1.871-.63 2.648a1.187 1.187 0 0 0-.032.257.282.282 0 0 0 .186.286l.12.049.084.035a2.808 2.808 0 0 1 1.727 1.958 6.1 6.1 0 0 1 .19 1.541c0 .615.047 1.24.089 1.845l.021.309c.045.665.093 1.317.142 1.982a3.469 3.469 0 0 0 .044.385.309.309 0 0 0 .256.263 1.163 1.163 0 0 0 .229.024.933.933 0 0 0 .3-.05.273.273 0 0 0 .2-.272 1.472 1.472 0 0 0-.015-.285 1.769 1.769 0 0 1 0-.526 5.223 5.223 0 0 0 .049-.873c-.014-.4-.018-.8-.022-1.19v-.406l-.008-.544-.036-2.745v-1.253a1.272 1.272 0 0 1 .1-.521.457.457 0 0 1 .437-.3h.006a1.7 1.7 0 0 1 .347.048c.158.035.318.074.472.112l.219.054.12.028.071.016a1.449 1.449 0 0 1 .711.362.38.38 0 0 0 .086.067.152.152 0 0 0 .07.019.142.142 0 0 0 .089-.035.138.138 0 0 0 .049-.189 1.793 1.793 0 0 1-.111-.462 1.446 1.446 0 0 0-.116-.386q-.137-.311-.27-.623-.113-.263-.228-.525l-.327-.749c-.337-.771-.685-1.568-1.034-2.35-.26-.584-.567-1.157-.864-1.712l-.2-.383a8.516 8.516 0 0 1-.735-1.773 3.727 3.727 0 0 1-.176-1.565.373.373 0 0 0 0-.06v-.006a.253.253 0 0 0-.217-.274.151.151 0 0 0-.038.016zm-88.64 10.408a.979.979 0 0 1 .159.012.437.437 0 0 1 .416.419 2.332 2.332 0 0 1 .014.3v.044q0 1.068.007 2.136v3.777c0 .239 0 .482-.005.717s-.006.5-.005.756a1.622 1.622 0 0 0 .044.354.4.4 0 0 0 .232.283 1.129 1.129 0 0 0 .486.113h.088a.238.238 0 0 0 .244-.241 1.3 1.3 0 0 0 0-.14v-.077-.1-.249q.042-.875.086-1.748l.051-1.022.018-.4c.012-.272.023-.554.043-.83l.007-.1a7.649 7.649 0 0 1 .127-1.075c.037-.173.084-.377.144-.573a2.651 2.651 0 0 1 1.6-1.734l.1-.04c.049-.018.1-.037.146-.059a.423.423 0 0 0 .258-.493 1.3 1.3 0 0 0-.061-.2 17.2 17.2 0 0 1-.522-1.768l-.181-.744c-.132-.545-.269-1.109-.412-1.66-.222-.854-.474-1.85-.65-2.848a17.262 17.262 0 0 1-.285-3.23 9.792 9.792 0 0 1 .405-2.795q.112-.365.221-.731c.113-.376.23-.765.351-1.147q.675-2.142 1.354-4.281l.614-1.939.165-.525q.1-.334.211-.668v-.009a.2.2 0 0 0 .013-.137.217.217 0 0 0-.11.124c-.014.04-.027.081-.039.122l-.172.554q-.2.656-.408 1.312l-.245.791q-.2.659-.409 1.317-.121.387-.239.774c-.269.876-.546 1.782-.887 2.653q-.048.122-.093.245c-.083.221-.17.449-.275.667a4.377 4.377 0 0 0-.179.451 8.7 8.7 0 0 0-.438 2.32c-.015.21-.026.425-.038.632-.024.444-.049.9-.108 1.353a5.243 5.243 0 0 1-.534 1.817c-.072.136-.141.276-.209.411l-.112.223c-.812 1.6-1.489 3.03-2.069 4.364-.091.21-.181.425-.268.633-.18.431-.365.876-.576 1.3a2.419 2.419 0 0 0-.117.3l-.02.059a1.611 1.611 0 0 0-.074.661v.016a.316.316 0 0 0 .044.169l.018-.008c.034-.015.069-.03.1-.047a4.745 4.745 0 0 1 1.514-.522l.072-.012a2.2 2.2 0 0 1 .383-.025zm-.414.7a.664.664 0 0 0-.168.025l-.044.012a3.3 3.3 0 0 0-.823.4 1.124 1.124 0 0 0-.482.782 3.875 3.875 0 0 0-.033.644v.059a2.3 2.3 0 0 1-.308 1.17c-.045.079-.091.163-.138.257a7.186 7.186 0 0 0-.733 3.007c-.015.343-.01.693-.005 1.031v.34a.921.921 0 0 0 .035.23.226.226 0 0 0 .185.175 1.739 1.739 0 0 0 .26.034c.116 0 .236.007.355.007a11.161 11.161 0 0 0 1.593-.123 2.327 2.327 0 0 0 .375-.082.324.324 0 0 0 .258-.36v-.136-.133-4.173-2.354a3.931 3.931 0 0 0-.032-.483c-.049-.285-.186-.323-.297-.323zm65.279.908h.333c1.6.007 3.308.017 5.523.033.5 0 .991.016 1.449.028.162 0 .326.012.485.019.219.01.445.02.667.022h.078a4.614 4.614 0 0 0 .77-.058 2.486 2.486 0 0 0 1.735-1.11c.025-.038.048-.078.071-.117s.053-.091.083-.135l.058-.086c.089-.133.181-.27.282-.4s.211-.248.318-.366l.088-.1 1.465-1.629c1.284-1.429 2.613-2.906 3.924-4.355.842-.931 1.645-1.922 2.395-2.857a.323.323 0 0 1 .025-.027c.025-.026.038-.041.035-.065h-.033c-.046-.005-.094-.01-.142-.011l-1.845-.042-.313-.007-1.965-.042-2.429-.049-2.577-.049-2.92-.049c-1.046-.016-2.165-.034-3.264-.049-1.437-.02-2.923-.04-4.418-.057-1.228-.013-2.476-.024-3.683-.035l-.76-.007c-.646-.006-1.5-.013-2.357-.018l-6.112-.031h-.132c-.719 0-1.463-.007-2.194-.007h-.374q-3.5.006-7 .016h-1.37l-3.781.011h-.116c-.678 0-1.379 0-2.069.01-1.538.012-3.064.027-4.222.038q-1.767.017-3.534.037-2.086.023-4.173.05-1.565.02-3.13.044h-.282l-3.166.049-2.67.047h-.127l-2.675.05-1.183.024-1.271.025-.848.015-.87.016h-.064a2.043 2.043 0 0 0-.305.02l.018.045c.023.057.043.105.065.152a3.217 3.217 0 0 0 .559.787l.3.325.564.618.856.943q1.429 1.573 2.857 3.148c1.535 1.7 2.746 3.094 3.81 4.4a3.275 3.275 0 0 0 .352.367 1.746 1.746 0 0 0 .826.41 2.491 2.491 0 0 0 .509.041h.142l1.969-.018 2.081-.019c.557 0 1.165-.007 1.915-.007h11.686c1.555 0 3.136-.008 4.666-.014l3.117-.01h5.619c3 0 6.107.006 9.161.012 1.006 0 2.029.007 3.019.011q1.216.007 2.431.01h1.153zm-60.324-12.517a.542.542 0 0 0-.126.358 16.877 16.877 0 0 0 .084 1.735 16.056 16.056 0 0 0 .385 2.313c.2.827.43 1.7.713 2.751a31.6 31.6 0 0 0 1.072 3.357c.042.107.083.2.125.289a.578.578 0 0 0 .442.327c.121.022.22.037.312.047l.614.063c.31.032.631.065.947.1.783.088 1.579.183 2.349.274h.014c1.023.121 1.968.264 2.887.438a.407.407 0 0 0 .073 0h.015a.34.34 0 0 0 0-.34 1.422 1.422 0 0 0-.194-.268c-.077-.087-.159-.174-.238-.257l-.179-.191-.99-1.092-1.037-1.144-1.4-1.544c-.8-.875-1.618-1.779-2.425-2.67-.2-.226-.411-.458-.61-.683-.537-.6-1.092-1.23-1.683-1.8a5.438 5.438 0 0 1-.558-.66 2.96 2.96 0 0 1-.569-1.312.88.88 0 0 0-.025-.085zm81.653.12c-.038.11-.073.215-.1.319a2.935 2.935 0 0 1-.7 1.242c-1.84 2.057-3.7 4.155-5.508 6.183l-1.79 2.012q-.169.191-.339.38c-.227.253-.462.515-.688.776a3.835 3.835 0 0 0-.584.89c-.017.037-.032.076-.05.122l-.005.013h.009c.047 0 .088-.007.127-.013l.6-.107c.4-.073.821-.147 1.234-.208.616-.092 1.285-.178 2.045-.264.521-.059 1.052-.1 1.566-.138h.024c.2-.015.405-.025.6-.034.148-.007.3-.014.452-.024a2.31 2.31 0 0 0 .662-.114.759.759 0 0 0 .531-.62 6.273 6.273 0 0 1 .264-.977l.014-.04c.1-.283.2-.576.282-.868l.028-.1c.355-1.209.722-2.461 1-3.712a19.57 19.57 0 0 0 .375-2.144c.039-.36.08-.743.109-1.122.021-.282.029-.553.024-.8a2.325 2.325 0 0 0-.14-.73.068.068 0 0 0-.014-.02zm-78.382-16.26a.161.161 0 0 0-.01.019 5.74 5.74 0 0 1-.336 1.135c-.1.267-.183.486-.247.69-.308.976-.619 1.975-.893 2.855-.834 2.681-1.658 5.3-2.558 7.911a14.691 14.691 0 0 0-.85 4.253 11.108 11.108 0 0 0 .184 2.481c.248 1.317.554 2.594.848 3.778.2.809.4 1.627.589 2.432l.037.157a7.963 7.963 0 0 0 .277 1 4.9 4.9 0 0 0 .214.49.3.3 0 0 0 .278.187.36.36 0 0 0 .082-.01 3.344 3.344 0 0 0 .505-.161.164.164 0 0 0 .1-.212 2.2 2.2 0 0 0-.071-.218l-.02-.057-.218-.608c-.152-.421-.309-.856-.451-1.289a42.8 42.8 0 0 1-1.311-5.084 16.264 16.264 0 0 1-.326-2.782 10.565 10.565 0 0 1 .318-2.954c.375-1.435.778-2.882 1.2-4.3l.273-.925c.314-1.061.639-2.158.95-3.24.3-1.027.6-2.089.978-3.114a4.518 4.518 0 0 0 .174-.581c.107-.48.208-.97.307-1.444l.078-.373v-.017l-.086-.02zm75.2.356c0 .038.006.075.008.113a2.724 2.724 0 0 0 .041.357l.033.162c.078.379.159.772.263 1.15.431 1.571.879 3.165 1.3 4.652.662 2.345 1.2 4.125 1.748 5.771a13.046 13.046 0 0 1 .646 3.4 16.2 16.2 0 0 1-.072 2.654c-.085.77-.215 1.57-.386 2.375-.21.988-.492 1.957-.739 2.775l-.146.485c-.114.379-.232.772-.353 1.157-.066.212-.125.431-.182.643a10.154 10.154 0 0 1-.315 1.027.165.165 0 0 0-.008.134.192.192 0 0 0 .133.077 3.814 3.814 0 0 0 .407.064.872.872 0 0 0 .1.006.4.4 0 0 0 .413-.328c.085-.252.147-.46.2-.654.1-.38.191-.767.283-1.141.15-.609.3-1.239.466-1.856.32-1.219.569-2.246.745-3.3a19.2 19.2 0 0 0 .28-3.093 10.726 10.726 0 0 0-.331-2.66c-.19-.767-.439-1.521-.681-2.223-.051-.149-.1-.3-.155-.447-.242-.7-.493-1.418-.692-2.143-.278-1.017-.619-2.11-1.07-3.438l-.606-1.78-.911-2.677c-.1-.307-.206-.621-.3-.924zm12.879 18.19h.149a10.559 10.559 0 0 0 2.554-.312 5.237 5.237 0 0 0 1.462-.585 3.277 3.277 0 0 0 1.349-1.51 4.47 4.47 0 0 0 .361-2.111 1.621 1.621 0 0 0-.817-1.332 1.981 1.981 0 0 0-.763-.274c-.184-.026-.374-.041-.557-.055l-.1-.008c-.616-.049-1.169-.073-1.691-.073a14.561 14.561 0 0 0-1.535.077 10.6 10.6 0 0 0-1.915.371 7.07 7.07 0 0 0-1.228.467 2.058 2.058 0 0 0-.529.37 1.175 1.175 0 0 0-.322.595 2.211 2.211 0 0 0-.025.67c.01.114.013.23.016.342v.371a6.567 6.567 0 0 0 .183 1.252l.013.062c.046.215.094.437.161.647a1.186 1.186 0 0 0 1.028.864 14.062 14.062 0 0 0 2.08.171h.121zm-103.709-6.362l-.206.01c-.192.009-.409.018-.629.04a5.385 5.385 0 0 0-1.28.281 1.568 1.568 0 0 0-.794.622 2.153 2.153 0 0 0-.274.586 3.265 3.265 0 0 0-.023 1.769 2.8 2.8 0 0 0 1.1 1.651 6.754 6.754 0 0 0 2.374 1.094 9.871 9.871 0 0 0 2.355.254h.288a.381.381 0 0 0 .149-.027.591.591 0 0 1 .245-.05.912.912 0 0 1 .141.012 2.564 2.564 0 0 0 .419.033 3.386 3.386 0 0 0 .4-.025 6.043 6.043 0 0 0 .79-.14 1.21 1.21 0 0 0 .962-1q.065-.312.127-.624a5.844 5.844 0 0 0 .123-1.257c0-.2 0-.4.012-.588 0-.058 0-.116.007-.175a1.468 1.468 0 0 0-.623-1.323 3.468 3.468 0 0 0-.653-.368 7.39 7.39 0 0 0-2.284-.577c-.475-.05-.96-.083-1.429-.116l-.526-.037c-.151-.011-.3-.02-.481-.029zm98.667 4.613a.062.062 0 0 1 0 .012v.506c-.018.243.046.332.284.4a.957.957 0 0 0 .252.035.882.882 0 0 0 .256-.038.361.361 0 0 0 .236-.165.328.328 0 0 0-.012-.264 5.651 5.651 0 0 1-.213-.656 1.012 1.012 0 0 1-.042-.428.713.713 0 0 0 0-.183.244.244 0 0 0-.193-.224.692.692 0 0 0-.2-.03.686.686 0 0 0-.209.033.21.21 0 0 0-.164.212 2.172 2.172 0 0 0 .018.287c0 .03.009.06.013.09a.646.646 0 0 1-.027.416zm-91.278-1.134a.341.341 0 0 0-.129.028 1.43 1.43 0 0 0-.21.108.156.156 0 0 0-.081.165.872.872 0 0 1-.1.5.7.7 0 0 0-.046.592l.007.017-.007.017-.042.094a1.759 1.759 0 0 0-.076.185.174.174 0 0 0 .087.222.4.4 0 0 0 .121.05 1.466 1.466 0 0 0 .266.026 1.152 1.152 0 0 0 .229-.022.333.333 0 0 0 .289-.336 1.424 1.424 0 0 0-.01-.207c0-.043-.008-.087-.01-.13v-.02a2.388 2.388 0 0 1 0-.277c.005-.074.017-.147.029-.218l.016-.1a.9.9 0 0 0-.048-.461.31.31 0 0 0-.293-.224zm90.345.088V-1814.613a1.642 1.642 0 0 0 .173.69l.005.011c.01.021.016.032.026.038a.36.36 0 0 0 .024-.046.577.577 0 0 0 .008-.337 1.3 1.3 0 0 1 .01-.65.9.9 0 0 0 .01-.37.68.68 0 0 0-.263-.437zm-89.023-.152a1.753 1.753 0 0 0-.29 1.017 1 1 0 0 0 .169.528.123.123 0 0 0 .028.024 6.4 6.4 0 0 0 .086-1.562zm36.992.425c2.989 0 6.027 0 8.966.007h.527c1.643 0 3.313.009 4.928.015l2.142.008h3.187q1.169 0 2.339.008c2.068.01 4.285.023 6.481.039 1.243.009 2.5.025 3.707.041 1.021.013 2.081.029 3.24.049.764.013 1.519.03 2.356.049 1.046.024 2.165.049 3.264.077l2.126.056 1.579.042c.141 0 .284 0 .422.006.28 0 .57 0 .855.028.1.009.217.014.345.014.084 0 .175 0 .288-.006a.439.439 0 0 0 .481-.413c.036-.162.077-.326.116-.484l.063-.255c.024-.1.05-.2.076-.3.058-.228.119-.463.159-.7a2.463 2.463 0 0 0-.175-1.487 7.833 7.833 0 0 1-.493-1.444l-.157-.642c-.125-.516-.255-1.049-.4-1.568-.217-.773-.451-1.556-.676-2.313l-.326-1.1-.5-1.7q-.33-1.128-.662-2.255l-.556-1.875-.524-1.769c-.053-.18-.1-.361-.155-.541-.068-.24-.138-.488-.212-.73a2.9 2.9 0 0 0-.336-.721 1.649 1.649 0 0 0-.931-.709 3.29 3.29 0 0 0-.859-.135l-2.576-.085-.357-.012c-.768-.026-1.561-.053-2.342-.083l-1.511-.06c-.759-.031-1.543-.062-2.315-.089-1.2-.042-2.19-.069-3.116-.086s-1.881-.029-2.8-.04l-1.5-.019h-.325c-.473-.006-.962-.013-1.443-.028-.429-.014-.865-.031-1.287-.048-.615-.024-1.251-.05-1.877-.063-.932-.021-1.88-.029-2.8-.037l-.836-.007-1.021-.006c-.551 0-1.12 0-1.68-.015-.61-.012-1.23-.033-1.83-.053l-1.041-.033h-.023c-.184-.005-.375-.011-.562-.011h-.271c-.116 0-.235.021-.349.036-.084.012-.171.024-.258.031-.055 0-.112.008-.174.008s-.127 0-.2-.008a1.251 1.251 0 0 1-.666-.264l-.113.037a5.418 5.418 0 0 1-1.456.26c-.149.006-.3.01-.474.01-.326 0-.657-.012-.977-.023l-.368-.013c-.291-.009-.577-.017-.865-.017h-.286c-.325.007-.656.019-.975.032s-.658.025-.987.032c-.666.014-1.343.024-2 .033l-1.194.018c-.936.015-1.782.03-2.65.05-1.121.025-2.261.053-3.364.08l-.735.018-3.951.1-1.547.039-2.33.059-1.213.028-1.683.04q-.99.026-1.979.056l-1.186.034-.976.027-1.453.041c-.218.007-.439.018-.66.035a2.942 2.942 0 0 0-.892.2 1.73 1.73 0 0 0-1.039 1.121c-.016.049-.03.1-.044.148l-.018.063-.744 2.579c-.576 2-1.172 4.062-1.755 6.094l-.218.762c-.506 1.768-1.029 3.6-1.592 5.379a9.261 9.261 0 0 0-.422 1.953 4.68 4.68 0 0 0 .329 2.238 1.661 1.661 0 0 0 .12.233.621.621 0 0 0 .512.307h.266l.549-.015c.287-.009.583-.017.874-.023.919-.018 1.87-.037 2.823-.049 1.142-.014 2.3-.026 3.427-.037l2.87-.029 2.54-.026h.428l3.966-.045c1.1-.014 2.213-.031 3.313-.049.365-.006.736-.015 1.1-.024l1.089-.024 1.184-.023c1.028-.02 2.091-.042 3.137-.043q2.044.021 4.087.021zm47.9-10.088a.469.469 0 0 0 .04.2l.02.057c.554 1.757 1.119 3.542 1.666 5.268l.057.18.217.682.288.907c0 .015.01.03.016.046a.3.3 0 0 1 .026.193.37.37 0 0 0 .016.249l.017.059c.052.2.106.389.159.584.082.3.166.6.243.907.055.217.1.436.144.666l.027.135c0-.038.007-.076.01-.115a4.729 4.729 0 0 0-.059-.945 7.877 7.877 0 0 0-.389-1.459q-.186-.525-.369-1.051l-.117-.335-.027-.084-.01-.035-.385-1.239c-.432-1.39-.878-2.827-1.32-4.24a3.94 3.94 0 0 0-.169-.421l-.062-.14a.343.343 0 0 0-.042-.062zm-45.978-16.964c-.727 0-1.464.008-2.19.022-.5.01-1 .027-1.494.043s-.967.032-1.45.042c-1.353.029-2.541.047-3.633.056-1.512.012-3.226.026-4.906.1-.54.025-1.089.054-1.619.082l-.734.038-.753.04c-.564.03-1.148.061-1.723.086-.444.02-.9.036-1.333.051-.383.013-.779.028-1.169.044-1.086.046-2.37.1-3.653.165a5.232 5.232 0 0 0-.747.1 2.025 2.025 0 0 0-1.125.6c-.267.288-.575.624-.866.968a5.891 5.891 0 0 0-.425.593c-.12.184-.236.376-.348.562l-.153.252-.1.155c-.066.106-.135.215-.2.325a2.7 2.7 0 0 0-.274.642l-.007.027a1.247 1.247 0 0 0-.062.491l.042-.01c.06-.014.115-.028.169-.038l.04-.008a1.441 1.441 0 0 1 .207-.032c.3-.016.6-.028.883-.039l.37-.014c.731-.027 1.487-.056 2.23-.081l.415-.014c.885-.031 1.8-.062 2.7-.086 1.033-.028 2.083-.051 3.1-.073l.877-.02 1.567-.033 1.339-.028 1.781-.038.414-.009c.572-.012 1.163-.025 1.745-.041q1.427-.038 2.855-.082l.776-.022 1-.031c.686-.021 1.394-.043 2.092-.059 1.023-.023 2.064-.036 3.071-.048h.169c.452-.005.911-.009 1.354-.011l1-.008q1.718-.017 3.436-.037l.506-.005c.478 0 .972-.009 1.457-.024.613-.019 1.218-.029 1.8-.029.455 0 .908.006 1.347.018.7.019 1.421.045 2.114.071l1.222.044.638.022c.739.026 1.5.052 2.256.068s1.508.025 2.243.034l1.365.018c.912.014 1.812.031 2.675.049.975.021 2.014.044 3.043.073.8.023 1.623.052 2.414.081l.505.018c.536.019 1.068.041 1.472.059l1.008.045c.618.028 1.257.057 1.885.08.819.03 1.652.053 2.457.076l.634.018c.224.007.448.011.672.016l.677.016 1.543.046 1.229.037h.063a1.121 1.121 0 0 0 .151-.009.117.117 0 0 0 .086-.041.108.108 0 0 0-.006-.088c-.024-.059-.052-.118-.079-.175s-.057-.121-.083-.183a9.947 9.947 0 0 0-.636-1.264 14.009 14.009 0 0 0-1.4-1.943 4.142 4.142 0 0 0-.446-.446 1.809 1.809 0 0 0-.9-.422c-.083-.014-.169-.021-.253-.027l-.086-.007-.594-.054c-.47-.043-.956-.087-1.434-.122-.651-.047-1.313-.081-1.954-.114h-.03c-1-.051-1.894-.093-2.721-.128-.392-.016-.791-.029-1.177-.042l-.761-.025c-.535-.019-.943-.036-1.325-.054l-.891-.046c-.5-.027-1.024-.055-1.535-.074-1.122-.042-2.133-.079-3.164-.094-1.416-.02-2.855-.031-4.247-.041l-1.349-.01c-.748-.006-1.516-.01-2.283-.011h-8.2c-.7 0-1.418-.009-2.11-.016s-1.408-.013-2.112-.016z" class="prefix__cls-2" data-name="Trazado 2571" transform="translate(608.924 1843.433)"/>
            <path id="prefix__Trazado_2572" d="M-266.736-667.13a3.547 3.547 0 0 1-1.544-.37 3.75 3.75 0 0 1-2.12-2.792 3.908 3.908 0 0 1 .129-1.984 3.6 3.6 0 0 1 2.428-2.4 4.237 4.237 0 0 1 1.3-.208 4.343 4.343 0 0 1 1.473.264 3.522 3.522 0 0 1 2.158 2.094 4.051 4.051 0 0 1 .036 3 3.527 3.527 0 0 1-2.57 2.267 4.58 4.58 0 0 1-1.189.121h-.1zm-3.024-3.882l.022.2a4.037 4.037 0 0 0 .06.427 3.312 3.312 0 0 0 1.367 2.1 3 3 0 0 0 1.739.556 3.575 3.575 0 0 0 .894-.119 2.855 2.855 0 0 0 1.932-1.489 3.23 3.23 0 0 0-.206-3.507 3.025 3.025 0 0 0-1.969-1.3 3.214 3.214 0 0 0-.355-.042l-.177-.016a2.377 2.377 0 0 0-.257-.014 2.54 2.54 0 0 0-1.187.307 3.492 3.492 0 0 0-1.6 1.725 3.048 3.048 0 0 0-.263 1.172z" class="prefix__cls-2" data-name="Trazado 2572" transform="translate(287.784 734.654)"/>
            <path id="prefix__Trazado_2573" d="M1145.547-667.821a3.818 3.818 0 0 1-3.025-1.467 3.974 3.974 0 0 1-.819-3.077 3.99 3.99 0 0 1 1.666-2.678 3.572 3.572 0 0 1 1.781-.629l.265-.019h.069a3.961 3.961 0 0 1 3.876 3.219 3.946 3.946 0 0 1-2.578 4.451 3.808 3.808 0 0 1-1.235.2zm-.041-7.165a3.032 3.032 0 0 0-1.334.305 3.179 3.179 0 0 0-1.845 2.879 3.153 3.153 0 0 0 1.582 2.8 3.3 3.3 0 0 0 1.278.424 3.415 3.415 0 0 0 .455.031 2.915 2.915 0 0 0 1.982-.779 3.516 3.516 0 0 0 1.083-1.907 1.909 1.909 0 0 0 .044-.691 3.788 3.788 0 0 0-.716-1.806 3.176 3.176 0 0 0-2.529-1.256z" class="prefix__cls-2" data-name="Trazado 2573" transform="translate(-1052.112 735.428)"/>
        </g>
    </g>
</svg>
