<svg xmlns="http://www.w3.org/2000/svg" width="189.217" height="171.325" viewBox="0 0 189.217 171.325">
  <g id="Componente_163_2" data-name="Componente 163 – 2" transform="translate(0.75)">
    <ellipse id="Elipse_64" data-name="Elipse 64" cx="85.662" cy="85.662" rx="85.662" ry="85.662" transform="translate(17.143)" fill="#192e1f" opacity="0.11"/>
    <g id="Elipse_88" data-name="Elipse 88" transform="translate(28.32 13.848)" fill="#9bd3f8" stroke="#004e37" stroke-width="2">
      <ellipse cx="74.966" cy="73.08" rx="74.966" ry="73.08" stroke="none"/>
      <ellipse cx="74.966" cy="73.08" rx="73.966" ry="72.08" fill="none"/>
    </g>
    <path id="Trazado_2123" data-name="Trazado 2123" d="M469.344,323.365c-2.273,0-4.546.027-6.818-.006a5.591,5.591,0,1,1-.044-11.171q6.918-.065,13.837,0a5.583,5.583,0,1,1,.044,11.164C474.023,323.4,471.684,323.365,469.344,323.365Zm.129-9.243c-2.27,0-4.541-.02-6.811.005-2.5.028-4.068,1.487-4.04,3.7.028,2.13,1.57,3.571,3.946,3.586q6.811.04,13.623,0c2.365-.015,3.927-1.475,3.956-3.593.03-2.184-1.575-3.663-4.063-3.692-2.2-.025-4.408,0-6.612,0Z" transform="translate(-309.943 -271.374)" fill="#253826"/>
    <path id="Trazado_2124" data-name="Trazado 2124" d="M425.047,568.731a6.243,6.243,0,0,1-6.349-6.13,6.309,6.309,0,1,1,12.617-.07,6.2,6.2,0,0,1-6.2,6.2Zm-.1-10.544a4.329,4.329,0,0,0-4.294,4.355,4.392,4.392,0,0,0,4.335,4.355,4.514,4.514,0,0,0,4.443-4.5,4.415,4.415,0,0,0-4.484-4.212Z" transform="translate(-255.209 -476.897)" fill="#253826"/>
    <path id="Trazado_2127" data-name="Trazado 2127" d="M408.5,602.874q7.2,0,14.4,0c1.065,0,2.424-.121,2.5.83.084,1.022-1.249,1.085-2.511,1.09l-28.461.1c-1.285,0-2.609-.135-2.641-1.069-.034-1.021,1.439-1.014,2.645-1.018,4.689-.014,9.378-.006,14.069-.006Z" transform="translate(-255.908 -483.619)" fill="#253826"/>
    <path id="Trazado_2128" data-name="Trazado 2128" d="M68,465.211a3.356,3.356,0,0,1,3.275,3.376,3.306,3.306,0,0,1-6.607-.005q0-.037,0-.075a3.313,3.313,0,0,1,3.33-3.3Zm-.019,1.942a1.275,1.275,0,0,0-1.354,1.381,1.259,1.259,0,0,0,1.2,1.319h.035a1.282,1.282,0,0,0,1.462-1.073,1.427,1.427,0,0,0-1.339-1.63Z" transform="translate(61.965 -314.413)" fill="#253826"/>
    <path id="Trazado_2130" data-name="Trazado 2130" d="M501.2,444.709a2.63,2.63,0,0,1-2.589-2.669v-.027a2.587,2.587,0,1,1,5.174-.021,2.653,2.653,0,0,1-2.586,2.717Z" transform="translate(-348.084 -312.406)" fill="#253826"/>
    <path id="Trazado_2133" data-name="Trazado 2133" d="M400.823,590.545c-2.06,0-4.121.012-6.18,0-1.577-.009-2.724-.3-2.718-.937.011-.5,1.059-.894,2.339-.889h.015q6.686-.061,13.376.017c1.236.005,2.228.4,2.214.877a.5.5,0,0,1-.006.055c0,.478-.993.868-2.228.869h-.116C405.288,590.565,403.056,590.543,400.823,590.545Z" transform="translate(-253.916 -475.18)" fill="#253826"/>
    <path id="Trazado_2176" data-name="Trazado 2176" d="M472.379,317.035c2.2,0,4.408-.021,6.611.005,2.488.029,4.093,1.508,4.063,3.692-.029,2.117-1.591,3.577-3.956,3.593q-6.812.043-13.623,0c-2.376-.014-3.918-1.457-3.946-3.586-.029-2.21,1.544-3.671,4.039-3.7C467.838,317.016,470.109,317.036,472.379,317.035Z" transform="translate(-312.85 -274.286)" fill="#fff"/>
    <path id="Trazado_2177" data-name="Trazado 2177" d="M427.863,561.088a4.414,4.414,0,0,1,4.482,4.212,4.514,4.514,0,0,1-4.443,4.5,4.392,4.392,0,0,1-4.333-4.355A4.329,4.329,0,0,1,427.863,561.088Z" transform="translate(-258.121 -479.798)" fill="#fff"/>
    <path id="Trazado_2179" data-name="Trazado 2179" d="M70.9,470.041a1.316,1.316,0,0,1,1.353,1.423,1.282,1.282,0,0,1-1.27,1.294,1.324,1.324,0,0,1-.206-.015,1.259,1.259,0,0,1-1.233-1.286c0-.012,0-.023,0-.035A1.275,1.275,0,0,1,70.9,470.041Z" transform="translate(59.047 -317.302)" fill="#fff"/>
    <path id="Trazado_2625" data-name="Trazado 2625" d="M1200.156,77.555h-1.221a6.267,6.267,0,0,0-9.146-7.347,8.692,8.692,0,0,0-16.5,3.791,4.149,4.149,0,0,0-5.239,3.556h-6.967a5.272,5.272,0,0,0,0,10.544h39.07a5.272,5.272,0,0,0,0-10.544Z" transform="translate(-1155.031 -4.415)" fill="#fff"/>
    <path id="Trazado_2626" data-name="Trazado 2626" d="M1160.437,88.236a6.057,6.057,0,0,1,0-12.114h6.309l.067-.22a4.911,4.911,0,0,1,4.725-3.489l.366.006.036-.275a9.509,9.509,0,0,1,9.4-8.237,9.411,9.411,0,0,1,7.984,4.38l.139.218.24-.1a6.981,6.981,0,0,1,2.617-.508,7.069,7.069,0,0,1,7.062,7.06,6.943,6.943,0,0,1-.048.815l-.04.34.342.007a6.057,6.057,0,0,1-.129,12.112Zm0-10.544a4.487,4.487,0,0,0,0,8.975h39.07a4.487,4.487,0,0,0,0-8.975h-1.222a.786.786,0,0,1-.746-1.029,5.482,5.482,0,0,0-8-6.428.785.785,0,0,1-1.1-.329,7.907,7.907,0,0,0-15.008,3.448.786.786,0,0,1-.991.754,3.505,3.505,0,0,0-.922-.125,3.354,3.354,0,0,0-3.329,3.01.784.784,0,0,1-.78.7Z" transform="translate(-1154.381 -4.667)" fill="#253826" stroke="#253826" stroke-width="1.5"/>
    <path id="Trazado_2127-2" data-name="Trazado 2127" d="M403.459,602.874c3.352,0,6.7-.005,10.055,0,.744,0,1.693-.121,1.748.83.059,1.022-.872,1.085-1.753,1.09l-19.878.1c-.9,0-1.822-.135-1.844-1.069-.024-1.021,1.005-1.014,1.847-1.018,3.275-.014,6.55-.006,9.826-.006Z" transform="translate(-365.33 -481.156)" fill="#253826"/>
    <path id="Trazado_2133-2" data-name="Trazado 2133" d="M400.823,590.545c-2.06,0-4.121.012-6.18,0-1.577-.009-2.724-.3-2.718-.937.011-.5,1.059-.894,2.339-.889h.015q6.686-.061,13.376.017c1.236.005,2.228.4,2.214.877a.5.5,0,0,1-.006.055c0,.478-.993.868-2.228.869h-.116C405.288,590.565,403.056,590.543,400.823,590.545Z" transform="translate(-355.287 -472.718)" fill="#253826"/>
    <path id="Trazado_2127-3" data-name="Trazado 2127" d="M395.063,602.874c.941,0,1.882-.005,2.823,0,.209,0,.475-.121.491.83.017,1.022-.245,1.085-.492,1.09l-5.581.1c-.252,0-.512-.135-.518-1.069-.007-1.021.282-1.014.519-1.018.919-.014,1.839-.006,2.759-.006Z" transform="translate(-372.699 -481.156)" fill="#253826"/>
    <path id="Trazado_2133-3" data-name="Trazado 2133" d="M394.294,590.545c-.549,0-1.1.012-1.646,0-.42-.009-.726-.3-.724-.937,0-.5.282-.894.623-.889h0q1.781-.061,3.563.017c.329.005.593.4.59.877,0,.018,0,.037,0,.055,0,.478-.264.868-.593.869h-.031C395.483,590.565,394.889,590.543,394.294,590.545Z" transform="translate(-360.98 -472.718)" fill="#253826"/>
    <path id="Trazado_2122" data-name="Trazado 2122" d="M122.65,593.768a3.916,3.916,0,0,1-3.923,3.909H118.7a3.963,3.963,0,0,1-4.007-3.918c0-.023,0-.047,0-.07a3.957,3.957,0,0,1,3.969-3.905,3.913,3.913,0,0,1,3.985,3.839Q122.651,593.7,122.65,593.768Z" transform="translate(-12.426 -578.911)" fill="#253826"/>
    <path id="Trazado_2124-2" data-name="Trazado 2124" d="M423.451,565.59A4.673,4.673,0,0,1,418.7,561a4.723,4.723,0,1,1,9.445-.053,4.64,4.64,0,0,1-4.638,4.642Zm-.074-7.893a3.241,3.241,0,0,0-3.214,3.26,3.288,3.288,0,0,0,3.245,3.26,3.379,3.379,0,0,0,3.326-3.367,3.3,3.3,0,0,0-3.356-3.153Z" transform="translate(-268.855 -461.51)" fill="#253826"/>
    <path id="Trazado_2177-2" data-name="Trazado 2177" d="M426.783,561.088a3.3,3.3,0,0,1,3.355,3.153,3.379,3.379,0,0,1-3.326,3.367,3.288,3.288,0,0,1-3.244-3.26A3.241,3.241,0,0,1,426.783,561.088Z" transform="translate(-272.262 -464.901)" fill="#fff"/>
    <g id="Grupo_1982" data-name="Grupo 1982" transform="translate(21.732 80.995)">
      <path id="Trazado_2621" data-name="Trazado 2621" d="M1284.385,116.681h-2.743c0-.088.012-.174.012-.262a4.621,4.621,0,0,0-7.784-3.376,6.409,6.409,0,0,0-12.206,3.638h-.489a4.04,4.04,0,0,0,0,8.081h23.209a4.04,4.04,0,0,0,0-8.081Z" transform="translate(-1255.694 -107.73)" fill="#fff"/>
      <path id="Trazado_2622" data-name="Trazado 2622" d="M1261.186,126.216a5.485,5.485,0,0,1-1.445-10.775l.385-.1.034-.4a7.86,7.86,0,0,1,13.929-4.3l.268.328.39-.161a6.016,6.016,0,0,1,2.29-.449,6.086,6.086,0,0,1,5.856,4.469l.115.42h1.387a5.484,5.484,0,0,1,0,10.968Zm0-8.081a2.6,2.6,0,0,0,0,5.194H1284.4a2.6,2.6,0,0,0,0-5.194h-2.742a1.443,1.443,0,0,1-1.443-1.492l.008-.152a3.219,3.219,0,0,0-.938-2.314,3.165,3.165,0,0,0-4.415-.068,1.433,1.433,0,0,1-.983.389,1.467,1.467,0,0,1-.3-.03,1.441,1.441,0,0,1-1.03-.84,4.973,4.973,0,0,0-9.538,1.97,4.913,4.913,0,0,0,.079.852,1.444,1.444,0,0,1-1.423,1.686Z" transform="translate(-1255.704 -107.74)" fill="#243825"/>
    </g>
    <g id="Grupo_2912" data-name="Grupo 2912" transform="translate(43.895 21.896)">
      <g id="Grupo_2910" data-name="Grupo 2910" transform="translate(22.325 0.9)">
        <ellipse id="Elipse_158" data-name="Elipse 158" cx="20" cy="20.5" rx="20" ry="20.5" transform="translate(0.344 -0.472)" fill="#bdd63f"/>
        <path id="Trazado_3150" data-name="Trazado 3150" d="M-17329.729-476.042c9.8-24.42-10.273-36.976-10.273-36.976s7.529-.211,11.83,3.115,7.707,10.547,7.707,10.547,1.379,9.411-.4,12.738-4.137,7.3-4.381,7.3S-17329.729-476.042-17329.729-476.042Z" transform="translate(17359.895 513.872)" fill="#98aa40"/>
        <g id="Elipse_157" data-name="Elipse 157" transform="translate(0.344 -0.472)" fill="none" stroke="#253826" stroke-width="5">
          <ellipse cx="20" cy="20.5" rx="20" ry="20.5" stroke="none"/>
          <ellipse cx="20" cy="20.5" rx="17.5" ry="18" fill="none"/>
        </g>
      </g>
      <g id="select" transform="translate(4.322 16.552)">
        <path id="Trazado_3144" data-name="Trazado 3144" d="M144.924,45a7.357,7.357,0,0,0-7.357,7.357v-4.9a7.357,7.357,0,0,0-14.713,0v-4.9a7.357,7.357,0,0,0-14.713,0V18.023a7.357,7.357,0,0,0-14.713,0v61.3L76.4,70.814a12.263,12.263,0,0,0-5.483-1.295A6.915,6.915,0,0,0,64,76.434v.029a6.914,6.914,0,0,0,2.026,4.9l31.711,31.711a35.508,35.508,0,0,0,25.115,10.387h0A29.426,29.426,0,0,0,152.28,94.041V52.354A7.356,7.356,0,0,0,144.924,45Z" transform="translate(-61.549 -8.215)" fill="#ffcc80"/>
        <g id="Grupo_2909" data-name="Grupo 2909" transform="translate(46.592 28.886)">
          <path id="Trazado_3145" data-name="Trazado 3145" d="M258.454,125.653v27.513A2.452,2.452,0,0,1,256,155.619V131.1A7.2,7.2,0,0,1,258.454,125.653Z" transform="translate(-256.002 -125.653)" fill="#ffb74d"/>
          <path id="Trazado_3146" data-name="Trazado 3146" d="M322.454,146.987V169.6A2.452,2.452,0,0,1,320,172.048V152.431A7.2,7.2,0,0,1,322.454,146.987Z" transform="translate(-305.289 -142.083)" fill="#ffb74d"/>
          <path id="Trazado_3147" data-name="Trazado 3147" d="M386.454,168.32v17.7A2.452,2.452,0,0,1,384,188.477V173.764A7.2,7.2,0,0,1,386.454,168.32Z" transform="translate(-354.576 -158.511)" fill="#ffb74d"/>
        </g>
        <path id="Trazado_3149" data-name="Trazado 3149" d="M339.544,217.19v39.98a26.873,26.873,0,0,1-12.917,21.493,4.245,4.245,0,0,0-2.235,3.586c-.006,5.248-11.369,5.291-11.363,0a4.242,4.242,0,0,1,2.235-3.586,26.873,26.873,0,0,0,12.917-21.493V217.19c.035-2.821,2.034-6.057-1.554-7.552.607-.253-2.911.15-2.235,0a16.147,16.147,0,0,1,4.621-.429c2.453.175,5.692-2.07,7.5-1.036,2.54,1.451,3.108,6.58,3.029,9.016Zm0,0" transform="translate(-250.624 -169.991)" fill="#dfb06b"/>
        <path id="Trazado_3148" data-name="Trazado 3148" d="M114.636,117.7A37.714,37.714,0,0,1,87.79,106.586L56.078,74.874A9.387,9.387,0,0,1,62.7,58.852a14.783,14.783,0,0,1,6.577,1.55l13.482,6.743V9.809a9.809,9.809,0,0,1,19.618,0V25.841a9.808,9.808,0,0,1,14.164,5.248,9.809,9.809,0,0,1,14.713,4.9,9.809,9.809,0,0,1,15.262,8.146V85.826A31.917,31.917,0,0,1,114.636,117.7ZM62.7,63.756a4.483,4.483,0,0,0-3.158,7.651l31.711,31.711a32.859,32.859,0,0,0,23.384,9.681A27.008,27.008,0,0,0,141.61,85.826V44.139a4.9,4.9,0,0,0-9.809,0V56.4a2.452,2.452,0,1,1-4.9,0V39.235a4.9,4.9,0,0,0-9.809,0V56.4a2.452,2.452,0,1,1-4.9,0V34.33a4.9,4.9,0,0,0-9.809,0V56.4a2.452,2.452,0,0,1-4.9,0V9.809a4.9,4.9,0,0,0-9.809,0v61.3a2.452,2.452,0,0,1-3.551,2.192L67.064,64.791A9.852,9.852,0,0,0,62.7,63.756Z" transform="translate(-53.331)" fill="#253826"/>
      </g>
      <path id="Trazado_3151" data-name="Trazado 3151" d="M84.538,38.332a2.315,2.315,0,0,0,1.688-3.9,23.093,23.093,0,0,1-1.014-30.6A2.315,2.315,0,1,0,81.644.883,27.727,27.727,0,0,0,82.851,37.6a2.316,2.316,0,0,0,1.687.729Zm0,0" transform="translate(-63.672 3.508)" fill="#bdd63f"/>
      <path id="Trazado_3152" data-name="Trazado 3152" d="M246.337,36.947a2.656,2.656,0,0,0,3.575-1.153,31.768,31.768,0,0,0-3.8-34.781A2.656,2.656,0,1,0,242.023,4.4a26.461,26.461,0,0,1,3.164,28.974,2.656,2.656,0,0,0,1.15,3.575Zm0,0" transform="translate(-181.331 -0.001)" fill="#bdd63f"/>
      <path id="Trazado_3153" data-name="Trazado 3153" d="M84.538,38.332a2.315,2.315,0,0,0,1.688-3.9,23.093,23.093,0,0,1-1.014-30.6A2.315,2.315,0,1,0,81.644.883,27.727,27.727,0,0,0,82.851,37.6a2.316,2.316,0,0,0,1.687.729Zm0,0" transform="translate(-75.277 3.508)" fill="#bdd63f"/>
      <path id="Trazado_3154" data-name="Trazado 3154" d="M246.337,36.947a2.656,2.656,0,0,0,3.575-1.153,31.768,31.768,0,0,0-3.8-34.781A2.656,2.656,0,1,0,242.023,4.4a26.461,26.461,0,0,1,3.164,28.974,2.656,2.656,0,0,0,1.15,3.575Zm0,0" transform="translate(-170.668 -0.001)" fill="#bdd63f"/>
    </g>
  </g>
</svg>
