<svg xmlns="http://www.w3.org/2000/svg" width="168" height="120" viewBox="0 0 168 120">
    <defs>
        <style>
            .prefix__cls-2{fill:#67bc47}
        </style>
    </defs>
    <g id="prefix__btn_ev_carro_atras" transform="translate(.241)">
        <g id="prefix__Rectángulo_1843" data-name="Rectángulo 1843" transform="translate(-.241)" style="stroke:#67bc47;fill:none">
            <rect width="168" height="120" rx="4" style="stroke:none"/>
            <rect width="167" height="119" x=".5" y=".5" rx="3.5" style="fill:none"/>
        </g>
        <g id="prefix__Grupo_1933" data-name="Grupo 1933" transform="translate(28.76 19.337)">
            <path id="prefix__Trazado_2567" d="M644.209 906.014l-.022-.009a.376.376 0 0 1-.106-.046l-.018-.01c-.063-.032-.125-.067-.184-.1-.032-.02-.064-.041-.095-.063l-.054-.04c-.059-.048-.113-.095-.164-.145s-.1-.1-.147-.158l-.036-.043a.745.745 0 0 1-.057-.077l-.012-.017a3.341 3.341 0 0 1-.257-.728 9.244 9.244 0 0 1-.141-2.438c.008-.276.017-.562.017-.839 0-1.076-.012-2.153-.021-3.23-.018-2.094-.037-4.258 0-6.386.033-2.034.02-4.1.007-6.1-.01-1.531-.021-3.115-.01-4.673a11.835 11.835 0 0 0-.562-3.114c-.127-.466-.259-.949-.362-1.424a29.167 29.167 0 0 1-.7-7.6 9.179 9.179 0 0 1 1.565-4.423 2.1 2.1 0 0 0 .325-1.276 14.39 14.39 0 0 1 1.776-7.326c.264-.525.49-1.083.709-1.622.088-.216.175-.432.265-.646.02-.048.046-.1.072-.147.051-.1.114-.216.093-.279a.165.165 0 0 0-.09-.08.546.546 0 0 0-.237-.045.827.827 0 0 0-.37.083 6.2 6.2 0 0 1-3.057.679c-.589 0-1.188-.047-1.767-.092l-.359-.027a5.5 5.5 0 0 1-3.741-1.814 3.733 3.733 0 0 1-.638-3.856c.322-.952 1.243-1.452 2.737-1.488.322-.008.615-.012.894-.012a14.822 14.822 0 0 1 5.055.721 2.108 2.108 0 0 1 1.51 1.875c.043.4.117.62.381.62s.39-.156.5-.62c.513-2.188 1.1-4.4 1.675-6.531l.109-.408c.621-2.321 1.356-4.643 2.067-6.888q.393-1.24.781-2.482l.115-.372a24.542 24.542 0 0 1 2.3-5.688 9.365 9.365 0 0 1 2.917-3.1 3.343 3.343 0 0 1 1.813-.481c1.156-.014 2.328-.1 3.462-.189.774-.059 1.573-.119 2.363-.156l2.024-.1c2.621-.124 5.332-.253 8-.329 2.7-.077 5.454-.1 8.113-.127l1.956-.019 1.355-.015c2.508-.027 5.1-.055 7.653-.055h1.127c1.433 0 2.89.037 4.3.068s2.894.063 4.34.068c3.136.009 6.5.107 10.917.318l.9.042c2.021.093 4.11.19 6.158.438a6.893 6.893 0 0 0 .827.048c.24 0 .491-.011.747-.033.094-.008.188-.012.281-.012a4.177 4.177 0 0 1 2.886 1.408c2.229 2.169 3.258 5.032 4.121 7.779.255.813.522 1.637.78 2.434.39 1.2.794 2.45 1.166 3.684q.215.712.432 1.422a91.015 91.015 0 0 1 2.456 9.217c.074.386.18.6.522.6h.032c.264-.01.373-.172.366-.541a1.911 1.911 0 0 1 1.35-1.875 8.41 8.41 0 0 1 2.7-.583c.332-.034.676-.069 1.01-.119a8.287 8.287 0 0 1 1.234-.088 12.586 12.586 0 0 1 1.851.151c1.671.245 2.443 1.256 2.36 3.09-.1 2.23-2.373 3.592-4.441 3.913a12.782 12.782 0 0 1-1.979.143c-.65 0-1.352-.039-2.209-.121a2.32 2.32 0 0 1-.917-.345c-.115-.064-.224-.124-.337-.175a.883.883 0 0 0-.336-.1.371.371 0 0 0-.277.146c-.107.111-.079.15.014.28a.815.815 0 0 1 .1.169c.282.694.61 1.385.927 2.054a20.665 20.665 0 0 1 1.622 4.191 8.149 8.149 0 0 1 .247 2.409 4.775 4.775 0 0 0 .781 2.992 8.8 8.8 0 0 1 1.232 5.1 48.957 48.957 0 0 1-1.43 9.765 13.916 13.916 0 0 0-.2 3.418c.013.514.027 1.045.013 1.57-.053 2.028-.026 4.093 0 6.089.011.816.021 1.632.027 2.448s.016 1.653.025 2.48c.024 2.051.05 4.171 0 6.257.085 2.071-.532 3.538-1.57 3.729h-.024q-1.4.011-2.8.015h-2.368c-1.861 0-3.818 0-6.157-.013h-.127a1.445 1.445 0 0 1-1.078-.417 2.376 2.376 0 0 1-.522-1.644c.029-2.607.014-5.247 0-7.8q-.011-2-.017-3.994c0-.687-.147-.762-.722-.762h-.022c-4.6.02-9.269.029-13.787.038l-3.456.007H677.06c-1.584 0-2.863-.007-4.026-.022h-.056c-.606 0-.9.115-1.133.83a4.171 4.171 0 0 1-4.195 3.133h-.094a4.265 4.265 0 0 1-4.2-3.162 1.339 1.339 0 0 1-.034-.253c-.024-.339-.059-.548-.453-.548h-.028c-.648.017-1.34.025-2.178.025-.587 0-1.174 0-1.76-.008l-1.08-.006a.436.436 0 0 0-.315.086.415.415 0 0 0-.084.3c.009 2.968.015 6.052.017 9.167 0 .311.011.63.022.939a11.082 11.082 0 0 1-.09 2.385c-.005.029-.008.072-.012.123a1.539 1.539 0 0 1-1.113 1.551h-.036l-.991.008c-2.845.017-6.07.037-9.264.045h-1.748zm6.705-1.463c.67 0 1.258.01 1.8.031.151.006.464.013.844.013a8.975 8.975 0 0 0 2.391-.187c.341-.151.406-.41.405-.836v-2.417c0-1.27 0-2.584-.007-3.875-.005-.6-.028-1.21-.05-1.8a33.2 33.2 0 0 1-.007-3.476.779.779 0 0 0-.076-.524c-.065-.069-.2-.075-.388-.075h-.238c-.275 0-.556.013-.828.026s-.56.026-.841.026a6.123 6.123 0 0 1-.825-.05 1.3 1.3 0 0 0-.173-.012 1.548 1.548 0 0 0-1.1.6 3.414 3.414 0 0 1-2.377 1.09 3.014 3.014 0 0 1-2.192-1.02 5.221 5.221 0 0 1-1.574-2.673 17.725 17.725 0 0 0-1.158-3.339c-.142-.335-.287-.679-.425-1.023v18.448c0 .542.033.9.479 1.017a9.014 9.014 0 0 0 1.779.1c.313 0 .591 0 .765-.007h.167c.592 0 1.195-.009 1.778-.017.603-.012 1.232-.02 1.851-.02zm76.032-.043c.211 0 .517.019.842.038.363.022.738.045 1.024.045a2.506 2.506 0 0 0 .293-.013 8.664 8.664 0 0 1 1.083-.058c.272 0 .548.007.815.015s.54.015.808.015h.032c.359 0 .718 0 1.076-.008.4 0 .809-.008 1.213-.008.317 0 .635 0 .952.009l.345.01c.238.008.484.016.758.016.135 0 .276 0 .425-.007a1.7 1.7 0 0 0 1.257-.415 2.242 2.242 0 0 0 .326-1.66c.017-2-.006-4.018-.028-5.974-.012-1.078-.025-2.155-.03-3.232-.011-2.036-.009-4.033-.006-6.147V884.7a.7.7 0 0 0-.187.261 18.572 18.572 0 0 1-.9 2.835c-.214.569-.435 1.157-.614 1.746a5.12 5.12 0 0 1-1 1.969 3.777 3.777 0 0 1-2.771 1.551 2.98 2.98 0 0 1-1.987-.834c-.706-.625-3.256-.758-4.216-.808-.181-.009-.321-.017-.406-.024h-.036a.242.242 0 0 0-.2.083.249.249 0 0 0-.059.177 8.894 8.894 0 0 1 .069 1.774c-.009.321-.019.653-.007.977.046 1.286.043 2.594.039 3.859V901.073c0 .879-.005 1.787.013 2.679.01.522.242.775.709.775a1.484 1.484 0 0 0 .167-.01 1.8 1.8 0 0 1 .201-.01zm-59.117-17.073c-.057 0-.114 0-.171.007a3.341 3.341 0 0 0-3.371 3.4 3.446 3.446 0 0 0 1 2.42 2.971 2.971 0 0 0 2.123.935c.079 0 .159 0 .24-.01h.063a3.3 3.3 0 0 0 3.252-3.3 3.53 3.53 0 0 0-1.061-2.457 3.005 3.005 0 0 0-2.075-.996zm60.38 2.814a4.246 4.246 0 0 1 3.478 1.215 1.351 1.351 0 0 0 1 .475 2.083 2.083 0 0 0 1.5-.839 9.536 9.536 0 0 0 1.566-3.19c.1-.278.191-.556.293-.831.077-.209.171-.417.261-.618a2.9 2.9 0 0 0 .384-1.933l-.032-.142c-.087-.4-.158-.641-.5-.681-.794-.091-1.6-.206-2.376-.317-1.462-.208-2.973-.424-4.472-.492l-.626-.029c-1.217-.057-2.476-.116-3.711-.116h-1.326a2.732 2.732 0 0 0-1.911.568 2.979 2.979 0 0 1-1.925.759 3.456 3.456 0 0 1-2.2-.9 2.069 2.069 0 0 0-1.348-.459c-.443-.02-.92-.029-1.459-.029-.581 0-1.172.011-1.744.022s-1.165.022-1.749.022h-.492a1.15 1.15 0 0 0-1.051.48 4.74 4.74 0 0 1-1.384 1.144 11.33 11.33 0 0 1-5.805 1.186l-.52.013c-1.676.047-3.51.07-5.608.07-1.856 0-3.743-.017-5.567-.034q-1.785-.017-3.569-.029h-.623c-.658 0-1.317 0-1.975.01s-1.318.01-1.978.01a52.819 52.819 0 0 1-6.1-.285 6.693 6.693 0 0 1-4.084-1.7c-.087-.086-.169-.184-.248-.278a1.219 1.219 0 0 0-.962-.594h-.039c-.378.013-.785.019-1.245.019-.5 0-1.007-.008-1.511-.015s-1.005-.014-1.508-.014h-.181c-1.3 0-2.612.017-3.886.029q-1.505.014-3.011.025H655.681a65.675 65.675 0 0 0-9.086.937 1.512 1.512 0 0 0-1.109.568 1.175 1.175 0 0 0 0 .992c.139.4.272.815.4 1.214a20.331 20.331 0 0 0 1.491 3.747l.07.125a2.766 2.766 0 0 0 1.226 1.365 2.23 2.23 0 0 0 .875.2 2.078 2.078 0 0 0 1.538-.792 2.021 2.021 0 0 1 1.636-.851H658.064c1.871 0 3.3.013 4.635.043h.028c.331 0 .478-.134.544-.5a4.419 4.419 0 0 1 3.433-3.331 5.521 5.521 0 0 1 .916-.079 4.408 4.408 0 0 1 4.325 3.37c.1.349.162.5.594.5h.032c.679-.013 1.4-.018 2.262-.018q1 0 2 .007c.667 0 1.334.007 2 .007.874 0 1.6-.006 2.285-.019.92-.018 1.9-.026 3-.026 1.368 0 2.76.013 4.105.026q1.492.014 2.983.023c1.313.006 2.648.02 3.94.033 1.712.018 3.483.036 5.224.036 1.331 0 2.521-.01 3.64-.032 1.858-.036 3.746-.04 5.573-.044 2.02 0 4.109-.008 6.164-.056.832-.02 1.711-.029 2.688-.029 1.426 0 2.876.02 4.277.04s2.85.04 4.275.04H727.813zm-40.562-5.506c1.016 0 2.049.018 3.048.035s2.029.036 3.043.036c.546 0 1.042-.005 1.519-.016.409-.009.848-.013 1.343-.013.553 0 1.105.006 1.658.011s1.1.011 1.656.011a35.012 35.012 0 0 0 4.827-.27l.293-.04a6.107 6.107 0 0 0 3.264-1.1c2.05-1.723 2.944-4.054 3.822-6.7.08-.24.051-.317.035-.34-.044-.06-.237-.06-.341-.06h-.434c-.549 0-1.1-.007-1.646-.013s-1.1-.014-1.644-.014c-.388 0-.736 0-1.065.01-.431.009-.879.014-1.37.014-.941 0-1.9-.017-2.824-.033-.868-.016-1.765-.031-2.647-.033h-2.232q-2.545 0-5.09.006-2.212 0-4.424.007h-15.909v.06h-2.405c-.07 0-.282 0-.33.063-.026.035-.043.13.029.389a20.282 20.282 0 0 0 2.06 4.625 5.347 5.347 0 0 0 2.251 2.354 10.633 10.633 0 0 0 4.24.953c2.04.058 3.877.086 5.616.086.833 0 1.656-.007 2.447-.02q.605-.009 1.21-.009zm32.255-5.866a2.39 2.39 0 0 0-2.335 2.352 1.687 1.687 0 0 0 .52 1.207 2.471 2.471 0 0 0 1.68.822 2.2 2.2 0 0 0 1.639-.672 1.966 1.966 0 0 0 .529-1.49 2.265 2.265 0 0 0-.673-1.6 1.954 1.954 0 0 0-1.352-.62l-.007-.137zm-55.712-2.683c-1.935 0-3.9.015-5.807.03-1.692.013-3.441.027-5.162.03a37.474 37.474 0 0 0-6.356.74l-.885.154a.728.728 0 0 0-.612.9 26.446 26.446 0 0 1 .192 3.069c.008.36.017.72.03 1.08.028.747.078.773.31.773a3.785 3.785 0 0 0 .562-.07 57.854 57.854 0 0 1 8.525-.9c1.8-.029 3.742-.042 6.111-.042q2.2 0 4.409.01 2.131.007 4.262.01v-.04l.127-.016.154-.024a2.211 2.211 0 0 1 .364-.04h.141a1.96 1.96 0 0 0 .564-.042 3.028 3.028 0 0 0-.262-.542l-.024-.045a20.658 20.658 0 0 1-1.668-3.783c-.023-.077-.044-.161-.067-.247-.149-.58-.3-.99-.855-.99h-.056c-.181.008-.375.013-.593.013-.249 0-.5-.005-.747-.011-.206 0-.412-.009-.618-.01q-1.021-.008-2.039-.008zm59.653 5.773c.391.006.781.009 1.171.012 1.439.013 2.926.026 4.391.137 2.388.182 4.692.515 6.632.816a1.523 1.523 0 0 0 .228.022c.136 0 .277 0 .281-.43.012-1.128.071-2.273.127-3.381.026-.519.053-1.038.075-1.557.011-.251-.1-.29-.4-.366l-.1-.025a29.665 29.665 0 0 0-4.762-.794c-1.687-.163-3.387-.185-4.829-.185-.5 0-1.009 0-1.514.006s-1.012.006-1.519.006c-.532 0-1 0-1.428-.01h-.051l-.03-.027a.255.255 0 0 1-.022.019.347.347 0 0 1-.215.093c-1.021-.06-2.109-.089-3.342-.089-1.277 0-2.576.031-3.833.061l-.947.022c-.391.009-.591.062-.674.341a22.178 22.178 0 0 1-2.031 4.749c-.2.342-.16.414-.158.417.022.038.24.041.358.042h.111q.917.02 1.833.045c1.063.027 2.162.056 3.243.071h.023a.445.445 0 0 0 .346-.1.51.51 0 0 0 .043-.4 2.661 2.661 0 0 1 .448-2.116 3.008 3.008 0 0 1 2.457-1.277 3.859 3.859 0 0 1 1.279.233 2.638 2.638 0 0 1 1.821 2.786c-.073.415-.058.687.044.809a.39.39 0 0 0 .318.1c.086 0 .179-.008.278-.017s.216-.019.325-.019zm14.452-12.916a.523.523 0 0 0-.054.246c-.065.814-.143 1.64-.218 2.439-.143 1.521-.291 3.094-.357 4.643-.026.6-.065 1.2-.1 1.791a35.075 35.075 0 0 0-.092 4.527 16.913 16.913 0 0 0 .705-2.5c.061-.27.122-.538.187-.8a56.891 56.891 0 0 0 1.312-7.447 2.5 2.5 0 0 0-1.088-2.743l-.048-.03a.8.8 0 0 0-.244-.123zm-94.668.045a.4.4 0 0 0-.05 0 3.6 3.6 0 0 0-1.2 1.7c.028.3.053.61.078.916.072.883.146 1.8.3 2.677a56.533 56.533 0 0 0 1.927 8.167.592.592 0 0 0 .021-.141 32.487 32.487 0 0 0-.118-3.506c-.041-.582-.083-1.184-.108-1.778-.074-1.74-.226-3.5-.373-5.208-.067-.78-.137-1.586-.2-2.379-.033-.444-.211-.444-.278-.444zm14.639 3.349h-4.853a33.831 33.831 0 0 0-7.728 1.153c-.21.05-.6.226-.545.53a5.854 5.854 0 0 1 .055.977 5.38 5.38 0 0 0 .053.934c.054.309.167.368.356.368a1.236 1.236 0 0 0 .254-.032 35.7 35.7 0 0 1 7.129-.927c2.139-.013 4.458-.02 7.089-.02s5.288.006 7.932.013l5.98.012h2.567q6.518.007 13.037.011h12.682q7.235 0 14.47-.007H722.22c1.868 0 3.3-.008 4.656-.027h.619a41.572 41.572 0 0 1 8.961.956.52.52 0 0 0 .11.013.257.257 0 0 0 .259-.25c.1-.69.138-1.4.176-2.092v-.055c.007-.133-.027-.3-.357-.375a36.7 36.7 0 0 0-8.462-1.192H715.096a.374.374 0 0 1-.324-.129.412.412 0 0 1 .01-.374c.091-.215.057-.27.055-.273s-.027-.031-.16-.031h-.239c-1.081-.008-2.233-.015-3.389-.015-.886 0-1.687 0-2.449.012-1.26.014-2.541.041-3.78.067-1.774.038-3.608.077-5.412.077-.679 0-1.308-.005-1.922-.016-.646-.012-1.339-.017-2.119-.017-.892 0-1.8.007-2.676.014s-1.785.014-2.678.014c-.94 0-1.766-.008-2.525-.025-1.2-.026-2.459-.039-3.864-.039-1.811 0-3.633.022-5.2.043q-.481.006-.961.006c-1.13 0-2.278-.023-3.389-.046s-2.257-.046-3.385-.046c-1.171 0-2.2.025-3.146.077h-.02a.985.985 0 0 1-.236-.042.926.926 0 0 0-.2-.038.083.083 0 0 0-.024 0 .839.839 0 0 0 .074.317.309.309 0 0 1-.038.291.691.691 0 0 1-.538.233.516.516 0 0 1-.148-.02 1.545 1.545 0 0 0-.452-.056h-.363q-3.672.026-7.333.026zm-10.255-4.6a13.245 13.245 0 0 0-2.432.176c-.768.143-.919.343-.848 1.127.026.292.056.584.086.875.078.766.159 1.559.175 2.342.01.506.135.506.255.506a1.21 1.21 0 0 0 .3-.05 35.534 35.534 0 0 1 9.322-1.147q.373 0 .747.006c1.24.02 2.529.029 3.94.029 2.055 0 4.072-.021 5.6-.039a2.625 2.625 0 0 1 .358.031 2.628 2.628 0 0 0 .355.032 1.026 1.026 0 0 0 .259-.031 4.986 4.986 0 0 1-3.68-2.742c-.051-.091-.1-.189-.149-.29-.217-.441-.422-.859-.924-.859h-.056c-.193.011-.4.017-.621.017-.336 0-.675-.012-1-.025s-.661-.024-.991-.024h-.126c-1.078.011-2.174.013-3.233.015-1.747 0-3.552.007-5.327.049q-.31.007-.622.007h-.694c-.231 0-.464-.006-.695-.006zm75.471 3.843c2.254 0 3.99 0 5.629.015a26.315 26.315 0 0 1 2.748.21l.152.017a34.652 34.652 0 0 1 4.544.85 1.131 1.131 0 0 0 .262.038c.162 0 .289-.035.317-.471l.039-.636c.043-.725.088-1.475.175-2.208.074-.627.038-.965-.123-1.169s-.48-.317-1.1-.388a17.874 17.874 0 0 0-2.057-.1c-.382 0-.764.006-1.146.013s-.768.013-1.151.013h-.049c-1.806 0-3.642-.018-5.418-.033-1.8-.015-3.667-.031-5.5-.033a.959.959 0 0 0-1.011.569 5.319 5.319 0 0 1-3.609 3.285 4.162 4.162 0 0 0 .567.029h3.592zm-34.207-.707q1.743 0 3.486.011 1.727.008 3.454.011h15.013v-.116h.137c.355 0 .711 0 1.066-.005s.712-.005 1.068-.005c.509 0 .93.006 1.323.017h.163a3.993 3.993 0 0 0 3.558-2.009 22.2 22.2 0 0 0 2.229-5.209c.089-.283.063-.4.026-.454s-.118-.075-.242-.075a1.432 1.432 0 0 0-.239.024c-.814.139-1.668.256-2.612.358l-1.424.155c-1.82.2-3.7.405-5.559.555-1.219.1-2.461.169-3.661.237-1.48.084-3.01.171-4.51.31-1.732.161-3.494.23-5.2.3-1.421.057-2.891.114-4.333.225-.623.048-1.276.071-1.994.071-1.234 0-2.488-.071-3.7-.139l-.444-.025c-.982-.055-1.981-.1-2.948-.146-1.174-.055-2.388-.112-3.581-.182-2.262-.134-4.573-.292-7.065-.483-1.666-.127-3.556-.272-5.383-.488-.7-.083-1.425-.149-2.121-.212a41.2 41.2 0 0 1-4.107-.515 1.173 1.173 0 0 0-.222-.024.3.3 0 0 0-.255.09.652.652 0 0 0 .023.527l.07.213a20.171 20.171 0 0 0 2.051 4.809c.913 1.406 1.857 2.043 3.059 2.065 1.759.032 3.548.041 5.278.051 1.6.008 3.253.017 4.879.044 1.427.023 2.952.034 4.8.034q1.9 0 3.8-.01t3.8-.01zm-45.818-5.228a.472.472 0 0 1-.075.154 4.639 4.639 0 0 0-.823 2.184c-.052.265-.105.539-.174.805a.272.272 0 0 0 .047.126c.008.008.011.008.015.008a3.021 3.021 0 0 0 1.211-1.806v-.024l.01-.025a.838.838 0 0 0-.031-.494 1.432 1.432 0 0 1-.034-.77.441.441 0 0 0-.136-.186zm95.1.493c-.2 1.655-.2 1.655.527 2.176.159.114.346.248.57.423a5.826 5.826 0 0 0-1.038-3.084c-.026.175-.046.339-.064.485zm-88.132-14.557h-.105c-.314.026-.633.026-.942.026h-.131c-.784 0-1.176 0-1.4.174s-.333.559-.551 1.329a1.479 1.479 0 0 1-.112.265c-.018.036-.037.073-.053.109l-.6 1.343q-.661 1.48-1.329 2.956a14.509 14.509 0 0 0-.934 5.742l-.019.637c.045.888.173 1.92.3 2.9.035.272.125.272.164.272a.514.514 0 0 0 .18-.045 6.7 6.7 0 0 1 2.366-.343h.027c.627-.015.728-.244.717-.752a33.029 33.029 0 0 1 .729-6.862 66.066 66.066 0 0 1 1.879-7.2c.052-.17.123-.4.06-.487-.037-.041-.124-.065-.25-.065zm84.649 15.332a6.9 6.9 0 0 1 2.125.332.922.922 0 0 0 .242.057c.038 0 .118 0 .145-.323.023-.28.049-.559.075-.837a15.451 15.451 0 0 0 .065-3.669v-.026a11.9 11.9 0 0 0-1.321-5.594c-.161-.344-.335-.693-.5-1.03a14.165 14.165 0 0 1-1.387-3.559.842.842 0 0 0-.932-.783c-.065 0-.132 0-.2.01-.345.031-.69.036-1.023.041-.22 0-.448.007-.671.018h-.081c-.11 0-.262 0-.306.067a.379.379 0 0 0 .018.288c.52 1.611.943 3.045 1.292 4.386a39.263 39.263 0 0 1 1.47 10.174.5.5 0 0 0 .111.366.413.413 0 0 0 .3.1h.065c.167-.013.339-.018.509-.018zm-82.22-18.031a.212.212 0 0 0-.087.009 2.2 2.2 0 0 1-.37.879 2.825 2.825 0 0 0-.3.6c-.63 1.989-1.193 3.785-1.7 5.638a41.87 41.87 0 0 0-1.6 10.421c0 .234.02.371.077.429s.158.073.369.073h.049c.765-.01 1.606-.015 2.646-.015h6.298q1.27 0 2.539.007h.223c.1 0 .327 0 .368-.066.015-.024.049-.132-.139-.516a12.223 12.223 0 0 1-.743-2.2q-.073-.273-.149-.544a.886.886 0 0 0-.833-.765 7.732 7.732 0 0 1-1.141-.218c-1.906-.489-4.1-1.4-4.152-4.147v-.148a2.606 2.606 0 0 0-.022-.441c-.114-.67-.192-1.356-.268-2.019-.088-.766-.178-1.558-.323-2.323-.111-.583-.175-1.18-.238-1.758a13.705 13.705 0 0 0-.493-2.765.228.228 0 0 1 .005-.144zm79.858 18.04h.257c.16 0 .276 0 .281-.448a30.5 30.5 0 0 0-.455-5.3 53.791 53.791 0 0 0-2.455-9.366c-.075-.21-.146-.421-.216-.633a7.677 7.677 0 0 0-1.077-2.331 2.444 2.444 0 0 0-.2.968c-.009.136-.019.276-.036.415-.109.839-.224 1.677-.339 2.515-.27 1.967-.55 4-.741 6.01a3.529 3.529 0 0 1-1.87 2.966 10.279 10.279 0 0 1-3.416 1.088.794.794 0 0 0-.763.632l-.123.389c-.258.821-.524 1.669-.851 2.48-.126.311-.107.443-.07.5.07.1.324.113.556.113h11.509zm-75.047-18.85c-.185 0-.209.032-.209.033s-.03.069.089.365a19.943 19.943 0 0 1 .989 3.122c.722 3.254 1.4 6.566 2.094 9.955a.8.8 0 0 0 .806.735c.834.127 1.688.212 2.514.295.592.059 1.2.12 1.8.2 2.1.266 4.239.441 6.309.61.881.072 1.793.147 2.689.227 3.237.291 6.536.458 9.727.62l2.315.119c1.035.055 2.108.081 3.283.081 2.323 0 4.656-.106 6.911-.209 2.851-.13 5.743-.332 8.54-.528l1.907-.133c4.557-.313 9.188-.836 13.172-1.3a.669.669 0 0 0 .665-.611c.117-.553.246-1.112.371-1.653s.258-1.116.376-1.676l.176-.835c.336-1.588.683-3.23.977-4.853a21.309 21.309 0 0 1 1.151-4.222l.009-.023a1.99 1.99 0 0 0 .1-.288 2.4 2.4 0 0 0-.38-.046c-.71-.057-1.469-.082-2.463-.082-.409 0-.819 0-1.228.008s-.82.008-1.23.008c-.256 0-.512 0-.768-.006-2.356-.039-5.288-.086-8.1-.086q-.912 0-1.824.007c-6.095.047-12.313.15-17.662.243q-.528.009-1.056.009c-1.585 0-3.2-.056-4.759-.111s-3.175-.111-4.759-.111h-.529c-1.6 0-3.222-.014-4.793-.028s-3.194-.028-4.791-.028c-2.261 0-4.13.029-5.882.091-.417.015-.863.021-1.445.021h-1.532c-.615 0-1.093.007-1.551.022h-.034a1.585 1.585 0 0 0-.348-.034 5.52 5.52 0 0 0-.633.051 6.388 6.388 0 0 1-.743.057h-.142zm-2.552.056l-.305.036c-.239.03-.486.061-.733.068a.383.383 0 0 0-.292.1.515.515 0 0 0-.047.4c.431 2.9.845 6 1.3 9.748l.018.15a2.715 2.715 0 0 0 .662 1.784 6.721 6.721 0 0 0 3.947 1.637h.016l.022.008a.309.309 0 0 0 .1.025h.016a.475.475 0 0 0-.027-.2c-.247-.878-.408-1.792-.564-2.676-.114-.644-.231-1.31-.38-1.955-.2-.866-.378-1.752-.549-2.608a46.134 46.134 0 0 0-1.168-4.9c-.389-1.262-.513-1.505-2.015-1.616zm71.182 0a1.383 1.383 0 0 0-1.382.99 15.255 15.255 0 0 0-.657 2.437c-.053.25-.106.5-.162.749-.166.73-.316 1.477-.461 2.2-.193.956-.392 1.944-.629 2.909-.263 1.072-.441 2.143-.629 3.276-.072.431-.145.876-.224 1.319a7.493 7.493 0 0 0 3.641-1.227 2.042 2.042 0 0 0 1.014-1.413c.34-2.971.72-6.157 1.193-9.339.133-.9.213-1.435.032-1.65s-.7-.226-1.652-.249zm-86.5-1.043a11.242 11.242 0 0 0-1.628.11 2.222 2.222 0 0 0-1.341.6 2.02 2.02 0 0 0-.392 1.736 3.185 3.185 0 0 0 1.419 2.3 8.007 8.007 0 0 0 3.9.947c.191 0 .388-.006.586-.016a1.035 1.035 0 0 1 .17-.01H642.834a2.637 2.637 0 0 0 .462-.036c1.476-.269 1.6-.391 1.835-1.856a7.757 7.757 0 0 0 .075-.872c.006-.13.013-.26.022-.389a1.644 1.644 0 0 0-1.107-1.895l-.291-.1a5.452 5.452 0 0 0-1.18-.321 26.007 26.007 0 0 0-2.857-.196zm102.492-.069c-.241.013-.478.023-.713.032a11.28 11.28 0 0 0-3.007.388l-.21.065c-.691.213-1.405.433-1.52 1.155a6.453 6.453 0 0 0 .312 3.3 1.015 1.015 0 0 0 .863.6 8.915 8.915 0 0 0 1.759.16c.676 0 1.338-.055 2.014-.117a5.3 5.3 0 0 0 3.145-1.481 2.726 2.726 0 0 0 .68-2.375 1.843 1.843 0 0 0-.948-1.46 3.969 3.969 0 0 0-1.6-.233 7.359 7.359 0 0 1-.777-.032zm-95.97 3.3a.257.257 0 0 0-.294.241c-.034.177-.061.356-.089.534-.025.163-.05.326-.079.488-.008.04-.018.08-.029.119-.044.164-.049.181.105.228a.786.786 0 0 0 .224.041c.1 0 .182-.034.23-.2a7.56 7.56 0 0 0 .161-.758c.022-.12.044-.246.07-.381a.444.444 0 0 1-.031-.139c-.011-.107-.018-.139-.11-.156a.9.9 0 0 0-.161-.015zm89.591 1.568a.3.3 0 0 1 .173.048c.088-.062.121-.139.043-.386v-.019c-.009-.053-.018-.119-.028-.195a6.866 6.866 0 0 0-.147-.8l-.01-.04c-.049-.194-.081-.255-.182-.255a.472.472 0 0 0-.135.025c-.21.065-.251.209-.242.284a8.24 8.24 0 0 0 .207 1.012l.077.316a.114.114 0 0 0 .015.038h.018a.609.609 0 0 0 .086-.01.833.833 0 0 1 .117-.016zm-86.2-1.112a5.155 5.155 0 0 1 .893.067.775.775 0 0 0 .133.012.475.475 0 0 0 .491-.449 6.145 6.145 0 0 1 .735-1.754c.049-.089.1-.178.145-.267a1.514 1.514 0 0 1 1.357-.919 10.394 10.394 0 0 0 1.161-.1l.331-.041a5.411 5.411 0 0 1-1.031-4.618c.234-1.15.4-2.336.562-3.483.132-.939.268-1.91.441-2.859.16-.88.314-1.76.468-2.641.5-2.877 1.023-5.851 1.757-8.737a.582.582 0 0 1 .113-.2.422.422 0 0 0 .069-.109.265.265 0 0 0-.03-.026.172.172 0 0 0-.1-.039c-.069 0-.152.076-.233.149-.038.035-.077.07-.116.1a9.684 9.684 0 0 0-3.062 4.424c-.912 2.481-1.7 5.058-2.46 7.549l-.491 1.6c-.821 2.663-1.41 4.709-1.909 6.633-.389 1.5-.695 3.045-.991 4.541l-.144.725c-.031.157-.051.282 0 .346.036.046.136.1.413.117.111.006.223.008.334.008.192 0 .384-.006.576-.013s.389-.014.58-.014zm78.144-3.47c1.549 0 1.82.583 2.36 1.745l.216.462c.555 1.192.6 1.289 1.583 1.289.157 0 .335 0 .539-.009h1.281c.139 0 .271 0 .312-.049.021-.024.051-.1.016-.313a53.559 53.559 0 0 0-1.424-6.166c-.177-.621-.347-1.244-.518-1.868-.451-1.647-.917-3.349-1.491-4.981-.358-1.016-.678-2.063-.988-3.076a35.536 35.536 0 0 0-2.517-6.609 10.2 10.2 0 0 0-2.256-2.907l-.035-.031a.489.489 0 0 0-.276-.16.2.2 0 0 0-.089.022c-.1.048-.1.06-.029.214a.7.7 0 0 1 .066.177l.013.078a12.6 12.6 0 0 0 .376 1.723 36.93 36.93 0 0 1 1.089 4.9l.109.621c.269 1.518.523 3.064.769 4.559.288 1.751.585 3.562.908 5.337.294 1.616.466 3.186-.642 4.62-.028.036-.06.072-.092.107-.134.149-.163.2-.116.291a.132.132 0 0 0 .138.073 1.065 1.065 0 0 0 .16-.018 1.347 1.347 0 0 1 .153-.019c.133-.007.261-.01.382-.01zm-50.109-.173q.736 0 1.471.007c1.442.016 2.908.048 4.326.08 2 .044 4.062.09 6.093.09h.357c2.8-.007 5.653-.058 8.409-.108 1.841-.033 3.745-.067 5.619-.088.925-.01 1.916-.015 3.118-.015h5.305c.057 0 .122.008.2.014.2.015.463.036.737.036h.094c1.245-.023 2.486-.035 3.686-.035 2.569 0 5.093.054 7.5.159h.135a1.942 1.942 0 0 0 1.8-1.056c.115-.194.112-.247.111-.256a.875.875 0 0 0-.289-.044c-1.07-.068-2.157-.148-3.208-.225-1.281-.095-2.606-.192-3.909-.268-2.689-.156-5.426-.276-8.073-.393l-.361-.016q-1.549-.068-3.1-.145c-2.76-.134-5.613-.272-8.42-.317-2.423-.038-5.015-.057-7.921-.057q-1.921 0-3.842.009c-2.967.014-5.982.1-8.9.176l-2.855.076c-1.629.041-3.284.134-4.885.224-1.375.078-2.8.157-4.2.2-1.165.038-2.349.126-3.494.21-.847.062-1.722.127-2.585.172-.625.032-1.26.093-1.874.152-.914.087-1.859.177-2.8.177-.232 0-.46-.006-.677-.016h-.005a.132.132 0 0 0-.1.029.215.215 0 0 0-.009.165 1.916 1.916 0 0 0 1.561 1.173l.26-.009c1.107-.04 2.252-.082 3.379-.085q2.355-.007 4.709-.006h7.376c.841 0 1.681-.008 2.522-.015.903.014 1.827.007 2.736.007zm9.954-20.49c-.716 0-1.486 0-2.495.015l-1.311.01c-1.961.013-3.99.027-5.982.176-1.79.133-3.613.2-5.376.259-1.359.047-2.765.1-4.144.177-3.242.19-6.521.462-9.692.725-.69.057-1.149.25-1.3 1.033-.187.945-.346 1.912-.5 2.847-.139.852-.283 1.733-.449 2.6-.342 1.776-.617 3.595-.883 5.354-.208 1.372-.422 2.79-.667 4.18a.674.674 0 0 0 .1.564.661.661 0 0 0 .526.2h.076q1.4-.083 2.794-.175c1.13-.073 2.3-.148 3.447-.213q1.364-.078 2.727-.16c2.651-.158 5.393-.322 8.092-.427 4.416-.172 9.173-.34 14.03-.4 2.164-.026 3.951-.039 5.623-.039 3.664 0 6.876.063 9.819.193 1.311.058 2.644.1 3.933.144 2.538.084 5.163.171 7.742.366 1 .075 2.014.1 3 .126.819.021 1.667.042 2.5.092 1.527.091 3.021.214 4.466.333.586.048 1.154.1 1.7.137.772 0 1.226-.038 1.4-.238.149-.175.124-.53.026-1.124l-.235-1.437c-.184-1.132-.375-2.3-.572-3.452-.516-3.013-1.05-6.129-1.611-9.257a1.354 1.354 0 0 0-1.327-1.268c-.864-.076-1.745-.13-2.6-.182-.711-.043-1.446-.088-2.168-.145-3-.239-6.949-.528-10.906-.63-1.029-.026-2.072-.089-3.081-.15-.952-.058-1.937-.117-2.9-.145-1.252-.037-2.5-.042-3.672-.042h-2.286c-.5 0-1 .008-1.493.016s-1 .016-1.5.016c-.425 0-.8-.006-1.156-.018-1.112-.04-2.319-.058-3.699-.058zm3.6-3.577q-1.273 0-2.547.006c-5.6.025-10.517.1-15.041.24-4.653.141-9.389.385-14.479.748h-.039c-.91.045-.91.045-.961.242l-.071.272c-.175.67-.355 1.363-.507 2.049a.378.378 0 0 0 .02.3.182.182 0 0 0 .149.052.667.667 0 0 0 .147-.019 4.962 4.962 0 0 1 .926-.1c.112 0 .225-.009.337-.017 1.235-.084 2.49-.186 3.7-.285 1.975-.161 4.016-.327 6.028-.421l.19-.009c4.451-.209 9.053-.426 13.586-.526.877-.019 1.815-.028 2.953-.028q1.148 0 2.3.008t2.294.008c1.21 0 2.2-.01 3.124-.032.839-.02 1.725-.03 2.633-.03 3.289 0 6.631.132 9.863.26l.389.015c3.292.13 5.823.257 8.207.411 2.237.144 4.508.325 6.705.5q1.334.106 2.669.21h.11c.134 0 .155-.028.155-.028s.032-.056-.051-.3a12.711 12.711 0 0 1-.553-2.121c-.064-.39-.255-.469-.607-.484-.5-.022-1.006-.034-1.5-.046-.973-.023-1.978-.048-2.962-.146-3.061-.3-6.185-.391-9.206-.476-1.419-.04-2.888-.082-4.331-.145-1.477-.065-2.982-.072-4.437-.079l-1.99.001c-2.359-.014-4.8-.027-7.2-.027z" class="prefix__cls-2" data-name="Trazado 2567" transform="translate(-635.561 -822.05)"/>
            <path id="prefix__Trazado_2568" d="M739.916 902.948c.064-2.909-.01-5.821-.029-8.733-.019-2.847-.1-5.7-.026-8.542a25.361 25.361 0 0 1 .186-5.014 48.56 48.56 0 0 0 1.427-9.738 8.8 8.8 0 0 0-1.21-5.021 4.913 4.913 0 0 1-.8-3.074 8.15 8.15 0 0 0-.244-2.37c-.508-2.219-1.7-4.149-2.542-6.225-.074-.182-.341-.333-.087-.595s.462-.213.769-.074a3.79 3.79 0 0 0 1.211.509 16.638 16.638 0 0 0 4.154-.02c1.766-.275 4.222-1.495 4.326-3.784.076-1.666-.569-2.7-2.243-2.948a10.291 10.291 0 0 0-3.045-.063 13.173 13.173 0 0 0-3.671.691 1.775 1.775 0 0 0-1.27 1.748c0 .217-.013.662-.5.681-.518.019-.627-.364-.693-.705a107.089 107.089 0 0 0-2.885-10.626c-.618-2.048-1.3-4.075-1.946-6.116-.888-2.828-1.908-5.6-4.086-7.722a3.887 3.887 0 0 0-3.06-1.358 7.85 7.85 0 0 1-1.6-.015c-2.342-.284-4.7-.367-7.05-.479-3.635-.173-7.271-.307-10.911-.318-2.88-.008-5.759-.126-8.639-.135-3.377-.011-6.755.033-10.133.068-3.356.035-6.712.051-10.067.146s-6.681.269-10.021.424c-1.944.09-3.88.322-5.829.345a3.249 3.249 0 0 0-1.741.46 9.215 9.215 0 0 0-2.874 3.059 25.933 25.933 0 0 0-2.4 6.028c-.967 3.116-2 6.208-2.847 9.365-.617 2.306-1.238 4.612-1.783 6.935-.1.428-.228.716-.618.725-.43.009-.494-.4-.531-.742a1.962 1.962 0 0 0-1.419-1.761 16.412 16.412 0 0 0-5.9-.7c-.989.024-2.223.25-2.611 1.4a3.581 3.581 0 0 0 .61 3.721 5.353 5.353 0 0 0 3.65 1.769c1.72.129 3.475.341 5.107-.543a.914.914 0 0 1 .733-.04c.335.169.084.454-.011.681-.32.762-.608 1.54-.978 2.278a14.4 14.4 0 0 0-1.761 7.258 2.241 2.241 0 0 1-.346 1.355 9.136 9.136 0 0 0-1.544 4.357 29.3 29.3 0 0 0 .7 7.568 21.812 21.812 0 0 1 .927 4.569c-.025 3.591.062 7.183 0 10.776-.052 3.2.016 6.409.023 9.614a14.037 14.037 0 0 0 .121 3.246 3.273 3.273 0 0 0 .236.681.969.969 0 0 0 .057.079l.007.007.034.041c.044.051.09.1.138.148s.1.092.151.134l.043.031c.029.021.059.041.089.059q.084.053.173.1a.373.373 0 0 0 .1.047l-.015-.006.026.01h1.722q4.632-.011 9.264-.045l.99-.008a1.511 1.511 0 0 0 1.028-1.568 18.239 18.239 0 0 0 .066-3.3q0-4.583-.017-9.166c0-.375.168-.525.536-.523 1.672.007 3.344.033 5.014-.011.732-.019.572.622.649.9a4.128 4.128 0 0 0 4.161 3.062 4.042 4.042 0 0 0 4.068-3.039 1.119 1.119 0 0 1 1.32-.924c2.918.038 5.837.016 8.756.016H707.397q8.621-.018 17.243-.045c.653 0 .88.115.881.9 0 3.928.06 7.856.017 11.784 0 .107-.1 2.033 1.591 1.931q4.262.016 8.524.01 1.4 0 2.8-.015c.987-.187 1.542-1.659 1.463-3.605zm-2.5-53.489c.14-.887 1.076-1.091 1.823-1.329a14.849 14.849 0 0 1 3.765-.427 7.857 7.857 0 0 1 2.427.279c1.279.57 1.447 3.006.3 4.06a5.475 5.475 0 0 1-3.225 1.517 13.139 13.139 0 0 1-3.812-.046 1.152 1.152 0 0 1-.964-.68 6.577 6.577 0 0 1-.311-3.374zm1.811 16.683a6.146 6.146 0 0 1 1.311 3.731c-1.768-1.46-1.668-.58-1.308-3.73zm.148 3.658a2.666 2.666 0 0 1 1.153 2.873 56.806 56.806 0 0 1-1.315 7.464 19.3 19.3 0 0 1-1.118 3.831 48.775 48.775 0 0 1 .151-6.884c.1-2.366.386-4.724.575-7.087.045-.547.27-.373.557-.197zm-17.673 9.35a2.967 2.967 0 0 0-3.582 1 2.539 2.539 0 0 0-.422 2.011c.089.542-.16.658-.549.652-1.693-.024-3.385-.078-5.077-.115-.484-.011-.834.045-.427-.665a21.983 21.983 0 0 0 2.019-4.72c.115-.39.432-.431.8-.439 2.706-.061 5.412-.155 8.118.006.129.008.2-.2.328-.085 3.11.05 6.212-.115 9.3.185a30 30 0 0 1 4.784.8c.33.087.621.113.6.529-.069 1.645-.184 3.288-.2 4.933-.006.579-.261.6-.667.541-2.2-.341-4.4-.645-6.621-.815-1.851-.141-3.7-.124-5.554-.149-.623-.008-1.366.349-1.123-1.033a2.506 2.506 0 0 0-1.724-2.635zm-1.22 4.957a2.462 2.462 0 0 1-2.335-2.176 2.528 2.528 0 0 1 2.479-2.479 2.363 2.363 0 0 1 2.161 2.347 2.192 2.192 0 0 1-2.302 2.309zm-49.85-1.283c-4.975 0-9.952-.057-14.926.022a56.808 56.808 0 0 0-8.5.9c-.939.158-1 .121-1.032-.833a40.475 40.475 0 0 0-.221-4.135.865.865 0 0 1 .724-1.055 43.4 43.4 0 0 1 7.264-.9c4.335-.007 8.671-.082 13.007-.054.649 0 1.3.039 1.951.008.885-.041.953.8 1.115 1.333a20.377 20.377 0 0 0 1.658 3.758c.452.841.465.831-.538.83a3.917 3.917 0 0 0-.5.062c-.001.027 0 .046.001.066zm-.225-5.321c-.149-.54 0-.627.452-.625h2.249v-.06h16.044c3.916 0 7.831-.019 11.747-.011 2.279 0 4.56.1 6.838.053 1.569-.033 3.133.025 4.7.016.41 0 .724-.013.528.58-.835 2.516-1.753 4.988-3.864 6.762a6.765 6.765 0 0 1-3.626 1.167 81.077 81.077 0 0 1-9.5.263c-2.938.064-5.881-.1-8.82-.047-2.691.045-5.381.01-8.069-.066a10.76 10.76 0 0 1-4.294-.966 5.438 5.438 0 0 1-2.312-2.409 20.319 20.319 0 0 1-2.07-4.66zm66.734-.26a41.448 41.448 0 0 0-9.549-.948c-3.378.046-6.756.018-10.135.02q-7.235 0-14.47.007h-12.682q-7.8 0-15.6-.015c-7-.008-14-.048-21 0a35.22 35.22 0 0 0-7.1.924c-.508.108-.7-.039-.773-.446-.109-.629 0-1.271-.108-1.912-.061-.367.313-.6.648-.685a33.606 33.606 0 0 1 7.759-1.157q6.091-.013 12.182 0a2.845 2.845 0 0 1 .862.055c.2.06.647-.077.557-.326-.287-.79.292-.41.525-.422 3.629-.2 7.259.055 10.887.008 3.023-.039 6.049-.07 9.068 0 3.334.074 6.664-.046 10 .014 3.7.066 7.406-.088 11.11-.128 1.944-.021 3.889-.011 5.833 0 .267 0 .73-.114.476.486-.162.383.175.307.377.308H728.856a36.112 36.112 0 0 1 8.542 1.2c.283.068.477.217.461.515-.039.721-.077 1.445-.18 2.159a.4.4 0 0 1-.535.344zm-83.433-27.439a36.137 36.137 0 0 1 .735 4.539c.272 1.434.347 2.9.592 4.345a4.084 4.084 0 0 1 .024.609c.048 2.58 2.014 3.495 4.05 4.017a7.706 7.706 0 0 0 1.12.215 1.02 1.02 0 0 1 .95.863 16.066 16.066 0 0 0 .883 2.717c.407.835 0 .781-.576.777-1.9-.012-3.8 0-5.7 0-1.927 0-3.854-.015-5.78.01-.5.006-.644-.072-.633-.641a42.222 42.222 0 0 1 1.6-10.454c.524-1.9 1.113-3.768 1.706-5.642.168-.53.6-.911.677-1.468.018-.127.15-.121.258-.12.257-.001.07.152.097.234zm2.338-3.227a51.986 51.986 0 0 0 5.335-.313c2.029-.1 4.053-.314 6.082-.382 3.03-.1 6.054-.353 9.082-.429 3.917-.1 7.834-.235 11.755-.252s7.846-.015 11.766.048c3.842.061 7.682.293 11.522.462 2.812.124 5.625.246 8.435.409 2.374.137 4.745.343 7.118.493.443.028.523.106.287.505a2.093 2.093 0 0 1-2.063 1.12c-3.724-.163-7.451-.193-11.178-.124-.423.008-.847-.04-1.034-.049-2.965 0-5.693-.025-8.421.006-4.676.052-9.352.183-14.028.2-3.592.01-7.185-.13-10.778-.169-2.239-.025-4.479.019-6.719.022-4.028 0-8.057-.006-12.085.005-1.2 0-2.406.05-3.608.093a2.046 2.046 0 0 1-1.726-1.279c-.05-.243.049-.376.261-.365zm-.574-1.766c.559-3.172.942-6.371 1.551-9.536.348-1.808.589-3.635.948-5.444a1.329 1.329 0 0 1 1.427-1.143c3.23-.267 6.46-.535 9.7-.725 3.17-.186 6.352-.2 9.517-.437 2.435-.182 4.872-.162 7.3-.186 2.057-.02 4.125-.029 6.188.041 1.4.047 2.8-.016 4.2-.014 1.967 0 3.934-.017 5.9.041 2 .059 3.989.244 5.985.3 3.645.094 7.279.339 10.914.63 1.585.127 3.178.187 4.765.327a1.494 1.494 0 0 1 1.449 1.38c.553 3.083 1.083 6.17 1.612 9.258.279 1.629.539 3.26.807 4.891.221 1.345.075 1.52-1.567 1.52-1.848-.144-4-.341-6.159-.47-1.832-.11-3.672-.079-5.5-.218-3.886-.294-7.781-.339-11.671-.51-5.143-.227-10.29-.217-15.435-.154-4.676.057-9.352.217-14.026.4-3.608.141-7.211.381-10.816.587-2.081.119-4.16.264-6.241.388-.606.032-.951-.323-.845-.925zm6.942 18.96c2.056.4 4.147.48 6.219.725 1.787.212 3.583.351 5.378.488q3.529.27 7.063.483c2.175.129 4.353.208 6.529.329a46.424 46.424 0 0 0 6.121.092c3.173-.244 6.358-.228 9.529-.523 2.717-.252 5.451-.328 8.172-.547 2.331-.188 4.655-.46 6.98-.71.871-.094 1.741-.209 2.6-.357.62-.106.786.12.609.682a22.3 22.3 0 0 1-2.243 5.241 4.126 4.126 0 0 1-3.841 2.07c-1.15-.035-2.3-.007-3.454-.007v.115h-15.15c-2.314 0-4.627-.021-6.94-.022-4.24 0-8.482.055-12.721-.014-3.386-.055-6.772-.033-10.157-.095a3.882 3.882 0 0 1-3.171-2.127 21.05 21.05 0 0 1-2.135-5.054c-.193-.603-.002-.887.615-.767zm-1.205-1.376c-.677-3.322-1.359-6.644-2.093-9.953a19.993 19.993 0 0 0-.982-3.1c-.208-.518-.113-.605.369-.583a13.85 13.85 0 0 1 1.889-.068c1.59-.053 3.063.013 4.529-.039 5.3-.188 10.594-.026 15.89-.035 3.561-.006 7.131.275 10.682.213 5.888-.1 11.775-.2 17.664-.243 3.31-.026 6.617.025 9.926.079 1.9.031 3.8-.08 5.7.072.6.048.587.046.386.545a21.3 21.3 0 0 0-1.143 4.195c-.345 1.9-.755 3.8-1.154 5.691-.234 1.112-.512 2.216-.747 3.328a.805.805 0 0 1-.782.718c-4.385.512-8.772 1-13.178 1.3-3.483.24-6.961.5-10.45.661-3.4.155-6.8.308-10.208.127-4.017-.213-8.037-.379-12.046-.739-3-.27-6.01-.459-9-.838-1.436-.182-2.885-.273-4.322-.492a.933.933 0 0 1-.927-.834zm60.092 4.69c.376-.932.667-1.9.97-2.86a.928.928 0 0 1 .872-.726 10.2 10.2 0 0 0 3.372-1.072 3.4 3.4 0 0 0 1.8-2.859c.273-2.855.712-5.688 1.082-8.53a3.251 3.251 0 0 1 .352-1.6 9.606 9.606 0 0 1 1.438 3.156 53.717 53.717 0 0 1 2.462 9.39 30.7 30.7 0 0 1 .456 5.321c-.008.692-.307.576-.679.577q-3.049.007-6.1 0h-5.375c-.561.006-.951-.036-.651-.796zm7.548-16.215c-.461 3.1-.835 6.217-1.192 9.334a2.211 2.211 0 0 1-1.074 1.511 7.664 7.664 0 0 1-3.883 1.264c.294-1.624.5-3.222.887-4.778.416-1.693.705-3.409 1.09-5.106a21.82 21.82 0 0 1 .825-3.206 1.529 1.529 0 0 1 1.562-1.075c2.071.051 2.088.04 1.788 2.058zm-70.866-.355c.779 2.455 1.139 5.014 1.72 7.52.356 1.533.519 3.114.943 4.624.153.545-.273.344-.282.343a6.82 6.82 0 0 1-4.023-1.674 3.051 3.051 0 0 1-.721-2.015c-.4-3.254-.82-6.5-1.3-9.745-.052-.346 0-.641.471-.653.347-.008.693-.068 1.039-.1 1.563.113 1.736.377 2.156 1.701zm-7.254 17.907c2.853-.069 5.708-.035 8.562-.064.911-.009 1.818.085 2.734.032.771-.045.975.716 1.257 1.216a4.86 4.86 0 0 0 4.005 2.728c-.517.419-1 .181-1.417.185-3.18.038-6.362.061-9.543.01a36.193 36.193 0 0 0-10.032 1.136c-.547.147-.714.013-.726-.585-.022-1.071-.164-2.139-.261-3.208-.078-.857.128-1.12.959-1.274a27.81 27.81 0 0 1 4.466-.175zm86.506 5.2a34.991 34.991 0 0 0-4.526-.847 27.549 27.549 0 0 0-2.885-.227c-4.04-.025-8.081-.01-12.121-.011a3.142 3.142 0 0 1-1.387-.19 5.135 5.135 0 0 0 4.07-3.316 1.094 1.094 0 0 1 1.135-.65c3.639 0 7.278.06 10.917.065a39.358 39.358 0 0 1 4.418.074c1.251.143 1.486.474 1.341 1.708-.111.941-.152 1.89-.213 2.836-.029.499-.19.7-.745.562zm-.947-22.676c.4-.124.445.157.5.366a9.644 9.644 0 0 1 .178 1.013c.137.43-.041.51-.2.6-.114-.232-.455.111-.531-.208a11.9 11.9 0 0 1-.287-1.343.42.42 0 0 1 .343-.424zm-.928 2.111a20.07 20.07 0 0 0 1.879 4.557 11.929 11.929 0 0 1 1.333 5.657 20.379 20.379 0 0 1-.139 4.538c-.045.54-.265.481-.565.384a6.811 6.811 0 0 0-2.588-.308c-.461.032-.626-.23-.624-.6a39.389 39.389 0 0 0-1.466-10.139c-.383-1.472-.822-2.931-1.29-4.378-.188-.581.255-.524.492-.536.561-.027 1.121-.007 1.688-.058a1.024 1.024 0 0 1 1.283.887zm-10.144-27.709c.239-.114.418.075.549.189a10.389 10.389 0 0 1 2.287 2.945c1.657 3.056 2.372 6.46 3.514 9.7.79 2.243 1.36 4.565 2.012 6.857a54.14 54.14 0 0 1 1.427 6.182c.086.537-.158.518-.5.521h-1.241c-1.69.042-1.609 0-2.366-1.61-.655-1.4-.811-1.962-2.715-1.867-.19.009-.452.128-.578-.107s.091-.38.22-.547c1.071-1.385.906-2.917.616-4.512-.6-3.292-1.094-6.6-1.677-9.9a41.911 41.911 0 0 0-1.193-5.5 13.288 13.288 0 0 1-.394-1.82c-.025-.155-.271-.379.042-.527zm-66.984 2.064c.172-.78.378-1.553.579-2.326.078-.3.089-.295 1.123-.346 4.823-.343 9.649-.6 14.485-.748 5.015-.152 10.029-.218 15.045-.24 3.76-.017 7.52.009 11.28.029 1.635.008 3.272.01 4.9.081 4.515.2 9.039.175 13.545.621 1.475.146 2.967.127 4.451.191.381.017.656.114.736.6a12.574 12.574 0 0 0 .547 2.1c.148.424.058.532-.353.5-3.124-.24-6.246-.507-9.373-.708-2.732-.176-5.468-.3-8.2-.41-4.29-.17-8.584-.348-12.876-.246-3.556.085-7.11-.034-10.666.045-4.6.1-9.185.319-13.773.535-3.247.152-6.485.484-9.73.706a7.8 7.8 0 0 0-1.241.111c-.425.1-.553-.14-.476-.491zm-9.854 23.708c.351-1.764.684-3.535 1.136-5.274.579-2.229 1.233-4.439 1.911-6.639.945-3.065 1.848-6.149 2.954-9.158a9.817 9.817 0 0 1 3.106-4.484c.185-.144.352-.4.608-.214.229.164-.059.324-.1.48-.953 3.748-1.532 7.57-2.223 11.369-.384 2.106-.577 4.249-1 6.345a5.266 5.266 0 0 0 1.159 4.7c-.63.067-1.19.166-1.751.174a1.371 1.371 0 0 0-1.238.847 7.214 7.214 0 0 0-.866 1.983.622.622 0 0 1-.781.545 19.436 19.436 0 0 0-2.373-.047c-.641-.029-.605-.291-.539-.623zm-2.3-.688c-.03.418-.028.846-.1 1.273-.247 1.511-.409 1.688-1.946 1.968a9.469 9.469 0 0 1-.973.043 8.357 8.357 0 0 1-4.555-.947c-1.386-.735-2.038-3.278-1.059-4.255a2.387 2.387 0 0 1 1.418-.635 17.763 17.763 0 0 1 4.515.091 7.356 7.356 0 0 1 1.5.428 1.784 1.784 0 0 1 1.2 2.038zm.529 2.446c-.342-.105-.208-.3-.171-.5.062-.34.1-.684.168-1.023s.338-.384.612-.333c.3.054.177.335.261.4-.095.483-.143.852-.245 1.206-.089.315-.313.35-.624.254zm-.816 5.672c.65-1.43 1.287-2.866 1.929-4.3a2.645 2.645 0 0 0 .157-.353c.453-1.6.452-1.6 2.081-1.606.354 0 .71 0 1.063-.026.659-.053.553.328.431.726a65.956 65.956 0 0 0-1.875 7.187 33.328 33.328 0 0 0-.727 6.834c.013.6-.162.876-.85.892a6.661 6.661 0 0 0-2.345.335c-.223.089-.47.125-.53-.336-.131-1.012-.256-2.022-.3-2.923.075-2.256.051-4.411.967-6.426zm-2.823 11.023a7.2 7.2 0 0 1 1.023-3.042c.073-.089.058-.311.227-.236.114.051.263.263.235.353-.15.481.208.929.058 1.287a3.011 3.011 0 0 1-1.326 1.942c-.185.023-.229-.25-.216-.301zm.371 5.553c-.212-1.186-.271-2.4-.382-3.6a3.48 3.48 0 0 1 1.319-1.847c.387-.049.464.319.484.573.195 2.53.464 5.054.571 7.592.075 1.764.295 3.522.226 5.295a.732.732 0 0 1-.189.465 54.884 54.884 0 0 1-2.028-8.475zm13.867 29.157c0 .41-.048.768-.486.961a14.451 14.451 0 0 1-3.3.185c-1.81-.07-3.618 0-5.426 0a18.952 18.952 0 0 1-2.745-.094c-.575-.145-.583-.663-.582-1.15V885.317l.107-.023a31.151 31.151 0 0 1 1.746 4.785 5.113 5.113 0 0 0 1.539 2.605 2.868 2.868 0 0 0 4.375-.073 1.579 1.579 0 0 1 1.388-.626 20.565 20.565 0 0 0 2.563 0c.5.005.808-.065.752.745-.119 1.746.042 3.509.057 5.266.025 2.094.006 4.192.013 6.29zm11.172-9.249a3.427 3.427 0 0 1-3.51-3.484 3.482 3.482 0 0 1 3.5-3.534c1.72-.143 3.5 1.783 3.454 3.582a3.456 3.456 0 0 1-3.443 3.439zm48.093-3.985c-3.913.092-7.825.024-11.737.1-4.267.083-8.538-.017-12.807-.037-3.363-.015-6.726-.087-10.088-.024-2.851.054-5.7-.03-8.55.024-.565.011-.656-.239-.76-.6a4.329 4.329 0 0 0-8.409.027.622.622 0 0 1-.71.607c-3.323-.074-6.646-.029-9.969-.035a1.889 1.889 0 0 0-1.54.807 2.076 2.076 0 0 1-2.568.628 3.11 3.11 0 0 1-1.358-1.546 29.615 29.615 0 0 1-1.9-4.983c-.354-1.027.132-1.557 1.22-1.739a66.062 66.062 0 0 1 9.109-.939c1.428 0 2.855.007 4.283 0 2.3-.014 4.6-.045 6.9-.054 1.48-.005 2.962.058 4.441.01.723-.024.987.556 1.349.911a6.472 6.472 0 0 0 4 1.665 95.93 95.93 0 0 0 10.663.266c4.913.027 9.83.131 14.739-.007 2.1-.059 4.312-.011 6.259-1.179a4.585 4.585 0 0 0 1.345-1.109 1.3 1.3 0 0 1 1.2-.534c1.8.02 3.606-.091 5.412-.012a2.208 2.208 0 0 1 1.43.49 2.851 2.851 0 0 0 3.95.145 3.87 3.87 0 0 1 2.781-.594c1.627-.024 3.256.067 4.883.141 2.3.1 4.57.547 6.857.811.516.059.554.533.65.926.239.987-.338 1.783-.65 2.63a12.634 12.634 0 0 1-1.882 4.062c-.785.928-1.877 1.25-2.7.369-1.194-1.274-2.573-1.173-4.061-1.167-3.932.009-7.859-.149-11.781-.057zm19.329 14.344c-1.079-.024-2.159 0-3.239.007a22.462 22.462 0 0 0-2.721.027c-.5.063-1.966-.1-2.35-.062a.818.818 0 0 1-1.027-.9c-.027-1.345-.007-2.69-.011-4.036 0-1.77.025-3.541-.038-5.308a19.992 19.992 0 0 0-.061-2.734.381.381 0 0 1 .437-.417c.59.051 3.835.1 4.7.866 1.483 1.311 3.14.964 4.564-.7a4.987 4.987 0 0 0 .969-1.92c.466-1.531 1.185-2.982 1.506-4.568.036-.177.24-.321.458-.6 0 3.062-.013 6 0 8.942.017 3.066.084 6.132.058 9.2.106 1.625-.367 2.176-1.714 2.22-.601.021-1.085-.01-1.531-.017z" class="prefix__cls-2" data-name="Trazado 2568" transform="translate(-636.279 -822.764)"/>
            <path id="prefix__Trazado_2569" d="M827.305 1243.984a1.629 1.629 0 0 1-1.36-1.524 1.527 1.527 0 0 1 1.415-1.435h.049a1.41 1.41 0 0 1 1.4 1.492 1.458 1.458 0 0 1-1.492 1.468zm.165-2.13a.676.676 0 0 0-.7.633.639.639 0 0 0 .7.6c.376 0 .516-.341.568-.563-.1-.445-.293-.672-.557-.674l-.008-.137z" class="prefix__cls-2" data-name="Trazado 2569" transform="translate(-795.355 -1173.706)"/>
            <path id="prefix__Trazado_2570" d="M826.8 1243.172a1.387 1.387 0 0 1 1.282-1.3 1.27 1.27 0 0 1 1.311 1.356 1.32 1.32 0 0 1-1.358 1.33 1.488 1.488 0 0 1-1.235-1.386zm2.093.07c-.087-.39-.279-.806-.7-.811a.811.811 0 0 0-.848.77.773.773 0 0 0 .834.742c.392.005.621-.297.71-.701z" class="prefix__cls-2" data-name="Trazado 2570" transform="translate(-796.069 -1174.419)"/>
        </g>
    </g>
</svg>
