<svg xmlns="http://www.w3.org/2000/svg" width="168" height="120" viewBox="0 0 168 120">
    <defs>
        <style>
            .prefix__cls-2{fill:#67bc47;stroke:#fafafa;stroke-width:.8px}
        </style>
    </defs>
    <g id="prefix__btn_ev_croquis" transform="translate(-16 -544)">
        <g id="prefix__Rectángulo_1866" data-name="Rectángulo 1866" transform="translate(16 544)" style="stroke:#67bc47;fill:none">
            <rect width="168" height="120" rx="4" style="stroke:none"/>
            <rect width="167" height="119" x=".5" y=".5" rx="3.5" style="fill:none"/>
        </g>
        <g id="prefix__Grupo_1326" data-name="Grupo 1326" transform="translate(57.096 568.658)">
            <path id="prefix__Trazado_1877" d="M515.942 392.18a5.462 5.462 0 1 1-5.462 5.462 5.462 5.462 0 0 1 5.462-5.462zm0 0" class="prefix__cls-2" data-name="Trazado 1877" transform="translate(-486.637 -357.286)"/>
            <path id="prefix__Trazado_1878" d="M468.5 249.281l3.7-29.2L445.633 210l-31.867 15.221L386 213.495l3.749 31.151-3.594 30.675 29.5 5.534 30.09-5.73 26.555 6.128zm-22.961-36.188l23.532 8.867-1.62 12.768-23.46-5.928zm-3.112 1.621l-1.242 13.368h-.02l-16.24 2.1-.1.358c-.02.078-1.9 7.038-3.89 10.2a11.038 11.038 0 0 0-4.275-1.449l-1.316-11.641zm-2.483 29.818l-14.114 2.129a11.218 11.218 0 0 0-3.965-5.319c1.847-2.949 3.515-8.659 3.935-10.166l15.28-1.972zm-27.467-16.745l1.3 11.526a11.182 11.182 0 0 0-9.1 7.645l-12.035-1.863-1.156-11.163c3.989-.264 6.981-1.562 8.9-3.879a10.806 10.806 0 0 0 2.321-6.39zm-23-9.712l12.133 5.124a9.938 9.938 0 0 1-2.075 6.147c-1.729 2.085-4.479 3.251-8.187 3.485zM389.318 273l2.985-25.053 11.869 1.839c-.009.19-.028.379-.028.573a11.089 11.089 0 0 0 2.415 6.91l-6.164 4.951-1.942 12.492zm23.254 4.361l-13.032-2.445 1.883-12.1 5.866-4.709a11.125 11.125 0 0 0 6.956 3.358zm-6.212-27a8.946 8.946 0 1 1 8.94 8.939 8.955 8.955 0 0 1-8.945-8.945zm9.292 27.579l-.251-.047 1.741-16.537a11.171 11.171 0 0 0 9.323-11c0-.3-.022-.591-.045-.884l13.8-2.081 1.152 11.767c-6.053.284-10.577 2.145-13.425 5.582-3.32 4.011-3.477 9.012-3.3 11.485zm10.092-1.922c-.134-2.347.06-6.952 3.055-10.568 2.649-3.2 6.922-4.923 12.676-5.185l1.226 12.52zm18.144-46.105l23.42 5.923L465.9 246.9l-23.12-2.8zm18.831 26.544l-10.656-1.267 1.951 18.9-8.537-1.835-2.42-25.288.248-.039 22.354 2.838 3.307 27.776-13.833-3.191-1.827-17.9 9.5 1.1zm0 0" class="prefix__cls-2" data-name="Trazado 1878" transform="translate(-386 -210)"/>
        </g>
    </g>
</svg>
