<svg xmlns="http://www.w3.org/2000/svg" width="200.217" height="181.326" viewBox="0 0 200.217 181.326">
  <g id="Componente_76_2" data-name="Componente 76 – 2" transform="translate(0.75)">
    <ellipse id="Elipse_64" data-name="Elipse 64" cx="90.663" cy="90.663" rx="90.663" ry="90.663" transform="translate(18.142)" fill="#192e1f" opacity="0.11"/>
    <g id="Elipse_88" data-name="Elipse 88" transform="translate(29.972 14.656)" fill="#9bd3f8" stroke="#004e37" stroke-width="2">
      <ellipse cx="79.342" cy="77.346" rx="79.342" ry="77.346" stroke="none"/>
      <ellipse cx="79.342" cy="77.346" rx="78.342" ry="76.346" fill="none"/>
    </g>
    <path id="Trazado_2123" data-name="Trazado 2123" d="M470.084,324.02c-2.405,0-4.811.028-7.216-.006a5.917,5.917,0,1,1-.047-11.823q7.322-.068,14.644,0a5.909,5.909,0,1,1,.047,11.816C475.036,324.058,472.561,324.019,470.084,324.02Zm.136-9.782c-2.4,0-4.806-.021-7.209.006-2.642.03-4.306,1.574-4.275,3.913.03,2.254,1.662,3.78,4.177,3.8q7.208.043,14.418,0c2.5-.016,4.157-1.561,4.187-3.8.031-2.311-1.667-3.876-4.3-3.907-2.333-.026-4.665,0-7,0Z" transform="translate(-301.38 -268.993)" fill="#253826"/>
    <path id="Trazado_2124" data-name="Trazado 2124" d="M425.418,569.46a6.608,6.608,0,0,1-6.72-6.488,6.677,6.677,0,1,1,13.354-.074,6.56,6.56,0,0,1-6.557,6.563Zm-.1-11.16a4.582,4.582,0,0,0-4.545,4.609,4.648,4.648,0,0,0,4.588,4.609,4.777,4.777,0,0,0,4.7-4.76,4.673,4.673,0,0,0-4.745-4.458Z" transform="translate(-245.667 -472.265)" fill="#253826"/>
    <path id="Trazado_2127" data-name="Trazado 2127" d="M409.475,602.878q7.619,0,15.238,0c1.127,0,2.566-.128,2.649.878.089,1.082-1.322,1.148-2.657,1.154q-15.061.05-30.123.1c-1.36,0-2.762-.143-2.8-1.131-.036-1.08,1.523-1.073,2.8-1.077,4.962-.014,9.925-.006,14.89-.006Z" transform="translate(-247.977 -476.662)" fill="#253826"/>
    <path id="Trazado_2128" data-name="Trazado 2128" d="M68.193,465.211a3.552,3.552,0,0,1,3.466,3.573,3.5,3.5,0,0,1-6.993-.006q0-.04,0-.079a3.506,3.506,0,0,1,3.525-3.488Zm-.02,2.056a1.349,1.349,0,0,0-1.433,1.462,1.333,1.333,0,0,0,1.266,1.4h.037a1.357,1.357,0,0,0,1.547-1.135,1.51,1.51,0,0,0-1.417-1.725Z" transform="translate(69.355 -305.61)" fill="#253826"/>
    <path id="Trazado_2130" data-name="Trazado 2130" d="M501.351,445.02a2.783,2.783,0,0,1-2.74-2.825v-.029a2.738,2.738,0,1,1,5.476-.022,2.807,2.807,0,0,1-2.737,2.876Z" transform="translate(-375.501 -284.988)" fill="#253826"/>
    <path id="Trazado_2133" data-name="Trazado 2133" d="M401.342,590.653c-2.181,0-4.361.012-6.541,0-1.669-.01-2.883-.317-2.877-.992.012-.525,1.121-.946,2.475-.941h.016q7.076-.064,14.156.018c1.308.006,2.358.421,2.343.928a.536.536,0,0,1-.007.058c0,.506-1.051.918-2.358.92h-.123C406.068,590.674,403.706,590.651,401.342,590.653Z" transform="translate(-245.862 -468.554)" fill="#253826"/>
    <path id="Trazado_2176" data-name="Trazado 2176" d="M473.012,317.036c2.332,0,4.665-.022,7,.006,2.633.031,4.331,1.6,4.3,3.907-.03,2.241-1.683,3.785-4.187,3.8q-7.209.045-14.418,0c-2.515-.015-4.147-1.542-4.177-3.8-.03-2.339,1.634-3.885,4.275-3.913C468.206,317.015,470.61,317.036,473.012,317.036Z" transform="translate(-304.173 -271.792)" fill="#fff"/>
    <path id="Trazado_2177" data-name="Trazado 2177" d="M428.113,561.088a4.672,4.672,0,0,1,4.744,4.458,4.777,4.777,0,0,1-4.7,4.76,4.648,4.648,0,0,1-4.586-4.609A4.581,4.581,0,0,1,428.113,561.088Z" transform="translate(-248.466 -475.052)" fill="#fff"/>
    <path id="Trazado_2179" data-name="Trazado 2179" d="M70.976,470.041a1.393,1.393,0,0,1,1.432,1.506,1.357,1.357,0,0,1-1.344,1.369,1.4,1.4,0,0,1-.218-.016,1.333,1.333,0,0,1-1.3-1.361c0-.012,0-.024,0-.037A1.349,1.349,0,0,1,70.976,470.041Z" transform="translate(66.554 -308.386)" fill="#fff"/>
    <path id="Trazado_2625" data-name="Trazado 2625" d="M1202.744,78.268h-1.293a6.632,6.632,0,0,0-9.679-7.776,9.2,9.2,0,0,0-17.46,4.012,4.391,4.391,0,0,0-5.545,3.764h-7.374a5.58,5.58,0,0,0,0,11.16h41.35a5.58,5.58,0,0,0,0-11.16Z" transform="translate(-1154.985 -0.859)" fill="#fff"/>
    <path id="Trazado_2626" data-name="Trazado 2626" d="M1160.791,89.656a6.41,6.41,0,0,1,0-12.821h6.677l.07-.232a5.2,5.2,0,0,1,5-3.692l.388.006.038-.291a10.064,10.064,0,0,1,9.949-8.718,9.96,9.96,0,0,1,8.45,4.636l.147.231.254-.1a7.388,7.388,0,0,1,2.77-.538,7.482,7.482,0,0,1,7.474,7.472,7.383,7.383,0,0,1-.05.863l-.043.359.362.008a6.41,6.41,0,0,1-.137,12.819Zm0-11.159a4.749,4.749,0,0,0,0,9.5h41.351a4.749,4.749,0,0,0,0-9.5h-1.293a.831.831,0,0,1-.79-1.089,5.8,5.8,0,0,0-8.467-6.8.831.831,0,0,1-1.168-.348,8.369,8.369,0,0,0-15.884,3.649.832.832,0,0,1-1.049.8,3.709,3.709,0,0,0-.976-.133,3.55,3.55,0,0,0-3.524,3.185.83.83,0,0,1-.826.741Z" transform="translate(-1154.382 -1.209)" fill="#253826" stroke="#253826" stroke-width="1.5"/>
    <path id="Trazado_2127-2" data-name="Trazado 2127" d="M404.14,602.878c3.547,0,7.095-.005,10.642,0,.787,0,1.792-.128,1.85.878.062,1.082-.923,1.148-1.856,1.154q-10.519.05-21.038.1c-.949,0-1.929-.143-1.952-1.131-.025-1.08,1.064-1.073,1.955-1.077,3.466-.014,6.932-.006,10.4-.006Z" transform="translate(-363.788 -474.055)" fill="#253826"/>
    <path id="Trazado_2133-2" data-name="Trazado 2133" d="M401.342,590.653c-2.181,0-4.361.012-6.541,0-1.669-.01-2.883-.317-2.877-.992.012-.525,1.121-.946,2.475-.941h.016q7.076-.064,14.156.018c1.308.006,2.358.421,2.343.928a.536.536,0,0,1-.007.058c0,.506-1.051.918-2.358.92h-.123C406.068,590.674,403.706,590.651,401.342,590.653Z" transform="translate(-353.149 -465.948)" fill="#253826"/>
    <path id="Trazado_2127-3" data-name="Trazado 2127" d="M395.255,602.878c1,0,1.992-.005,2.988,0,.221,0,.5-.128.519.878.018,1.082-.259,1.148-.521,1.154q-2.953.05-5.907.1c-.267,0-.541-.143-.548-1.131-.007-1.08.3-1.073.549-1.077.973-.014,1.946-.006,2.92-.006Z" transform="translate(-371.585 -474.055)" fill="#253826"/>
    <path id="Trazado_2133-3" data-name="Trazado 2133" d="M394.432,590.653c-.581,0-1.162.012-1.742,0-.445-.01-.768-.317-.766-.992,0-.525.3-.946.659-.941h0q1.885-.064,3.771.018c.348.006.628.421.624.928,0,.019,0,.039,0,.058,0,.506-.28.918-.628.92h-.033C395.691,590.674,395.062,590.651,394.432,590.653Z" transform="translate(-359.175 -465.948)" fill="#253826"/>
    <path id="Trazado_2122" data-name="Trazado 2122" d="M123.114,594a4.145,4.145,0,0,1-4.152,4.137h-.025a4.194,4.194,0,0,1-4.241-4.147c0-.025,0-.05,0-.074a4.188,4.188,0,0,1,4.2-4.133,4.141,4.141,0,0,1,4.217,4.063Q123.116,593.924,123.114,594Z" transform="translate(-6.458 -578.277)" fill="#253826"/>
    <path id="Trazado_2124-2" data-name="Trazado 2124" d="M423.728,566.136a4.946,4.946,0,0,1-5.03-4.857,5,5,0,1,1,10-.056,4.91,4.91,0,0,1-4.908,4.913Zm-.078-8.354a3.43,3.43,0,0,0-3.4,3.45,3.48,3.48,0,0,0,3.434,3.451,3.576,3.576,0,0,0,3.521-3.564,3.5,3.5,0,0,0-3.552-3.337Z" transform="translate(-345.874 -534.283)" fill="#253826"/>
    <path id="Trazado_2177-2" data-name="Trazado 2177" d="M426.971,561.088a3.5,3.5,0,0,1,3.551,3.338,3.576,3.576,0,0,1-3.52,3.564,3.48,3.48,0,0,1-3.433-3.45A3.43,3.43,0,0,1,426.971,561.088Z" transform="translate(-349.192 -537.589)" fill="#fff"/>
    <path id="Trazado_2124-3" data-name="Trazado 2124" d="M423.728,566.136a4.946,4.946,0,0,1-5.03-4.857,5,5,0,1,1,10-.056,4.91,4.91,0,0,1-4.908,4.913Zm-.078-8.354a3.43,3.43,0,0,0-3.4,3.45,3.48,3.48,0,0,0,3.434,3.451,3.576,3.576,0,0,0,3.521-3.564,3.5,3.5,0,0,0-3.552-3.337Z" transform="translate(-321.085 -415.966)" fill="#253826"/>
    <path id="Trazado_2177-3" data-name="Trazado 2177" d="M426.971,561.088a3.5,3.5,0,0,1,3.551,3.338,3.576,3.576,0,0,1-3.52,3.564,3.48,3.48,0,0,1-3.433-3.45A3.43,3.43,0,0,1,426.971,561.088Z" transform="translate(-324.403 -419.272)" fill="#fff"/>
    <g id="Grupo_1982" data-name="Grupo 1982" transform="translate(23.001 85.723)">
      <path id="Trazado_2621" data-name="Trazado 2621" d="M1285.975,117.12h-2.9c0-.093.013-.184.013-.277a4.891,4.891,0,0,0-8.239-3.573,6.783,6.783,0,0,0-12.918,3.85h-.517a4.276,4.276,0,0,0,0,8.552h24.564a4.276,4.276,0,0,0,0-8.552Z" transform="translate(-1255.609 -107.645)" fill="#fff"/>
      <path id="Trazado_2622" data-name="Trazado 2622" d="M1261.506,127.294a5.8,5.8,0,0,1-1.53-11.4l.408-.111.036-.422a8.318,8.318,0,0,1,14.742-4.547l.284.348.413-.171a6.367,6.367,0,0,1,2.424-.475,6.442,6.442,0,0,1,6.2,4.73l.121.444h1.468a5.8,5.8,0,0,1,0,11.608Zm0-8.552a2.749,2.749,0,0,0,0,5.5h24.564a2.749,2.749,0,0,0,0-5.5h-2.9a1.528,1.528,0,0,1-1.527-1.579l.009-.161a3.408,3.408,0,0,0-.993-2.45,3.35,3.35,0,0,0-4.672-.072,1.516,1.516,0,0,1-1.041.411,1.555,1.555,0,0,1-.314-.032,1.525,1.525,0,0,1-1.09-.889,5.263,5.263,0,0,0-10.094,2.085,5.2,5.2,0,0,0,.084.9,1.529,1.529,0,0,1-1.506,1.784Z" transform="translate(-1255.704 -107.74)" fill="#243825"/>
    </g>
    <g id="Grupo_2905" data-name="Grupo 2905" transform="translate(39.901 16.344)">
      <g id="Grupo_1949" data-name="Grupo 1949" transform="translate(10.033 0)">
        <path id="Trazado_2582" data-name="Trazado 2582" d="M1191.618,76.052a20.977,20.977,0,0,0-20.976,20.977c0,14.942,20.976,38.793,20.976,38.793s20.976-24.425,20.976-38.793A20.976,20.976,0,0,0,1191.618,76.052Zm0,25a7.04,7.04,0,1,1,7.042-7.04A7.041,7.041,0,0,1,1191.617,101.051Z" transform="translate(-1169.211 -74.622)" fill="#ff5353"/>
        <path id="Trazado_3115" data-name="Trazado 3115" d="M-18896.072.971s10.488,13.419,10.025,21.286-12.646,34.242-12.646,34.242l1.541,3.239,12.494-15.579,6.17-11.723,2.621-8.792v-5.09l-1.541-6.17-3.7-5.553-8.486-5.244Z" transform="translate(18919.133 1.069)" fill="#fc3232" stroke="#fc3232" stroke-width="1"/>
        <path id="Trazado_2583" data-name="Trazado 2583" d="M1192.081,137.713a1.427,1.427,0,0,1-1.075-.486c-.871-.991-21.334-24.431-21.334-39.737a22.408,22.408,0,0,1,44.816,0c0,14.729-20.451,38.711-21.322,39.726a1.432,1.432,0,0,1-1.078.5Zm0-59.768a19.567,19.567,0,0,0-19.546,19.545c0,12.317,15.279,31.474,19.535,36.569,4.237-5.181,19.556-24.729,19.556-36.569A19.567,19.567,0,0,0,1192.081,77.945Zm0,25a8.471,8.471,0,1,1,8.473-8.47A8.48,8.48,0,0,1,1192.079,102.944Zm0-14.081a5.61,5.61,0,1,0,5.611,5.611A5.615,5.615,0,0,0,1192.079,88.863Z" transform="translate(-1169.672 -75.083)" fill="#2a523b"/>
      </g>
      <g id="Grupo_2732" data-name="Grupo 2732" transform="translate(71.165 137.093) rotate(-90)">
        <g id="Grupo_1970" data-name="Grupo 1970" transform="translate(1.459 1.458)">
          <path id="Trazado_2606" data-name="Trazado 2606" d="M112.4,43.413a21.715,21.715,0,0,0,20.367-14.191L114,29.191l-6.481-3.742V17.966L114,14.224l18.773-.032a21.712,21.712,0,0,0-40.481-.659H23.99a13.362,13.362,0,1,0-.132,16.348H92.292A21.705,21.705,0,0,0,112.4,43.413ZM6.1,21.618a7.264,7.264,0,1,1,7.264,7.266A7.263,7.263,0,0,1,6.1,21.618Z" transform="translate(0 0)" fill="#d6d6d6"/>
        </g>
        <g id="Grupo_1971" data-name="Grupo 1971" transform="translate(64.292 24.832)">
          <path id="Trazado_2607" data-name="Trazado 2607" d="M14.9,2.19H1.094A1.094,1.094,0,1,1,1.094,0h0L14.9,0a1.094,1.094,0,1,1,0,2.188Z" fill="#2a523b"/>
        </g>
        <g id="Grupo_1973" data-name="Grupo 1973" transform="translate(92.269 12.407)">
          <path id="Trazado_2609" data-name="Trazado 2609" d="M1.095,8.028A1.094,1.094,0,0,1,0,6.935,14.778,14.778,0,0,1,1.63.571,1.095,1.095,0,1,1,3.553,1.618,12.59,12.59,0,0,0,2.189,6.933,1.093,1.093,0,0,1,1.095,8.028Z" transform="translate(0 0)" fill="#2a523b"/>
        </g>
        <g id="Grupo_1975" data-name="Grupo 1975" transform="translate(102.306 36.003)">
          <path id="Trazado_2611" data-name="Trazado 2611" d="M12.022,6.2h0A18,18,0,0,1,.386,1.927,1.094,1.094,0,0,1,1.8.259,15.811,15.811,0,0,0,12.022,4.016a1.094,1.094,0,0,1,0,2.189Z" transform="translate(0 0)" fill="#2a523b"/>
        </g>
        <g id="Grupo_1976" data-name="Grupo 1976" transform="translate(97.626 29.559)">
          <path id="Trazado_2612" data-name="Trazado 2612" d="M2.393,4.724a1.1,1.1,0,0,1-.929-.513l-.108-.173A10.687,10.687,0,0,1,.064,1.462,1.095,1.095,0,0,1,2.127.726,8.45,8.45,0,0,0,3.209,2.873l.11.175a1.094,1.094,0,0,1-.926,1.677Z" transform="translate(0 0)" fill="#2a523b"/>
        </g>
        <path id="Trazado_3116" data-name="Trazado 3116" d="M107.047,0H21.079l-2.57,3.5L13.763,5.521,9.017,4.453,6.17.538,5.7,0H0S1.068,5.165,1.068,5.521s5.1,4.747,5.1,4.747,7.356,3.56,13.051,0,4.271-3.323,4.271-3.323l68.342-.355s1.187,4.983,4.39,7.475a76.9,76.9,0,0,0,9.136,5.577l10.323.83,4.746-1.9,5.339-2.728,6.051-7.594V6.589H115.209L107.853,2.91Z" transform="translate(0.864 23.595)" fill="#c5c5c5" stroke="#c5c5c5" stroke-width="1"/>
        <g id="Grupo_1974" data-name="Grupo 1974" transform="translate(0)">
          <path id="Trazado_2610" data-name="Trazado 2610" d="M113.86,46.331A23.067,23.067,0,0,1,92.792,32.8H26a14.829,14.829,0,1,1,.148-19.267h66.64A23.072,23.072,0,0,1,113.856,0h0A23.254,23.254,0,0,1,135.6,15.147a1.459,1.459,0,0,1-1.368,1.964l-18.382.03-5.414,3.125v5.8l5.412,3.125,18.382.032a1.458,1.458,0,0,1,1.367,1.964A23.261,23.261,0,0,1,113.86,46.331ZM93.75,29.882a1.456,1.456,0,0,1,1.352.909,20.25,20.25,0,0,0,36.911,1.346l-16.559-.029a1.471,1.471,0,0,1-.729-.194l-6.48-3.742a1.454,1.454,0,0,1-.73-1.264V19.425a1.459,1.459,0,0,1,.73-1.264l6.481-3.74a1.448,1.448,0,0,1,.727-.2l16.562-.029A20.339,20.339,0,0,0,113.859,2.919h0A20.173,20.173,0,0,0,95.1,15.541a1.457,1.457,0,0,1-1.352.911h-68.3a1.459,1.459,0,0,1-1.16-.575,11.9,11.9,0,1,0-.119,14.56,1.462,1.462,0,0,1,1.147-.555ZM14.823,31.8a8.723,8.723,0,1,1,0-17.445h.006a8.723,8.723,0,0,1,0,17.445Zm0-14.527a5.8,5.8,0,1,0,4.108,1.7,5.77,5.77,0,0,0-4.108-1.7Z" fill="#2a523b"/>
        </g>
        <g id="Grupo_1972" data-name="Grupo 1972" transform="translate(31.017 22.073)">
          <path id="Trazado_2608" data-name="Trazado 2608" d="M30.3,4.949H3.855A3.859,3.859,0,0,1,0,1.094a1.094,1.094,0,1,1,2.188,0A1.668,1.668,0,0,0,3.855,2.761H30.3a1.094,1.094,0,1,1,0,2.189Z" fill="#2a523b"/>
        </g>
      </g>
      <g id="fix" transform="matrix(0.914, -0.407, 0.407, 0.914, 0, 77.079)">
        <g id="Grupo_2746" data-name="Grupo 2746" transform="translate(1.304 1.296)">
          <path id="Trazado_2869" data-name="Trazado 2869" d="M15.069,53.165v4.664L10.96,60.16,6.85,57.828V53.165l4.109-2.332ZM56.433,15.436,52.324,13.1V8.441l4.109-2.332,4.109,2.332V13.1Zm9.49.722A10.671,10.671,0,0,0,61.912,1.445,11.063,11.063,0,0,0,46.943,5.387a10.576,10.576,0,0,0-1.092,8.184L13.786,45.088A11.042,11.042,0,0,0,1.47,50.111,10.671,10.671,0,0,0,5.481,64.824,11.063,11.063,0,0,0,20.45,60.882,10.576,10.576,0,0,0,21.542,52.7L53.607,21.181a11.042,11.042,0,0,0,12.316-5.023Z" transform="translate(0 0)" fill="#e1e1e1" fill-rule="evenodd"/>
          <g id="Grupo_2745" data-name="Grupo 2745" transform="translate(0 0)">
            <path id="Trazado_2874" data-name="Trazado 2874" d="M19.415,15.6a10.363,10.363,0,0,0,1.036-7.9L13.089.351A10.4,10.4,0,1,0,19.415,15.6Zm-5.109-2.948-3.9,2.251L6.5,12.652v-4.5l3.9-2.252,3.9,2.252Z" transform="translate(0 45.468)" fill="#e1e1e1" fill-rule="evenodd"/>
            <path id="Trazado_2875" data-name="Trazado 2875" d="M7.722,20.45A10.4,10.4,0,1,0,.359,13.1Zm6.585-7.8-3.9,2.252L6.5,12.652v-4.5l3.9-2.252,3.9,2.252Z" transform="translate(46.582 0)" fill="#e1e1e1" fill-rule="evenodd"/>
          </g>
        </g>
        <path id="Trazado_2877" data-name="Trazado 2877" d="M.651,9.181l3.9,2.252a1.3,1.3,0,0,0,1.3,0l3.9-2.252a1.3,1.3,0,0,0,.65-1.126v-4.5a1.3,1.3,0,0,0-.65-1.126L5.852.174a1.3,1.3,0,0,0-1.3,0L.651,2.426A1.3,1.3,0,0,0,0,3.552v4.5A1.3,1.3,0,0,0,.651,9.181ZM2.6,4.3,5.2,2.8,7.8,4.3v3L5.2,8.8,2.6,7.3Z" transform="translate(53.09 5.894)" fill="#2a523b"/>
        <path id="Trazado_2878" data-name="Trazado 2878" d="M9.753,2.426,5.852.174a1.3,1.3,0,0,0-1.3,0L.65,2.426A1.3,1.3,0,0,0,0,3.552v4.5A1.3,1.3,0,0,0,.65,9.181l3.9,2.251a1.3,1.3,0,0,0,1.3,0l3.9-2.251a1.3,1.3,0,0,0,.65-1.126v-4.5A1.3,1.3,0,0,0,9.753,2.426ZM7.8,7.3,5.2,8.8,2.6,7.3v-3L5.2,2.8,7.8,4.3Z" transform="translate(6.507 51.361)" fill="#2a523b"/>
        <path id="Trazado_3117" data-name="Trazado 3117" d="M10.027,45.194,0,41.183,16.658,0l8.484,3.393.924,1.542Z" transform="translate(32.321 8.397) rotate(24)" fill="#67bc47" stroke="#67bc47" stroke-width="1"/>
        <path id="Trazado_3118" data-name="Trazado 3118" d="M21.574,52.495l-3.467-3.431S53.824,21.132,53.969,21.511s.524,1.177.407,1.44S22.783,53.872,22.783,53.872Z" fill="#4b9f2b" stroke="#4b9f2b" stroke-width="1"/>
        <path id="Trazado_2876" data-name="Trazado 2876" d="M44.667,34.431,55.3,23.972A12.422,12.422,0,0,0,68.347,18.15a11.849,11.849,0,0,0,1.229-9.183,12.051,12.051,0,0,0-5.733-7.348,12.431,12.431,0,0,0-16.806,4.43,11.841,11.841,0,0,0-1.41,8.424L35,24.923c-.265-.26-9.876,9.356-9.667,9.508L14.7,44.89A12.4,12.4,0,0,0,1.654,50.712,11.85,11.85,0,0,0,.425,59.9a12.051,12.051,0,0,0,5.733,7.348,12.437,12.437,0,0,0,16.806-4.429,11.841,11.841,0,0,0,1.41-8.424L35,43.939ZM49.4,7.394A9.669,9.669,0,0,1,62.477,3.949a9.372,9.372,0,0,1,4.458,5.714,9.214,9.214,0,0,1-.956,7.141,9.657,9.657,0,0,1-10.412,4.473l-7.2-7.069A9.208,9.208,0,0,1,49.4,7.394ZM20.6,61.468A9.669,9.669,0,0,1,7.524,64.913,9.372,9.372,0,0,1,3.066,59.2a9.215,9.215,0,0,1,.956-7.141,9.657,9.657,0,0,1,10.412-4.473l7.2,7.069A9.209,9.209,0,0,1,20.6,61.468Zm2.272-9.4-5.8-5.7L47.132,16.795l5.8,5.7ZM42.733,36.333Z" transform="translate(0 0)" fill="#2a523b"/>
      </g>
    </g>
  </g>
</svg>
