<svg xmlns="http://www.w3.org/2000/svg" width="202.479" height="183.382" viewBox="0 0 202.479 183.382">
  <g id="Componente_164_1" data-name="Componente 164 – 1" transform="translate(0.75)">
    <g id="Grupo_2865" data-name="Grupo 2865" transform="translate(19006.563 598.325)">
      <ellipse id="Elipse_64" data-name="Elipse 64" cx="91.69" cy="91.691" rx="91.69" ry="91.691" transform="translate(-18988.215 -598.325)" fill="#192e1f" opacity="0.11"/>
      <g id="Elipse_88" data-name="Elipse 88" transform="translate(-18976.25 -583.502)" fill="#9bd3f8" stroke="#004e37" stroke-width="2">
        <ellipse cx="80.241" cy="78.223" rx="80.241" ry="78.223" stroke="none"/>
        <ellipse cx="80.241" cy="78.223" rx="79.241" ry="77.223" fill="none"/>
      </g>
      <path id="Trazado_2122" data-name="Trazado 2122" d="M129.307,597.1a7.194,7.194,0,0,1-7.207,7.181h-.043a7.28,7.28,0,0,1-7.361-7.2q0-.064,0-.129a7.269,7.269,0,0,1,7.291-7.174,7.188,7.188,0,0,1,7.32,7.053Q129.31,596.971,129.307,597.1Z" transform="translate(-18998.049 -1052.468)" fill="#253826"/>
      <path id="Trazado_2123" data-name="Trazado 2123" d="M470.236,324.154c-2.432,0-4.866.029-7.3-.006a5.984,5.984,0,1,1-.047-11.957q7.4-.069,14.81,0a5.976,5.976,0,1,1,.047,11.95C475.245,324.193,472.741,324.154,470.236,324.154Zm.138-9.893c-2.43,0-4.861-.022-7.291.006-2.672.03-4.354,1.591-4.324,3.957.03,2.28,1.681,3.823,4.224,3.838q7.29.043,14.582,0c2.532-.016,4.2-1.579,4.234-3.846.032-2.337-1.686-3.92-4.349-3.952-2.359-.026-4.718,0-7.077,0Z" transform="translate(-19306.182 -866.828)" fill="#253826"/>
      <path id="Trazado_2124" data-name="Trazado 2124" d="M425.494,569.61a6.682,6.682,0,0,1-6.8-6.561,6.753,6.753,0,1,1,13.505-.075,6.634,6.634,0,0,1-6.631,6.637Zm-.106-11.286a4.634,4.634,0,0,0-4.6,4.661,4.7,4.7,0,0,0,4.64,4.661,4.831,4.831,0,0,0,4.756-4.814,4.725,4.725,0,0,0-4.8-4.509Z" transform="translate(-19250.266 -1069.638)" fill="#253826"/>
      <path id="Trazado_2127" data-name="Trazado 2127" d="M409.676,602.879q7.705,0,15.411,0c1.14,0,2.6-.129,2.679.888.09,1.094-1.337,1.161-2.687,1.167q-15.232.05-30.464.1c-1.375,0-2.793-.145-2.827-1.144-.037-1.093,1.54-1.085,2.831-1.089,5.019-.015,10.038-.006,15.059-.006Z" transform="translate(-19252.908 -1073.557)" fill="#253826"/>
      <path id="Trazado_2128" data-name="Trazado 2128" d="M68.233,465.211a3.592,3.592,0,0,1,3.505,3.613,3.539,3.539,0,0,1-7.072-.006q0-.04,0-.08a3.546,3.546,0,0,1,3.565-3.528Zm-.02,2.079a1.365,1.365,0,0,0-1.45,1.478,1.348,1.348,0,0,0,1.281,1.412h.037a1.372,1.372,0,0,0,1.564-1.148,1.527,1.527,0,0,0-1.433-1.745Z" transform="translate(-18935.688 -902.125)" fill="#253826"/>
      <path id="Trazado_2130" data-name="Trazado 2130" d="M501.382,445.084a2.815,2.815,0,0,1-2.771-2.857V442.2a2.769,2.769,0,1,1,5.538-.022,2.839,2.839,0,0,1-2.768,2.909Z" transform="translate(-19380.668 -881.562)" fill="#253826"/>
      <path id="Trazado_2133" data-name="Trazado 2133" d="M401.449,590.675c-2.205,0-4.411.013-6.615,0-1.688-.01-2.916-.32-2.909-1,.012-.531,1.134-.957,2.5-.952h.017q7.156-.065,14.317.018c1.323.006,2.384.426,2.37.939a.529.529,0,0,1-.007.058c0,.512-1.063.929-2.384.93h-.125C406.229,590.7,403.84,590.673,401.449,590.675Z" transform="translate(-19250.768 -1065.517)" fill="#253826"/>
      <path id="Trazado_2176" data-name="Trazado 2176" d="M473.143,317.036c2.359,0,4.718-.022,7.076.006,2.663.031,4.381,1.614,4.349,3.952-.031,2.266-1.7,3.828-4.234,3.845q-7.291.046-14.582,0c-2.543-.015-4.194-1.559-4.224-3.838-.03-2.366,1.652-3.929,4.324-3.957C468.282,317.015,470.713,317.036,473.143,317.036Z" transform="translate(-19308.951 -869.603)" fill="#fff"/>
      <path id="Trazado_2177" data-name="Trazado 2177" d="M428.165,561.088a4.725,4.725,0,0,1,4.8,4.509,4.831,4.831,0,0,1-4.756,4.814,4.7,4.7,0,0,1-4.638-4.661A4.633,4.633,0,0,1,428.165,561.088Z" transform="translate(-19253.041 -1072.402)" fill="#fff"/>
      <path id="Trazado_2179" data-name="Trazado 2179" d="M70.992,470.041a1.409,1.409,0,0,1,1.449,1.523,1.372,1.372,0,0,1-1.36,1.385,1.413,1.413,0,0,1-.221-.016,1.348,1.348,0,0,1-1.319-1.377c0-.012,0-.024,0-.037A1.365,1.365,0,0,1,70.992,470.041Z" transform="translate(-18938.465 -904.878)" fill="#fff"/>
      <path id="Trazado_2625" data-name="Trazado 2625" d="M1203.276,78.415h-1.307a6.708,6.708,0,0,0-9.789-7.864,9.3,9.3,0,0,0-17.658,4.058,4.441,4.441,0,0,0-5.608,3.806h-7.457a5.643,5.643,0,0,0,0,11.287h41.819a5.643,5.643,0,0,0,0-11.287Z" transform="translate(-20161.537 -598.452)" fill="#fff"/>
      <path id="Trazado_2626" data-name="Trazado 2626" d="M1160.863,89.948a6.483,6.483,0,0,1,0-12.966h6.753l.071-.235a5.257,5.257,0,0,1,5.058-3.734l.392.006.039-.294a10.178,10.178,0,0,1,10.062-8.817,10.073,10.073,0,0,1,8.546,4.688l.148.233.257-.1a7.473,7.473,0,0,1,2.8-.544,7.566,7.566,0,0,1,7.559,7.557,7.444,7.444,0,0,1-.051.873l-.043.363.366.008a6.483,6.483,0,0,1-.138,12.965Zm0-11.286a4.8,4.8,0,0,0,0,9.606h41.82a4.8,4.8,0,0,0,0-9.606h-1.307a.841.841,0,0,1-.8-1.1,5.868,5.868,0,0,0-8.563-6.881.84.84,0,0,1-1.181-.352,8.464,8.464,0,0,0-16.064,3.691.841.841,0,0,1-1.061.807,3.751,3.751,0,0,0-.987-.134,3.591,3.591,0,0,0-3.564,3.221.839.839,0,0,1-.835.75Z" transform="translate(-20160.943 -598.823)" fill="#253826" stroke="#253826" stroke-width="1.5"/>
      <path id="Trazado_2127-2" data-name="Trazado 2127" d="M404.28,602.879c3.588,0,7.175-.005,10.763,0,.8,0,1.812-.129,1.871.888.063,1.094-.934,1.161-1.877,1.167q-10.638.05-21.276.1c-.96,0-1.951-.145-1.974-1.144-.026-1.093,1.076-1.085,1.977-1.089,3.505-.015,7.011-.006,10.517-.006Z" transform="translate(-19370.031 -1070.92)" fill="#253826"/>
      <path id="Trazado_2133-2" data-name="Trazado 2133" d="M401.449,590.675c-2.205,0-4.411.013-6.615,0-1.688-.01-2.916-.32-2.909-1,.012-.531,1.134-.957,2.5-.952h.017q7.156-.065,14.317.018c1.323.006,2.384.426,2.37.939a.529.529,0,0,1-.007.058c0,.512-1.063.929-2.384.93h-.125C406.229,590.7,403.84,590.673,401.449,590.675Z" transform="translate(-19359.273 -1062.881)" fill="#253826"/>
      <path id="Trazado_2127-3" data-name="Trazado 2127" d="M395.294,602.879c1.007,0,2.014-.005,3.022,0,.224,0,.509-.129.525.888.018,1.094-.262,1.161-.527,1.167q-2.987.05-5.974.1c-.27,0-.548-.145-.554-1.144-.007-1.093.3-1.085.555-1.089.984-.015,1.968-.006,2.953-.006Z" transform="translate(-19377.92 -1070.92)" fill="#253826"/>
      <path id="Trazado_2133-3" data-name="Trazado 2133" d="M394.461,590.675c-.587,0-1.175.013-1.762,0-.45-.01-.777-.32-.775-1,0-.531.3-.957.667-.952h0q1.906-.065,3.813.018c.352.006.635.426.631.939,0,.019,0,.039,0,.058,0,.512-.283.929-.635.93h-.033C395.734,590.7,395.1,590.673,394.461,590.675Z" transform="translate(-19365.365 -1062.881)" fill="#253826"/>
      <path id="Trazado_2122-2" data-name="Trazado 2122" d="M123.21,594.049a4.192,4.192,0,0,1-4.2,4.184h-.025a4.242,4.242,0,0,1-4.289-4.194c0-.025,0-.05,0-.075a4.236,4.236,0,0,1,4.248-4.18,4.188,4.188,0,0,1,4.265,4.11Q123.211,593.971,123.21,594.049Z" transform="translate(-19011.793 -1176.471)" fill="#253826"/>
      <path id="Trazado_2124-2" data-name="Trazado 2124" d="M423.785,566.248a5,5,0,0,1-5.087-4.912,5.055,5.055,0,1,1,10.11-.056,4.966,4.966,0,0,1-4.964,4.969Zm-.079-8.449a3.468,3.468,0,0,0-3.44,3.49,3.519,3.519,0,0,0,3.473,3.49,3.617,3.617,0,0,0,3.56-3.6,3.537,3.537,0,0,0-3.593-3.375Z" transform="translate(-19351.609 -1132.358)" fill="#253826"/>
      <path id="Trazado_2177-2" data-name="Trazado 2177" d="M427.009,561.088a3.537,3.537,0,0,1,3.591,3.375,3.617,3.617,0,0,1-3.56,3.6,3.519,3.519,0,0,1-3.472-3.489A3.469,3.469,0,0,1,427.009,561.088Z" transform="translate(-19354.912 -1135.647)" fill="#fff"/>
      <path id="Trazado_2124-3" data-name="Trazado 2124" d="M423.785,566.248a5,5,0,0,1-5.087-4.912,5.055,5.055,0,1,1,10.11-.056,4.966,4.966,0,0,1-4.964,4.969Zm-.079-8.449a3.468,3.468,0,0,0-3.44,3.49,3.519,3.519,0,0,0,3.473,3.49,3.617,3.617,0,0,0,3.56-3.6,3.537,3.537,0,0,0-3.593-3.375Z" transform="translate(-19326.539 -1012.7)" fill="#253826"/>
      <path id="Trazado_2177-3" data-name="Trazado 2177" d="M427.009,561.088a3.537,3.537,0,0,1,3.591,3.375,3.617,3.617,0,0,1-3.56,3.6,3.519,3.519,0,0,1-3.472-3.489A3.469,3.469,0,0,1,427.009,561.088Z" transform="translate(-19329.842 -1015.989)" fill="#fff"/>
      <g id="Grupo_1982" data-name="Grupo 1982" transform="translate(-18983.301 -511.63)">
        <path id="Trazado_2621" data-name="Trazado 2621" d="M1286.3,117.21h-2.936c0-.094.013-.186.013-.28a4.947,4.947,0,0,0-8.332-3.614,6.86,6.86,0,0,0-13.065,3.894h-.523a4.325,4.325,0,0,0,0,8.649H1286.3a4.325,4.325,0,0,0,0-8.649Z" transform="translate(-1255.592 -107.628)" fill="#fff"/>
        <path id="Trazado_2622" data-name="Trazado 2622" d="M1261.572,127.516a5.871,5.871,0,0,1-1.547-11.533l.413-.112.036-.427a8.413,8.413,0,0,1,14.909-4.6l.287.351.418-.173a6.438,6.438,0,0,1,2.451-.481,6.515,6.515,0,0,1,6.268,4.783l.123.45h1.485a5.87,5.87,0,0,1,0,11.74Zm0-8.649a2.78,2.78,0,0,0,0,5.56h24.842a2.78,2.78,0,0,0,0-5.56h-2.935a1.545,1.545,0,0,1-1.544-1.6l.009-.163a3.446,3.446,0,0,0-1-2.477,3.388,3.388,0,0,0-4.725-.073,1.534,1.534,0,0,1-1.053.416,1.571,1.571,0,0,1-.318-.032,1.542,1.542,0,0,1-1.1-.9,5.323,5.323,0,0,0-10.209,2.109,5.246,5.246,0,0,0,.085.912,1.546,1.546,0,0,1-1.523,1.8Z" transform="translate(-1255.704 -107.74)" fill="#243825"/>
      </g>
      <g id="message" transform="translate(-18956.543 -550.194)">
        <g id="Grupo_2861" data-name="Grupo 2861" transform="translate(1.784 1.898)">
          <g id="Grupo_2859" data-name="Grupo 2859">
            <path id="Trazado_3049" data-name="Trazado 3049" d="M284.672,177.683c0-15.668-15.357-28.37-34.3-28.37s-34.3,12.7-34.3,28.37,15.357,28.37,34.3,28.37h.139a2.579,2.579,0,0,1,2.269,1.378c4.449,8.2,15.006,10.3,19.149,10.81a.853.853,0,0,0,.773-1.313,41.014,41.014,0,0,1-5.046-12.375,2.845,2.845,0,0,1,1.384-3.069C278.45,196.426,284.672,187.656,284.672,177.683Z" transform="translate(-166.465 -134.372)" fill="#bdd63f"/>
            <path id="Trazado_3050" data-name="Trazado 3050" d="M354.954,201.485c9.408-5.059,15.63-13.829,15.63-23.8,0-15.668-15.357-28.37-34.3-28.37a41.321,41.321,0,0,0-7.49.68c15.341,2.827,26.81,14.15,26.81,27.69,0,9.973-6.222,18.743-15.63,23.8a2.845,2.845,0,0,0-1.384,3.069,32.386,32.386,0,0,0,1.423,4.914c4.951,6.522,14.054,8.305,17.83,8.774a.853.853,0,0,0,.773-1.313,41.011,41.011,0,0,1-5.046-12.375A2.845,2.845,0,0,1,354.954,201.485Z" transform="translate(-252.377 -134.372)" fill="#adc91f"/>
            <path id="Trazado_3051" data-name="Trazado 3051" d="M52.562,90.269C27.675,90.269,7.5,106.956,7.5,127.541a33.351,33.351,0,0,0,9.805,23.213,3.1,3.1,0,0,1,.73,2.908c-2.159,8.415-7.157,15.917-9.405,19a.924.924,0,0,0,.7,1.484c4.987-.132,18.976-1.32,27.446-10.18a2.694,2.694,0,0,1,2.62-.769,53.794,53.794,0,0,0,13.16,1.617c24.887,0,45.062-16.687,45.062-37.272S77.449,90.269,52.562,90.269Z" transform="translate(-7.5 -90.269)" fill="#67bc47"/>
            <g id="Grupo_2858" data-name="Grupo 2858" transform="translate(0.947 0)">
              <path id="Trazado_3052" data-name="Trazado 3052" d="M28.076,364.2c-5.063,5.735-7.965,8.236-15.521,10.816-.327.472-.626.893-.888,1.251a.924.924,0,0,0,.7,1.484c4.987-.132,18.976-1.32,27.446-10.18a2.694,2.694,0,0,1,2.62-.769l-.007-.013a50.013,50.013,0,0,1-9.739-3.545A3.856,3.856,0,0,0,28.076,364.2Z" transform="translate(-11.483 -293.874)" fill="#55a737"/>
              <path id="Trazado_3053" data-name="Trazado 3053" d="M172.961,90.269a54.608,54.608,0,0,0-7.49.515c21.322,2.951,37.572,18.283,37.572,36.756s-16.242,33.8-37.556,36.754a54.529,54.529,0,0,0,7.474.518c24.887,0,45.062-16.687,45.062-37.272s-20.175-37.272-45.062-37.272Z" transform="translate(-128.846 -90.269)" fill="#55a737"/>
            </g>
          </g>
          <g id="Grupo_2860" data-name="Grupo 2860" transform="translate(20.45 32.381)">
            <ellipse id="Elipse_138" data-name="Elipse 138" cx="4.398" cy="4.68" rx="4.398" ry="4.68" fill="#f0f7ff"/>
            <ellipse id="Elipse_139" data-name="Elipse 139" cx="4.398" cy="4.68" rx="4.398" ry="4.68" transform="translate(21.998)" fill="#f0f7ff"/>
            <ellipse id="Elipse_140" data-name="Elipse 140" cx="4.398" cy="4.68" rx="4.398" ry="4.68" transform="translate(43.997)" fill="#f0f7ff"/>
          </g>
        </g>
        <g id="Grupo_2862" data-name="Grupo 2862" transform="translate(0 0)">
          <path id="Trazado_3054" data-name="Trazado 3054" d="M93.692,121.939c0-23.661-23.442-39.17-46.846-39.17C23.349,82.769,0,98.351,0,121.939a35.5,35.5,0,0,0,10.344,24.572,1.117,1.117,0,0,1,.255,1.049C8.5,155.726,3.541,163.1,1.505,165.9a2.942,2.942,0,0,0-.272,3A2.613,2.613,0,0,0,3.6,170.441h.068c9.964-.264,21.513-3.256,28.652-10.724a.978.978,0,0,1,.958-.276,55.51,55.51,0,0,0,13.572,1.668C70.336,161.108,93.692,145.533,93.692,121.939ZM34.1,155.747a4.384,4.384,0,0,0-4.282,1.262c-7.139,7.468-18.8,9.166-24.316,9.543a60.6,60.6,0,0,0,8.541-17.993,5.079,5.079,0,0,0-1.206-4.766c-6.063-6.291-9.267-13.848-9.267-21.855,0-19.505,19.414-35.374,43.278-35.374s43.278,15.868,43.278,35.374S70.71,157.312,46.846,157.312A52.164,52.164,0,0,1,34.1,155.747Z" transform="translate(0 -82.769)" fill="#253826"/>
          <path id="Trazado_3055" data-name="Trazado 3055" d="M354.383,198.948c10.4-5.592,16.61-15.123,16.61-25.5,0-14.659-12.455-27.185-29.615-29.784a1.806,1.806,0,0,0-2.017,1.611,1.882,1.882,0,0,0,1.515,2.146c15.385,2.33,26.55,13.276,26.55,26.027,0,8.91-5.477,17.175-14.651,22.108a4.789,4.789,0,0,0-2.324,5.157,40.987,40.987,0,0,0,4.2,11.1c-10.534-1.865-14.527-7.243-15.789-9.571a4.359,4.359,0,0,0-3.81-2.328h-.145a39.94,39.94,0,0,1-5.887-.434,1.807,1.807,0,0,0-2.014,1.615,1.882,1.882,0,0,0,1.518,2.143,43.333,43.333,0,0,0,6.383.471h.148a.815.815,0,0,1,.716.429c4.831,8.908,15.937,11.183,20.488,11.747a2.521,2.521,0,0,0,2.5-1.278,2.878,2.878,0,0,0-.018-2.945,38.933,38.933,0,0,1-4.8-11.745A.911.911,0,0,1,354.383,198.948Z" transform="translate(-249.218 -128.243)" fill="#253826"/>
          <path id="Trazado_3057" data-name="Trazado 3057" d="M134.6,210.733a6.59,6.59,0,1,0,6.182,6.577A6.4,6.4,0,0,0,134.6,210.733Zm0,9.36a2.787,2.787,0,1,1,2.615-2.782A2.705,2.705,0,0,1,134.6,220.093Z" transform="translate(-108.978 -178.352)" fill="#253826"/>
          <path id="Trazado_3058" data-name="Trazado 3058" d="M208.752,210.733a6.59,6.59,0,1,0,6.182,6.577A6.4,6.4,0,0,0,208.752,210.733Zm0,9.36a2.787,2.787,0,1,1,2.615-2.782A2.705,2.705,0,0,1,208.752,220.093Z" transform="translate(-160.446 -178.352)" fill="#253826"/>
          <path id="Trazado_3059" data-name="Trazado 3059" d="M282.906,210.733a6.59,6.59,0,1,0,6.182,6.577A6.4,6.4,0,0,0,282.906,210.733Zm0,9.36a2.787,2.787,0,1,1,2.615-2.782A2.705,2.705,0,0,1,282.906,220.093Z" transform="translate(-210.908 -178.352)" fill="#253826"/>
        </g>
      </g>
      <g id="Grupo_2863" data-name="Grupo 2863" transform="translate(-18888.877 -552.097)">
        <path id="Trazado_2621-2" data-name="Trazado 2621" d="M1286.3,117.21h-2.936c0-.094.013-.186.013-.28a4.947,4.947,0,0,0-8.332-3.614,6.86,6.86,0,0,0-13.065,3.894h-.523a4.325,4.325,0,0,0,0,8.649H1286.3a4.325,4.325,0,0,0,0-8.649Z" transform="translate(-1255.592 -107.628)" fill="#fff"/>
        <path id="Trazado_2622-2" data-name="Trazado 2622" d="M1261.572,127.516a5.871,5.871,0,0,1-1.547-11.533l.413-.112.036-.427a8.413,8.413,0,0,1,14.909-4.6l.287.351.418-.173a6.438,6.438,0,0,1,2.451-.481,6.515,6.515,0,0,1,6.268,4.783l.123.45h1.485a5.87,5.87,0,0,1,0,11.74Zm0-8.649a2.78,2.78,0,0,0,0,5.56h24.842a2.78,2.78,0,0,0,0-5.56h-2.935a1.545,1.545,0,0,1-1.544-1.6l.009-.163a3.446,3.446,0,0,0-1-2.477,3.388,3.388,0,0,0-4.725-.073,1.534,1.534,0,0,1-1.053.416,1.571,1.571,0,0,1-.318-.032,1.542,1.542,0,0,1-1.1-.9,5.323,5.323,0,0,0-10.209,2.109,5.246,5.246,0,0,0,.085.912,1.546,1.546,0,0,1-1.523,1.8Z" transform="translate(-1255.704 -107.74)" fill="#243825"/>
      </g>
    </g>
  </g>
</svg>
