<svg id="Componente_171_1" data-name="Componente 171 – 1" xmlns="http://www.w3.org/2000/svg" width="182.998" height="183.247" viewBox="0 0 182.998 183.247">
  <g id="Grupo_2911" data-name="Grupo 2911" transform="translate(-5948 -1360.753)">
    <circle id="Elipse_64" data-name="Elipse 64" cx="91.499" cy="91.499" r="91.499" transform="translate(5948 1361.002)" fill="#192e1f" opacity="0.11"/>
    <g id="Grupo_2829" data-name="Grupo 2829" transform="translate(5950.187 1360.753)">
      <g id="Elipse_88" data-name="Elipse 88" transform="translate(11.571 18.165)" fill="#9bd3f8" stroke="#253826" stroke-width="2">
        <ellipse cx="77.606" cy="75.363" rx="77.606" ry="75.363" stroke="none"/>
        <ellipse cx="77.606" cy="75.363" rx="76.606" ry="74.363" fill="none"/>
      </g>
      <path id="Trazado_2122" data-name="Trazado 2122" d="M128.3,596.6a6.7,6.7,0,0,1-6.711,6.687h-.04a6.779,6.779,0,0,1-6.854-6.7q0-.06,0-.12a6.769,6.769,0,0,1,6.789-6.68,6.693,6.693,0,0,1,6.816,6.568Q128.3,596.476,128.3,596.6Z" transform="translate(-12.528 -460.859)" fill="#253826"/>
      <path id="Trazado_2123" data-name="Trazado 2123" d="M469.3,323.328c-2.265,0-4.531.027-6.8-.006a5.572,5.572,0,1,1-.044-11.134q6.895-.064,13.791,0a5.565,5.565,0,1,1,.044,11.127C473.966,323.364,471.634,323.328,469.3,323.328Zm.128-9.212c-2.263,0-4.526-.02-6.789.005-2.488.028-4.055,1.482-4.026,3.685.028,2.123,1.565,3.56,3.933,3.574q6.788.04,13.578,0c2.358-.015,3.914-1.47,3.943-3.581.03-2.176-1.57-3.651-4.049-3.68-2.2-.024-4.393,0-6.59,0Z" transform="translate(-304.151 -282.345)" fill="#253826"/>
      <path id="Trazado_2124" data-name="Trazado 2124" d="M425.026,568.689a6.222,6.222,0,0,1-6.328-6.11,6.288,6.288,0,1,1,12.575-.07,6.177,6.177,0,0,1-6.175,6.18Zm-.1-10.509a4.315,4.315,0,0,0-4.28,4.341,4.377,4.377,0,0,0,4.32,4.341,4.5,4.5,0,0,0,4.429-4.483,4.4,4.4,0,0,0-4.469-4.2Z" transform="translate(-260.237 -479.023)" fill="#253826"/>
      <path id="Trazado_2127" data-name="Trazado 2127" d="M408.444,602.874q7.175,0,14.35,0c1.061,0,2.416-.12,2.494.827.084,1.019-1.245,1.081-2.5,1.087l-28.367.1c-1.28,0-2.6-.135-2.632-1.065-.034-1.017,1.434-1.011,2.636-1.014,4.673-.014,9.347-.006,14.022-.006Z" transform="translate(-250.078 -494.85)" fill="#253826"/>
      <path id="Trazado_2128" data-name="Trazado 2128" d="M67.988,465.211a3.345,3.345,0,0,1,3.264,3.365,3.3,3.3,0,0,1-6.586-.005q0-.037,0-.075a3.3,3.3,0,0,1,3.319-3.285Zm-.018,1.936a1.271,1.271,0,0,0-1.35,1.377,1.255,1.255,0,0,0,1.192,1.315h.035A1.278,1.278,0,0,0,69.3,468.77a1.422,1.422,0,0,0-1.334-1.625Z" transform="translate(67.825 -325.749)" fill="#253826"/>
      <path id="Trazado_2130" data-name="Trazado 2130" d="M501.191,444.691a2.621,2.621,0,0,1-2.581-2.66V442a2.579,2.579,0,1,1,5.157-.021,2.644,2.644,0,0,1-2.577,2.708Z" transform="translate(-382.676 -285.084)" fill="#253826"/>
      <path id="Trazado_2133" data-name="Trazado 2133" d="M400.793,590.539c-2.054,0-4.107.012-6.16,0-1.572-.009-2.715-.3-2.709-.934.011-.494,1.056-.891,2.331-.886h.015q6.664-.061,13.331.017c1.232.005,2.22.4,2.207.874a.517.517,0,0,1-.006.055c0,.477-.99.865-2.22.866h-.116C405.244,590.559,403.019,590.536,400.793,590.539Z" transform="translate(-248.093 -486.392)" fill="#253826"/>
      <path id="Trazado_2176" data-name="Trazado 2176" d="M472.343,317.035c2.2,0,4.393-.021,6.589.005,2.48.029,4.079,1.5,4.049,3.68-.028,2.11-1.585,3.565-3.943,3.581q-6.789.043-13.578,0c-2.368-.014-3.905-1.452-3.933-3.574-.028-2.2,1.538-3.659,4.026-3.685C467.817,317.016,470.08,317.036,472.343,317.035Z" transform="translate(-307.063 -285.264)" fill="#fff"/>
      <path id="Trazado_2177" data-name="Trazado 2177" d="M427.848,561.088a4.4,4.4,0,0,1,4.468,4.2,4.5,4.5,0,0,1-4.429,4.483,4.377,4.377,0,0,1-4.319-4.34A4.314,4.314,0,0,1,427.848,561.088Z" transform="translate(-263.157 -481.931)" fill="#fff"/>
      <path id="Trazado_2179" data-name="Trazado 2179" d="M70.893,470.041a1.312,1.312,0,0,1,1.349,1.418,1.278,1.278,0,0,1-1.266,1.289,1.319,1.319,0,0,1-.205-.015,1.255,1.255,0,0,1-1.228-1.282c0-.012,0-.023,0-.034A1.271,1.271,0,0,1,70.893,470.041Z" transform="translate(64.901 -328.644)" fill="#fff"/>
      <g id="search_2_" data-name="search (2)" transform="translate(14.101 15.702)">
        <path id="Trazado_2934" data-name="Trazado 2934" d="M228.142,24.68a50.44,50.44,0,1,1-71.331,0A50.442,50.442,0,0,1,228.142,24.68Z" transform="translate(-102.243 -7.133)" fill="#707070"/>
        <path id="Trazado_2935" data-name="Trazado 2935" d="M249.031,61.429a39.233,39.233,0,0,0-62.908,10.354.021.021,0,0,0-.006.014,39.294,39.294,0,0,0,7.437,45.109c19.128,19.132,51.453,13.455,63.015-10.578a33.978,33.978,0,0,0,1.743-4.186A39.278,39.278,0,0,0,249.031,61.429Z" transform="translate(-131.06 -35.953)" fill="#d4e9ff"/>
        <path id="Trazado_2936" data-name="Trazado 2936" d="M150.293,302.313l-12.108,12.105,7.927,7.927,12.105-12.108Z" transform="translate(-99.47 -217.614)" fill="#b8ba16"/>
        <path id="Trazado_2937" data-name="Trazado 2937" d="M53.849,349.23a5.6,5.6,0,0,1,0,7.925l-24.7,24.7A11.207,11.207,0,0,1,13.3,366.007L38,341.3a5.6,5.6,0,0,1,7.925,0Z" transform="translate(-7.206 -244.499)" fill="#649921"/>
        <path id="Trazado_2938" data-name="Trazado 2938" d="M249.2,105.1a42.037,42.037,0,0,0-55.223-60.038,2.8,2.8,0,1,0,2.722,4.9,36.425,36.425,0,1,1-14.6,14.59,2.8,2.8,0,1,0-4.91-2.7c-.172.312-.477.895-.772,1.492h0A42.034,42.034,0,0,0,249.2,105.1Z" transform="translate(-123.869 -28.75)" fill="#253826"/>
        <path id="Trazado_2939" data-name="Trazado 2939" d="M28.809,94.824l-24.7,24.7A14.009,14.009,0,1,0,23.92,139.339l24.7-24.7a8.406,8.406,0,0,0,1.644-9.569L59,96.337A53.238,53.238,0,1,0,47.111,84.45l-8.732,8.73A8.406,8.406,0,0,0,28.809,94.824Zm23.776-3.962c.659.659,1.339,1.3,2.034,1.928l-7.978,7.979-3.964-3.964,7.98-7.978C51.284,89.523,51.927,90.2,52.586,90.862Zm-7.925,19.814-24.7,24.7A8.4,8.4,0,0,1,8.071,123.49l24.7-24.7a2.8,2.8,0,0,1,3.961,0l7.927,7.927A2.8,2.8,0,0,1,44.661,110.675ZM56.548,19.531a47.637,47.637,0,1,1,0,67.368A47.7,47.7,0,0,1,56.548,19.531Z" transform="translate(0 -0.001)" fill="#253826"/>
        <path id="Trazado_2940" data-name="Trazado 2940" d="M213.944,85.777a2.8,2.8,0,0,0,3.959-3.962.792.792,0,0,0-.067-.073,2.8,2.8,0,0,0-3.965,3.965C213.9,85.732,213.919,85.755,213.944,85.777Z" transform="translate(-153.361 -58.251)" fill="#253826"/>
      </g>
      <path id="Trazado_2625" data-name="Trazado 2625" d="M1200.009,77.515h-1.217a6.246,6.246,0,0,0-9.115-7.323,8.663,8.663,0,0,0-16.442,3.778,4.135,4.135,0,0,0-5.222,3.544h-6.944a5.255,5.255,0,0,0,0,10.51h38.94a5.255,5.255,0,0,0,0-10.51Z" transform="translate(-1155.033 -16.35)" fill="#fff"/>
      <path id="Trazado_2626" data-name="Trazado 2626" d="M1160.417,88.155a6.037,6.037,0,0,1,0-12.074h6.288l.066-.219a4.9,4.9,0,0,1,4.71-3.477l.365.006.036-.274a9.478,9.478,0,0,1,9.369-8.21,9.379,9.379,0,0,1,7.958,4.366l.138.217.239-.1a6.958,6.958,0,0,1,2.609-.506,7.046,7.046,0,0,1,7.038,7.037,6.924,6.924,0,0,1-.048.813l-.04.338.341.007a6.037,6.037,0,0,1-.129,12.072Zm0-10.509a4.472,4.472,0,0,0,0,8.945h38.941a4.472,4.472,0,0,0,0-8.945h-1.217a.783.783,0,0,1-.744-1.026,5.464,5.464,0,0,0-7.974-6.407.784.784,0,0,1-.4.109.776.776,0,0,1-.223-.033.785.785,0,0,1-.479-.4,7.881,7.881,0,0,0-14.958,3.437.783.783,0,0,1-.988.751,3.494,3.494,0,0,0-.919-.125,3.343,3.343,0,0,0-3.318,3,.781.781,0,0,1-.778.7Z" transform="translate(-1154.382 -15.699)" fill="#253826" stroke="#253826" stroke-width="1.5"/>
      <path id="Trazado_2127-2" data-name="Trazado 2127" d="M403.42,602.874c3.341,0,6.681-.005,10.022,0,.741,0,1.688-.12,1.742.827.059,1.019-.869,1.081-1.748,1.087l-19.812.1c-.894,0-1.816-.135-1.838-1.065-.024-1.017,1-1.011,1.841-1.014,3.264-.014,6.528-.006,9.793-.006Z" transform="translate(-369.905 -488.806)" fill="#253826"/>
      <path id="Trazado_2133-2" data-name="Trazado 2133" d="M400.793,590.539c-2.054,0-4.107.012-6.16,0-1.572-.009-2.715-.3-2.709-.934.011-.494,1.056-.891,2.331-.886h.015q6.664-.061,13.331.017c1.232.005,2.22.4,2.207.874a.517.517,0,0,1-.006.055c0,.477-.99.865-2.22.866h-.116C405.244,590.559,403.019,590.536,400.793,590.539Z" transform="translate(-359.895 -480.349)" fill="#253826"/>
      <path id="Trazado_2127-3" data-name="Trazado 2127" d="M395.053,602.874c.938,0,1.876-.005,2.814,0,.208,0,.474-.12.489.827.016,1.019-.244,1.081-.491,1.087l-5.562.1c-.251,0-.51-.135-.516-1.065-.007-1.017.281-1.011.517-1.014.916-.014,1.833-.006,2.75-.006Z" transform="translate(-377.247 -488.806)" fill="#253826"/>
      <path id="Trazado_2133-3" data-name="Trazado 2133" d="M394.286,590.539c-.547,0-1.094.012-1.641,0-.419-.009-.723-.3-.722-.934,0-.494.281-.891.621-.886h0q1.775-.061,3.551.017c.328.005.591.4.588.874,0,.018,0,.036,0,.055,0,.477-.264.865-.591.866h-.031C395.472,590.559,394.879,590.536,394.286,590.539Z" transform="translate(-365.569 -480.349)" fill="#253826"/>
      <path id="Trazado_2122-2" data-name="Trazado 2122" d="M122.624,593.755a3.9,3.9,0,0,1-3.91,3.9h-.024a3.95,3.95,0,0,1-3.994-3.905c0-.023,0-.047,0-.07a3.944,3.944,0,0,1,3.956-3.892,3.9,3.9,0,0,1,3.971,3.827Q122.625,593.683,122.624,593.755Z" transform="translate(-6.485 -589.783)" fill="#253826"/>
      <path id="Trazado_2124-2" data-name="Trazado 2124" d="M423.435,565.559a4.658,4.658,0,0,1-4.737-4.574,4.707,4.707,0,1,1,9.414-.052,4.624,4.624,0,0,1-4.622,4.626Zm-.074-7.867a3.23,3.23,0,0,0-3.2,3.249,3.277,3.277,0,0,0,3.234,3.249,3.368,3.368,0,0,0,3.315-3.356,3.294,3.294,0,0,0-3.345-3.143Z" transform="translate(-343.836 -546.398)" fill="#253826"/>
      <path id="Trazado_2177-2" data-name="Trazado 2177" d="M426.773,561.088a3.294,3.294,0,0,1,3.344,3.143,3.368,3.368,0,0,1-3.315,3.356,3.277,3.277,0,0,1-3.233-3.249A3.23,3.23,0,0,1,426.773,561.088Z" transform="translate(-347.246 -549.794)" fill="#fff"/>
      <path id="Trazado_2124-3" data-name="Trazado 2124" d="M423.435,565.559a4.658,4.658,0,0,1-4.737-4.574,4.707,4.707,0,1,1,9.414-.052,4.624,4.624,0,0,1-4.622,4.626Zm-.074-7.867a3.23,3.23,0,0,0-3.2,3.249,3.277,3.277,0,0,0,3.234,3.249,3.368,3.368,0,0,0,3.315-3.356,3.294,3.294,0,0,0-3.345-3.143Z" transform="translate(-351.894 -413.445)" fill="#253826"/>
      <path id="Trazado_2177-3" data-name="Trazado 2177" d="M426.773,561.088a3.294,3.294,0,0,1,3.344,3.143,3.368,3.368,0,0,1-3.315,3.356,3.277,3.277,0,0,1-3.233-3.249A3.23,3.23,0,0,1,426.773,561.088Z" transform="translate(-355.304 -416.841)" fill="#fff"/>
      <g id="Grupo_1982" data-name="Grupo 1982" transform="translate(27.941 69.891)">
        <path id="Trazado_2621" data-name="Trazado 2621" d="M1284.294,116.657h-2.734c0-.087.012-.174.012-.261a4.606,4.606,0,0,0-7.758-3.365,6.388,6.388,0,0,0-12.165,3.626h-.487a4.027,4.027,0,0,0,0,8.054h23.132a4.027,4.027,0,0,0,0-8.054Z" transform="translate(-1255.698 -107.734)" fill="#fff"/>
        <path id="Trazado_2622" data-name="Trazado 2622" d="M1261.168,126.154a5.467,5.467,0,0,1-1.441-10.739l.384-.1.034-.4a7.834,7.834,0,0,1,13.883-4.282l.267.327.389-.161a6,6,0,0,1,2.282-.448,6.066,6.066,0,0,1,5.837,4.454l.114.419h1.383a5.466,5.466,0,0,1,0,10.932Zm0-8.054a2.588,2.588,0,0,0,0,5.177H1284.3a2.588,2.588,0,0,0,0-5.177h-2.733a1.438,1.438,0,0,1-1.438-1.487l.008-.152a3.209,3.209,0,0,0-.935-2.307,3.154,3.154,0,0,0-4.4-.068,1.428,1.428,0,0,1-.98.387,1.465,1.465,0,0,1-.3-.03,1.436,1.436,0,0,1-1.027-.837,4.956,4.956,0,0,0-9.506,1.964,4.892,4.892,0,0,0,.079.849,1.44,1.44,0,0,1-1.418,1.68Z" transform="translate(-1255.704 -107.74)" fill="#243825"/>
      </g>
    </g>
  </g>
</svg>
