<svg width="16" height="16" viewBox="0 0 16 16" fill="none" xmlns="http://www.w3.org/2000/svg">
<g id="key">
<path id="Vector" d="M4.07796 9.08802C3.77811 9.08802 3.52224 8.98002 3.31034 8.76802C3.09845 8.55602 2.9905 8.30002 2.9905 8.00002C2.9905 7.70002 3.09845 7.44402 3.31034 7.23202C3.52224 7.02002 3.77811 6.91202 4.07796 6.91202C4.37781 6.91202 4.63368 7.02002 4.84558 7.23202C5.05747 7.44402 5.16542 7.70002 5.16542 8.00002C5.16542 8.30002 5.05747 8.55602 4.84558 8.76802C4.63368 8.98002 4.37781 9.08802 4.07796 9.08802ZM4.07796 12.08C2.94653 12.08 1.98301 11.684 1.18741 10.892C0.395802 10.096 0 9.13602 0 8.00002C0 6.86802 0.395802 5.90402 1.1914 5.10802C1.98301 4.31202 2.94653 3.91602 4.08196 3.91602C4.90555 3.91602 5.63718 4.12402 6.28086 4.54002C6.92454 4.95602 7.4083 5.54002 7.74013 6.29202H14.2209C14.2969 6.29202 14.3648 6.30402 14.4328 6.33202C14.5007 6.36002 14.5647 6.40402 14.6247 6.46402L15.8281 7.66802C15.8881 7.72802 15.932 7.79202 15.96 7.86402C15.984 7.93202 16 8.00401 16 8.08401C16 8.16401 15.984 8.23602 15.956 8.30002C15.928 8.36402 15.8841 8.42802 15.8201 8.49202L13.8731 10.336C13.8251 10.388 13.7691 10.428 13.7011 10.456C13.6332 10.484 13.5692 10.5 13.5012 10.5C13.4333 10.5 13.3693 10.496 13.3093 10.48C13.2494 10.464 13.1854 10.436 13.1254 10.392L12.058 9.60802L10.9065 10.448C10.8546 10.488 10.7986 10.516 10.7426 10.528C10.6867 10.54 10.6267 10.548 10.5667 10.548C10.5067 10.548 10.4468 10.54 10.3868 10.52C10.3268 10.5 10.2749 10.476 10.2269 10.44L9.21539 9.69202H7.74013C7.44428 10.388 6.97651 10.956 6.33683 11.404C5.70115 11.848 4.94953 12.072 4.08196 12.072L4.07796 12.08ZM4.07796 11.148C4.7976 11.148 5.44128 10.92 6.001 10.46C6.56072 10.004 6.92054 9.44002 7.08446 8.76802H9.53523L10.5667 9.54402C10.5747 9.54402 10.5747 9.54402 10.5667 9.54402L12.07 8.46402L13.4253 9.49602L14.9005 8.07202C14.9005 8.07202 14.9005 8.07202 14.9005 8.08002C14.9005 8.08402 14.9005 8.08002 14.9005 8.07202L14.061 7.23202H7.08446C6.93653 6.58402 6.58471 6.02802 6.02899 5.55602C5.47326 5.08802 4.82559 4.85202 4.08196 4.85202C3.21039 4.85202 2.46677 5.16002 1.85507 5.77202C1.24338 6.38402 0.935532 7.12802 0.935532 8.00002C0.935532 8.87202 1.24338 9.61601 1.85507 10.228C2.46677 10.84 3.21039 11.148 4.08196 11.148H4.07796Z" fill="black"/>
</g>
</svg>
