<svg xmlns="http://www.w3.org/2000/svg" width="178.172" height="157.134" viewBox="0 0 178.172 157.134">
    <defs>
        <style>
            .prefix__cls-1,.prefix__cls-2{fill:#fff}.prefix__cls-2{stroke:#101313;stroke-linecap:round;stroke-linejoin:round}
        </style>
    </defs>
    <g id="prefix__logo_vigilado" transform="translate(-164.243 -101.608)">
        <g id="prefix__Grupo_1984" data-name="Grupo 1984" transform="translate(165.653 101.608)">
            <path id="prefix__Trazado_1894" d="M168.591 312.776v2.961h4.078v-3.091h-.469v2.535h-1.375l-.046-2.275h-.479v2.275h-1.24v-2.405z" class="prefix__cls-1" data-name="Trazado 1894" transform="translate(-168.33 -231.524)"/>
            <path id="prefix__Trazado_1895" d="M172.378 209.489v-.518h-4.119v.518h4.119z" class="prefix__cls-1" data-name="Trazado 1895" transform="translate(-168.125 -167.701)"/>
            <path id="prefix__Trazado_1896" d="M168.142 152.2v.561h4.121v-.515h-3.22l.472-.343 2.747-1.806v-.556h-4.121v.511h3.219l-1.845 1.249z" class="prefix__cls-1" data-name="Trazado 1896" transform="translate(-168.053 -131.118)"/>
            <path id="prefix__Trazado_1897" d="M168.187 161.54l1.329.515 2.747 1.029v-.56l-1.244-.469v-1.72l1.244-.472v-.6l-2.747 1.113-1.373.561zm1.244-.6h.085l1.071-.432v1.415l-1.071-.382-.13-.088c-.258-.087-.513-.128-.775-.218a3.174 3.174 0 00.82-.296z" class="prefix__cls-1" data-name="Trazado 1897" transform="translate(-168.054 -137.102)"/>
            <path id="prefix__Trazado_1898" d="M172.377 197.993v-.646l-2.79 1.162-1.329.552v.567l1.329.514 2.79 1.071v-.6l-1.244-.428v-1.72zm-1.677 2.022l-1.114-.386-.085-.047a5.27 5.27 0 00-.82-.216c.262-.086.517-.166.861-.3h.043l1.114-.421z" class="prefix__cls-1" data-name="Trazado 1898" transform="translate(-168.125 -160.545)"/>
            <path id="prefix__Trazado_1899" d="M168.9 141.314c.17.04.3.125.472.17a3.287 3.287 0 00.642.042 2.475 2.475 0 001.116-.213 1.441 1.441 0 00.772-.649 1.842 1.842 0 00.26-1.071 1.619 1.619 0 00-1.371-1.676l-.133.516a1.367 1.367 0 01.777.43 1.209 1.209 0 01.257.768 1.086 1.086 0 01-.173.732 1.155 1.155 0 01-.6.474 3.109 3.109 0 01-.9.124 1.769 1.769 0 01-.642-.08.159.159 0 01-.13-.044 1.038 1.038 0 01-.6-.428 1.241 1.241 0 01-.256-.817 1.05 1.05 0 01.212-.644 1.067 1.067 0 01.646-.43l-.13-.561a1.881 1.881 0 00-.859.6 1.8 1.8 0 00-.343 1.034 1.893 1.893 0 00.261.989 1.988 1.988 0 00.722.734z" class="prefix__cls-1" data-name="Trazado 1899" transform="translate(-167.912 -123.961)"/>
            <path id="prefix__Trazado_1900" d="M172.149 105.429v-.555l-1.244-.479v-1.71l1.244-.479v-.6l-2.706 1.122-1.418.554v.6l1.418.512zm-2.88-1.629a5.176 5.176 0 00-.813-.218 5.317 5.317 0 00.858-.3l.13-.039 1.029-.393v1.417l-1.029-.386z" class="prefix__cls-1" data-name="Trazado 1900" transform="translate(-167.982 -101.608)"/>
            <path id="prefix__Trazado_1901" d="M168.142 134.792h4.121v-.555h-2.747l-1.374.041z" class="prefix__cls-1" data-name="Trazado 1901" transform="translate(-168.053 -121.695)"/>
            <path id="prefix__Trazado_1902" d="M169.443 115.608h2.706v-.562h-1.806v-.9c.047-.087.047-.174.13-.263a1.708 1.708 0 01.258-.3c.133-.078.3-.214.559-.381l.861-.515V112l-1.116.688a7.164 7.164 0 00-.56.469 1.147 1.147 0 00-.168.349 1.955 1.955 0 00-.391-.9.681.681 0 00-.47-.219.6.6 0 00-.26-.039 1.008 1.008 0 00-.644.173.94.94 0 00-.382.423 2.264 2.264 0 00-.132.867l.045 1.8zm-.945-1.847a.914.914 0 01.17-.648.582.582 0 01.515-.211.6.6 0 01.26.039.122.122 0 00.085.048.515.515 0 01.255.341 1.566 1.566 0 01.088.556v1.159h-.428l-.945.046z" class="prefix__cls-1" data-name="Trazado 1902" transform="translate(-167.982 -108.006)"/>
            <path id="prefix__Trazado_1903" d="M172.334 171.211v-.559h-4.076v.513h3.22l-1.892 1.248-1.329.943v.563l1.329-.047h2.747v-.516h-3.22l.472-.3z" class="prefix__cls-1" data-name="Trazado 1903" transform="translate(-168.125 -144.112)"/>
            <path id="prefix__Trazado_1904" d="M172.378 187.7h-1.891v-1.889h-.471v1.934h-1.289v-2.234h-.468v2.746h4.119z" class="prefix__cls-1" data-name="Trazado 1904" transform="translate(-168.125 -153.261)"/>
            <path id="prefix__Trazado_1905" d="M192.861 260.034v2.489h-1.371v-2.275h-.517v2.275h-1.244v-2.4h-.472v2.964h4.123l-.046-3.05z" class="prefix__cls-1" data-name="Trazado 1905" transform="translate(-181.052 -199.136)"/>
            <path id="prefix__Trazado_1906" d="M193.077 270.931a1.45 1.45 0 00-.343-.342 2.317 2.317 0 00-.6-.3h-.042a2.164 2.164 0 00-.772-.085h-.046a3.134 3.134 0 00-.944.127l-.046.037a1.62 1.62 0 00-.687.482 1.962 1.962 0 00-.3.6c0 .173-.04.386-.04.73v1.416h2.063v-.555h-1.591v-.862a2.181 2.181 0 01.087-.686 1.1 1.1 0 01.468-.517 1.752 1.752 0 01.989-.214h.046a2.01 2.01 0 01.772.091 1.487 1.487 0 01.515.293 1.635 1.635 0 01.215.389 2.481 2.481 0 01.04.605l.042.9h-1.583v.555h2.061v-1.5a2.63 2.63 0 00-.088-.646 1.4 1.4 0 00-.216-.518z" class="prefix__cls-1" data-name="Trazado 1906" transform="translate(-181.052 -205.395)"/>
            <path id="prefix__Trazado_1907" d="M190.076 216.331a3.88 3.88 0 001.035.175 2.47 2.47 0 00.772-.13c.085-.045.169-.092.258-.135a2.27 2.27 0 00.77-.681 2.04 2.04 0 00.261-1.033 2.014 2.014 0 00-.261-.99 1.7 1.7 0 00-.73-.729c-.084-.038-.171-.079-.3-.128a2.19 2.19 0 00-.772-.125h-.046a3.194 3.194 0 00-.989.174c-.042.041-.086.041-.128.079a2.4 2.4 0 00-.773.69 2.012 2.012 0 00-.257 1.029 1.911 1.911 0 00.6 1.414 2.639 2.639 0 00.56.39zm-.468-2.53a1.213 1.213 0 01.468-.475c.046 0 .086 0 .086-.044a2.862 2.862 0 01.9-.173h.046a2.066 2.066 0 01.772.173.882.882 0 01.386.216 1.331 1.331 0 01.426 1.029 1.245 1.245 0 01-.426.989.611.611 0 01-.386.256 1.968 1.968 0 01-.772.168 2.323 2.323 0 01-1.035-.207 1.531 1.531 0 01-.3-.218 1.374 1.374 0 01-.385-.989 1.418 1.418 0 01.22-.726z" class="prefix__cls-1" data-name="Trazado 1907" transform="translate(-180.843 -169.908)"/>
            <path id="prefix__Trazado_1908" d="M168.142 123.7v2.968h4.079v-3.055h-.473v2.487h-1.372l-.042-2.275h-.478v2.275h-1.244v-2.4z" class="prefix__cls-1" data-name="Trazado 1908" transform="translate(-168.053 -115.152)"/>
            <path id="prefix__Trazado_1909" d="M191.956 244.656l-.042-.041-.128.556c.042 0 .128.044.17.044a1.218 1.218 0 01.6.388 1.2 1.2 0 01.261.776 1.281 1.281 0 01-.175.685 1.168 1.168 0 01-.6.474c-.042 0-.042.04-.085.04a2.056 2.056 0 01-.772.128h-.046a2.452 2.452 0 01-.815-.128c-.043-.04-.129-.04-.175-.083a1.266 1.266 0 01-.425-.391 1.351 1.351 0 01-.218-.769 1.162 1.162 0 01.175-.692 1.346 1.346 0 01.468-.342c.086-.046.132-.046.218-.087l-.132-.519h-.086a1.668 1.668 0 00-.814.605 1.56 1.56 0 00-.3 1.033 1.991 1.991 0 00.256.985 1.6 1.6 0 00.728.685c.042.045.086.045.128.085a2.468 2.468 0 00.989.171h.046a2.569 2.569 0 00.772-.127c.085-.044.169-.044.258-.085a2.377 2.377 0 00.815-.648 2.082 2.082 0 00.256-1.067 1.921 1.921 0 00-.343-1.12 1.889 1.889 0 00-.984-.556z" class="prefix__cls-1" data-name="Trazado 1909" transform="translate(-180.917 -189.644)"/>
            <path id="prefix__Trazado_1910" d="M169.128 215.941c.128.047.258.134.387.175a3.458 3.458 0 00.73.083 2.175 2.175 0 001.074-.258 1.912 1.912 0 00.816-.6 2.171 2.171 0 00.257-1.116 1.863 1.863 0 00-.346-1.074 2 2 0 00-1.027-.6l-.129.554a1.191 1.191 0 01.773.428 1.055 1.055 0 01.257.78 1.346 1.346 0 01-.172.684 1.071 1.071 0 01-.6.471 2.737 2.737 0 01-.9.13 1.408 1.408 0 01-.73-.085h-.085a1.271 1.271 0 01-.6-.476 1.457 1.457 0 01-.216-.77.887.887 0 01.216-.688 1.242 1.242 0 01.645-.427l-.131-.52a1.662 1.662 0 00-.9.56 1.772 1.772 0 00-.3 1.074 2.036 2.036 0 00.254.989 1.608 1.608 0 00.727.686z" class="prefix__cls-1" data-name="Trazado 1910" transform="translate(-168.054 -169.908)"/>
            <path id="prefix__Trazado_1911" d="M172.378 181.716l-2.79.041h-1.329v.518h4.119z" class="prefix__cls-1" data-name="Trazado 1911" transform="translate(-168.125 -150.923)"/>
            <path id="prefix__Trazado_1912" d="M171.631 256.855l-1.976 1.286-1.247.859v.559h4.079v-.513h-3.22l.388-.262 2.833-1.889v-.559h-4.119v.52h3.263z" class="prefix__cls-1" data-name="Trazado 1912" transform="translate(-168.193 -196.859)"/>
            <path id="prefix__Trazado_1913" d="M172.081 344.207a1.108 1.108 0 00-1.2 0 .825.825 0 00-.388.519 4.046 4.046 0 00-.259.9 2.925 2.925 0 01-.3.818.241.241 0 01-.215.13c-.043.039-.085.039-.175.039a.6.6 0 01-.426-.214 1.132 1.132 0 01-.175-.728 1.009 1.009 0 01.218-.735.766.766 0 01.558-.25l-.043-.516a1.192 1.192 0 00-.645.172 1.159 1.159 0 00-.431.557 2.253 2.253 0 00-.128.818 2.123 2.123 0 00.128.728.981.981 0 00.431.512.819.819 0 00.559.169h.13a.578.578 0 00.388-.122.96.96 0 00.384-.43 3.43 3.43 0 00.257-.816 4.529 4.529 0 01.219-.729.78.78 0 01.213-.388.755.755 0 01.342-.088.773.773 0 01.344.088.621.621 0 01.257.388 1.1 1.1 0 01.083.556 2.564 2.564 0 01-.083.6.9.9 0 01-.341.425 1.51 1.51 0 01-.517.174l.043.513a1.211 1.211 0 00.773-.253 1.225 1.225 0 00.471-.559 2.911 2.911 0 00.173-.951 2.484 2.484 0 00-.173-.808 1.324 1.324 0 00-.472-.519z" class="prefix__cls-1" data-name="Trazado 1913" transform="translate(-168.257 -250.844)"/>
            <path id="prefix__Trazado_1914" d="M168.562 304.749h4.078v-.555h-1.806v-.9c.043-.085.043-.173.132-.26a1.319 1.319 0 01.259-.3c.128-.09.342-.218.559-.385l.856-.559v-.646l-1.118.69c-.212.17-.385.3-.556.467a1.779 1.779 0 00-.174.306 1.706 1.706 0 00-.387-.862.863.863 0 00-.642-.26h-.085a1.043 1.043 0 00-.647.171.958.958 0 00-.388.43 1.728 1.728 0 00-.082.858zm.426-1.843a1.146 1.146 0 01.174-.644.568.568 0 01.516-.216h.085a.527.527 0 01.256.089.509.509 0 01.257.339 1.624 1.624 0 01.088.558v1.162h-1.376z" class="prefix__cls-1" data-name="Trazado 1914" transform="translate(-168.301 -224.444)"/>
            <path id="prefix__Trazado_1915" d="M195.394 186.072h-.772v.559h1.978v-.559h-1.2z" class="prefix__cls-1" data-name="Trazado 1915" transform="translate(-184.355 -153.604)"/>
            <path id="prefix__Trazado_1916" d="M191.184 186.633v-.559h-2.147v.559h2.147z" class="prefix__cls-1" data-name="Trazado 1916" transform="translate(-180.916 -153.606)"/>
            <path id="prefix__Trazado_1917" d="M171.04 324.249a1.506 1.506 0 00-.388-1.2 1.225 1.225 0 00-.861-.344 1.3 1.3 0 00-.6.131 1.366 1.366 0 00-.387.344 1.511 1.511 0 00-.176.509 2.754 2.754 0 00-.037.609v1.544h4.118v-.556h-1.669zm-.519 1.034l-.73.037h-.731v-1.071c0-.256.043-.423.043-.51a.7.7 0 01.257-.35.74.74 0 01.431-.129.747.747 0 01.559.219 1.285 1.285 0 01.171.77z" class="prefix__cls-1" data-name="Trazado 1917" transform="translate(-168.33 -237.715)"/>
            <path id="prefix__Trazado_1918" d="M191.184 192.967h1.973v-1.549a3.349 3.349 0 00-.085-.683 1.326 1.326 0 00-.17-.428.915.915 0 00-.389-.3 1.18 1.18 0 00-.557-.128 1.019 1.019 0 00-.6.213.333.333 0 00-.171.168.856.856 0 00-.217.391.935.935 0 00-.387-.43.7.7 0 00-.432-.13h-.042a.87.87 0 00-.557.168 1.011 1.011 0 00-.389.432 1.8 1.8 0 00-.124.775v1.548l1.112-.044zm.083-1.461a2.5 2.5 0 01.04-.6.574.574 0 01.261-.342.673.673 0 01.727-.035c.132.035.175.124.26.211a.6.6 0 01.085.3.9.9 0 01.044.382v1.035h-1.418zm-1.717.947v-.818a2.552 2.552 0 01.043-.651.336.336 0 01.214-.249.485.485 0 01.341-.13.6.6 0 01.389.13c.086.042.126.166.169.3a1.147 1.147 0 01.089.509v.909h-1.246z" class="prefix__cls-1" data-name="Trazado 1918" transform="translate(-180.917 -155.946)"/>
            <path id="prefix__Trazado_1919" d="M191.245 203.247l.772-.26 1.2-.428v-.471l-1.2-.425-.772-.263-1.035-.341-.425-.175h1.46v-.516h-2.11v.73l1.074.39 1.035.344.73.256h.042a3.1 3.1 0 00.643.214c-.171.042-.344.123-.643.216l-.772.254-1.035.346-1.074.342v.858l1.074-.039h1.035v-.518h-1.5l.468-.172z" class="prefix__cls-1" data-name="Trazado 1919" transform="translate(-180.977 -162.405)"/>
            <path id="prefix__Trazado_1920" d="M191.245 226.859l.772-.039h1.243v-2.538h-.514v2.018h-3.611v.558h2.109z" class="prefix__cls-1" data-name="Trazado 1920" transform="translate(-180.977 -177.127)"/>
            <path id="prefix__Trazado_1921" d="M168.472 289.432v.559h4.128v-.518h-3.22l.344-.257 2.877-1.933v-.563l-2.877.046h-1.247v.518h3.223l-1.976 1.289z" class="prefix__cls-1" data-name="Trazado 1921" transform="translate(-168.257 -215.564)"/>
            <path id="prefix__Trazado_1922" d="M196.6 209.717v-.517h-1.974v.518h1.974z" class="prefix__cls-1" data-name="Trazado 1922" transform="translate(-184.355 -167.842)"/>
            <path id="prefix__Trazado_1923" d="M196.6 200.369h-1.974v.516h1.974z" class="prefix__cls-1" data-name="Trazado 1923" transform="translate(-184.355 -162.405)"/>
            <path id="prefix__Trazado_1924" d="M191.184 177.65l.772.3 1.2.428v-.557l-1.2-.429-.042-.047v-1.716h.042l1.2-.476v-.6l-1.2.476-.772.341-1.035.386-1.112.477v.6l1.112.428zm-1.722-1.118c.175-.041.433-.127.687-.21l.175-.085.86-.306.256-.126v1.419l-.256-.13-.949-.344h-.086a3.217 3.217 0 00-.686-.219z" class="prefix__cls-1" data-name="Trazado 1924" transform="translate(-180.917 -146.515)"/>
            <path id="prefix__Trazado_1925" d="M168.368 248.339h1.287l2.833-.044v-1.458a2.552 2.552 0 00-.085-.641.933.933 0 00-.217-.521 1.208 1.208 0 00-.34-.337 2.05 2.05 0 00-1.418-.391 2.259 2.259 0 00-.772.085c-.085 0-.13.046-.213.046a2.191 2.191 0 00-.733.514 1.216 1.216 0 00-.256.6 2.644 2.644 0 00-.086.726zm.511-1.417a1.357 1.357 0 01.087-.685.829.829 0 01.428-.515c.085-.086.175-.086.26-.13a2.013 2.013 0 01.73-.085 2.293 2.293 0 01.817.085 1.536 1.536 0 01.517.3.905.905 0 01.214.388 2.017 2.017 0 01.085.6v.9h-3.137z" class="prefix__cls-1" data-name="Trazado 1925" transform="translate(-168.193 -189.848)"/>
            <path id="prefix__Trazado_1926" d="M168.472 266.973v2.962h4.079v-3.089h-.471v2.531h-1.38l-.037-2.275h-.477v2.275h-1.245v-2.4z" class="prefix__cls-1" data-name="Trazado 1926" transform="translate(-168.257 -203.33)"/>
            <path id="prefix__Trazado_1927" d="M189.594 236.275a2.543 2.543 0 00.555.34 2.622 2.622 0 001.035.218 1.971 1.971 0 00.772-.135l.258-.126a1.7 1.7 0 00.77-.69 2.039 2.039 0 00.3-1.026 1.932 1.932 0 00-.256-.994 1.62 1.62 0 00-.774-.724 1.867 1.867 0 00-.3-.129 2.07 2.07 0 00-.772-.131h-.046a2.623 2.623 0 00-.989.216c-.042 0-.086 0-.086.044a1.74 1.74 0 00-.77.685 2.063 2.063 0 00-.256 1.033 1.9 1.9 0 00.559 1.419zm.087-2.145a1.448 1.448 0 01.468-.437c.046-.039.086-.039.132-.081a2.48 2.48 0 01.858-.172h.046a1.447 1.447 0 01.772.172 1.43 1.43 0 01.427.211 1.515 1.515 0 01.434 1.033 1.411 1.411 0 01-.434.989.933.933 0 01-.427.254 1.442 1.442 0 01-.728.175h-.044a2.292 2.292 0 01-1.035-.219c-.086-.086-.17-.125-.253-.211a1.373 1.373 0 01-.389-.989 1.052 1.052 0 01.173-.724z" class="prefix__cls-1" data-name="Trazado 1927" transform="translate(-180.917 -182.419)"/>
            <path id="prefix__Trazado_1928" d="M170.995 336.647a2.844 2.844 0 00.987-.128 1.26 1.26 0 00.6-.555 2 2 0 00.173-.951 1.635 1.635 0 00-.216-.941 1.033 1.033 0 00-.6-.518 2.911 2.911 0 00-.988-.128h-2.361v.564h2.361a1.683 1.683 0 011.073.257 1.074 1.074 0 01.255.814 1.149 1.149 0 01-.125.6.607.607 0 01-.386.342 1.945 1.945 0 01-.816.127h-2.361v.514h2.4z" class="prefix__cls-1" data-name="Trazado 1928" transform="translate(-168.33 -244.317)"/>
            <path id="prefix__Trazado_1929" d="M168.472 298.462h4.128v-.56h-4.123z" class="prefix__cls-1" data-name="Trazado 1929" transform="translate(-168.257 -222.448)"/>
            <path id="prefix__Trazado_1930" d="M168.472 279.832h.471v-1.371h3.657v-.561h-2.877l-.775.042v-1.371h-.471z" class="prefix__cls-1" data-name="Trazado 1930" transform="translate(-168.257 -209.317)"/>
            <path id="prefix__Trazado_1931" d="M168.368 226.868v.521h4.119v-.521h-3.264l.431-.253 2.79-1.893v-.555h-4.077v.516h3.216l-1.93 1.286z" class="prefix__cls-1" data-name="Trazado 1931" transform="translate(-168.193 -177.056)"/>
            <path id="prefix__Trazado_1932" d="M168.368 237.758h4.119v-3.093l-.512.048v2.487H170.6v-2.277h-.477v2.277h-1.287v-2.406h-.469z" class="prefix__cls-1" data-name="Trazado 1932" transform="translate(-168.193 -183.519)"/>
        </g>
        <g id="prefix__Grupo_1985" data-name="Grupo 1985" transform="translate(169.045 201.112)">
            <path id="prefix__Trazado_1936" d="M182.279 383.92a2.4 2.4 0 00-1.03-.6 3.277 3.277 0 00-1.2-.175h-.512a3.9 3.9 0 00-.861.175 2.786 2.786 0 00-.946.556 1.921 1.921 0 00-.515.894 3.56 3.56 0 00-.127 1.081V388h5.793v-2.19a3.382 3.382 0 00-.128-1.039 2.444 2.444 0 00-.474-.851zm-.389 2.922h-3.821v-.518a5.345 5.345 0 01.045-.988.942.942 0 01.254-.511 1.482 1.482 0 01.558-.347 2.517 2.517 0 01.607-.088 1.555 1.555 0 01.425-.039 3.422 3.422 0 011.074.127 1.157 1.157 0 01.556.294.85.85 0 01.256.479 2.674 2.674 0 01.046.683z" class="prefix__cls-1" data-name="Trazado 1936" transform="translate(-176.949 -374.43)"/>
            <path id="prefix__Trazado_1937" d="M178.342 462.36a2.633 2.633 0 001.121.344 2.376 2.376 0 00.512.037 3.642 3.642 0 001.543-.342 2.229 2.229 0 001.075-1.028 2.932 2.932 0 00.388-1.546 3.2 3.2 0 00-.3-1.415 3.428 3.428 0 00-.6-1.072h-2.318v2.53h.989v-1.375h.728a2.991 2.991 0 01.343.649 2.325 2.325 0 01.13.725 1.656 1.656 0 01-.472 1.207 2.309 2.309 0 01-1.547.467 1.714 1.714 0 01-.467-.039 1.825 1.825 0 01-.994-.386 1.59 1.59 0 01-.47-1.249 1.238 1.238 0 01.215-.815 1.127 1.127 0 01.686-.474l-.213-1.155a2.066 2.066 0 00-1.249.77 2.871 2.871 0 00-.467 1.675 3.444 3.444 0 00.3 1.421 2.583 2.583 0 001.067 1.071z" class="prefix__cls-1" data-name="Trazado 1937" transform="translate(-176.88 -420.101)"/>
            <path id="prefix__Trazado_1938" d="M177.3 490.729v1.248l2.366.771 1.929.646-1.929.641-2.366.818.043 1.292 2.322-.857 3.433-1.253v-1.242l-3.433-1.2z" class="prefix__cls-1" data-name="Trazado 1938" transform="translate(-177.083 -440.657)"/>
            <path id="prefix__Trazado_1939" d="M177.511 365.278a3.1 3.1 0 00.772.559 3.754 3.754 0 001.035.213 1.527 1.527 0 00.467.044 2.919 2.919 0 002.148-.773 2.953 2.953 0 000-4.08 2.953 2.953 0 00-2.19-.773h-.425a2.937 2.937 0 00-1.766.773 2.649 2.649 0 00-.818 2.059 2.988 2.988 0 00.261 1.249 1.668 1.668 0 00.516.729zm.729-3.182a1.9 1.9 0 011.078-.383 1.14 1.14 0 01.382-.043 2.587 2.587 0 011.546.426 1.6 1.6 0 01.473 1.16 1.455 1.455 0 01-.473 1.164 2.251 2.251 0 01-1.5.47 1.293 1.293 0 01-.425-.042 1.662 1.662 0 01-1.078-.428 1.344 1.344 0 01-.471-1.164 1.454 1.454 0 01.468-1.156z" class="prefix__cls-1" data-name="Trazado 1939" transform="translate(-176.735 -360.467)"/>
            <path id="prefix__Trazado_1940" d="M179.668 480H177.3v1.159h5.8V480h-3.434z" class="prefix__cls-1" data-name="Trazado 1940" transform="translate(-177.085 -434.053)"/>
            <path id="prefix__Trazado_1941" d="M182.07 428.412h-4.77v1.2h2.365l3.39-.042v-4.078l-.988.046z" class="prefix__cls-1" data-name="Trazado 1941" transform="translate(-177.085 -400.497)"/>
            <path id="prefix__Trazado_1942" d="M179.6 446.529h3.39v-1.159h-5.8v1.159h2.41z" class="prefix__cls-1" data-name="Trazado 1942" transform="translate(-177.016 -412.734)"/>
            <path id="prefix__Trazado_1943" d="M177.125 407.152l2.408.939 3.344 1.292v-1.244l-1.289-.477v-2.316l1.289-.514v-1.249l-3.344 1.332-2.449.99zm2.408-1.03l1.068-.391v1.593l-1.068-.391-1.078-.386z" class="prefix__cls-1" data-name="Trazado 1943" transform="translate(-176.949 -387.01)"/>
        </g>
        <path id="prefix__Trazado_1944" d="M164.373 415.173c-.126-54.276-.13-55.291-.13-55.309l.914-.944.963.956.129 55.295z" class="prefix__cls-1" data-name="Trazado 1944" transform="translate(0 -158.402)"/>
        <path id="prefix__Trazado_1945" d="M198 415.213l-.128-55.35.936-.945h.042c.9 0 .9.118.916 7.905l.112 48.386z" class="prefix__cls-1" data-name="Trazado 1945" transform="translate(-20.703 -158.402)"/>
        <g id="prefix__Grupo_1986" data-name="Grupo 1986" transform="translate(186.87 250.457)">
            <path id="prefix__Trazado_1946" d="M353.871 503.934l-.162.427h.472l-.259-.349z" class="prefix__cls-1" data-name="Trazado 1946" transform="translate(-303.506 -498.131)"/>
            <path id="prefix__Trazado_1959" d="M232.649 504.389l-.043.133h.128v-.322z" class="prefix__cls-1" data-name="Trazado 1959" transform="translate(-228.954 -498.293)"/>
            <path id="prefix__Trazado_1965" d="M232.733 505.044h-.128" class="prefix__cls-2" data-name="Trazado 1965" transform="translate(-228.954 -498.814)"/>
            <path id="prefix__Trazado_1966" d="M354.181 505.044h-.472" class="prefix__cls-2" data-name="Trazado 1966" transform="translate(-303.506 -498.814)"/>
            <path id="prefix__Trazado_1967" d="M457.861 494.422a1.478 1.478 0 00-.73.174 2.052 2.052 0 00-.687.509 1 1 0 00-.516-.509 1.2 1.2 0 00-.732-.174 1.708 1.708 0 00-.643.129 1.835 1.835 0 00-.6.426v-.513h-.818v4.041h.818v-2.877a1.41 1.41 0 01.473-.432 1.717 1.717 0 01.516-.091.74.74 0 01.642.218.929.929 0 01.218.734v2.449h.814v-2.877a1.332 1.332 0 01.429-.432 2.044 2.044 0 01.56-.091.738.738 0 01.642.218 1.146 1.146 0 01.215.734v2.449h.815v-2.666a1.331 1.331 0 00-1.415-1.417z" class="prefix__cls-1" data-name="Trazado 1967" transform="translate(-364.712 -492.276)"/>
            <path id="prefix__Trazado_1968" d="M504.983 490.665h.47l1.246-1.5h-.775z" class="prefix__cls-1" data-name="Trazado 1968" transform="translate(-396.631 -489.039)"/>
            <path id="prefix__Rect치ngulo_1912" d="M0 0H0.814V4.041H0z" class="prefix__cls-1" data-name="Rect치ngulo 1912" transform="translate(108.564 2.189)"/>
            <path id="prefix__Trazado_1969" d="M495.863 494.422a1.726 1.726 0 00-.644.129 1.862 1.862 0 00-.6.426v-.513h-.819v4.041h.815v-2.877a1.1 1.1 0 01.477-.432 1.475 1.475 0 01.512-.091.734.734 0 01.643.218 1.132 1.132 0 01.218.734v2.449h.813v-2.666a1.331 1.331 0 00-1.418-1.417z" class="prefix__cls-1" data-name="Trazado 1969" transform="translate(-389.75 -492.276)"/>
            <path id="prefix__Trazado_1970" d="M512.866 497.944c-.082 0-.128 0-.128-.09-.042-.042-.042-.17-.042-.294v-1.721a1.437 1.437 0 00-.343-1.071 1.547 1.547 0 00-1.16-.346h-.044a2.409 2.409 0 00-.774.129 2.242 2.242 0 00-.687.34v.818a3.19 3.19 0 01.732-.428 1.949 1.949 0 01.684-.13h.045a.73.73 0 01.558.172.741.741 0 01.173.516v.083c0 .047 0 .047-.044.087l-.686.213-.26.086a3.08 3.08 0 00-.988.563 1.058 1.058 0 00-.339.729.86.86 0 00.3.727 1.317 1.317 0 00.859.26 1.59 1.59 0 00.427-.039c.044 0 .087-.042.175-.042.169-.088.341-.179.555-.3a.73.73 0 00.126.3.83.83 0 00.348.081 1.525 1.525 0 00.468-.081 3.335 3.335 0 00.476-.262v-.517c-.128.085-.214.18-.3.18a.172.172 0 01-.131.037zm-1.03-.26a2.258 2.258 0 01-.385.26c-.086 0-.214.042-.3.042h-.128a.627.627 0 01-.43-.131.4.4 0 01-.171-.382.647.647 0 01.3-.475 1.354 1.354 0 01.427-.211 5.918 5.918 0 01.686-.26z" class="prefix__cls-1" data-name="Trazado 1970" transform="translate(-399.451 -492.276)"/>
            <path id="prefix__Trazado_1971" d="M528.693 491.489a1.224 1.224 0 00-.47-.262 2.564 2.564 0 00-.559-.084h-.042a2.141 2.141 0 00-1.416.6 2.353 2.353 0 000 3.049 1.886 1.886 0 001.416.56h.042a2.517 2.517 0 00.559-.039 1.691 1.691 0 00.47-.265v.223h.815v-6.1h-.815zm0 2.921c-.128.08-.256.126-.383.207a1.468 1.468 0 01-.474.053h-.215a1.171 1.171 0 01-.73-.391 1.384 1.384 0 01-.346-1.033 1.409 1.409 0 01.346-1.037 1.106 1.106 0 01.73-.341.408.408 0 01.215-.04 1.751 1.751 0 01.474.086.913.913 0 01.383.216z" class="prefix__cls-1" data-name="Trazado 1971" transform="translate(-409.35 -489.039)"/>
            <path id="prefix__Trazado_1972" d="M486.229 497.944c-.043 0-.087 0-.127-.09v-2.015a1.3 1.3 0 00-.387-1.071 1.372 1.372 0 00-1.117-.346h-.085a2.018 2.018 0 00-.733.129 1.791 1.791 0 00-.683.34v.818a3.067 3.067 0 01.683-.428 2.244 2.244 0 01.733-.13.677.677 0 01.556.172c.13.088.176.261.176.516v.17l-.732.213-.213.086a3.215 3.215 0 00-1.033.563 1 1 0 00-.3.729.869.869 0 00.3.727 1.243 1.243 0 00.858.26 1.323 1.323 0 00.388-.039c.085 0 .128-.042.171-.042.17-.088.385-.179.6-.3a.4.4 0 00.13.3.68.68 0 00.345.081 1.853 1.853 0 00.471-.081 2.891 2.891 0 00.428-.262v-.517c-.126.085-.216.18-.253.18a.305.305 0 01-.176.037zm-.985-.26a2.346 2.346 0 01-.391.26c-.129 0-.213.042-.341.042h-.089a.737.737 0 01-.469-.131.494.494 0 01-.128-.382.547.547 0 01.3-.475.827.827 0 01.388-.211 6.14 6.14 0 01.732-.26z" class="prefix__cls-1" data-name="Trazado 1972" transform="translate(-383.076 -492.276)"/>
            <path id="prefix__Trazado_1973" d="M443.718 494.955a2.447 2.447 0 00-.69-.47 2.69 2.69 0 00-.814-.17h-.04a2.11 2.11 0 00-1.507.641 1.9 1.9 0 00-.6 1.461 1.927 1.927 0 00.6 1.5 2.041 2.041 0 001.507.6h.04a2.445 2.445 0 00.814-.132 2.37 2.37 0 00.69-.469 2.656 2.656 0 00.47-.686 2.432 2.432 0 00.128-.817 2.345 2.345 0 00-.128-.773 2.312 2.312 0 00-.47-.685zm-.6 2.45a1.272 1.272 0 01-.944.382 1.241 1.241 0 01-.9-.382 1.362 1.362 0 01-.385-.989 1.339 1.339 0 01.385-.944 1.237 1.237 0 01.9-.387 1.267 1.267 0 01.944.387 1.352 1.352 0 01.383.944 1.454 1.454 0 01-.383.984z" class="prefix__cls-1" data-name="Trazado 1973" transform="translate(-356.669 -492.209)"/>
            <path id="prefix__Trazado_1974" d="M495.593 490.744c.047-.044.13-.044.261-.044h.084a.165.165 0 01.13.044l.34.087a.171.171 0 00.13.04h.173a.574.574 0 00.516-.214 1.154 1.154 0 00.34-.607h-.387a.394.394 0 01-.17.218.355.355 0 01-.254.088h-.134c-.041 0-.083-.044-.125-.044l-.344-.129a.167.167 0 01-.131-.042h-.128a.888.888 0 00-.56.216 1.167 1.167 0 00-.3.6h.387a.417.417 0 01.172-.213z" class="prefix__cls-1" data-name="Trazado 1974" transform="translate(-390.509 -489.583)"/>
            <path id="prefix__Trazado_1975" d="M473.576 494.314a2.61 2.61 0 00-.6.084 1.6 1.6 0 00-.469.262v-.26h-.818v6.1h.818v-2.279a1.192 1.192 0 00.469.265 2.945 2.945 0 00.6.039 1.834 1.834 0 001.418-.56 2.365 2.365 0 000-3.049 2.068 2.068 0 00-1.418-.602zm.731 3.18a1.423 1.423 0 01-.731.346h-.215a1.1 1.1 0 01-.431-.053 1.422 1.422 0 01-.426-.207v-2.28a1.383 1.383 0 01.426-.216 1.26 1.26 0 01.431-.046h.215a1.375 1.375 0 01.731.341 1.43 1.43 0 01.382 1.037 1.45 1.45 0 01-.382 1.078z" class="prefix__cls-1" data-name="Trazado 1975" transform="translate(-376.134 -492.209)"/>
            <path id="prefix__Trazado_1976" d="M611.526 494.955a2.486 2.486 0 00-.685-.47 2.789 2.789 0 00-.818-.17 2.123 2.123 0 00-1.546.641 2.043 2.043 0 00-.6 1.461 2.055 2.055 0 002.146 2.1 2.35 2.35 0 00.818-.132 2.406 2.406 0 00.685-.469 2.731 2.731 0 00.474-.686 2.52 2.52 0 00.169-.817 2.494 2.494 0 00-.169-.773 2.428 2.428 0 00-.474-.685zm-.605 2.45a1.237 1.237 0 01-.9.382 1.277 1.277 0 01-.946-.382 1.354 1.354 0 01-.389-.989 1.331 1.331 0 01.389-.944 1.273 1.273 0 01.946-.387 1.233 1.233 0 01.9.387 1.321 1.321 0 01.388.944 1.42 1.42 0 01-.388.984z" class="prefix__cls-1" data-name="Trazado 1976" transform="translate(-459.974 -492.209)"/>
            <path id="prefix__Trazado_1977" d="M590.763 497.453a1.138 1.138 0 01-.472.427 1.891 1.891 0 01-.517.095.758.758 0 01-.647-.223.928.928 0 01-.214-.727v-2.492h-.813v2.7a1.331 1.331 0 001.416 1.418 1.565 1.565 0 00.643-.132 2.351 2.351 0 00.605-.428v.479h.813v-4.041h-.813z" class="prefix__cls-1" data-name="Trazado 1977" transform="translate(-447.798 -492.343)"/>
            <path id="prefix__Trazado_1978" d="M601.8 494.422a.7.7 0 00-.557.216 2.132 2.132 0 00-.6.728v-.9h-.817v4.041h.817v-2.284a1.664 1.664 0 01.341-.775.711.711 0 01.559-.249 1.262 1.262 0 01.388.085 1.506 1.506 0 01.388.257l.429-.73a2.244 2.244 0 00-.473-.306.977.977 0 00-.475-.083z" class="prefix__cls-1" data-name="Trazado 1978" transform="translate(-455.019 -492.276)"/>
            <path id="prefix__Trazado_1979" d="M622.935 496.719a2.492 2.492 0 00-.858-.564l-.083-.038c-.56-.3-.818-.516-.818-.737a.255.255 0 01.131-.249.79.79 0 01.384-.091 3.106 3.106 0 01.6.091c.175.085.437.17.692.3v-.773a1.941 1.941 0 00-.644-.262 3.364 3.364 0 00-.647-.084 1.593 1.593 0 00-.989.3 1 1 0 00-.383.822 1.065 1.065 0 00.215.644 1.671 1.671 0 00.773.558 2.962 2.962 0 01.3.17c.431.214.644.429.644.56a.351.351 0 01-.173.342.7.7 0 01-.471.134 1.836 1.836 0 01-.6-.134 2.928 2.928 0 01-.727-.388v.858a2.475 2.475 0 00.685.262 2.11 2.11 0 00.729.081 1.708 1.708 0 001.076-.3 1.063 1.063 0 00.385-.851 1.023 1.023 0 00-.221-.651z" class="prefix__cls-1" data-name="Trazado 1979" transform="translate(-467.608 -492.209)"/>
            <path id="prefix__Trazado_1980" d="M567.657 494.422h-.085a1.762 1.762 0 00-1.372.555 2.048 2.048 0 00-.562 1.462 2.182 2.182 0 00.6 1.587 1.793 1.793 0 001.33.56c.085 0 .13.04.17.04a3.449 3.449 0 00.9-.121 8.926 8.926 0 00.818-.386v-.82c-.3.172-.6.3-.861.427a2.714 2.714 0 01-.82.128h-.211a1.287 1.287 0 01-.687-.294 1.472 1.472 0 01-.387-.908h3.049v-.127a2.265 2.265 0 00-.515-1.548 1.775 1.775 0 00-1.367-.555zm-.085 1.634H566.5a1.328 1.328 0 01.387-.734 1.209 1.209 0 01.687-.218h.048a1.09 1.09 0 01.725.261 1.134 1.134 0 01.3.69z" class="prefix__cls-1" data-name="Trazado 1980" transform="translate(-433.971 -492.276)"/>
            <path id="prefix__Trazado_1981" d="M557.2 491.584l-.13-.083c-.73-.435-1.071-.818-1.071-1.12a.626.626 0 01.253-.515.867.867 0 01.646-.212 1.8 1.8 0 01.688.13 5.738 5.738 0 01.771.469v-.985a2.8 2.8 0 00-.726-.3 1.825 1.825 0 00-.691-.125 1.924 1.924 0 00-1.287.465 1.485 1.485 0 00-.515 1.16 1.569 1.569 0 00.261.907 7.622 7.622 0 001.328 1.03 2.347 2.347 0 01.816.644.689.689 0 01.173.513.64.64 0 01-.259.564.91.91 0 01-.69.213 1.392 1.392 0 01-.811-.213 2.754 2.754 0 01-.818-.69v1.155a2.561 2.561 0 00.771.479 3.02 3.02 0 00.9.121 1.9 1.9 0 001.285-.471 1.469 1.469 0 00.518-1.16 2.012 2.012 0 00-.26-1.027 3.525 3.525 0 00-1.152-.949z" class="prefix__cls-1" data-name="Trazado 1981" transform="translate(-427.51 -488.838)"/>
            <path id="prefix__Trazado_1982" d="M578.341 494.571a2.152 2.152 0 00-1.163.346 1.347 1.347 0 00-.513 1.119 1.329 1.329 0 00.26.817 1.3 1.3 0 00.683.428 1.966 1.966 0 00-.43.258.407.407 0 00-.122.3.367.367 0 00.122.253.513.513 0 00.347.218 2.162 2.162 0 00-.9.383.994.994 0 00-.26.687 1.006 1.006 0 00.476.951 3.236 3.236 0 001.459.3h.042a2.758 2.758 0 001.461-.338 1.043 1.043 0 00.514-.945.941.941 0 00-.3-.73 1.935 1.935 0 00-.9-.391c-.085-.037-.169-.037-.34-.085a2.362 2.362 0 00-.431-.086c-.344-.131-.514-.213-.514-.339s.169-.216.514-.3h.171a2.769 2.769 0 00.3-.085 1.171 1.171 0 00.816-.433 1.231 1.231 0 00.3-.856.89.89 0 00-.088-.47.908.908 0 00-.215-.348h.687v-.687h-1.63a.908.908 0 00-.346.033zm-.256 4.26h.256a2.116 2.116 0 01.817.126.485.485 0 01.342.424.4.4 0 01-.3.391 1.686 1.686 0 01-.861.175h-.039a1.492 1.492 0 01-.861-.175.44.44 0 01-.042-.815 1.468 1.468 0 01.688-.126zm1.073-2.841a.623.623 0 01-.215.561.956.956 0 01-.6.218h-.043a.881.881 0 01-.606-.218.76.76 0 01-.208-.561.92.92 0 01.208-.555 1.057 1.057 0 01.606-.216h.042a1.037 1.037 0 01.6.216.717.717 0 01.216.554z" class="prefix__cls-1" data-name="Trazado 1982" transform="translate(-440.575 -492.343)"/>
            <path id="prefix__Trazado_1983" d="M539.687 494.422h-.046a1.76 1.76 0 00-1.373.555 1.894 1.894 0 00-.56 1.462 2.167 2.167 0 00.56 1.587 1.889 1.889 0 001.373.56c.046 0 .086.04.172.04a2.923 2.923 0 00.861-.121 9.369 9.369 0 00.858-.386v-.82c-.3.172-.6.3-.858.427a2.953 2.953 0 01-.818.128h-.214a1.146 1.146 0 01-.682-.294 1.116 1.116 0 01-.39-.908h3.007v-.127a2.261 2.261 0 00-.514-1.548 1.717 1.717 0 00-1.376-.555zm-.046 1.634h-1.072a1.263 1.263 0 01.346-.734 1.347 1.347 0 01.726-.218h.046a.982.982 0 01.685.261.96.96 0 01.343.69z" class="prefix__cls-1" data-name="Trazado 1983" transform="translate(-416.777 -492.276)"/>
            <path id="prefix__Trazado_1984" d="M427.441 494.439a2.481 2.481 0 01-1.762-.687 2.335 2.335 0 01.044-3.344 2.381 2.381 0 011.76-.646 4.236 4.236 0 01.989.125 8.547 8.547 0 011.071.471v-.943a3.237 3.237 0 00-1.03-.342 4.345 4.345 0 00-1.03-.13 4.546 4.546 0 00-1.375.216 3.423 3.423 0 00-1.074.688 3.532 3.532 0 00-.73 1.03 3.769 3.769 0 00-.215 1.2 3.7 3.7 0 00.344 1.511 2.936 2.936 0 001.074 1.115 4.348 4.348 0 00.9.434 3.88 3.88 0 00.989.121 5.214 5.214 0 001.116-.121c.387-.133.731-.262 1.116-.434v-.987a4.913 4.913 0 01-1.116.515 3.441 3.441 0 01-1.071.208z" class="prefix__cls-1" data-name="Trazado 1984" transform="translate(-346.833 -488.903)"/>
            <path id="prefix__Trazado_1985" d="M294.315 493.548l-1.932-4.384h-.9l2.7 6.146h.218l2.749-6.146h-.9z" class="prefix__cls-1" data-name="Trazado 1985" transform="translate(-265.2 -489.039)"/>
            <path id="prefix__Trazado_1986" d="M281.839 492.6h2.751v-.818h-2.751v-1.845h2.834v-.775h-3.687v6.1h3.778v-.779h-2.924z" class="prefix__cls-1" data-name="Trazado 1986" transform="translate(-258.737 -489.039)"/>
            <path id="prefix__Trazado_1987" d="M270.671 492.6c-.087-.13-.215-.172-.3-.255a1.544 1.544 0 00.861-.519 1.51 1.51 0 00.3-.988 1.605 1.605 0 00-.516-1.246 2.209 2.209 0 00-1.373-.43h-1.847v6.1h.856v-2.702h.3a1.016 1.016 0 01.688.212 2.982 2.982 0 01.73.906l1.074 1.591h1.074l-1.5-2.238a2.123 2.123 0 00-.347-.431zm-.343-1.03a1.1 1.1 0 01-.689.213.536.536 0 01-.258.044h-.733V489.9h.991a1.418 1.418 0 01.689.256.76.76 0 01.3.685.91.91 0 01-.3.731z" class="prefix__cls-1" data-name="Trazado 1987" transform="translate(-250.615 -489.039)"/>
            <path id="prefix__Rect치ngulo_1913" d="M0 0H0.857V6.104H0z" class="prefix__cls-1" data-name="Rect치ngulo 1913" transform="translate(32.466 .125)"/>
            <path id="prefix__Trazado_1988" d="M258.559 489.636a2.1 2.1 0 00-1.414-.472h-1.978v6.1h.861v-2.626h1.117a2.081 2.081 0 001.414-.469 1.506 1.506 0 00.562-1.248 1.528 1.528 0 00-.562-1.285zm-.639 2.018a1.286 1.286 0 01-.775.214h-1.117v-1.929h1.117a1.279 1.279 0 01.775.26.889.889 0 01.3.727.957.957 0 01-.3.728z" class="prefix__cls-1" data-name="Trazado 1988" transform="translate(-242.843 -489.039)"/>
            <path id="prefix__Trazado_1989" d="M314.541 491.584l-.129-.083c-.73-.435-1.121-.818-1.121-1.12a.616.616 0 01.26-.515 1.03 1.03 0 01.685-.212 1.968 1.968 0 01.689.13 5.456 5.456 0 01.731.469v-.985a2.522 2.522 0 00-.685-.3 1.975 1.975 0 00-.689-.125 1.846 1.846 0 00-1.289.465 1.49 1.49 0 00-.516 1.16 1.615 1.615 0 00.258.907 7.255 7.255 0 001.29 1.03 2.611 2.611 0 01.857.644.67.67 0 01.173.513.644.644 0 01-.256.564 1.021 1.021 0 01-.732.213 1.3 1.3 0 01-.776-.213 2.867 2.867 0 01-.814-.69v1.155a2.55 2.55 0 00.771.479 3.055 3.055 0 00.9.121 1.913 1.913 0 001.291-.471 1.473 1.473 0 00.515-1.16 1.678 1.678 0 00-.3-1.027 3.8 3.8 0 00-1.113-.949z" class="prefix__cls-1" data-name="Trazado 1989" transform="translate(-278.124 -488.838)"/>
            <path id="prefix__Trazado_1990" d="M226.886 494.942v-.453h-2.923v-5.325h-.856v6.1h3.651l.043-.133z" class="prefix__cls-1" data-name="Trazado 1990" transform="translate(-223.107 -489.039)"/>
            <path id="prefix__Trazado_1991" d="M235.771 489.164h-.3l-2.536 5.778v.326h.772l.77-1.762h2.623l.771 1.762h.9l-2.707-6.1zm0 3.521h-.944l.944-2.19v.05l.946 2.14z" class="prefix__cls-1" data-name="Trazado 1991" transform="translate(-229.159 -489.039)"/>
            <path id="prefix__Trazado_1992" d="M356.928 489.164h-.339l-2.407 5.543-.051.135.051.078.259.349h.389l.813-1.762h2.576l.815 1.762h.9l-2.706-6.1zm0 3.521h-.941l.9-2.19.036.05.95 2.14z" class="prefix__cls-1" data-name="Trazado 1992" transform="translate(-303.765 -489.039)"/>
            <path id="prefix__Trazado_1993" d="M393.538 489.164h-.3l-2.665 6.1h.9l.775-1.762h2.618l.77 1.762h.9l-2.7-6.1zm0 3.521h-.946l.946-2.19v.05l.946 2.14z" class="prefix__cls-1" data-name="Trazado 1993" transform="translate(-326.201 -489.039)"/>
            <path id="prefix__Trazado_1994" d="M407.671 502.586a.529.529 0 00-.389.124.474.474 0 00-.173.387.509.509 0 00.173.383.5.5 0 00.389.132.453.453 0 00.34-.132.514.514 0 00.171-.383.478.478 0 00-.171-.387.483.483 0 00-.34-.124z" class="prefix__cls-1" data-name="Trazado 1994" transform="translate(-336.38 -497.301)"/>
            <path id="prefix__Trazado_1995" d="M387.295 502.586a.683.683 0 00-.385.124.62.62 0 00-.128.387.68.68 0 00.128.383.633.633 0 00.385.132.554.554 0 00.386-.132.673.673 0 00.127-.383.615.615 0 00-.127-.387.594.594 0 00-.386-.124z" class="prefix__cls-1" data-name="Trazado 1995" transform="translate(-323.866 -497.301)"/>
            <path id="prefix__Trazado_1996" d="M345.866 493.03a2.194 2.194 0 00-.346-.428.853.853 0 00-.3-.255 1.7 1.7 0 00.9-.519 1.769 1.769 0 00.256-.988 1.6 1.6 0 00-.515-1.246 2.125 2.125 0 00-1.377-.43h-1.846v6.1h.9v-2.704h.256a.952.952 0 01.686.212 2.924 2.924 0 01.775.906l1.034 1.591h.6l.162-.427zm-1.377-1.246c-.04.044-.127.044-.216.044h-.727V489.9h.943a1.272 1.272 0 01.691.256.756.756 0 01.3.685.791.791 0 01-.3.732 1.106 1.106 0 01-.69.211z" class="prefix__cls-1" data-name="Trazado 1996" transform="translate(-296.695 -489.039)"/>
            <path id="prefix__Trazado_1997" d="M328.788 489.848a3.381 3.381 0 00-1.068-.688 3.716 3.716 0 00-2.5 0 3.361 3.361 0 00-1.071.688 2.692 2.692 0 00-.687 1.03 2.85 2.85 0 00-.26 1.2 3.667 3.667 0 00.218 1.206 4.1 4.1 0 00.73 1.074 2.938 2.938 0 001.071.646 3.02 3.02 0 001.248.254 3.977 3.977 0 001.247-.21 4.193 4.193 0 001.068-.691 3.238 3.238 0 00.69-1.026 2.957 2.957 0 00.256-1.2 3.123 3.123 0 00-.256-1.249 2.736 2.736 0 00-.686-1.034zm-.17 3.131a2.408 2.408 0 01-.515.773 2.862 2.862 0 01-.728.522 3.622 3.622 0 01-.9.165 2.012 2.012 0 01-.9-.212 1.939 1.939 0 01-1.249-1.248 1.994 1.994 0 01-.169-.906 2.24 2.24 0 01.169-.9 1.9 1.9 0 01.473-.732 4.145 4.145 0 01.775-.515 2.26 2.26 0 01.9-.168 2.283 2.283 0 01.9.168 2.975 2.975 0 01.728.515 2.4 2.4 0 01.515.778 1.9 1.9 0 01.17.85 1.993 1.993 0 01-.169.91z" class="prefix__cls-1" data-name="Trazado 1997" transform="translate(-284.729 -488.903)"/>
            <path id="prefix__Trazado_1998" d="M377.442 491.584l-.129-.083c-.73-.435-1.074-.818-1.074-1.12a.632.632 0 01.26-.515.9.9 0 01.687-.212 2.153 2.153 0 01.687.13 5.848 5.848 0 01.69.469v-.985a4.783 4.783 0 00-.649-.3 2.137 2.137 0 00-.685-.125 1.961 1.961 0 00-1.334.465 1.5 1.5 0 00-.513 1.16 1.357 1.357 0 00.3.907 7.07 7.07 0 001.29 1.03 3.4 3.4 0 01.859.644.952.952 0 01.167.513.648.648 0 01-.256.564 1.016 1.016 0 01-.729.213 1.412 1.412 0 01-.818-.213 2.244 2.244 0 01-.772-.69v1.155a1.925 1.925 0 00.73.479 3.425 3.425 0 00.9.121 1.593 1.593 0 001.244-.471 1.467 1.467 0 00.516-1.16 2.1 2.1 0 00-.255-1.027 3.338 3.338 0 00-1.116-.949z" class="prefix__cls-1" data-name="Trazado 1998" transform="translate(-316.849 -488.838)"/>
            <path id="prefix__Trazado_1999" d="M413.437 502.586a.5.5 0 00-.343.124.644.644 0 00-.168.387.4.4 0 00.128.3.427.427 0 00.258.214v.13a.8.8 0 01-.091.472.694.694 0 01-.252.346v.171a2.126 2.126 0 00.813-.516 1.293 1.293 0 00.256-.816.931.931 0 00-.169-.6.537.537 0 00-.432-.212z" class="prefix__cls-1" data-name="Trazado 1999" transform="translate(-339.961 -497.301)"/>
        </g>
    </g>
</svg>
