<svg xmlns="http://www.w3.org/2000/svg" width="101.126" height="49.896" viewBox="0 0 101.126 49.896">
    <defs>
        <style>
            .prefix__cls-1{fill:#fff}
        </style>
    </defs>
    <g id="prefix__logo_previ_blanco" transform="translate(-96.714 -154.328)">
        <path id="prefix__Trazado_2000" d="M448.553 201.453c-.153.152-.3.3-.456.437a6.716 6.716 0 005.864-1.405c3.151-2.354 3.815-6.017 2.183-7.876a1.011 1.011 0 00-1.215-.1c-.759.588-.228 1.157-.228 1.157 1.367 1.557.664 4.309-1.594 6.132a6.806 6.806 0 01-4.555 1.651" class="prefix__cls-1" data-name="Trazado 2000" transform="translate(-294.044 -31.81)"/>
        <path id="prefix__Trazado_2001" d="M358.187 200.3a7.86 7.86 0 007.384-3.681c1.423-2.354.512-4.689-2.013-5.22 0 0-.968-.17-.455-.949.417-.589 1.443-.475 1.443-.475 2.979.628 4.555 3.607 2.429 6.756a8.451 8.451 0 01-8.788 3.568" class="prefix__cls-1" data-name="Trazado 2001" transform="translate(-218.806 -29.822)"/>
        <path id="prefix__Trazado_2002" d="M302.085 201.218c-2.505-2.866-7.231-2.922-11.6-.759-4.365 2.183-6.586 6.207-4.935 9 0 0 .665 1.024-.816 1.69a1.672 1.672 0 01-1.936-.475c-1.955-3.3.493-8.749 6.529-11.483 5.276-2.392 10.837-1.842 12.755 2.03" class="prefix__cls-1" data-name="Trazado 2002" transform="translate(-155.169 -36.339)"/>
        <path id="prefix__Trazado_2003" d="M316.819 224.4c-3.283-2.183-4.764-5.712 2.088-10.533-4.365 1.575-6.244 4.44-6.434 7.154v.969a6.412 6.412 0 002.353 4.555c2.278 1.8 5.846 1.879 9.453.835a6.858 6.858 0 00-.417-2.372c-2.7.72-5.3.569-7.042-.609m16.532-3.264v.057a3.809 3.809 0 01-.968 1.708 21.15 21.15 0 01-2.941 2.164 11.447 11.447 0 01.474-1.974 12.237 12.237 0 002.961-1.8l.436-.342a.556.556 0 01.038.19" class="prefix__cls-1" data-name="Trazado 2003" transform="translate(-180.551 -49.826)"/>
        <path id="prefix__Trazado_2004" d="M344.122 213.452a7.693 7.693 0 00-6.548 4.916 3.286 3.286 0 003.226 4.649s1.007 0 .684.836c-.285.625-1.329.72-1.329.72-3.15-.057-5.39-2.637-4-6.054a8.3 8.3 0 017.972-5.067" class="prefix__cls-1" data-name="Trazado 2004" transform="translate(-200.015 -49.465)"/>
        <path id="prefix__Trazado_2005" d="M310.109 169.908c6.8-5.788 4.043-9.566-.455-11.748-4.5-2.164-11.445-.228-15.469 4.347 0 0-1.481 1.728-2.9.93-1.081-.646.3-2.486.3-2.486 4.764-5.41 14.027-8.58 19.816-5.278 5.067 2.867 7.25 10.572-1.291 14.235" class="prefix__cls-1" data-name="Trazado 2005" transform="translate(-162.472)"/>
        <g id="prefix__Grupo_1988" data-name="Grupo 1988" transform="translate(96.714 186.991)">
            <path id="prefix__Trazado_2006" d="M103.774 356.468h-7.06v8.769h1.651v-3.227h5.125a3.644 3.644 0 002.467-.721 2.511 2.511 0 00.855-2.05 2.651 2.651 0 00-.817-2.032 3.3 3.3 0 00-2.221-.739zm-.247 4.006h-5.162v-2.487h5.068c1.1 0 1.652.437 1.652 1.289-.001.76-.513 1.198-1.557 1.198z" class="prefix__cls-1" data-name="Trazado 2006" transform="translate(-96.714 -356.145)"/>
            <path id="prefix__Trazado_2007" d="M179.8 359.239a2.665 2.665 0 00-.835-2.032 3.267 3.267 0 00-2.221-.739h-7.1v8.769h1.727v-3.227h4.329l2.316 3.227h1.955l-2.353-3.341a2.489 2.489 0 002.182-2.657zm-5.086 1.235h-3.344v-2.487h5.01c1.1 0 1.671.437 1.671 1.289 0 .759-.532 1.2-1.576 1.2z" class="prefix__cls-1" data-name="Trazado 2007" transform="translate(-157.742 -356.145)"/>
            <path id="prefix__Trazado_2008" d="M249.61 361.439h5.181v-1.518h-5.181v-1.935h7.44v-1.519h-9.129v8.769h9.452V363.7h-7.763z" class="prefix__cls-1" data-name="Trazado 2008" transform="translate(-223.247 -356.144)"/>
            <path id="prefix__Trazado_2009" d="M316.44 363.736l-3.929-7.27h-1.9l4.859 8.769h1.955l4.859-8.769h-1.9z" class="prefix__cls-1" data-name="Trazado 2009" transform="translate(-275.709 -356.143)"/>
            <path id="prefix__Rectángulo_1914" d="M0 0H1.709V8.769H0z" class="prefix__cls-1" data-name="Rectángulo 1914" transform="translate(48.133 .322)"/>
            <path id="prefix__Trazado_2010" d="M424.728 359.454a7.488 7.488 0 00-3.074-.779 174.335 174.335 0 00-3-.265c-.74-.115-1.1-.38-1.1-.8 0-.682.987-1.042 2.923-1.042a7.968 7.968 0 013.72.872l1.045-1.1a8.15 8.15 0 00-4.783-1.271 6.93 6.93 0 00-3.492.74 2.235 2.235 0 00-1.234 1.993 1.765 1.765 0 00.778 1.557 4.978 4.978 0 002.411.721c.266.038 1.006.077 2.259.133a10.056 10.056 0 011.727.19c.645.209.968.531.968.988a1.112 1.112 0 01-.816 1 5.218 5.218 0 01-2.278.4 7.64 7.64 0 01-4.46-1.273l-.911 1.2a8.529 8.529 0 005.41 1.575 6.875 6.875 0 003.644-.8 2.4 2.4 0 001.273-2.183 2.068 2.068 0 00-1.01-1.856z" class="prefix__cls-1" data-name="Trazado 2010" transform="translate(-363.404 -354.975)"/>
            <path id="prefix__Trazado_2011" d="M498.174 355.687a6.627 6.627 0 00-3.909-1.2h-.039a6.5 6.5 0 00-3.909 1.2 4.1 4.1 0 00-1.86 3.491 4.2 4.2 0 001.86 3.512 6.576 6.576 0 003.909 1.137h.039a6.482 6.482 0 003.909-1.137 4.2 4.2 0 001.861-3.512 4.147 4.147 0 00-1.861-3.491zm-1.043 5.732a5.174 5.174 0 01-5.808 0 2.678 2.678 0 01-1.1-2.241 2.809 2.809 0 011.1-2.258 4.6 4.6 0 012.9-.873 4.418 4.418 0 012.866.873 2.82 2.82 0 01.039 4.5z" class="prefix__cls-1" data-name="Trazado 2011" transform="translate(-424.532 -354.491)"/>
            <path id="prefix__Trazado_2012" d="M584.78 359.239a2.6 2.6 0 00-.835-2.032 3.318 3.318 0 00-2.239-.739h-7.06v8.769h1.689v-3.227h4.365l2.278 3.227h1.993l-2.391-3.341a2.475 2.475 0 002.2-2.657zm-5.105 1.235h-3.34v-2.487h5.011c1.119 0 1.67.437 1.67 1.289 0 .759-.531 1.2-1.575 1.2z" class="prefix__cls-1" data-name="Trazado 2012" transform="translate(-496.656 -356.145)"/>
            <path id="prefix__Trazado_2013" d="M654.476 365.236h1.9l-4.8-8.769h-2.105l-4.8 8.769h7.63l-.873-1.537H647.4l3.132-5.809z" class="prefix__cls-1" data-name="Trazado 2013" transform="translate(-555.248 -356.144)"/>
        </g>
        <path id="prefix__Trazado_2014" d="M321.647 191.463a79 79 0 01-10.306-.929c-1.9-1.157-1.329-6.282-.475-8.5a12.966 12.966 0 003.587-2.22c5.637-4.195 6.814-10.743 3.91-14.065a1.8 1.8 0 00-2.164-.19c-1.366 1.045-.436 2.068-.436 2.068 2.467 2.809 1.177 7.726-2.848 10.972-4.043 3.245-9.015 4.079-12.412 1.345a6.421 6.421 0 003.497 2.504c3.227 1.271 1.8 7.385 1.613 7.991-5.143 1.309-8.389 1.461-15.336 2.069-.19.057-.133.227.152.209 1.917.018 13.628.056 33.537.095z" class="prefix__cls-1" data-name="Trazado 2014" transform="translate(-161.881 -9.143)"/>
        <path id="prefix__Trazado_2015" d="M492.094 437.47l-.209.3a3.527 3.527 0 00-.38-.189 1.106 1.106 0 00-.341-.057.676.676 0 00-.493.171.513.513 0 00-.19.417.752.752 0 00.019.208l.114.172a1.993 1.993 0 00.55.3c.113.056.227.095.285.133a1.264 1.264 0 01.493.379.906.906 0 01.171.551.975.975 0 01-.342.739 1.188 1.188 0 01-.817.285 1.471 1.471 0 01-.493-.075 2.076 2.076 0 01-.494-.209l.171-.341c.171.095.3.152.418.207a1.229 1.229 0 00.341.057.773.773 0 00.532-.188.663.663 0 00.208-.5.5.5 0 00-.057-.227.437.437 0 00-.152-.171 2.573 2.573 0 00-.646-.36c-.113-.057-.209-.1-.265-.134a.83.83 0 01-.361-.323.9.9 0 01-.115-.455.928.928 0 01.285-.721 1.155 1.155 0 01.8-.267 1.413 1.413 0 01.494.077 2.048 2.048 0 01.474.209" class="prefix__cls-1" data-name="Trazado 2015" transform="translate(-329.082 -236.699)"/>
        <path id="prefix__Trazado_2016" d="M522.031 437.654h1.879v.36h-1.442l-.019 1.178h1.4l-.019.36h-1.4l-.019 1.291h1.5v.361h-1.955z" class="prefix__cls-1" data-name="Trazado 2016" transform="translate(-355.849 -237.092)"/>
        <path id="prefix__Trazado_2017" d="M554.98 437.45l-.17.323a2.242 2.242 0 00-.456-.171 1.721 1.721 0 00-.418-.056 1.453 1.453 0 00-1.081.417 1.535 1.535 0 00-.418 1.081 1.446 1.446 0 00.4 1.063 1.331 1.331 0 001.025.417 2.218 2.218 0 00.341-.019 3.31 3.31 0 00.4-.114l.038-1.519h.417l-.019 1.765a3.015 3.015 0 01-.589.19 2.9 2.9 0 01-.588.057 2.606 2.606 0 01-.7-.1 1.413 1.413 0 01-.551-.3 1.764 1.764 0 01-.493-.625 2.086 2.086 0 01.038-1.652 2.188 2.188 0 01.589-.684 1.6 1.6 0 01.513-.245 1.651 1.651 0 01.626-.1 2.938 2.938 0 01.569.057 3.1 3.1 0 01.531.209" class="prefix__cls-1" data-name="Trazado 2017" transform="translate(-380.96 -236.698)"/>
        <path id="prefix__Trazado_2018" d="M590.968 437.654h.474l-.057 2.315v.019a.834.834 0 00.284.664 1.064 1.064 0 00.74.247.919.919 0 00.741-.285 1.579 1.579 0 00.247-.95l.038-2.011h.455l-.038 2.107a1.533 1.533 0 01-.379 1.119 1.425 1.425 0 01-1.063.381 1.531 1.531 0 01-1.12-.361 1.467 1.467 0 01-.36-1.081v-.057z" class="prefix__cls-1" data-name="Trazado 2018" transform="translate(-413.569 -237.092)"/>
        <path id="prefix__Trazado_2019" d="M629.754 439.323a1 1 0 00.436-.152.6.6 0 00.229-.512.644.644 0 00-.209-.514 1 1 0 00-.455-.151v-.342a1.5 1.5 0 01.455.057.969.969 0 01.342.171.987.987 0 01.227.322 1.037 1.037 0 01.1.419.832.832 0 01-.228.607 1.1 1.1 0 01-.683.322 2.282 2.282 0 01.266.19 1.9 1.9 0 01.265.286l.779 1.043-.379.247-.93-1.271a2.582 2.582 0 00-.209-.247zm-.665-1.348l-.019 1.366h.417a1.235 1.235 0 00.266-.018v.474a.1.1 0 01-.076-.038.674.674 0 00-.36-.076h-.247l-.019 1.52h-.437l.037-3.55h1.1v.342c-.057 0-.1-.019-.133-.019z" class="prefix__cls-1" data-name="Trazado 2019" transform="translate(-445.105 -237.091)"/>
        <path id="prefix__Trazado_2020" d="M663.9 440.508a1.264 1.264 0 001.006-.417 1.48 1.48 0 00.4-1.1 1.382 1.382 0 00-.4-1.023 1.341 1.341 0 00-1.006-.4v-.381a2.779 2.779 0 01.721.114 1.443 1.443 0 01.57.342 1.9 1.9 0 01.455.627 2.092 2.092 0 01.152.777 2.171 2.171 0 01-.152.761 2.064 2.064 0 01-.417.607 1.682 1.682 0 01-.589.342 1.907 1.907 0 01-.741.133zm-.019-2.942a1.292 1.292 0 00-1.006.417 1.447 1.447 0 00-.4 1.062 1.475 1.475 0 00.4 1.063 1.371 1.371 0 001.006.4h.019v.379a1.815 1.815 0 01-.759-.133 1.454 1.454 0 01-.588-.361 1.819 1.819 0 01-.418-.607 1.865 1.865 0 01-.133-.721 2.06 2.06 0 01.133-.759 2.09 2.09 0 01.4-.607 1.961 1.961 0 01.607-.379 2.2 2.2 0 01.74-.134h.019v.381z" class="prefix__cls-1" data-name="Trazado 2020" transform="translate(-473.04 -236.7)"/>
        <path id="prefix__Trazado_2021" d="M705.278 437.47l-.19.3c-.133-.075-.265-.133-.379-.189a1.116 1.116 0 00-.342-.057.759.759 0 00-.513.171.573.573 0 00-.19.417.778.778 0 00.038.208.451.451 0 00.114.172 1.8 1.8 0 00.531.3c.133.056.227.095.3.133a1.265 1.265 0 01.494.379 1.037 1.037 0 01.152.551.955.955 0 01-.323.739 1.2 1.2 0 01-.835.285 1.372 1.372 0 01-.475-.075 1.8 1.8 0 01-.493-.209l.171-.341a4 4 0 00.417.207 1.13 1.13 0 00.342.057.692.692 0 00.512-.188.6.6 0 00.209-.5.967.967 0 00-.038-.227.648.648 0 00-.152-.171 2.554 2.554 0 00-.645-.36c-.113-.057-.209-.1-.265-.134a.838.838 0 01-.361-.323.911.911 0 01-.133-.455.88.88 0 01.3-.721 1.154 1.154 0 01.8-.267 1.3 1.3 0 01.474.077 1.514 1.514 0 01.475.209" class="prefix__cls-1" data-name="Trazado 2021" transform="translate(-507.495 -236.699)"/>
    </g>
</svg>
