<svg xmlns="http://www.w3.org/2000/svg" xmlns:xlink="http://www.w3.org/1999/xlink" width="207.482" height="33.227" viewBox="0 0 207.482 33.227">
  <defs>
    <linearGradient id="linear-gradient" y1="0.5" x2="1" y2="0.5" gradientUnits="objectBoundingBox">
      <stop offset="0" stop-color="#bed740"/>
      <stop offset="0.01" stop-color="#bed740"/>
      <stop offset="0.55" stop-color="#62bb46"/>
      <stop offset="1" stop-color="#004e27"/>
    </linearGradient>
    <linearGradient id="linear-gradient-2" x1="0.003" y1="0.5" x2="1.003" y2="0.5" gradientUnits="objectBoundingBox">
      <stop offset="0" stop-color="#bed740"/>
      <stop offset="1" stop-color="#62bb46"/>
    </linearGradient>
    <linearGradient id="linear-gradient-3" y1="0.5" x2="1" y2="0.5" gradientUnits="objectBoundingBox">
      <stop offset="0" stop-color="#62bb46"/>
      <stop offset="1" stop-color="#004e27"/>
    </linearGradient>
    <linearGradient id="linear-gradient-4" x1="0.003" y1="0.5" x2="1.003" y2="0.5" gradientUnits="objectBoundingBox">
      <stop offset="0" stop-color="#bed740"/>
      <stop offset="0.55" stop-color="#62bb46"/>
      <stop offset="1" stop-color="#004e27"/>
    </linearGradient>
  </defs>
  <g id="Grupo_3116" data-name="Grupo 3116" transform="translate(0)">
    <g id="Grupo_1503" data-name="Grupo 1503" transform="translate(51.786 6.643)">
      <path id="Trazado_2063" data-name="Trazado 2063" d="M79.854,368.06a4.969,4.969,0,0,1,3.412,1.153,4,4,0,0,1,1.245,3.112,3.856,3.856,0,0,1-1.291,3.159,5.783,5.783,0,0,1-3.827,1.107H76.7v-2.352h2.744c1.614,0,2.421-.669,2.421-1.868,0-1.314-.853-1.96-2.559-1.96H76.7V368.06ZM76.7,376.591v-2.352H71.508v-3.827H76.7V368.06H68.972v13.488h2.536v-4.957Z" transform="translate(-68.972 -367.553)" fill="#1c472f" fill-rule="evenodd"/>
      <path id="Trazado_2064" data-name="Trazado 2064" d="M79.854,368.06a4.969,4.969,0,0,1,3.412,1.153,4,4,0,0,1,1.245,3.112,3.856,3.856,0,0,1-1.291,3.159,5.783,5.783,0,0,1-3.827,1.107H76.7v-2.352h2.744c1.614,0,2.421-.669,2.421-1.868,0-1.314-.853-1.96-2.559-1.96H76.7V368.06ZM76.7,376.591H71.508v4.957H68.972V368.06H76.7v2.352H71.508v3.827H76.7Z" transform="translate(-68.972 -367.553)" fill="#1c472f" fill-rule="evenodd"/>
      <path id="Trazado_2065" data-name="Trazado 2065" d="M142.048,381.548h-3.02l-3.551-4.957H133.91v-2.352h2.767c1.614,0,2.421-.669,2.421-1.868,0-1.314-.876-1.96-2.582-1.96H133.91V368.06h3.159a4.811,4.811,0,0,1,3.412,1.153,3.974,3.974,0,0,1,1.314,3.112,3.879,3.879,0,0,1-3.366,4.127l3.62,5.1Zm-8.139-4.957v-2.352h-5.118v-3.827h5.118V368.06h-7.77v13.488h2.651v-4.957Z" transform="translate(-107.834 -367.553)" fill="#1c472f" fill-rule="evenodd"/>
      <path id="Trazado_2066" data-name="Trazado 2066" d="M142.048,381.548h-3.02l-3.551-4.957h-1.545v-2.352h2.744c1.614,0,2.421-.669,2.421-1.868,0-1.314-.876-1.96-2.582-1.96h-2.582V368.06h3.136a4.811,4.811,0,0,1,3.412,1.153,3.974,3.974,0,0,1,1.314,3.112,3.879,3.879,0,0,1-3.366,4.127Zm-8.116-4.957h-5.141v4.957H126.14V368.06h7.793v2.352h-5.141v3.827h5.141Z" transform="translate(-107.834 -367.553)" fill="#1c472f" fill-rule="evenodd"/>
      <path id="Trazado_2067" data-name="Trazado 2067" d="M202.1,381.548H187.556V368.06H201.62v2.352H190.161v2.974h7.977v2.352h-7.977V379.2H202.1Z" transform="translate(-149.583 -367.553)" fill="#1c472f" fill-rule="evenodd"/>
      <path id="Trazado_2068" data-name="Trazado 2068" d="M245.773,379.242l6.087-11.182h2.905l-7.47,13.488h-3.02L236.8,368.06h2.9Z" transform="translate(-183.061 -367.553)" fill="#1c472f" fill-rule="evenodd"/>
      <rect id="Rectángulo_1940" data-name="Rectángulo 1940" width="2.652" height="13.488" transform="translate(74.101 0.507)" fill="#1c472f"/>
      <path id="Trazado_2069" data-name="Trazado 2069" d="M332.513,370.574a12.353,12.353,0,0,0-5.718-1.337c-3,0-4.519.553-4.519,1.591,0,.669.553,1.061,1.706,1.268,1.522.092,3.066.254,4.611.392a11.2,11.2,0,0,1,4.726,1.222,3.116,3.116,0,0,1,1.545,2.836,3.758,3.758,0,0,1-1.937,3.366,10.725,10.725,0,0,1-5.626,1.222,13.351,13.351,0,0,1-8.346-2.421l1.406-1.868a11.69,11.69,0,0,0,6.894,1.96,8.335,8.335,0,0,0,3.5-.6,1.713,1.713,0,0,0,1.268-1.568c0-.669-.507-1.176-1.522-1.476a12.735,12.735,0,0,0-2.651-.3c-1.914-.115-3.066-.161-3.458-.207a7.709,7.709,0,0,1-3.735-1.107,2.794,2.794,0,0,1-1.2-2.421,3.5,3.5,0,0,1,1.914-3.066,10.872,10.872,0,0,1,5.372-1.153,12.628,12.628,0,0,1,7.378,1.96Z" transform="translate(-238.906 -366.77)" fill="#1c472f" fill-rule="evenodd"/>
      <path id="Trazado_2070" data-name="Trazado 2070" d="M394.162,373.716a6.392,6.392,0,0,1-2.859,5.4,10.108,10.108,0,0,1-6.018,1.775h-.069v-2.375a6.774,6.774,0,0,0,4.473-1.36,4.2,4.2,0,0,0,1.706-3.435h0a4.261,4.261,0,0,0-1.752-3.481,6.856,6.856,0,0,0-4.427-1.36v0h0v-2.4h.069a10.23,10.23,0,0,1,6.018,1.844,6.392,6.392,0,0,1,2.859,5.4Zm-8.946,7.17h0v0Zm0-14.41v2.4a7.058,7.058,0,0,0-4.45,1.36,4.309,4.309,0,0,0-1.706,3.481,4.075,4.075,0,0,0,1.706,3.435,6.751,6.751,0,0,0,4.45,1.36v2.375a10.108,10.108,0,0,1-6.018-1.775,6.52,6.52,0,0,1,0-10.79A10.35,10.35,0,0,1,385.216,366.476Z" transform="translate(-277.915 -366.476)" fill="#1c472f" fill-rule="evenodd"/>
      <path id="Trazado_2071" data-name="Trazado 2071" d="M394.162,373.716a6.392,6.392,0,0,1-2.859,5.4,10.108,10.108,0,0,1-6.018,1.775h-.069v-2.375a6.774,6.774,0,0,0,4.473-1.36,4.2,4.2,0,0,0,1.706-3.435h0a4.261,4.261,0,0,0-1.752-3.481,6.856,6.856,0,0,0-4.427-1.36v-2.4h.069a10.23,10.23,0,0,1,6.018,1.844,6.392,6.392,0,0,1,2.859,5.4Zm-8.946,7.17a10.219,10.219,0,0,1-6.018-1.775,6.52,6.52,0,0,1,0-10.79,10.079,10.079,0,0,1,6.018-1.844v2.4h0a7.058,7.058,0,0,0-4.45,1.36,4.309,4.309,0,0,0-1.706,3.481,4.075,4.075,0,0,0,1.706,3.435,6.751,6.751,0,0,0,4.45,1.36h0Z" transform="translate(-277.915 -366.476)" fill="#1c472f" fill-rule="evenodd"/>
      <path id="Trazado_2072" data-name="Trazado 2072" d="M459.833,381.548H456.79l-3.527-4.957h-1.545v-2.352h2.7c1.614,0,2.421-.669,2.421-1.868,0-1.314-.853-1.96-2.559-1.96h-2.559V368.06h3.113a5.011,5.011,0,0,1,3.458,1.153,4,4,0,0,1,1.245,3.112,3.842,3.842,0,0,1-3.343,4.127l3.643,5.1Zm-8.116-4.957v-2.352h-5.164v-3.827h5.164V368.06h-7.77v13.488h2.605v-4.957Z" transform="translate(-323.874 -367.553)" fill="#1c472f" fill-rule="evenodd"/>
      <path id="Trazado_2073" data-name="Trazado 2073" d="M459.833,381.548H456.79l-3.527-4.957h-1.568v-2.352h2.721c1.614,0,2.421-.669,2.421-1.868,0-1.314-.853-1.96-2.559-1.96h-2.582V368.06h3.136a5.011,5.011,0,0,1,3.458,1.153,4,4,0,0,1,1.245,3.112,3.842,3.842,0,0,1-3.343,4.127Zm-8.139-4.957h-5.141v4.957h-2.605V368.06h7.747v2.352h-5.141v3.827h5.141Z" transform="translate(-323.874 -367.553)" fill="#1c472f" fill-rule="evenodd"/>
      <path id="Trazado_2074" data-name="Trazado 2074" d="M514.009,381.548h2.9l-7.378-13.488h-3.274l-7.378,13.488h11.759l-1.36-2.352H503.1l4.819-8.946Z" transform="translate(-361.218 -367.553)" fill="#1c472f" fill-rule="evenodd"/>
      <path id="Trazado_2075" data-name="Trazado 2075" d="M380.815,431.858l-.323.461a1.978,1.978,0,0,0-.553-.254,1.55,1.55,0,0,0-.553-.092,1.194,1.194,0,0,0-.761.231.817.817,0,0,0-.3.645,1.36,1.36,0,0,0,.046.323.653.653,0,0,0,.184.254,2.283,2.283,0,0,0,.83.484c.184.092.346.161.461.207a1.608,1.608,0,0,1,.738.6,1.272,1.272,0,0,1,.254.83,1.49,1.49,0,0,1-.507,1.153,1.808,1.808,0,0,1-1.268.438,2.181,2.181,0,0,1-.761-.115,3.008,3.008,0,0,1-.738-.346l.254-.507a5.579,5.579,0,0,0,.646.323,2.38,2.38,0,0,0,.507.092,1.151,1.151,0,0,0,.83-.3,1.045,1.045,0,0,0,.323-.761.833.833,0,0,0-.323-.622,5.344,5.344,0,0,0-.991-.553c-.184-.092-.3-.138-.415-.184a1.466,1.466,0,0,1-.553-.507,1.409,1.409,0,0,1-.184-.692,1.444,1.444,0,0,1,.438-1.13,1.766,1.766,0,0,1,1.245-.415,2.6,2.6,0,0,1,.738.115A3.421,3.421,0,0,1,380.815,431.858Z" transform="translate(-377.194 -410.624)" fill="#1c472f" fill-rule="evenodd"/>
      <path id="Trazado_2076" data-name="Trazado 2076" d="M402.784,431.78h2.905v.576h-2.236l-.023,1.8h2.144v.577h-2.167l-.023,1.983h2.306l-.023.553h-2.974Z" transform="translate(-394.275 -410.868)" fill="#1c472f" fill-rule="evenodd"/>
      <path id="Trazado_2077" data-name="Trazado 2077" d="M430.821,431.835l-.254.507a3.5,3.5,0,0,0-.715-.277,2.184,2.184,0,0,0-.646-.092,2.335,2.335,0,0,0-1.66.646,2.391,2.391,0,0,0-.646,1.683,2.225,2.225,0,0,0,.623,1.637,2.036,2.036,0,0,0,1.568.646,4.961,4.961,0,0,0,.53-.046,4.159,4.159,0,0,0,.622-.161l.046-2.329h.646l-.046,2.7a4.383,4.383,0,0,1-.876.3,4.04,4.04,0,0,1-.922.092,3.752,3.752,0,0,1-1.084-.138,2.771,2.771,0,0,1-.853-.461,2.6,2.6,0,0,1-.738-.991,2.7,2.7,0,0,1-.254-1.222,2.889,2.889,0,0,1,.3-1.314,3.18,3.18,0,0,1,.9-1.038,2.435,2.435,0,0,1,.807-.415,3.017,3.017,0,0,1,.945-.138,3.651,3.651,0,0,1,.876.115A3.009,3.009,0,0,1,430.821,431.835Z" transform="translate(-410.231 -410.624)" fill="#1c472f" fill-rule="evenodd"/>
      <path id="Trazado_2078" data-name="Trazado 2078" d="M456.761,431.78h.738l-.069,3.574v.046a1.321,1.321,0,0,0,.415,1.014,1.64,1.64,0,0,0,1.13.392,1.411,1.411,0,0,0,1.153-.461,2.379,2.379,0,0,0,.392-1.453l.046-3.113h.715l-.069,3.274a2.444,2.444,0,0,1-.576,1.706,2.194,2.194,0,0,1-1.637.6,2.341,2.341,0,0,1-1.729-.576,2.261,2.261,0,0,1-.576-1.66v-.092Z" transform="translate(-430.983 -410.868)" fill="#1c472f" fill-rule="evenodd"/>
      <path id="Trazado_2079" data-name="Trazado 2079" d="M488.036,431.78a2.84,2.84,0,0,1,.715.092,1,1,0,0,1,.507.277,1.239,1.239,0,0,1,.369.484,1.548,1.548,0,0,1,.138.646,1.217,1.217,0,0,1-.369.945,1.838,1.838,0,0,1-1.038.507,1.628,1.628,0,0,1,.415.277,2.579,2.579,0,0,1,.392.438l1.2,1.614-.553.392-1.429-1.96a1.988,1.988,0,0,0-.346-.392v-.715a1.622,1.622,0,0,0,.669-.254.967.967,0,0,0,.369-.807.941.941,0,0,0-.323-.761,1.256,1.256,0,0,0-.715-.254Zm-1.683,0h1.683v.53h-.991l-.046,2.1h.646c.138,0,.277-.023.392-.023v.715c-.046-.023-.069-.046-.092-.046a1.123,1.123,0,0,0-.576-.138H487l-.046,2.352h-.669Z" transform="translate(-451.1 -410.868)" fill="#1c472f" fill-rule="evenodd"/>
      <path id="Trazado_2080" data-name="Trazado 2080" d="M515.4,431.492a3.34,3.34,0,0,1,1.13.161,2.415,2.415,0,0,1,.876.53,2.481,2.481,0,0,1,.692.968,2.927,2.927,0,0,1,.231,1.2,2.86,2.86,0,0,1-.231,1.153,2.755,2.755,0,0,1-.646.945,2.563,2.563,0,0,1-.9.553,3.515,3.515,0,0,1-1.13.184H515.4v-.576a2.052,2.052,0,0,0,1.591-.646,2.392,2.392,0,0,0,.576-1.706,2.059,2.059,0,0,0-2.167-2.19Zm0,0h0v.576h0a2.1,2.1,0,0,0-1.568.623,2.307,2.307,0,0,0-.6,1.637,2.365,2.365,0,0,0,.6,1.66,2.1,2.1,0,0,0,1.568.623h0v.576a3.451,3.451,0,0,1-1.153-.184,2.654,2.654,0,0,1-.922-.6,2.721,2.721,0,0,1-.622-.922,2.952,2.952,0,0,1-.207-1.107,3.107,3.107,0,0,1,.207-1.153,2.6,2.6,0,0,1,.622-.945,2.245,2.245,0,0,1,.922-.576A3.108,3.108,0,0,1,515.4,431.492Z" transform="translate(-468.915 -410.673)" fill="#1c472f" fill-rule="evenodd"/>
      <path id="Trazado_2081" data-name="Trazado 2081" d="M548.071,431.858l-.323.461a1.977,1.977,0,0,0-.553-.254,1.55,1.55,0,0,0-.553-.092,1.2,1.2,0,0,0-.761.231.817.817,0,0,0-.3.645,1.36,1.36,0,0,0,.046.323.652.652,0,0,0,.185.254,2.281,2.281,0,0,0,.83.484c.185.092.346.161.461.207a1.608,1.608,0,0,1,.738.6,1.272,1.272,0,0,1,.254.83,1.49,1.49,0,0,1-.507,1.153,1.808,1.808,0,0,1-1.268.438,1.981,1.981,0,0,1-.738-.115,2.786,2.786,0,0,1-.761-.346l.254-.507a5.594,5.594,0,0,0,.646.323,2.66,2.66,0,0,0,.507.092,1.15,1.15,0,0,0,.83-.3,1.045,1.045,0,0,0,.323-.761.651.651,0,0,0-.092-.346.8.8,0,0,0-.207-.277,6.847,6.847,0,0,0-1.014-.553c-.185-.092-.3-.138-.392-.184a1.193,1.193,0,0,1-.553-.507,1.22,1.22,0,0,1-.208-.692,1.444,1.444,0,0,1,.438-1.13,1.766,1.766,0,0,1,1.245-.415,2.6,2.6,0,0,1,.738.115A3.42,3.42,0,0,1,548.071,431.858Z" transform="translate(-490.891 -410.624)" fill="#1c472f" fill-rule="evenodd"/>
    </g>
    <g id="Grupo_1505" data-name="Grupo 1505">
      <path id="Trazado_2082" data-name="Trazado 2082" d="M335.444,248.621c2.148,1.725,5.311,1.2,7.848-.846s3.349-5.159,1.793-6.935c0,0-.592-.643.271-1.285a1.151,1.151,0,0,1,1.37.1c1.827,2.1,1.083,6.241-2.469,8.88C341.144,250.853,337.372,251.124,335.444,248.621Z" transform="translate(-307.024 -232.258)" fill="#62bb46" fill-rule="evenodd"/>
      <path id="Trazado_2083" data-name="Trazado 2083" d="M274.172,249.142a8.927,8.927,0,0,0,8.355-4.161c1.59-2.639.558-5.294-2.283-5.886,0,0-1.1-.2-.524-1.066.474-.677,1.624-.541,1.624-.541,3.383.71,5.142,4.076,2.774,7.628A9.534,9.534,0,0,1,274.172,249.142Z" transform="translate(-260.146 -230.817)" fill="#bed740" fill-rule="evenodd"/>
      <path id="Trazado_2084" data-name="Trazado 2084" d="M237.016,247.489c-2.842-3.247-8.186-3.315-13.125-.863-4.922,2.453-7.425,7-5.565,10.148,0,0,.744,1.167-.913,1.928a1.924,1.924,0,0,1-2.2-.558c-2.216-3.721.558-9.878,7.375-12.956C228.542,242.482,234.834,243.091,237.016,247.489Z" transform="translate(-214.465 -235.473)" fill-rule="evenodd" fill="url(#linear-gradient)"/>
      <path id="Trazado_2085" data-name="Trazado 2085" d="M245.462,256.244c-7.73,5.429-6.055,9.421-2.368,11.891,7,4.7,16.018-6.089,18.47-4.178.846.71-.88,2.486-.88,2.486-5.768,5.159-15.189,7.8-19.823,4.11C236.8,267.34,236.6,259.424,245.462,256.244Z" transform="translate(-232.603 -245.175)" fill-rule="evenodd" fill="url(#linear-gradient-2)"/>
      <path id="Trazado_2086" data-name="Trazado 2086" d="M266,255.9a8.687,8.687,0,0,0-7.391,5.548c-.981,2.841.643,5.209,3.653,5.26,0,0,1.133-.017.761.93-.3.727-1.505.812-1.505.812-3.552-.068-6.089-2.977-4.516-6.833A9.342,9.342,0,0,1,266,255.9Z" transform="translate(-246.642 -244.899)" fill-rule="evenodd" fill="url(#linear-gradient-3)"/>
      <path id="Trazado_2087" data-name="Trazado 2087" d="M256.366,247.664a87.246,87.246,0,0,1-11.637-1.049c-2.148-1.3-1.488-7.087-.524-9.59a14.671,14.671,0,0,0,4.042-2.52c6.377-4.736,7.7-12.144,4.431-15.9a2.074,2.074,0,0,0-2.469-.2c-1.539,1.167-.474,2.317-.474,2.317,2.774,3.18,1.319,8.745-3.231,12.415s-10.182,4.618-14.022,1.522a7.249,7.249,0,0,0,3.941,2.825c3.653,1.438,2.047,8.339,1.844,9.032-5.835,1.472-9.489,1.641-17.337,2.334-.2.068-.152.271.169.237,2.182.017,15.392.051,37.9.1Z" transform="translate(-219.32 -215.96)" fill="#1c472f" fill-rule="evenodd"/>
      <path id="Trazado_2088" data-name="Trazado 2088" d="M242.875,226.724c7.662-6.546,4.55-10.808-.524-13.261-5.074-2.469-12.922-.271-17.489,4.888,0,0-1.658,1.962-3.264,1.066-1.218-.727.321-2.808.321-2.808,5.4-6.106,15.865-9.692,22.411-5.971C250.063,213.887,252.516,222.58,242.875,226.724Z" transform="translate(-219.563 -209.127)" fill-rule="evenodd" fill="url(#linear-gradient-4)"/>
    </g>
  </g>
</svg>
