<svg width="16" height="16" viewBox="0 0 16 16" fill="none" xmlns="http://www.w3.org/2000/svg">
<g id="Component 4">
<path id="Vector" d="M1.31967 14C0.95976 14 0.647838 13.8744 0.387903 13.6193C0.127968 13.3641 0 13.0619 0 12.7047V2.89535C0 2.54208 0.127968 2.2359 0.387903 1.98076C0.647838 1.72562 0.955761 1.60001 1.31967 1.60001H14.6803C15.0402 1.60001 15.3522 1.72562 15.6121 1.98076C15.872 2.2359 16 2.53815 16 2.89535V12.7047C16 13.0579 15.872 13.3641 15.6121 13.6193C15.3522 13.8744 15.0442 14 14.6803 14H1.31967ZM14.9403 3.57835L8.36191 7.80589C8.30192 7.8373 8.24594 7.86085 8.18595 7.88047C8.12997 7.9001 8.06598 7.91188 7.998 7.91188C7.93002 7.91188 7.87003 7.9001 7.81005 7.88047C7.75406 7.86085 7.69408 7.83337 7.64209 7.80589L1.06373 3.57835V12.7047C1.06373 12.7792 1.08773 12.8381 1.13572 12.8891C1.1837 12.9402 1.24769 12.9598 1.32367 12.9598H14.6843C14.7603 12.9598 14.8203 12.9363 14.8723 12.8891C14.9203 12.842 14.9443 12.7792 14.9443 12.7047V3.57835H14.9403ZM8.002 6.95018L14.7723 2.64021H1.24369L8.002 6.95018ZM1.06373 3.74322V2.99741V3.02096V2.64413V3.01311V2.98563V3.74322Z" fill="#D90B0B"/>
</g>
</svg>
