<svg width="79" height="81" viewBox="0 0 79 81" fill="none" xmlns="http://www.w3.org/2000/svg">
<rect width="79" height="81" fill="#592272"/>
<path d="M32.3 51.3323H24.596C24.268 51.3323 24.044 51.2203 23.828 51.0043C23.612 50.7883 23.5 50.4523 23.5 50.2363C23.5 49.9083 23.612 49.6843 23.828 49.4683C24.044 49.2523 24.268 49.1403 24.596 49.1403H32.404C32.732 49.1403 32.956 49.2523 33.172 49.4683C33.388 49.6843 33.5 50.0203 33.5 50.3483C33.5 50.6763 33.388 50.9003 33.172 51.1163C32.956 51.2283 32.62 51.3323 32.292 51.3323H32.3ZM54.292 31.8683H24.596C24.268 31.8683 24.044 31.7563 23.828 31.5403C23.612 31.3243 23.5 30.9883 23.5 30.7723C23.5 30.4443 23.612 30.2203 23.828 30.0043C24.044 29.7883 24.268 29.6763 24.596 29.6763H54.396C54.724 29.6763 54.948 29.7883 55.164 30.0043C55.38 30.2203 55.492 30.5563 55.492 30.7723C55.492 31.1003 55.38 31.3243 55.164 31.5403C54.948 31.7563 54.612 31.8683 54.284 31.8683H54.292ZM43.292 41.5483H24.596C24.268 41.5483 24.044 41.4363 23.828 41.2203C23.612 41.0043 23.5 40.6683 23.5 40.3403C23.5 40.0123 23.612 39.7883 23.828 39.5723C24.044 39.3563 24.268 39.2443 24.596 39.2443H43.404C43.732 39.2443 43.956 39.3563 44.172 39.5723C44.388 39.7883 44.5 40.1243 44.5 40.3403C44.5 40.6683 44.388 40.8923 44.172 41.1083C43.956 41.3243 43.62 41.5483 43.292 41.5483Z" fill="white"/>
</svg>
