<svg width="40" height="40" viewBox="0 0 40 40" fill="none" xmlns="http://www.w3.org/2000/svg">
<g id="Path 19642">
<path id="Path 19642_2" d="M19.9398 2.82817L3.02756 10.4901C2.96256 10.4951 2.90136 10.5264 2.85529 10.5782C2.80922 10.63 2.78138 10.6988 2.77693 10.7718C2.7277 10.8274 2.69037 10.8948 2.66779 10.969C2.6452 11.0432 2.63796 11.1222 2.64661 11.2V36.1577C2.62625 36.3572 2.67271 36.5581 2.77693 36.7211C2.90726 36.8676 3.02756 36.8676 3.27818 36.8676H8.95235V20.8451C8.94554 20.4509 9.0096 20.0591 9.1407 19.6934C9.27179 19.3277 9.46723 18.9955 9.71529 18.7167C9.96335 18.4378 10.2589 18.2182 10.5843 18.0708C10.9097 17.9235 11.2582 17.8515 11.609 17.8592H28.3909C28.7416 17.8515 29.0901 17.9235 29.4155 18.0708C29.7409 18.2182 30.0365 18.4378 30.2846 18.7167C30.5326 18.9955 30.7281 19.3277 30.8592 19.6934C30.9903 20.0591 31.0543 20.4509 31.0475 20.8451V36.7324H36.7217C36.8992 36.7553 37.0779 36.7031 37.2229 36.5859C37.3533 36.4394 37.3533 36.3042 37.3533 36.0225V11.2C37.3619 11.1222 37.3547 11.0432 37.3321 10.969C37.3095 10.8948 37.2722 10.8274 37.2229 10.7718L36.9723 10.4901L19.9398 2.82817ZM11.4887 39.8423H3.27818C2.85018 39.8349 2.42792 39.7303 2.03683 39.5347C1.64575 39.3391 1.29391 39.0566 1.0025 38.7042C0.690515 38.3783 0.440757 37.9846 0.268416 37.5468C0.0960754 37.109 0.00475236 36.6364 0 36.1577V11.2C0.0290102 10.4428 0.245092 9.70967 0.62402 9.08277C1.00295 8.45587 1.52975 7.95998 2.14536 7.6507L18.6766 0.28169C19.0796 0.104922 19.5073 0.00956029 19.9398 0C20.3688 0.0411134 20.7924 0.135588 21.2029 0.28169L37.8545 7.79718C38.4893 8.06076 39.0239 8.56214 39.3683 9.2169C39.7839 9.82791 40.0062 10.5774 39.9999 11.3465V36.3042C39.9554 37.2682 39.5947 38.1795 38.9874 38.862C38.3801 39.5446 37.5693 39.95 36.7117 40H28.3809V20.8563H11.4787V39.8535L11.4887 39.8423ZM14.5162 39.8423V36.293H17.6741V39.8423H14.5162ZM18.3057 32.7549V29.2056H21.4636V32.7549H18.3057ZM22.2155 39.8423V36.293H25.3734V39.8423H22.2155Z" fill="white"/>
</g>
</svg>
