<svg width="16" height="16" viewBox="0 0 16 16" fill="none" xmlns="http://www.w3.org/2000/svg">
<path id="Path 19705" d="M7.96213 9.07735L1.3006 15.7706C1.23292 15.8453 1.14998 15.9044 1.05745 15.944C0.964922 15.9835 0.864988 16.0026 0.764478 15.9997C0.663967 16.0026 0.564033 15.9835 0.471506 15.944C0.378979 15.9044 0.296039 15.8453 0.228354 15.7706C0.0900977 15.6246 0.0090932 15.4332 0.000301699 15.2319C-0.00250981 15.1309 0.0164101 15.0305 0.0557686 14.9375C0.0951272 14.8446 0.153997 14.7612 0.228354 14.6932L6.88989 8L0.232355 1.30676C0.156738 1.23956 0.0967546 1.15647 0.0566532 1.06338C0.0165517 0.970288 -0.00268636 0.869478 0.000301699 0.768087C-0.00250981 0.667098 0.0164101 0.566689 0.0557686 0.473722C0.0951272 0.380754 0.153997 0.29742 0.228354 0.229412C0.37475 0.0896976 0.566726 0.0082553 0.768478 0.000274455C0.868989 -0.00255043 0.968923 0.0164595 1.06145 0.0560054C1.15398 0.0955512 1.23692 0.154701 1.3046 0.229412L7.96613 6.92265L14.6237 0.229412C14.6931 0.156948 14.7764 0.0993027 14.8685 0.0599281C14.9606 0.0205535 15.0597 0.000258871 15.1598 0.000258871C15.2599 0.000258871 15.359 0.0205535 15.4511 0.0599281C15.5432 0.0993027 15.6265 0.156948 15.6959 0.229412C15.8342 0.375414 15.9152 0.566752 15.924 0.768087C15.9268 0.869076 15.9079 0.969485 15.8685 1.06245C15.8291 1.15542 15.7703 1.23875 15.6959 1.30676L9.1104 7.92362L15.7719 14.6169C15.8441 14.6866 15.9014 14.7703 15.9406 14.8628C15.9798 14.9554 16 15.0549 16 15.1555C16 15.2561 15.9798 15.3557 15.9406 15.4482C15.9014 15.5408 15.8441 15.6244 15.7719 15.6942C15.6266 15.8331 15.4362 15.9145 15.2358 15.9233C15.1353 15.9262 15.0354 15.9072 14.9428 15.8676C14.8503 15.8281 14.7674 15.7689 14.6997 15.6942L7.96213 9.07735Z" fill="#2C421F"/>
</svg>
