<svg width="22" height="24" viewBox="0 0 22 24" fill="none" xmlns="http://www.w3.org/2000/svg">
<g id="Path 19702">
<path id="Path 19702_2" d="M21.8268 9.88448C19.7564 9.87209 17.7409 9.21712 16.0588 8.01005V16.3998C16.0588 18.4155 15.2581 20.3486 13.8328 21.774C12.4074 23.1993 10.4743 24 8.4586 24C6.4429 24 4.50976 23.1993 3.08445 21.774C1.65913 20.3486 0.858398 18.4155 0.858398 16.3998C0.868065 14.3775 1.67571 12.4408 3.10572 11.0108C4.53572 9.58075 6.47245 8.7731 8.49476 8.76344C8.84589 8.75149 9.19732 8.77572 9.54348 8.83576V13.0306C8.66336 12.7751 7.71798 12.8767 6.91223 13.3133C6.10648 13.75 5.50526 14.4866 5.23886 15.3635C4.97246 16.2404 5.06234 17.187 5.48902 17.9981C5.91571 18.8091 6.64483 19.4194 7.51837 19.6966C7.95575 19.8407 8.41781 19.8945 8.8766 19.8549C9.33538 19.8153 9.78136 19.683 10.1876 19.4661C10.5938 19.2492 10.9518 18.9521 11.2399 18.5929C11.528 18.2337 11.7403 17.8198 11.8639 17.3762C11.9495 17.0326 11.9999 16.6812 12.0146 16.3275V0H16.1311C16.1192 0.351129 16.1434 0.702555 16.2035 1.04872C16.3407 1.81627 16.6381 2.54628 17.0763 3.19119C17.5146 3.83609 18.0838 4.38139 18.7469 4.79156C19.679 5.41474 20.7719 5.75393 21.8931 5.76796V9.88448H21.8207H21.8268Z" fill="white"/>
</g>
</svg>
