<svg width="20" height="20" viewBox="0 0 20 20" fill="none" xmlns="http://www.w3.org/2000/svg">
<path d="M18.3826 9.74075C18.2662 7.48172 17.4198 5.564 15.8434 3.98758C14.267 2.41116 12.3517 1.56723 10.0977 1.4558V0C11.4208 0.0455769 12.6629 0.330558 13.8241 0.854943C14.9853 1.37935 16.0032 2.08003 16.8777 2.957C17.7522 3.83397 18.4516 4.85306 18.976 6.01426C19.5004 7.17547 19.7879 8.41763 19.8384 9.74075H18.3826ZM13.6184 9.74075C13.502 8.81229 13.1183 8.02136 12.4671 7.36795C11.8159 6.71456 11.0261 6.33587 10.0977 6.23187V4.77607C11.4292 4.88006 12.5624 5.39939 13.4973 6.33404C14.4322 7.2687 14.9578 8.40426 15.0742 9.74075H13.6184ZM18.5779 20C16.4803 20 14.3368 19.4851 12.1473 18.4554C9.95789 17.4257 7.92405 15.9717 6.04582 14.0934C4.17501 12.2152 2.72474 10.1832 1.69501 7.99749C0.665264 5.81175 0.150391 3.67008 0.150391 1.57249C0.150391 1.21257 0.270367 0.910774 0.510322 0.667112C0.750276 0.42343 1.05022 0.301588 1.41017 0.301588H4.87385C5.17282 0.301588 5.42889 0.399019 5.64206 0.593879C5.85525 0.78874 6.00022 1.03696 6.07697 1.33854L6.75894 4.54481C6.80096 4.84506 6.79127 5.11081 6.72985 5.34205C6.66846 5.5733 6.55409 5.76762 6.38675 5.92504L3.67187 8.56866C4.16012 9.42286 4.68811 10.2192 5.25583 10.9578C5.82357 11.6964 6.43773 12.3937 7.0983 13.0499C7.79157 13.756 8.5289 14.4039 9.3103 14.9937C10.0917 15.5835 10.9303 16.1235 11.8261 16.6137L14.4459 13.936C14.6351 13.7315 14.8523 13.5921 15.0977 13.5178C15.3431 13.4436 15.5987 13.4257 15.8646 13.4644L18.8119 14.0957C19.1174 14.168 19.3666 14.3225 19.5595 14.5591C19.7524 14.7958 19.8488 15.0639 19.8488 15.3636V18.7402C19.8488 19.1002 19.727 19.4001 19.4833 19.6401C19.2396 19.88 18.9378 20 18.5779 20ZM2.95954 7.22577L5.24285 5.01972C5.27504 4.99 5.29671 4.94913 5.30786 4.89713C5.319 4.84514 5.31962 4.79686 5.30971 4.75228L4.71994 1.93569C4.71004 1.87625 4.68528 1.83168 4.64567 1.80197C4.60606 1.77225 4.55653 1.75739 4.49709 1.75739H1.76813C1.72357 1.75739 1.68644 1.77225 1.65672 1.80197C1.62699 1.83168 1.61213 1.86881 1.61213 1.91339C1.64284 2.71313 1.76924 3.55222 1.99133 4.43068C2.21342 5.30913 2.53616 6.24083 2.95954 7.22577ZM13.2009 17.3067C13.9848 17.6855 14.8297 17.9788 15.7357 18.1866C16.6416 18.3943 17.4754 18.512 18.237 18.5397C18.2816 18.5397 18.3187 18.5249 18.3484 18.4952C18.3781 18.4654 18.393 18.4283 18.393 18.3837V15.6756C18.393 15.6162 18.3781 15.5666 18.3484 15.527C18.3187 15.4874 18.2741 15.4626 18.2147 15.4527L15.6521 14.9268C15.6076 14.9169 15.5686 14.9175 15.5352 14.9287C15.5017 14.9398 15.4664 14.9615 15.4293 14.9937L13.2009 17.3067Z" fill="white"/>
</svg>
