<svg width="420" height="300" viewBox="0 0 420 300" fill="none" xmlns="http://www.w3.org/2000/svg">
<g filter="url(#filter0_d_4191_26616)">
<rect x="6" y="2" width="408" height="288" rx="5" fill="white" shape-rendering="crispEdges"/>
<circle cx="210" cy="63" r="36" fill="#3D761B"/>
<path d="M224.64 52.7018C224.4 52.4618 224.16 52.3418 223.8 52.3418C223.56 52.3418 223.2 52.4618 222.96 52.7018L204.997 70.6493L197.048 62.6993C196.808 62.4593 196.567 62.3393 196.207 62.3393C195.968 62.3393 195.608 62.4593 195.368 62.6993C195.128 62.9393 195 63.2993 195 63.6593C195 64.0193 195.12 64.3793 195.36 64.6268L203.918 73.1843C203.918 73.1843 204 73.2593 204.023 73.2818C204.045 73.2818 204.54 73.7318 205.14 73.7318C205.688 73.7318 206.182 73.2068 206.182 73.2068C206.182 73.2068 206.197 73.1918 206.205 73.1843L224.64 54.5093C224.88 54.1493 225 53.9093 225 53.5418C225 53.3018 224.88 52.9418 224.64 52.7018Z" fill="white"/>
<path d="M124.118 143.24H125.486L125.936 152.258H123.668L124.118 143.24ZM126.044 140.468C126.044 140.948 125.924 141.284 125.684 141.476C125.444 141.668 125.156 141.764 124.82 141.764C124.484 141.764 124.19 141.668 123.938 141.476C123.698 141.284 123.578 140.954 123.578 140.486C123.578 140.018 123.698 139.682 123.938 139.478C124.19 139.274 124.478 139.172 124.802 139.172C125.15 139.172 125.444 139.274 125.684 139.478C125.924 139.682 126.044 140.012 126.044 140.468ZM132.754 136.148C134.434 136.148 135.658 136.49 136.426 137.174C137.194 137.846 137.578 138.788 137.578 140C137.578 140.54 137.488 141.056 137.308 141.548C137.14 142.04 136.858 142.484 136.462 142.88C136.066 143.264 135.538 143.57 134.878 143.798C134.23 144.014 133.432 144.122 132.484 144.122H131.098V149H129.154V136.148H132.754ZM132.61 137.786H131.098V142.484H132.268C133 142.484 133.612 142.406 134.104 142.25C134.596 142.082 134.962 141.824 135.202 141.476C135.454 141.116 135.58 140.648 135.58 140.072C135.58 139.304 135.34 138.734 134.86 138.362C134.392 137.978 133.642 137.786 132.61 137.786ZM144.897 139.118C145.065 139.118 145.251 139.13 145.455 139.154C145.659 139.166 145.827 139.184 145.959 139.208L145.761 140.99C145.629 140.954 145.473 140.924 145.293 140.9C145.113 140.876 144.945 140.864 144.789 140.864C144.429 140.864 144.081 140.936 143.745 141.08C143.421 141.212 143.127 141.41 142.863 141.674C142.599 141.926 142.389 142.238 142.233 142.61C142.089 142.982 142.017 143.408 142.017 143.888V149H140.109V139.298H141.621L141.873 141.026H141.945C142.149 140.678 142.395 140.36 142.683 140.072C142.971 139.784 143.301 139.556 143.673 139.388C144.045 139.208 144.453 139.118 144.897 139.118ZM156.104 144.14C156.104 144.944 155.996 145.658 155.78 146.282C155.564 146.906 155.258 147.434 154.862 147.866C154.466 148.298 153.986 148.628 153.422 148.856C152.858 149.072 152.222 149.18 151.514 149.18C150.866 149.18 150.266 149.072 149.714 148.856C149.162 148.628 148.682 148.298 148.274 147.866C147.878 147.434 147.566 146.906 147.338 146.282C147.11 145.658 146.996 144.938 146.996 144.122C146.996 143.054 147.176 142.148 147.536 141.404C147.908 140.66 148.436 140.096 149.12 139.712C149.816 139.316 150.632 139.118 151.568 139.118C152.456 139.118 153.236 139.316 153.908 139.712C154.592 140.096 155.126 140.66 155.51 141.404C155.906 142.148 156.104 143.06 156.104 144.14ZM148.958 144.14C148.958 144.86 149.048 145.484 149.228 146.012C149.408 146.528 149.69 146.924 150.074 147.2C150.458 147.476 150.95 147.614 151.55 147.614C152.15 147.614 152.642 147.476 153.026 147.2C153.41 146.924 153.692 146.528 153.872 146.012C154.052 145.484 154.142 144.86 154.142 144.14C154.142 143.396 154.046 142.772 153.854 142.268C153.674 141.764 153.392 141.38 153.008 141.116C152.636 140.84 152.144 140.702 151.532 140.702C150.632 140.702 149.978 141.002 149.57 141.602C149.162 142.202 148.958 143.048 148.958 144.14ZM163.515 139.118C164.679 139.118 165.615 139.538 166.323 140.378C167.043 141.218 167.403 142.472 167.403 144.14C167.403 145.232 167.241 146.156 166.917 146.912C166.593 147.668 166.137 148.238 165.549 148.622C164.961 148.994 164.277 149.18 163.497 149.18C163.005 149.18 162.573 149.12 162.201 149C161.829 148.868 161.511 148.7 161.247 148.496C160.995 148.28 160.773 148.052 160.581 147.812H160.455C160.491 148.028 160.521 148.286 160.545 148.586C160.569 148.874 160.581 149.132 160.581 149.36V153.32H158.673V139.298H160.221L160.491 140.594H160.581C160.773 140.33 161.001 140.084 161.265 139.856C161.529 139.628 161.847 139.448 162.219 139.316C162.591 139.184 163.023 139.118 163.515 139.118ZM163.065 140.684C162.465 140.684 161.985 140.804 161.625 141.044C161.265 141.272 161.001 141.62 160.833 142.088C160.677 142.544 160.593 143.126 160.581 143.834V144.122C160.581 144.866 160.659 145.502 160.815 146.03C160.971 146.546 161.229 146.942 161.589 147.218C161.961 147.482 162.465 147.614 163.101 147.614C163.641 147.614 164.079 147.47 164.415 147.182C164.763 146.882 165.021 146.468 165.189 145.94C165.357 145.412 165.441 144.8 165.441 144.104C165.441 143.048 165.249 142.214 164.865 141.602C164.481 140.99 163.881 140.684 163.065 140.684ZM171.893 139.298V149H169.985V139.298H171.893ZM170.957 135.608C171.245 135.608 171.497 135.692 171.713 135.86C171.929 136.028 172.037 136.31 172.037 136.706C172.037 137.09 171.929 137.372 171.713 137.552C171.497 137.72 171.245 137.804 170.957 137.804C170.645 137.804 170.381 137.72 170.165 137.552C169.961 137.372 169.859 137.09 169.859 136.706C169.859 136.31 169.961 136.028 170.165 135.86C170.381 135.692 170.645 135.608 170.957 135.608ZM178.855 139.118C179.707 139.118 180.439 139.298 181.051 139.658C181.663 140.006 182.131 140.51 182.455 141.17C182.791 141.83 182.959 142.61 182.959 143.51V144.554H176.443C176.467 145.55 176.725 146.312 177.217 146.84C177.721 147.368 178.423 147.632 179.323 147.632C179.947 147.632 180.499 147.578 180.979 147.47C181.471 147.35 181.975 147.176 182.491 146.948V148.532C182.011 148.748 181.519 148.91 181.015 149.018C180.523 149.126 179.935 149.18 179.251 149.18C178.315 149.18 177.487 148.994 176.767 148.622C176.047 148.25 175.483 147.698 175.075 146.966C174.679 146.222 174.481 145.31 174.481 144.23C174.481 143.138 174.661 142.214 175.021 141.458C175.393 140.702 175.903 140.126 176.551 139.73C177.211 139.322 177.979 139.118 178.855 139.118ZM178.855 140.594C178.171 140.594 177.619 140.816 177.199 141.26C176.791 141.704 176.551 142.334 176.479 143.15H181.051C181.051 142.646 180.973 142.202 180.817 141.818C180.661 141.434 180.421 141.134 180.097 140.918C179.773 140.702 179.359 140.594 178.855 140.594ZM188.82 149.18C187.656 149.18 186.714 148.76 185.994 147.92C185.286 147.08 184.932 145.832 184.932 144.176C184.932 142.508 185.292 141.248 186.012 140.396C186.732 139.544 187.68 139.118 188.856 139.118C189.348 139.118 189.774 139.184 190.134 139.316C190.506 139.436 190.824 139.604 191.088 139.82C191.364 140.036 191.598 140.276 191.79 140.54H191.898C191.874 140.372 191.844 140.132 191.808 139.82C191.772 139.496 191.754 139.208 191.754 138.956V135.32H193.662V149H192.168L191.844 147.704H191.754C191.574 147.98 191.346 148.232 191.07 148.46C190.806 148.676 190.488 148.85 190.116 148.982C189.744 149.114 189.312 149.18 188.82 149.18ZM189.27 147.614C190.206 147.614 190.866 147.356 191.25 146.84C191.634 146.312 191.826 145.526 191.826 144.482V144.194C191.826 143.054 191.64 142.184 191.268 141.584C190.908 140.984 190.236 140.684 189.252 140.684C188.472 140.684 187.884 141.002 187.488 141.638C187.092 142.262 186.894 143.12 186.894 144.212C186.894 145.304 187.092 146.144 187.488 146.732C187.884 147.32 188.478 147.614 189.27 147.614ZM200.564 139.118C201.788 139.118 202.7 139.388 203.3 139.928C203.9 140.456 204.2 141.29 204.2 142.43V149H202.85L202.472 147.65H202.4C202.124 147.998 201.836 148.286 201.536 148.514C201.248 148.742 200.912 148.91 200.528 149.018C200.156 149.126 199.7 149.18 199.16 149.18C198.584 149.18 198.062 149.078 197.594 148.874C197.138 148.658 196.778 148.334 196.514 147.902C196.25 147.458 196.118 146.906 196.118 146.246C196.118 145.262 196.49 144.512 197.234 143.996C197.99 143.48 199.136 143.198 200.672 143.15L202.328 143.096V142.556C202.328 141.836 202.166 141.332 201.842 141.044C201.518 140.756 201.062 140.612 200.474 140.612C199.97 140.612 199.49 140.684 199.034 140.828C198.578 140.972 198.146 141.146 197.738 141.35L197.126 139.964C197.582 139.724 198.104 139.526 198.692 139.37C199.292 139.202 199.916 139.118 200.564 139.118ZM201.014 144.374C199.91 144.422 199.142 144.608 198.71 144.932C198.29 145.244 198.08 145.688 198.08 146.264C198.08 146.768 198.23 147.134 198.53 147.362C198.842 147.59 199.232 147.704 199.7 147.704C200.456 147.704 201.08 147.494 201.572 147.074C202.064 146.654 202.31 146.024 202.31 145.184V144.338L201.014 144.374ZM210.618 149.18C209.454 149.18 208.512 148.76 207.792 147.92C207.084 147.08 206.73 145.832 206.73 144.176C206.73 142.508 207.09 141.248 207.81 140.396C208.53 139.544 209.478 139.118 210.654 139.118C211.146 139.118 211.572 139.184 211.932 139.316C212.304 139.436 212.622 139.604 212.886 139.82C213.162 140.036 213.396 140.276 213.588 140.54H213.696C213.672 140.372 213.642 140.132 213.606 139.82C213.57 139.496 213.552 139.208 213.552 138.956V135.32H215.46V149H213.966L213.642 147.704H213.552C213.372 147.98 213.144 148.232 212.868 148.46C212.604 148.676 212.286 148.85 211.914 148.982C211.542 149.114 211.11 149.18 210.618 149.18ZM211.068 147.614C212.004 147.614 212.664 147.356 213.048 146.84C213.432 146.312 213.624 145.526 213.624 144.482V144.194C213.624 143.054 213.438 142.184 213.066 141.584C212.706 140.984 212.034 140.684 211.05 140.684C210.27 140.684 209.682 141.002 209.286 141.638C208.89 142.262 208.692 143.12 208.692 144.212C208.692 145.304 208.89 146.144 209.286 146.732C209.682 147.32 210.276 147.614 211.068 147.614ZM227.188 139.118C228.412 139.118 229.324 139.388 229.924 139.928C230.524 140.456 230.824 141.29 230.824 142.43V149H229.474L229.096 147.65H229.024C228.748 147.998 228.46 148.286 228.16 148.514C227.872 148.742 227.536 148.91 227.152 149.018C226.78 149.126 226.324 149.18 225.784 149.18C225.208 149.18 224.686 149.078 224.218 148.874C223.762 148.658 223.402 148.334 223.138 147.902C222.874 147.458 222.742 146.906 222.742 146.246C222.742 145.262 223.114 144.512 223.858 143.996C224.614 143.48 225.76 143.198 227.296 143.15L228.952 143.096V142.556C228.952 141.836 228.79 141.332 228.466 141.044C228.142 140.756 227.686 140.612 227.098 140.612C226.594 140.612 226.114 140.684 225.658 140.828C225.202 140.972 224.77 141.146 224.362 141.35L223.75 139.964C224.206 139.724 224.728 139.526 225.316 139.37C225.916 139.202 226.54 139.118 227.188 139.118ZM227.638 144.374C226.534 144.422 225.766 144.608 225.334 144.932C224.914 145.244 224.704 145.688 224.704 146.264C224.704 146.768 224.854 147.134 225.154 147.362C225.466 147.59 225.856 147.704 226.324 147.704C227.08 147.704 227.704 147.494 228.196 147.074C228.688 146.654 228.934 146.024 228.934 145.184V144.338L227.638 144.374ZM238.826 139.118C239.954 139.118 240.818 139.4 241.418 139.964C242.018 140.528 242.318 141.434 242.318 142.682V149H240.428V142.952C240.428 142.196 240.266 141.632 239.942 141.26C239.63 140.876 239.126 140.684 238.43 140.684C237.446 140.684 236.762 140.978 236.378 141.566C236.006 142.154 235.82 143 235.82 144.104V149H233.912V139.298H235.424L235.694 140.594H235.802C236.018 140.258 236.282 139.982 236.594 139.766C236.906 139.55 237.254 139.388 237.638 139.28C238.022 139.172 238.418 139.118 238.826 139.118ZM234.704 138.092C234.74 137.708 234.812 137.366 234.92 137.066C235.04 136.766 235.19 136.514 235.37 136.31C235.55 136.106 235.76 135.95 236 135.842C236.24 135.734 236.51 135.68 236.81 135.68C237.062 135.68 237.308 135.728 237.548 135.824C237.8 135.92 238.034 136.034 238.25 136.166C238.478 136.298 238.7 136.418 238.916 136.526C239.132 136.622 239.336 136.67 239.528 136.67C239.78 136.67 239.984 136.586 240.14 136.418C240.296 136.25 240.41 135.998 240.482 135.662H241.508C241.436 136.418 241.214 137.012 240.842 137.444C240.47 137.864 239.996 138.074 239.42 138.074C239.168 138.074 238.922 138.026 238.682 137.93C238.454 137.834 238.22 137.72 237.98 137.588C237.752 137.444 237.53 137.324 237.314 137.228C237.11 137.132 236.906 137.084 236.702 137.084C236.438 137.084 236.228 137.168 236.072 137.336C235.928 137.504 235.814 137.756 235.73 138.092H234.704ZM249.162 139.118C250.386 139.118 251.298 139.388 251.898 139.928C252.498 140.456 252.798 141.29 252.798 142.43V149H251.448L251.07 147.65H250.998C250.722 147.998 250.434 148.286 250.134 148.514C249.846 148.742 249.51 148.91 249.126 149.018C248.754 149.126 248.298 149.18 247.758 149.18C247.182 149.18 246.66 149.078 246.192 148.874C245.736 148.658 245.376 148.334 245.112 147.902C244.848 147.458 244.716 146.906 244.716 146.246C244.716 145.262 245.088 144.512 245.832 143.996C246.588 143.48 247.734 143.198 249.27 143.15L250.926 143.096V142.556C250.926 141.836 250.764 141.332 250.44 141.044C250.116 140.756 249.66 140.612 249.072 140.612C248.568 140.612 248.088 140.684 247.632 140.828C247.176 140.972 246.744 141.146 246.336 141.35L245.724 139.964C246.18 139.724 246.702 139.526 247.29 139.37C247.89 139.202 248.514 139.118 249.162 139.118ZM249.612 144.374C248.508 144.422 247.74 144.608 247.308 144.932C246.888 145.244 246.678 145.688 246.678 146.264C246.678 146.768 246.828 147.134 247.128 147.362C247.44 147.59 247.83 147.704 248.298 147.704C249.054 147.704 249.678 147.494 250.17 147.074C250.662 146.654 250.908 146.024 250.908 145.184V144.338L249.612 144.374ZM259.216 149.18C258.052 149.18 257.11 148.76 256.39 147.92C255.682 147.08 255.328 145.832 255.328 144.176C255.328 142.508 255.688 141.248 256.408 140.396C257.128 139.544 258.076 139.118 259.252 139.118C259.744 139.118 260.17 139.184 260.53 139.316C260.902 139.436 261.22 139.604 261.484 139.82C261.76 140.036 261.994 140.276 262.186 140.54H262.294C262.27 140.372 262.24 140.132 262.204 139.82C262.168 139.496 262.15 139.208 262.15 138.956V135.32H264.058V149H262.564L262.24 147.704H262.15C261.97 147.98 261.742 148.232 261.466 148.46C261.202 148.676 260.884 148.85 260.512 148.982C260.14 149.114 259.708 149.18 259.216 149.18ZM259.666 147.614C260.602 147.614 261.262 147.356 261.646 146.84C262.03 146.312 262.222 145.526 262.222 144.482V144.194C262.222 143.054 262.036 142.184 261.664 141.584C261.304 140.984 260.632 140.684 259.648 140.684C258.868 140.684 258.28 141.002 257.884 141.638C257.488 142.262 257.29 143.12 257.29 144.212C257.29 145.304 257.488 146.144 257.884 146.732C258.28 147.32 258.874 147.614 259.666 147.614ZM269.106 139.298V149H267.198V139.298H269.106ZM268.17 135.608C268.458 135.608 268.71 135.692 268.926 135.86C269.142 136.028 269.25 136.31 269.25 136.706C269.25 137.09 269.142 137.372 268.926 137.552C268.71 137.72 268.458 137.804 268.17 137.804C267.858 137.804 267.594 137.72 267.378 137.552C267.174 137.372 267.072 137.09 267.072 136.706C267.072 136.31 267.174 136.028 267.378 135.86C267.594 135.692 267.858 135.608 268.17 135.608ZM275.582 149.18C274.418 149.18 273.476 148.76 272.756 147.92C272.048 147.08 271.694 145.832 271.694 144.176C271.694 142.508 272.054 141.248 272.774 140.396C273.494 139.544 274.442 139.118 275.618 139.118C276.11 139.118 276.536 139.184 276.896 139.316C277.268 139.436 277.586 139.604 277.85 139.82C278.126 140.036 278.36 140.276 278.552 140.54H278.66C278.636 140.372 278.606 140.132 278.57 139.82C278.534 139.496 278.516 139.208 278.516 138.956V135.32H280.424V149H278.93L278.606 147.704H278.516C278.336 147.98 278.108 148.232 277.832 148.46C277.568 148.676 277.25 148.85 276.878 148.982C276.506 149.114 276.074 149.18 275.582 149.18ZM276.032 147.614C276.968 147.614 277.628 147.356 278.012 146.84C278.396 146.312 278.588 145.526 278.588 144.482V144.194C278.588 143.054 278.402 142.184 278.03 141.584C277.67 140.984 276.998 140.684 276.014 140.684C275.234 140.684 274.646 141.002 274.25 141.638C273.854 142.262 273.656 143.12 273.656 144.212C273.656 145.304 273.854 146.144 274.25 146.732C274.646 147.32 275.24 147.614 276.032 147.614ZM287.326 139.118C288.55 139.118 289.462 139.388 290.062 139.928C290.662 140.456 290.962 141.29 290.962 142.43V149H289.612L289.234 147.65H289.162C288.886 147.998 288.598 148.286 288.298 148.514C288.01 148.742 287.674 148.91 287.29 149.018C286.918 149.126 286.462 149.18 285.922 149.18C285.346 149.18 284.824 149.078 284.356 148.874C283.9 148.658 283.54 148.334 283.276 147.902C283.012 147.458 282.88 146.906 282.88 146.246C282.88 145.262 283.252 144.512 283.996 143.996C284.752 143.48 285.898 143.198 287.434 143.15L289.09 143.096V142.556C289.09 141.836 288.928 141.332 288.604 141.044C288.28 140.756 287.824 140.612 287.236 140.612C286.732 140.612 286.252 140.684 285.796 140.828C285.34 140.972 284.908 141.146 284.5 141.35L283.888 139.964C284.344 139.724 284.866 139.526 285.454 139.37C286.054 139.202 286.678 139.118 287.326 139.118ZM287.776 144.374C286.672 144.422 285.904 144.608 285.472 144.932C285.052 145.244 284.842 145.688 284.842 146.264C284.842 146.768 284.992 147.134 285.292 147.362C285.604 147.59 285.994 147.704 286.462 147.704C287.218 147.704 287.842 147.494 288.334 147.074C288.826 146.654 289.072 146.024 289.072 145.184V144.338L287.776 144.374ZM295.706 145.184H294.356L293.906 136.148H296.156L295.706 145.184ZM293.78 147.938C293.78 147.47 293.9 147.14 294.14 146.948C294.38 146.756 294.674 146.66 295.022 146.66C295.358 146.66 295.646 146.756 295.886 146.948C296.126 147.14 296.246 147.47 296.246 147.938C296.246 148.406 296.126 148.742 295.886 148.946C295.646 149.15 295.358 149.252 295.022 149.252C294.674 149.252 294.38 149.15 294.14 148.946C293.9 148.742 293.78 148.406 293.78 147.938Z" fill="#3D761B"/>
<path d="M65.5469 182.898V188H64.0547V176.992H65.5469V181.648H71.5V176.992H72.9922V188H71.5V182.898H65.5469ZM78.0391 188.156C77.1901 188.156 76.5521 187.932 76.125 187.484C75.6979 187.036 75.4844 186.422 75.4844 185.641C75.4844 184.766 75.7708 184.094 76.3438 183.625C76.9219 183.156 77.8516 182.906 79.1328 182.875L81.0312 182.844V182.383C81.0312 181.695 80.8854 181.203 80.5938 180.906C80.3021 180.609 79.8438 180.461 79.2188 180.461C78.5885 180.461 78.1302 180.568 77.8438 180.781C77.5573 180.995 77.3854 181.336 77.3281 181.805L75.8594 181.672C76.099 180.151 77.2292 179.391 79.25 179.391C80.3125 179.391 81.112 179.635 81.6484 180.125C82.1849 180.609 82.4531 181.312 82.4531 182.234V185.875C82.4531 186.292 82.5078 186.607 82.6172 186.82C82.7266 187.029 82.9349 187.133 83.2422 187.133C83.388 187.133 83.5417 187.115 83.7031 187.078V187.953C83.526 187.995 83.3464 188.026 83.1641 188.047C82.9818 188.068 82.7995 188.078 82.6172 188.078C82.0964 188.078 81.7161 187.943 81.4766 187.672C81.2422 187.396 81.1094 186.966 81.0781 186.383H81.0312C80.6719 187.029 80.2526 187.487 79.7734 187.758C79.2995 188.023 78.7214 188.156 78.0391 188.156ZM81.0312 183.828L79.4922 183.859C78.8359 183.865 78.3359 183.932 77.9922 184.062C77.6484 184.188 77.3854 184.38 77.2031 184.641C77.0208 184.901 76.9297 185.242 76.9297 185.664C76.9297 186.122 77.0521 186.477 77.2969 186.727C77.5469 186.977 77.901 187.102 78.3594 187.102C78.8802 187.102 79.3385 186.984 79.7344 186.75C80.1354 186.516 80.4505 186.195 80.6797 185.789C80.9141 185.378 81.0312 184.956 81.0312 184.523V183.828ZM91.4141 186.914V188H84.8594V186.93L89.5859 180.633H85.125V179.547H91.25V180.617L86.5156 186.914H91.4141ZM100.898 188.156C100.049 188.156 99.4115 187.932 98.9844 187.484C98.5573 187.036 98.3438 186.422 98.3438 185.641C98.3438 184.766 98.6302 184.094 99.2031 183.625C99.7812 183.156 100.711 182.906 101.992 182.875L103.891 182.844V182.383C103.891 181.695 103.745 181.203 103.453 180.906C103.161 180.609 102.703 180.461 102.078 180.461C101.448 180.461 100.99 180.568 100.703 180.781C100.417 180.995 100.245 181.336 100.188 181.805L98.7188 181.672C98.9583 180.151 100.089 179.391 102.109 179.391C103.172 179.391 103.971 179.635 104.508 180.125C105.044 180.609 105.312 181.312 105.312 182.234V185.875C105.312 186.292 105.367 186.607 105.477 186.82C105.586 187.029 105.794 187.133 106.102 187.133C106.247 187.133 106.401 187.115 106.562 187.078V187.953C106.385 187.995 106.206 188.026 106.023 188.047C105.841 188.068 105.659 188.078 105.477 188.078C104.956 188.078 104.576 187.943 104.336 187.672C104.102 187.396 103.969 186.966 103.938 186.383H103.891C103.531 187.029 103.112 187.487 102.633 187.758C102.159 188.023 101.581 188.156 100.898 188.156ZM103.891 183.828L102.352 183.859C101.695 183.865 101.195 183.932 100.852 184.062C100.508 184.188 100.245 184.38 100.062 184.641C99.8802 184.901 99.7891 185.242 99.7891 185.664C99.7891 186.122 99.9115 186.477 100.156 186.727C100.406 186.977 100.76 187.102 101.219 187.102C101.74 187.102 102.198 186.984 102.594 186.75C102.995 186.516 103.31 186.195 103.539 185.789C103.773 185.378 103.891 184.956 103.891 184.523V183.828ZM111.352 191.32C110.43 191.32 109.695 191.138 109.148 190.773C108.602 190.414 108.25 189.901 108.094 189.234L109.508 189.031C109.602 189.422 109.807 189.721 110.125 189.93C110.448 190.143 110.87 190.25 111.391 190.25C112.089 190.25 112.612 190.044 112.961 189.633C113.315 189.221 113.492 188.607 113.492 187.789V186.43H113.477C113.211 186.971 112.846 187.38 112.383 187.656C111.919 187.927 111.378 188.062 110.758 188.062C109.721 188.062 108.958 187.719 108.469 187.031C107.984 186.344 107.742 185.263 107.742 183.789C107.742 182.294 108.003 181.193 108.523 180.484C109.049 179.771 109.846 179.414 110.914 179.414C111.513 179.414 112.031 179.552 112.469 179.828C112.911 180.099 113.253 180.487 113.492 180.992H113.508C113.508 180.888 113.513 180.727 113.523 180.508C113.534 180.284 113.547 180.073 113.562 179.875C113.578 179.677 113.591 179.568 113.602 179.547H114.938C114.906 179.828 114.891 180.411 114.891 181.297V187.758C114.891 188.945 114.596 189.836 114.008 190.43C113.419 191.023 112.534 191.32 111.352 191.32ZM113.492 183.773C113.492 182.747 113.281 181.94 112.859 181.352C112.443 180.758 111.909 180.461 111.258 180.461C110.539 180.461 110.016 180.721 109.688 181.242C109.359 181.763 109.195 182.607 109.195 183.773C109.195 184.93 109.349 185.76 109.656 186.266C109.964 186.771 110.49 187.023 111.234 187.023C111.901 187.023 112.443 186.734 112.859 186.156C113.281 185.573 113.492 184.779 113.492 183.773ZM118.992 183.594V188H117.586V181.516C117.586 181.219 117.581 180.906 117.57 180.578C117.565 180.25 117.555 179.906 117.539 179.547H118.867C118.878 179.786 118.885 180.003 118.891 180.195C118.901 180.388 118.909 180.557 118.914 180.703C118.919 180.844 118.922 180.964 118.922 181.062C118.927 181.156 118.93 181.227 118.93 181.273H118.961C119.117 180.763 119.289 180.367 119.477 180.086C119.659 179.826 119.867 179.646 120.102 179.547C120.336 179.443 120.625 179.391 120.969 179.391C121.161 179.391 121.352 179.417 121.539 179.469V180.758C121.362 180.706 121.112 180.68 120.789 180.68C120.206 180.68 119.76 180.932 119.453 181.438C119.146 181.938 118.992 182.656 118.992 183.594ZM124.461 184.07C124.461 185.039 124.661 185.786 125.062 186.312C125.464 186.839 126.049 187.102 126.82 187.102C127.43 187.102 127.917 186.979 128.281 186.734C128.651 186.49 128.901 186.18 129.031 185.805L130.266 186.156C129.76 187.49 128.612 188.156 126.82 188.156C125.57 188.156 124.617 187.784 123.961 187.039C123.31 186.294 122.984 185.188 122.984 183.719C122.984 182.323 123.31 181.253 123.961 180.508C124.617 179.763 125.552 179.391 126.766 179.391C128.01 179.391 128.943 179.766 129.562 180.516C130.182 181.266 130.492 182.388 130.492 183.883V184.07H124.461ZM129.039 182.992C128.961 182.102 128.734 181.453 128.359 181.047C127.984 180.635 127.445 180.43 126.742 180.43C126.06 180.43 125.518 180.659 125.117 181.117C124.721 181.57 124.508 182.195 124.477 182.992H129.039ZM135.992 191.32C135.07 191.32 134.336 191.138 133.789 190.773C133.242 190.414 132.891 189.901 132.734 189.234L134.148 189.031C134.242 189.422 134.448 189.721 134.766 189.93C135.089 190.143 135.51 190.25 136.031 190.25C136.729 190.25 137.253 190.044 137.602 189.633C137.956 189.221 138.133 188.607 138.133 187.789V186.43H138.117C137.852 186.971 137.487 187.38 137.023 187.656C136.56 187.927 136.018 188.062 135.398 188.062C134.362 188.062 133.599 187.719 133.109 187.031C132.625 186.344 132.383 185.263 132.383 183.789C132.383 182.294 132.643 181.193 133.164 180.484C133.69 179.771 134.487 179.414 135.555 179.414C136.154 179.414 136.672 179.552 137.109 179.828C137.552 180.099 137.893 180.487 138.133 180.992H138.148C138.148 180.888 138.154 180.727 138.164 180.508C138.174 180.284 138.188 180.073 138.203 179.875C138.219 179.677 138.232 179.568 138.242 179.547H139.578C139.547 179.828 139.531 180.411 139.531 181.297V187.758C139.531 188.945 139.237 189.836 138.648 190.43C138.06 191.023 137.174 191.32 135.992 191.32ZM138.133 183.773C138.133 182.747 137.922 181.94 137.5 181.352C137.083 180.758 136.549 180.461 135.898 180.461C135.18 180.461 134.656 180.721 134.328 181.242C134 181.763 133.836 182.607 133.836 183.773C133.836 184.93 133.99 185.76 134.297 186.266C134.604 186.771 135.13 187.023 135.875 187.023C136.542 187.023 137.083 186.734 137.5 186.156C137.922 185.573 138.133 184.779 138.133 183.773ZM144.352 188.156C143.503 188.156 142.865 187.932 142.438 187.484C142.01 187.036 141.797 186.422 141.797 185.641C141.797 184.766 142.083 184.094 142.656 183.625C143.234 183.156 144.164 182.906 145.445 182.875L147.344 182.844V182.383C147.344 181.695 147.198 181.203 146.906 180.906C146.615 180.609 146.156 180.461 145.531 180.461C144.901 180.461 144.443 180.568 144.156 180.781C143.87 180.995 143.698 181.336 143.641 181.805L142.172 181.672C142.411 180.151 143.542 179.391 145.562 179.391C146.625 179.391 147.424 179.635 147.961 180.125C148.497 180.609 148.766 181.312 148.766 182.234V185.875C148.766 186.292 148.82 186.607 148.93 186.82C149.039 187.029 149.247 187.133 149.555 187.133C149.701 187.133 149.854 187.115 150.016 187.078V187.953C149.839 187.995 149.659 188.026 149.477 188.047C149.294 188.068 149.112 188.078 148.93 188.078C148.409 188.078 148.029 187.943 147.789 187.672C147.555 187.396 147.422 186.966 147.391 186.383H147.344C146.984 187.029 146.565 187.487 146.086 187.758C145.612 188.023 145.034 188.156 144.352 188.156ZM147.344 183.828L145.805 183.859C145.148 183.865 144.648 183.932 144.305 184.062C143.961 184.188 143.698 184.38 143.516 184.641C143.333 184.901 143.242 185.242 143.242 185.664C143.242 186.122 143.365 186.477 143.609 186.727C143.859 186.977 144.214 187.102 144.672 187.102C145.193 187.102 145.651 186.984 146.047 186.75C146.448 186.516 146.763 186.195 146.992 185.789C147.227 185.378 147.344 184.956 147.344 184.523V183.828ZM157.047 188C157.036 187.943 157.023 187.836 157.008 187.68C156.997 187.518 156.987 187.341 156.977 187.148C156.971 186.956 156.969 186.786 156.969 186.641H156.938C156.677 187.182 156.331 187.57 155.898 187.805C155.471 188.039 154.94 188.156 154.305 188.156C153.237 188.156 152.451 187.797 151.945 187.078C151.445 186.359 151.195 185.271 151.195 183.812C151.195 182.339 151.453 181.234 151.969 180.5C152.49 179.76 153.268 179.391 154.305 179.391C154.945 179.391 155.479 179.508 155.906 179.742C156.333 179.977 156.677 180.349 156.938 180.859H156.953L156.938 179.914V176.406H158.344V186.258C158.344 186.701 158.346 187.068 158.352 187.359C158.362 187.646 158.375 187.859 158.391 188H157.047ZM152.672 183.766C152.672 184.948 152.828 185.794 153.141 186.305C153.453 186.815 153.961 187.07 154.664 187.07C155.461 187.07 156.039 186.794 156.398 186.242C156.758 185.69 156.938 184.833 156.938 183.672C156.938 182.552 156.758 181.732 156.398 181.211C156.039 180.69 155.466 180.43 154.68 180.43C153.971 180.43 153.458 180.693 153.141 181.219C152.828 181.74 152.672 182.589 152.672 183.766ZM168.156 183.766C168.156 185.245 167.831 186.346 167.18 187.07C166.529 187.794 165.583 188.156 164.344 188.156C163.109 188.156 162.177 187.781 161.547 187.031C160.917 186.276 160.602 185.188 160.602 183.766C160.602 182.307 160.917 181.214 161.547 180.484C162.182 179.755 163.13 179.391 164.391 179.391C165.682 179.391 166.633 179.747 167.242 180.461C167.852 181.169 168.156 182.271 168.156 183.766ZM166.68 183.766C166.68 182.599 166.505 181.753 166.156 181.227C165.812 180.695 165.232 180.43 164.414 180.43C163.591 180.43 162.995 180.701 162.625 181.242C162.26 181.779 162.078 182.62 162.078 183.766C162.078 184.88 162.258 185.719 162.617 186.281C162.982 186.839 163.552 187.117 164.328 187.117C165.172 187.117 165.773 186.846 166.133 186.305C166.497 185.763 166.68 184.917 166.68 183.766ZM180.711 186.555C180.388 187.138 180.013 187.552 179.586 187.797C179.164 188.036 178.638 188.156 178.008 188.156C177.081 188.156 176.401 187.927 175.969 187.469C175.542 187.005 175.328 186.242 175.328 185.18V179.547H176.742V184.906C176.742 185.75 176.872 186.323 177.133 186.625C177.398 186.922 177.849 187.07 178.484 187.07C179.161 187.07 179.695 186.839 180.086 186.375C180.477 185.911 180.672 185.268 180.672 184.445V179.547H182.078V186.195C182.078 186.685 182.081 187.081 182.086 187.383C182.096 187.685 182.109 187.891 182.125 188H180.797C180.792 187.974 180.781 187.852 180.766 187.633C180.755 187.414 180.745 187.055 180.734 186.555H180.711ZM186.211 183.102V188H184.805V181.352C184.805 180.857 184.799 180.461 184.789 180.164C184.784 179.862 184.773 179.656 184.758 179.547H186.086C186.096 179.646 186.104 179.771 186.109 179.922C186.12 180.073 186.128 180.24 186.133 180.422C186.138 180.604 186.143 180.794 186.148 180.992H186.172C186.495 180.409 186.867 179.997 187.289 179.758C187.716 179.513 188.245 179.391 188.875 179.391C189.802 179.391 190.479 179.628 190.906 180.102C191.339 180.576 191.555 181.331 191.555 182.367V188H190.141V182.641C190.141 181.833 190.01 181.271 189.75 180.953C189.49 180.635 189.039 180.477 188.398 180.477C187.721 180.477 187.188 180.708 186.797 181.172C186.406 181.635 186.211 182.279 186.211 183.102ZM196.336 188.156C195.487 188.156 194.849 187.932 194.422 187.484C193.995 187.036 193.781 186.422 193.781 185.641C193.781 184.766 194.068 184.094 194.641 183.625C195.219 183.156 196.148 182.906 197.43 182.875L199.328 182.844V182.383C199.328 181.695 199.182 181.203 198.891 180.906C198.599 180.609 198.141 180.461 197.516 180.461C196.885 180.461 196.427 180.568 196.141 180.781C195.854 180.995 195.682 181.336 195.625 181.805L194.156 181.672C194.396 180.151 195.526 179.391 197.547 179.391C198.609 179.391 199.409 179.635 199.945 180.125C200.482 180.609 200.75 181.312 200.75 182.234V185.875C200.75 186.292 200.805 186.607 200.914 186.82C201.023 187.029 201.232 187.133 201.539 187.133C201.685 187.133 201.839 187.115 202 187.078V187.953C201.823 187.995 201.643 188.026 201.461 188.047C201.279 188.068 201.096 188.078 200.914 188.078C200.393 188.078 200.013 187.943 199.773 187.672C199.539 187.396 199.406 186.966 199.375 186.383H199.328C198.969 187.029 198.549 187.487 198.07 187.758C197.596 188.023 197.018 188.156 196.336 188.156ZM199.328 183.828L197.789 183.859C197.133 183.865 196.633 183.932 196.289 184.062C195.945 184.188 195.682 184.38 195.5 184.641C195.318 184.901 195.227 185.242 195.227 185.664C195.227 186.122 195.349 186.477 195.594 186.727C195.844 186.977 196.198 187.102 196.656 187.102C197.177 187.102 197.635 186.984 198.031 186.75C198.432 186.516 198.747 186.195 198.977 185.789C199.211 185.378 199.328 184.956 199.328 184.523V183.828ZM215.688 183.734C215.688 185.208 215.427 186.315 214.906 187.055C214.391 187.789 213.615 188.156 212.578 188.156C211.276 188.156 210.401 187.667 209.953 186.688H209.914C209.935 186.724 209.945 187.167 209.945 188.016V191.32H208.539V181.273C208.539 180.841 208.534 180.482 208.523 180.195C208.518 179.904 208.508 179.688 208.492 179.547H209.852C209.857 179.568 209.865 179.669 209.875 179.852C209.891 180.034 209.904 180.232 209.914 180.445C209.924 180.654 209.93 180.807 209.93 180.906H209.961C210.211 180.385 210.542 180.005 210.953 179.766C211.365 179.521 211.906 179.398 212.578 179.398C213.62 179.398 214.398 179.747 214.914 180.445C215.43 181.143 215.688 182.24 215.688 183.734ZM214.211 183.766C214.211 182.589 214.052 181.747 213.734 181.242C213.417 180.737 212.911 180.484 212.219 180.484C211.448 180.484 210.875 180.753 210.5 181.289C210.13 181.82 209.945 182.682 209.945 183.875C209.945 184.984 210.122 185.802 210.477 186.328C210.831 186.854 211.406 187.117 212.203 187.117C212.901 187.117 213.409 186.862 213.727 186.352C214.049 185.836 214.211 184.974 214.211 183.766ZM219.383 183.594V188H217.977V181.516C217.977 181.219 217.971 180.906 217.961 180.578C217.956 180.25 217.945 179.906 217.93 179.547H219.258C219.268 179.786 219.276 180.003 219.281 180.195C219.292 180.388 219.299 180.557 219.305 180.703C219.31 180.844 219.312 180.964 219.312 181.062C219.318 181.156 219.32 181.227 219.32 181.273H219.352C219.508 180.763 219.68 180.367 219.867 180.086C220.049 179.826 220.258 179.646 220.492 179.547C220.727 179.443 221.016 179.391 221.359 179.391C221.552 179.391 221.742 179.417 221.93 179.469V180.758C221.753 180.706 221.503 180.68 221.18 180.68C220.596 180.68 220.151 180.932 219.844 181.438C219.536 181.938 219.383 182.656 219.383 183.594ZM230.922 183.766C230.922 185.245 230.596 186.346 229.945 187.07C229.294 187.794 228.349 188.156 227.109 188.156C225.875 188.156 224.943 187.781 224.312 187.031C223.682 186.276 223.367 185.188 223.367 183.766C223.367 182.307 223.682 181.214 224.312 180.484C224.948 179.755 225.896 179.391 227.156 179.391C228.448 179.391 229.398 179.747 230.008 180.461C230.617 181.169 230.922 182.271 230.922 183.766ZM229.445 183.766C229.445 182.599 229.271 181.753 228.922 181.227C228.578 180.695 227.997 180.43 227.18 180.43C226.357 180.43 225.76 180.701 225.391 181.242C225.026 181.779 224.844 182.62 224.844 183.766C224.844 184.88 225.023 185.719 225.383 186.281C225.747 186.839 226.318 187.117 227.094 187.117C227.938 187.117 228.539 186.846 228.898 186.305C229.263 185.763 229.445 184.917 229.445 183.766ZM240.328 183.734C240.328 185.208 240.068 186.315 239.547 187.055C239.031 187.789 238.255 188.156 237.219 188.156C235.917 188.156 235.042 187.667 234.594 186.688H234.555C234.576 186.724 234.586 187.167 234.586 188.016V191.32H233.18V181.273C233.18 180.841 233.174 180.482 233.164 180.195C233.159 179.904 233.148 179.688 233.133 179.547H234.492C234.497 179.568 234.505 179.669 234.516 179.852C234.531 180.034 234.544 180.232 234.555 180.445C234.565 180.654 234.57 180.807 234.57 180.906H234.602C234.852 180.385 235.182 180.005 235.594 179.766C236.005 179.521 236.547 179.398 237.219 179.398C238.26 179.398 239.039 179.747 239.555 180.445C240.07 181.143 240.328 182.24 240.328 183.734ZM238.852 183.766C238.852 182.589 238.693 181.747 238.375 181.242C238.057 180.737 237.552 180.484 236.859 180.484C236.089 180.484 235.516 180.753 235.141 181.289C234.771 181.82 234.586 182.682 234.586 183.875C234.586 184.984 234.763 185.802 235.117 186.328C235.471 186.854 236.047 187.117 236.844 187.117C237.542 187.117 238.049 186.862 238.367 186.352C238.69 185.836 238.852 184.974 238.852 183.766ZM243.984 176.406V177.75H242.578V176.406H243.984ZM243.984 179.547V188H242.578V179.547H243.984ZM247.727 184.07C247.727 185.039 247.927 185.786 248.328 186.312C248.729 186.839 249.315 187.102 250.086 187.102C250.695 187.102 251.182 186.979 251.547 186.734C251.917 186.49 252.167 186.18 252.297 185.805L253.531 186.156C253.026 187.49 251.878 188.156 250.086 188.156C248.836 188.156 247.883 187.784 247.227 187.039C246.576 186.294 246.25 185.188 246.25 183.719C246.25 182.323 246.576 181.253 247.227 180.508C247.883 179.763 248.818 179.391 250.031 179.391C251.276 179.391 252.208 179.766 252.828 180.516C253.448 181.266 253.758 182.388 253.758 183.883V184.07H247.727ZM252.305 182.992C252.227 182.102 252 181.453 251.625 181.047C251.25 180.635 250.711 180.43 250.008 180.43C249.326 180.43 248.784 180.659 248.383 181.117C247.987 181.57 247.773 182.195 247.742 182.992H252.305ZM261.5 188C261.49 187.943 261.477 187.836 261.461 187.68C261.451 187.518 261.44 187.341 261.43 187.148C261.424 186.956 261.422 186.786 261.422 186.641H261.391C261.13 187.182 260.784 187.57 260.352 187.805C259.924 188.039 259.393 188.156 258.758 188.156C257.69 188.156 256.904 187.797 256.398 187.078C255.898 186.359 255.648 185.271 255.648 183.812C255.648 182.339 255.906 181.234 256.422 180.5C256.943 179.76 257.721 179.391 258.758 179.391C259.398 179.391 259.932 179.508 260.359 179.742C260.786 179.977 261.13 180.349 261.391 180.859H261.406L261.391 179.914V176.406H262.797V186.258C262.797 186.701 262.799 187.068 262.805 187.359C262.815 187.646 262.828 187.859 262.844 188H261.5ZM257.125 183.766C257.125 184.948 257.281 185.794 257.594 186.305C257.906 186.815 258.414 187.07 259.117 187.07C259.914 187.07 260.492 186.794 260.852 186.242C261.211 185.69 261.391 184.833 261.391 183.672C261.391 182.552 261.211 181.732 260.852 181.211C260.492 180.69 259.919 180.43 259.133 180.43C258.424 180.43 257.911 180.693 257.594 181.219C257.281 181.74 257.125 182.589 257.125 183.766ZM267.617 188.156C266.768 188.156 266.13 187.932 265.703 187.484C265.276 187.036 265.062 186.422 265.062 185.641C265.062 184.766 265.349 184.094 265.922 183.625C266.5 183.156 267.43 182.906 268.711 182.875L270.609 182.844V182.383C270.609 181.695 270.464 181.203 270.172 180.906C269.88 180.609 269.422 180.461 268.797 180.461C268.167 180.461 267.708 180.568 267.422 180.781C267.135 180.995 266.964 181.336 266.906 181.805L265.438 181.672C265.677 180.151 266.807 179.391 268.828 179.391C269.891 179.391 270.69 179.635 271.227 180.125C271.763 180.609 272.031 181.312 272.031 182.234V185.875C272.031 186.292 272.086 186.607 272.195 186.82C272.305 187.029 272.513 187.133 272.82 187.133C272.966 187.133 273.12 187.115 273.281 187.078V187.953C273.104 187.995 272.924 188.026 272.742 188.047C272.56 188.068 272.378 188.078 272.195 188.078C271.674 188.078 271.294 187.943 271.055 187.672C270.82 187.396 270.688 186.966 270.656 186.383H270.609C270.25 187.029 269.831 187.487 269.352 187.758C268.878 188.023 268.299 188.156 267.617 188.156ZM270.609 183.828L269.07 183.859C268.414 183.865 267.914 183.932 267.57 184.062C267.227 184.188 266.964 184.38 266.781 184.641C266.599 184.901 266.508 185.242 266.508 185.664C266.508 186.122 266.63 186.477 266.875 186.727C267.125 186.977 267.479 187.102 267.938 187.102C268.458 187.102 268.917 186.984 269.312 186.75C269.714 186.516 270.029 186.195 270.258 185.789C270.492 185.378 270.609 184.956 270.609 184.523V183.828ZM280.312 188C280.302 187.943 280.289 187.836 280.273 187.68C280.263 187.518 280.253 187.341 280.242 187.148C280.237 186.956 280.234 186.786 280.234 186.641H280.203C279.943 187.182 279.596 187.57 279.164 187.805C278.737 188.039 278.206 188.156 277.57 188.156C276.503 188.156 275.716 187.797 275.211 187.078C274.711 186.359 274.461 185.271 274.461 183.812C274.461 182.339 274.719 181.234 275.234 180.5C275.755 179.76 276.534 179.391 277.57 179.391C278.211 179.391 278.745 179.508 279.172 179.742C279.599 179.977 279.943 180.349 280.203 180.859H280.219L280.203 179.914V176.406H281.609V186.258C281.609 186.701 281.612 187.068 281.617 187.359C281.628 187.646 281.641 187.859 281.656 188H280.312ZM275.938 183.766C275.938 184.948 276.094 185.794 276.406 186.305C276.719 186.815 277.227 187.07 277.93 187.07C278.727 187.07 279.305 186.794 279.664 186.242C280.023 185.69 280.203 184.833 280.203 183.672C280.203 182.552 280.023 181.732 279.664 181.211C279.305 180.69 278.732 180.43 277.945 180.43C277.237 180.43 276.724 180.693 276.406 181.219C276.094 181.74 275.938 182.589 275.938 183.766ZM291.383 188.156C290.534 188.156 289.896 187.932 289.469 187.484C289.042 187.036 288.828 186.422 288.828 185.641C288.828 184.766 289.115 184.094 289.688 183.625C290.266 183.156 291.195 182.906 292.477 182.875L294.375 182.844V182.383C294.375 181.695 294.229 181.203 293.938 180.906C293.646 180.609 293.188 180.461 292.562 180.461C291.932 180.461 291.474 180.568 291.188 180.781C290.901 180.995 290.729 181.336 290.672 181.805L289.203 181.672C289.443 180.151 290.573 179.391 292.594 179.391C293.656 179.391 294.456 179.635 294.992 180.125C295.529 180.609 295.797 181.312 295.797 182.234V185.875C295.797 186.292 295.852 186.607 295.961 186.82C296.07 187.029 296.279 187.133 296.586 187.133C296.732 187.133 296.885 187.115 297.047 187.078V187.953C296.87 187.995 296.69 188.026 296.508 188.047C296.326 188.068 296.143 188.078 295.961 188.078C295.44 188.078 295.06 187.943 294.82 187.672C294.586 187.396 294.453 186.966 294.422 186.383H294.375C294.016 187.029 293.596 187.487 293.117 187.758C292.643 188.023 292.065 188.156 291.383 188.156ZM294.375 183.828L292.836 183.859C292.18 183.865 291.68 183.932 291.336 184.062C290.992 184.188 290.729 184.38 290.547 184.641C290.365 184.901 290.273 185.242 290.273 185.664C290.273 186.122 290.396 186.477 290.641 186.727C290.891 186.977 291.245 187.102 291.703 187.102C292.224 187.102 292.682 186.984 293.078 186.75C293.479 186.516 293.794 186.195 294.023 185.789C294.258 185.378 294.375 184.956 294.375 184.523V183.828ZM306.836 187.938C306.378 188.062 305.904 188.125 305.414 188.125C304.852 188.125 304.43 187.966 304.148 187.648C303.867 187.326 303.727 186.846 303.727 186.211V180.57H302.75V179.547H303.781L304.195 177.656H305.133V179.547H306.695V180.57H305.133V185.906C305.133 186.312 305.198 186.599 305.328 186.766C305.464 186.927 305.695 187.008 306.023 187.008C306.201 187.008 306.471 186.971 306.836 186.898V187.938ZM313.883 186.555C313.56 187.138 313.185 187.552 312.758 187.797C312.336 188.036 311.81 188.156 311.18 188.156C310.253 188.156 309.573 187.927 309.141 187.469C308.714 187.005 308.5 186.242 308.5 185.18V179.547H309.914V184.906C309.914 185.75 310.044 186.323 310.305 186.625C310.57 186.922 311.021 187.07 311.656 187.07C312.333 187.07 312.867 186.839 313.258 186.375C313.648 185.911 313.844 185.268 313.844 184.445V179.547H315.25V186.195C315.25 186.685 315.253 187.081 315.258 187.383C315.268 187.685 315.281 187.891 315.297 188H313.969C313.964 187.974 313.953 187.852 313.938 187.633C313.927 187.414 313.917 187.055 313.906 186.555H313.883ZM324.305 176.406V188H322.898V176.406H324.305ZM328.359 176.406V177.75H326.953V176.406H328.359ZM328.359 179.547V188H326.953V179.547H328.359ZM337.367 185.664C337.367 186.461 337.065 187.076 336.461 187.508C335.862 187.94 335.021 188.156 333.938 188.156C332.885 188.156 332.073 187.984 331.5 187.641C330.932 187.292 330.562 186.75 330.391 186.016L331.633 185.773C331.753 186.227 332 186.56 332.375 186.773C332.75 186.982 333.271 187.086 333.938 187.086C334.651 187.086 335.172 186.977 335.5 186.758C335.833 186.539 336 186.211 336 185.773C336 185.44 335.885 185.169 335.656 184.961C335.427 184.753 335.057 184.581 334.547 184.445C333.943 184.284 333.461 184.151 333.102 184.047C332.747 183.943 332.474 183.854 332.281 183.781C332.089 183.703 331.935 183.63 331.82 183.562C331.477 183.365 331.208 183.122 331.016 182.836C330.823 182.549 330.727 182.198 330.727 181.781C330.727 181.01 331 180.424 331.547 180.023C332.099 179.617 332.901 179.414 333.953 179.414C334.885 179.414 335.625 179.578 336.172 179.906C336.724 180.234 337.073 180.76 337.219 181.484L335.953 181.641C335.875 181.266 335.664 180.979 335.32 180.781C334.982 180.578 334.526 180.477 333.953 180.477C333.318 180.477 332.849 180.573 332.547 180.766C332.245 180.958 332.094 181.25 332.094 181.641C332.094 181.927 332.18 182.164 332.352 182.352C332.523 182.534 332.852 182.685 333.336 182.805C333.987 182.961 334.607 183.133 335.195 183.32C335.784 183.503 336.206 183.685 336.461 183.867C336.758 184.081 336.982 184.333 337.133 184.625C337.289 184.911 337.367 185.258 337.367 185.664ZM342.773 187.938C342.315 188.062 341.841 188.125 341.352 188.125C340.789 188.125 340.367 187.966 340.086 187.648C339.805 187.326 339.664 186.846 339.664 186.211V180.57H338.688V179.547H339.719L340.133 177.656H341.07V179.547H342.633V180.57H341.07V185.906C341.07 186.312 341.135 186.599 341.266 186.766C341.401 186.927 341.633 187.008 341.961 187.008C342.138 187.008 342.409 186.971 342.773 186.898V187.938ZM346.633 188.156C345.784 188.156 345.146 187.932 344.719 187.484C344.292 187.036 344.078 186.422 344.078 185.641C344.078 184.766 344.365 184.094 344.938 183.625C345.516 183.156 346.445 182.906 347.727 182.875L349.625 182.844V182.383C349.625 181.695 349.479 181.203 349.188 180.906C348.896 180.609 348.438 180.461 347.812 180.461C347.182 180.461 346.724 180.568 346.438 180.781C346.151 180.995 345.979 181.336 345.922 181.805L344.453 181.672C344.693 180.151 345.823 179.391 347.844 179.391C348.906 179.391 349.706 179.635 350.242 180.125C350.779 180.609 351.047 181.312 351.047 182.234V185.875C351.047 186.292 351.102 186.607 351.211 186.82C351.32 187.029 351.529 187.133 351.836 187.133C351.982 187.133 352.135 187.115 352.297 187.078V187.953C352.12 187.995 351.94 188.026 351.758 188.047C351.576 188.068 351.393 188.078 351.211 188.078C350.69 188.078 350.31 187.943 350.07 187.672C349.836 187.396 349.703 186.966 349.672 186.383H349.625C349.266 187.029 348.846 187.487 348.367 187.758C347.893 188.023 347.315 188.156 346.633 188.156ZM349.625 183.828L348.086 183.859C347.43 183.865 346.93 183.932 346.586 184.062C346.242 184.188 345.979 184.38 345.797 184.641C345.615 184.901 345.523 185.242 345.523 185.664C345.523 186.122 345.646 186.477 345.891 186.727C346.141 186.977 346.495 187.102 346.953 187.102C347.474 187.102 347.932 186.984 348.328 186.75C348.729 186.516 349.044 186.195 349.273 185.789C349.508 185.378 349.625 184.956 349.625 184.523V183.828ZM355.789 186.289V188H354.266V186.289H355.789Z" fill="black"/>
<rect x="148" y="223" width="124" height="42" rx="20" fill="#2C421F"/>
<path d="M179.531 248.93C181.073 248.93 182.232 248.167 183.008 246.641L184.227 247.25C183.773 248.198 183.135 248.919 182.312 249.414C181.495 249.909 180.544 250.156 179.461 250.156C178.346 250.156 177.388 249.924 176.586 249.461C175.784 248.997 175.167 248.339 174.734 247.484C174.307 246.625 174.094 245.612 174.094 244.445C174.094 243.273 174.307 242.268 174.734 241.43C175.161 240.591 175.776 239.948 176.578 239.5C177.38 239.052 178.339 238.828 179.453 238.828C180.625 238.828 181.604 239.057 182.391 239.516C183.177 239.974 183.755 240.654 184.125 241.555L182.711 242.023C182.456 241.383 182.044 240.893 181.477 240.555C180.914 240.216 180.245 240.047 179.469 240.047C178.25 240.047 177.302 240.44 176.625 241.227C175.948 242.008 175.609 243.081 175.609 244.445C175.609 245.341 175.768 246.128 176.086 246.805C176.409 247.477 176.862 248 177.445 248.375C178.034 248.745 178.729 248.93 179.531 248.93ZM193.57 245.766C193.57 247.245 193.245 248.346 192.594 249.07C191.943 249.794 190.997 250.156 189.758 250.156C188.523 250.156 187.591 249.781 186.961 249.031C186.331 248.276 186.016 247.188 186.016 245.766C186.016 244.307 186.331 243.214 186.961 242.484C187.596 241.755 188.544 241.391 189.805 241.391C191.096 241.391 192.047 241.747 192.656 242.461C193.266 243.169 193.57 244.271 193.57 245.766ZM192.094 245.766C192.094 244.599 191.919 243.753 191.57 243.227C191.227 242.695 190.646 242.43 189.828 242.43C189.005 242.43 188.409 242.701 188.039 243.242C187.674 243.779 187.492 244.62 187.492 245.766C187.492 246.88 187.672 247.719 188.031 248.281C188.396 248.839 188.966 249.117 189.742 249.117C190.586 249.117 191.188 248.846 191.547 248.305C191.911 247.763 192.094 246.917 192.094 245.766ZM197.266 245.102V250H195.859V243.352C195.859 242.857 195.854 242.461 195.844 242.164C195.839 241.862 195.828 241.656 195.812 241.547H197.141C197.151 241.646 197.159 241.771 197.164 241.922C197.174 242.073 197.182 242.24 197.188 242.422C197.193 242.604 197.198 242.794 197.203 242.992H197.227C197.549 242.409 197.922 241.997 198.344 241.758C198.771 241.513 199.299 241.391 199.93 241.391C200.857 241.391 201.534 241.628 201.961 242.102C202.393 242.576 202.609 243.331 202.609 244.367V250H201.195V244.641C201.195 243.833 201.065 243.271 200.805 242.953C200.544 242.635 200.094 242.477 199.453 242.477C198.776 242.477 198.242 242.708 197.852 243.172C197.461 243.635 197.266 244.279 197.266 245.102ZM208.484 249.938C208.026 250.062 207.552 250.125 207.062 250.125C206.5 250.125 206.078 249.966 205.797 249.648C205.516 249.326 205.375 248.846 205.375 248.211V242.57H204.398V241.547H205.43L205.844 239.656H206.781V241.547H208.344V242.57H206.781V247.906C206.781 248.312 206.846 248.599 206.977 248.766C207.112 248.927 207.344 249.008 207.672 249.008C207.849 249.008 208.12 248.971 208.484 248.898V249.938ZM211.586 238.406V239.75H210.18V238.406H211.586ZM211.586 241.547V250H210.18V241.547H211.586ZM215.688 245.102V250H214.281V243.352C214.281 242.857 214.276 242.461 214.266 242.164C214.26 241.862 214.25 241.656 214.234 241.547H215.562C215.573 241.646 215.581 241.771 215.586 241.922C215.596 242.073 215.604 242.24 215.609 242.422C215.615 242.604 215.62 242.794 215.625 242.992H215.648C215.971 242.409 216.344 241.997 216.766 241.758C217.193 241.513 217.721 241.391 218.352 241.391C219.279 241.391 219.956 241.628 220.383 242.102C220.815 242.576 221.031 243.331 221.031 244.367V250H219.617V244.641C219.617 243.833 219.487 243.271 219.227 242.953C218.966 242.635 218.516 242.477 217.875 242.477C217.198 242.477 216.664 242.708 216.273 243.172C215.883 243.635 215.688 244.279 215.688 245.102ZM229 248.555C228.677 249.138 228.302 249.552 227.875 249.797C227.453 250.036 226.927 250.156 226.297 250.156C225.37 250.156 224.69 249.927 224.258 249.469C223.831 249.005 223.617 248.242 223.617 247.18V241.547H225.031V246.906C225.031 247.75 225.161 248.323 225.422 248.625C225.688 248.922 226.138 249.07 226.773 249.07C227.451 249.07 227.984 248.839 228.375 248.375C228.766 247.911 228.961 247.268 228.961 246.445V241.547H230.367V248.195C230.367 248.685 230.37 249.081 230.375 249.383C230.385 249.685 230.398 249.891 230.414 250H229.086C229.081 249.974 229.07 249.852 229.055 249.633C229.044 249.414 229.034 249.055 229.023 248.555H229ZM235.219 250.156C234.37 250.156 233.732 249.932 233.305 249.484C232.878 249.036 232.664 248.422 232.664 247.641C232.664 246.766 232.951 246.094 233.523 245.625C234.102 245.156 235.031 244.906 236.312 244.875L238.211 244.844V244.383C238.211 243.695 238.065 243.203 237.773 242.906C237.482 242.609 237.023 242.461 236.398 242.461C235.768 242.461 235.31 242.568 235.023 242.781C234.737 242.995 234.565 243.336 234.508 243.805L233.039 243.672C233.279 242.151 234.409 241.391 236.43 241.391C237.492 241.391 238.292 241.635 238.828 242.125C239.365 242.609 239.633 243.312 239.633 244.234V247.875C239.633 248.292 239.688 248.607 239.797 248.82C239.906 249.029 240.115 249.133 240.422 249.133C240.568 249.133 240.721 249.115 240.883 249.078V249.953C240.706 249.995 240.526 250.026 240.344 250.047C240.161 250.068 239.979 250.078 239.797 250.078C239.276 250.078 238.896 249.943 238.656 249.672C238.422 249.396 238.289 248.966 238.258 248.383H238.211C237.852 249.029 237.432 249.487 236.953 249.758C236.479 250.023 235.901 250.156 235.219 250.156ZM238.211 245.828L236.672 245.859C236.016 245.865 235.516 245.932 235.172 246.062C234.828 246.188 234.565 246.38 234.383 246.641C234.201 246.901 234.109 247.242 234.109 247.664C234.109 248.122 234.232 248.477 234.477 248.727C234.727 248.977 235.081 249.102 235.539 249.102C236.06 249.102 236.518 248.984 236.914 248.75C237.315 248.516 237.63 248.195 237.859 247.789C238.094 247.378 238.211 246.956 238.211 246.523V245.828ZM243.906 245.594V250H242.5V243.516C242.5 243.219 242.495 242.906 242.484 242.578C242.479 242.25 242.469 241.906 242.453 241.547H243.781C243.792 241.786 243.799 242.003 243.805 242.195C243.815 242.388 243.823 242.557 243.828 242.703C243.833 242.844 243.836 242.964 243.836 243.062C243.841 243.156 243.844 243.227 243.844 243.273H243.875C244.031 242.763 244.203 242.367 244.391 242.086C244.573 241.826 244.781 241.646 245.016 241.547C245.25 241.443 245.539 241.391 245.883 241.391C246.076 241.391 246.266 241.417 246.453 241.469V242.758C246.276 242.706 246.026 242.68 245.703 242.68C245.12 242.68 244.674 242.932 244.367 243.438C244.06 243.938 243.906 244.656 243.906 245.594Z" fill="white"/>
</g>
<defs>
<filter id="filter0_d_4191_26616" x="0" y="0" width="420" height="300" filterUnits="userSpaceOnUse" color-interpolation-filters="sRGB">
<feFlood flood-opacity="0" result="BackgroundImageFix"/>
<feColorMatrix in="SourceAlpha" type="matrix" values="0 0 0 0 0 0 0 0 0 0 0 0 0 0 0 0 0 0 127 0" result="hardAlpha"/>
<feOffset dy="4"/>
<feGaussianBlur stdDeviation="3"/>
<feComposite in2="hardAlpha" operator="out"/>
<feColorMatrix type="matrix" values="0 0 0 0 0 0 0 0 0 0 0 0 0 0 0 0 0 0 0.25 0"/>
<feBlend mode="normal" in2="BackgroundImageFix" result="effect1_dropShadow_4191_26616"/>
<feBlend mode="normal" in="SourceGraphic" in2="effect1_dropShadow_4191_26616" result="shape"/>
</filter>
</defs>
</svg>
