<svg xmlns="http://www.w3.org/2000/svg" width="69.478" height="69.489" viewBox="0 0 69.478 69.489">
  <g id="Grupo_2510" data-name="Grupo 2510" transform="translate(-129.574 -182.92)">
    <path id="Trazado_2713" data-name="Trazado 2713" d="M158.5,245.368V238.6c-.528-.034-1.049-.1-1.57-.1q-10.308-.01-20.616,0a6.918,6.918,0,0,1-4.262-1.13,5.927,5.927,0,0,1-2.46-5.077q-.024-21.553,0-43.106c.008-3.717,2.052-5.849,5.746-6.219.5-.049,1-.05,1.5-.05q27.551,0,55.1,0a7.776,7.776,0,0,1,4.559,1.006,5.3,5.3,0,0,1,2.513,4.229c.016.249.03.5.03.749q0,21.8-.006,43.606a5.671,5.671,0,0,1-4.27,5.74,10.659,10.659,0,0,1-2.6.237q-10.245.027-20.491.01h-1.445v6.868h1.408q12.557,0,25.114,0c2.126,0,2.294.17,2.3,2.261,0,1.125-.022,2.25.005,3.373a1.2,1.2,0,0,1-1.263,1.372c-.414.035-.832.032-1.248.032q-32.236,0-64.472,0c-2.326,0-2.486-.163-2.488-2.465,0-.833-.007-1.666,0-2.5.017-1.721.343-2.062,2.037-2.072,2.124-.013,4.248,0,6.372,0H158.5Zm38.279-18.561v-1.475q0-17.674,0-35.348c0-3.532-1.171-4.71-4.691-4.71q-27.6,0-55.208,0a5.706,5.706,0,0,0-1.737.073,7.312,7.312,0,0,0-2.236,1.136c-.886.707-.893,1.8-.892,2.866q.014,18.3.009,36.6c0,.274.051.548.083.86Zm-33.9,2.572H132.018c0,.888,0,1.707,0,2.527.008,3.058,1.084,4.153,4.116,4.155q12.805.008,25.611,0c.341,0,.682-.047,1.142-.081C160.215,233.73,160.213,231.69,162.88,229.38Zm22.336,6.552c2.257.29,2.257.29,2.258-1.741,0-.458-.015-.917.015-1.374.05-.757.4-1.409,1.217-1.193a1.847,1.847,0,0,1,1.073,1.194,23.969,23.969,0,0,1,.086,2.483,1.039,1.039,0,0,0,.684.726,19.935,19.935,0,0,0,3.241-.038,2.93,2.93,0,0,0,2.77-2.466c.185-.926.107-1.9.229-2.844.144-1.109-.271-1.4-1.375-1.4-9.451.043-18.9.024-28.354.027-.35,0-.7.035-1.309.068a3.961,3.961,0,0,1,2.067,3.306c.011,1.485-.874,2.412-2.14,3.38h14.358c2.761,0,2.761,0,2.839-2.805,0-.042,0-.083,0-.125.043-.773.065-1.57,1.155-1.558,1.051.012,1.163.769,1.18,1.559C185.232,234.075,185.216,235.018,185.216,235.932Zm11.4,14.056c.434-2.209.37-2.292-1.7-2.292H132.078v2.292ZM167.726,238.5c-2.115,0-4.139-.027-6.161.035a1.049,1.049,0,0,0-.682.758c-.061,1.783-.05,3.569-.006,5.354.006.238.323.669.5.673,2.1.048,4.2.03,6.344.03Zm-3.3-7.4c-.539.7-1.105,1.111-1.088,1.5.018.416.584.807.911,1.209.417-.369,1.049-.676,1.176-1.126C165.511,232.365,164.921,231.853,164.421,231.106Z" fill="#67bc47"/>
    <path id="Trazado_2714" data-name="Trazado 2714" d="M178.589,201.607q14.055,0,28.111,0c1.66,0,1.953.281,1.954,1.96q.008,16.554,0,33.108c0,1.577-.4,1.977-2.016,1.978q-28.173.009-56.347,0c-1.652,0-1.842-.215-1.843-1.91q-.006-16.742,0-33.483c0-1.486.164-1.65,1.657-1.651Q164.346,201.6,178.589,201.607Zm27.56,34.651c.034-.437.08-.76.08-1.083,0-10.033-.014-20.066.028-30.1,0-1.066-.391-1.208-1.309-1.207q-26.414.034-52.828.017h-1.277v32.371Z" transform="translate(-14.153 -14.017)" fill="#67bc47"/>
    <path id="Trazado_2715" data-name="Trazado 2715" d="M226.081,221.4a7.379,7.379,0,0,1-.784,1.208q-11.815,11.847-23.658,23.667c-.556.555-1.232,1.053-1.934.311-.653-.69-.282-1.372.3-1.957q11.877-11.874,23.77-23.732a1.908,1.908,0,0,1,1.383-.478C225.477,220.455,225.736,221.01,226.081,221.4Z" transform="translate(-52.345 -28.123)" fill="#67bc47"/>
    <path id="Trazado_2716" data-name="Trazado 2716" d="M237.839,247.141c-1.127,0-1.676-.938-1.227-1.7a5.018,5.018,0,0,1,.828-.927q11.517-11.523,23.039-23.042c.206-.206.387-.525.631-.585.463-.114,1.207-.281,1.39-.059a2.195,2.195,0,0,1,.254,1.524c-.038.3-.444.576-.707.839q-11.473,11.479-22.958,22.947A13.006,13.006,0,0,1,237.839,247.141Z" transform="translate(-80.17 -28.349)" fill="#67bc47"/>
  </g>
</svg>
