<svg xmlns="http://www.w3.org/2000/svg" width="99" height="95" viewBox="0 0 99 95">
  <g id="ico-home" transform="translate(0.486 -0.113)">
    <g id="Grupo_1231" data-name="Grupo 1231" transform="translate(14.269 12.488)">
      <path id="Trazado_1805" data-name="Trazado 1805" d="M499.5,393.868h16.584V382.024H499.5Zm2.369-2.369v-3.554h11.846V391.5Zm11.846-7.106v1.183H501.869v-1.183Zm0,0" transform="translate(-482.916 -351.976)" fill="#67bc47"/>
      <path id="Trazado_1806" data-name="Trazado 1806" d="M499.5,392.523v14.215h16.584V392.523Zm7.107,2.369v3.554h-4.738v-3.554Zm-4.738,5.923h4.738v3.554h-4.738Zm7.108,3.554v-3.554h4.738v3.554Zm4.738-5.923h-4.738v-3.554h4.738Zm0,0" transform="translate(-482.916 -345.892)" fill="#67bc47"/>
      <path id="Trazado_1807" data-name="Trazado 1807" d="M513,393.868h16.584V382.024H513Zm2.369-2.369v-1.184h11.846V391.5Zm11.846-7.106v3.552H515.369v-3.552Zm0,0" transform="translate(-475.093 -351.976)" fill="#67bc47"/>
      <path id="Trazado_1808" data-name="Trazado 1808" d="M558.891,419.107a1.185,1.185,0,0,0-1.184,1.185v1.185h-1.185v-1.185a1.185,1.185,0,1,0-2.369,0v1.185h-1.184V397.544a4.665,4.665,0,0,0,5.392-1.091,4.734,4.734,0,0,0-.55-6.953l-30.046-23.507L524.538,363l-3.146,2.931L491.265,389.5a4.735,4.735,0,0,0-.55,6.953,4.7,4.7,0,0,0,5.392,1.091v23.932h-1.185v-1.185a1.185,1.185,0,1,0-2.369,0v1.185h-1.185v-1.185a1.185,1.185,0,1,0-2.369,0v10.661a1.185,1.185,0,0,0,2.369,0v-1.185h1.185v1.185a1.185,1.185,0,0,0,2.369,0v-1.185h1.185v2.369h56.861v-2.369h1.184v1.185a1.185,1.185,0,0,0,2.369,0v-1.185h1.185v1.185a1.185,1.185,0,0,0,2.369,0V420.292a1.185,1.185,0,0,0-1.185-1.185Zm-66.442-24.27a2.37,2.37,0,0,1,.276-3.475l30.2-23.631,1.611-1.5,1.69,1.56,30.122,23.569a2.369,2.369,0,0,1,.276,3.475,2.355,2.355,0,0,1-3.182.265l-.475-.365-28.43-21.915L496.57,394.379l-.938.724a2.355,2.355,0,0,1-3.183-.265Zm-1.08,32.562v-3.554h1.185V427.4Zm3.554,0v-3.554h1.185V427.4Zm34.353,2.369V412h11.846v17.769Zm21.323,0h-7.108V409.63H526.907v20.138h-28.43V395.9l26.061-20.088L550.6,395.9Zm2.369-2.369v-3.554h1.184V427.4Zm3.554,0v-3.554h1.185V427.4Zm0,0" transform="translate(-489 -363)" fill="#67bc47"/>
    </g>
    <rect id="Rectángulo_1824" data-name="Rectángulo 1824" width="99" height="95" transform="translate(-0.486 0.113)" fill="none"/>
  </g>
</svg>
