<svg width="27" height="24" viewBox="0 0 27 24" fill="none" xmlns="http://www.w3.org/2000/svg">
<g id="sing-out-alt">
<path id="Vector" d="M19.9731 16.8457C19.7908 16.6838 19.6963 16.4379 19.6963 16.186C19.6963 15.9341 19.7908 15.7782 19.9731 15.6103L23.0241 12.8996H10.5433C10.2666 12.8996 10.0843 12.8157 9.89533 12.6537C9.71308 12.4918 9.61858 12.2459 9.61858 11.9941C9.61858 11.7422 9.71308 11.5863 9.89533 11.4184C10.0776 11.2504 10.2666 11.1725 10.5433 11.1725H23.0241L19.8786 8.37786C19.6963 8.21594 19.6018 8.04802 19.6018 7.80215C19.6018 7.55627 19.6963 7.39435 19.8786 7.14247C20.0608 6.98055 20.2498 6.89659 20.5266 6.89659C20.8033 6.89659 20.9856 6.98055 21.1746 7.14247L25.7983 11.1665C25.8928 11.2504 25.9806 11.4124 26.0751 11.4963C26.1696 11.6582 26.1696 11.7422 26.1696 11.9041C26.1696 12.066 26.1696 12.15 26.0751 12.3119C25.9806 12.3959 25.8928 12.5578 25.7983 12.6418L21.2691 16.7497C21.0868 16.9116 20.8978 16.9956 20.6211 16.9956C20.3443 17.0796 20.1621 16.9956 19.9731 16.8337V16.8457ZM3.23983 23.9941C2.59183 23.9941 2.03833 23.7483 1.57258 23.3345C1.01908 22.9267 0.830078 22.4289 0.830078 21.8532V2.14094C0.830078 1.56523 1.10683 1.07347 1.57258 0.659674C2.03833 0.245879 2.59183 0 3.23983 0H12.8586C13.1353 0 13.3176 0.0839585 13.5066 0.245879C13.6888 0.407798 13.7833 0.653677 13.7833 0.905553C13.7833 1.15743 13.6888 1.31335 13.5066 1.48127C13.3243 1.64319 13.1353 1.72715 12.8586 1.72715H3.23308C3.13858 1.72715 3.05083 1.81111 2.86183 1.88907C2.76733 1.97303 2.76733 2.05099 2.76733 2.13494V21.8532C2.76733 21.9372 2.86183 22.0151 2.94958 22.183C3.04408 22.267 3.13183 22.345 3.32083 22.345H12.8451C13.1218 22.345 13.3041 22.4289 13.4931 22.5908C13.6821 22.7528 13.7698 22.9986 13.7698 23.1666C13.7698 23.3345 13.6753 23.5744 13.4931 23.7423C13.3108 23.9042 13.1218 23.9881 12.8451 23.9881H3.23308L3.23983 23.9941Z" fill="#2C421F"/>
</g>
</svg>
