<svg id="soat" xmlns="http://www.w3.org/2000/svg" width="78.459" height="78.46" viewBox="0 0 78.459 78.46">
  <g id="Grupo_2661" data-name="Grupo 2661" transform="translate(-180.283 -681.356)">
    <g id="Grupo_1943" data-name="Grupo 1943" transform="translate(192.283 682.356)">
      <path id="Trazado_2574" data-name="Trazado 2574" d="M1146.61,88.63a39.23,39.23,0,1,1-39.23,39.23A39.23,39.23,0,0,1,1146.61,88.63Z" transform="translate(-1119.38 -89.63)" fill="#e7eaea" fill-rule="evenodd" opacity="0.65"/>
    </g>
    <g id="Grupo_1944" data-name="Grupo 1944" transform="translate(188.148 688.222)">
      <path id="Trazado_2575" data-name="Trazado 2575" d="M1153.316,102.2a32.365,32.365,0,1,1-32.365,32.365A32.364,32.364,0,0,1,1153.316,102.2Z" transform="translate(-1120.951 -102.201)" fill="#bdd63f" fill-rule="evenodd"/>
    </g>
    <g id="Grupo_1970" data-name="Grupo 1970" transform="translate(197.123 738.961)">
      <path id="Trazado_2606" data-name="Trazado 2606" d="M1180.421,215.114a7.3,7.3,0,0,0,6.845-4.769l-6.309-.011-2.178-1.258v-2.515l2.178-1.258,6.309-.011a7.3,7.3,0,0,0-13.605-.222h-22.954a4.491,4.491,0,1,0-.044,5.494h23A7.3,7.3,0,0,0,1180.421,215.114Zm-35.727-7.325a2.441,2.441,0,1,1,2.441,2.442A2.441,2.441,0,0,1,1144.694,207.788Z" transform="translate(-1142.644 -200.523)" fill="#fff"/>
    </g>
    <g id="Grupo_1971" data-name="Grupo 1971" transform="translate(218.24 746.817)">
      <path id="Trazado_2607" data-name="Trazado 2607" d="M1189.395,216.787h-4.639a.368.368,0,1,1,0-.736h4.639a.368.368,0,1,1,0,.736Z" transform="translate(-1184.388 -216.051)" fill="#1f4c38"/>
    </g>
    <g id="Grupo_1972" data-name="Grupo 1972" transform="translate(207.057 745.889)">
      <path id="Trazado_2608" data-name="Trazado 2608" d="M1172.466,215.881h-8.889a1.3,1.3,0,0,1-1.3-1.3.368.368,0,1,1,.735,0,.561.561,0,0,0,.56.56h8.889a.368.368,0,1,1,0,.736Z" transform="translate(-1162.281 -214.218)" fill="#1f4c38"/>
    </g>
    <g id="Grupo_1973" data-name="Grupo 1973" transform="translate(227.643 742.641)">
      <path id="Trazado_2609" data-name="Trazado 2609" d="M1203.343,210.495a.368.368,0,0,1-.368-.367,4.967,4.967,0,0,1,.548-2.139.368.368,0,1,1,.646.352,4.231,4.231,0,0,0-.458,1.786.367.367,0,0,1-.368.368Z" transform="translate(-1202.975 -207.797)" fill="#003825"/>
    </g>
    <g id="Grupo_1974" data-name="Grupo 1974" transform="translate(196.632 738.471)">
      <path id="Trazado_2610" data-name="Trazado 2610" d="M1179.942,215.125a7.753,7.753,0,0,1-7.081-4.548h-22.448a4.984,4.984,0,1,1,.05-6.475h22.4a7.754,7.754,0,0,1,7.08-4.548h0a7.815,7.815,0,0,1,7.306,5.091.49.49,0,0,1-.46.66l-6.178.01-1.82,1.05v1.949l1.819,1.05,6.178.011a.49.49,0,0,1,.459.66A7.818,7.818,0,0,1,1179.942,215.125Zm-6.759-5.528a.489.489,0,0,1,.454.306,6.806,6.806,0,0,0,12.405.452l-5.565-.01a.494.494,0,0,1-.245-.065l-2.178-1.258a.489.489,0,0,1-.245-.425v-2.515a.49.49,0,0,1,.245-.425l2.178-1.257a.487.487,0,0,1,.244-.066l5.566-.01a6.836,6.836,0,0,0-6.1-3.79h0a6.78,6.78,0,0,0-6.3,4.242.49.49,0,0,1-.454.306h-22.954a.491.491,0,0,1-.39-.193,4,4,0,1,0-.04,4.893.491.491,0,0,1,.385-.187Zm-26.526.645a2.932,2.932,0,1,1,0-5.863h0a2.932,2.932,0,0,1,0,5.863Zm0-4.882a1.95,1.95,0,1,0,1.38.571,1.939,1.939,0,0,0-1.38-.571Z" transform="translate(-1141.675 -199.554)" fill="#1f4c38"/>
    </g>
    <g id="Grupo_1975" data-name="Grupo 1975" transform="translate(231.016 750.571)">
      <path id="Trazado_2611" data-name="Trazado 2611" d="M1213.684,225.558h0a6.049,6.049,0,0,1-3.911-1.438.368.368,0,0,1,.476-.561,5.314,5.314,0,0,0,3.435,1.263.368.368,0,0,1,0,.736Z" transform="translate(-1209.643 -223.473)" fill="#1f4c38"/>
    </g>
    <g id="Grupo_1976" data-name="Grupo 1976" transform="translate(229.443 748.405)">
      <path id="Trazado_2612" data-name="Trazado 2612" d="M1207.338,220.779a.369.369,0,0,1-.312-.173l-.036-.058a3.588,3.588,0,0,1-.434-.866.368.368,0,0,1,.693-.247,2.839,2.839,0,0,0,.364.721l.037.059a.368.368,0,0,1-.311.564Z" transform="translate(-1206.534 -219.191)" fill="#1f4c38"/>
    </g>
    <g id="Grupo_2659" data-name="Grupo 2659" transform="translate(-5597 2752)">
      <g id="Grupo_1947" data-name="Grupo 1947" transform="translate(5793.833 -2051.403)">
        <path id="Trazado_2580" data-name="Trazado 2580" d="M1124.493,164.649a2.19,2.19,0,1,1,2.19-2.19A2.193,2.193,0,0,1,1124.493,164.649Zm0-3.4a1.209,1.209,0,1,0,1.21,1.209A1.211,1.211,0,0,0,1124.493,161.25Z" transform="translate(-1122.303 -160.269)" fill="#1f4c38"/>
      </g>
      <g id="Grupo_1948" data-name="Grupo 1948" transform="translate(5796.808 -2019.752)">
        <path id="Trazado_2581" data-name="Trazado 2581" d="M1181.159,188.435a1.579,1.579,0,1,1,1.58-1.579A1.581,1.581,0,0,1,1181.159,188.435Zm0-2.178a.6.6,0,1,0,.6.6A.6.6,0,0,0,1181.159,186.257Z" transform="translate(-1179.58 -185.276)" fill="#1f4c38"/>
      </g>
      <g id="Grupo_1969" data-name="Grupo 1969" transform="translate(5724.884 -2069.737)">
        <g id="Grupo_1957" data-name="Grupo 1957" transform="translate(71.649 55.213)">
          <line id="Línea_56" data-name="Línea 56" x1="2.232" y2="0.003" transform="translate(0.49 0.49)" fill="#fff"/>
          <path id="Trazado_2591" data-name="Trazado 2591" d="M1191.386,190.663a.49.49,0,0,1,0-.981l2.232,0h0a.49.49,0,0,1,0,.981l-2.232,0Z" transform="translate(-1190.896 -189.679)" fill="#1f4c38"/>
        </g>
        <g id="Grupo_1958" data-name="Grupo 1958" transform="translate(75.797 55.215)">
          <line id="Línea_57" data-name="Línea 57" x1="19.265" transform="translate(0.49 0.49)" fill="#fff"/>
          <path id="Trazado_2592" data-name="Trazado 2592" d="M1218.85,190.663h-19.265a.49.49,0,1,1,0-.98h19.265a.49.49,0,1,1,0,.98Z" transform="translate(-1199.095 -189.683)" fill="#1f4c38"/>
        </g>
        <g id="Grupo_1961" data-name="Grupo 1961" transform="translate(76.209 17)">
          <path id="Trazado_2595" data-name="Trazado 2595" d="M1161.233,126.984h-12.228a.49.49,0,0,1,0-.981h12.228a.49.49,0,1,1,0,.981Z" transform="translate(-1148.515 -126.003)" fill="#1f4c38"/>
        </g>
        <g id="Grupo_1962" data-name="Grupo 1962" transform="translate(74.544 18.989)">
          <path id="Trazado_2596" data-name="Trazado 2596" d="M1156.1,130.916h-4.456a.49.49,0,1,1,0-.981h4.456a.49.49,0,0,1,0,.981Z" transform="translate(-1151.153 -129.935)" fill="#1f4c38"/>
        </g>
        <g id="Grupo_1963" data-name="Grupo 1963" transform="translate(72.602 17.097)">
          <path id="Trazado_2597" data-name="Trazado 2597" d="M1149.251,135.083h-1.446a.49.49,0,0,1,0-.981h1.446a.49.49,0,1,1,0,.981Z" transform="translate(-1147.315 -134.102)" fill="#1f4c38"/>
        </g>
        <g id="Grupo_1964" data-name="Grupo 1964" transform="translate(76.058 51.165)">
          <line id="Línea_59" data-name="Línea 59" x1="5.241" transform="translate(0.49 0.49)" fill="#fff"/>
          <path id="Trazado_2598" data-name="Trazado 2598" d="M1217.2,186.612h-5.241a.49.49,0,0,1,0-.981h5.241a.49.49,0,0,1,0,.981Z" transform="translate(-1211.473 -185.631)" fill="#1f4c38"/>
        </g>
      </g>
      <g id="steering-wheel" transform="translate(5799 -2053.382)">
        <g id="Grupo_2648" data-name="Grupo 2648" transform="translate(2.625 15.132)">
          <path id="Trazado_2807" data-name="Trazado 2807" d="M33.692,199.056c0,1.5.459,2.539,2.058,3.849h2.473c5.589.223,7.484,3.621,7.484,7.9v3.069a8.522,8.522,0,0,0,10.6,0v-3.069c0-4.282,1.895-7.678,7.484-7.9H66.27a8.466,8.466,0,0,0-.276-8.658H36.024C35.068,194.739,33.692,197.555,33.692,199.056Zm13.448,2.252a3.869,3.869,0,1,1,3.869,3.869A3.87,3.87,0,0,1,47.14,201.309Z" transform="translate(-33.692 -194.247)" fill="#fff" fill-rule="evenodd"/>
        </g>
        <g id="Grupo_2649" data-name="Grupo 2649" transform="translate(3.084 27.196)">
          <path id="Trazado_2808" data-name="Trazado 2808" d="M69.852,350.091a15.73,15.73,0,0,1-26.812,0l-2.327-.985-1.124,2.27a19.366,19.366,0,0,0,33.717,0l-1.6-1.655Z" transform="translate(-39.589 -349.106)" fill="#fff" fill-rule="evenodd"/>
        </g>
        <g id="Grupo_2650" data-name="Grupo 2650" transform="translate(26.352 28.18)">
          <path id="Trazado_2809" data-name="Trazado 2809" d="M345.272,361.747a15.764,15.764,0,0,1-3.2,3.741,22.653,22.653,0,0,1-3.791,6.293,19.436,19.436,0,0,0,10.449-8.749Z" transform="translate(-338.276 -361.747)" fill="#fff" fill-rule="evenodd"/>
        </g>
        <g id="Grupo_2651" data-name="Grupo 2651" transform="translate(3.084 0.584)">
          <path id="Trazado_2810" data-name="Trazado 2810" d="M73.305,17.335a19.366,19.366,0,0,0-33.717,0L40.712,19.3l2.327-.684a15.737,15.737,0,0,1,26.812,0l2.327,1Z" transform="translate(-39.588 -7.5)" fill="#fff" fill-rule="evenodd"/>
        </g>
        <g id="Grupo_2652" data-name="Grupo 2652" transform="translate(25.287 1.331)">
          <path id="Trazado_2811" data-name="Trazado 2811" d="M336.127,26.171a19.414,19.414,0,0,0-11.514-9.089,21.1,21.1,0,0,1,4.319,6.194,15.832,15.832,0,0,1,3.741,4.178Z" transform="translate(-324.613 -17.082)" fill="#fff" fill-rule="evenodd"/>
        </g>
        <g id="Grupo_2653" data-name="Grupo 2653" transform="translate(33.347 10.42)">
          <path id="Trazado_2812" data-name="Trazado 2812" d="M434.031,143.278a19.287,19.287,0,0,0-2.5-9.522l-3.454,1.283a15.554,15.554,0,0,1,1.579,3.429,15.708,15.708,0,0,1-1.579,13.048l3.454,1.285A19.3,19.3,0,0,0,434.031,143.278Z" transform="translate(-428.078 -133.756)" fill="#1f4c38" fill-rule="evenodd"/>
        </g>
        <g id="Grupo_2654" data-name="Grupo 2654" transform="translate(0.584 10.42)">
          <path id="Trazado_2813" data-name="Trazado 2813" d="M10,133.756A19.389,19.389,0,0,0,10,152.8l3.451-1.285a15.6,15.6,0,0,1-1.853-4.39,15.706,15.706,0,0,1,1.853-12.088Z" transform="translate(-7.5 -133.756)" fill="#1f4c38" fill-rule="evenodd"/>
        </g>
        <g id="Grupo_2655" data-name="Grupo 2655" transform="translate(4.208 15.132)">
          <path id="Trazado_2814" data-name="Trazado 2814" d="M57.822,194.247H54.766a15.831,15.831,0,0,0-.274,8.658h2.473c.2.009.4.02.585.038a12.878,12.878,0,0,1,.272-8.7Z" transform="translate(-54.017 -194.247)" fill="#fff" fill-rule="evenodd"/>
        </g>
        <g id="Grupo_2656" data-name="Grupo 2656" transform="translate(14.64 31.541)">
          <path id="Trazado_2815" data-name="Trazado 2815" d="M193.228,406.034a12.769,12.769,0,0,1-5.3-1.144v3.22a15.831,15.831,0,0,0,10.6,0V405.04c0-.051,0-.1,0-.15A12.772,12.772,0,0,1,193.228,406.034Z" transform="translate(-187.926 -404.89)" fill="#fff" fill-rule="evenodd"/>
        </g>
        <g id="Grupo_2657" data-name="Grupo 2657" transform="translate(31.872 15.132)">
          <path id="Trazado_2816" data-name="Trazado 2816" d="M412.2,194.247h-3.054a12.912,12.912,0,0,1,.272,8.7c.19-.018.384-.029.583-.038h2.475a15.863,15.863,0,0,0-.276-8.658Z" transform="translate(-409.142 -194.247)" fill="#fff" fill-rule="evenodd"/>
        </g>
        <g id="Grupo_2658" data-name="Grupo 2658" transform="translate(0)">
          <path id="Trazado_2817" data-name="Trazado 2817" d="M346.015,228.9a.583.583,0,0,0,.413-.171l0,0a.584.584,0,1,0-.415.173Z" transform="translate(-318.521 -209.989)" fill="#1f4c38"/>
          <path id="Trazado_2818" data-name="Trazado 2818" d="M384.538,228.9a.582.582,0,0,0,.413-.171l0,0a.584.584,0,1,0-.415.173Z" transform="translate(-354.043 -209.989)" fill="#1f4c38"/>
          <path id="Trazado_2819" data-name="Trazado 2819" d="M346.447,263.6a.584.584,0,1,0,0,.828.583.583,0,0,0,0-.828Z" transform="translate(-318.54 -242.91)" fill="#1f4c38"/>
          <path id="Trazado_2820" data-name="Trazado 2820" d="M384.971,263.6a.584.584,0,1,0,0,.828.583.583,0,0,0,0-.828Z" transform="translate(-354.063 -242.91)" fill="#1f4c38"/>
          <path id="Trazado_2821" data-name="Trazado 2821" d="M198.822,232.189a4.453,4.453,0,1,0,4.453-4.453A4.458,4.458,0,0,0,198.822,232.189Zm4.453-3.285a3.285,3.285,0,1,1-3.285,3.285A3.288,3.288,0,0,1,203.275,228.9Z" transform="translate(-183.334 -209.995)" fill="#1f4c38"/>
          <path id="Trazado_2823" data-name="Trazado 2823" d="M221.577,374.685H216.5a.584.584,0,1,0,0,1.168h5.077a.584.584,0,0,0,0-1.168Z" transform="translate(-199.096 -345.497)" fill="#1f4c38"/>
          <path id="Trazado_2824" data-name="Trazado 2824" d="M34.044,5.841a19.942,19.942,0,0,0-28.2,28.2,19.942,19.942,0,1,0,28.2-28.2Zm-14.1-4.672a18.781,18.781,0,0,1,15.993,8.95l-2.347.872a16.342,16.342,0,0,0-12.2-7.3.584.584,0,1,0-.1,1.164,15.039,15.039,0,0,1,12.83,9.7H21.284a.584.584,0,0,0,0,1.169H34.5a15.383,15.383,0,0,1,.587,4.225,15.143,15.143,0,0,1-.355,3.265H32.7c-2.8.112-4.9,1-6.264,2.639a8.915,8.915,0,0,0-1.781,5.846v2.646a15.154,15.154,0,0,1-9.435,0V31.691a8.915,8.915,0,0,0-1.781-5.845c-1.361-1.64-3.469-2.528-6.264-2.64H5.148a15.143,15.143,0,0,1-.355-3.265A14.942,14.942,0,0,1,5.4,15.716h13.24a.584.584,0,1,0,0-1.169H5.8a15.231,15.231,0,0,1,12.883-9.7.584.584,0,1,0-.1-1.165A16.343,16.343,0,0,0,6.3,10.99L3.95,10.118a18.778,18.778,0,0,1,15.991-8.95ZM34.428,24.375a15.224,15.224,0,0,1-8.6,9.526V31.691c0-4.668,2.325-7.13,6.911-7.317ZM14.055,31.691V33.9a15.224,15.224,0,0,1-8.6-9.526h1.69C11.73,24.562,14.055,27.023,14.055,31.691ZM1.169,19.941a18.656,18.656,0,0,1,2.192-8.8l2.318.862a16.312,16.312,0,0,0,.006,15.866l-2.324.866a18.66,18.66,0,0,1-2.193-8.8ZM19.941,38.717A18.777,18.777,0,0,1,3.95,29.766L6.3,28.89a16.307,16.307,0,0,0,19.056,6.443.579.579,0,0,0,.151-.053,16.406,16.406,0,0,0,8.071-6.39l2.354.876A18.78,18.78,0,0,1,19.941,38.717ZM34.2,27.873A16.316,16.316,0,0,0,34.2,12.008l2.32-.862a18.74,18.74,0,0,1,0,17.593Z" transform="translate(0 0)" fill="#1f4c38"/>
          <path id="Trazado_2836" data-name="Trazado 2836" d="M346.447,263.6a.584.584,0,1,0,0,.828.583.583,0,0,0,0-.828Z" transform="translate(-336.34 -244.228)" fill="#1f4c38"/>
          <path id="Trazado_2837" data-name="Trazado 2837" d="M384.971,263.6a.584.584,0,1,0,0,.828.583.583,0,0,0,0-.828Z" transform="translate(-371.862 -244.228)" fill="#1f4c38"/>
        </g>
      </g>
    </g>
  </g>
  <g id="cogwheels" transform="translate(34.155 4.912) rotate(-9)">
    <path id="Trazado_2853" data-name="Trazado 2853" d="M10.483,4.208l-.551-.093c-.049-.137-.1-.271-.166-.4l.325-.454a.983.983,0,0,0-.107-1.273l-.662-.662A.985.985,0,0,0,8.05,1.217l-.456.325a4.52,4.52,0,0,0-.428-.176L7.075.825A.986.986,0,0,0,6.1,0H5.164a.986.986,0,0,0-.976.825l-.1.561c-.135.049-.269.106-.4.168l-.448-.322a.988.988,0,0,0-1.275.107L1.306,2A.986.986,0,0,0,1.2,3.273l.33.464c-.061.131-.115.265-.164.4l-.54.091A.986.986,0,0,0,0,5.206v.936a.986.986,0,0,0,.825.976l.561.1c.049.135.106.269.168.4l-.321.447A.983.983,0,0,0,1.34,9.332L2,9.995a.985.985,0,0,0,1.271.107l.463-.33q.183.085.378.155l.092.551a.986.986,0,0,0,.976.825H6.12a.986.986,0,0,0,.976-.825l.093-.551c.137-.049.271-.1.4-.166l.453.324a.988.988,0,0,0,1.275-.106l.662-.662a.987.987,0,0,0,.107-1.273l-.325-.456c.063-.133.119-.267.167-.4l.55-.092a.986.986,0,0,0,.825-.976V5.185a.976.976,0,0,0-.82-.978ZM5.652,7.849a2.2,2.2,0,1,1,2.2-2.2,2.2,2.2,0,0,1-2.2,2.2Zm0,0" fill="#fff" stroke="#1f4c38" stroke-width="0.5"/>
  </g>
  <g id="cogwheels-2" data-name="cogwheels" transform="translate(45.97 10.79)">
    <path id="Trazado_2853-2" data-name="Trazado 2853" d="M5.075,2.037l-.267-.045c-.024-.066-.051-.131-.08-.194l.157-.22A.476.476,0,0,0,4.833.961L4.512.641A.477.477,0,0,0,3.9.589L3.676.746A2.188,2.188,0,0,0,3.469.661L3.425.4A.477.477,0,0,0,2.953,0H2.5a.477.477,0,0,0-.472.4L1.981.67c-.065.024-.13.051-.193.081L1.571.6A.478.478,0,0,0,.954.647L.632.968a.477.477,0,0,0-.052.616l.16.224C.711,1.872.685,1.937.661,2L.4,2.047A.477.477,0,0,0,0,2.52v.453a.477.477,0,0,0,.4.472l.272.046c.024.066.051.13.081.193L.6,3.9a.476.476,0,0,0,.052.616l.321.321a.477.477,0,0,0,.615.052l.224-.16q.088.041.183.075l.044.267a.477.477,0,0,0,.472.4h.454a.477.477,0,0,0,.472-.4l.045-.267c.066-.024.131-.051.194-.08l.219.157A.478.478,0,0,0,4.51,4.83l.321-.321a.478.478,0,0,0,.052-.616l-.157-.221c.03-.065.057-.129.081-.194l.266-.044a.477.477,0,0,0,.4-.472V2.51a.473.473,0,0,0-.4-.473ZM2.736,3.8A1.064,1.064,0,1,1,3.8,2.735,1.065,1.065,0,0,1,2.736,3.8Zm0,0" fill="#fff" stroke="#1f4c38" stroke-width="0.4"/>
  </g>
</svg>
