<svg width="25" height="24" viewBox="0 0 25 24" fill="none" xmlns="http://www.w3.org/2000/svg">
<g id="user-circle">
<path id="Path 19672" d="M5.00421 18.9898C6.15264 18.1722 7.40325 17.5086 8.7241 17.0159C10.0413 16.5487 11.4305 16.3171 12.828 16.3319C14.2255 16.3176 15.6146 16.5491 16.9319 17.0159C18.2533 17.5073 19.5041 18.171 20.6518 18.9898C21.5194 18.0433 22.1903 16.9338 22.6257 15.7259C23.0925 14.5148 23.3247 13.2259 23.3097 11.928C23.3437 10.5448 23.0916 9.1694 22.5692 7.88813C22.0467 6.60687 21.2653 5.44734 20.2738 4.48223C19.3095 3.4896 18.1501 2.7074 16.8687 2.18491C15.5872 1.66241 14.2114 1.41093 12.828 1.44632C11.4447 1.41231 10.0694 1.66442 8.7881 2.18684C7.50684 2.70925 6.34731 3.49071 5.3822 4.48223C4.38956 5.44651 3.60737 6.60589 3.08487 7.88735C2.56237 9.16881 2.3109 10.5446 2.34628 11.928C2.33838 13.2253 2.57027 14.5129 3.03026 15.7259C3.46284 16.9352 4.13412 18.0451 5.00421 18.9898ZM12.75 12.762C12.2094 12.7808 11.6711 12.6815 11.1727 12.4712C10.6744 12.2609 10.2278 11.9445 9.86407 11.544C9.48881 11.1651 9.19431 10.7139 8.99838 10.2179C8.80244 9.72185 8.70913 9.19123 8.7241 8.65811C8.70533 8.11748 8.80457 7.57926 9.0149 7.08087C9.22524 6.58248 9.54163 6.1359 9.94206 5.77219C10.321 5.39694 10.7722 5.10244 11.2682 4.9065C11.7642 4.71057 12.2949 4.61726 12.828 4.63223C13.3686 4.61346 13.9068 4.71269 14.4052 4.92303C14.9036 5.13337 15.3502 5.44976 15.7139 5.85019C16.0892 6.22917 16.3837 6.68031 16.5796 7.17634C16.7755 7.67238 16.8688 8.20299 16.8539 8.73611C16.8726 9.27674 16.7734 9.81496 16.5631 10.3134C16.3527 10.8117 16.0363 11.2583 15.6359 11.622C15.2569 11.9973 14.8058 12.2918 14.3097 12.4877C13.8137 12.6837 13.2831 12.777 12.75 12.762ZM12.75 23.9997C11.135 24.0115 9.53391 23.7015 8.04012 23.0877C5.17981 21.8512 2.89885 19.5702 1.6623 16.7099C1.04849 15.2161 0.738458 13.615 0.750328 12C0.738458 10.3851 1.04849 8.78394 1.6623 7.29015C2.89885 4.42984 5.17981 2.14888 8.04012 0.912334C9.53375 0.29796 11.135 -0.0120884 12.75 0.000360541C14.365 -0.0120884 15.9662 0.29796 17.4599 0.912334C20.3202 2.14888 22.6011 4.42984 23.8377 7.29015C24.452 8.78378 24.7621 10.385 24.7496 12C24.7621 13.615 24.452 15.2163 23.8377 16.7099C22.6011 19.5702 20.3202 21.8512 17.4599 23.0877C15.9662 23.7021 14.365 24.0121 12.75 23.9997ZM12.75 22.4037C13.9115 22.4144 15.0669 22.234 16.1699 21.8697C17.3119 21.4966 18.3697 20.9034 19.2838 20.1238C18.3593 19.4216 17.3363 18.8596 16.2479 18.4558C15.1495 18.0653 13.9937 17.8605 12.828 17.8498C11.6623 17.861 10.5066 18.0658 9.40808 18.4558C8.29914 18.8134 7.26871 19.3796 6.37217 20.1238C7.29184 20.8953 8.34807 21.4876 9.48608 21.8697C10.5331 22.2424 11.6388 22.4233 12.75 22.4037ZM12.75 11.238C13.0725 11.2507 13.3941 11.1965 13.6947 11.0789C13.9952 10.9612 14.2682 10.7827 14.4964 10.5545C14.7246 10.3263 14.9031 10.0533 15.0208 9.75277C15.1384 9.45223 15.1926 9.1306 15.1799 8.80811C15.1871 8.48446 15.1296 8.16264 15.0107 7.86153C14.8918 7.56042 14.714 7.2861 14.4876 7.05466C14.2613 6.82322 13.991 6.63933 13.6926 6.51379C13.3942 6.38825 13.0737 6.32358 12.75 6.32358C12.4263 6.32358 12.1058 6.38825 11.8074 6.51379C11.509 6.63933 11.2387 6.82322 11.0124 7.05466C10.786 7.2861 10.6082 7.56042 10.4893 7.86153C10.3704 8.16264 10.3129 8.48446 10.3201 8.80811C10.311 9.13014 10.367 9.45069 10.4845 9.75065C10.602 10.0506 10.7787 10.3238 11.004 10.5541C11.4889 10.9779 12.1062 11.2197 12.75 11.238Z" fill="#2C421F"/>
</g>
</svg>
