<svg width="22" height="24" viewBox="0 0 22 24" fill="none" xmlns="http://www.w3.org/2000/svg">
<path d="M0.827604 20.328C0.576012 20.328 0.410492 20.25 0.251592 20.106C0.0860709 19.956 0 19.728 0 19.578C0 19.356 0.07945 19.2 0.251592 19.05C0.417112 18.9 0.582633 18.828 0.827604 18.828H2.81385V9.306C2.81385 7.656 3.38986 6.156 4.55513 4.806C5.71378 3.528 7.20346 2.628 9.02419 2.328V1.428C9.02419 0.978 9.18971 0.678 9.52075 0.378C9.85179 0.078 10.2623 0 10.6794 0C11.0965 0 11.507 0.15 11.838 0.378C12.1691 0.678 12.3346 0.978 12.3346 1.428V2.328C14.1553 2.706 15.645 3.528 16.8037 4.878C17.9623 6.228 18.5449 7.728 18.5449 9.378V18.828H20.4451C20.6901 18.828 20.8622 18.906 21.0278 19.05C21.1933 19.2 21.2727 19.428 21.2727 19.578C21.2727 19.8 21.1933 19.956 21.0278 20.106C20.8622 20.256 20.6967 20.328 20.4451 20.328C20.5312 20.328 0.834224 20.328 0.834224 20.328H0.827604ZM10.6728 24C10.0107 24 9.42806 23.778 8.9315 23.322C8.43494 22.872 8.18997 22.35 8.18997 21.75H13.1556C13.1556 22.35 12.9106 22.95 12.4141 23.322C11.9969 23.85 11.3349 24 10.6728 24ZM4.54851 18.75H16.797V9.3C16.797 7.722 16.2144 6.45 14.9763 5.322C13.8177 4.272 12.4074 3.744 10.6728 3.744C8.93812 3.744 7.52788 4.266 6.28317 5.394C5.12452 6.444 4.46244 7.794 4.46244 9.366C4.54851 9.294 4.54851 18.744 4.54851 18.744V18.75Z" fill="#2C421F"/>
</svg>
