<svg width="21" height="20" viewBox="0 0 21 20" fill="none" xmlns="http://www.w3.org/2000/svg">
<g id="Vector">
<path id="Vector_2" d="M11.25 10.75L9.75 9.25L6.875 13.625L11.25 10.75ZM10.5 0C5 0 0.5 4.5 0.5 10C0.5 15.5 5 20 10.5 20C16 20 20.5 15.5 20.5 10C20.5 4.5 16 0 10.5 0ZM16.815 7.065L17.44 6.815C17.625 6.75 17.815 6.815 17.88 7.005C17.945 7.195 17.88 7.38 17.695 7.44L17.07 7.69C16.885 7.755 16.695 7.69 16.63 7.505C16.565 7.315 16.63 7.13 16.815 7.065ZM12.875 3.44L13.125 2.815C13.19 2.625 13.375 2.565 13.565 2.625C13.75 2.69 13.815 2.875 13.75 3.06L13.5 3.685C13.435 3.875 13.25 3.935 13.06 3.875C12.875 3.815 12.81 3.625 12.875 3.44ZM10.5 2.13C10.685 2.13 10.81 2.255 10.81 2.44V3.065C10.81 3.255 10.685 3.375 10.5 3.375C10.315 3.375 10.19 3.25 10.19 3.065V2.44C10.19 2.255 10.315 2.13 10.5 2.13ZM7.5 2.695C7.69 2.63 7.875 2.695 7.935 2.885L8.185 3.51C8.25 3.7 8.185 3.885 7.995 3.945C7.805 4.01 7.62 3.945 7.56 3.755L7.31 3.13C7.25 2.94 7.31 2.755 7.5 2.695ZM4.94 4.445C5.065 4.32 5.25 4.32 5.375 4.445L5.81 4.88C5.935 5.005 5.935 5.19 5.81 5.315C5.685 5.44 5.5 5.44 5.375 5.315L4.94 4.88C4.815 4.755 4.815 4.57 4.94 4.445ZM2.625 10.005C2.625 9.82 2.75 9.695 2.935 9.695H3.56C3.75 9.695 3.87 9.82 3.87 10.005C3.87 10.19 3.745 10.315 3.56 10.315H2.935C2.75 10.315 2.625 10.19 2.625 10.005ZM4.185 12.945L3.56 13.195C3.37 13.26 3.185 13.195 3.125 13.01C3.06 12.825 3.125 12.635 3.315 12.57L3.94 12.32C4.13 12.255 4.315 12.32 4.375 12.505C4.44 12.69 4.375 12.88 4.185 12.945ZM4.375 7.445C4.31 7.63 4.125 7.695 3.94 7.63L3.315 7.38C3.125 7.315 3.065 7.13 3.125 6.945C3.19 6.755 3.375 6.695 3.56 6.755L4.185 7.005C4.375 7.13 4.435 7.32 4.375 7.445ZM8.125 16.57L7.875 17.195C7.81 17.38 7.625 17.445 7.44 17.38C7.255 17.315 7.19 17.13 7.25 16.94L7.5 16.315C7.565 16.13 7.75 16.065 7.935 16.13C8.12 16.195 8.185 16.38 8.125 16.57C8.125 16.5267 8.125 16.5267 8.125 16.57ZM10.81 17.57C10.81 17.755 10.685 17.88 10.5 17.88C10.315 17.88 10.19 17.755 10.19 17.57V16.945C10.19 16.76 10.315 16.635 10.5 16.635C10.685 16.635 10.81 16.76 10.81 16.945V17.57ZM13.495 17.32C13.31 17.385 13.12 17.32 13.055 17.135L12.805 16.51C12.74 16.325 12.805 16.135 12.99 16.07C13.175 16.005 13.365 16.07 13.43 16.255L13.68 16.88C13.745 17.065 13.68 17.255 13.495 17.32ZM16.06 15.57C15.935 15.695 15.75 15.695 15.62 15.57L15.18 15.13C15.055 15.005 15.055 14.82 15.18 14.69C15.305 14.565 15.49 14.565 15.62 14.69L16.06 15.13C16.185 15.255 16.185 15.445 16.06 15.57ZM11.75 11.26L4.685 15.885L9.25 8.76L16.31 4.135L11.75 11.26ZM17.815 13.01C17.75 13.195 17.565 13.26 17.375 13.195L16.75 12.945C16.565 12.88 16.5 12.695 16.565 12.505C16.63 12.32 16.815 12.255 17.005 12.32L17.63 12.57C17.815 12.695 17.88 12.885 17.815 13.01ZM18.065 10.325H17.44C17.255 10.325 17.13 10.2 17.13 10.015C17.13 9.83 17.255 9.705 17.44 9.705H18.065C18.25 9.705 18.375 9.83 18.375 10.015C18.375 10.2 18.25 10.325 18.065 10.325Z" fill="#2C421F"/>
</g>
</svg>
