<svg width="21" height="20" viewBox="0 0 21 20" fill="none" xmlns="http://www.w3.org/2000/svg">
<path d="M20.48 9.41383C20.48 9.3487 20.47 9.28858 20.47 9.22345L20.455 9.02806C20.405 8.46192 20.305 7.90581 20.16 7.35972C20.16 7.35972 20.16 7.35638 20.16 7.3497L20.115 7.18938C20.115 7.18938 20.115 7.16934 20.105 7.16433C20.09 7.11423 20.075 7.06413 20.06 7.01403C20.06 7.00401 20.06 6.98898 20.05 6.97896C20.035 6.92886 20.02 6.88377 20.005 6.83868C20.005 6.82365 19.995 6.81363 19.99 6.7986C19.975 6.7485 19.96 6.70842 19.94 6.65832L19.925 6.61323C19.91 6.56814 19.89 6.52305 19.875 6.47796C19.875 6.46293 19.865 6.45291 19.86 6.43788C19.84 6.39279 19.825 6.3477 19.805 6.30261C19.805 6.29259 19.795 6.27756 19.79 6.26754C19.77 6.21743 19.75 6.17736 19.73 6.12725C19.73 6.12725 19.73 6.11723 19.73 6.11222C19.665 5.95691 19.6 5.8016 19.53 5.6513L19.515 5.62124C19.495 5.58116 19.48 5.54609 19.46 5.51603C19.45 5.49599 19.44 5.47094 19.43 5.4509C19.415 5.41583 19.395 5.38577 19.38 5.35571C19.365 5.33066 19.355 5.30561 19.34 5.28056C19.325 5.25551 19.305 5.22044 19.29 5.19038C19.275 5.16533 19.26 5.13527 19.245 5.11523C19.23 5.09519 19.21 5.05511 19.195 5.03006C19.18 5 19.165 4.97495 19.145 4.9499C19.13 4.91984 19.11 4.89479 19.095 4.86974C19.08 4.84469 19.06 4.81463 19.045 4.78958C19.03 4.76453 19.01 4.73447 18.995 4.71443C18.98 4.69439 18.96 4.65431 18.94 4.62926C18.925 4.60421 18.91 4.57916 18.89 4.55411L18.83 4.46894C18.815 4.44389 18.8 4.41884 18.78 4.39379C18.76 4.36373 18.735 4.32866 18.715 4.30361C18.7 4.28357 18.685 4.25852 18.67 4.23848L18.595 4.13828C18.595 4.13828 18.57 4.10321 18.555 4.08317C18.515 4.02806 18.48 3.98297 18.445 3.93287C18.155 3.5521 17.84 3.19138 17.495 2.85571C17.265 2.61523 17.0199 2.38978 16.7549 2.17936C16.5949 2.03908 16.4249 1.90882 16.2499 1.78357C15.9399 1.55311 15.6049 1.3477 15.2599 1.17234C15.1649 1.11723 15.0649 1.07214 14.9699 1.02204C14.2599 0.671343 13.5099 0.405812 12.7349 0.230461C12.6599 0.215431 12.5799 0.195391 12.5099 0.180361C12.4699 0.180361 12.4349 0.165331 12.3999 0.160321C11.8949 0.0651303 11.3799 0.01002 10.8699 0H10.4398C9.82484 0.00501002 9.20983 0.0751503 8.60482 0.200401C7.2498 0.485972 6.05478 1.05711 5.25977 1.77856C5.21477 1.81864 5.18476 1.8487 5.16476 1.86373L5.14476 1.88377H5.14976C5.14976 1.88377 5.15476 1.88377 5.15976 1.88377C5.74977 1.52806 6.56979 1.23748 7.1548 1.09218L7.3898 1.03206C7.3898 1.03206 7.4248 1.03206 7.4398 1.02204C7.5098 1.00701 7.5748 0.991984 7.6498 0.976954C7.6598 0.976954 7.6748 0.976954 7.6848 0.976954C10.2748 0.506012 13.0299 1.28257 14.9549 3.11623C15.3699 3.51202 15.7349 3.95792 16.0399 4.43888C17.2649 6.42786 17.1499 8.92785 16.1949 10.4008C14.8049 12.5401 11.7049 13.2816 9.78484 11.4028C9.13983 10.7766 8.76982 9.91984 8.75482 9.01804C8.74982 8.58717 8.83482 8.16132 9.00482 7.76553C9.07483 7.61022 9.52983 6.72846 9.73983 6.77355C9.21483 6.66333 8.22481 6.87876 7.5348 7.91082C6.91479 8.83768 6.94979 10.2605 7.3348 11.2776C7.08979 10.7766 6.92479 10.2405 6.84479 9.69439C6.34978 6.35771 8.58982 3.51202 10.6498 2.80561C9.53983 1.83367 6.75979 1.90381 4.69476 3.42685C3.48974 4.31363 2.62973 5.57615 2.17472 7.07916C2.24472 6.23747 2.55972 4.97495 3.21473 3.68737C2.52472 4.0481 1.63971 5.18036 1.2047 6.22746C0.589694 7.74048 0.374691 9.5491 0.569694 11.2725C0.584694 11.4028 0.599695 11.5281 0.614695 11.6583C1.41971 16.3928 5.53477 20 10.4848 20C16.0149 20 20.5 15.506 20.5 9.95992C20.5 9.77956 20.49 9.59419 20.48 9.41383Z" fill="#2C421F"/>
</svg>
