<svg width="25" height="24" viewBox="0 0 25 24" fill="none" xmlns="http://www.w3.org/2000/svg">
<path d="M22.8366 0H2.28659C1.30859 0 0.558594 0.75 0.558594 1.728V22.278C0.558594 23.25 1.30859 24 2.28659 24H22.8366C23.8086 24 24.5586 23.25 24.5586 22.278V1.728C24.5586 0.75 23.8086 0 22.8366 0ZM7.83059 20.55H4.23059V9.15H7.83059V20.55ZM6.03059 7.578C4.90259 7.578 3.93059 6.678 3.93059 5.478C3.93059 4.278 4.83059 3.378 6.03059 3.378C7.15859 3.378 8.13059 4.278 8.13059 5.478C8.13059 6.606 7.15259 7.578 6.03059 7.578ZM21.1026 20.55H17.5806V15C17.5806 13.65 17.5806 12 15.7086 12C13.8366 12 13.5366 13.422 13.5366 14.922V20.622H10.0146V9.15H13.4646V10.728H13.5426C13.9926 9.828 15.1926 8.856 16.9146 8.856C20.5146 8.856 21.1926 11.256 21.1926 14.334V20.556H21.1146L21.1026 20.55Z" fill="white"/>
</svg>
