<svg width="25" height="24" viewBox="0 0 25 24" fill="none" xmlns="http://www.w3.org/2000/svg">
<g id="Vector">
<path id="Vector_2" d="M12.9222 5.83939C9.54987 5.83939 6.77762 8.61591 6.77762 11.9981C6.77762 15.3803 9.54987 18.1568 12.9222 18.1568C16.2945 18.1568 19.0667 15.3803 19.0667 11.9981C19.0667 8.61591 16.2945 5.83939 12.9222 5.83939ZM12.9222 15.974C10.75 15.974 8.94982 14.1749 8.94982 11.9921C8.94982 9.80927 10.75 8.01023 12.9222 8.01023C15.0944 8.01023 16.8945 9.80927 16.8945 11.9921C16.8945 14.1749 15.0944 15.974 12.9222 15.974ZM20.7169 5.61151C20.7169 6.43907 20.0448 7.03875 19.2948 7.03875C18.4727 7.03875 17.8726 6.36111 17.8726 5.61151C17.8726 4.86191 18.5447 4.18427 19.2948 4.18427C20.0448 4.10631 20.7169 4.78395 20.7169 5.61151ZM24.7673 7.03875C24.6953 5.08379 24.2452 3.43467 22.8171 2.00743C21.395 0.586188 19.7448 0.136427 17.7946 0.0584688C15.8445 -0.0194896 9.92191 -0.0194896 7.97173 0.0584688C6.02155 0.136427 4.3714 0.586187 2.94927 2.01343C1.52714 3.44067 1.0771 5.08979 1.00509 7.04475C0.855075 8.9997 0.855075 15.0025 1.00509 16.9575C1.0771 18.9124 1.52714 20.5615 2.95527 21.9888C4.3774 23.416 6.02755 23.8658 7.97773 23.9437C9.92791 24.0217 15.9225 24.0217 17.8726 23.9437C19.8228 23.8658 21.473 23.416 22.8951 21.9888C24.3172 20.5615 24.7673 18.9124 24.8453 16.9575C24.9173 15.0025 24.9173 8.9997 24.7733 7.04475L24.7673 7.03875ZM22.217 19.0503C21.767 20.0998 21.0169 20.9273 19.9668 21.3051C18.3947 21.9048 14.6443 21.7549 12.9222 21.7549C11.2 21.7549 7.44968 21.9048 5.87754 21.3051C4.82744 20.8554 4.00536 20.1058 3.62733 19.0503C3.02727 17.4732 3.17729 13.7192 3.17729 11.9921C3.17729 10.265 3.02727 6.51103 3.62733 4.93387C4.07737 3.88443 4.82744 3.05687 5.87754 2.67907C7.44968 2.07939 11.2 2.22931 12.9222 2.22931C14.6443 2.22931 18.3947 2.07939 19.9668 2.67907C21.0169 3.12883 21.839 3.87843 22.217 4.93387C22.8171 6.51103 22.6671 10.265 22.6671 11.9921C22.6671 13.7192 22.8891 17.4732 22.217 19.0503Z" fill="white"/>
</g>
</svg>
