<svg width="20" height="20" viewBox="0 0 20 20" fill="none" xmlns="http://www.w3.org/2000/svg">
<g id="Vector">
<path id="Vector_2" d="M0.5 8.87115L0.515347 8.85116C0.515347 8.85116 0.515347 8.86615 0.515347 8.87115H0.505116H0.5ZM19.5 9.49588C19.5 7.72165 19.1777 6.09236 18.3131 4.56303C16.6198 1.60932 13.6271 1.76043e-05 10.1177 1.76043e-05C4.34707 -0.00997804 1.11389 4.23817 0.515347 8.85615C2.26494 6.38723 5.34464 3.96329 9.60608 3.81835C9.60608 3.81835 14.1284 3.81835 13.7089 8.05151H6.45477C6.71567 6.54216 7.22213 5.67254 7.87184 4.87289C4.77679 6.27728 2.84303 8.7462 2.88907 12.4646C2.92488 15.3433 4.95584 18.302 7.87184 19.3966C11.3096 20.681 15.8218 19.6864 17.776 18.5369V14.3288C14.4405 16.6078 6.60312 16.7827 6.54173 11.605H19.5V9.50587V9.49588Z" fill="#2C421F"/>
</g>
</svg>
