<svg width="21" height="20" viewBox="0 0 21 20" fill="none" xmlns="http://www.w3.org/2000/svg">
<path d="M13.1935 1.31C6.31662 1.31 3.0057 10.31 7.19187 15.625C8.69229 17.435 10.7529 18.69 13.1335 18.69C14.5689 18.69 15.9443 18.25 17.1346 17.44C15.3842 19.065 13.0735 20 10.5078 20H10.0077C4.69117 19.75 0.5 15.375 0.5 10C0.5 4.625 5.00626 0 10.5078 0H10.5728C13.1385 0 15.4492 1 17.1997 2.565C16.0093 1.75 14.6339 1.315 13.1985 1.315L13.1935 1.31ZM17.2547 17.37C15.6292 18.37 13.5686 18.31 11.9432 17.12C14.1938 16.31 15.8793 13.435 15.8793 9.995C15.8793 6.555 14.1888 3.68 11.9432 2.87C13.6337 1.68 15.6292 1.62 17.3197 2.68C21.5709 6.68 21.5709 13.365 17.2547 17.365V17.37Z" fill="#2C421F"/>
</svg>
