<svg width="24" height="25" viewBox="0 0 24 25" fill="none" xmlns="http://www.w3.org/2000/svg">
<g id="angle-right">
<path id="Vector" d="M14.9341 12.487L5.62812 3.18102C5.31012 2.86302 5.16612 2.49702 5.18412 2.07702C5.20212 1.65702 5.37012 1.29102 5.68212 0.973023C5.99412 0.655023 6.37212 0.499023 6.81012 0.499023C7.24812 0.499023 7.62611 0.655023 7.93811 0.973023L18.3481 11.383C18.5221 11.557 18.6481 11.731 18.7141 11.911C18.7801 12.091 18.8221 12.277 18.8221 12.487C18.8221 12.697 18.7861 12.889 18.7141 13.063C18.6421 13.237 18.5221 13.411 18.3481 13.591L7.88412 24.055C7.56612 24.373 7.20011 24.517 6.78012 24.499C6.36012 24.481 5.99411 24.313 5.67611 24.001C5.35811 23.689 5.20211 23.311 5.20211 22.873C5.20211 22.435 5.35811 22.057 5.67611 21.745L14.9281 12.493L14.9341 12.487Z" fill="black"/>
</g>
</svg>
