<svg width="16" height="16" viewBox="0 0 16 16" fill="none" xmlns="http://www.w3.org/2000/svg">
<g id="Arrow-left">
<path id="Vector" d="M2.61935 8.7755L6.35841 12.5155C6.51037 12.6675 6.58236 12.8475 6.57436 13.0515C6.56636 13.2555 6.48638 13.4315 6.33442 13.5875C6.18245 13.7435 6.0025 13.8155 5.79855 13.8155C5.5946 13.8155 5.41865 13.7395 5.26268 13.5875L0.227943 8.5475C0.075981 8.3955 0 8.2155 0 8.0115C0 7.8075 0.075981 7.6315 0.227943 7.4755L5.29068 2.4155C5.44264 2.2635 5.62259 2.1875 5.82654 2.1875C6.03049 2.1875 6.20645 2.2635 6.36241 2.4155C6.51837 2.5675 6.59035 2.7515 6.59035 2.9635C6.59035 3.1755 6.51437 3.3595 6.36241 3.5115L2.62334 7.2515H15.2362C15.4561 7.2515 15.6401 7.3235 15.7841 7.4675C15.928 7.6115 16 7.7955 16 8.0155C16 8.2355 15.928 8.4195 15.7841 8.5635C15.6401 8.7075 15.4561 8.7795 15.2362 8.7795H2.61935V8.7755Z" fill="white"/>
</g>
</svg>
