<svg width="22" height="33" viewBox="0 0 22 33" fill="none" xmlns="http://www.w3.org/2000/svg">
<g id="Vector">
<path id="Vector_2" d="M5.77958 3.36917H8.94758V0.201172H5.77958V3.36917ZM12.1156 3.36917V0.201172H15.2836V3.36917H12.1156ZM5.77958 16.1452V12.9772H8.94758V16.1452H5.77958ZM18.5556 9.80917V6.64117H21.7236V9.80917H18.5556ZM18.5556 16.1452V12.9772H21.7236V16.1452H18.5556ZM12.1156 16.1452V12.9772H15.2836V16.1452H12.1156ZM18.5636 3.36917V0.201172H21.7316V3.36917H18.5636ZM8.95558 6.64117V3.47317H12.1236V6.64117H8.95558ZM1.38758 32.2012C1.08358 32.2012 0.771578 32.0972 0.571578 31.8972C0.371578 31.6972 0.267578 31.3852 0.267578 31.0812V1.42517C0.267578 1.12117 0.371578 0.809172 0.571578 0.609172C0.771578 0.409172 1.08358 0.305172 1.38758 0.305172C1.69158 0.305172 2.00358 0.409172 2.20358 0.609172C2.40358 0.809172 2.50758 1.12117 2.50758 1.42517V3.47317H5.67558V6.64117H2.50758V9.80917H5.67558V12.9772H2.50758V30.9692C2.50758 31.2732 2.40358 31.5852 2.20358 31.7852C2.00358 31.9852 1.79558 32.1932 1.38758 32.1932V32.2012ZM15.2916 12.9772V9.80917H18.4596V12.9772H15.2916ZM8.95558 12.9772V9.80917H12.1236V12.9772H8.95558ZM5.78758 9.80917V6.64117H8.95558V9.80917H5.78758ZM12.1236 9.80917V6.64117H15.2916V9.80917H12.1236ZM15.2916 6.64117V3.47317H18.4596V6.64117H15.2916Z" fill="#636466"/>
</g>
</svg>
