<svg width="29" height="32" viewBox="0 0 29 32" fill="none" xmlns="http://www.w3.org/2000/svg">
<g id="Vector">
<path id="Vector_2" d="M1.9541 32C1.60226 32 1.30639 31.88 1.0745 31.6479C0.842602 31.4159 0.722656 31.1198 0.722656 30.7677V1.53638C0.722656 1.09627 0.866591 0.736184 1.16246 0.44011C1.45832 0.144036 1.82616 0 2.25796 0H14.9962C15.3481 0 15.6679 0.112028 15.9638 0.336084C16.2516 0.56014 16.4356 0.864216 16.5075 1.23231L17.1153 4.08102H26.7429C27.1827 4.08102 27.5425 4.22506 27.8384 4.52113C28.1343 4.8172 28.2782 5.17729 28.2782 5.6094V19.5489C28.2782 19.973 28.1343 20.3331 27.8384 20.6372C27.5425 20.9332 27.1747 21.0853 26.7429 21.0853H18.1228C17.763 21.0853 17.4351 20.9732 17.1472 20.7572C16.8594 20.5411 16.6834 20.2451 16.6115 19.869L15.9958 17.0203H3.19354V30.7597C3.19354 31.1118 3.07359 31.4079 2.8337 31.6399C2.59381 31.88 2.29795 31.992 1.9461 31.992L1.9541 32ZM18.9544 18.6127H25.8073V6.55364H15.0122L14.1486 2.46462H3.19354V14.5396H18.0908L18.9544 18.6047V18.6127Z" fill="#636466"/>
</g>
</svg>
