<svg width="21" height="25" viewBox="0 0 21 25" fill="none" xmlns="http://www.w3.org/2000/svg">
<g id="Vector">
<path id="Vector_2" d="M1.08341 24.5C0.819345 24.5 0.597289 24.41 0.423246 24.2359C0.249202 24.0619 0.15918 23.8398 0.15918 23.5758V1.65229C0.15918 1.32221 0.267207 1.05214 0.489262 0.830083C0.711318 0.608027 0.987387 0.5 1.31147 0.5H10.8719C11.1359 0.5 11.376 0.584021 11.598 0.752063C11.8141 0.920105 11.9521 1.14816 12.0061 1.42423L12.4623 3.56076H19.6881C20.0181 3.56076 20.2882 3.66879 20.5103 3.89085C20.7323 4.1129 20.8403 4.38297 20.8403 4.70705V15.1617C20.8403 15.4797 20.7323 15.7498 20.5103 15.9779C20.2882 16.1999 20.0121 16.314 19.6881 16.314H13.2184C12.9484 16.314 12.7023 16.2299 12.4863 16.0679C12.2702 15.9059 12.1382 15.6838 12.0842 15.4017L11.622 13.2652H2.01364V23.5698C2.01364 23.8338 1.92362 24.0559 1.74358 24.2299C1.56353 24.41 1.34148 24.494 1.07741 24.494L1.08341 24.5ZM13.8426 14.4595H18.9859V5.41523H10.8839L10.2357 2.34846H2.01364V11.4047H13.1944L13.8426 14.4535V14.4595Z" fill="white"/>
</g>
</svg>
