<svg width="17" height="25" viewBox="0 0 17 25" fill="none" xmlns="http://www.w3.org/2000/svg">
<g id="Vector">
<path id="Vector_2" d="M4.58517 2.876H6.96117V0.5H4.58517V2.876ZM9.33717 2.876V0.5H11.7132V2.876H9.33717ZM4.58517 12.458V10.082H6.96117V12.458H4.58517ZM14.1672 7.706V5.33H16.5432V7.706H14.1672ZM14.1672 12.458V10.082H16.5432V12.458H14.1672ZM9.33717 12.458V10.082H11.7132V12.458H9.33717ZM14.1732 2.876V0.5H16.5492V2.876H14.1732ZM6.96717 5.33V2.954H9.34317V5.33H6.96717ZM1.29117 24.5C1.06317 24.5 0.829172 24.422 0.679172 24.272C0.529172 24.122 0.451172 23.888 0.451172 23.66V1.418C0.451172 1.19 0.529172 0.956 0.679172 0.806C0.829172 0.656 1.06317 0.578 1.29117 0.578C1.51917 0.578 1.75317 0.656 1.90317 0.806C2.05317 0.956 2.13117 1.19 2.13117 1.418V2.954H4.50717V5.33H2.13117V7.706H4.50717V10.082H2.13117V23.576C2.13117 23.804 2.05317 24.038 1.90317 24.188C1.75317 24.338 1.59717 24.494 1.29117 24.494V24.5ZM11.7192 10.082V7.706H14.0952V10.082H11.7192ZM6.96717 10.082V7.706H9.34317V10.082H6.96717ZM4.59117 7.706V5.33H6.96717V7.706H4.59117ZM9.34317 7.706V5.33H11.7192V7.706H9.34317ZM11.7192 5.33V2.954H14.0952V5.33H11.7192Z" fill="#BCBEC1"/>
</g>
</svg>
