<svg width="38" height="39" viewBox="0 0 38 39" fill="Black" xmlns="http://www.w3.org/2000/svg">
<g id="calendar">
<path id="Vector" d="M4.75039 38.5C3.99039 38.5 3.32539 38.215 2.75539 37.645C2.18539 37.075 1.90039 36.41 1.90039 35.65V6.2C1.90039 5.44 2.18539 4.775 2.75539 4.205C3.32539 3.635 3.99039 3.35 4.75039 3.35H7.83789V2.02C7.83789 1.5925 7.98039 1.2315 8.27489 0.937C8.56939 0.6425 8.93039 0.5 9.35789 0.5C9.78539 0.5 10.1749 0.6425 10.4789 0.937C10.7829 1.2315 10.9254 1.5925 10.9254 2.02V3.35H27.0754V2.02C27.0754 1.5925 27.2179 1.2315 27.5124 0.937C27.8069 0.6425 28.1679 0.5 28.5954 0.5C29.0229 0.5 29.4124 0.6425 29.7164 0.937C30.0204 1.2315 30.1629 1.5925 30.1629 2.02V3.35H33.2504C34.0104 3.35 34.6754 3.635 35.2454 4.205C35.8154 4.775 36.1004 5.44 36.1004 6.2V35.65C36.1004 36.41 35.8154 37.075 35.2454 37.645C34.6754 38.215 34.0104 38.5 33.2504 38.5H4.75039ZM4.75039 35.65H33.2504V15.225H4.75039V35.65ZM4.75039 12.375H33.2504V6.2H4.75039V12.375ZM19.0004 23.3C18.4589 23.3 18.0124 23.1195 17.6419 22.749C17.2714 22.3785 17.0909 21.932 17.0909 21.3905C17.0909 20.849 17.2714 20.4025 17.6419 20.032C18.0124 19.6615 18.4589 19.481 19.0004 19.481C19.5419 19.481 19.9884 19.6615 20.3589 20.032C20.7199 20.393 20.9099 20.849 20.9099 21.3905C20.9099 21.932 20.7294 22.3785 20.3589 22.749C19.9979 23.11 19.5419 23.3 19.0004 23.3ZM11.4004 23.3C10.8589 23.3 10.4124 23.1195 10.0419 22.749C9.67139 22.3785 9.49089 21.932 9.49089 21.3905C9.49089 20.849 9.67139 20.4025 10.0419 20.032C10.4124 19.6615 10.8589 19.481 11.4004 19.481C11.9419 19.481 12.3884 19.6615 12.7589 20.032C13.1294 20.4025 13.3099 20.849 13.3099 21.3905C13.3099 21.932 13.1294 22.3785 12.7589 22.749C12.3884 23.1195 11.9419 23.3 11.4004 23.3ZM26.6004 23.3C26.0589 23.3 25.6124 23.1195 25.2419 22.749C24.8714 22.3785 24.6909 21.932 24.6909 21.3905C24.6909 20.849 24.8714 20.4025 25.2419 20.032C25.6124 19.6615 26.0589 19.481 26.6004 19.481C27.1419 19.481 27.5884 19.6615 27.9589 20.032C28.3294 20.4025 28.5099 20.849 28.5099 21.3905C28.5099 21.932 28.3294 22.3785 27.9589 22.749C27.5884 23.1195 27.1419 23.3 26.6004 23.3ZM19.0004 30.9C18.4589 30.9 18.0124 30.7195 17.6419 30.349C17.2809 29.988 17.0909 29.532 17.0909 28.9905C17.0909 28.449 17.2714 28.0025 17.6419 27.632C18.0124 27.2615 18.4589 27.081 19.0004 27.081C19.5419 27.081 19.9884 27.2615 20.3589 27.632C20.7199 27.993 20.9099 28.449 20.9099 28.9905C20.9099 29.532 20.7294 29.9785 20.3589 30.349C19.9979 30.71 19.5419 30.9 19.0004 30.9ZM11.4004 30.9C10.8589 30.9 10.4124 30.7195 10.0419 30.349C9.68089 29.988 9.49089 29.532 9.49089 28.9905C9.49089 28.449 9.67139 28.0025 10.0419 27.632C10.4124 27.2615 10.8589 27.081 11.4004 27.081C11.9419 27.081 12.3884 27.2615 12.7589 27.632C13.1294 28.0025 13.3099 28.449 13.3099 28.9905C13.3099 29.532 13.1294 29.9785 12.7589 30.349C12.3979 30.71 11.9419 30.9 11.4004 30.9ZM26.6004 30.9C26.0589 30.9 25.6124 30.7195 25.2419 30.349C24.8809 29.988 24.6909 29.532 24.6909 28.9905C24.6909 28.449 24.8714 28.0025 25.2419 27.632C25.6124 27.2615 26.0589 27.081 26.6004 27.081C27.1419 27.081 27.5884 27.2615 27.9589 27.632C28.3294 28.0025 28.5099 28.449 28.5099 28.9905C28.5099 29.532 28.3294 29.9785 27.9589 30.349C27.5979 30.71 27.1419 30.9 26.6004 30.9Z" fill="black"/>
</g>
</svg>
