<svg width="30" height="33" viewBox="0 0 30 33" fill="none" xmlns="http://www.w3.org/2000/svg">
<g id="car_repair">
<path id="car_repair_2" d="M14.9938 32.667C14.6665 32.667 14.3942 32.557 14.1769 32.3369C13.9596 32.1166 13.8509 31.8438 13.8509 31.5186V27.1812H1.97694C1.65145 27.1812 1.37853 27.0706 1.15819 26.8493C0.938146 26.628 0.828125 26.3538 0.828125 26.0264C0.828125 25.6991 0.938146 25.427 1.15819 25.21C1.37853 24.9927 1.65145 24.884 1.97694 24.884H28.0226C28.3481 24.884 28.621 24.9947 28.8413 25.2159C29.0614 25.4372 29.1714 25.7115 29.1714 26.0388C29.1714 26.3661 29.0614 26.6383 28.8413 26.8553C28.621 27.0726 28.3481 27.1812 28.0226 27.1812H16.1486V31.5186C16.1486 31.8438 16.0378 32.1166 15.8162 32.3369C15.595 32.557 15.3208 32.667 14.9938 32.667ZM8.388 15.0165C8.77841 15.0165 9.10862 14.8796 9.37865 14.6059C9.64867 14.3323 9.78368 14.0023 9.78368 13.6162C9.78368 13.2301 9.64684 12.902 9.37316 12.632C9.09948 12.3619 8.76957 12.2269 8.38343 12.2269C7.98906 12.2269 7.65885 12.3638 7.39279 12.6374C7.12673 12.9111 6.9937 13.241 6.9937 13.6272C6.9937 14.0136 7.12856 14.3417 7.39828 14.6114C7.66799 14.8814 7.9979 15.0165 8.388 15.0165ZM21.622 15.0165C22.0124 15.0165 22.3426 14.8796 22.6127 14.6059C22.8824 14.3323 23.0172 14.0023 23.0172 13.6162C23.0172 13.2301 22.8806 12.902 22.6072 12.632C22.3335 12.3619 22.0036 12.2269 21.6174 12.2269C21.2231 12.2269 20.8929 12.3638 20.6268 12.6374C20.3607 12.9111 20.2277 13.241 20.2277 13.6272C20.2277 14.0136 20.3626 14.3417 20.6323 14.6114C20.902 14.8814 21.2319 15.0165 21.622 15.0165ZM4.25629 22.6097C3.92927 22.6097 3.65712 22.4997 3.43982 22.2796C3.22252 22.0596 3.11387 21.7868 3.11387 21.4613V10.6068C3.11387 10.4431 3.12301 10.2851 3.1413 10.1327C3.15989 9.98065 3.19738 9.83132 3.25376 9.68472L5.7242 2.5797C5.90919 2.0165 6.24946 1.55691 6.74501 1.20094C7.24056 0.844975 7.79904 0.666992 8.42046 0.666992H21.579C22.2005 0.666992 22.759 0.844975 23.2545 1.20094C23.7501 1.55691 24.0941 2.0165 24.2867 2.5797L26.7439 9.67924C26.8015 9.82949 26.8396 9.98065 26.8582 10.1327C26.8765 10.2851 26.8856 10.4431 26.8856 10.6068V21.4613C26.8856 21.7868 26.775 22.0596 26.5537 22.2796C26.3322 22.4997 26.0579 22.6097 25.7309 22.6097C25.4036 22.6097 25.1313 22.4997 24.914 22.2796C24.6967 22.0596 24.588 21.7868 24.588 21.4613V18.7793H5.41151V21.4613C5.41151 21.7868 5.30072 22.0596 5.07916 22.2796C4.8579 22.4997 4.58361 22.6097 4.25629 22.6097ZM6.0794 8.47602H23.9389L22.1747 3.33354C22.1394 3.21621 22.0749 3.12539 21.9813 3.06108C21.8875 2.99647 21.7761 2.96417 21.6472 2.96417H8.35235C8.22343 2.96417 8.11204 2.99647 8.01817 3.06108C7.9243 3.12539 7.85984 3.21621 7.8248 3.33354L6.0794 8.47602ZM5.41151 16.4816H24.588V10.7732H5.41151V16.4816Z" fill="#636466"/>
</g>
</svg>
