<svg width="23" height="25" viewBox="0 0 23 25" fill="none" xmlns="http://www.w3.org/2000/svg">
<g id="car_repair">
<path id="car_repair_2" d="M11.4952 24.5C11.2296 24.5 11.0086 24.4175 10.8323 24.2525C10.6559 24.0872 10.5678 23.8826 10.5678 23.6387V20.3857H0.932242C0.668113 20.3857 0.446645 20.3027 0.267839 20.1367C0.0892796 19.9708 0 19.7651 0 19.5196C0 19.2741 0.0892796 19.07 0.267839 18.9072C0.446645 18.7443 0.668113 18.6628 0.932242 18.6628H22.0678C22.3319 18.6628 22.5534 18.7457 22.7322 18.9117C22.9107 19.0776 23 19.2834 23 19.5288C23 19.7743 22.9107 19.9785 22.7322 20.1412C22.5534 20.3042 22.3319 20.3857 22.0678 20.3857H12.4322V23.6387C12.4322 23.8826 12.3423 24.0872 12.1625 24.2525C11.983 24.4175 11.7605 24.5 11.4952 24.5ZM6.13469 11.2621C6.4515 11.2621 6.71946 11.1595 6.93858 10.9542C7.1577 10.7489 7.26726 10.5015 7.26726 10.2119C7.26726 9.92231 7.15622 9.67624 6.93413 9.47373C6.71204 9.27121 6.44433 9.16995 6.13098 9.16995C5.81096 9.16995 5.543 9.27258 5.3271 9.47784C5.11119 9.6831 5.00324 9.93053 5.00324 10.2201C5.00324 10.51 5.11268 10.756 5.33155 10.9583C5.55042 11.1608 5.81813 11.2621 6.13469 11.2621ZM16.8738 11.2621C17.1906 11.2621 17.4586 11.1595 17.6777 10.9542C17.8966 10.7489 18.006 10.5015 18.006 10.2119C18.006 9.92231 17.8951 9.67624 17.6733 9.47373C17.4512 9.27121 17.1835 9.16995 16.8701 9.16995C16.5501 9.16995 16.2821 9.27258 16.0662 9.47784C15.8503 9.6831 15.7424 9.93053 15.7424 10.2201C15.7424 10.51 15.8518 10.756 16.0707 10.9583C16.2896 11.1608 16.5573 11.2621 16.8738 11.2621ZM2.78189 16.957C2.51652 16.957 2.29567 16.8745 2.11934 16.7095C1.94301 16.5445 1.85484 16.3399 1.85484 16.0958V7.95485C1.85484 7.8321 1.86226 7.71359 1.8771 7.5993C1.89218 7.48524 1.9226 7.37324 1.96835 7.2633L3.97306 1.93453C4.12318 1.51213 4.39931 1.16744 4.80144 0.900463C5.20356 0.633487 5.65676 0.5 6.16103 0.5H16.839C17.3432 0.5 17.7964 0.633487 18.1986 0.900463C18.6007 1.16744 18.8799 1.51213 19.0362 1.93453L21.0302 7.25918C21.0769 7.37187 21.1078 7.48524 21.1229 7.5993C21.1377 7.71359 21.1452 7.8321 21.1452 7.95485V16.0958C21.1452 16.3399 21.0554 16.5445 20.8758 16.7095C20.696 16.8745 20.4735 16.957 20.2081 16.957C19.9425 16.957 19.7215 16.8745 19.5452 16.7095C19.3688 16.5445 19.2807 16.3399 19.2807 16.0958V14.0842H3.71932V16.0958C3.71932 16.3399 3.62942 16.5445 3.44963 16.7095C3.27008 16.8745 3.0475 16.957 2.78189 16.957ZM4.26131 6.35677H18.7539L17.3223 2.49991C17.2937 2.41191 17.2413 2.3438 17.1654 2.29557C17.0892 2.24711 16.9989 2.22288 16.8942 2.22288H6.10576C6.00115 2.22288 5.91075 2.24711 5.83458 2.29557C5.75841 2.3438 5.7061 2.41191 5.67766 2.49991L4.26131 6.35677ZM3.71932 12.361H19.2807V8.07965H3.71932V12.361Z" fill="#BCBEC1"/>
</g>
</svg>
