<svg width="25" height="25" viewBox="0 0 25 25" fill="none" xmlns="http://www.w3.org/2000/svg">
<g id="Check">
<path id="Vector" d="M24.212 4.26163C24.02 4.06963 23.828 3.97363 23.54 3.97363C23.348 3.97363 23.06 4.06963 22.868 4.26163L8.498 18.6196L2.138 12.2596C1.946 12.0676 1.754 11.9716 1.466 11.9716C1.274 11.9716 0.986 12.0676 0.794 12.2596C0.602 12.4516 0.5 12.7396 0.5 13.0276C0.5 13.3156 0.596 13.6036 0.788 13.8016L7.634 20.6476C7.634 20.6476 7.7 20.7076 7.718 20.7256C7.736 20.7256 8.132 21.0856 8.612 21.0856C9.05 21.0856 9.446 20.6656 9.446 20.6656C9.446 20.6656 9.458 20.6536 9.464 20.6476L24.212 5.70763C24.404 5.41963 24.5 5.22763 24.5 4.93363C24.5 4.74163 24.404 4.45363 24.212 4.26163Z" fill="white"/>
</g>
</svg>
