<svg width="40" height="40" viewBox="0 0 40 40" fill="none" xmlns="http://www.w3.org/2000/svg">
<g id="Check">
<path id="Vector" d="M39.52 6.27004C39.2 5.95004 38.88 5.79004 38.4 5.79004C38.08 5.79004 37.6 5.95004 37.28 6.27004L13.33 30.2L2.73 19.6C2.41 19.28 2.09 19.12 1.61 19.12C1.29 19.12 0.81 19.28 0.49 19.6C0.17 19.92 0 20.4 0 20.88C0 21.36 0.16 21.84 0.48 22.17L11.89 33.58C11.89 33.58 12 33.68 12.03 33.71C12.06 33.71 12.72 34.31 13.52 34.31C14.25 34.31 14.91 33.61 14.91 33.61C14.91 33.61 14.93 33.59 14.94 33.58L39.52 8.68004C39.84 8.20004 40 7.88004 40 7.39004C40 7.07004 39.84 6.59004 39.52 6.27004Z" fill="white"/>
</g>
</svg>
