<svg width="32" height="33" viewBox="0 0 32 33" fill="none" xmlns="http://www.w3.org/2000/svg">
<g id="Check">
<path id="Vector" d="M31.616 5.48361C31.36 5.22761 31.104 5.09961 30.72 5.09961C30.464 5.09961 30.08 5.22761 29.824 5.48361L10.664 24.6276L2.184 16.1476C1.928 15.8916 1.672 15.7636 1.288 15.7636C1.032 15.7636 0.648 15.8916 0.392 16.1476C0.136 16.4036 0 16.7876 0 17.1716C0 17.5556 0.128 17.9396 0.384 18.2036L9.512 27.3316C9.512 27.3316 9.6 27.4116 9.624 27.4356C9.648 27.4356 10.176 27.9156 10.816 27.9156C11.4 27.9156 11.928 27.3556 11.928 27.3556C11.928 27.3556 11.944 27.3396 11.952 27.3316L31.616 7.41161C31.872 7.02761 32 6.77161 32 6.37961C32 6.12361 31.872 5.73961 31.616 5.48361Z" fill="#636466"/>
</g>
</svg>
