<svg width="21" height="25" viewBox="0 0 21 25" fill="none" xmlns="http://www.w3.org/2000/svg">
<path d="M9.09133 24.5C8.64178 24.5 8.25022 24.336 7.91667 24.008C7.58311 23.6798 7.41633 23.2853 7.41633 22.8247V16.034H2.59833C2.01833 16.034 1.52356 15.8298 1.114 15.4213C0.704667 15.0127 0.5 14.526 0.5 13.9613V4.523C0.5 3.43122 0.893778 2.48778 1.68133 1.69267C2.46889 0.897557 3.41556 0.5 4.52133 0.5H19.4573C19.7527 0.5 20.0003 0.599889 20.2003 0.799666C20.4001 0.999666 20.5 1.24733 20.5 1.54267V13.9613C20.5 14.526 20.2922 15.0127 19.8767 15.4213C19.4611 15.8298 18.9652 16.034 18.389 16.034H13.571V22.8247C13.571 23.2853 13.4041 23.6798 13.0703 24.008C12.7368 24.336 12.3452 24.5 11.8957 24.5H9.09133ZM2.17533 9.57367H18.8247V2.17533H16.8067V6.65467C16.8067 6.892 16.726 7.09089 16.5647 7.25133C16.4033 7.412 16.2033 7.49233 15.9647 7.49233C15.7262 7.49233 15.5278 7.412 15.3693 7.25133C15.2109 7.09089 15.1317 6.892 15.1317 6.65467V2.17533H12.7333V4.05567C12.7333 4.293 12.6527 4.49189 12.4913 4.65233C12.3298 4.81278 12.1298 4.893 11.8913 4.893C11.6527 4.893 11.4541 4.81278 11.2957 4.65233C11.1372 4.49189 11.058 4.293 11.058 4.05567V2.17533H4.52133C3.85689 2.17533 3.29978 2.40444 2.85 2.86267C2.40022 3.32111 2.17533 3.87456 2.17533 4.523V9.57367ZM2.59833 14.359H18.389C18.5086 14.359 18.6111 14.3206 18.6967 14.2437C18.782 14.1668 18.8247 14.0727 18.8247 13.9613V11.2487H2.17533V13.9613C2.17533 14.0727 2.21589 14.1668 2.297 14.2437C2.37811 14.3206 2.47856 14.359 2.59833 14.359Z" fill="white"/>
</svg>
