<svg width="28" height="33" viewBox="0 0 28 33" fill="none" xmlns="http://www.w3.org/2000/svg">
<g id="format_paint">
<path id="format_paint_2" d="M12.1221 32.9336C11.5227 32.9336 11.0006 32.7149 10.5559 32.2776C10.1111 31.84 9.88877 31.314 9.88877 30.6998V21.6456H3.46477C2.69144 21.6456 2.03173 21.3733 1.48566 20.8287C0.939881 20.2838 0.666992 19.6349 0.666992 18.882V6.29759C0.666992 4.84189 1.19203 3.58397 2.2421 2.52382C3.29218 1.46367 4.5544 0.933594 6.02877 0.933594H25.9434C26.3372 0.933594 26.6674 1.06678 26.9341 1.33315C27.2005 1.59982 27.3337 1.93004 27.3337 2.32382V18.882C27.3337 19.6349 27.0566 20.2838 26.5025 20.8287C25.9485 21.3733 25.2873 21.6456 24.519 21.6456H18.095V30.6998C18.095 31.314 17.8725 31.84 17.4274 32.2776C16.9827 32.7149 16.4606 32.9336 15.8612 32.9336H12.1221ZM2.90077 13.0318H25.0999V3.16737H22.4092V9.13982C22.4092 9.45626 22.3017 9.72145 22.0865 9.93537C21.8714 10.1496 21.6048 10.2567 21.2865 10.2567C20.9686 10.2567 20.704 10.1496 20.4928 9.93537C20.2815 9.72145 20.1759 9.45626 20.1759 9.13982V3.16737H16.9781V5.67448C16.9781 5.99093 16.8705 6.25611 16.6554 6.47004C16.44 6.68397 16.1734 6.79093 15.8554 6.79093C15.5372 6.79093 15.2725 6.68397 15.0612 6.47004C14.85 6.25611 14.7443 5.99093 14.7443 5.67448V3.16737H6.02877C5.14284 3.16737 4.40003 3.47285 3.80033 4.08382C3.20062 4.69508 2.90077 5.433 2.90077 6.29759V13.0318ZM3.46477 19.4123H24.519C24.6784 19.4123 24.8151 19.361 24.9292 19.2585C25.043 19.156 25.0999 19.0305 25.0999 18.882V15.2652H2.90077V18.882C2.90077 19.0305 2.95484 19.156 3.06299 19.2585C3.17114 19.361 3.30507 19.4123 3.46477 19.4123Z" fill="#636466"/>
</g>
</svg>
