<svg width="25" height="25" viewBox="0 0 25 25" fill="none" xmlns="http://www.w3.org/2000/svg">
<circle cx="12.5" cy="12.4004" r="12" fill="#3D761B"/>
<path d="M17.3753 9.02048C17.2927 8.93782 17.21 8.89648 17.086 8.89648C17.0033 8.89648 16.8793 8.93782 16.7967 9.02048L10.6096 15.2024L7.87127 12.4641C7.7886 12.3814 7.70593 12.3401 7.58193 12.3401C7.49927 12.3401 7.37527 12.3814 7.2926 12.4641C7.20993 12.5467 7.16602 12.6707 7.16602 12.7947C7.16602 12.9187 7.20735 13.0427 7.29002 13.128L10.2376 16.0756C10.2376 16.0756 10.266 16.1014 10.2738 16.1092C10.2815 16.1092 10.452 16.2642 10.6587 16.2642C10.8473 16.2642 11.0178 16.0833 11.0178 16.0833C11.0178 16.0833 11.0229 16.0782 11.0255 16.0756L17.3753 9.64307C17.458 9.51907 17.4993 9.4364 17.4993 9.30982C17.4993 9.22715 17.458 9.10315 17.3753 9.02048Z" fill="white"/>
</svg>
