<svg width="23" height="25" viewBox="0 0 23 25" fill="none" xmlns="http://www.w3.org/2000/svg">
<g id="Vector">
<path id="Vector_2" d="M13.1351 24.494H9.58138C9.35365 24.494 9.12593 24.4161 8.97611 24.2662C8.82629 24.1163 8.67647 23.8885 8.67647 23.6606L8.22101 20.7108C7.84347 20.561 7.38801 20.4111 6.93256 20.1053C6.4771 19.8775 6.09956 19.5777 5.72201 19.2719L3.07319 20.561C2.84546 20.6389 2.61773 20.6389 2.39001 20.561C2.16228 20.483 1.93455 20.3331 1.86264 20.1053L0.124725 17.0056C-0.0250952 16.7778 -0.0250952 16.55 0.0468186 16.3221C0.118732 16.0943 0.196639 15.8665 0.424366 15.7166L2.84546 13.9C2.84546 13.6721 2.76755 13.4443 2.76755 13.2165V11.8555C2.76755 11.6277 2.84546 11.3998 2.84546 11.172L0.424366 9.35536C0.196639 9.20547 0.124725 8.97764 0.0468186 8.74981C-0.031088 8.52198 0.0468186 8.29416 0.124725 8.06633L1.79073 4.96665C1.94055 4.73882 2.09037 4.58893 2.31809 4.51099C2.54582 4.43305 2.77355 4.43305 3.00127 4.51099L5.72201 5.72208C6.09956 5.42231 6.4771 5.19448 6.93256 4.88871C7.38801 4.66088 7.76556 4.43305 8.22101 4.28316L8.67647 1.33337C8.75437 1.10555 8.82629 0.877717 8.97611 0.727829C9.12593 0.577942 9.35365 0.5 9.58138 0.5H13.1351C13.3628 0.5 13.5906 0.577942 13.8183 0.727829C13.9681 0.877717 14.1179 1.10555 14.1958 1.33337L14.6513 4.28316C15.1068 4.43305 15.4843 4.66088 15.9398 4.88871C16.3173 5.11654 16.6948 5.41631 17.0724 5.72208L19.871 4.51099C20.0988 4.43305 20.3265 4.43305 20.5542 4.43305C20.7819 4.51099 20.9318 4.66088 21.0816 4.88871L22.8195 7.98838C22.9693 8.21621 22.9693 8.44404 22.9693 8.67187C22.8914 8.8997 22.8195 9.12753 22.5918 9.27742L20.0988 11.0941C20.1767 11.3219 20.1767 11.5497 20.1767 11.7775V13.0666C20.1767 13.2944 20.0988 13.5222 20.0988 13.7501L22.5918 15.5667C22.8195 15.7166 22.8914 15.8665 22.9693 16.1722C23.0472 16.4001 22.9693 16.6279 22.8195 16.8557L21.0037 20.1113C20.8539 20.3391 20.704 20.489 20.4763 20.567C20.2486 20.6449 20.0209 20.6449 19.7931 20.567L17.0724 19.3559C16.6948 19.6556 16.3173 19.9614 15.9398 20.1892C15.5622 20.4171 15.1068 20.6449 14.6513 20.7948L14.1958 23.7446C14.1179 23.9724 14.046 24.2002 13.8183 24.3501C13.5906 24.4281 13.4408 24.5 13.1351 24.5V24.494ZM11.3972 16.1722C12.38 16.1722 13.2849 15.7945 13.9681 15.111C14.6513 14.4276 15.0288 13.5222 15.0288 12.539C15.0288 11.5557 14.6513 10.6504 13.9681 9.9669C13.2849 9.28341 12.38 8.9057 11.3972 8.9057C10.4144 8.9057 9.50947 9.28341 8.82629 9.9669C8.14311 10.6504 7.76556 11.5557 7.76556 12.539C7.76556 13.5222 8.14311 14.4276 8.82629 15.111C9.50947 15.7945 10.3365 16.1722 11.3972 16.1722ZM11.3972 14.5834C10.8698 14.5834 10.3365 14.3556 9.95893 13.9779C9.58138 13.6002 9.35365 13.0726 9.35365 12.539C9.35365 12.0054 9.58138 11.4778 9.95893 11.1001C10.3365 10.7223 10.8638 10.4945 11.3972 10.4945C12.0025 10.4945 12.4579 10.7223 12.8355 11.1001C13.213 11.4778 13.4408 12.0054 13.4408 12.539C13.4408 13.0726 13.213 13.6002 12.8355 13.9779C12.4579 14.3556 11.9306 14.5834 11.3972 14.5834ZM10.1087 22.9052H12.7576L13.213 19.4278C13.8962 19.2779 14.5015 19.0501 15.0288 18.6724C15.5562 18.3726 16.1615 17.9169 16.6169 17.4613L19.871 18.8223L21.1595 16.6279L18.2889 14.5115C18.3668 14.1338 18.4388 13.828 18.5167 13.4503C18.5946 13.1505 18.5946 12.7668 18.5946 12.467C18.5946 12.0893 18.5946 11.7835 18.5167 11.4838C18.4388 11.184 18.4388 10.8003 18.2889 10.5005L21.1595 8.38409L19.871 6.18973L16.6169 7.55071C16.1615 7.09505 15.6341 6.64539 15.0288 6.26168C14.4236 5.88396 13.8183 5.65613 13.1411 5.57819L12.6857 2.1008H10.0368L9.58138 5.57819C8.8982 5.72808 8.29293 5.95591 7.69365 6.26168C7.09436 6.56745 6.561 7.01711 6.10555 7.55071L2.85145 6.18973L1.563 8.38409L4.43356 10.5005C4.35565 10.8003 4.28374 11.184 4.20583 11.4838C4.12792 11.7835 4.12792 12.1673 4.12792 12.545C4.12792 12.9227 4.12792 13.2285 4.20583 13.5282C4.28374 13.828 4.35565 14.2117 4.43356 14.5115L1.563 16.6279L2.85145 18.8223L6.10555 17.4613C6.63292 17.9889 7.16628 18.3666 7.69365 18.6724C8.29892 18.9721 8.90419 19.2779 9.58138 19.4278C9.65929 19.5057 10.1087 22.9052 10.1087 22.9052Z" fill="#BCBEC1"/>
</g>
</svg>
