<svg width="32" height="33" viewBox="0 0 32 33" fill="none" xmlns="http://www.w3.org/2000/svg">
<path id="Vector" d="M18.1815 32.3924H13.4411C13.1373 32.3924 12.8335 32.2885 12.6337 32.0886C12.4338 31.8888 12.234 31.585 12.234 31.2812L11.6264 27.3482C11.1228 27.1483 10.5153 26.9485 9.90772 26.5408C9.30018 26.237 8.79655 25.8373 8.29293 25.4296L4.75958 27.1483C4.45581 27.2523 4.15204 27.2523 3.84827 27.1483C3.54449 27.0444 3.24072 26.8446 3.14479 26.5408L0.826531 22.4079C0.626681 22.1041 0.626681 21.8003 0.722609 21.4966C0.818537 21.1928 0.922459 20.889 1.22623 20.6892L4.45581 18.267C4.45581 17.9632 4.35189 17.6594 4.35189 17.3557V15.541C4.35189 15.2373 4.45581 14.9335 4.45581 14.6297L1.22623 12.2075C0.922459 12.0077 0.826531 11.7039 0.722609 11.4001C0.618687 11.0964 0.722609 10.7926 0.826531 10.4888L3.04886 6.35592C3.24871 6.05215 3.44856 5.8523 3.75234 5.74838C4.05611 5.64446 4.35988 5.64446 4.66365 5.74838L8.29293 7.36317C8.79655 6.96347 9.30018 6.6597 9.90772 6.252C10.5153 5.94823 11.0189 5.64446 11.6264 5.44461L12.234 1.51156C12.3379 1.20779 12.4338 0.904013 12.6337 0.704163C12.8335 0.504313 13.1373 0.400391 13.4411 0.400391H18.1815C18.4853 0.400391 18.7891 0.504313 19.0928 0.704163C19.2927 0.904013 19.4925 1.20779 19.5965 1.51156L20.204 5.44461C20.8115 5.64446 21.3152 5.94823 21.9227 6.252C22.4263 6.55577 22.93 6.95547 23.4336 7.36317L27.1668 5.74838C27.4706 5.64446 27.7743 5.64446 28.0781 5.64446C28.3819 5.74838 28.5817 5.94823 28.7816 6.252L31.0998 10.3849C31.2997 10.6887 31.2997 10.9924 31.2997 11.2962C31.1958 11.6 31.0998 11.9038 30.7961 12.1036L27.4706 14.5258C27.5745 14.8296 27.5745 15.1333 27.5745 15.4371V17.1558C27.5745 17.4596 27.4706 17.7634 27.4706 18.0671L30.7961 20.4893C31.0998 20.6892 31.1958 20.889 31.2997 21.2967C31.4036 21.6005 31.2997 21.9043 31.0998 22.208L28.6776 26.5488C28.4778 26.8526 28.2779 27.0524 27.9742 27.1563C27.6704 27.2602 27.3666 27.2602 27.0629 27.1563L23.4336 25.5415C22.93 25.9412 22.4263 26.3489 21.9227 26.6527C21.4191 26.9565 20.8115 27.2602 20.204 27.4601L19.5965 31.3931C19.4925 31.6969 19.3966 32.0007 19.0928 32.2005C18.7891 32.3045 18.5892 32.4004 18.1815 32.4004V32.3924ZM15.8633 21.2967C17.1743 21.2967 18.3814 20.7931 19.2927 19.8818C20.204 18.9705 20.7076 17.7634 20.7076 16.4524C20.7076 15.1413 20.204 13.9342 19.2927 13.0229C18.3814 12.1116 17.1743 11.608 15.8633 11.608C14.5522 11.608 13.3451 12.1116 12.4338 13.0229C11.5225 13.9342 11.0189 15.1413 11.0189 16.4524C11.0189 17.7634 11.5225 18.9705 12.4338 19.8818C13.3451 20.7931 14.4483 21.2967 15.8633 21.2967ZM15.8633 19.1783C15.1598 19.1783 14.4483 18.8745 13.9447 18.3709C13.4411 17.8673 13.1373 17.1638 13.1373 16.4524C13.1373 15.7409 13.4411 15.0374 13.9447 14.5338C14.4483 14.0302 15.1518 13.7264 15.8633 13.7264C16.6706 13.7264 17.2782 14.0302 17.7818 14.5338C18.2854 15.0374 18.5892 15.7409 18.5892 16.4524C18.5892 17.1638 18.2854 17.8673 17.7818 18.3709C17.2782 18.8745 16.5747 19.1783 15.8633 19.1783ZM14.1445 30.274H17.6779L18.2854 25.6375C19.1968 25.4376 20.0041 25.1338 20.7076 24.6302C21.4111 24.2305 22.2185 23.623 22.826 23.0154L27.1668 24.8301L28.8855 21.9043L25.0564 19.0824C25.1603 18.5788 25.2562 18.1711 25.3601 17.6674C25.4641 17.2677 25.4641 16.7561 25.4641 16.3564C25.4641 15.8528 25.4641 15.4451 25.3601 15.0454C25.2562 14.6457 25.2562 14.1341 25.0564 13.7344L28.8855 10.9125L27.1668 7.9867L22.826 9.80134C22.2185 9.1938 21.515 8.59425 20.7076 8.08263C19.9002 7.57901 19.0928 7.27523 18.1895 7.17131L17.582 2.53479H14.0486L13.4411 7.17131C12.5298 7.37116 11.7224 7.67494 10.923 8.08263C10.1236 8.49032 9.41209 9.08987 8.80455 9.80134L4.4638 7.9867L2.74509 10.9125L6.57422 13.7344C6.4703 14.1341 6.37437 14.6457 6.27045 15.0454C6.16653 15.4451 6.16653 15.9567 6.16653 16.4603C6.16653 16.964 6.16653 17.3717 6.27045 17.7714C6.37437 18.1711 6.4703 18.6827 6.57422 19.0824L2.74509 21.9043L4.4638 24.8301L8.80455 23.0154C9.50802 23.7189 10.2195 24.2225 10.923 24.6302C11.7304 25.0299 12.5377 25.4376 13.4411 25.6375C13.545 25.7414 14.1445 30.274 14.1445 30.274Z" fill="#636466"/>
</svg>
