<svg width="59" height="59" viewBox="0 0 59 59" fill="none" xmlns="http://www.w3.org/2000/svg">
<rect x="0.75" y="0.75" width="57.4541" height="57.0556" rx="28.5278" fill="#592272"/>
<rect x="0.75" y="0.75" width="57.4541" height="57.0556" rx="28.5278" stroke="#C8C8C8" stroke-width="1.5"/>
<mask id="mask0_4575_3968" style="mask-type:alpha" maskUnits="userSpaceOnUse" x="15" y="15" width="28" height="28">
<rect x="15.9775" y="15.7773" width="27" height="27" fill="#D9D9D9"/>
</mask>
<g mask="url(#mask0_4575_3968)">
<path d="M18.9775 39.4027C18.4713 39.4027 18.0322 39.2168 17.6603 38.8449C17.2885 38.4731 17.1025 38.034 17.1025 37.5278V23.409C17.1025 22.9152 17.2885 22.4793 17.6603 22.1012C18.0322 21.7231 18.4713 21.534 18.9775 21.534H22.915L24.415 19.7903C24.5838 19.5777 24.7916 19.4184 25.0385 19.3121C25.2853 19.2059 25.5494 19.1527 25.8307 19.1527H31.4276C31.6932 19.1527 31.9158 19.2429 32.0955 19.4232C32.2752 19.6035 32.365 19.827 32.365 20.0935C32.365 20.3601 32.2752 20.5824 32.0955 20.7605C31.9158 20.9387 31.6932 21.0277 31.4276 21.0277H25.8307L23.7775 23.409H18.9775V37.5278H37.7276V27.3277C37.7276 27.0621 37.8177 26.8394 37.998 26.6598C38.1784 26.4801 38.4018 26.3902 38.6683 26.3902C38.9349 26.3902 39.1572 26.4801 39.3354 26.6598C39.5135 26.8394 39.6025 27.0621 39.6025 27.3277V37.5278C39.6025 38.034 39.4135 38.4731 39.0353 38.8449C38.6572 39.2168 38.2213 39.4027 37.7276 39.4027H18.9775ZM37.7276 21.0277H36.3025C36.0369 21.0277 35.8143 20.9376 35.6346 20.7572C35.4549 20.5769 35.3651 20.3535 35.3651 20.0869C35.3651 19.8204 35.4549 19.5981 35.6346 19.4199C35.8143 19.2418 36.0369 19.1527 36.3025 19.1527H37.7276V17.709C37.7276 17.4434 37.8177 17.2207 37.998 17.041C38.1784 16.8613 38.4018 16.7715 38.6683 16.7715C38.9349 16.7715 39.1572 16.8613 39.3354 17.041C39.5135 17.2207 39.6025 17.4434 39.6025 17.709V19.1527H41.0463C41.3119 19.1527 41.5346 19.2429 41.7142 19.4232C41.8939 19.6035 41.9838 19.827 41.9838 20.0935C41.9838 20.3601 41.8939 20.5824 41.7142 20.7605C41.5346 20.9387 41.3119 21.0277 41.0463 21.0277H39.6025V22.4527C39.6025 22.7184 39.5124 22.941 39.3321 23.1207C39.1517 23.3004 38.9283 23.3902 38.6618 23.3902C38.3952 23.3902 38.1729 23.3004 37.9947 23.1207C37.8166 22.941 37.7276 22.7184 37.7276 22.4527V21.0277ZM28.3432 35.334C29.7182 35.334 30.876 34.8637 31.8166 33.9231C32.7572 32.9824 33.2275 31.8246 33.2275 30.4496C33.2275 29.0746 32.7572 27.9199 31.8166 26.9856C30.876 26.0512 29.7182 25.584 28.3432 25.584C26.9682 25.584 25.8135 26.0512 24.8791 26.9856C23.9447 27.9199 23.4775 29.0746 23.4775 30.4496C23.4775 31.8246 23.9447 32.9824 24.8791 33.9231C25.8135 34.8637 26.9682 35.334 28.3432 35.334ZM28.3432 33.459C27.4869 33.459 26.7744 33.1715 26.2057 32.5965C25.6369 32.0215 25.3525 31.3059 25.3525 30.4496C25.3525 29.5934 25.6369 28.8809 26.2057 28.3121C26.7744 27.7434 27.4869 27.459 28.3432 27.459C29.1994 27.459 29.915 27.7434 30.49 28.3121C31.065 28.8809 31.3525 29.5934 31.3525 30.4496C31.3525 31.3059 31.065 32.0215 30.49 32.5965C29.915 33.1715 29.1994 33.459 28.3432 33.459Z" fill="white"/>
</g>
</svg>
