<svg width="40" height="40" viewBox="0 0 40 40" fill="none" xmlns="http://www.w3.org/2000/svg">
<mask id="mask0_2943_24400" style="mask-type:alpha" maskUnits="userSpaceOnUse" x="0" y="0" width="40" height="40">
<rect width="40" height="40" fill="#D9D9D9"/>
</mask>
<g mask="url(#mask0_2943_24400)">
<path d="M4.44377 35.0005C3.69377 35.0005 3.04331 34.725 2.49239 34.1741C1.94147 33.6232 1.66602 32.9727 1.66602 32.2227V11.306C1.66602 10.5745 1.94147 9.92869 2.49239 9.36849C3.04331 8.80832 3.69377 8.52824 4.44377 8.52824H10.2771L12.4993 5.94491C12.7493 5.63007 13.0572 5.39396 13.423 5.23657C13.7887 5.07916 14.1799 5.00045 14.5966 5.00045H22.8883C23.2818 5.00045 23.6117 5.13402 23.8778 5.40116C24.144 5.6683 24.2771 5.99931 24.2771 6.3942C24.2771 6.78909 24.144 7.11848 23.8778 7.38237C23.6117 7.64625 23.2818 7.7782 22.8883 7.7782H14.5966L11.5549 11.306H4.44377V32.2227H32.2216V17.1115C32.2216 16.718 32.3552 16.3881 32.6223 16.122C32.8894 15.8558 33.2205 15.7227 33.6153 15.7227C34.0102 15.7227 34.3396 15.8558 34.6035 16.122C34.8674 16.3881 34.9994 16.718 34.9994 17.1115V32.2227C34.9994 32.9727 34.7193 33.6232 34.1591 34.1741C33.5989 34.725 32.9531 35.0005 32.2216 35.0005H4.44377ZM32.2216 7.7782H30.1105C29.7169 7.7782 29.3871 7.64463 29.1209 7.37749C28.8547 7.11035 28.7216 6.77934 28.7216 6.38445C28.7216 5.98956 28.8547 5.66017 29.1209 5.39628C29.3871 5.13239 29.7169 5.00045 30.1105 5.00045H32.2216V2.86153C32.2216 2.46803 32.3552 2.13818 32.6223 1.87199C32.8894 1.60577 33.2205 1.47266 33.6153 1.47266C34.0102 1.47266 34.3396 1.60577 34.6035 1.87199C34.8674 2.13818 34.9994 2.46803 34.9994 2.86153V5.00045H37.1383C37.5318 5.00045 37.8616 5.13402 38.1278 5.40116C38.394 5.6683 38.5271 5.99931 38.5271 6.3942C38.5271 6.78909 38.394 7.11848 38.1278 7.38237C37.8616 7.64625 37.5318 7.7782 37.1383 7.7782H34.9994V9.88932C34.9994 10.2829 34.8658 10.6127 34.5986 10.8789C34.3315 11.1451 34.0005 11.2782 33.6056 11.2782C33.2107 11.2782 32.8813 11.1451 32.6174 10.8789C32.3535 10.6127 32.2216 10.2829 32.2216 9.88932V7.7782ZM18.3188 28.9727C20.3558 28.9727 22.0711 28.2759 23.4646 26.8824C24.8581 25.4889 25.5549 23.7736 25.5549 21.7366C25.5549 19.6995 24.8581 17.9889 23.4646 16.6046C22.0711 15.2204 20.3558 14.5282 18.3188 14.5282C16.2818 14.5282 14.5711 15.2204 13.1868 16.6046C11.8026 17.9889 11.1105 19.6995 11.1105 21.7366C11.1105 23.7736 11.8026 25.4889 13.1868 26.8824C14.5711 28.2759 16.2818 28.9727 18.3188 28.9727ZM18.3188 26.1949C17.0503 26.1949 15.9947 25.769 15.1521 24.9171C14.3095 24.0653 13.8882 23.0051 13.8882 21.7366C13.8882 20.468 14.3095 19.4125 15.1521 18.5699C15.9947 17.7273 17.0503 17.306 18.3188 17.306C19.5873 17.306 20.6475 17.7273 21.4993 18.5699C22.3512 19.4125 22.7771 20.468 22.7771 21.7366C22.7771 23.0051 22.3512 24.0653 21.4993 24.9171C20.6475 25.769 19.5873 26.1949 18.3188 26.1949Z" fill="#592272"/>
</g>
</svg>
