<svg width="3" height="21" viewBox="0 0 3 21" fill="none" xmlns="http://www.w3.org/2000/svg">
<g id="Group">
<path id="Vector" d="M1.04523 13.5671C1.32523 13.5671 1.51023 13.4721 1.69523 13.2871C1.88023 13.1021 1.97523 12.9171 1.97523 12.6371V1.15715C1.97523 0.877149 1.88023 0.447148 1.79023 0.357148C1.60523 0.172148 1.41523 0.0771484 1.14023 0.0771484C0.865235 0.0771484 0.600235 0.0771484 0.395235 0.357148C0.210235 0.542148 0.115234 0.727148 0.115234 1.00715V12.6371C0.115234 12.9171 0.210235 13.1021 0.395235 13.2871C0.580235 13.4721 0.765235 13.5671 1.04523 13.5671Z" fill="white"/>
<path id="Vector_2" d="M1.79 18.2823C1.59 18.0873 1.34 17.9873 1.045 17.9873C0.75 17.9873 0.5 18.0873 0.3 18.2823C0.1 18.4773 0 18.7223 0 19.0123C0 19.3023 0.1 19.5723 0.3 19.7723C0.5 19.9723 0.75 20.0773 1.045 20.0773C1.34 20.0773 1.595 19.9773 1.795 19.7723C1.995 19.5673 2.09 19.3173 2.09 19.0173C2.09 18.7173 1.99 18.4823 1.79 18.2823Z" fill="white"/>
</g>
</svg>
