<svg width="16" height="16" viewBox="0 0 16 16" fill="none" xmlns="http://www.w3.org/2000/svg">
<g id="angle-up">
<path id="Vector" d="M7.982 6.05605L1.79555 12.2441C1.5836 12.4561 1.33967 12.5561 1.05574 12.5441C0.771807 12.5321 0.527868 12.4201 0.315921 12.2081C0.103974 11.9961 0 11.7441 0 11.4521C0 11.1601 0.103974 10.9081 0.315921 10.6961L7.24219 3.77205C7.45414 3.56005 7.69808 3.45605 7.982 3.45605C8.26593 3.45605 8.50987 3.56005 8.72182 3.77205L15.6841 10.7361C15.896 10.9481 16 11.1921 16 11.4761C16 11.7601 15.896 12.0041 15.6841 12.2161C15.4721 12.4281 15.2202 12.5321 14.9283 12.5321C14.6363 12.5321 14.3844 12.4281 14.1725 12.2161L7.986 6.06405L7.982 6.05605Z" fill="#636466"/>
</g>
</svg>
