<svg width="20" height="20" viewBox="0 0 20 20" fill="none" xmlns="http://www.w3.org/2000/svg">
<g id="angle-up">
<path id="Vector" d="M9.97751 7.57031L2.24444 15.3053C1.97951 15.5703 1.67458 15.6953 1.31967 15.6803C0.964759 15.6653 0.659835 15.5253 0.394901 15.2603C0.129968 14.9953 0 14.6803 0 14.3153C0 13.9503 0.129968 13.6353 0.394901 13.3703L9.05274 4.71531C9.31767 4.45031 9.62259 4.32031 9.97751 4.32031C10.3324 4.32031 10.6373 4.45031 10.9023 4.71531L19.6051 13.4203C19.87 13.6853 20 13.9903 20 14.3453C20 14.7003 19.87 15.0053 19.6051 15.2703C19.3402 15.5353 19.0252 15.6653 18.6603 15.6653C18.2954 15.6653 17.9805 15.5353 17.7156 15.2703L9.9825 7.58031L9.97751 7.57031Z" fill="black"/>
</g>
</svg>
