<svg width="16" height="16" viewBox="0 0 16 16" fill="none" xmlns="http://www.w3.org/2000/svg">
<g id="angle-down">
<path id="Vector" d="M8.00848 12.5603C7.86848 12.5603 7.74049 12.5363 7.6205 12.4883C7.50051 12.4403 7.38451 12.3603 7.26852 12.2403L0.300946 5.27234C0.0889589 5.06034 -0.011035 4.80834 0.000964227 4.51634C0.0129635 4.22434 0.124957 3.97234 0.336944 3.76034C0.548931 3.54834 0.800915 3.44434 1.0929 3.44434C1.38488 3.44434 1.63686 3.54834 1.84885 3.76034L8.00848 9.95634L14.2041 3.76034C14.4161 3.54834 14.6601 3.44834 14.9441 3.46034C15.228 3.47234 15.472 3.58434 15.684 3.79634C15.896 4.00834 16 4.26034 16 4.55234C16 4.84434 15.896 5.09634 15.684 5.30834L8.74843 12.2443C8.63244 12.3603 8.51244 12.4443 8.39645 12.4923C8.28046 12.5403 8.14847 12.5643 8.00848 12.5643V12.5603Z" fill="#636466"/>
</g>
</svg>
