<svg width="22" height="22" viewBox="0 0 22 22" fill="none" xmlns="http://www.w3.org/2000/svg">
<g id="calendar">
<path id="Vector" d="M2.74961 22C2.30961 22 1.92461 21.835 1.59461 21.505C1.26461 21.175 1.09961 20.79 1.09961 20.35V3.3C1.09961 2.86 1.26461 2.475 1.59461 2.145C1.92461 1.815 2.30961 1.65 2.74961 1.65H4.53711V0.88C4.53711 0.6325 4.61961 0.4235 4.79011 0.253C4.96061 0.0825 5.16961 0 5.41711 0C5.66461 0 5.89011 0.0825 6.06611 0.253C6.24211 0.4235 6.32461 0.6325 6.32461 0.88V1.65H15.6746V0.88C15.6746 0.6325 15.7571 0.4235 15.9276 0.253C16.0981 0.0825 16.3071 0 16.5546 0C16.8021 0 17.0276 0.0825 17.2036 0.253C17.3796 0.4235 17.4621 0.6325 17.4621 0.88V1.65H19.2496C19.6896 1.65 20.0746 1.815 20.4046 2.145C20.7346 2.475 20.8996 2.86 20.8996 3.3V20.35C20.8996 20.79 20.7346 21.175 20.4046 21.505C20.0746 21.835 19.6896 22 19.2496 22H2.74961ZM2.74961 20.35H19.2496V8.525H2.74961V20.35ZM2.74961 6.875H19.2496V3.3H2.74961V6.875ZM10.9996 13.2C10.6861 13.2 10.4276 13.0955 10.2131 12.881C9.99861 12.6665 9.89411 12.408 9.89411 12.0945C9.89411 11.781 9.99861 11.5225 10.2131 11.308C10.4276 11.0935 10.6861 10.989 10.9996 10.989C11.3131 10.989 11.5716 11.0935 11.7861 11.308C11.9951 11.517 12.1051 11.781 12.1051 12.0945C12.1051 12.408 12.0006 12.6665 11.7861 12.881C11.5771 13.09 11.3131 13.2 10.9996 13.2ZM6.59961 13.2C6.28611 13.2 6.02761 13.0955 5.81311 12.881C5.59861 12.6665 5.49411 12.408 5.49411 12.0945C5.49411 11.781 5.59861 11.5225 5.81311 11.308C6.02761 11.0935 6.28611 10.989 6.59961 10.989C6.91311 10.989 7.17161 11.0935 7.38611 11.308C7.60061 11.5225 7.70511 11.781 7.70511 12.0945C7.70511 12.408 7.60061 12.6665 7.38611 12.881C7.17161 13.0955 6.91311 13.2 6.59961 13.2ZM15.3996 13.2C15.0861 13.2 14.8276 13.0955 14.6131 12.881C14.3986 12.6665 14.2941 12.408 14.2941 12.0945C14.2941 11.781 14.3986 11.5225 14.6131 11.308C14.8276 11.0935 15.0861 10.989 15.3996 10.989C15.7131 10.989 15.9716 11.0935 16.1861 11.308C16.4006 11.5225 16.5051 11.781 16.5051 12.0945C16.5051 12.408 16.4006 12.6665 16.1861 12.881C15.9716 13.0955 15.7131 13.2 15.3996 13.2ZM10.9996 17.6C10.6861 17.6 10.4276 17.4955 10.2131 17.281C10.0041 17.072 9.89411 16.808 9.89411 16.4945C9.89411 16.181 9.99861 15.9225 10.2131 15.708C10.4276 15.4935 10.6861 15.389 10.9996 15.389C11.3131 15.389 11.5716 15.4935 11.7861 15.708C11.9951 15.917 12.1051 16.181 12.1051 16.4945C12.1051 16.808 12.0006 17.0665 11.7861 17.281C11.5771 17.49 11.3131 17.6 10.9996 17.6ZM6.59961 17.6C6.28611 17.6 6.02761 17.4955 5.81311 17.281C5.60411 17.072 5.49411 16.808 5.49411 16.4945C5.49411 16.181 5.59861 15.9225 5.81311 15.708C6.02761 15.4935 6.28611 15.389 6.59961 15.389C6.91311 15.389 7.17161 15.4935 7.38611 15.708C7.60061 15.9225 7.70511 16.181 7.70511 16.4945C7.70511 16.808 7.60061 17.0665 7.38611 17.281C7.17711 17.49 6.91311 17.6 6.59961 17.6ZM15.3996 17.6C15.0861 17.6 14.8276 17.4955 14.6131 17.281C14.4041 17.072 14.2941 16.808 14.2941 16.4945C14.2941 16.181 14.3986 15.9225 14.6131 15.708C14.8276 15.4935 15.0861 15.389 15.3996 15.389C15.7131 15.389 15.9716 15.4935 16.1861 15.708C16.4006 15.9225 16.5051 16.181 16.5051 16.4945C16.5051 16.808 16.4006 17.0665 16.1861 17.281C15.9771 17.49 15.7131 17.6 15.3996 17.6Z" fill="#2C421F"/>
</g>
</svg>
