<svg width="24" height="24" viewBox="0 0 24 24" fill="none" xmlns="http://www.w3.org/2000/svg">
<g id="calendar">
<path id="Vector" d="M2.99922 23.9986C2.51922 23.9986 2.09922 23.8186 1.73922 23.4587C1.37922 23.0987 1.19922 22.6788 1.19922 22.1988V3.60062C1.19922 3.12067 1.37922 2.70071 1.73922 2.34075C2.09922 1.98078 2.51922 1.8008 2.99922 1.8008H4.94922V0.960883C4.94922 0.690909 5.03922 0.462931 5.22522 0.27695C5.41122 0.0909678 5.63922 0.000976562 5.90922 0.000976562C6.17922 0.000976562 6.42522 0.0909678 6.61722 0.27695C6.80922 0.462931 6.89922 0.690909 6.89922 0.960883V1.8008H17.0992V0.960883C17.0992 0.690909 17.1892 0.462931 17.3752 0.27695C17.5612 0.0909678 17.7892 0.000976562 18.0592 0.000976562C18.3292 0.000976562 18.5752 0.0909678 18.7672 0.27695C18.9592 0.462931 19.0492 0.690909 19.0492 0.960883V1.8008H20.9992C21.4792 1.8008 21.8992 1.98078 22.2592 2.34075C22.6192 2.70071 22.7992 3.12067 22.7992 3.60062V22.1988C22.7992 22.6788 22.6192 23.0987 22.2592 23.4587C21.8992 23.8186 21.4792 23.9986 20.9992 23.9986H2.99922ZM2.99922 22.1988H20.9992V9.30007H2.99922V22.1988ZM2.99922 7.50024H20.9992V3.60062H2.99922V7.50024ZM11.9992 14.3996C11.6572 14.3996 11.3752 14.2856 11.1412 14.0516C10.9072 13.8176 10.7932 13.5357 10.7932 13.1937C10.7932 12.8517 10.9072 12.5697 11.1412 12.3358C11.3752 12.1018 11.6572 11.9878 11.9992 11.9878C12.3412 11.9878 12.6232 12.1018 12.8572 12.3358C13.0852 12.5637 13.2052 12.8517 13.2052 13.1937C13.2052 13.5357 13.0912 13.8176 12.8572 14.0516C12.6292 14.2796 12.3412 14.3996 11.9992 14.3996ZM7.19922 14.3996C6.85722 14.3996 6.57522 14.2856 6.34122 14.0516C6.10722 13.8176 5.99322 13.5357 5.99322 13.1937C5.99322 12.8517 6.10722 12.5697 6.34122 12.3358C6.57522 12.1018 6.85722 11.9878 7.19922 11.9878C7.54122 11.9878 7.82322 12.1018 8.05722 12.3358C8.29122 12.5697 8.40522 12.8517 8.40522 13.1937C8.40522 13.5357 8.29122 13.8176 8.05722 14.0516C7.82322 14.2856 7.54122 14.3996 7.19922 14.3996ZM16.7992 14.3996C16.4572 14.3996 16.1752 14.2856 15.9412 14.0516C15.7072 13.8176 15.5932 13.5357 15.5932 13.1937C15.5932 12.8517 15.7072 12.5697 15.9412 12.3358C16.1752 12.1018 16.4572 11.9878 16.7992 11.9878C17.1412 11.9878 17.4232 12.1018 17.6572 12.3358C17.8912 12.5697 18.0052 12.8517 18.0052 13.1937C18.0052 13.5357 17.8912 13.8176 17.6572 14.0516C17.4232 14.2856 17.1412 14.3996 16.7992 14.3996ZM11.9992 19.1991C11.6572 19.1991 11.3752 19.0851 11.1412 18.8511C10.9132 18.6232 10.7932 18.3352 10.7932 17.9932C10.7932 17.6513 10.9072 17.3693 11.1412 17.1353C11.3752 16.9013 11.6572 16.7873 11.9992 16.7873C12.3412 16.7873 12.6232 16.9013 12.8572 17.1353C13.0852 17.3633 13.2052 17.6513 13.2052 17.9932C13.2052 18.3352 13.0912 18.6172 12.8572 18.8511C12.6292 19.0791 12.3412 19.1991 11.9992 19.1991ZM7.19922 19.1991C6.85722 19.1991 6.57522 19.0851 6.34122 18.8511C6.11322 18.6232 5.99322 18.3352 5.99322 17.9932C5.99322 17.6513 6.10722 17.3693 6.34122 17.1353C6.57522 16.9013 6.85722 16.7873 7.19922 16.7873C7.54122 16.7873 7.82322 16.9013 8.05722 17.1353C8.29122 17.3693 8.40522 17.6513 8.40522 17.9932C8.40522 18.3352 8.29122 18.6172 8.05722 18.8511C7.82922 19.0791 7.54122 19.1991 7.19922 19.1991ZM16.7992 19.1991C16.4572 19.1991 16.1752 19.0851 15.9412 18.8511C15.7132 18.6232 15.5932 18.3352 15.5932 17.9932C15.5932 17.6513 15.7072 17.3693 15.9412 17.1353C16.1752 16.9013 16.4572 16.7873 16.7992 16.7873C17.1412 16.7873 17.4232 16.9013 17.6572 17.1353C17.8912 17.3693 18.0052 17.6513 18.0052 17.9932C18.0052 18.3352 17.8912 18.6172 17.6572 18.8511C17.4292 19.0791 17.1412 19.1991 16.7992 19.1991Z" fill="#2C421F"/>
</g>
</svg>
