<svg width="68" height="70" viewBox="0 0 68 70" fill="none" xmlns="http://www.w3.org/2000/svg">
<path d="M8.0459 36.8242H17.7237" stroke="#BCBEC1" stroke-width="2" stroke-linecap="round"/>
<path d="M51.2236 36.8242H60.9014" stroke="#BCBEC1" stroke-width="2" stroke-linecap="round"/>
<rect x="9.0459" y="27.3555" width="8.42222" height="3.98214" rx="1" stroke="#BCBEC1" stroke-width="2" stroke-linejoin="round"/>
<rect x="50.7354" y="27.3555" width="8.42222" height="3.98214" rx="1" stroke="#BCBEC1" stroke-width="2" stroke-linejoin="round"/>
<path d="M3.5791 12.1482L3.13029 11.2545C2.79239 11.4242 2.5791 11.77 2.5791 12.1482H3.5791ZM3.5791 16.6348H2.5791C2.5791 17.1871 3.02682 17.6348 3.5791 17.6348V16.6348ZM8.04577 17.6348C8.59805 17.6348 9.04577 17.1871 9.04577 16.6348C9.04577 16.0825 8.59805 15.6348 8.04577 15.6348V17.6348ZM5.06799 11.4004V10.4004C4.91214 10.4004 4.75845 10.4368 4.61918 10.5068L5.06799 11.4004ZM8.04577 11.4004L8.75445 10.6949C8.56679 10.5064 8.31176 10.4004 8.04577 10.4004V11.4004ZM10.9878 12.9382L9.49889 11.4426L8.08153 12.8537L9.57042 14.3492L10.9878 12.9382ZM2.5791 12.1482V16.6348H4.5791V12.1482H2.5791ZM3.5791 17.6348H8.04577V15.6348H3.5791V17.6348ZM6.55688 10.4004H5.06799V12.4004H6.55688V10.4004ZM4.61918 10.5068L3.13029 11.2545L4.02791 13.0418L5.5168 12.294L4.61918 10.5068ZM9.49889 11.4426L8.75445 10.6949L7.33709 12.1059L8.08153 12.8537L9.49889 11.4426ZM8.04577 10.4004H6.55688V12.4004H8.04577V10.4004Z" fill="#BCBEC1"/>
<path d="M57.1796 14.3915L59.4129 12.1482L60.1574 11.4004H61.6462H63.1351L64.624 12.1482V16.6348H59.4129" stroke="#BCBEC1" stroke-width="2" stroke-linejoin="round"/>
<path d="M9.53461 15.1388L15.4902 5.41783C16.2346 4.42081 18.1702 2.42676 19.9568 2.42676C21.7435 2.42676 39.5605 2.42676 48.2457 2.42676C49.2383 2.42676 51.3724 2.72586 51.9679 3.92229C52.5635 5.11872 56.1865 11.8985 57.9235 15.1388M9.53461 15.1388C31.5702 19.3263 50.9753 16.8836 57.9235 15.1388M9.53461 15.1388L5.06794 20.3732C4.86792 20.6746 4.58728 21.1703 4.3235 21.7722M57.9235 15.1388C58.9161 16.1358 61.1991 18.429 62.3902 19.6254C63.0172 20.2552 63.3966 21.0508 63.6154 21.7722M3.57906 41.3107C3.57906 36.5748 3.57906 26.6544 3.57906 24.8598C3.57906 23.7884 3.93279 22.6638 4.3235 21.7722M3.57906 41.3107C3.33091 43.3047 3.43017 47.2928 5.81239 47.2928C8.19461 47.2928 11.2716 47.2928 12.5124 47.2928C13.2568 47.2928 14.7457 46.0964 14.7457 41.3107M3.57906 41.3107H14.7457M63.8791 41.3107V23.3643C63.8791 23.0101 63.8123 22.4212 63.6154 21.7722M63.8791 41.3107C63.879 43.3047 63.1346 47.2928 60.1568 47.2928C57.179 47.2928 55.442 47.2928 54.9457 47.2928C53.9531 47.2928 52.1168 46.0964 52.7124 41.3107M63.8791 41.3107H52.7124M4.3235 21.7722C20.5255 22.2386 55.0668 22.8914 63.6154 21.7722M14.7457 41.3107H52.7124" stroke="#BCBEC1" stroke-width="2" stroke-linecap="round" stroke-linejoin="round"/>
<path d="M13.6738 57.0557C13.6738 57.6618 13.5394 58.1882 13.2705 58.6348C13.0016 59.0814 12.6188 59.4277 12.1221 59.6738C11.6299 59.9154 11.042 60.0361 10.3584 60.0361H7.52832V63.7891H6.22266V54.1572H10.2764C11.3564 54.1572 12.1927 54.4102 12.7852 54.916C13.3776 55.4219 13.6738 56.1351 13.6738 57.0557ZM12.3613 57.0693C12.3613 55.8252 11.6139 55.2031 10.1191 55.2031H7.52832V59.0039H10.1738C10.903 59.0039 11.4499 58.8444 11.8145 58.5254C12.179 58.2018 12.3613 57.7165 12.3613 57.0693ZM21.8604 60.084C21.8604 61.3783 21.5755 62.3421 21.0059 62.9756C20.4362 63.609 19.609 63.9258 18.5244 63.9258C17.4443 63.9258 16.6286 63.5977 16.0771 62.9414C15.5257 62.2806 15.25 61.3281 15.25 60.084C15.25 58.8079 15.5257 57.8509 16.0771 57.2129C16.6331 56.5749 17.4626 56.2559 18.5654 56.2559C19.6956 56.2559 20.5273 56.568 21.0605 57.1924C21.5938 57.8122 21.8604 58.776 21.8604 60.084ZM20.5684 60.084C20.5684 59.0632 20.4157 58.3226 20.1104 57.8623C19.8096 57.3975 19.3014 57.165 18.5859 57.165C17.8659 57.165 17.3441 57.402 17.0205 57.876C16.7015 58.3454 16.542 59.0814 16.542 60.084C16.542 61.0592 16.6992 61.793 17.0137 62.2852C17.3327 62.7728 17.8317 63.0166 18.5107 63.0166C19.249 63.0166 19.7754 62.7796 20.0898 62.3057C20.4089 61.8317 20.5684 61.0911 20.5684 60.084ZM29.1992 61.7451C29.1992 62.4424 28.9349 62.9801 28.4062 63.3584C27.8822 63.7367 27.1462 63.9258 26.1982 63.9258C25.2777 63.9258 24.5667 63.7754 24.0654 63.4746C23.5687 63.1693 23.2451 62.6953 23.0947 62.0527L24.1816 61.8408C24.2865 62.2373 24.5029 62.529 24.8311 62.7158C25.1592 62.8981 25.6149 62.9893 26.1982 62.9893C26.8226 62.9893 27.2783 62.8936 27.5654 62.7021C27.8571 62.5107 28.0029 62.2236 28.0029 61.8408C28.0029 61.5492 27.9027 61.3122 27.7021 61.1299C27.5016 60.9476 27.1781 60.7972 26.7314 60.6787C26.2028 60.5374 25.7812 60.4212 25.4668 60.3301C25.1569 60.2389 24.9176 60.1615 24.749 60.0977C24.5804 60.0293 24.446 59.9655 24.3457 59.9062C24.0449 59.7331 23.8102 59.5212 23.6416 59.2705C23.473 59.0199 23.3887 58.7122 23.3887 58.3477C23.3887 57.6732 23.6279 57.1605 24.1064 56.8096C24.5895 56.4541 25.2913 56.2764 26.2119 56.2764C27.0277 56.2764 27.6748 56.4199 28.1533 56.707C28.6364 56.9941 28.9417 57.4544 29.0693 58.0879L27.9619 58.2246C27.8936 57.8965 27.709 57.6458 27.4082 57.4727C27.112 57.2949 26.7132 57.2061 26.2119 57.2061C25.6559 57.2061 25.2458 57.2904 24.9814 57.459C24.7171 57.6276 24.585 57.8828 24.585 58.2246C24.585 58.4753 24.6602 58.6826 24.8105 58.8467C24.9609 59.0062 25.248 59.1383 25.6719 59.2432C26.2415 59.3799 26.7839 59.5303 27.2988 59.6943C27.8138 59.8538 28.1829 60.0133 28.4062 60.1729C28.666 60.3597 28.862 60.5807 28.9941 60.8359C29.1309 61.0866 29.1992 61.3896 29.1992 61.7451ZM33.7422 63.7344C33.3411 63.8438 32.9264 63.8984 32.498 63.8984C32.0059 63.8984 31.6367 63.7594 31.3906 63.4814C31.1445 63.1989 31.0215 62.7796 31.0215 62.2236V57.2881H30.167V56.3926H31.0693L31.4316 54.7383H32.252V56.3926H33.6191V57.2881H32.252V61.957C32.252 62.3125 32.3089 62.5632 32.4229 62.709C32.5413 62.8503 32.7441 62.9209 33.0312 62.9209C33.1862 62.9209 33.4232 62.889 33.7422 62.8252V63.7344ZM35.9883 60.3506C35.9883 61.1982 36.1637 61.8522 36.5146 62.3125C36.8656 62.7728 37.3783 63.0029 38.0527 63.0029C38.5859 63.0029 39.012 62.8958 39.3311 62.6816C39.6546 62.4674 39.8734 62.1963 39.9873 61.8682L41.0674 62.1758C40.6253 63.3424 39.6204 63.9258 38.0527 63.9258C36.959 63.9258 36.125 63.5999 35.5508 62.9482C34.9811 62.2965 34.6963 61.3281 34.6963 60.043C34.6963 58.8216 34.9811 57.8851 35.5508 57.2334C36.125 56.5817 36.943 56.2559 38.0049 56.2559C39.0941 56.2559 39.9098 56.584 40.4521 57.2402C40.9945 57.8965 41.2656 58.8786 41.2656 60.1865V60.3506H35.9883ZM39.9941 59.4072C39.9258 58.6279 39.7275 58.0605 39.3994 57.7051C39.0713 57.3451 38.5996 57.165 37.9844 57.165C37.3874 57.165 36.9134 57.3656 36.5625 57.7666C36.2161 58.1631 36.0293 58.71 36.002 59.4072H39.9941ZM44.3457 59.9336V63.7891H43.1152V58.1152C43.1152 57.8555 43.1107 57.582 43.1016 57.2949C43.097 57.0078 43.0879 56.707 43.0742 56.3926H44.2363C44.2454 56.6022 44.2523 56.7913 44.2568 56.96C44.266 57.1286 44.2728 57.2767 44.2773 57.4043C44.2819 57.5273 44.2842 57.6322 44.2842 57.7188C44.2887 57.8008 44.291 57.8623 44.291 57.9033H44.3184C44.4551 57.4567 44.6055 57.1104 44.7695 56.8643C44.929 56.6364 45.1113 56.4792 45.3164 56.3926C45.5215 56.3014 45.7744 56.2559 46.0752 56.2559C46.2438 56.2559 46.4102 56.2786 46.5742 56.3242V57.4521C46.4193 57.4066 46.2005 57.3838 45.918 57.3838C45.4076 57.3838 45.0179 57.6048 44.749 58.0469C44.4801 58.4844 44.3457 59.1133 44.3457 59.9336ZM49.2236 53.6445V54.8203H47.9932V53.6445H49.2236ZM49.2236 56.3926V63.7891H47.9932V56.3926H49.2236ZM57.6221 60.084C57.6221 61.3783 57.3372 62.3421 56.7676 62.9756C56.1979 63.609 55.3708 63.9258 54.2861 63.9258C53.2061 63.9258 52.3903 63.5977 51.8389 62.9414C51.2874 62.2806 51.0117 61.3281 51.0117 60.084C51.0117 58.8079 51.2874 57.8509 51.8389 57.2129C52.3949 56.5749 53.2243 56.2559 54.3271 56.2559C55.4574 56.2559 56.2891 56.568 56.8223 57.1924C57.3555 57.8122 57.6221 58.776 57.6221 60.084ZM56.3301 60.084C56.3301 59.0632 56.1774 58.3226 55.8721 57.8623C55.5713 57.3975 55.0632 57.165 54.3477 57.165C53.6276 57.165 53.1058 57.402 52.7822 57.876C52.4632 58.3454 52.3037 59.0814 52.3037 60.084C52.3037 61.0592 52.4609 61.793 52.7754 62.2852C53.0944 62.7728 53.5934 63.0166 54.2725 63.0166C55.0107 63.0166 55.5371 62.7796 55.8516 62.3057C56.1706 61.8317 56.3301 61.0911 56.3301 60.084ZM60.668 59.9336V63.7891H59.4375V58.1152C59.4375 57.8555 59.4329 57.582 59.4238 57.2949C59.4193 57.0078 59.4102 56.707 59.3965 56.3926H60.5586C60.5677 56.6022 60.5745 56.7913 60.5791 56.96C60.5882 57.1286 60.5951 57.2767 60.5996 57.4043C60.6042 57.5273 60.6064 57.6322 60.6064 57.7188C60.611 57.8008 60.6133 57.8623 60.6133 57.9033H60.6406C60.7773 57.4567 60.9277 57.1104 61.0918 56.8643C61.2513 56.6364 61.4336 56.4792 61.6387 56.3926C61.8438 56.3014 62.0967 56.2559 62.3975 56.2559C62.5661 56.2559 62.7324 56.2786 62.8965 56.3242V57.4521C62.7415 57.4066 62.5228 57.3838 62.2402 57.3838C61.7298 57.3838 61.3402 57.6048 61.0713 58.0469C60.8024 58.4844 60.668 59.1133 60.668 59.9336Z" fill="#BCBEC1"/>
</svg>
