<svg width="70" height="69" viewBox="0 0 70 69" fill="none" xmlns="http://www.w3.org/2000/svg">
<path d="M7.98242 36.4932H18.3515" stroke="#BCBEC1" stroke-width="2" stroke-linecap="round"/>
<path d="M54.2441 36.4932H64.6132" stroke="#BCBEC1" stroke-width="2" stroke-linecap="round"/>
<path d="M9.57822 13.667L3.19727 20.751V41.2158C14.8957 43.3148 44.1949 46.2533 67.8044 41.2158V20.751L60.6258 13.667" stroke="#BCBEC1" stroke-width="2"/>
<path d="M16.7567 4.11104L9.57812 13.7561C36.3781 17.8713 54.7765 15.4708 60.6257 13.7561C59.0305 10.9697 55.6805 5.13985 55.0424 4.11104C54.4043 3.08224 52.6496 2.82504 51.8519 2.82504C35.8996 1.53885 33.5067 1.5389 19.9472 2.82504C18.046 3.00536 17.0226 3.68237 16.7567 4.11104Z" stroke="#BCBEC1" stroke-width="2" stroke-linejoin="round"/>
<path d="M9.57775 13.667L7.1849 11.3057L6.38728 10.5186H4.79204H3.1968L1.60156 11.3057V16.0283H7.1849" stroke="#BCBEC1" stroke-width="2" stroke-linejoin="round"/>
<path d="M60.6254 13.667L63.0182 11.3057L63.8158 10.5186H65.4111H67.0063L68.6016 11.3057V16.0283H63.0182" stroke="#BCBEC1" stroke-width="2" stroke-linejoin="round"/>
<path d="M3.19738 41.2158C2.9315 43.0524 2.87833 46.883 4.79261 47.5127C6.7069 48.1424 11.4394 47.7751 13.5663 47.5127C14.3639 47.5127 15.7996 46.5682 15.1615 42.79" stroke="#BCBEC1" stroke-width="2"/>
<path d="M67.8042 41.2158C68.0701 43.3148 68.1232 47.5127 66.209 47.5127C64.2947 47.5127 60.0939 47.5127 58.2328 47.5127C57.4351 47.5127 55.9994 46.5682 56.6375 42.79" stroke="#BCBEC1" stroke-width="2"/>
<path d="M46.2687 38.0674H25.5306C23.6163 38.0674 23.1377 37.0179 23.1377 36.4932C23.1377 35.7061 23.2972 33.6596 23.9353 31.7705C24.5734 29.8814 26.3282 28.8844 27.1258 28.6221H43.8758C46.2687 28.6221 48.6615 33.3447 48.6615 35.7061C48.6615 37.5951 47.0663 38.0674 46.2687 38.0674Z" stroke="#BCBEC1" stroke-width="2"/>
<rect x="53.6494" y="26.4736" width="9.16667" height="4.29687" rx="1" stroke="#BCBEC1" stroke-width="2" stroke-linejoin="round"/>
<rect x="8.98242" y="26.4736" width="9.16667" height="4.29687" rx="1" stroke="#BCBEC1" stroke-width="2" stroke-linejoin="round"/>
<path d="M31.9111 2.64746V5.00879L33.5064 5.7959H35.8992H38.2921L39.8873 5.00879V2.64746" stroke="#BCBEC1" stroke-width="2" stroke-linecap="round" stroke-linejoin="round"/>
<path d="M14.999 58.957V62.8604H13.6934V53.2285H20.5361V54.2949H14.999V57.877H20.3721V58.957H14.999ZM23.5547 59.0049V62.8604H22.3242V57.1865C22.3242 56.9268 22.3197 56.6533 22.3105 56.3662C22.306 56.0791 22.2969 55.7783 22.2832 55.4639H23.4453C23.4544 55.6735 23.4613 55.8626 23.4658 56.0312C23.4749 56.1999 23.4818 56.348 23.4863 56.4756C23.4909 56.5986 23.4932 56.7035 23.4932 56.79C23.4977 56.8721 23.5 56.9336 23.5 56.9746H23.5273C23.6641 56.528 23.8145 56.1816 23.9785 55.9355C24.138 55.7077 24.3203 55.5505 24.5254 55.4639C24.7305 55.3727 24.9834 55.3271 25.2842 55.3271C25.4528 55.3271 25.6191 55.3499 25.7832 55.3955V56.5234C25.6283 56.4779 25.4095 56.4551 25.127 56.4551C24.6165 56.4551 24.2269 56.6761 23.958 57.1182C23.6891 57.5557 23.5547 58.1846 23.5547 59.0049ZM33.4639 59.1553C33.4639 60.4495 33.179 61.4134 32.6094 62.0469C32.0397 62.6803 31.2126 62.9971 30.1279 62.9971C29.0479 62.9971 28.2321 62.6689 27.6807 62.0127C27.1292 61.3519 26.8535 60.3994 26.8535 59.1553C26.8535 57.8792 27.1292 56.9222 27.6807 56.2842C28.2367 55.6462 29.0661 55.3271 30.1689 55.3271C31.2992 55.3271 32.1309 55.6393 32.6641 56.2637C33.1973 56.8835 33.4639 57.8473 33.4639 59.1553ZM32.1719 59.1553C32.1719 58.1344 32.0192 57.3939 31.7139 56.9336C31.4131 56.4688 30.9049 56.2363 30.1895 56.2363C29.4694 56.2363 28.9476 56.4733 28.624 56.9473C28.305 57.4167 28.1455 58.1527 28.1455 59.1553C28.1455 60.1305 28.3027 60.8643 28.6172 61.3564C28.9362 61.8441 29.4352 62.0879 30.1143 62.0879C30.8525 62.0879 31.3789 61.8509 31.6934 61.377C32.0124 60.903 32.1719 60.1624 32.1719 59.1553ZM36.5098 58.5742V62.8604H35.2793V57.043C35.2793 56.61 35.2747 56.2637 35.2656 56.0039C35.2611 55.7396 35.252 55.5596 35.2383 55.4639H36.4004C36.4095 55.5505 36.4163 55.6598 36.4209 55.792C36.43 55.9242 36.4368 56.07 36.4414 56.2295C36.446 56.389 36.4505 56.5553 36.4551 56.7285H36.4756C36.7581 56.2181 37.084 55.8581 37.4531 55.6484C37.8268 55.4342 38.2894 55.3271 38.8408 55.3271C39.652 55.3271 40.2445 55.5345 40.6182 55.9492C40.9964 56.3639 41.1855 57.0247 41.1855 57.9316V62.8604H39.9482V58.1709C39.9482 57.4645 39.8343 56.9723 39.6064 56.6943C39.3786 56.4163 38.9844 56.2773 38.4238 56.2773C37.8314 56.2773 37.3643 56.4801 37.0225 56.8857C36.6807 57.2913 36.5098 57.8542 36.5098 58.5742ZM46.1387 62.8057C45.7376 62.915 45.3229 62.9697 44.8945 62.9697C44.4023 62.9697 44.0332 62.8307 43.7871 62.5527C43.541 62.2702 43.418 61.8509 43.418 61.2949V56.3594H42.5635V55.4639H43.4658L43.8281 53.8096H44.6484V55.4639H46.0156V56.3594H44.6484V61.0283C44.6484 61.3838 44.7054 61.6344 44.8193 61.7803C44.9378 61.9215 45.1406 61.9922 45.4277 61.9922C45.5827 61.9922 45.8197 61.9603 46.1387 61.8965V62.8057ZM49.3281 62.9971C48.5853 62.9971 48.027 62.8011 47.6533 62.4092C47.2796 62.0173 47.0928 61.4795 47.0928 60.7959C47.0928 60.0303 47.3434 59.4424 47.8447 59.0322C48.3506 58.6221 49.1641 58.4033 50.2852 58.376L51.9463 58.3486V57.9453C51.9463 57.3438 51.8187 56.9131 51.5635 56.6533C51.3083 56.3936 50.9072 56.2637 50.3604 56.2637C49.8089 56.2637 49.4079 56.3571 49.1572 56.5439C48.9066 56.7308 48.7562 57.0293 48.7061 57.4395L47.4209 57.3232C47.6305 55.9925 48.6195 55.3271 50.3877 55.3271C51.3174 55.3271 52.0169 55.5413 52.4863 55.9697C52.9557 56.3936 53.1904 57.0088 53.1904 57.8154V61.001C53.1904 61.3656 53.2383 61.6413 53.334 61.8281C53.4297 62.0104 53.612 62.1016 53.8809 62.1016C54.0085 62.1016 54.1429 62.0856 54.2842 62.0537V62.8193C54.1292 62.8558 53.972 62.8831 53.8125 62.9014C53.653 62.9196 53.4935 62.9287 53.334 62.9287C52.8783 62.9287 52.5456 62.8102 52.3359 62.5732C52.1309 62.3317 52.0146 61.9557 51.9873 61.4453H51.9463C51.6318 62.0104 51.265 62.4115 50.8457 62.6484C50.431 62.8809 49.9251 62.9971 49.3281 62.9971ZM51.9463 59.21L50.5996 59.2373C50.0254 59.2419 49.5879 59.3011 49.2871 59.415C48.9863 59.5244 48.7562 59.693 48.5967 59.9209C48.4372 60.1488 48.3574 60.4473 48.3574 60.8164C48.3574 61.2174 48.4645 61.5273 48.6787 61.7461C48.8975 61.9648 49.2074 62.0742 49.6084 62.0742C50.0641 62.0742 50.4652 61.9717 50.8115 61.7666C51.1624 61.5615 51.4382 61.2812 51.6387 60.9258C51.8438 60.5658 51.9463 60.1966 51.9463 59.8184V59.21ZM56.7148 52.7158V62.8604H55.4844V52.7158H56.7148Z" fill="#BCBEC1"/>
</svg>
