<svg width="24" height="24" viewBox="0 0 24 24" fill="none" xmlns="http://www.w3.org/2000/svg">
<path d="M12.051 18.0015C12.2789 18.0015 12.4649 17.9235 12.6148 17.7736C12.7648 17.6236 12.8428 17.4316 12.8428 17.2097V11.5351C12.8428 11.3132 12.7648 11.1212 12.6148 10.9713C12.4649 10.8213 12.2729 10.7433 12.045 10.7433C11.817 10.7433 11.6311 10.8213 11.4811 10.9713C11.3312 11.1212 11.2532 11.3132 11.2532 11.5351V17.2097C11.2532 17.4316 11.3312 17.6236 11.4811 17.7736C11.6311 17.9235 11.823 18.0015 12.051 18.0015ZM11.997 8.67383C12.2549 8.67383 12.4709 8.58985 12.6508 8.4159C12.8248 8.24194 12.9148 8.03199 12.9148 7.77406C12.9148 7.51612 12.8248 7.28818 12.6508 7.10822C12.4769 6.93427 12.2609 6.84429 12.003 6.84429C11.7451 6.84429 11.5231 6.93427 11.3492 7.10822C11.1752 7.28818 11.0912 7.50412 11.0912 7.76806C11.0912 8.03199 11.1812 8.23594 11.3552 8.4099C11.5291 8.58385 11.7451 8.66783 12.003 8.66783L11.997 8.67383ZM12.003 24C10.3414 24 8.78181 23.6881 7.33017 23.0582C5.87253 22.4284 4.60685 21.5706 3.52112 20.4849C2.43539 19.3991 1.57761 18.1275 0.947763 16.6758C0.317921 15.2242 0 13.6646 0 12.003C0 10.3414 0.311922 8.7878 0.941765 7.32417C1.57161 5.86653 2.42939 4.59485 3.51512 3.51512C4.60085 2.43539 5.87253 1.57761 7.32417 0.947763C8.77581 0.317921 10.3354 0 11.997 0C13.6586 0 15.2122 0.311922 16.6758 0.941765C18.1335 1.57161 19.4051 2.42339 20.4849 3.50312C21.5646 4.58285 22.4224 5.85454 23.0522 7.31217C23.6821 8.76981 24 10.3294 24 11.985C24 13.6406 23.6881 15.2062 23.0582 16.6578C22.4284 18.1155 21.5766 19.3812 20.4969 20.4669C19.4171 21.5526 18.1455 22.4104 16.6878 23.0402C15.2302 23.6701 13.6706 23.988 12.015 23.988L12.003 24ZM12.003 22.4104C14.9003 22.4104 17.3597 21.3967 19.3752 19.3752C21.3967 17.3537 22.4044 14.8883 22.4044 11.997C22.4044 9.09973 21.3967 6.64034 19.3812 4.62484C17.3657 2.60335 14.9003 1.5956 11.997 1.5956C9.10572 1.5956 6.64634 2.60335 4.62484 4.61885C2.60335 6.63434 1.5896 9.09973 1.5896 12.003C1.5896 14.9063 2.60335 17.3537 4.62484 19.3752C6.64634 21.3967 9.11172 22.4104 12.003 22.4104Z" fill="#636466"/>
</svg>
