<svg width="57" height="78" viewBox="0 0 57 78" fill="none" xmlns="http://www.w3.org/2000/svg">
<path d="M19.3916 56.7771L38.2076 50.019L52.2076 55.6743C53.1456 56.1409 53.9156 56.1409 54.8536 55.5188C55.6376 54.8967 56.0996 54.105 56.0996 53.0022V9.18778C56.0996 8.56569 55.9456 7.92947 55.4836 7.30739C55.1756 6.99635 54.5456 6.51565 54.0836 6.20461L39.9156 1.17139C39.4536 1.01587 38.8236 0.860352 38.3616 0.860352C37.8996 0.860352 37.2696 1.01587 36.8076 1.17139L17.9916 7.77395L3.99161 2.27418C3.05361 1.80761 2.28361 1.96313 1.34561 2.4297C0.561611 2.89626 0.0996094 3.688 0.0996094 4.79078V49.0859C0.0996094 49.708 0.253609 50.1887 0.715607 50.6552C1.17761 51.1218 1.65361 51.447 2.11561 51.6025L16.2696 56.6357C16.7316 56.7912 17.3616 56.7912 17.8236 56.7912C18.2856 56.7912 18.9156 56.9468 19.3776 56.7912L19.3916 56.7771ZM20.4836 51.2773V11.6902L35.7296 6.50151V46.2441L20.4836 51.2773ZM15.8216 51.2773L4.77561 47.6579V7.44877L15.8216 11.6902V51.2773ZM51.4376 50.4856L40.3916 46.2441V6.51565L51.4376 10.135V50.5139V50.4856ZM40.3916 6.50151V46.2441V6.51565V6.50151Z" fill="#BCBEC1"/>
<path d="M8.68066 70.9238C10.0296 70.9238 11.0436 70.2562 11.7227 68.9209L12.7891 69.4541C12.3926 70.2835 11.8343 70.9147 11.1143 71.3477C10.3988 71.7806 9.56706 71.9971 8.61914 71.9971C7.64388 71.9971 6.80534 71.7943 6.10352 71.3887C5.40169 70.9831 4.86165 70.4066 4.4834 69.6592C4.1097 68.9072 3.92285 68.0208 3.92285 67C3.92285 65.9746 4.1097 65.0951 4.4834 64.3613C4.8571 63.6276 5.39486 63.0648 6.09668 62.6729C6.7985 62.2809 7.63704 62.085 8.6123 62.085C9.6377 62.085 10.4945 62.2855 11.1826 62.6865C11.8708 63.0876 12.3766 63.6823 12.7002 64.4707L11.4629 64.8809C11.2396 64.3203 10.8796 63.8919 10.3828 63.5957C9.89062 63.2995 9.30501 63.1514 8.62598 63.1514C7.55957 63.1514 6.73014 63.4954 6.1377 64.1836C5.54525 64.8672 5.24902 65.806 5.24902 67C5.24902 67.7839 5.38802 68.472 5.66602 69.0645C5.94857 69.6523 6.34505 70.1104 6.85547 70.4385C7.37044 70.762 7.97884 70.9238 8.68066 70.9238ZM15.7803 68.0049V71.8604H14.5498V66.1865C14.5498 65.9268 14.5452 65.6533 14.5361 65.3662C14.5316 65.0791 14.5225 64.7783 14.5088 64.4639H15.6709C15.68 64.6735 15.6868 64.8626 15.6914 65.0312C15.7005 65.1999 15.7074 65.348 15.7119 65.4756C15.7165 65.5986 15.7188 65.7035 15.7188 65.79C15.7233 65.8721 15.7256 65.9336 15.7256 65.9746H15.7529C15.8896 65.528 16.04 65.1816 16.2041 64.9355C16.3636 64.7077 16.5459 64.5505 16.751 64.4639C16.9561 64.3727 17.209 64.3271 17.5098 64.3271C17.6784 64.3271 17.8447 64.3499 18.0088 64.3955V65.5234C17.8538 65.4779 17.6351 65.4551 17.3525 65.4551C16.8421 65.4551 16.4525 65.6761 16.1836 66.1182C15.9147 66.5557 15.7803 67.1846 15.7803 68.0049ZM25.6895 68.1553C25.6895 69.4495 25.4046 70.4134 24.835 71.0469C24.2653 71.6803 23.4382 71.9971 22.3535 71.9971C21.2734 71.9971 20.4577 71.6689 19.9062 71.0127C19.3548 70.3519 19.0791 69.3994 19.0791 68.1553C19.0791 66.8792 19.3548 65.9222 19.9062 65.2842C20.4622 64.6462 21.2917 64.3271 22.3945 64.3271C23.5247 64.3271 24.3564 64.6393 24.8896 65.2637C25.4229 65.8835 25.6895 66.8473 25.6895 68.1553ZM24.3975 68.1553C24.3975 67.1344 24.2448 66.3939 23.9395 65.9336C23.6387 65.4688 23.1305 65.2363 22.415 65.2363C21.695 65.2363 21.1732 65.4733 20.8496 65.9473C20.5306 66.4167 20.3711 67.1527 20.3711 68.1553C20.3711 69.1305 20.5283 69.8643 20.8428 70.3564C21.1618 70.8441 21.6608 71.0879 22.3398 71.0879C23.0781 71.0879 23.6045 70.8509 23.9189 70.377C24.238 69.903 24.3975 69.1624 24.3975 68.1553ZM27.1221 68.1963C27.1221 66.9066 27.3477 65.9404 27.7988 65.2979C28.2546 64.6507 28.9359 64.3271 29.8428 64.3271C30.4033 64.3271 30.8682 64.4274 31.2373 64.6279C31.6064 64.8239 31.9141 65.152 32.1602 65.6123C32.1602 65.5212 32.1647 65.3799 32.1738 65.1885C32.1829 64.9925 32.1943 64.8102 32.208 64.6416C32.2217 64.473 32.2331 64.3818 32.2422 64.3682H33.4248C33.4066 64.5003 33.3929 64.735 33.3838 65.0723C33.3792 65.4095 33.377 65.847 33.377 66.3848V74.7656H32.1465V71.7646L32.1738 70.6436H32.1602C31.9141 71.1312 31.611 71.4798 31.251 71.6895C30.891 71.8945 30.4215 71.9971 29.8428 71.9971C28.904 71.9971 28.2158 71.6803 27.7783 71.0469C27.3408 70.4134 27.1221 69.4632 27.1221 68.1963ZM32.1465 68.0732C32.1465 67.1117 31.9893 66.3984 31.6748 65.9336C31.3604 65.4688 30.859 65.2363 30.1709 65.2363C29.5465 65.2363 29.0977 65.4688 28.8242 65.9336C28.5508 66.3984 28.4141 67.139 28.4141 68.1553C28.4141 69.1898 28.5508 69.9303 28.8242 70.377C29.1022 70.8236 29.5465 71.0469 30.1572 71.0469C30.8545 71.0469 31.3604 70.7985 31.6748 70.3018C31.9893 69.805 32.1465 69.0622 32.1465 68.0732ZM40.1963 70.5957C39.9137 71.1061 39.5856 71.4684 39.2119 71.6826C38.8428 71.8923 38.3825 71.9971 37.8311 71.9971C37.0199 71.9971 36.4251 71.7965 36.0469 71.3955C35.6732 70.9899 35.4863 70.3223 35.4863 69.3926V64.4639H36.7236V69.1533C36.7236 69.8916 36.8376 70.3929 37.0654 70.6572C37.2979 70.917 37.6921 71.0469 38.248 71.0469C38.8405 71.0469 39.3076 70.8441 39.6494 70.4385C39.9912 70.0329 40.1621 69.4701 40.1621 68.75V64.4639H41.3926V70.2812C41.3926 70.7096 41.3949 71.056 41.3994 71.3203C41.4085 71.5846 41.4199 71.7646 41.4336 71.8604H40.2715C40.2669 71.8376 40.2578 71.7305 40.2441 71.5391C40.235 71.3477 40.2259 71.0332 40.2168 70.5957H40.1963ZM44.7871 61.7158V62.8916H43.5566V61.7158H44.7871ZM44.7871 64.4639V71.8604H43.5566V64.4639H44.7871ZM52.4814 69.8164C52.4814 70.5137 52.2171 71.0514 51.6885 71.4297C51.1644 71.8079 50.4284 71.9971 49.4805 71.9971C48.5599 71.9971 47.849 71.8467 47.3477 71.5459C46.8509 71.2406 46.5273 70.7666 46.377 70.124L47.4639 69.9121C47.5687 70.3086 47.7852 70.6003 48.1133 70.7871C48.4414 70.9694 48.8971 71.0605 49.4805 71.0605C50.1048 71.0605 50.5605 70.9648 50.8477 70.7734C51.1393 70.582 51.2852 70.2949 51.2852 69.9121C51.2852 69.6204 51.1849 69.3835 50.9844 69.2012C50.7839 69.0189 50.4603 68.8685 50.0137 68.75C49.485 68.6087 49.0635 68.4925 48.749 68.4014C48.4391 68.3102 48.1999 68.2327 48.0312 68.1689C47.8626 68.1006 47.7282 68.0368 47.6279 67.9775C47.3271 67.8044 47.0924 67.5924 46.9238 67.3418C46.7552 67.0911 46.6709 66.7835 46.6709 66.4189C46.6709 65.7445 46.9102 65.2318 47.3887 64.8809C47.8717 64.5254 48.5736 64.3477 49.4941 64.3477C50.3099 64.3477 50.957 64.4912 51.4355 64.7783C51.9186 65.0654 52.224 65.5257 52.3516 66.1592L51.2441 66.2959C51.1758 65.9678 50.9912 65.7171 50.6904 65.5439C50.3942 65.3662 49.9954 65.2773 49.4941 65.2773C48.9382 65.2773 48.528 65.3617 48.2637 65.5303C47.9993 65.6989 47.8672 65.9541 47.8672 66.2959C47.8672 66.5465 47.9424 66.7539 48.0928 66.918C48.2432 67.0775 48.5303 67.2096 48.9541 67.3145C49.5238 67.4512 50.0661 67.6016 50.5811 67.7656C51.096 67.9251 51.4652 68.0846 51.6885 68.2441C51.9482 68.431 52.1442 68.652 52.2764 68.9072C52.4131 69.1579 52.4814 69.4609 52.4814 69.8164Z" fill="#BCBEC1"/>
</svg>
