<svg width="59" height="59" viewBox="0 0 59 59" fill="none" xmlns="http://www.w3.org/2000/svg">
<rect x="0.75" y="0.75" width="57.4541" height="57.0556" rx="28.5278" fill="#592272"/>
<rect x="0.75" y="0.75" width="57.4541" height="57.0556" rx="28.5278" stroke="#C8C8C8" stroke-width="1.5"/>
<path d="M21.601 42.7773C20.9159 42.7773 20.3278 42.5318 19.8366 42.0406C19.3455 41.5494 19.0999 40.9613 19.0999 40.2762V19.0062H17.4844V16.9972H24.4424V15.7773H34.5127V16.9972H41.4707V19.0062H39.8552V40.2762C39.8552 40.9635 39.6102 41.5522 39.1201 42.0422C38.6301 42.5323 38.0414 42.7773 37.3541 42.7773H21.601ZM37.8461 19.0062H21.109V40.2762C21.109 40.4197 21.1568 40.5376 21.2525 40.6299C21.3482 40.7221 21.4643 40.7683 21.601 40.7683H37.3541C37.4771 40.7683 37.5899 40.717 37.6924 40.6145C37.7949 40.512 37.8461 40.3992 37.8461 40.2762V19.0062ZM25.4614 37.4512H27.4705V22.2967H25.4614V37.4512ZM31.4846 37.4512H33.4937V22.2967H31.4846V37.4512Z" fill="white"/>
</svg>
