<svg width="18" height="20" viewBox="0 0 18 20" fill="none" xmlns="http://www.w3.org/2000/svg">
<g id="delete">
<path id="delete_2" d="M3.41761 20C2.93207 20 2.51524 19.8181 2.16714 19.4542C1.81903 19.0904 1.64498 18.6548 1.64498 18.1473V2.39177H0.5V0.903578H5.43143V0H12.5686V0.903578H17.5V2.39177H16.355V18.1473C16.355 18.6564 16.1814 19.0925 15.834 19.4555C15.4867 19.8185 15.0695 20 14.5824 20H3.41761ZM14.9311 2.39177H3.06888V18.1473C3.06888 18.2536 3.10278 18.3409 3.17059 18.4093C3.23841 18.4776 3.32074 18.5118 3.41761 18.5118H14.5824C14.6696 18.5118 14.7495 18.4738 14.8221 18.3979C14.8948 18.322 14.9311 18.2384 14.9311 18.1473V2.39177ZM6.15362 16.0547H7.57752V4.82912H6.15362V16.0547ZM10.4225 16.0547H11.8464V4.82912H10.4225V16.0547Z" fill="#592272"/>
</g>
</svg>
