<svg width="32" height="33" viewBox="0 0 32 33" fill="none" xmlns="http://www.w3.org/2000/svg">
<g id="Component 29">
<path id="Vector" d="M2.8398 2.54V13.596V13.508V29.284V2.54ZM7.8878 18.356H13.5118C13.7358 17.972 13.9838 17.612 14.2478 17.268C14.5198 16.932 14.8158 16.612 15.1438 16.316H7.8878C7.5998 16.316 7.3598 16.412 7.1598 16.612C6.9678 16.812 6.8638 17.052 6.8638 17.34C6.8638 17.628 6.9598 17.868 7.1598 18.068C7.3518 18.26 7.5998 18.356 7.8878 18.356ZM7.8878 25.044H12.3518C12.2878 24.708 12.2398 24.372 12.2078 24.028C12.1758 23.684 12.1758 23.348 12.1998 23.012H7.8878C7.5998 23.012 7.3598 23.108 7.1598 23.308C6.9678 23.508 6.8638 23.748 6.8638 24.036C6.8638 24.324 6.9598 24.564 7.1598 24.764C7.3518 24.956 7.5998 25.052 7.8878 25.052V25.044ZM3.3358 31.324C2.6398 31.324 2.0478 31.076 1.5438 30.58C1.0478 30.084 0.799805 29.484 0.799805 28.788V3.036C0.799805 2.34 1.0478 1.74 1.5438 1.244C2.0398 0.748 2.6398 0.5 3.3358 0.5H15.9758C16.3278 0.5 16.6638 0.572 16.9678 0.708C17.2798 0.844 17.5518 1.028 17.7838 1.252L24.3758 7.844C24.5998 8.076 24.7838 8.348 24.9198 8.66C25.0558 8.972 25.1278 9.3 25.1278 9.652V14.148C24.8078 14.012 24.4798 13.9 24.1358 13.812C23.7918 13.724 23.4478 13.652 23.0878 13.596V9.564H17.2638C16.9118 9.564 16.6158 9.444 16.3678 9.196C16.1198 8.948 15.9998 8.652 15.9998 8.3V2.54H3.3438C3.2158 2.54 3.1038 2.596 2.9998 2.7C2.8958 2.804 2.8398 2.916 2.8398 3.044V28.796C2.8398 28.924 2.8958 29.036 2.9998 29.14C3.1038 29.244 3.2158 29.3 3.3438 29.3H14.3758C14.7518 29.74 15.1678 30.132 15.6158 30.468C16.0718 30.804 16.5598 31.1 17.0878 31.34H3.3358V31.324ZM21.8958 27.716C23.1678 27.716 24.2318 27.284 25.0958 26.412C25.9598 25.548 26.3918 24.476 26.3918 23.204C26.3918 21.932 25.9598 20.868 25.0878 20.004C24.2238 19.14 23.1518 18.708 21.8798 18.708C20.6078 18.708 19.5438 19.14 18.6798 20.012C17.8158 20.876 17.3838 21.948 17.3838 23.22C17.3838 24.492 17.8158 25.556 18.6878 26.42C19.5518 27.284 20.6238 27.716 21.8958 27.716ZM30.8878 32.204C30.6958 32.396 30.4558 32.5 30.1678 32.5C29.8798 32.5 29.6478 32.404 29.4478 32.204L25.7358 28.476C25.1918 28.876 24.5918 29.188 23.9438 29.412C23.2958 29.636 22.6078 29.748 21.8878 29.748C20.0718 29.748 18.5278 29.108 17.2558 27.836C15.9838 26.564 15.3438 25.02 15.3438 23.196C15.3438 21.372 15.9838 19.836 17.2558 18.564C18.5278 17.292 20.0718 16.66 21.8958 16.66C23.7198 16.66 25.2558 17.3 26.5278 18.572C27.7998 19.844 28.4318 21.388 28.4318 23.204C28.4318 23.924 28.3198 24.604 28.0958 25.26C27.8718 25.908 27.5598 26.508 27.1598 27.052L30.8878 30.764C31.0798 30.956 31.1838 31.196 31.1838 31.484C31.1838 31.764 31.0878 32.004 30.8878 32.204Z" fill="#592272"/>
</g>
</svg>
