<svg width="18" height="18" viewBox="0 0 18 18" fill="none" xmlns="http://www.w3.org/2000/svg">
<g id="Group 24160">
<path id="phone_in_talk" d="M16.2346 8.77652C16.1342 6.82694 15.4038 5.17192 14.0433 3.81145C12.6828 2.45098 11.0299 1.72266 9.08462 1.62649V0.370117C10.2265 0.409451 11.2985 0.655393 12.3006 1.10794C13.3028 1.56051 14.1812 2.16521 14.9359 2.92205C15.6906 3.67888 16.2942 4.55837 16.7468 5.56051C17.1993 6.56264 17.4474 7.63465 17.491 8.77652H16.2346ZM12.1231 8.77652C12.0226 7.97525 11.6914 7.29266 11.1295 6.72876C10.5675 6.16488 9.88591 5.83806 9.08462 5.74831V4.49193C10.2338 4.58168 11.2117 5.02986 12.0186 5.83648C12.8254 6.6431 13.279 7.62311 13.3795 8.77652H12.1231ZM16.4032 17.6304C14.5929 17.6304 12.7431 17.186 10.8535 16.2974C8.96401 15.4087 7.20878 14.1539 5.58784 12.533C3.9733 10.912 2.7217 9.15838 1.83303 7.27206C0.944343 5.38574 0.5 3.53745 0.5 1.7272C0.5 1.41658 0.603542 1.15613 0.810626 0.945844C1.01771 0.735543 1.27657 0.630392 1.5872 0.630392H4.57641C4.83443 0.630392 5.05542 0.714476 5.23939 0.882643C5.42337 1.05081 5.54848 1.26503 5.61471 1.52529L6.20327 4.29235C6.23953 4.55147 6.23117 4.78081 6.17817 4.98038C6.12518 5.17995 6.02648 5.34766 5.88207 5.48351L3.53908 7.76499C3.96045 8.50217 4.41611 9.18947 4.90606 9.82687C5.39603 10.4643 5.92606 11.0661 6.49614 11.6323C7.09444 12.2417 7.73077 12.8009 8.40512 13.3099C9.07949 13.8189 9.80322 14.2849 10.5763 14.708L12.8372 12.3971C13.0005 12.2206 13.188 12.1003 13.3997 12.0362C13.6115 11.9721 13.8321 11.9567 14.0616 11.99L16.6051 12.5349C16.8688 12.5973 17.0838 12.7306 17.2503 12.9348C17.4168 13.1391 17.5 13.3705 17.5 13.6292V16.5432C17.5 16.8538 17.3948 17.1127 17.1845 17.3198C16.9743 17.5268 16.7138 17.6304 16.4032 17.6304ZM2.92433 6.60606L4.89486 4.7022C4.92265 4.67655 4.94135 4.64129 4.95096 4.5964C4.96058 4.55154 4.96111 4.50987 4.95256 4.4714L4.44359 2.04065C4.43504 1.98935 4.41367 1.95088 4.37949 1.92525C4.3453 1.8996 4.30256 1.88677 4.25126 1.88677H1.89613C1.85768 1.88677 1.82563 1.8996 1.79998 1.92525C1.77433 1.95088 1.7615 1.98293 1.7615 2.0214C1.788 2.71158 1.89709 3.43573 2.08875 4.19385C2.28042 4.95197 2.55895 5.75604 2.92433 6.60606ZM11.7628 15.3061C12.4393 15.633 13.1685 15.8861 13.9503 16.0654C14.7322 16.2446 15.4517 16.3462 16.109 16.3702C16.1475 16.3702 16.1795 16.3573 16.2051 16.3317C16.2308 16.3061 16.2436 16.274 16.2436 16.2355V13.8984C16.2436 13.8471 16.2308 13.8043 16.2051 13.7701C16.1795 13.7359 16.141 13.7146 16.0897 13.706L13.8782 13.2522C13.8398 13.2436 13.8061 13.2442 13.7773 13.2538C13.7484 13.2634 13.718 13.2821 13.6859 13.3099L11.7628 15.3061Z" fill="white"/>
<g id="Vector 79">
<path d="M4.42278 1.67773H1.48047C1.48047 4.03158 2.35226 6.14568 2.78816 6.9085L5.07662 4.62004L4.42278 1.67773Z" fill="white"/>
<path d="M13.5766 12.7931L11.6151 15.4085C12.6612 16.7162 15.3202 16.8252 16.5189 16.7162V13.447L13.5766 12.7931Z" fill="white"/>
</g>
</g>
</svg>
