<svg width="60" height="60" viewBox="0 0 60 60" fill="none" xmlns="http://www.w3.org/2000/svg">
<rect width="60" height="60" rx="30" fill="#3D761B"/>
<path d="M49.52 16.27C49.2 15.95 48.88 15.79 48.4 15.79C48.08 15.79 47.6 15.95 47.28 16.27L23.33 40.2L12.73 29.6C12.41 29.28 12.09 29.12 11.61 29.12C11.29 29.12 10.81 29.28 10.49 29.6C10.17 29.92 10 30.4 10 30.88C10 31.36 10.16 31.84 10.48 32.17L21.89 43.58C21.89 43.58 22 43.68 22.03 43.71C22.06 43.71 22.72 44.31 23.52 44.31C24.25 44.31 24.91 43.61 24.91 43.61C24.91 43.61 24.93 43.59 24.94 43.58L49.52 18.68C49.84 18.2 50 17.88 50 17.39C50 17.07 49.84 16.59 49.52 16.27Z" fill="white"/>
</svg>
