<svg width="35" height="28" viewBox="0 0 35 28" fill="none" xmlns="http://www.w3.org/2000/svg">
<g id="id_card">
<path id="id_card_2" d="M28.443 14.7852C28.7705 14.7852 29.0446 14.675 29.2653 14.4547C29.486 14.2344 29.5963 13.9609 29.5963 13.6342C29.5963 13.3075 29.486 13.0359 29.2653 12.8192C29.0446 12.6025 28.7705 12.4942 28.443 12.4942H22.8627C22.5351 12.4942 22.261 12.6044 22.0403 12.8247C21.8193 13.045 21.7088 13.3185 21.7088 13.6452C21.7088 13.9718 21.8193 14.2435 22.0403 14.4602C22.261 14.6769 22.5351 14.7852 22.8627 14.7852H28.443ZM28.443 9.5254C28.7705 9.5254 29.0446 9.41525 29.2653 9.19493C29.486 8.97461 29.5963 8.70112 29.5963 8.37444C29.5963 8.04777 29.486 7.77625 29.2653 7.55988C29.0446 7.34321 28.7705 7.23488 28.443 7.23488H22.8627C22.5351 7.23488 22.261 7.34503 22.0403 7.56535C21.8193 7.78567 21.7088 8.05916 21.7088 8.38584C21.7088 8.71251 21.8193 8.98419 22.0403 9.20086C22.261 9.41722 22.5351 9.5254 22.8627 9.5254H28.443ZM12.0082 15.9143C10.9283 15.9143 9.9914 15.9984 9.1974 16.1668C8.40341 16.3351 7.70582 16.6027 7.10466 16.9695C6.55707 17.2618 6.13849 17.6154 5.84893 18.0302C5.55906 18.445 5.41413 18.8863 5.41413 19.3539C5.41413 19.6274 5.52141 19.8596 5.73598 20.0504C5.95024 20.2413 6.21226 20.3367 6.52202 20.3367H17.494C17.8041 20.3367 18.0662 20.2367 18.2805 20.0368C18.4947 19.8368 18.6019 19.5908 18.6019 19.2988C18.6019 18.8788 18.4632 18.4713 18.1859 18.0763C17.9083 17.6812 17.4937 17.3143 16.9421 16.9754C16.3275 16.6047 15.6215 16.3351 14.8241 16.1668C14.0267 15.9984 13.0881 15.9143 12.0082 15.9143ZM12.005 13.0859C12.8538 13.0859 13.5763 12.7909 14.1726 12.2011C14.7686 11.6113 15.0665 10.895 15.0665 10.0523C15.0665 9.20967 14.7695 8.49235 14.1753 7.90038C13.5812 7.30872 12.8598 7.01289 12.011 7.01289C11.1622 7.01289 10.4398 7.30781 9.84387 7.89765C9.2476 8.48749 8.94947 9.20375 8.94947 10.0464C8.94947 10.8891 9.24653 11.6063 9.84065 12.1979C10.4348 12.7899 11.1562 13.0859 12.005 13.0859ZM2.87235 27.3496C2.08325 27.3496 1.40725 27.0702 0.84435 26.5113C0.28145 25.9525 0 25.2814 0 24.4979V2.85165C0 2.06824 0.28145 1.39711 0.84435 0.838266C1.40725 0.279422 2.08325 0 2.87235 0H32.0219C32.8111 0 33.487 0.279422 34.0499 0.838266C34.6129 1.39711 34.8943 2.06824 34.8943 2.85165V24.4979C34.8943 25.2814 34.6129 25.9525 34.0499 26.5113C33.487 27.0702 32.8111 27.3496 32.0219 27.3496H2.87235ZM2.87235 25.0586H32.0219C32.1631 25.0586 32.2925 25.0003 32.4104 24.8836C32.5279 24.7666 32.5867 24.638 32.5867 24.4979V2.85165C32.5867 2.71156 32.5279 2.58302 32.4104 2.46602C32.2925 2.34933 32.1631 2.29098 32.0219 2.29098H2.87235C2.73124 2.29098 2.60177 2.34933 2.48392 2.46602C2.36638 2.58302 2.30762 2.71156 2.30762 2.85165V24.4979C2.30762 24.638 2.36638 24.7666 2.48392 24.8836C2.60177 25.0003 2.73124 25.0586 2.87235 25.0586Z" fill="#592272"/>
</g>
</svg>
