<svg width="110" height="69" viewBox="0 0 110 69" fill="none" xmlns="http://www.w3.org/2000/svg">
<mask id="path-1-inside-1_4679_16660" fill="white">
<path d="M96.8594 41.0283C97.8385 41.0316 98.7962 40.7504 99.6091 40.221C100.422 39.6917 101.053 38.9383 101.42 38.058C101.436 38.0306 101.45 38.0022 101.461 37.9729C102.219 36.0456 102.605 33.9998 102.602 31.9372C102.6 29.1408 101.906 26.3857 100.578 23.904C99.2488 21.4224 97.3245 19.2869 94.9669 17.6778C92.9014 13.7384 89.5591 8.44957 85.2374 5.28133C79.4167 1.01467 72.0427 0.426758 64.941 0.426758C55.577 0.426758 48.5435 1.78575 42.8092 4.69696C39.4183 6.41876 34.0654 9.77844 31.3298 12.2093C29.868 13.5092 25.7686 16.3341 25.0261 16.8446C24.462 16.9669 22.3922 17.4195 21.4804 17.6689C16.7804 18.9564 14.2562 19.991 11.7198 22.7196C9.39724 25.2178 7.82145 29.543 7.60826 34.0052C7.58878 34.715 7.61179 35.4252 7.67711 36.1324C7.94817 38.9561 10.0874 41.0053 12.7645 41.0053L96.6468 41.0188C96.7168 41.0236 96.7851 41.0283 96.8594 41.0283ZM100.152 37.4098C100.14 37.4326 100.129 37.4561 100.119 37.4801C99.8654 38.1181 99.4179 38.6662 98.8359 39.0521C98.2539 39.438 97.5649 39.6436 96.86 39.6415C96.8204 39.6415 96.7802 39.6415 96.7412 39.6356L96.6553 39.6309H96.6182L12.7639 39.6203C10.8421 39.6203 9.30167 38.1 9.10004 36.0053C9.0428 35.3623 9.02241 34.7167 9.03908 34.0714C9.2346 29.9761 10.7045 25.8849 12.784 23.6485C15.0834 21.1745 17.4455 20.2167 21.8708 19.0043C22.8691 18.7313 25.4518 18.177 25.478 18.1688C25.5701 18.149 25.6573 18.1116 25.7345 18.0589C25.9336 17.9236 30.625 14.7157 32.2964 13.2332C34.8639 10.9549 40.1486 7.61644 43.4744 5.92656C48.9967 3.1217 55.8188 1.8153 64.9434 1.8153C72.8619 1.8153 79.1968 2.59288 84.3779 6.38921C88.5376 9.43928 91.7842 14.6371 93.7748 18.4613C93.8285 18.5649 93.9083 18.6537 94.0069 18.7195C96.2163 20.1948 98.023 22.1688 99.2715 24.4716C100.52 26.7744 101.173 29.3371 101.174 31.939C101.176 33.8075 100.83 35.6609 100.152 37.4098ZM74.1313 18.4979L86.9106 18.4719C87.278 18.4747 87.6395 18.382 87.9574 18.2033C88.2753 18.0247 88.5381 17.7667 88.7184 17.4562C88.8988 17.1457 88.99 16.794 88.9828 16.4377C88.9755 16.0814 88.8699 15.7334 88.6771 15.4301L88.3725 14.867C87.0724 12.4881 85.2695 10.402 83.0817 8.74501C79.9417 6.27872 78.2234 5.40778 73.5935 4.7661C73.0663 4.70438 72.5343 4.68974 72.0043 4.72237C71.4651 4.73023 70.9504 4.94249 70.5704 5.31374C70.1904 5.68498 69.9753 6.18574 69.9711 6.70887V14.1343C69.9711 14.1515 69.9711 14.1692 69.9711 14.1863C69.9711 14.2164 69.9711 14.2401 69.9711 14.2643C69.972 15.3225 70.3818 16.3419 71.1194 17.1215C71.8571 17.901 72.8691 18.3841 73.9559 18.4754C74.0132 18.49 74.0721 18.4976 74.1313 18.4979ZM72.5885 6.0926C72.8563 6.09046 73.1239 6.10626 73.3894 6.13987C77.7142 6.73842 79.2278 7.50418 82.1808 9.82334C84.2191 11.3651 85.8989 13.3069 87.1104 15.5217L87.4229 16.0984C87.4321 16.1149 87.4412 16.1303 87.4516 16.1462C87.5129 16.2382 87.5474 16.3444 87.5517 16.4539C87.5559 16.5633 87.5295 16.6718 87.4754 16.7679C87.4213 16.864 87.3415 16.9441 87.2443 16.9999C87.1472 17.0556 87.0363 17.0849 86.9234 17.0845L74.2464 17.1105C74.2183 17.1049 74.1899 17.1014 74.1612 17.0999C73.4147 17.0583 72.7129 16.7414 72.1994 16.2141C71.686 15.6868 71.3998 14.989 71.3995 14.2637L71.4056 14.1733C71.4072 14.1315 71.4052 14.0896 71.3995 14.0481V6.72128C71.3996 6.55928 71.4659 6.40395 71.5838 6.28923C71.7017 6.17452 71.8617 6.10977 72.0287 6.10914H72.0798C72.0841 6.10678 72.2985 6.0926 72.5885 6.0926ZM62.9778 18.4979C63.0377 18.4981 63.0975 18.4909 63.1556 18.4766C64.2425 18.3853 65.2546 17.9022 65.9923 17.1227C66.7301 16.3431 67.14 15.3237 67.1411 14.2655C67.1411 14.2371 67.1411 14.2064 67.1411 14.1792C67.1411 14.1645 67.1411 14.1497 67.1411 14.1355V6.7201C67.1411 6.70769 67.1411 6.69528 67.1411 6.68228C67.178 6.10754 67.0043 5.53865 66.6508 5.07604C66.2972 4.61343 65.7866 4.28685 65.209 4.15395C65.0018 4.12314 64.7924 4.10793 64.5828 4.10846H64.4719C57.6498 3.87743 50.3714 5.28665 44.9923 7.87702C41.3072 9.64963 36.7266 12.6258 34.8024 15.2676L34.7159 15.3858C34.5133 15.6866 34.3983 16.0348 34.3828 16.3938C34.3673 16.7527 34.452 17.1091 34.628 17.4252C34.804 17.7414 35.0647 18.0055 35.3826 18.1899C35.7006 18.3742 36.0639 18.4718 36.4342 18.4725H36.4434L62.9802 18.4985L62.9778 18.4979ZM65.709 14.0599C65.7041 14.0981 65.7025 14.1366 65.7042 14.1751L65.7085 14.2383C65.714 14.9676 65.4307 15.6712 64.917 16.2038C64.4033 16.7364 63.6985 17.0574 62.9479 17.1005C62.9169 17.1005 62.887 17.1064 62.8571 17.1111L36.4501 17.0851H36.436C36.2693 17.0847 36.1096 17.0201 35.9919 16.9056C35.8742 16.791 35.808 16.6359 35.808 16.4742C35.808 16.3582 35.8428 16.2446 35.908 16.1474L35.9689 16.0659C37.4874 13.9813 41.4595 11.1238 45.6289 9.11666C50.7278 6.66101 57.9282 5.27247 64.4208 5.49109L64.5572 5.49464C64.6912 5.49371 64.8252 5.5016 64.9581 5.51827C65.6987 5.64708 65.7115 6.67283 65.7115 6.71655V14.0593L65.709 14.0599Z"/>
</mask>
<path d="M96.8594 41.0283C97.8385 41.0316 98.7962 40.7504 99.6091 40.221C100.422 39.6917 101.053 38.9383 101.42 38.058C101.436 38.0306 101.45 38.0022 101.461 37.9729C102.219 36.0456 102.605 33.9998 102.602 31.9372C102.6 29.1408 101.906 26.3857 100.578 23.904C99.2488 21.4224 97.3245 19.2869 94.9669 17.6778C92.9014 13.7384 89.5591 8.44957 85.2374 5.28133C79.4167 1.01467 72.0427 0.426758 64.941 0.426758C55.577 0.426758 48.5435 1.78575 42.8092 4.69696C39.4183 6.41876 34.0654 9.77844 31.3298 12.2093C29.868 13.5092 25.7686 16.3341 25.0261 16.8446C24.462 16.9669 22.3922 17.4195 21.4804 17.6689C16.7804 18.9564 14.2562 19.991 11.7198 22.7196C9.39724 25.2178 7.82145 29.543 7.60826 34.0052C7.58878 34.715 7.61179 35.4252 7.67711 36.1324C7.94817 38.9561 10.0874 41.0053 12.7645 41.0053L96.6468 41.0188C96.7168 41.0236 96.7851 41.0283 96.8594 41.0283ZM100.152 37.4098C100.14 37.4326 100.129 37.4561 100.119 37.4801C99.8654 38.1181 99.4179 38.6662 98.8359 39.0521C98.2539 39.438 97.5649 39.6436 96.86 39.6415C96.8204 39.6415 96.7802 39.6415 96.7412 39.6356L96.6553 39.6309H96.6182L12.7639 39.6203C10.8421 39.6203 9.30167 38.1 9.10004 36.0053C9.0428 35.3623 9.02241 34.7167 9.03908 34.0714C9.2346 29.9761 10.7045 25.8849 12.784 23.6485C15.0834 21.1745 17.4455 20.2167 21.8708 19.0043C22.8691 18.7313 25.4518 18.177 25.478 18.1688C25.5701 18.149 25.6573 18.1116 25.7345 18.0589C25.9336 17.9236 30.625 14.7157 32.2964 13.2332C34.8639 10.9549 40.1486 7.61644 43.4744 5.92656C48.9967 3.1217 55.8188 1.8153 64.9434 1.8153C72.8619 1.8153 79.1968 2.59288 84.3779 6.38921C88.5376 9.43928 91.7842 14.6371 93.7748 18.4613C93.8285 18.5649 93.9083 18.6537 94.0069 18.7195C96.2163 20.1948 98.023 22.1688 99.2715 24.4716C100.52 26.7744 101.173 29.3371 101.174 31.939C101.176 33.8075 100.83 35.6609 100.152 37.4098ZM74.1313 18.4979L86.9106 18.4719C87.278 18.4747 87.6395 18.382 87.9574 18.2033C88.2753 18.0247 88.5381 17.7667 88.7184 17.4562C88.8988 17.1457 88.99 16.794 88.9828 16.4377C88.9755 16.0814 88.8699 15.7334 88.6771 15.4301L88.3725 14.867C87.0724 12.4881 85.2695 10.402 83.0817 8.74501C79.9417 6.27872 78.2234 5.40778 73.5935 4.7661C73.0663 4.70438 72.5343 4.68974 72.0043 4.72237C71.4651 4.73023 70.9504 4.94249 70.5704 5.31374C70.1904 5.68498 69.9753 6.18574 69.9711 6.70887V14.1343C69.9711 14.1515 69.9711 14.1692 69.9711 14.1863C69.9711 14.2164 69.9711 14.2401 69.9711 14.2643C69.972 15.3225 70.3818 16.3419 71.1194 17.1215C71.8571 17.901 72.8691 18.3841 73.9559 18.4754C74.0132 18.49 74.0721 18.4976 74.1313 18.4979ZM72.5885 6.0926C72.8563 6.09046 73.1239 6.10626 73.3894 6.13987C77.7142 6.73842 79.2278 7.50418 82.1808 9.82334C84.2191 11.3651 85.8989 13.3069 87.1104 15.5217L87.4229 16.0984C87.4321 16.1149 87.4412 16.1303 87.4516 16.1462C87.5129 16.2382 87.5474 16.3444 87.5517 16.4539C87.5559 16.5633 87.5295 16.6718 87.4754 16.7679C87.4213 16.864 87.3415 16.9441 87.2443 16.9999C87.1472 17.0556 87.0363 17.0849 86.9234 17.0845L74.2464 17.1105C74.2183 17.1049 74.1899 17.1014 74.1612 17.0999C73.4147 17.0583 72.7129 16.7414 72.1994 16.2141C71.686 15.6868 71.3998 14.989 71.3995 14.2637L71.4056 14.1733C71.4072 14.1315 71.4052 14.0896 71.3995 14.0481V6.72128C71.3996 6.55928 71.4659 6.40395 71.5838 6.28923C71.7017 6.17452 71.8617 6.10977 72.0287 6.10914H72.0798C72.0841 6.10678 72.2985 6.0926 72.5885 6.0926ZM62.9778 18.4979C63.0377 18.4981 63.0975 18.4909 63.1556 18.4766C64.2425 18.3853 65.2546 17.9022 65.9923 17.1227C66.7301 16.3431 67.14 15.3237 67.1411 14.2655C67.1411 14.2371 67.1411 14.2064 67.1411 14.1792C67.1411 14.1645 67.1411 14.1497 67.1411 14.1355V6.7201C67.1411 6.70769 67.1411 6.69528 67.1411 6.68228C67.178 6.10754 67.0043 5.53865 66.6508 5.07604C66.2972 4.61343 65.7866 4.28685 65.209 4.15395C65.0018 4.12314 64.7924 4.10793 64.5828 4.10846H64.4719C57.6498 3.87743 50.3714 5.28665 44.9923 7.87702C41.3072 9.64963 36.7266 12.6258 34.8024 15.2676L34.7159 15.3858C34.5133 15.6866 34.3983 16.0348 34.3828 16.3938C34.3673 16.7527 34.452 17.1091 34.628 17.4252C34.804 17.7414 35.0647 18.0055 35.3826 18.1899C35.7006 18.3742 36.0639 18.4718 36.4342 18.4725H36.4434L62.9802 18.4985L62.9778 18.4979ZM65.709 14.0599C65.7041 14.0981 65.7025 14.1366 65.7042 14.1751L65.7085 14.2383C65.714 14.9676 65.4307 15.6712 64.917 16.2038C64.4033 16.7364 63.6985 17.0574 62.9479 17.1005C62.9169 17.1005 62.887 17.1064 62.8571 17.1111L36.4501 17.0851H36.436C36.2693 17.0847 36.1096 17.0201 35.9919 16.9056C35.8742 16.791 35.808 16.6359 35.808 16.4742C35.808 16.3582 35.8428 16.2446 35.908 16.1474L35.9689 16.0659C37.4874 13.9813 41.4595 11.1238 45.6289 9.11666C50.7278 6.66101 57.9282 5.27247 64.4208 5.49109L64.5572 5.49464C64.6912 5.49371 64.8252 5.5016 64.9581 5.51827C65.6987 5.64708 65.7115 6.67283 65.7115 6.71655V14.0593L65.709 14.0599Z" stroke="#BCBEC1" stroke-width="3" mask="url(#path-1-inside-1_4679_16660)"/>
<path d="M82.5365 37.5891C82.3826 37.817 82.301 38.0841 82.301 38.3566C82.301 38.7219 82.4475 39.0739 82.711 39.3346C82.9746 39.5956 83.3339 39.7436 83.7101 39.7436C83.9905 39.7436 84.2639 39.6613 84.4958 39.5079C84.7277 39.3545 84.9073 39.1374 85.013 38.8849C85.1186 38.6324 85.1461 38.3551 85.0923 38.0875C85.0386 37.8199 84.9057 37.5731 84.7092 37.3787C84.5126 37.1841 84.2612 37.0508 83.9864 36.9967C83.7115 36.9426 83.4267 36.9704 83.1683 37.0763C82.91 37.1823 82.6904 37.3611 82.5365 37.5891Z" fill="black" stroke="#BCBEC1" stroke-width="1.5"/>
<path d="M25.2319 17.5121L25.3913 18.2449L25.3912 18.245L25.3909 18.245L25.3895 18.2453L25.384 18.2465L25.3623 18.2513L25.2781 18.2697C25.205 18.2857 25.0994 18.3089 24.9694 18.3377C24.7092 18.3952 24.3518 18.4749 23.9625 18.5634C23.1775 18.7418 22.2838 18.9514 21.789 19.0883L21.589 18.3655L21.7889 19.0883C17.3109 20.3271 15.0182 21.2762 12.7281 23.7668L12.7281 23.7668C10.563 26.121 9.19084 30.2808 9.00219 34.2505C8.9852 34.9027 9.00562 35.5555 9.06337 36.2055C9.25832 38.2551 10.7341 39.8117 12.6871 39.8117H16.9086L93.9475 39.8219H93.9476H96.4514H96.4703L96.4892 39.8228C96.539 39.8253 96.5728 39.8275 96.5992 39.8292C96.6379 39.8317 96.6608 39.8332 96.6947 39.8332C97.3942 39.8332 98.0762 39.6261 98.6515 39.2409C99.2267 38.8557 99.6678 38.311 99.9196 37.6796L99.9907 37.5014L99.9941 37.4986C100.641 35.7713 100.97 33.9448 100.966 32.1041L100.966 32.1019C100.967 29.4846 100.319 26.9057 99.0762 24.5878C97.8333 22.2698 96.0328 20.282 93.829 18.7971L93.6695 18.6896L93.5814 18.5185C91.3111 14.1108 88.0791 9.21163 84.2078 6.34244L84.2078 6.34242C78.899 2.40737 72.2482 1.72754 64.81 1.72754C57.863 1.72754 50.0092 2.47022 43.3763 5.87709L43.3763 5.87713C40.0879 7.56568 34.8202 10.916 32.2172 13.2518L32.217 13.252C31.3541 14.0259 29.6993 15.2538 28.2917 16.2681C27.5813 16.78 26.9233 17.245 26.443 17.582C26.2027 17.7505 26.0068 17.8871 25.8708 17.9817L25.7136 18.0908L25.6723 18.1193L25.6617 18.1267L25.659 18.1286L25.6582 18.1291L25.6581 18.1292C25.658 18.1293 25.658 18.1293 25.2319 17.5121ZM25.2319 17.5121L25.658 18.1293L25.5361 18.2134L25.3913 18.2449L25.2319 17.5121ZM86.7682 18.5468C87.1407 18.5479 87.5073 18.4507 87.8298 18.2642C88.1529 18.0774 88.4207 17.8074 88.6031 17.4811C88.7855 17.1548 88.8754 16.7851 88.8621 16.4112C88.8492 16.0496 88.7403 15.6987 88.5476 15.3932L88.5147 15.3318L88.4105 15.1378C88.3446 15.0152 88.2693 14.8752 88.2461 14.8327C86.9398 12.4219 85.1327 10.3081 82.9425 8.62735C81.404 7.40534 80.1716 6.54575 78.7363 5.92009C77.2998 5.29393 75.7033 4.92057 73.4544 4.60564L73.4452 4.60435L73.4359 4.60329C72.9144 4.54341 72.3885 4.52924 71.8645 4.56095C71.3244 4.56748 70.8049 4.7802 70.4177 5.15882C70.0238 5.54393 69.799 6.06956 69.7972 6.62131L69.7972 6.62373L69.7972 14.1194V14.2139C69.7968 14.2257 69.7966 14.238 69.7966 14.2507V14.2509C69.7966 14.2743 69.7968 14.2976 69.7972 14.321V14.4136L69.7999 14.4165C69.841 15.4645 70.2683 16.4623 71.002 17.2233C71.6978 17.9448 72.6212 18.4042 73.6134 18.5327L73.6496 18.5743L73.9921 18.5736L74.1303 18.5733L75.9262 18.6721L75.822 18.5698L86.7567 18.5468L86.7583 18.5468L86.7682 18.5468ZM86.7682 18.5468H86.7695V17.7968L86.7666 18.5467C86.7671 18.5467 86.7677 18.5468 86.7682 18.5468ZM34.5891 15.3474L35.2045 15.776L34.5891 15.3474L34.5891 15.3473L34.5893 15.3471L34.5899 15.3463L34.5919 15.3434L34.5991 15.333L34.6225 15.2996C34.638 15.2775 34.6614 15.2442 34.6768 15.2231C35.6248 13.9094 37.2125 12.5151 39.0111 11.2283C40.8226 9.93226 42.8992 8.70912 44.8701 7.74938C50.2197 5.14334 57.5766 3.71116 64.3235 3.93888C64.5647 3.93783 64.8057 3.95263 65.045 3.98319L65.0625 3.98543L65.0799 3.98849C65.8294 4.12037 66.3359 4.57522 66.6371 5.08998C66.928 5.5871 67.0398 6.15292 67.0422 6.61935V6.62313V14.117V14.2074C67.0426 14.2203 67.0428 14.234 67.0428 14.2483V14.2487C67.0428 14.2717 67.0426 14.2946 67.0422 14.3175V14.4117L67.0395 14.4146C66.998 15.4617 66.5712 16.4586 65.8383 17.2192C65.1432 17.9406 64.2205 18.4003 63.2288 18.5295L63.1901 18.574L62.8482 18.5736L36.7552 18.5472L36.3405 18.5491C35.9674 18.5509 35.5998 18.4539 35.2765 18.2673C34.9531 18.0806 34.6851 17.8106 34.5025 17.4843C34.3198 17.1579 34.2298 16.7881 34.2431 16.4141C34.2563 16.0401 34.3723 15.6775 34.5774 15.3648L34.5831 15.356L34.5891 15.3474Z" fill="white" stroke="#BCBEC1" stroke-width="1.5"/>
<path d="M60.9924 36.5884C60.9927 36.5884 60.9929 36.5884 60.9932 36.5884H60.9924Z" fill="black" stroke="#BCBEC1" stroke-width="1.5"/>
<mask id="path-5-inside-2_4679_16660" fill="white">
<path d="M36.963 30.7182C37.1492 30.7182 37.3277 30.6444 37.4594 30.5132C37.591 30.3819 37.665 30.2038 37.665 30.0182V21.172C37.665 20.9863 37.591 20.8081 37.4593 20.6768C37.3276 20.5455 37.149 20.4717 36.9627 20.4717C36.7764 20.4717 36.5979 20.5455 36.4661 20.6768C36.3344 20.8081 36.2604 20.9863 36.2604 21.172V30.0182C36.2606 30.2039 36.3347 30.3819 36.4664 30.5132C36.5982 30.6445 36.7768 30.7182 36.963 30.7182Z"/>
</mask>
<path d="M36.963 30.7182C37.1492 30.7182 37.3277 30.6444 37.4594 30.5132C37.591 30.3819 37.665 30.2038 37.665 30.0182V21.172C37.665 20.9863 37.591 20.8081 37.4593 20.6768C37.3276 20.5455 37.149 20.4717 36.9627 20.4717C36.7764 20.4717 36.5979 20.5455 36.4661 20.6768C36.3344 20.8081 36.2604 20.9863 36.2604 21.172V30.0182C36.2606 30.2039 36.3347 30.3819 36.4664 30.5132C36.5982 30.6445 36.7768 30.7182 36.963 30.7182Z" fill="black"/>
<path d="M36.963 30.7182L36.963 29.2182H36.963V30.7182ZM37.665 21.172H36.165H37.665ZM36.2604 30.0182L34.7604 30.0194V30.0182H36.2604ZM36.963 29.2182C36.7527 29.2182 36.5502 29.3014 36.4002 29.451L38.5186 31.5753C38.1053 31.9874 37.5456 32.2182 36.963 32.2182V29.2182ZM36.4002 29.451C36.2502 29.6006 36.165 29.8044 36.165 30.0182H39.165C39.165 30.6032 38.9318 31.1632 38.5186 31.5753L36.4002 29.451ZM36.165 30.0182V21.172H39.165V30.0182H36.165ZM36.165 21.172C36.165 21.3856 36.2502 21.5894 36.4001 21.739L38.5185 19.6147C38.9319 20.0269 39.165 20.587 39.165 21.172H36.165ZM36.4001 21.739C36.5501 21.8885 36.7525 21.9717 36.9627 21.9717V18.9717C37.5454 18.9717 38.1051 19.2025 38.5185 19.6147L36.4001 21.739ZM36.9627 21.9717C37.173 21.9717 37.3755 21.8884 37.5253 21.739L35.407 19.6147C35.8202 19.2026 36.3798 18.9717 36.9627 18.9717V21.9717ZM37.5253 21.739C37.6753 21.5894 37.7604 21.3856 37.7604 21.172H34.7604C34.7604 20.587 34.9936 20.0269 35.407 19.6147L37.5253 21.739ZM37.7604 21.172V30.0182H34.7604V21.172H37.7604ZM37.7604 30.0169C37.7602 29.8035 37.6751 29.6 37.5252 29.4506L35.4077 31.5758C34.9943 31.1639 34.7609 30.6042 34.7604 30.0194L37.7604 30.0169ZM37.5252 29.4506C37.3754 29.3014 37.1731 29.2182 36.963 29.2182L36.963 32.2182C36.3804 32.2182 35.821 31.9875 35.4077 31.5758L37.5252 29.4506Z" fill="#BCBEC1" mask="url(#path-5-inside-2_4679_16660)"/>
<mask id="path-7-inside-3_4679_16660" fill="white">
<path d="M42.4231 22.3755H46.145C46.3344 22.3755 46.5162 22.3229 46.6501 22.2292C46.7841 22.1354 46.8594 22.0083 46.8594 21.8758C46.8594 21.7432 46.7841 21.6161 46.6501 21.5224C46.5162 21.4286 46.3344 21.376 46.145 21.376H42.4231C42.2336 21.376 42.0519 21.4286 41.9179 21.5224C41.7839 21.6161 41.7087 21.7432 41.7087 21.8758C41.7087 22.0083 41.7839 22.1354 41.9179 22.2292C42.0519 22.3229 42.2336 22.3755 42.4231 22.3755Z"/>
</mask>
<path d="M42.4231 22.3755H46.145C46.3344 22.3755 46.5162 22.3229 46.6501 22.2292C46.7841 22.1354 46.8594 22.0083 46.8594 21.8758C46.8594 21.7432 46.7841 21.6161 46.6501 21.5224C46.5162 21.4286 46.3344 21.376 46.145 21.376H42.4231C42.2336 21.376 42.0519 21.4286 41.9179 21.5224C41.7839 21.6161 41.7087 21.7432 41.7087 21.8758C41.7087 22.0083 41.7839 22.1354 41.9179 22.2292C42.0519 22.3229 42.2336 22.3755 42.4231 22.3755Z" fill="black"/>
<path d="M46.145 22.3755V23.8755V22.3755ZM46.8594 21.8758H45.3594H46.8594ZM42.4231 21.376V22.876V21.376ZM41.7087 21.8758H43.2087H41.7087ZM42.4231 20.8755H46.145V23.8755H42.4231V20.8755ZM46.145 20.8755C46.1027 20.8755 46.0547 20.8812 46.0009 20.8968C45.9483 20.912 45.8739 20.9416 45.7902 21.0001L47.51 23.4582C47.0856 23.7552 46.5917 23.8755 46.145 23.8755V20.8755ZM45.7902 21.0001C45.6288 21.1131 45.3594 21.4025 45.3594 21.8758H48.3594C48.3594 22.6141 47.9394 23.1578 47.51 23.4582L45.7902 21.0001ZM45.3594 21.8758C45.3594 22.349 45.6288 22.6385 45.7902 22.7514L47.51 20.2933C47.9394 20.5937 48.3594 21.1374 48.3594 21.8758H45.3594ZM45.7902 22.7514C45.8739 22.8099 45.9483 22.8395 46.0009 22.8548C46.0547 22.8703 46.1027 22.876 46.145 22.876V19.876C46.5917 19.876 47.0856 19.9964 47.51 20.2933L45.7902 22.7514ZM46.145 22.876H42.4231V19.876H46.145V22.876ZM42.4231 22.876C42.4654 22.876 42.5133 22.8703 42.5672 22.8548C42.6198 22.8395 42.6942 22.8099 42.7778 22.7514L41.058 20.2933C41.4824 19.9964 41.9764 19.876 42.4231 19.876V22.876ZM42.7778 22.7514C42.9393 22.6385 43.2087 22.349 43.2087 21.8758H40.2087C40.2087 21.1374 40.6286 20.5937 41.058 20.2933L42.7778 22.7514ZM43.2087 21.8758C43.2087 21.4025 42.9393 21.1131 42.7778 21.0001L41.058 23.4582C40.6286 23.1578 40.2087 22.6141 40.2087 21.8758H43.2087ZM42.7778 21.0001C42.6942 20.9416 42.6198 20.912 42.5672 20.8968C42.5133 20.8812 42.4654 20.8755 42.4231 20.8755V23.8755C41.9764 23.8755 41.4824 23.7552 41.058 23.4582L42.7778 21.0001Z" fill="#BCBEC1" mask="url(#path-7-inside-3_4679_16660)"/>
<mask id="path-9-inside-4_4679_16660" fill="white">
<path d="M10.4358 36.658H14.1577C14.3471 36.658 14.5289 36.5953 14.6628 36.4837C14.7968 36.3721 14.8721 36.2207 14.8721 36.0629C14.8721 35.905 14.7968 35.7537 14.6628 35.6421C14.5289 35.5305 14.3471 35.4678 14.1577 35.4678H10.4358C10.2463 35.4678 10.0646 35.5305 9.9306 35.6421C9.79664 35.7537 9.72137 35.905 9.72137 36.0629C9.72137 36.2207 9.79664 36.3721 9.9306 36.4837C10.0646 36.5953 10.2463 36.658 10.4358 36.658Z"/>
</mask>
<path d="M14.1577 36.658V38.158V36.658ZM14.8721 36.0629H13.3721H14.8721ZM10.4358 35.4678V36.9678V35.4678ZM9.72137 36.0629H11.2214H9.72137ZM10.4358 35.158H14.1577V38.158H10.4358V35.158ZM14.1577 35.158C14.029 35.158 13.8624 35.1982 13.7027 35.3312L15.6229 37.6361C15.1953 37.9924 14.6653 38.158 14.1577 38.158V35.158ZM13.7027 35.3312C13.5352 35.4708 13.3721 35.7252 13.3721 36.0629H16.3721C16.3721 36.7162 16.0584 37.2734 15.6229 37.6361L13.7027 35.3312ZM13.3721 36.0629C13.3721 36.4005 13.5352 36.655 13.7027 36.7946L15.6229 34.4896C16.0584 34.8524 16.3721 35.4095 16.3721 36.0629H13.3721ZM13.7027 36.7946C13.8624 36.9276 14.029 36.9678 14.1577 36.9678V33.9678C14.6653 33.9678 15.1953 34.1334 15.6229 34.4896L13.7027 36.7946ZM14.1577 36.9678H10.4358V33.9678H14.1577V36.9678ZM10.4358 36.9678C10.5645 36.9678 10.731 36.9276 10.8907 36.7946L8.9705 34.4896C9.39809 34.1334 9.92814 33.9678 10.4358 33.9678V36.9678ZM10.8907 36.7946C11.0582 36.655 11.2214 36.4005 11.2214 36.0629H8.22137C8.22137 35.4095 8.53503 34.8524 8.9705 34.4896L10.8907 36.7946ZM11.2214 36.0629C11.2214 35.7252 11.0582 35.4708 10.8907 35.3312L8.9705 37.6361C8.53503 37.2734 8.22137 36.7162 8.22137 36.0629H11.2214ZM10.8907 35.3312C10.731 35.1982 10.5645 35.158 10.4358 35.158V38.158C9.92814 38.158 9.39809 37.9924 8.9705 37.6361L10.8907 35.3312Z" fill="#BCBEC1" mask="url(#path-9-inside-4_4679_16660)"/>
<path d="M12.4638 26.6159C12.4638 27.2271 12.9665 27.7357 13.603 27.7357C14.2395 27.7357 14.7422 27.2271 14.7422 26.6159C14.7422 26.0047 14.2395 25.4961 13.603 25.4961C12.9665 25.4961 12.4638 26.0047 12.4638 26.6159Z" fill="white" stroke="#BCBEC1" stroke-width="1.5"/>
<path d="M74.7441 37.8353C74.7441 42.2821 78.3885 45.9001 82.9004 45.9001C87.4123 45.9001 91.0566 42.2821 91.0566 37.8353C91.0566 33.3885 87.4123 29.7705 82.9004 29.7705C78.3885 29.7705 74.7441 33.3885 74.7441 37.8353Z" fill="white" stroke="#BCBEC1" stroke-width="1.5"/>
<path d="M17.8467 38.4789C17.8467 42.9257 21.491 46.5437 26.0029 46.5437C30.5148 46.5437 34.1592 42.9257 34.1592 38.4789C34.1592 34.0321 30.5148 30.4141 26.0029 30.4141C21.491 30.4141 17.8467 34.0321 17.8467 38.4789Z" fill="white" stroke="#BCBEC1" stroke-width="1.5"/>
<path d="M81.2214 38.1018C81.2214 39.1556 82.0866 40.023 83.1703 40.023C84.2539 40.023 85.1191 39.1556 85.1191 38.1018C85.1191 37.0481 84.2539 36.1807 83.1703 36.1807C82.0866 36.1807 81.2214 37.0481 81.2214 38.1018Z" fill="white" stroke="#BCBEC1" stroke-width="1.5"/>
<path d="M23.7839 38.5608C23.7839 39.6146 24.6491 40.482 25.7328 40.482C26.8164 40.482 27.6816 39.6146 27.6816 38.5608C27.6816 37.5071 26.8164 36.6396 25.7328 36.6396C24.6491 36.6396 23.7839 37.5071 23.7839 38.5608Z" fill="white" stroke="#BCBEC1" stroke-width="1.5"/>
<path d="M93.4258 35.4305C93.0659 32.7593 90.511 27.417 83.1701 27.417" stroke="#BCBEC1" stroke-width="1.5" stroke-linecap="round"/>
<path d="M36.21 35.4305C35.8501 32.7593 33.2952 27.417 25.9543 27.417" stroke="#BCBEC1" stroke-width="1.5" stroke-linecap="round"/>
<path d="M8.23047 61.2266V62.293H2.05762V52.6611H3.36328V61.2266H8.23047ZM11.7822 62.4297C11.0394 62.4297 10.4811 62.2337 10.1074 61.8418C9.73372 61.4499 9.54688 60.9121 9.54688 60.2285C9.54688 59.4629 9.79753 58.875 10.2988 58.4648C10.8047 58.0547 11.6182 57.8359 12.7393 57.8086L14.4004 57.7812V57.3779C14.4004 56.7764 14.2728 56.3457 14.0176 56.0859C13.7624 55.8262 13.3613 55.6963 12.8145 55.6963C12.263 55.6963 11.862 55.7897 11.6113 55.9766C11.3607 56.1634 11.2103 56.4619 11.1602 56.8721L9.875 56.7559C10.0846 55.4251 11.0736 54.7598 12.8418 54.7598C13.7715 54.7598 14.471 54.974 14.9404 55.4023C15.4098 55.8262 15.6445 56.4414 15.6445 57.248V60.4336C15.6445 60.7982 15.6924 61.0739 15.7881 61.2607C15.8838 61.443 16.0661 61.5342 16.335 61.5342C16.4626 61.5342 16.597 61.5182 16.7383 61.4863V62.252C16.5833 62.2884 16.4261 62.3158 16.2666 62.334C16.1071 62.3522 15.9476 62.3613 15.7881 62.3613C15.3324 62.3613 14.9997 62.2428 14.79 62.0059C14.585 61.7643 14.4688 61.3883 14.4414 60.8779H14.4004C14.0859 61.443 13.7191 61.8441 13.2998 62.0811C12.8851 62.3135 12.3792 62.4297 11.7822 62.4297ZM14.4004 58.6426L13.0537 58.6699C12.4795 58.6745 12.042 58.7337 11.7412 58.8477C11.4404 58.957 11.2103 59.1257 11.0508 59.3535C10.8913 59.5814 10.8115 59.8799 10.8115 60.249C10.8115 60.6501 10.9186 60.96 11.1328 61.1787C11.3516 61.3975 11.6615 61.5068 12.0625 61.5068C12.5182 61.5068 12.9193 61.4043 13.2656 61.1992C13.6165 60.9941 13.8923 60.7139 14.0928 60.3584C14.2979 59.9984 14.4004 59.6292 14.4004 59.251V58.6426ZM20.7822 62.2383C20.3812 62.3477 19.9665 62.4023 19.5381 62.4023C19.0459 62.4023 18.6768 62.2633 18.4307 61.9854C18.1846 61.7028 18.0615 61.2835 18.0615 60.7275V55.792H17.207V54.8965H18.1094L18.4717 53.2422H19.292V54.8965H20.6592V55.792H19.292V60.4609C19.292 60.8164 19.349 61.0671 19.4629 61.2129C19.5814 61.3542 19.7842 61.4248 20.0713 61.4248C20.2262 61.4248 20.4632 61.3929 20.7822 61.3291V62.2383ZM23.0283 58.8545C23.0283 59.7021 23.2038 60.3561 23.5547 60.8164C23.9056 61.2767 24.4183 61.5068 25.0928 61.5068C25.626 61.5068 26.0521 61.3997 26.3711 61.1855C26.6947 60.9714 26.9134 60.7002 27.0273 60.3721L28.1074 60.6797C27.6654 61.8464 26.6605 62.4297 25.0928 62.4297C23.999 62.4297 23.165 62.1038 22.5908 61.4521C22.0212 60.8005 21.7363 59.832 21.7363 58.5469C21.7363 57.3255 22.0212 56.389 22.5908 55.7373C23.165 55.0856 23.9831 54.7598 25.0449 54.7598C26.1341 54.7598 26.9499 55.0879 27.4922 55.7441C28.0345 56.4004 28.3057 57.3825 28.3057 58.6904V58.8545H23.0283ZM27.0342 57.9111C26.9658 57.1318 26.7676 56.5645 26.4395 56.209C26.1113 55.849 25.6396 55.6689 25.0244 55.6689C24.4274 55.6689 23.9535 55.8695 23.6025 56.2705C23.2562 56.667 23.0693 57.2139 23.042 57.9111H27.0342ZM31.3857 58.4375V62.293H30.1553V56.6191C30.1553 56.3594 30.1507 56.0859 30.1416 55.7988C30.137 55.5117 30.1279 55.2109 30.1143 54.8965H31.2764C31.2855 55.1061 31.2923 55.2952 31.2969 55.4639C31.306 55.6325 31.3128 55.7806 31.3174 55.9082C31.3219 56.0312 31.3242 56.1361 31.3242 56.2227C31.3288 56.3047 31.3311 56.3662 31.3311 56.4072H31.3584C31.4951 55.9606 31.6455 55.6143 31.8096 55.3682C31.9691 55.1403 32.1514 54.9831 32.3564 54.8965C32.5615 54.8053 32.8145 54.7598 33.1152 54.7598C33.2839 54.7598 33.4502 54.7826 33.6143 54.8281V55.9561C33.4593 55.9105 33.2406 55.8877 32.958 55.8877C32.4476 55.8877 32.0579 56.1087 31.7891 56.5508C31.5202 56.9883 31.3857 57.6172 31.3857 58.4375ZM36.9268 62.4297C36.1839 62.4297 35.6257 62.2337 35.252 61.8418C34.8783 61.4499 34.6914 60.9121 34.6914 60.2285C34.6914 59.4629 34.9421 58.875 35.4434 58.4648C35.9492 58.0547 36.7627 57.8359 37.8838 57.8086L39.5449 57.7812V57.3779C39.5449 56.7764 39.4173 56.3457 39.1621 56.0859C38.9069 55.8262 38.5059 55.6963 37.959 55.6963C37.4076 55.6963 37.0065 55.7897 36.7559 55.9766C36.5052 56.1634 36.3548 56.4619 36.3047 56.8721L35.0195 56.7559C35.2292 55.4251 36.2181 54.7598 37.9863 54.7598C38.916 54.7598 39.6156 54.974 40.085 55.4023C40.5544 55.8262 40.7891 56.4414 40.7891 57.248V60.4336C40.7891 60.7982 40.8369 61.0739 40.9326 61.2607C41.0283 61.443 41.2106 61.5342 41.4795 61.5342C41.6071 61.5342 41.7415 61.5182 41.8828 61.4863V62.252C41.7279 62.2884 41.5706 62.3158 41.4111 62.334C41.2516 62.3522 41.0921 62.3613 40.9326 62.3613C40.4769 62.3613 40.1442 62.2428 39.9346 62.0059C39.7295 61.7643 39.6133 61.3883 39.5859 60.8779H39.5449C39.2305 61.443 38.8636 61.8441 38.4443 62.0811C38.0296 62.3135 37.5238 62.4297 36.9268 62.4297ZM39.5449 58.6426L38.1982 58.6699C37.624 58.6745 37.1865 58.7337 36.8857 58.8477C36.585 58.957 36.3548 59.1257 36.1953 59.3535C36.0358 59.5814 35.9561 59.8799 35.9561 60.249C35.9561 60.6501 36.0632 60.96 36.2773 61.1787C36.4961 61.3975 36.806 61.5068 37.207 61.5068C37.6628 61.5068 38.0638 61.4043 38.4102 61.1992C38.7611 60.9941 39.0368 60.7139 39.2373 60.3584C39.4424 59.9984 39.5449 59.6292 39.5449 59.251V58.6426ZM44.3135 52.1484V62.293H43.083V52.1484H44.3135ZM52.251 52.6611V62.293H50.9453V52.6611H52.251ZM60.1025 61.3428V62.293H54.3672V61.3564L58.5029 55.8467H54.5996V54.8965H59.959V55.833L55.8164 61.3428H60.1025ZM61.6377 58.6289C61.6377 57.3392 61.8633 56.373 62.3145 55.7305C62.7702 55.0833 63.4515 54.7598 64.3584 54.7598C64.9189 54.7598 65.3838 54.86 65.7529 55.0605C66.1221 55.2565 66.4297 55.5846 66.6758 56.0449C66.6758 55.9538 66.6803 55.8125 66.6895 55.6211C66.6986 55.4251 66.71 55.2428 66.7236 55.0742C66.7373 54.9056 66.7487 54.8145 66.7578 54.8008H67.9404C67.9222 54.9329 67.9085 55.1676 67.8994 55.5049C67.8949 55.8421 67.8926 56.2796 67.8926 56.8174V65.1982H66.6621V62.1973L66.6895 61.0762H66.6758C66.4297 61.5638 66.1266 61.9124 65.7666 62.1221C65.4066 62.3271 64.9372 62.4297 64.3584 62.4297C63.4196 62.4297 62.7314 62.113 62.2939 61.4795C61.8564 60.846 61.6377 59.8958 61.6377 58.6289ZM66.6621 58.5059C66.6621 57.5443 66.5049 56.8311 66.1904 56.3662C65.876 55.9014 65.3747 55.6689 64.6865 55.6689C64.0622 55.6689 63.6133 55.9014 63.3398 56.3662C63.0664 56.8311 62.9297 57.5716 62.9297 58.5879C62.9297 59.6224 63.0664 60.363 63.3398 60.8096C63.6178 61.2562 64.0622 61.4795 64.6729 61.4795C65.3701 61.4795 65.876 61.2311 66.1904 60.7344C66.5049 60.2376 66.6621 59.4948 66.6621 58.5059ZM74.7119 61.0283C74.4294 61.5387 74.1012 61.901 73.7275 62.1152C73.3584 62.3249 72.8981 62.4297 72.3467 62.4297C71.5355 62.4297 70.9408 62.2292 70.5625 61.8281C70.1888 61.4225 70.002 60.7549 70.002 59.8252V54.8965H71.2393V59.5859C71.2393 60.3242 71.3532 60.8255 71.5811 61.0898C71.8135 61.3496 72.2077 61.4795 72.7637 61.4795C73.3561 61.4795 73.8232 61.2767 74.165 60.8711C74.5068 60.4655 74.6777 59.9027 74.6777 59.1826V54.8965H75.9082V60.7139C75.9082 61.1423 75.9105 61.4886 75.915 61.7529C75.9242 62.0173 75.9355 62.1973 75.9492 62.293H74.7871C74.7826 62.2702 74.7734 62.1631 74.7598 61.9717C74.7507 61.7803 74.7415 61.4658 74.7324 61.0283H74.7119ZM79.3027 52.1484V53.3242H78.0723V52.1484H79.3027ZM79.3027 54.8965V62.293H78.0723V54.8965H79.3027ZM82.3896 58.8545C82.3896 59.7021 82.5651 60.3561 82.916 60.8164C83.2669 61.2767 83.7796 61.5068 84.4541 61.5068C84.9873 61.5068 85.4134 61.3997 85.7324 61.1855C86.056 60.9714 86.2747 60.7002 86.3887 60.3721L87.4688 60.6797C87.0267 61.8464 86.0218 62.4297 84.4541 62.4297C83.3604 62.4297 82.5264 62.1038 81.9521 61.4521C81.3825 60.8005 81.0977 59.832 81.0977 58.5469C81.0977 57.3255 81.3825 56.389 81.9521 55.7373C82.5264 55.0856 83.3444 54.7598 84.4062 54.7598C85.4954 54.7598 86.3112 55.0879 86.8535 55.7441C87.3958 56.4004 87.667 57.3825 87.667 58.6904V58.8545H82.3896ZM86.3955 57.9111C86.3271 57.1318 86.1289 56.5645 85.8008 56.209C85.4727 55.849 85.001 55.6689 84.3857 55.6689C83.7887 55.6689 83.3148 55.8695 82.9639 56.2705C82.6175 56.667 82.4307 57.2139 82.4033 57.9111H86.3955ZM90.7471 58.4375V62.293H89.5166V56.6191C89.5166 56.3594 89.512 56.0859 89.5029 55.7988C89.4984 55.5117 89.4893 55.2109 89.4756 54.8965H90.6377C90.6468 55.1061 90.6536 55.2952 90.6582 55.4639C90.6673 55.6325 90.6742 55.7806 90.6787 55.9082C90.6833 56.0312 90.6855 56.1361 90.6855 56.2227C90.6901 56.3047 90.6924 56.3662 90.6924 56.4072H90.7197C90.8564 55.9606 91.0068 55.6143 91.1709 55.3682C91.3304 55.1403 91.5127 54.9831 91.7178 54.8965C91.9229 54.8053 92.1758 54.7598 92.4766 54.7598C92.6452 54.7598 92.8115 54.7826 92.9756 54.8281V55.9561C92.8206 55.9105 92.6019 55.8877 92.3193 55.8877C91.8089 55.8877 91.4193 56.1087 91.1504 56.5508C90.8815 56.9883 90.7471 57.6172 90.7471 58.4375ZM99.166 62.293C99.1569 62.2428 99.1455 62.1494 99.1318 62.0127C99.1227 61.8714 99.1136 61.7165 99.1045 61.5479C99.0999 61.3792 99.0977 61.2311 99.0977 61.1035H99.0703C98.8424 61.5775 98.5394 61.917 98.1611 62.1221C97.7874 62.3271 97.3226 62.4297 96.7666 62.4297C95.8324 62.4297 95.1442 62.1152 94.7021 61.4863C94.2646 60.8574 94.0459 59.9049 94.0459 58.6289C94.0459 57.3392 94.2715 56.373 94.7227 55.7305C95.1784 55.0833 95.8597 54.7598 96.7666 54.7598C97.3271 54.7598 97.7943 54.8623 98.168 55.0674C98.5417 55.2725 98.8424 55.5983 99.0703 56.0449H99.084L99.0703 55.2178V52.1484H100.301V60.7686C100.301 61.1559 100.303 61.4772 100.308 61.7324C100.317 61.9831 100.328 62.1699 100.342 62.293H99.166ZM95.3379 58.5879C95.3379 59.6224 95.4746 60.363 95.748 60.8096C96.0215 61.2562 96.4658 61.4795 97.0811 61.4795C97.7783 61.4795 98.2842 61.238 98.5986 60.7549C98.9131 60.2718 99.0703 59.5221 99.0703 58.5059C99.0703 57.526 98.9131 56.8083 98.5986 56.3525C98.2842 55.8968 97.7829 55.6689 97.0947 55.6689C96.4749 55.6689 96.026 55.8991 95.748 56.3594C95.4746 56.8151 95.3379 57.5579 95.3379 58.5879ZM108.699 58.5879C108.699 59.8822 108.414 60.846 107.845 61.4795C107.275 62.113 106.448 62.4297 105.363 62.4297C104.283 62.4297 103.467 62.1016 102.916 61.4453C102.365 60.7845 102.089 59.832 102.089 58.5879C102.089 57.3118 102.365 56.3548 102.916 55.7168C103.472 55.0788 104.301 54.7598 105.404 54.7598C106.535 54.7598 107.366 55.0719 107.899 55.6963C108.433 56.3161 108.699 57.2799 108.699 58.5879ZM107.407 58.5879C107.407 57.5671 107.255 56.8265 106.949 56.3662C106.648 55.9014 106.14 55.6689 105.425 55.6689C104.705 55.6689 104.183 55.9059 103.859 56.3799C103.54 56.8493 103.381 57.5853 103.381 58.5879C103.381 59.5632 103.538 60.2969 103.853 60.7891C104.172 61.2767 104.671 61.5205 105.35 61.5205C106.088 61.5205 106.614 61.2835 106.929 60.8096C107.248 60.3356 107.407 59.5951 107.407 58.5879Z" fill="#BCBEC1"/>
</svg>
