<svg width="96" height="66" viewBox="0 0 96 66" fill="none" xmlns="http://www.w3.org/2000/svg">
<mask id="path-1-inside-1_4575_3947" fill="white">
<path d="M6.34375 41.5227C5.36465 41.526 4.40692 41.244 3.59402 40.7132C2.78111 40.1823 2.15024 39.4268 1.78265 38.544C1.76697 38.5165 1.75332 38.488 1.74183 38.4586C0.9845 36.5258 0.598047 34.4742 0.601587 32.4058C0.602759 29.6014 1.2969 26.8384 2.62561 24.3497C3.95432 21.861 5.8786 19.7195 8.23624 18.1057C10.3018 14.1552 13.644 8.8513 17.9657 5.67405C23.7864 1.39525 31.1605 0.805664 38.2622 0.805664C47.6262 0.805664 54.6596 2.16853 60.3939 5.08802C63.7848 6.81471 69.1377 10.184 71.8733 12.6217C73.3352 13.9253 77.4345 16.7583 78.1771 17.2703C78.7411 17.3929 80.8109 17.8468 81.7228 18.0969C86.4227 19.388 88.9469 20.4256 91.4833 23.162C93.8059 25.6673 95.3817 30.0047 95.5949 34.4797C95.6143 35.1914 95.5913 35.9037 95.526 36.6129C95.255 39.4446 93.1157 41.4996 90.4386 41.4996L6.55633 41.5132C6.48628 41.518 6.41806 41.5227 6.34375 41.5227ZM3.05085 37.8939C3.06332 37.9168 3.07428 37.9403 3.08372 37.9645C3.33768 38.6042 3.78527 39.1539 4.36724 39.5409C4.9492 39.9279 5.6382 40.134 6.34315 40.132C6.38275 40.132 6.42292 40.132 6.4619 40.1261L6.54778 40.1213H6.58496L90.4392 40.1107C92.361 40.1107 93.9015 38.586 94.1031 36.4855C94.1603 35.8406 94.1807 35.1931 94.164 34.546C93.9685 30.4391 92.4987 26.3363 90.4191 24.0935C88.1197 21.6125 85.7576 20.6519 81.3323 19.436C80.334 19.1623 77.7513 18.6065 77.7251 18.5982C77.633 18.5783 77.5458 18.5409 77.4687 18.4879C77.2695 18.3522 72.5781 15.1353 70.9067 13.6486C68.3392 11.3637 63.0545 8.0158 59.7287 6.32111C54.2064 3.50828 47.3843 2.19816 38.2597 2.19816C30.3412 2.19816 24.0063 2.97795 18.8252 6.78508C14.6655 9.84382 11.4189 15.0565 9.4283 18.8915C9.37461 18.9954 9.29479 19.0845 9.19624 19.1504C6.98686 20.6299 5.18015 22.6096 3.93159 24.9189C2.68302 27.2283 2.03002 29.7982 2.02876 32.4075C2.02687 34.2814 2.37272 36.1401 3.05085 37.8939ZM29.0718 18.9282L16.2925 18.9021C15.9251 18.9049 15.5636 18.8119 15.2457 18.6328C14.9278 18.4537 14.665 18.195 14.4847 17.8836C14.3044 17.5722 14.2131 17.2195 14.2204 16.8621C14.2276 16.5048 14.3332 16.1559 14.526 15.8517L14.8306 15.287C16.1308 12.9013 17.9336 10.8093 20.1214 9.14758C23.2614 6.67427 24.9797 5.80086 29.6096 5.15735C30.1368 5.09545 30.6688 5.08077 31.1988 5.1135C31.738 5.12138 32.2528 5.33424 32.6327 5.70655C33.0127 6.07885 33.2278 6.58103 33.232 7.10565V14.5522C33.232 14.5694 33.232 14.5872 33.232 14.6044C33.232 14.6346 33.232 14.6583 33.232 14.6826C33.2311 15.7438 32.8214 16.7661 32.0837 17.5479C31.346 18.3296 30.334 18.8141 29.2472 18.9057C29.1899 18.9203 29.131 18.9279 29.0718 18.9282ZM30.6147 6.48762C30.3469 6.48548 30.0793 6.50132 29.8137 6.53503C25.489 7.13528 23.9753 7.90322 21.0223 10.229C18.984 11.7751 17.3042 13.7224 16.0927 15.9435L15.7802 16.5219C15.771 16.5385 15.7619 16.5539 15.7516 16.5699C15.6902 16.662 15.6557 16.7686 15.6515 16.8784C15.6473 16.9881 15.6736 17.0969 15.7277 17.1933C15.7818 17.2897 15.8616 17.37 15.9588 17.4259C16.0559 17.4818 16.1668 17.5112 16.2797 17.5108L28.9567 17.5369C28.9848 17.5313 29.0132 17.5277 29.0419 17.5262C29.7884 17.4845 30.4902 17.1667 31.0037 16.6379C31.5171 16.1091 31.8033 15.4094 31.8037 14.682L31.7976 14.5913C31.7959 14.5494 31.7979 14.5073 31.8037 14.4657V7.11809C31.8035 6.95564 31.7373 6.79986 31.6193 6.68482C31.5014 6.56978 31.3415 6.50484 31.1745 6.50421H31.1233C31.1191 6.50184 30.9046 6.48762 30.6147 6.48762ZM40.2254 18.9282C40.1654 18.9284 40.1056 18.9212 40.0475 18.9069C38.9607 18.8153 37.9486 18.3308 37.2108 17.5491C36.473 16.7673 36.0631 15.745 36.062 14.6838C36.062 14.6553 36.062 14.6245 36.062 14.5973C36.062 14.5824 36.062 14.5676 36.062 14.5534V7.11691C36.062 7.10446 36.062 7.09202 36.062 7.07899C36.0252 6.50261 36.1988 5.9321 36.5524 5.46817C36.9059 5.00425 37.4165 4.67673 37.9941 4.54346C38.2013 4.51256 38.4107 4.49731 38.6203 4.49784H38.7312C45.5533 4.26615 52.8317 5.67939 58.2108 8.27712C61.896 10.0548 66.4765 13.0394 68.4007 15.6887L68.4872 15.8072C68.6898 16.1089 68.8049 16.4581 68.8203 16.8181C68.8358 17.1781 68.7511 17.5355 68.5751 17.8525C68.3991 18.1695 68.1384 18.4344 67.8205 18.6193C67.5026 18.8041 67.1393 18.9021 66.7689 18.9027H66.7597L40.2229 18.9288L40.2254 18.9282ZM37.4941 14.4776C37.4991 14.5159 37.5007 14.5545 37.4989 14.5931L37.4947 14.6565C37.4891 15.3879 37.7724 16.0935 38.2861 16.6276C38.7998 17.1617 39.5046 17.4836 40.2552 17.5268C40.2863 17.5268 40.3161 17.5327 40.346 17.5375L66.753 17.5114H66.7671C66.9338 17.5109 67.0935 17.4462 67.2112 17.3313C67.3289 17.2165 67.3951 17.0609 67.3951 16.8987C67.3951 16.7824 67.3604 16.6686 67.2952 16.571L67.2343 16.4893C65.7157 14.3988 61.7437 11.5332 57.5742 9.52029C52.4753 7.05765 45.275 5.66516 38.7824 5.8844L38.6459 5.88797C38.5119 5.88703 38.378 5.89495 38.2451 5.91166C37.5044 6.04084 37.4916 7.06951 37.4916 7.11335V14.477L37.4941 14.4776Z"/>
</mask>
<path d="M6.34375 41.5227C5.36465 41.526 4.40692 41.244 3.59402 40.7132C2.78111 40.1823 2.15024 39.4268 1.78265 38.544C1.76697 38.5165 1.75332 38.488 1.74183 38.4586C0.9845 36.5258 0.598047 34.4742 0.601587 32.4058C0.602759 29.6014 1.2969 26.8384 2.62561 24.3497C3.95432 21.861 5.8786 19.7195 8.23624 18.1057C10.3018 14.1552 13.644 8.8513 17.9657 5.67405C23.7864 1.39525 31.1605 0.805664 38.2622 0.805664C47.6262 0.805664 54.6596 2.16853 60.3939 5.08802C63.7848 6.81471 69.1377 10.184 71.8733 12.6217C73.3352 13.9253 77.4345 16.7583 78.1771 17.2703C78.7411 17.3929 80.8109 17.8468 81.7228 18.0969C86.4227 19.388 88.9469 20.4256 91.4833 23.162C93.8059 25.6673 95.3817 30.0047 95.5949 34.4797C95.6143 35.1914 95.5913 35.9037 95.526 36.6129C95.255 39.4446 93.1157 41.4996 90.4386 41.4996L6.55633 41.5132C6.48628 41.518 6.41806 41.5227 6.34375 41.5227ZM3.05085 37.8939C3.06332 37.9168 3.07428 37.9403 3.08372 37.9645C3.33768 38.6042 3.78527 39.1539 4.36724 39.5409C4.9492 39.9279 5.6382 40.134 6.34315 40.132C6.38275 40.132 6.42292 40.132 6.4619 40.1261L6.54778 40.1213H6.58496L90.4392 40.1107C92.361 40.1107 93.9015 38.586 94.1031 36.4855C94.1603 35.8406 94.1807 35.1931 94.164 34.546C93.9685 30.4391 92.4987 26.3363 90.4191 24.0935C88.1197 21.6125 85.7576 20.6519 81.3323 19.436C80.334 19.1623 77.7513 18.6065 77.7251 18.5982C77.633 18.5783 77.5458 18.5409 77.4687 18.4879C77.2695 18.3522 72.5781 15.1353 70.9067 13.6486C68.3392 11.3637 63.0545 8.0158 59.7287 6.32111C54.2064 3.50828 47.3843 2.19816 38.2597 2.19816C30.3412 2.19816 24.0063 2.97795 18.8252 6.78508C14.6655 9.84382 11.4189 15.0565 9.4283 18.8915C9.37461 18.9954 9.29479 19.0845 9.19624 19.1504C6.98686 20.6299 5.18015 22.6096 3.93159 24.9189C2.68302 27.2283 2.03002 29.7982 2.02876 32.4075C2.02687 34.2814 2.37272 36.1401 3.05085 37.8939ZM29.0718 18.9282L16.2925 18.9021C15.9251 18.9049 15.5636 18.8119 15.2457 18.6328C14.9278 18.4537 14.665 18.195 14.4847 17.8836C14.3044 17.5722 14.2131 17.2195 14.2204 16.8621C14.2276 16.5048 14.3332 16.1559 14.526 15.8517L14.8306 15.287C16.1308 12.9013 17.9336 10.8093 20.1214 9.14758C23.2614 6.67427 24.9797 5.80086 29.6096 5.15735C30.1368 5.09545 30.6688 5.08077 31.1988 5.1135C31.738 5.12138 32.2528 5.33424 32.6327 5.70655C33.0127 6.07885 33.2278 6.58103 33.232 7.10565V14.5522C33.232 14.5694 33.232 14.5872 33.232 14.6044C33.232 14.6346 33.232 14.6583 33.232 14.6826C33.2311 15.7438 32.8214 16.7661 32.0837 17.5479C31.346 18.3296 30.334 18.8141 29.2472 18.9057C29.1899 18.9203 29.131 18.9279 29.0718 18.9282ZM30.6147 6.48762C30.3469 6.48548 30.0793 6.50132 29.8137 6.53503C25.489 7.13528 23.9753 7.90322 21.0223 10.229C18.984 11.7751 17.3042 13.7224 16.0927 15.9435L15.7802 16.5219C15.771 16.5385 15.7619 16.5539 15.7516 16.5699C15.6902 16.662 15.6557 16.7686 15.6515 16.8784C15.6473 16.9881 15.6736 17.0969 15.7277 17.1933C15.7818 17.2897 15.8616 17.37 15.9588 17.4259C16.0559 17.4818 16.1668 17.5112 16.2797 17.5108L28.9567 17.5369C28.9848 17.5313 29.0132 17.5277 29.0419 17.5262C29.7884 17.4845 30.4902 17.1667 31.0037 16.6379C31.5171 16.1091 31.8033 15.4094 31.8037 14.682L31.7976 14.5913C31.7959 14.5494 31.7979 14.5073 31.8037 14.4657V7.11809C31.8035 6.95564 31.7373 6.79986 31.6193 6.68482C31.5014 6.56978 31.3415 6.50484 31.1745 6.50421H31.1233C31.1191 6.50184 30.9046 6.48762 30.6147 6.48762ZM40.2254 18.9282C40.1654 18.9284 40.1056 18.9212 40.0475 18.9069C38.9607 18.8153 37.9486 18.3308 37.2108 17.5491C36.473 16.7673 36.0631 15.745 36.062 14.6838C36.062 14.6553 36.062 14.6245 36.062 14.5973C36.062 14.5824 36.062 14.5676 36.062 14.5534V7.11691C36.062 7.10446 36.062 7.09202 36.062 7.07899C36.0252 6.50261 36.1988 5.9321 36.5524 5.46817C36.9059 5.00425 37.4165 4.67673 37.9941 4.54346C38.2013 4.51256 38.4107 4.49731 38.6203 4.49784H38.7312C45.5533 4.26615 52.8317 5.67939 58.2108 8.27712C61.896 10.0548 66.4765 13.0394 68.4007 15.6887L68.4872 15.8072C68.6898 16.1089 68.8049 16.4581 68.8203 16.8181C68.8358 17.1781 68.7511 17.5355 68.5751 17.8525C68.3991 18.1695 68.1384 18.4344 67.8205 18.6193C67.5026 18.8041 67.1393 18.9021 66.7689 18.9027H66.7597L40.2229 18.9288L40.2254 18.9282ZM37.4941 14.4776C37.4991 14.5159 37.5007 14.5545 37.4989 14.5931L37.4947 14.6565C37.4891 15.3879 37.7724 16.0935 38.2861 16.6276C38.7998 17.1617 39.5046 17.4836 40.2552 17.5268C40.2863 17.5268 40.3161 17.5327 40.346 17.5375L66.753 17.5114H66.7671C66.9338 17.5109 67.0935 17.4462 67.2112 17.3313C67.3289 17.2165 67.3951 17.0609 67.3951 16.8987C67.3951 16.7824 67.3604 16.6686 67.2952 16.571L67.2343 16.4893C65.7157 14.3988 61.7437 11.5332 57.5742 9.52029C52.4753 7.05765 45.275 5.66516 38.7824 5.8844L38.6459 5.88797C38.5119 5.88703 38.378 5.89495 38.2451 5.91166C37.5044 6.04084 37.4916 7.06951 37.4916 7.11335V14.477L37.4941 14.4776Z" stroke="#BCBEC1" stroke-width="3" mask="url(#path-1-inside-1_4575_3947)"/>
<path d="M20.6661 38.0724C20.8202 38.3014 20.9022 38.57 20.9022 38.8442C20.9022 39.2118 20.7551 39.5655 20.4914 39.8272C20.2276 40.0891 19.8686 40.2372 19.493 40.2372C19.2131 40.2372 18.94 40.1548 18.7081 40.001C18.4762 39.8472 18.2964 39.6293 18.1905 39.3754C18.0845 39.1216 18.0569 38.8426 18.1109 38.5735C18.1648 38.3043 18.2981 38.0563 18.4947 37.8611C18.6914 37.6659 18.9427 37.5323 19.2171 37.4781C19.4916 37.424 19.7759 37.4518 20.0341 37.558C20.2922 37.6641 20.5119 37.8434 20.6661 38.0724Z" fill="black" stroke="#BCBEC1" stroke-width="1.5"/>
<path d="M29.0729 19.0021L29.2111 19.0024L29.5541 19.0031L29.5904 18.9613C30.583 18.8322 31.5064 18.3714 32.2018 17.6481C32.9357 16.8849 33.3626 15.8844 33.4033 14.834L33.4059 14.8312V14.7398C33.4063 14.7164 33.4065 14.6929 33.4065 14.6695V14.6693C33.4065 14.6566 33.4063 14.6442 33.4059 14.6325V14.5376L33.4059 7.02065L33.4059 7.01824C33.4041 6.4662 33.1799 5.93984 32.7862 5.55385C32.3991 5.1743 31.8794 4.9607 31.3387 4.95414C30.8145 4.92233 30.2886 4.93655 29.767 4.99661L29.7577 4.99768L29.7485 4.99898C27.4995 5.31482 25.9028 5.68927 24.4661 6.31728C23.0307 6.94477 21.7983 7.80684 20.2598 9.0323C18.0696 10.7178 16.2627 12.8375 14.9566 15.2548L15.6165 15.6113M29.0729 19.0021L29.8528 5.74169C25.4122 6.36531 23.7736 7.19182 20.7222 9.62286C18.6126 11.2452 16.8731 13.2854 15.6165 15.6113M29.0729 19.0021L27.2804 19.101L27.3845 18.9985L16.4464 18.9755M29.0729 19.0021L16.4464 18.9755M15.6165 15.6113C15.6 15.6406 15.3025 16.1966 15.3025 16.1966M15.6165 15.6113L14.9621 15.2447C14.9494 15.2675 14.8651 15.4248 14.7922 15.5607L14.688 15.7553L14.655 15.8169M15.3025 16.1966L14.6748 15.7862C14.6681 15.7964 14.6615 15.8066 14.655 15.8169M15.3025 16.1966C15.1722 16.3959 15.099 16.626 15.0906 16.8628C15.0822 17.0995 15.1389 17.3342 15.2547 17.5419L16.4336 18.9755H16.4349C16.0621 18.9766 15.6951 18.879 15.3725 18.6919C15.0493 18.5045 14.7818 18.2339 14.5996 17.9071C14.4174 17.5803 14.3278 17.2102 14.3411 16.8361C14.3539 16.4742 14.4626 16.123 14.655 15.8169M15.3025 16.1966L14.6412 15.8427L14.6412 15.8427L14.6413 15.8426L14.6415 15.8423L14.6421 15.8411L14.6446 15.8365L14.6541 15.8187L14.655 15.8169M16.4464 18.9755L16.4448 18.9755L16.4464 18.9755ZM58.3338 8.15179C52.984 5.53825 45.6268 4.10193 38.8796 4.33029C38.6383 4.32924 38.3972 4.34409 38.1579 4.37475L38.1403 4.377L38.1228 4.38008C37.3727 4.51245 36.8664 4.96887 36.5655 5.48442C36.2749 5.98242 36.1633 6.54917 36.1609 7.01628V7.02005V14.5352V14.626C36.1606 14.6389 36.1603 14.6526 36.1603 14.6669V14.6673C36.1603 14.6903 36.1605 14.7133 36.1609 14.7363V14.8293L36.1636 14.8322C36.2047 15.8817 36.6311 16.8812 37.3641 17.644C38.0589 18.3672 38.9816 18.8283 39.9736 18.9581L40.0124 19.0027L40.3549 19.0024L66.4482 18.9759L66.8626 18.9778C67.2361 18.9796 67.604 18.8822 67.9274 18.695C68.251 18.5077 68.5187 18.2371 68.701 17.9103C68.8835 17.5835 68.9733 17.2133 68.96 16.839C68.9468 16.4648 68.8312 16.1018 68.6263 15.7885L68.6206 15.7798L68.6146 15.7712L68.6145 15.7711L68.6144 15.7709L68.6138 15.7701L68.6118 15.7672L68.6046 15.7567L68.5812 15.7232C68.5658 15.7012 68.5426 15.6681 68.5272 15.6469C67.5794 14.3296 65.9916 12.9313 64.1928 11.6407C62.3813 10.3409 60.3048 9.11429 58.3338 8.15179ZM58.3338 8.15179L58.0045 8.82567M58.3338 8.15179L58.0045 8.82567M58.0045 8.82567C52.776 6.27135 45.5365 4.85294 38.8902 5.08037L67.9195 16.0865C66.1653 13.6471 61.875 10.7157 58.0045 8.82567ZM90.4743 24.2102L90.4743 24.2103C92.6399 26.5716 94.0122 30.744 94.2009 34.7257C94.2179 35.3802 94.1975 36.0351 94.1397 36.6873C93.9444 38.7452 92.4673 40.3052 90.516 40.3052H86.2945L9.25559 40.3154H9.25549H6.75177H6.73278L6.71382 40.3163C6.664 40.3189 6.63018 40.3211 6.60375 40.3228C6.56513 40.3253 6.54229 40.3267 6.50843 40.3267C5.80941 40.3267 5.12772 40.1192 4.55241 39.7329L4.1343 40.3556L4.55241 39.7329C3.97726 39.3467 3.53585 38.8002 3.28377 38.1663L3.21298 37.9883L3.20954 37.9854C2.56212 36.2526 2.23286 34.4202 2.23735 32.5735L2.23735 32.5713C2.23586 29.9458 2.88429 27.3589 4.12737 25.034C5.37049 22.709 7.17117 20.7154 9.37491 19.2263L9.53428 19.1186L9.62215 18.9475C11.8925 14.5271 15.1247 9.61369 18.9961 6.73624L18.9961 6.73622C24.3048 2.79012 30.9551 2.1084 38.3932 2.1084C45.34 2.1084 53.1934 2.85317 59.826 6.26959L59.8261 6.26963C63.1144 7.96296 68.3821 11.3228 70.9852 13.6653L70.9853 13.6655C71.8482 14.4415 73.503 15.673 74.9106 16.6902C75.621 17.2035 76.279 17.6698 76.7593 18.0078C76.9996 18.1768 77.1955 18.3138 77.3316 18.4086L77.4887 18.518L77.53 18.5467L77.5406 18.554L77.5433 18.5559L77.5441 18.5564L77.5443 18.5566C77.5443 18.5566 77.5443 18.5566 77.9713 17.94L77.5443 18.5566L77.6664 18.6411L77.8114 18.6727L77.8115 18.6728L77.8118 18.6728L77.8131 18.6731L77.8186 18.6743L77.8404 18.6791L77.9246 18.6976C77.9976 18.7136 78.1033 18.7369 78.2333 18.7658C78.4935 18.8235 78.8509 18.9034 79.2402 18.9921C80.0252 19.171 80.9188 19.3812 81.4136 19.5185L81.6142 18.7958L81.4137 19.5185C85.8915 20.7607 88.1841 21.7125 90.4743 24.2102Z" fill="white" stroke="#BCBEC1" stroke-width="1.5"/>
<path d="M42.2107 37.0682C42.2104 37.0682 42.2102 37.0682 42.2099 37.0682H42.2107Z" fill="black" stroke="#BCBEC1" stroke-width="1.5"/>
<mask id="path-5-inside-2_4575_3947" fill="white">
<path d="M66.2401 31.1829C66.054 31.1829 65.8754 31.1089 65.7437 30.9773C65.6121 30.8456 65.5381 30.6671 65.5381 30.4809V21.6096C65.5381 21.4233 65.6121 21.2446 65.7438 21.1129C65.8755 20.9812 66.0542 20.9072 66.2404 20.9072C66.4267 20.9072 66.6053 20.9812 66.737 21.1129C66.8687 21.2446 66.9427 21.4233 66.9427 21.6096V30.4809C66.9425 30.6671 66.8684 30.8457 66.7367 30.9773C66.6049 31.1089 66.4264 31.1829 66.2401 31.1829Z"/>
</mask>
<path d="M66.2401 31.1829C66.054 31.1829 65.8754 31.1089 65.7437 30.9773C65.6121 30.8456 65.5381 30.6671 65.5381 30.4809V21.6096C65.5381 21.4233 65.6121 21.2446 65.7438 21.1129C65.8755 20.9812 66.0542 20.9072 66.2404 20.9072C66.4267 20.9072 66.6053 20.9812 66.737 21.1129C66.8687 21.2446 66.9427 21.4233 66.9427 21.6096V30.4809C66.9425 30.6671 66.8684 30.8457 66.7367 30.9773C66.6049 31.1089 66.4264 31.1829 66.2401 31.1829Z" fill="black"/>
<path d="M66.2401 31.1829L66.2401 29.6829H66.2401V31.1829ZM65.5381 21.6096H67.0381H65.5381ZM66.9427 30.4809L68.4427 30.4821V30.4809H66.9427ZM66.2401 29.6829C66.4518 29.6829 66.6547 29.767 66.8044 29.9166L64.6831 32.0379C65.096 32.4509 65.6561 32.6829 66.2401 32.6829V29.6829ZM66.8044 29.9166C66.9539 30.0661 67.0381 30.269 67.0381 30.4809H64.0381C64.0381 31.0651 64.2703 31.6251 64.6831 32.0379L66.8044 29.9166ZM67.0381 30.4809V21.6096H64.0381V30.4809H67.0381ZM67.0381 21.6096C67.0381 21.8212 66.954 22.0241 66.8045 22.1736L64.6831 20.0523C64.2702 20.4652 64.0381 21.0253 64.0381 21.6096H67.0381ZM66.8045 22.1736C66.6549 22.3232 66.452 22.4072 66.2404 22.4072V19.4072C65.6564 19.4072 65.0962 19.6393 64.6831 20.0523L66.8045 22.1736ZM66.2404 22.4072C66.0287 22.4072 65.8258 22.3231 65.6763 22.1736L67.7977 20.0523C67.3848 19.6394 66.8247 19.4072 66.2404 19.4072V22.4072ZM65.6763 22.1736C65.5268 22.0241 65.4427 21.8212 65.4427 21.6096H68.4427C68.4427 21.0253 68.2106 20.4652 67.7977 20.0523L65.6763 22.1736ZM65.4427 21.6096V30.4809H68.4427V21.6096H65.4427ZM65.4427 30.4796C65.4429 30.2682 65.527 30.0656 65.6765 29.9162L67.7969 32.0384C68.2099 31.6258 68.4422 31.0661 68.4427 30.4821L65.4427 30.4796ZM65.6765 29.9162C65.8259 29.7669 66.0286 29.6829 66.2401 29.6829L66.2401 32.6829C66.8241 32.6829 67.384 32.451 67.7969 32.0384L65.6765 29.9162Z" fill="#BCBEC1" mask="url(#path-5-inside-2_4575_3947)"/>
<mask id="path-7-inside-3_4575_3947" fill="white">
<path d="M60.7801 22.8169H57.0581C56.8687 22.8169 56.6869 22.7641 56.553 22.6701C56.419 22.5761 56.3437 22.4486 56.3438 22.3157C56.3437 22.1827 56.419 22.0552 56.553 21.9613C56.6869 21.8673 56.8687 21.8145 57.0581 21.8145H60.7801C60.9695 21.8145 61.1513 21.8673 61.2852 21.9613C61.4192 22.0552 61.4945 22.1827 61.4945 22.3157C61.4945 22.4486 61.4192 22.5761 61.2852 22.6701C61.1513 22.7641 60.9695 22.8169 60.7801 22.8169Z"/>
</mask>
<path d="M60.7801 22.8169H57.0581C56.8687 22.8169 56.6869 22.7641 56.553 22.6701C56.419 22.5761 56.3437 22.4486 56.3438 22.3157C56.3437 22.1827 56.419 22.0552 56.553 21.9613C56.6869 21.8673 56.8687 21.8145 57.0581 21.8145H60.7801C60.9695 21.8145 61.1513 21.8673 61.2852 21.9613C61.4192 22.0552 61.4945 22.1827 61.4945 22.3157C61.4945 22.4486 61.4192 22.5761 61.2852 22.6701C61.1513 22.7641 60.9695 22.8169 60.7801 22.8169Z" fill="black"/>
<path d="M57.0581 22.8169V24.3169V22.8169ZM56.3438 22.3157H57.8438H56.3438ZM60.7801 21.8145V23.3145V21.8145ZM61.4945 22.3157H59.9945H61.4945ZM60.7801 21.3169H57.0581V24.3169H60.7801V21.3169ZM57.0581 21.3169C57.1008 21.3169 57.1492 21.3226 57.2033 21.3383C57.2563 21.3537 57.3309 21.3835 57.4145 21.4422L55.6914 23.898C56.116 24.1959 56.6106 24.3169 57.0581 24.3169V21.3169ZM57.4145 21.4422C57.5763 21.5557 57.8438 21.8447 57.8438 22.3157H54.8438C54.8438 23.0525 55.2617 23.5965 55.6914 23.898L57.4145 21.4422ZM57.8438 22.3157C57.8438 22.7866 57.5763 23.0756 57.4145 23.1892L55.6914 20.7334C55.2617 21.0349 54.8438 21.5788 54.8438 22.3157H57.8438ZM57.4145 23.1892C57.3309 23.2479 57.2563 23.2776 57.2033 23.293C57.1492 23.3088 57.1008 23.3145 57.0581 23.3145V20.3145C56.6106 20.3145 56.116 20.4355 55.6914 20.7334L57.4145 23.1892ZM57.0581 23.3145H60.7801V20.3145H57.0581V23.3145ZM60.7801 23.3145C60.7374 23.3145 60.689 23.3088 60.6349 23.293C60.5819 23.2776 60.5073 23.2479 60.4237 23.1892L62.1468 20.7334C61.7222 20.4355 61.2276 20.3145 60.7801 20.3145V23.3145ZM60.4237 23.1892C60.2619 23.0756 59.9945 22.7866 59.9945 22.3157H62.9945C62.9945 21.5788 62.5765 21.0349 62.1468 20.7334L60.4237 23.1892ZM59.9945 22.3157C59.9945 21.8447 60.2619 21.5557 60.4237 21.4422L62.1468 23.898C62.5765 23.5965 62.9945 23.0525 62.9945 22.3157H59.9945ZM60.4237 21.4422C60.5073 21.3835 60.5819 21.3537 60.6349 21.3383C60.689 21.3226 60.7374 21.3169 60.7801 21.3169V24.3169C61.2276 24.3169 61.7222 24.1959 62.1468 23.898L60.4237 21.4422Z" fill="#BCBEC1" mask="url(#path-7-inside-3_4575_3947)"/>
<mask id="path-9-inside-4_4575_3947" fill="white">
<path d="M92.7674 37.1399H89.0454C88.856 37.1399 88.6743 37.077 88.5403 36.9651C88.4063 36.8531 88.3311 36.7014 88.3311 36.5431C88.3311 36.3848 88.4063 36.233 88.5403 36.1211C88.6743 36.0092 88.856 35.9463 89.0454 35.9463H92.7674C92.9568 35.9463 93.1386 36.0092 93.2725 36.1211C93.4065 36.233 93.4818 36.3848 93.4818 36.5431C93.4818 36.7014 93.4065 36.8531 93.2725 36.9651C93.1386 37.077 92.9568 37.1399 92.7674 37.1399Z"/>
</mask>
<path d="M89.0454 37.1399V38.6399V37.1399ZM88.3311 36.5431H89.8311H88.3311ZM92.7674 35.9463V37.4463V35.9463ZM93.4818 36.5431H91.9818H93.4818ZM92.7674 35.6399H89.0454V38.6399H92.7674V35.6399ZM89.0454 35.6399C89.1752 35.6399 89.3424 35.6806 89.502 35.8139L87.5786 38.1162C88.0061 38.4734 88.5367 38.6399 89.0454 38.6399V35.6399ZM89.502 35.8139C89.6694 35.9538 89.8311 36.2075 89.8311 36.5431H86.8311C86.8311 37.1952 87.1432 37.7525 87.5786 38.1162L89.502 35.8139ZM89.8311 36.5431C89.8311 36.8786 89.6694 37.1324 89.502 37.2722L87.5786 34.9699C87.1432 35.3337 86.8311 35.891 86.8311 36.5431H89.8311ZM89.502 37.2722C89.3424 37.4056 89.1752 37.4463 89.0454 37.4463V34.4463C88.5367 34.4463 88.0061 34.6128 87.5786 34.9699L89.502 37.2722ZM89.0454 37.4463H92.7674V34.4463H89.0454V37.4463ZM92.7674 37.4463C92.6376 37.4463 92.4704 37.4056 92.3108 37.2722L94.2342 34.9699C93.8067 34.6128 93.2761 34.4463 92.7674 34.4463V37.4463ZM92.3108 37.2722C92.1434 37.1324 91.9818 36.8786 91.9818 36.5431H94.9818C94.9818 35.891 94.6696 35.3337 94.2342 34.9699L92.3108 37.2722ZM91.9818 36.5431C91.9818 36.2075 92.1434 35.9538 92.3108 35.8139L94.2342 38.1162C94.6696 37.7525 94.9818 37.1952 94.9818 36.5431H91.9818ZM92.3108 35.8139C92.4704 35.6806 92.6376 35.6399 92.7674 35.6399V38.6399C93.2761 38.6399 93.8067 38.4734 94.2342 38.1162L92.3108 35.8139Z" fill="#BCBEC1" mask="url(#path-9-inside-4_4575_3947)"/>
<path d="M90.7393 27.0695C90.7393 27.6856 90.2346 28.1946 89.6001 28.1946C88.9657 28.1946 88.4609 27.6856 88.4609 27.0695C88.4609 26.4534 88.9657 25.9443 89.6001 25.9443C90.2346 25.9443 90.7393 26.4534 90.7393 27.0695Z" fill="white" stroke="#BCBEC1" stroke-width="1.5"/>
<path d="M28.459 38.3204C28.459 42.783 24.8126 46.4103 20.3027 46.4103C15.7929 46.4103 12.1465 42.783 12.1465 38.3204C12.1465 33.8577 15.7929 30.2305 20.3027 30.2305C24.8126 30.2305 28.459 33.8577 28.459 38.3204Z" fill="white" stroke="#BCBEC1" stroke-width="1.5"/>
<path d="M85.3564 38.9659C85.3564 43.4285 81.7101 47.0558 77.2002 47.0558C72.6903 47.0558 69.0439 43.4285 69.0439 38.9659C69.0439 34.5032 72.6903 30.876 77.2002 30.876C81.7101 30.876 85.3564 34.5032 85.3564 38.9659Z" fill="white" stroke="#BCBEC1" stroke-width="1.5"/>
<path d="M21.9817 38.5879C21.9817 39.6479 21.1145 40.5167 20.0328 40.5167C18.9512 40.5167 18.084 39.6479 18.084 38.5879C18.084 37.528 18.9512 36.6592 20.0328 36.6592C21.1145 36.6592 21.9817 37.528 21.9817 38.5879Z" fill="white" stroke="#BCBEC1" stroke-width="1.5"/>
<path d="M79.4192 39.0489C79.4192 40.1088 78.552 40.9776 77.4703 40.9776C76.3887 40.9776 75.5215 40.1088 75.5215 39.0489C75.5215 37.9889 76.3887 37.1201 77.4703 37.1201C78.552 37.1201 79.4192 37.9889 79.4192 39.0489Z" fill="white" stroke="#BCBEC1" stroke-width="1.5"/>
<path d="M9.77734 35.9093C10.1372 33.2306 12.6921 27.873 20.033 27.873" stroke="#BCBEC1" stroke-width="1.5" stroke-linecap="round"/>
<path d="M66.9932 35.9093C67.353 33.2306 69.9079 27.873 77.2488 27.873" stroke="#BCBEC1" stroke-width="1.5" stroke-linecap="round"/>
<path d="M8.85039 59.8916V60.8057H3.55938V52.5498H4.67852V59.8916H8.85039ZM12.0805 60.9229C11.4438 60.9229 10.9652 60.7549 10.6449 60.4189C10.3246 60.083 10.1645 59.6221 10.1645 59.0361C10.1645 58.3799 10.3793 57.876 10.809 57.5244C11.2426 57.1729 11.9398 56.9854 12.9008 56.9619L14.3246 56.9385V56.5928C14.3246 56.0771 14.2152 55.708 13.9965 55.4854C13.7777 55.2627 13.434 55.1514 12.9652 55.1514C12.4926 55.1514 12.1488 55.2314 11.934 55.3916C11.7191 55.5518 11.5902 55.8076 11.5473 56.1592L10.4457 56.0596C10.6254 54.9189 11.473 54.3486 12.9887 54.3486C13.7855 54.3486 14.3852 54.5322 14.7875 54.8994C15.1898 55.2627 15.391 55.79 15.391 56.4814V59.2119C15.391 59.5244 15.432 59.7607 15.5141 59.9209C15.5961 60.0771 15.7523 60.1553 15.9828 60.1553C16.0922 60.1553 16.2074 60.1416 16.3285 60.1143V60.7705C16.1957 60.8018 16.0609 60.8252 15.9242 60.8408C15.7875 60.8564 15.6508 60.8643 15.5141 60.8643C15.1234 60.8643 14.8383 60.7627 14.6586 60.5596C14.4828 60.3525 14.3832 60.0303 14.3598 59.5928H14.3246C14.0551 60.0771 13.7406 60.4209 13.3813 60.624C13.0258 60.8232 12.5922 60.9229 12.0805 60.9229ZM14.3246 57.6768L13.1703 57.7002C12.6781 57.7041 12.3031 57.7549 12.0453 57.8525C11.7875 57.9463 11.5902 58.0908 11.4535 58.2861C11.3168 58.4814 11.2484 58.7373 11.2484 59.0537C11.2484 59.3975 11.3402 59.6631 11.5238 59.8506C11.7113 60.0381 11.977 60.1318 12.3207 60.1318C12.7113 60.1318 13.0551 60.0439 13.352 59.8682C13.6527 59.6924 13.8891 59.4521 14.0609 59.1475C14.2367 58.8389 14.3246 58.5225 14.3246 58.1982V57.6768ZM19.9805 60.7588C19.6367 60.8525 19.2813 60.8994 18.9141 60.8994C18.4922 60.8994 18.1758 60.7803 17.9648 60.542C17.7539 60.2998 17.6484 59.9404 17.6484 59.4639V55.2334H16.916V54.4658H17.6895L18 53.0479H18.7031V54.4658H19.875V55.2334H18.7031V59.2354C18.7031 59.54 18.752 59.7549 18.8496 59.8799C18.9512 60.001 19.125 60.0615 19.3711 60.0615C19.5039 60.0615 19.707 60.0342 19.9805 59.9795V60.7588ZM22.0914 57.8584C22.0914 58.585 22.2418 59.1455 22.5426 59.54C22.8434 59.9346 23.2828 60.1318 23.8609 60.1318C24.318 60.1318 24.6832 60.04 24.9566 59.8564C25.234 59.6729 25.4215 59.4404 25.5191 59.1592L26.4449 59.4229C26.066 60.4229 25.2047 60.9229 23.8609 60.9229C22.9234 60.9229 22.2086 60.6436 21.7164 60.085C21.2281 59.5264 20.984 58.6963 20.984 57.5947C20.984 56.5479 21.2281 55.7451 21.7164 55.1865C22.2086 54.6279 22.9098 54.3486 23.8199 54.3486C24.7535 54.3486 25.4527 54.6299 25.9176 55.1924C26.3824 55.7549 26.6148 56.5967 26.6148 57.7178V57.8584H22.0914ZM25.525 57.0498C25.4664 56.3818 25.2965 55.8955 25.0152 55.5908C24.734 55.2822 24.3297 55.1279 23.8023 55.1279C23.2906 55.1279 22.8844 55.2998 22.5836 55.6436C22.2867 55.9834 22.1266 56.4521 22.1031 57.0498H25.525ZM29.4406 57.501V60.8057H28.3859V55.9424C28.3859 55.7197 28.382 55.4854 28.3742 55.2393C28.3703 54.9932 28.3625 54.7354 28.3508 54.4658H29.3469C29.3547 54.6455 29.3605 54.8076 29.3645 54.9521C29.3723 55.0967 29.3781 55.2236 29.382 55.333C29.3859 55.4385 29.3879 55.5283 29.3879 55.6025C29.3918 55.6729 29.3938 55.7256 29.3938 55.7607H29.4172C29.5344 55.3779 29.6633 55.0811 29.8039 54.8701C29.9406 54.6748 30.0969 54.54 30.2727 54.4658C30.4484 54.3877 30.6652 54.3486 30.923 54.3486C31.0676 54.3486 31.2102 54.3682 31.3508 54.4072V55.374C31.218 55.335 31.0305 55.3154 30.7883 55.3154C30.3508 55.3154 30.0168 55.5049 29.7863 55.8838C29.5559 56.2588 29.4406 56.7979 29.4406 57.501ZM34.3758 60.9229C33.7391 60.9229 33.2605 60.7549 32.9402 60.4189C32.6199 60.083 32.4598 59.6221 32.4598 59.0361C32.4598 58.3799 32.6746 57.876 33.1043 57.5244C33.5379 57.1729 34.2352 56.9854 35.1961 56.9619L36.6199 56.9385V56.5928C36.6199 56.0771 36.5105 55.708 36.2918 55.4854C36.073 55.2627 35.7293 55.1514 35.2605 55.1514C34.7879 55.1514 34.4441 55.2314 34.2293 55.3916C34.0145 55.5518 33.8855 55.8076 33.8426 56.1592L32.741 56.0596C32.9207 54.9189 33.7684 54.3486 35.284 54.3486C36.0809 54.3486 36.6805 54.5322 37.0828 54.8994C37.4852 55.2627 37.6863 55.79 37.6863 56.4814V59.2119C37.6863 59.5244 37.7273 59.7607 37.8094 59.9209C37.8914 60.0771 38.0477 60.1553 38.2781 60.1553C38.3875 60.1553 38.5027 60.1416 38.6238 60.1143V60.7705C38.491 60.8018 38.3563 60.8252 38.2195 60.8408C38.0828 60.8564 37.9461 60.8643 37.8094 60.8643C37.4188 60.8643 37.1336 60.7627 36.9539 60.5596C36.7781 60.3525 36.6785 60.0303 36.6551 59.5928H36.6199C36.3504 60.0771 36.0359 60.4209 35.6766 60.624C35.3211 60.8232 34.8875 60.9229 34.3758 60.9229ZM36.6199 57.6768L35.4656 57.7002C34.9734 57.7041 34.5984 57.7549 34.3406 57.8525C34.0828 57.9463 33.8855 58.0908 33.7488 58.2861C33.6121 58.4814 33.5438 58.7373 33.5438 59.0537C33.5438 59.3975 33.6355 59.6631 33.8191 59.8506C34.0066 60.0381 34.2723 60.1318 34.616 60.1318C35.0066 60.1318 35.3504 60.0439 35.6473 59.8682C35.948 59.6924 36.1844 59.4521 36.3563 59.1475C36.532 58.8389 36.6199 58.5225 36.6199 58.1982V57.6768ZM40.893 52.1104V60.8057H39.8383V52.1104H40.893ZM53.9332 56.5928C53.9332 57.4639 53.7633 58.2139 53.4234 58.8428C53.0875 59.4717 52.6168 59.9561 52.0113 60.2959C51.4098 60.6357 50.7105 60.8057 49.9137 60.8057H46.8258V52.5498H49.5563C50.9547 52.5498 52.0328 52.9014 52.7906 53.6045C53.5523 54.3037 53.9332 55.2998 53.9332 56.5928ZM52.8082 56.5928C52.8082 55.5693 52.527 54.79 51.9645 54.2549C51.4059 53.7158 50.5953 53.4463 49.5328 53.4463H47.9449V59.9092H49.7848C50.398 59.9092 50.9293 59.7744 51.3785 59.5049C51.8316 59.2354 52.1832 58.8525 52.4332 58.3564C52.6832 57.8604 52.8082 57.2725 52.8082 56.5928ZM56.5305 57.8584C56.5305 58.585 56.6809 59.1455 56.9816 59.54C57.2824 59.9346 57.7219 60.1318 58.3 60.1318C58.757 60.1318 59.1223 60.04 59.3957 59.8564C59.673 59.6729 59.8605 59.4404 59.9582 59.1592L60.884 59.4229C60.5051 60.4229 59.6437 60.9229 58.3 60.9229C57.3625 60.9229 56.6477 60.6436 56.1555 60.085C55.6672 59.5264 55.423 58.6963 55.423 57.5947C55.423 56.5479 55.6672 55.7451 56.1555 55.1865C56.6477 54.6279 57.3488 54.3486 58.259 54.3486C59.1926 54.3486 59.8918 54.6299 60.3566 55.1924C60.8215 55.7549 61.0539 56.5967 61.0539 57.7178V57.8584H56.5305ZM59.9641 57.0498C59.9055 56.3818 59.7355 55.8955 59.4543 55.5908C59.173 55.2822 58.7687 55.1279 58.2414 55.1279C57.7297 55.1279 57.3234 55.2998 57.0227 55.6436C56.7258 55.9834 56.5656 56.4521 56.5422 57.0498H59.9641ZM63.8797 57.501V60.8057H62.825V55.9424C62.825 55.7197 62.8211 55.4854 62.8133 55.2393C62.8094 54.9932 62.8016 54.7354 62.7898 54.4658H63.7859C63.7938 54.6455 63.7996 54.8076 63.8035 54.9521C63.8113 55.0967 63.8172 55.2236 63.8211 55.333C63.825 55.4385 63.827 55.5283 63.827 55.6025C63.8309 55.6729 63.8328 55.7256 63.8328 55.7607H63.8563C63.9734 55.3779 64.1023 55.0811 64.243 54.8701C64.3797 54.6748 64.5359 54.54 64.7117 54.4658C64.8875 54.3877 65.1043 54.3486 65.3621 54.3486C65.5066 54.3486 65.6492 54.3682 65.7898 54.4072V55.374C65.657 55.335 65.4695 55.3154 65.2273 55.3154C64.7898 55.3154 64.4559 55.5049 64.2254 55.8838C63.9949 56.2588 63.8797 56.7979 63.8797 57.501ZM68.0063 57.8584C68.0063 58.585 68.1566 59.1455 68.4574 59.54C68.7582 59.9346 69.1977 60.1318 69.7758 60.1318C70.2328 60.1318 70.5981 60.04 70.8715 59.8564C71.1488 59.6729 71.3363 59.4404 71.434 59.1592L72.3598 59.4229C71.9809 60.4229 71.1195 60.9229 69.7758 60.9229C68.8383 60.9229 68.1234 60.6436 67.6313 60.085C67.143 59.5264 66.8988 58.6963 66.8988 57.5947C66.8988 56.5479 67.143 55.7451 67.6313 55.1865C68.1234 54.6279 68.8246 54.3486 69.7348 54.3486C70.6684 54.3486 71.3676 54.6299 71.8324 55.1924C72.2973 55.7549 72.5297 56.5967 72.5297 57.7178V57.8584H68.0063ZM71.4398 57.0498C71.3813 56.3818 71.2113 55.8955 70.9301 55.5908C70.6488 55.2822 70.2445 55.1279 69.7172 55.1279C69.2055 55.1279 68.7992 55.2998 68.4984 55.6436C68.2016 55.9834 68.0414 56.4521 68.018 57.0498H71.4398ZM76.709 60.9229C75.8223 60.9229 75.1445 60.6436 74.6758 60.085C74.2109 59.5225 73.9785 58.7041 73.9785 57.6299C73.9785 56.5635 74.2129 55.751 74.6816 55.1924C75.1504 54.6299 75.8223 54.3486 76.6973 54.3486C77.3457 54.3486 77.8828 54.5166 78.3086 54.8525C78.7383 55.1885 79.0078 55.6514 79.1172 56.2412L78.0332 56.3232C77.9785 55.9717 77.8398 55.6924 77.6172 55.4854C77.3945 55.2783 77.0781 55.1748 76.668 55.1748C76.1094 55.1748 75.7051 55.3604 75.4551 55.7314C75.2051 56.1025 75.0801 56.7275 75.0801 57.6064C75.0801 58.4502 75.2129 59.0752 75.4785 59.4814C75.7441 59.8877 76.1445 60.0908 76.6797 60.0908C77.0547 60.0908 77.3672 59.9893 77.6172 59.7861C77.8711 59.583 78.0273 59.2705 78.0859 58.8486L79.1523 58.9189C79.0977 59.3252 78.9609 59.6787 78.7422 59.9795C78.5273 60.2803 78.2461 60.5127 77.8984 60.6768C77.5547 60.8408 77.1582 60.9229 76.709 60.9229ZM81.7262 55.5498C81.9527 55.1357 82.2242 54.833 82.5406 54.6416C82.8609 54.4463 83.2652 54.3486 83.7535 54.3486C84.441 54.3486 84.9469 54.5283 85.2711 54.8877C85.5992 55.2432 85.7633 55.8076 85.7633 56.5811V60.8057H84.7027V56.7861C84.7027 56.2119 84.6012 55.7979 84.398 55.5439C84.1988 55.29 83.8648 55.1631 83.3961 55.1631C82.9 55.1631 82.5016 55.335 82.2008 55.6787C81.9039 56.0225 81.7555 56.4854 81.7555 57.0674V60.8057H80.7008V52.1104H81.7555V54.3721C81.7555 54.5283 81.7516 54.6943 81.7437 54.8701C81.7359 55.042 81.7281 55.1924 81.7203 55.3213C81.7164 55.4463 81.7125 55.5225 81.7086 55.5498H81.7262ZM93.1184 57.6299C93.1184 58.7393 92.8742 59.5654 92.3859 60.1084C91.8977 60.6514 91.1887 60.9229 90.259 60.9229C89.3332 60.9229 88.634 60.6416 88.1613 60.0791C87.6887 59.5127 87.4523 58.6963 87.4523 57.6299C87.4523 56.5361 87.6887 55.7158 88.1613 55.1689C88.6379 54.6221 89.3488 54.3486 90.2941 54.3486C91.2629 54.3486 91.9758 54.6162 92.4328 55.1514C92.8898 55.6826 93.1184 56.5088 93.1184 57.6299ZM92.0109 57.6299C92.0109 56.7549 91.8801 56.1201 91.6184 55.7256C91.3605 55.3271 90.925 55.1279 90.3117 55.1279C89.6945 55.1279 89.2473 55.3311 88.9699 55.7373C88.6965 56.1396 88.5598 56.7705 88.5598 57.6299C88.5598 58.4658 88.6945 59.0947 88.9641 59.5166C89.2375 59.9346 89.6652 60.1436 90.2473 60.1436C90.8801 60.1436 91.3313 59.9404 91.6008 59.5342C91.8742 59.1279 92.0109 58.4932 92.0109 57.6299Z" fill="#BCBEC1"/>
</svg>
