<svg width="25" height="24" viewBox="0 0 25 24" fill="none" xmlns="http://www.w3.org/2000/svg">
<g id="more_time">
<path id="more_time_2" d="M10.6267 24C9.15119 24 7.76892 23.719 6.47983 23.1571C5.19076 22.5951 4.06753 21.832 3.11013 20.8679C2.15271 19.9037 1.395 18.7725 0.837002 17.4743C0.279001 16.1761 0 14.7838 0 13.2973C0 11.8108 0.278938 10.4182 0.836815 9.11953C1.39469 7.82084 2.15435 6.68922 3.11579 5.72467C4.07725 4.7601 5.2037 3.99673 6.49514 3.43456C7.78658 2.87239 9.16747 2.59131 10.6378 2.59131C11.1287 2.59131 11.6126 2.62535 12.0893 2.69344C12.5661 2.76153 13.0524 2.86365 13.5481 2.99981V4.67079C13.0748 4.50504 12.5963 4.38073 12.1126 4.29784C11.6289 4.21495 11.1373 4.17351 10.6378 4.17351C8.12499 4.17351 5.98557 5.06097 4.21954 6.83588C2.4535 8.61081 1.57047 10.7641 1.57047 13.2957C1.57047 15.8272 2.45136 17.9805 4.21314 19.7554C5.97489 21.5303 8.11218 22.4178 10.625 22.4178C13.1378 22.4178 15.2751 21.5303 17.0369 19.7554C18.7986 17.9805 19.6795 15.8265 19.6795 13.2936C19.6795 13.0243 19.667 12.744 19.6419 12.4529C19.6167 12.1617 19.5681 11.8496 19.496 11.5164H21.0921C21.1423 11.7936 21.1812 12.0861 21.2087 12.3939C21.2362 12.7018 21.25 13.0024 21.25 13.2957C21.25 14.7824 20.9711 16.1749 20.4133 17.4733C19.8555 18.7717 19.0981 19.9031 18.1411 20.8674C17.1841 21.8317 16.0613 22.5949 14.7727 23.1569C13.4841 23.719 12.1021 24 10.6267 24ZM14.4007 18.354L9.74681 13.6654V6.99896H11.3173V13.0196L15.5064 17.24L14.4007 18.354ZM19.5865 9.30453V5.45385H15.7436V3.87165H19.5865V0H21.157V3.87165H25V5.45385H21.157V9.30453H19.5865Z" fill="#2C421F"/>
</g>
</svg>
