<svg width="32" height="33" viewBox="0 0 32 33" fill="none" xmlns="http://www.w3.org/2000/svg">
<g id="Vector">
<path id="Vector_2" d="M20.7935 27.924L30.1296 18.7C30.3401 18.492 30.5911 18.388 30.8907 18.388C31.1903 18.388 31.4494 18.5 31.668 18.716C31.8866 18.932 32 19.188 32 19.484C32 19.78 31.8866 20.036 31.668 20.244L21.749 30.044C21.4737 30.308 21.1579 30.444 20.8016 30.444C20.4453 30.444 20.1215 30.308 19.8543 30.044L15.0202 25.268C14.8097 25.06 14.7045 24.812 14.7045 24.508C14.7045 24.204 14.8178 23.948 15.0364 23.732C15.2551 23.516 15.5142 23.404 15.8138 23.404C16.1134 23.404 16.3725 23.516 16.5911 23.732L20.8097 27.916L20.7935 27.924ZM2.71255 32.5C1.95142 32.5 1.30364 32.244 0.785425 31.724C0.267207 31.204 0 30.572 0 29.82V6.076C0 5.324 0.259109 4.684 0.785425 4.172C1.31174 3.66 1.95142 3.396 2.71255 3.396H11.0931C11.2713 2.564 11.7004 1.868 12.3806 1.324C13.0607 0.772 13.8462 0.5 14.7368 0.5C15.6275 0.5 16.4291 0.772 17.1093 1.324C17.7814 1.876 18.2105 2.564 18.3887 3.396H26.7611C27.5223 3.396 28.17 3.652 28.6883 4.172C29.2065 4.692 29.4737 5.324 29.4737 6.076V13.18C29.4737 13.484 29.3684 13.74 29.1579 13.948C28.9474 14.156 28.6883 14.26 28.3806 14.26C28.0729 14.26 27.8138 14.156 27.6032 13.948C27.4008 13.74 27.2955 13.484 27.2955 13.18V6.076C27.2955 5.948 27.2389 5.82 27.1255 5.716C27.0121 5.604 26.8907 5.548 26.7611 5.548H23.3846V8.06C23.3846 8.436 23.2551 8.756 22.996 9.012C22.7368 9.268 22.4211 9.396 22.0324 9.396H7.4332C7.05263 9.396 6.72874 9.268 6.46964 9.012C6.21053 8.756 6.08097 8.436 6.08097 8.06V5.548H2.70445C2.5749 5.548 2.44534 5.604 2.34008 5.716C2.22672 5.828 2.17004 5.948 2.17004 6.076V29.82C2.17004 29.948 2.22672 30.076 2.34008 30.18C2.45344 30.292 2.5749 30.348 2.70445 30.348H11.7085C12.0162 30.348 12.2753 30.452 12.4858 30.66C12.6964 30.868 12.8016 31.124 12.8016 31.428C12.8016 31.732 12.6964 31.988 12.4858 32.196C12.2753 32.396 12.0162 32.5 11.7085 32.5H2.70445H2.71255ZM14.7287 5.748C15.1741 5.748 15.5466 5.596 15.8462 5.3C16.1457 5.004 16.2915 4.636 16.2915 4.196C16.2915 3.756 16.1377 3.388 15.8381 3.092C15.5385 2.796 15.166 2.652 14.7206 2.652C14.2753 2.652 13.9028 2.804 13.6032 3.1C13.3036 3.396 13.1579 3.764 13.1579 4.204C13.1579 4.644 13.3117 5.012 13.6113 5.308C13.9109 5.604 14.2834 5.748 14.7287 5.748Z" fill="white"/>
</g>
</svg>
