<svg width="16" height="17" viewBox="0 0 16 17" fill="none" xmlns="http://www.w3.org/2000/svg">
<path id="Vector" d="M5.732 12.006C4.144 12.006 2.78 11.4357 1.648 10.3554C0.512 9.21486 0 7.8494 0 6.25502C0 4.66064 0.568 3.29116 1.644 2.1506C2.78 1.01406 4.14 0.5 5.732 0.5C7.324 0.5 8.684 1.07028 9.816 2.1506C10.952 3.29116 11.46 4.65663 11.46 6.251C11.46 6.93374 11.348 7.56024 11.12 8.18675C10.892 8.81325 10.552 9.38353 10.156 9.83735L15.828 15.4759C15.94 15.5884 16 15.7048 16 15.8735C16 16.0422 15.944 16.2149 15.828 16.3273C15.712 16.4398 15.544 16.5 15.376 16.5C15.208 16.5 15.036 16.4438 14.924 16.3273L9.308 10.6888C8.856 11.0863 8.288 11.4277 7.664 11.6566C7.04 11.8855 6.416 11.998 5.736 11.998L5.732 12.006ZM5.732 10.8092C6.98 10.8092 8.06 10.3554 8.968 9.5C9.876 8.58835 10.272 7.56426 10.272 6.251C10.272 4.93775 9.82 3.91365 8.968 3.00201C8.06 2.09036 7.04 1.69277 5.732 1.69277C4.424 1.69277 3.404 2.14659 2.496 3.00201C1.588 3.85743 1.192 4.93775 1.192 6.251C1.192 7.56426 1.644 8.58835 2.496 9.5C3.404 10.4116 4.48 10.8092 5.732 10.8092Z" fill="#2C421F"/>
</svg>
