<svg width="32" height="33" viewBox="0 0 32 33" fill="none" xmlns="http://www.w3.org/2000/svg">
<g id="Path 19641">
<path id="Path 19641_2" d="M28.3026 32.4987C27.8098 32.4785 27.3206 32.4041 26.844 32.2769C26.3942 32.0847 25.9792 31.8195 25.6157 31.4921L14.9874 20.8638C14.3145 21.1869 13.5995 21.4138 12.8634 21.5377C12.1343 21.7261 11.3805 21.8009 10.6286 21.7595C9.23743 21.7766 7.85678 21.517 6.56683 20.9959C5.27689 20.4747 4.10337 19.7025 3.11448 18.7239C2.12558 17.7453 1.34103 16.58 0.806402 15.2956C0.271775 14.0112 -0.00226057 12.6333 0.000217687 11.2421C-0.00562781 10.3723 0.106278 9.50579 0.332886 8.66605C0.581316 7.86591 0.880471 7.08242 1.22853 6.32032L7.94162 12.9225L12.4198 8.55516L5.69823 1.84211C6.43788 1.4156 7.22523 1.07776 8.04398 0.835582C8.88372 0.608975 9.75027 0.49707 10.62 0.502915C12.036 0.469092 13.4435 0.729901 14.7533 1.2688C16.0631 1.8077 17.2466 2.61292 18.2288 3.6334C19.2492 4.61555 20.0545 5.79906 20.5934 7.10886C21.1323 8.41866 21.3931 9.82616 21.3593 11.2421C21.3463 11.9918 21.2721 12.7393 21.1375 13.4769C20.9674 14.2011 20.7422 14.9111 20.4636 15.6009L30.9811 26.1183C31.3424 26.4547 31.6124 26.8773 31.7658 27.3466C31.9561 27.8078 32.0322 28.3082 31.9876 28.8052C31.9759 29.313 31.861 29.8131 31.6498 30.275C31.4387 30.737 31.1356 31.1511 30.7593 31.4921C30.4228 31.8534 30.0002 32.1234 29.531 32.2769C29.1415 32.4357 28.7231 32.5112 28.3026 32.4987ZM27.407 29.7008C27.5371 29.8377 27.693 29.9474 27.8658 30.0236C28.0386 30.0997 28.2248 30.1408 28.4135 30.1444C28.6055 30.1657 28.7997 30.1359 28.9765 30.058C29.1532 29.9801 29.3063 29.8569 29.4201 29.7008C29.557 29.5708 29.6666 29.4148 29.7428 29.2421C29.8189 29.0693 29.86 28.8831 29.8636 28.6943C29.8849 28.5023 29.8551 28.3081 29.7772 28.1314C29.6994 27.9546 29.5761 27.8016 29.4201 27.6878L17.5634 15.9421C18.0431 15.2557 18.4195 14.5028 18.6808 13.7072C18.908 12.8676 19.0199 12.001 19.0135 11.1312C18.9796 8.85831 18.0545 6.68962 16.4375 5.09201C15.6187 4.27852 14.6362 3.64862 13.5552 3.24418C12.4743 2.83973 11.3196 2.67001 10.1679 2.74629L14.8679 7.44627C15.0048 7.57633 15.1145 7.73227 15.1907 7.90506C15.2668 8.07784 15.3079 8.26402 15.3115 8.4528C15.3328 8.64478 15.303 8.83898 15.2251 9.01573C15.1472 9.19249 15.024 9.34552 14.8679 9.45933L9.1614 15.055C8.88541 15.3119 8.53075 15.4682 8.15487 15.4985C7.96289 15.5198 7.76869 15.49 7.59193 15.4121C7.41518 15.3342 7.26214 15.211 7.14833 15.055L2.55921 10.4659C2.43983 11.6483 2.60082 12.8422 3.02913 13.9507C3.45743 15.0593 4.14099 16.0513 5.02437 16.8462C6.58725 18.351 8.67229 19.1917 10.8418 19.192C11.6746 19.1905 12.5036 19.0786 13.307 18.8593C14.1133 18.6248 14.8704 18.2462 15.5418 17.7419C15.4309 17.8528 27.3985 29.7179 27.3985 29.7179L27.407 29.7008Z" fill="white"/>
</g>
</svg>
